<?xml version="1.0" encoding="UTF-8" standalone="no"?>
<!DOCTYPE svg PUBLIC "-//W3C//DTD SVG 1.1//EN" "http://www.w3.org/Graphics/SVG/1.1/DTD/svg11.dtd">
<svg width="100%" height="100%" viewBox="0 0 2693 1000" version="1.1" xmlns="http://www.w3.org/2000/svg" xmlns:xlink="http://www.w3.org/1999/xlink" xml:space="preserve" xmlns:serif="http://www.serif.com/" style="fill-rule:evenodd;clip-rule:evenodd;stroke-linejoin:round;stroke-miterlimit:2;">
    <g transform="matrix(1,0,0,1,-765.791,-2785.87)">
        <g transform="matrix(1,0,0,1,837,313)">
            <g transform="matrix(4.16667,0,0,4.16667,38.7287,2488.68)">
                <path d="M0,117.376L13.353,71.153L69.433,71.148C71.739,71.12 73.708,69.574 74.36,67.472L80.786,46.226L22.315,46.313C22.315,46.313 21.185,46.175 20.685,47.074C20.528,47.362 19.763,48.732 19.763,48.732C19.763,48.732 26.146,26.754 35.333,26.754L82.753,26.754C85.067,26.754 87.024,25.235 87.7,23.148L95.626,-3.706L37.733,-3.795C18.96,-2.432 5.255,13.157 -3.385,42.964L-26.385,121.171L-5.012,121.171C-2.633,121.171 -0.617,119.559 0,117.376" style="fill:rgb(27,53,86);fill-rule:nonzero;"/>
            </g>
        </g>
        <g transform="matrix(1,0,0,1,837,313)">
            <g transform="matrix(4.16667,0,0,4.16667,611.401,2674.99)">
                <path d="M0,28.035L-20.056,28.035C-20.056,28.035 -20.936,28.07 -21.165,28.07C-22.056,28.07 -23.056,29.68 -23.056,29.68L-5.72,-9.962L2.748,25.795C2.768,25.889 3.187,28.035 0,28.035M36.773,73.434L7.647,-48.421C6.703,-48.411 -7.748,-48.421 -9.586,-48.421C-13.234,-48.421 -14.533,-46.692 -15.318,-45.121L-68.78,76.456L-47.821,76.456C-43.665,76.456 -42.949,74.633 -42.312,73.223L-30.082,45.598L2.933,45.455C6.871,45.455 7.963,48.184 7.963,48.184L14.642,76.456L32.273,76.456C32.273,76.456 37.501,76.456 36.773,73.434" style="fill:rgb(27,53,86);fill-rule:nonzero;"/>
            </g>
        </g>
        <g transform="matrix(1,0,0,1,837,313)">
            <g transform="matrix(4.16667,0,0,4.16667,1288.46,2993.56)">
                <path d="M0,-124.877C-5.266,-124.877 -8.051,-124.877 -11.184,-119.077L-51.64,-44.433C-51.64,-44.433 -52.172,-43.488 -52.323,-43.184C-53.132,-41.564 -53.035,-39.334 -53.035,-39.334L-67.016,-124.877L-87.344,-124.877C-92.836,-124.877 -96.846,-124.877 -97.914,-118.404L-120.419,0C-117.789,-0.092 -106.592,0 -106.592,0C-97.118,0 -97.118,0 -95.945,-6.388L-82.649,-76.666L-70.47,-1.695C-62.729,-1.681 -69.767,-1.681 -62.729,-1.681L-58.862,-1.681C-51.289,-1.695 -51.289,-1.695 -48.501,-6.726L-10.987,-76.162L-25.456,0L-10.926,0C-2.293,0 -2.293,0 -0.943,-6.473L21.574,-124.877L0,-124.877Z" style="fill:rgb(27,53,86);fill-rule:nonzero;"/>
            </g>
        </g>
        <g transform="matrix(1,0,0,1,837,313)">
            <g transform="matrix(4.08038,0,0,1.62595,-3335.17,141.744)">
                <path d="M949.514,1957.56L980.687,1897.36C978.91,1883.7 975.841,1871.45 971.865,1861.48C965.276,1844.94 956.209,1834.7 946.167,1834.7C936.09,1834.7 927.023,1844.94 920.434,1861.48C913.844,1878.02 909.765,1900.85 909.765,1926.06C909.765,1951.26 913.844,1974.01 920.434,1990.55C927.023,2007.09 936.09,2017.32 946.167,2017.32C956.209,2017.32 965.274,2007.09 971.865,1990.55C974.132,1984.86 976.119,1978.47 977.723,1971.38L958.998,1949.33L958.616,1950.03C958.197,1951.35 957.744,1952.66 957.256,1953.88C954.431,1961.06 950.49,1965.43 946.167,1965.43L945.435,1965.43L949.514,1957.56ZM930.476,1928.94C930.441,1927.98 930.441,1927.02 930.441,1926.06C930.441,1915.12 932.185,1905.32 935.043,1898.14C937.868,1891.06 941.807,1886.59 946.166,1886.59C947.946,1886.59 949.689,1887.38 951.328,1888.78L930.476,1928.94Z" style="fill:none;fill-rule:nonzero;stroke:rgb(27,53,86);stroke-width:3.69px;"/>
                <path d="M1006.76,1911.62C1006.76,1898.84 1009.06,1891.14 1012.02,1888.08C1013.28,1886.68 1014.64,1886.07 1015.96,1885.98C1017.36,1885.98 1018.72,1886.59 1019.9,1887.82C1022.41,1890.35 1024.37,1896.22 1024.37,1905.41L1024.37,2012.25L1045.01,2012.25L1045.01,1911.62C1045.01,1898.85 1047.34,1891.14 1050.27,1888.08C1051.56,1886.68 1052.92,1886.07 1054.21,1885.98C1055.61,1885.98 1056.97,1886.59 1058.19,1887.82C1060.7,1890.35 1062.62,1896.22 1062.62,1905.41L1062.62,2012.25L1083.29,2012.25L1083.29,1905.41C1083.29,1871.8 1075.66,1849.66 1065.79,1839.78C1062.09,1836.1 1058.12,1834.26 1054.14,1834.35C1050.1,1834.44 1046.09,1836.36 1042.39,1840.21C1039.78,1842.93 1037.34,1846.51 1035.14,1850.89C1032.84,1846.25 1030.26,1842.58 1027.51,1839.78C1023.81,1836.1 1019.83,1834.26 1015.86,1834.35C1012.13,1834.44 1008.36,1836.1 1004.91,1839.43L986.081,1839.43L986.081,2012.25L1006.76,2012.25L1006.76,1911.62Z" style="fill:none;fill-rule:nonzero;stroke:rgb(27,53,86);stroke-width:3.69px;"/>
                <path d="M1233.19,2012.25L1194.8,1753.94L1174.16,1753.94L1135.77,2012.25L1156.45,2012.25L1163.39,1965.52L1205.58,1965.52L1212.52,2012.25L1233.19,2012.25ZM1184.48,1823.5L1197.87,1913.63L1171.1,1913.63L1184.48,1823.5Z" style="fill:none;fill-rule:nonzero;stroke:rgb(27,53,86);stroke-width:3.69px;"/>
                <path d="M1267.72,1834.79C1257.68,1834.79 1248.58,1845.03 1242.02,1861.57C1235.43,1878.11 1231.35,1900.86 1231.35,1926.06C1231.35,1951.26 1235.43,1974.1 1242.02,1990.63C1247.29,2003.85 1254.16,2013.03 1261.83,2016.18L1251.54,2044.89L1268.28,2044.89L1271.14,2016.97C1279.82,2014.96 1287.63,2005.25 1293.45,1990.63C1297.15,1981.36 1300.08,1970.07 1301.89,1957.47L1282.57,1938.92C1281.81,1944.61 1280.52,1949.77 1278.84,1953.97C1275.99,1961.06 1272.08,1965.52 1267.72,1965.52C1263.4,1965.52 1259.46,1961.06 1256.63,1953.97C1253.77,1946.8 1252.03,1936.99 1252.03,1926.06C1252.03,1915.2 1253.77,1905.32 1256.63,1898.23C1259.46,1891.06 1263.4,1886.68 1267.72,1886.68C1272.08,1886.68 1275.98,1891.05 1278.84,1898.23C1279.12,1898.93 1279.37,1899.63 1279.64,1900.42L1297.6,1874.08C1296.38,1869.53 1294.99,1865.42 1293.45,1861.57C1286.86,1845.03 1277.76,1834.79 1267.72,1834.79L1267.72,1834.79Z" style="fill:none;fill-rule:nonzero;stroke:rgb(27,53,86);stroke-width:3.69px;"/>
                <path d="M1340.51,2017.41C1349.4,2017.41 1357.52,2009.36 1363.83,1996.15L1363.87,1996.23C1368.33,2009.1 1374.64,2017.93 1382.98,2017.93L1382.98,1966.05C1381.34,1966.05 1380.15,1964.47 1379.35,1962.19C1377.82,1957.82 1377.12,1951.26 1377.12,1945.39L1377.08,1945.39L1377.82,1839.95L1357.21,1839.08L1357.17,1844.94C1352.19,1838.47 1346.51,1834.79 1340.51,1834.79C1330.46,1834.79 1321.36,1845.03 1314.81,1861.57C1308.22,1878.11 1304.14,1900.86 1304.14,1926.06C1304.14,1951.26 1308.22,1974.1 1314.81,1990.63C1321.36,2007.17 1330.46,2017.41 1340.51,2017.41L1340.51,2017.41ZM1337.96,1805.57C1338.8,1796.73 1338.87,1798.74 1342.36,1803.38C1344.1,1805.65 1345.81,1808.01 1347.69,1809.24C1352.78,1812.48 1357.18,1809.41 1359.44,1787.36L1351.07,1781.94C1350.13,1791.13 1349.64,1788.59 1346.37,1784.22C1344.59,1781.85 1342.85,1779.49 1340.86,1778.35C1335.87,1775.38 1331.62,1778.79 1329.56,1800.58L1337.96,1805.57ZM1329.42,1953.97C1326.56,1946.8 1324.82,1936.99 1324.82,1926.06C1324.82,1915.2 1326.56,1905.32 1329.42,1898.23C1332.24,1891.06 1336.18,1886.68 1340.51,1886.68C1344.87,1886.68 1348.77,1891.05 1351.63,1898.23C1354.45,1905.32 1356.23,1915.2 1356.23,1926.06C1356.23,1936.99 1354.45,1946.8 1351.63,1953.97C1348.77,1961.06 1344.87,1965.52 1340.51,1965.52C1336.18,1965.52 1332.24,1961.06 1329.42,1953.97Z" style="fill:none;fill-rule:nonzero;stroke:rgb(27,53,86);stroke-width:3.69px;"/>
            </g>
        </g>
        <g transform="matrix(1,0,0,1,837,313)">
            <g transform="matrix(0.502848,0,0,0.502848,2191.38,1376.47)">
                <path d="M650.734,4059.47C619.697,4070.18 586.387,4076 551.73,4076C384.097,4076 248,3939.9 248,3772.27C248,3604.64 384.097,3468.54 551.73,3468.54C719.363,3468.54 855.46,3604.64 855.46,3772.27C855.46,3844.44 830.237,3910.76 788.133,3962.89L688.051,3798.36C688.154,3797.82 688.252,3797.28 688.348,3796.73C694.688,3760.7 686.484,3723.59 665.547,3693.6L665.545,3693.59C664.278,3691.78 662.976,3690.01 661.638,3688.28C662.621,3686.96 663.294,3685.42 663.586,3683.77C664.602,3678.01 660.703,3672.44 654.947,3671.42C652.43,3670.98 649.844,3671.46 647.661,3672.75C628.02,3654.06 603.28,3641.55 576.542,3636.83C502.007,3623.66 429.841,3674.16 416.676,3748.69C411.954,3775.43 415.229,3802.95 426.06,3827.81C424.145,3829.41 422.846,3831.65 422.408,3834.13C421.391,3839.89 425.293,3845.46 431.052,3846.48C432.656,3846.76 434.29,3846.67 435.831,3846.23C437.002,3848.1 438.223,3849.94 439.494,3851.76L439.499,3851.76C460.855,3882.18 493.579,3902.74 530.217,3908.79C530.216,3908.79 597.621,3993.07 650.734,4059.47ZM773.437,3979.79C744.984,4010.17 710.365,4034.71 671.585,4051.4L551.356,3901.1L673.58,3815.56L773.437,3979.79ZM629.739,3685.24L443.941,3815.27C436.127,3795.33 433.947,3773.58 437.682,3752.43C448.814,3689.41 509.834,3646.71 572.856,3657.84C593.996,3661.57 613.676,3671.07 629.739,3685.24ZM667.167,3794.01L533.306,3887.69C502.461,3882.53 474.93,3865.17 456.97,3839.53C455.811,3837.87 454.698,3836.2 453.636,3834.5C453.636,3834.5 644.497,3700.96 644.497,3700.96C645.727,3702.53 646.919,3704.16 648.052,3705.8C648.056,3705.81 648.06,3705.82 648.064,3705.82C665.981,3731.48 672.854,3763.27 667.167,3794.01Z" style="fill:rgb(27,53,86);"/>
            </g>
        </g>
    </g>
</svg>
