<?xml version="1.0" encoding="UTF-8" standalone="no"?>
<!DOCTYPE svg PUBLIC "-//W3C//DTD SVG 1.1//EN" "http://www.w3.org/Graphics/SVG/1.1/DTD/svg11.dtd">
<svg width="100%" height="100%" viewBox="0 0 1005 234" version="1.1" xmlns="http://www.w3.org/2000/svg" xmlns:xlink="http://www.w3.org/1999/xlink" xml:space="preserve" xmlns:serif="http://www.serif.com/" style="fill-rule:evenodd;clip-rule:evenodd;stroke-linejoin:round;stroke-miterlimit:2;">
    <g transform="matrix(1,0,0,1,-235.491,-3062.6)">
        <g transform="matrix(0.641277,0,0,0.641277,57.2159,2745.81)">
            <path d="M323.125,554.75C324.458,556.417 326.125,558.625 328.125,561.375C330.208,564.042 332.333,567.042 334.5,570.375C336.667,573.625 338.792,577.042 340.875,580.625C343.042,584.208 344.875,587.667 346.375,591L333.125,591C331.458,587.833 329.625,584.625 327.625,581.375C325.708,578.125 323.75,575.042 321.75,572.125C319.75,569.125 317.75,566.333 315.75,563.75C313.833,561.167 312.083,558.917 310.5,557C309.417,557.083 308.292,557.125 307.125,557.125L292.875,557.125L292.875,591L280.75,591L280.75,505.625C284.167,504.792 287.958,504.25 292.125,504C296.375,503.667 300.25,503.5 303.75,503.5C315.917,503.5 325.167,505.792 331.5,510.375C337.917,514.958 341.125,521.792 341.125,530.875C341.125,536.625 339.583,541.542 336.5,545.625C333.5,549.708 329.042,552.75 323.125,554.75ZM304.75,514.125C299.583,514.125 295.625,514.25 292.875,514.5L292.875,547.125L301.5,547.125C305.667,547.125 309.417,546.917 312.75,546.5C316.083,546.083 318.875,545.292 321.125,544.125C323.458,542.958 325.25,541.333 326.5,539.25C327.75,537.083 328.375,534.25 328.375,530.75C328.375,527.5 327.75,524.792 326.5,522.625C325.25,520.458 323.542,518.75 321.375,517.5C319.292,516.25 316.792,515.375 313.875,514.875C311.042,514.375 308,514.125 304.75,514.125Z" style="fill:white;fill-rule:nonzero;"/>
        </g>
        <g transform="matrix(0.641277,0,0,0.641277,57.2159,2745.81)">
            <path d="M355,558.625C355,552.875 355.833,547.875 357.5,543.625C359.167,539.292 361.375,535.708 364.125,532.875C366.875,530.042 370.042,527.917 373.625,526.5C377.208,525.083 380.875,524.375 384.625,524.375C393.375,524.375 400.083,527.125 404.75,532.625C409.417,538.042 411.75,546.333 411.75,557.5L411.75,559.5C411.75,560.25 411.708,560.958 411.625,561.625L367.125,561.625C367.625,568.375 369.583,573.5 373,577C376.417,580.5 381.75,582.25 389,582.25C393.083,582.25 396.5,581.917 399.25,581.25C402.083,580.5 404.208,579.792 405.625,579.125L407.25,588.875C405.833,589.625 403.333,590.417 399.75,591.25C396.25,592.083 392.25,592.5 387.75,592.5C382.083,592.5 377.167,591.667 373,590C368.917,588.25 365.542,585.875 362.875,582.875C360.208,579.875 358.208,576.333 356.875,572.25C355.625,568.083 355,563.542 355,558.625ZM399.625,552.25C399.708,547 398.375,542.708 395.625,539.375C392.958,535.958 389.25,534.25 384.5,534.25C381.833,534.25 379.458,534.792 377.375,535.875C375.375,536.875 373.667,538.208 372.25,539.875C370.833,541.542 369.708,543.458 368.875,545.625C368.125,547.792 367.625,550 367.375,552.25L399.625,552.25Z" style="fill:white;fill-rule:nonzero;"/>
        </g>
        <g transform="matrix(0.641277,0,0,0.641277,57.2159,2745.81)">
            <path d="M456.75,592.5C451.5,592.5 446.875,591.667 442.875,590C438.958,588.333 435.625,586 432.875,583C430.208,580 428.208,576.458 426.875,572.375C425.542,568.208 424.875,563.625 424.875,558.625C424.875,553.625 425.583,549.042 427,544.875C428.5,540.708 430.583,537.125 433.25,534.125C435.917,531.042 439.167,528.667 443,527C446.917,525.25 451.25,524.375 456,524.375C458.917,524.375 461.833,524.625 464.75,525.125C467.667,525.625 470.458,526.417 473.125,527.5L470.5,537.375C468.75,536.542 466.708,535.875 464.375,535.375C462.125,534.875 459.708,534.625 457.125,534.625C450.625,534.625 445.625,536.667 442.125,540.75C438.708,544.833 437,550.792 437,558.625C437,562.125 437.375,565.333 438.125,568.25C438.958,571.167 440.208,573.667 441.875,575.75C443.625,577.833 445.833,579.458 448.5,580.625C451.167,581.708 454.417,582.25 458.25,582.25C461.333,582.25 464.125,581.958 466.625,581.375C469.125,580.792 471.083,580.167 472.5,579.5L474.125,589.25C473.458,589.667 472.5,590.083 471.25,590.5C470,590.833 468.583,591.125 467,591.375C465.417,591.708 463.708,591.958 461.875,592.125C460.125,592.375 458.417,592.5 456.75,592.5Z" style="fill:white;fill-rule:nonzero;"/>
        </g>
        <g transform="matrix(0.641277,0,0,0.641277,57.2159,2745.81)">
            <path d="M483,558.625C483,552.875 483.833,547.875 485.5,543.625C487.167,539.292 489.375,535.708 492.125,532.875C494.875,530.042 498.042,527.917 501.625,526.5C505.208,525.083 508.875,524.375 512.625,524.375C521.375,524.375 528.083,527.125 532.75,532.625C537.417,538.042 539.75,546.333 539.75,557.5L539.75,559.5C539.75,560.25 539.708,560.958 539.625,561.625L495.125,561.625C495.625,568.375 497.583,573.5 501,577C504.417,580.5 509.75,582.25 517,582.25C521.083,582.25 524.5,581.917 527.25,581.25C530.083,580.5 532.208,579.792 533.625,579.125L535.25,588.875C533.833,589.625 531.333,590.417 527.75,591.25C524.25,592.083 520.25,592.5 515.75,592.5C510.083,592.5 505.167,591.667 501,590C496.917,588.25 493.542,585.875 490.875,582.875C488.208,579.875 486.208,576.333 484.875,572.25C483.625,568.083 483,563.542 483,558.625ZM527.625,552.25C527.708,547 526.375,542.708 523.625,539.375C520.958,535.958 517.25,534.25 512.5,534.25C509.833,534.25 507.458,534.792 505.375,535.875C503.375,536.875 501.667,538.208 500.25,539.875C498.833,541.542 497.708,543.458 496.875,545.625C496.125,547.792 495.625,550 495.375,552.25L527.625,552.25Z" style="fill:white;fill-rule:nonzero;"/>
        </g>
        <g transform="matrix(0.641277,0,0,0.641277,57.2159,2745.81)">
            <path d="M601.625,558.625C601.625,551.042 599.75,545.208 596,541.125C592.25,537.042 587.25,535 581,535C577.5,535 574.75,535.125 572.75,535.375C570.833,535.625 569.292,535.917 568.125,536.25L568.125,577.25C569.542,578.417 571.583,579.542 574.25,580.625C576.917,581.708 579.833,582.25 583,582.25C586.333,582.25 589.167,581.667 591.5,580.5C593.917,579.25 595.875,577.583 597.375,575.5C598.875,573.333 599.958,570.833 600.625,568C601.292,565.083 601.625,561.958 601.625,558.625ZM613.75,558.625C613.75,563.542 613.083,568.083 611.75,572.25C610.5,576.417 608.625,580 606.125,583C603.625,586 600.542,588.333 596.875,590C593.292,591.667 589.167,592.5 584.5,592.5C580.75,592.5 577.417,592 574.5,591C571.667,590 569.542,589.042 568.125,588.125L568.125,614.125L556.5,614.125L556.5,528C559.25,527.333 562.667,526.625 566.75,525.875C570.917,525.042 575.708,524.625 581.125,524.625C586.125,524.625 590.625,525.417 594.625,527C598.625,528.583 602.042,530.833 604.875,533.75C607.708,536.667 609.875,540.25 611.375,544.5C612.958,548.667 613.75,553.375 613.75,558.625Z" style="fill:white;fill-rule:nonzero;"/>
        </g>
        <g transform="matrix(0.641277,0,0,0.641277,57.2159,2745.81)">
            <path d="M659.875,592.5L658.5,595.625C660.917,596.792 662.667,598.042 663.75,599.375C664.833,600.792 665.375,602.833 665.375,605.5C665.375,606.417 665.167,607.417 664.75,608.5C664.333,609.583 663.625,610.583 662.625,611.5C661.625,612.417 660.292,613.167 658.625,613.75C656.958,614.333 654.917,614.625 652.5,614.625C650.333,614.625 648.333,614.458 646.5,614.125C644.75,613.792 643.333,613.417 642.25,613L643.625,605.875C644.625,606.208 645.667,606.5 646.75,606.75C647.917,607 649.208,607.125 650.625,607.125C653.625,607.125 655.125,606.167 655.125,604.25C655.125,603.333 654.667,602.542 653.75,601.875C652.833,601.292 651.542,600.667 649.875,600L649,599.625C649.333,598.625 649.792,597.417 650.375,596C650.958,594.583 651.583,593.25 652.25,592C648,591.417 644.25,590.208 641,588.375C637.833,586.458 635.167,584.042 633,581.125C630.833,578.208 629.208,574.875 628.125,571.125C627.042,567.292 626.5,563.125 626.5,558.625C626.5,553.625 627.208,549.042 628.625,544.875C630.125,540.708 632.208,537.125 634.875,534.125C637.542,531.042 640.792,528.667 644.625,527C648.542,525.25 652.875,524.375 657.625,524.375C660.542,524.375 663.458,524.625 666.375,525.125C669.292,525.625 672.083,526.417 674.75,527.5L672.125,537.375C670.375,536.542 668.333,535.875 666,535.375C663.75,534.875 661.333,534.625 658.75,534.625C652.25,534.625 647.25,536.667 643.75,540.75C640.333,544.833 638.625,550.792 638.625,558.625C638.625,562.125 639,565.333 639.75,568.25C640.583,571.167 641.833,573.667 643.5,575.75C645.25,577.833 647.458,579.458 650.125,580.625C652.792,581.708 656.042,582.25 659.875,582.25C662.958,582.25 665.75,581.958 668.25,581.375C670.75,580.792 672.708,580.167 674.125,579.5L675.75,589.25C675.083,589.583 674.167,589.958 673,590.375C671.917,590.708 670.667,591 669.25,591.25C667.833,591.583 666.292,591.833 664.625,592C663.042,592.25 661.458,592.417 659.875,592.5Z" style="fill:white;fill-rule:nonzero;"/>
        </g>
        <g transform="matrix(0.641277,0,0,0.641277,57.2159,2745.81)">
            <path d="M710.25,582.625C713,582.625 715.417,582.583 717.5,582.5C719.667,582.333 721.458,582.083 722.875,581.75L722.875,562.375C722.042,561.958 720.667,561.625 718.75,561.375C716.917,561.042 714.667,560.875 712,560.875C710.25,560.875 708.375,561 706.375,561.25C704.458,561.5 702.667,562.042 701,562.875C699.417,563.625 698.083,564.708 697,566.125C695.917,567.458 695.375,569.25 695.375,571.5C695.375,575.667 696.708,578.583 699.375,580.25C702.042,581.833 705.667,582.625 710.25,582.625ZM709.25,524.375C713.917,524.375 717.833,525 721,526.25C724.25,527.417 726.833,529.125 728.75,531.375C730.75,533.542 732.167,536.167 733,539.25C733.833,542.25 734.25,545.583 734.25,549.25L734.25,589.875C733.25,590.042 731.833,590.292 730,590.625C728.25,590.875 726.25,591.125 724,591.375C721.75,591.625 719.292,591.833 716.625,592C714.042,592.25 711.458,592.375 708.875,592.375C705.208,592.375 701.833,592 698.75,591.25C695.667,590.5 693,589.333 690.75,587.75C688.5,586.083 686.75,583.917 685.5,581.25C684.25,578.583 683.625,575.375 683.625,571.625C683.625,568.042 684.333,564.958 685.75,562.375C687.25,559.792 689.25,557.708 691.75,556.125C694.25,554.542 697.167,553.375 700.5,552.625C703.833,551.875 707.333,551.5 711,551.5C712.167,551.5 713.375,551.583 714.625,551.75C715.875,551.833 717.042,552 718.125,552.25C719.292,552.417 720.292,552.583 721.125,552.75C721.958,552.917 722.542,553.042 722.875,553.125L722.875,549.875C722.875,547.958 722.667,546.083 722.25,544.25C721.833,542.333 721.083,540.667 720,539.25C718.917,537.75 717.417,536.583 715.5,535.75C713.667,534.833 711.25,534.375 708.25,534.375C704.417,534.375 701.042,534.667 698.125,535.25C695.292,535.75 693.167,536.292 691.75,536.875L690.375,527.25C691.875,526.583 694.375,525.958 697.875,525.375C701.375,524.708 705.167,524.375 709.25,524.375ZM731.75,502.125C731.333,503.125 730.75,504.292 730,505.625C729.333,506.958 728.458,508.208 727.375,509.375C726.292,510.458 725,511.417 723.5,512.25C722.083,513 720.5,513.375 718.75,513.375C717.083,513.375 715.5,513.083 714,512.5C712.583,511.917 711.208,511.292 709.875,510.625C708.458,509.958 707.25,509.458 706.25,509.125C705.25,508.792 704.292,508.625 703.375,508.625C701.958,508.625 700.625,509.208 699.375,510.375C698.208,511.542 697.292,512.792 696.625,514.125L690.625,511.125C690.958,510.125 691.5,508.958 692.25,507.625C693,506.292 693.917,505.083 695,504C696.083,502.833 697.333,501.875 698.75,501.125C700.25,500.292 701.875,499.875 703.625,499.875C705.292,499.875 706.833,500.167 708.25,500.75C709.75,501.333 711.167,501.958 712.5,502.625C713.917,503.292 715.125,503.792 716.125,504.125C717.125,504.458 718.083,504.625 719,504.625C720.417,504.625 721.708,504.042 722.875,502.875C724.125,501.708 725.083,500.458 725.75,499.125L731.75,502.125Z" style="fill:white;fill-rule:nonzero;"/>
        </g>
        <g transform="matrix(0.641277,0,0,0.641277,57.2159,2745.81)">
            <path d="M810.875,558.5C810.875,563.667 810.125,568.333 808.625,572.5C807.125,576.667 805,580.25 802.25,583.25C799.583,586.25 796.375,588.583 792.625,590.25C788.875,591.833 784.792,592.625 780.375,592.625C775.958,592.625 771.875,591.833 768.125,590.25C764.375,588.583 761.125,586.25 758.375,583.25C755.708,580.25 753.625,576.667 752.125,572.5C750.625,568.333 749.875,563.667 749.875,558.5C749.875,553.417 750.625,548.792 752.125,544.625C753.625,540.375 755.708,536.75 758.375,533.75C761.125,530.75 764.375,528.458 768.125,526.875C771.875,525.208 775.958,524.375 780.375,524.375C784.792,524.375 788.875,525.208 792.625,526.875C796.375,528.458 799.583,530.75 802.25,533.75C805,536.75 807.125,540.375 808.625,544.625C810.125,548.792 810.875,553.417 810.875,558.5ZM798.75,558.5C798.75,551.167 797.083,545.375 793.75,541.125C790.5,536.792 786.042,534.625 780.375,534.625C774.708,534.625 770.208,536.792 766.875,541.125C763.625,545.375 762,551.167 762,558.5C762,565.833 763.625,571.667 766.875,576C770.208,580.25 774.708,582.375 780.375,582.375C786.042,582.375 790.5,580.25 793.75,576C797.083,571.667 798.75,565.833 798.75,558.5Z" style="fill:white;fill-rule:nonzero;"/>
        </g>
        <g transform="matrix(0.641277,0,0,0.641277,57.2159,2745.81)">
            <path d="M898.125,539.75C896.708,538.583 894.667,537.458 892,536.375C889.333,535.292 886.417,534.75 883.25,534.75C879.917,534.75 877.042,535.375 874.625,536.625C872.292,537.792 870.375,539.458 868.875,541.625C867.375,543.708 866.292,546.208 865.625,549.125C864.958,552.042 864.625,555.167 864.625,558.5C864.625,566.083 866.5,571.958 870.25,576.125C874,580.208 879,582.25 885.25,582.25C888.417,582.25 891.042,582.125 893.125,581.875C895.292,581.542 896.958,581.208 898.125,580.875L898.125,539.75ZM898.125,496L909.75,494L909.75,589.125C907.083,589.875 903.667,590.625 899.5,591.375C895.333,592.125 890.542,592.5 885.125,592.5C880.125,592.5 875.625,591.708 871.625,590.125C867.625,588.542 864.208,586.292 861.375,583.375C858.542,580.458 856.333,576.917 854.75,572.75C853.25,568.5 852.5,563.75 852.5,558.5C852.5,553.5 853.125,548.917 854.375,544.75C855.708,540.583 857.625,537 860.125,534C862.625,531 865.667,528.667 869.25,527C872.917,525.333 877.083,524.5 881.75,524.5C885.5,524.5 888.792,525 891.625,526C894.542,527 896.708,527.958 898.125,528.875L898.125,496Z" style="fill:white;fill-rule:nonzero;"/>
        </g>
        <g transform="matrix(0.641277,0,0,0.641277,57.2159,2745.81)">
            <path d="M926.125,558.625C926.125,552.875 926.958,547.875 928.625,543.625C930.292,539.292 932.5,535.708 935.25,532.875C938,530.042 941.167,527.917 944.75,526.5C948.333,525.083 952,524.375 955.75,524.375C964.5,524.375 971.208,527.125 975.875,532.625C980.542,538.042 982.875,546.333 982.875,557.5L982.875,559.5C982.875,560.25 982.833,560.958 982.75,561.625L938.25,561.625C938.75,568.375 940.708,573.5 944.125,577C947.542,580.5 952.875,582.25 960.125,582.25C964.208,582.25 967.625,581.917 970.375,581.25C973.208,580.5 975.333,579.792 976.75,579.125L978.375,588.875C976.958,589.625 974.458,590.417 970.875,591.25C967.375,592.083 963.375,592.5 958.875,592.5C953.208,592.5 948.292,591.667 944.125,590C940.042,588.25 936.667,585.875 934,582.875C931.333,579.875 929.333,576.333 928,572.25C926.75,568.083 926.125,563.542 926.125,558.625ZM970.75,552.25C970.833,547 969.5,542.708 966.75,539.375C964.083,535.958 960.375,534.25 955.625,534.25C952.958,534.25 950.583,534.792 948.5,535.875C946.5,536.875 944.792,538.208 943.375,539.875C941.958,541.542 940.833,543.458 940,545.625C939.25,547.792 938.75,550 938.5,552.25L970.75,552.25Z" style="fill:white;fill-rule:nonzero;"/>
        </g>
        <g transform="matrix(0.641277,0,0,0.641277,57.2159,2745.81)">
            <path d="M378,857.667C410.533,857.667 439.333,841.933 457.733,817.933L419.333,791C409.467,803.267 394.533,811 378,811C348.667,811 324.667,787 324.667,757.667C324.667,728.333 348.667,704.6 378,704.6C394.533,704.6 409.467,712.333 419.333,724.333L457.733,697.667C439.333,673.4 410.533,657.667 378,657.667C322.8,657.667 278,702.467 278,757.667C278,812.867 322.8,857.667 378,857.667Z" style="fill:rgb(249,255,168);fill-rule:nonzero;"/>
        </g>
        <g transform="matrix(0.641277,0,0,0.641277,57.2159,2745.81)">
            <path d="M525.733,857.667L534.533,833.4L611.6,833.4L620.4,857.667L672.4,857.667L597.733,657.667L548.4,657.667L473.733,857.667L525.733,857.667ZM573.2,726.2L594.8,786.733L551.333,786.733L573.2,726.2Z" style="fill:rgb(249,255,168);fill-rule:nonzero;"/>
        </g>
        <g transform="matrix(0.641277,0,0,0.641277,57.2159,2745.81)">
            <path d="M688.4,857.667L847.067,857.667L847.067,811L735.067,811L735.067,657.667L688.4,657.667L688.4,857.667Z" style="fill:rgb(249,255,168);fill-rule:nonzero;"/>
        </g>
        <g transform="matrix(0.641277,0,0,0.641277,57.2159,2745.81)">
            <path d="M971.067,857.667C1026,857.667 1070.8,812.867 1070.8,757.667C1070.8,702.467 1026,657.667 971.067,657.667C915.867,657.667 871.067,702.467 871.067,757.667C871.067,812.867 915.867,857.667 971.067,857.667ZM917.733,757.667C917.733,728.333 941.733,704.6 971.067,704.6C1000.4,704.6 1024.13,728.333 1024.13,757.667C1024.13,787 1000.4,811 971.067,811C941.733,811 917.733,787 917.733,757.667Z" style="fill:rgb(249,255,168);fill-rule:nonzero;"/>
        </g>
        <g transform="matrix(0.641277,0,0,0.641277,57.2159,2745.81)">
            <path d="M1178.27,857.667C1230,857.667 1263.6,824.333 1263.6,774.2L1263.6,657.667L1216.93,657.667L1216.93,773.933C1216.93,796.333 1202,811.267 1179.6,811.267L1178.8,811.267C1156.4,811.267 1141.47,796.333 1141.47,773.933L1141.47,657.667L1094.8,657.667L1094.8,774.2C1094.8,824.333 1128.13,857.667 1178.27,857.667Z" style="fill:rgb(249,255,168);fill-rule:nonzero;"/>
        </g>
        <g transform="matrix(0.641277,0,0,0.641277,57.2159,2745.81)">
            <path d="M1326.27,857.667L1326.27,799.8L1356.4,799.8L1391.07,857.667L1440.4,857.667L1402,793.4C1425.73,782.733 1440.4,759.8 1440.4,729.4C1440.4,685.933 1412.4,657.667 1370.27,657.667L1279.6,657.667L1279.6,857.667L1326.27,857.667ZM1326.27,704.333L1369.73,704.333C1384.13,704.333 1393.73,713.933 1393.73,728.6C1393.73,743.267 1384.13,753.133 1369.73,753.133L1326.27,753.133L1326.27,704.333Z" style="fill:rgb(249,255,168);fill-rule:nonzero;"/>
        </g>
        <g transform="matrix(0.641277,0,0,0.641277,57.2159,2745.81)">
            <path d="M1564.4,857.667C1619.33,857.667 1664.13,812.867 1664.13,757.667C1664.13,702.467 1619.33,657.667 1564.4,657.667C1509.2,657.667 1464.4,702.467 1464.4,757.667C1464.4,812.867 1509.2,857.667 1564.4,857.667ZM1511.07,757.667C1511.07,728.333 1535.07,704.6 1564.4,704.6C1593.73,704.6 1617.47,728.333 1617.47,757.667C1617.47,787 1593.73,811 1564.4,811C1535.07,811 1511.07,787 1511.07,757.667Z" style="fill:rgb(249,255,168);fill-rule:nonzero;"/>
        </g>
        <g transform="matrix(0.641277,0,0,0.641277,57.2159,2745.81)">
            <path d="M1842,801.133C1842,757.133 1801.73,743.267 1765.73,733.133C1699.33,715 1776.67,663.533 1801.73,719.533L1844.67,719.533C1844.4,678.467 1804.13,657.667 1764.67,657.667C1727.87,657.667 1691.87,676.067 1691.87,713.933C1691.87,756.333 1729.47,770.467 1764.4,780.867C1812.13,795 1793.47,820.6 1768.13,820.6C1755.07,820.6 1740.4,813.933 1732.13,795.267L1689.2,795.267C1689.47,836.6 1730,857.4 1769.2,857.4C1806.27,857.4 1842,839 1842,801.133Z" style="fill:rgb(249,255,168);fill-rule:nonzero;"/>
        </g>
    </g>
</svg>
