<?xml version="1.0" encoding="UTF-8" standalone="no"?>
<!DOCTYPE svg PUBLIC "-//W3C//DTD SVG 1.1//EN" "http://www.w3.org/Graphics/SVG/1.1/DTD/svg11.dtd">
<svg width="100%" height="100%" viewBox="0 0 50 50" version="1.1" xmlns="http://www.w3.org/2000/svg" xmlns:xlink="http://www.w3.org/1999/xlink" xml:space="preserve" xmlns:serif="http://www.serif.com/" style="fill-rule:evenodd;clip-rule:evenodd;stroke-linejoin:round;stroke-miterlimit:2;">
    <g transform="matrix(1,0,0,2.3871,-168.07,-807.048)">
        <path d="M193.071,338.087C206.878,338.087 218.071,342.776 218.071,348.56C218.071,354.344 206.878,359.033 193.071,359.033C179.264,359.033 168.071,354.344 168.071,348.56C168.071,342.776 179.264,338.087 193.071,338.087ZM201.442,344.407L201.103,344.407L201.103,343.796C201.103,343.558 200.645,343.366 200.078,343.366C199.511,343.366 199.052,343.558 199.052,343.796L199.052,344.407L194.095,344.407L194.095,343.796C194.095,343.558 193.637,343.366 193.07,343.366C192.503,343.366 192.044,343.558 192.044,343.796L192.044,344.407L187.085,344.407L187.085,343.796C187.085,343.558 186.627,343.366 186.06,343.366C185.493,343.366 185.034,343.558 185.034,343.796L185.034,344.407L184.697,344.407C182.463,344.407 180.648,345.167 180.648,346.102L180.648,352.061C180.648,352.995 182.463,353.756 184.697,353.756L201.444,353.756C203.674,353.756 205.492,352.996 205.492,352.061L205.491,346.102C205.491,345.167 203.676,344.407 201.442,344.407ZM203.44,352.061C203.44,352.523 202.544,352.897 201.442,352.897L184.697,352.897C183.596,352.897 182.7,352.521 182.7,352.061L182.7,346.102C182.7,345.641 183.596,345.265 184.697,345.265L185.036,345.265L185.036,345.761C185.036,345.999 185.494,346.191 186.061,346.191C186.628,346.191 187.087,345.999 187.087,345.761L187.086,345.266L192.044,345.266L192.044,345.762C192.044,345.999 192.503,346.191 193.07,346.191C193.637,346.191 194.095,345.999 194.095,345.762L194.095,345.266L199.054,345.266L199.054,345.762C199.054,345.999 199.513,346.191 200.079,346.191C200.646,346.191 201.105,345.999 201.105,345.762L201.105,345.266L201.444,345.266C202.545,345.266 203.441,345.641 203.441,346.102L203.44,352.061ZM196.021,348.078L192.359,349.5L190.793,348.883C190.38,348.721 189.732,348.729 189.343,348.902C188.956,349.075 188.976,349.347 189.389,349.51L191.652,350.401C191.849,350.478 192.103,350.517 192.355,350.517C192.605,350.517 192.855,350.479 193.053,350.403L197.417,348.708C197.833,348.547 197.857,348.275 197.471,348.1C197.085,347.926 196.436,347.916 196.021,348.078Z" style="fill:rgb(69,183,229);"/>
    </g>
</svg>
