<?xml version="1.0" encoding="UTF-8" standalone="no"?>
<!DOCTYPE svg PUBLIC "-//W3C//DTD SVG 1.1//EN" "http://www.w3.org/Graphics/SVG/1.1/DTD/svg11.dtd">
<svg width="100%" height="100%" viewBox="0 0 50 50" version="1.1" xmlns="http://www.w3.org/2000/svg" xmlns:xlink="http://www.w3.org/1999/xlink" xml:space="preserve" xmlns:serif="http://www.serif.com/" style="fill-rule:evenodd;clip-rule:evenodd;stroke-linejoin:round;stroke-miterlimit:2;">
    <g transform="matrix(1,0,0,1,-99.75,-256.493)">
        <g transform="matrix(1.06383,0,0,1.06383,43.3671,160.748)">
            <g>
                <path d="M63.345,132.976C57.103,128.752 53,121.605 53,113.5C53,100.521 63.521,90 76.5,90C89.479,90 100,100.521 100,113.5C100,116.375 99.484,119.129 98.539,121.675C98.491,121.676 98.442,121.678 98.395,121.68C96.453,121.767 94.511,121.524 92.651,120.963C96.44,120.032 97.149,116.405 97.601,114.033C97.693,113.47 97.822,112.915 97.985,112.368C98.017,112.277 98.034,112.181 98.034,112.085C98.034,111.616 97.648,111.232 97.18,111.232C97.032,111.232 96.885,111.27 96.756,111.344C94.767,112.479 93.786,112.454 86.421,104.397C79.926,97.288 70.811,100.181 68.165,101.239C67.312,100.096 65.537,98.935 62.464,99.84C62.1,99.945 61.847,100.281 61.847,100.66C61.847,100.855 61.914,101.045 62.037,101.197C63.949,103.569 63.599,104.901 63.087,106.915C62.757,108.036 62.568,109.194 62.524,110.363C62.344,113.573 61.904,116.765 61.21,119.904C60.901,120.625 60.933,121.446 61.295,122.14C61.961,123.25 63.48,123.489 65.289,123.779C66.391,124.004 67.539,123.74 68.43,123.054C69.626,121.942 70.305,120.377 70.299,118.744C70.471,117.358 71.498,116.222 72.859,115.91C73.184,115.91 73.218,115.978 73.235,116.013C73.665,118.248 73.665,120.545 73.235,122.781C72.799,125.389 72.77,128.049 73.149,130.667C71.265,130.874 66.85,131.488 63.345,132.976ZM97.858,123.316C94.186,131.292 86.178,136.86 76.854,136.997C74.009,130.334 74.49,126.617 74.95,123.002C75.405,120.549 75.379,118.029 74.873,115.586C74.609,114.642 73.662,114.045 72.697,114.212C70.503,114.595 68.816,116.4 68.583,118.616C68.604,119.77 68.161,120.887 67.354,121.714C66.832,122.097 66.168,122.234 65.537,122.089C64.359,121.901 63.036,121.688 62.78,121.236C62.66,121.031 62.78,120.613 62.857,120.382L62.857,120.288C63.583,117.032 64.04,113.72 64.222,110.388C64.264,109.347 64.436,108.314 64.734,107.316C65.212,105.447 65.673,103.663 64.162,101.222C66.322,101.026 66.928,102.426 66.996,102.596L66.996,102.69C67.012,102.711 67.029,102.731 67.047,102.75C67.08,102.809 67.121,102.863 67.167,102.912L67.252,102.989C67.307,103.03 67.367,103.065 67.431,103.091L67.534,103.091C67.599,103.099 67.665,103.099 67.73,103.091L67.909,103.091C67.986,103.091 75.59,101.76 78.432,107.026C78.825,107.751 79.217,108.536 79.627,109.373C82.592,115.337 86.649,123.474 97.858,123.316ZM75.032,136.955C71.481,136.736 68.143,135.728 65.192,134.105C68.332,132.994 72.013,132.53 73.551,132.348C73.936,133.917 74.431,135.457 75.032,136.955ZM85.166,105.558C91.2,112.164 93.539,114.092 95.962,113.529L95.962,113.717C95.382,116.721 94.716,120.109 89.254,119.384C85.26,116.823 83.109,112.462 81.24,108.698C80.813,107.845 80.387,107.043 80.02,106.3C78.607,103.787 76.117,102.056 73.269,101.606C76.734,101.086 81.419,101.461 85.166,105.558ZM67.474,108.707C66.96,108.707 66.544,109.124 66.544,109.637C66.544,110.151 66.96,110.568 67.474,110.568C67.987,110.568 68.404,110.151 68.404,109.637C68.404,109.124 67.987,108.707 67.474,108.707Z"/>
            </g>
        </g>
    </g>
</svg>
