<?xml version="1.0" encoding="UTF-8" standalone="no"?>
<!DOCTYPE svg PUBLIC "-//W3C//DTD SVG 1.1//EN" "http://www.w3.org/Graphics/SVG/1.1/DTD/svg11.dtd">
<svg width="100%" height="100%" viewBox="0 0 343 442" version="1.1" xmlns="http://www.w3.org/2000/svg" xmlns:xlink="http://www.w3.org/1999/xlink" xml:space="preserve" xmlns:serif="http://www.serif.com/" style="fill-rule:evenodd;clip-rule:evenodd;stroke-linejoin:round;stroke-miterlimit:2;">
    <g transform="matrix(1,0,0,1,-2454.96,-4402.36)">
        <g transform="matrix(1,0,0,1,-115.946,803)">
            <g transform="matrix(5.1922,0,0,5.1922,1680.07,2690.91)">
                <path d="M223.661,181.041C221.606,180.085 220.753,180.516 219.333,182.267C219.638,179.706 221.98,178.802 223.661,181.041ZM204.955,214.212C205.399,214.212 205.76,214.699 205.76,215.3C205.76,215.9 205.399,216.387 204.955,216.387C204.51,216.387 204.15,215.9 204.15,215.3C204.15,214.699 204.51,214.212 204.955,214.212ZM210.46,213.922C211.023,213.922 211.48,214.538 211.48,215.3C211.48,216.061 211.023,216.677 210.46,216.677C209.897,216.677 209.44,216.061 209.44,215.3C209.44,214.538 209.897,213.922 210.46,213.922ZM207.284,217.321C207.284,217.321 206.084,219.273 205.987,219.145C205.891,219.017 205.14,217.535 205.182,217.363C205.225,217.192 207.284,217.321 207.284,217.321ZM226.377,192.829C226.377,192.829 231.315,190.868 233.968,188.725C234.89,188.893 235.72,189.149 236.158,189.124C236.998,189.078 238.01,188.236 237.325,187.553C236.971,187.197 236.319,186.919 235.553,186.763C236.428,184.065 237.16,180.953 235.72,180.202C234.268,179.445 227.514,179.761 226.504,178.498C225.493,177.235 223.284,174.521 216.718,175.025C214.557,175.192 212.005,175.28 209.948,176.085C204.656,178.153 198.215,184.468 199.925,186.831C201.251,188.661 208.89,194.091 209.711,194.027C210.531,193.965 212.867,190.366 211.856,187.652C210.847,184.938 210.405,181.623 212.488,179.413C214.572,177.204 211.322,181.117 212.647,185.505C213.974,189.892 213.848,190.808 212.522,193.237C211.195,195.669 210.218,196.048 207.914,194.911C205.608,193.775 204.189,192.796 204.189,192.796C199.444,211.948 191.898,215.945 180.215,230.836C179.247,231.977 178.304,233.19 177.4,234.484C173.059,240.211 170.456,246.556 172.037,253.978L172.223,254.781C172.678,255.88 173.415,257.822 174.898,259.92L182.3,259.92L182.291,259.88L182.358,259.937C184.44,259.918 186.75,259.839 188.988,259.671C192.67,259.395 196.21,258.871 198.366,257.977C200.339,257.157 201.918,256.061 203.134,254.804C204.74,253.144 205.698,251.212 206.085,249.281C206.477,247.322 206.28,245.358 205.576,243.664C205.14,242.611 204.501,241.654 203.681,240.859C202.434,239.652 200.804,238.924 199.079,238.663C197.619,238.442 196.073,238.556 194.63,238.996C193.167,239.444 191.802,240.23 190.724,241.342L190.724,241.349C189.584,242.525 188.765,244.057 188.48,245.926C188.356,246.766 188.936,247.549 189.775,247.673C190.615,247.798 191.397,247.218 191.522,246.379C191.703,245.185 192.216,244.218 192.927,243.483L192.93,243.485C193.64,242.753 194.549,242.234 195.529,241.934C196.53,241.627 197.605,241.55 198.626,241.704C199.747,241.874 200.784,242.327 201.549,243.067C202.054,243.555 202.455,244.163 202.738,244.846C203.214,245.989 203.344,247.333 203.074,248.686C202.798,250.067 202.101,251.46 200.927,252.673C199.999,253.63 198.762,254.482 197.185,255.137C195.367,255.892 192.164,256.349 188.767,256.604C186.333,256.786 183.824,256.862 181.645,256.868C176.682,229.327 204.208,228.923 206.18,223.244C200.831,221.191 201.461,214.789 205.465,211.636L205.732,209.001L208.74,211.1L211.419,211.1L215.269,207.707C223.2,234.782 210.447,238.827 214.421,256.901C214.421,256.901 215.255,256.752 216.474,257.319C217.63,257.854 217.478,259.722 217.459,259.92L225.624,259.92L225.624,256.733L225.623,256.733C225.623,256.733 225.407,254.358 222.247,254.331C220.928,250.065 221.021,244.869 222.554,239.799C229.799,215.808 222.221,216.088 223.476,199.552C223.854,194.564 226.377,192.829 226.377,192.829Z"/>
            </g>
        </g>
    </g>
</svg>
