<?xml version="1.0" encoding="UTF-8" standalone="no"?>
<!DOCTYPE svg PUBLIC "-//W3C//DTD SVG 1.1//EN" "http://www.w3.org/Graphics/SVG/1.1/DTD/svg11.dtd">
<svg width="100%" height="100%" viewBox="0 0 384 441" version="1.1" xmlns="http://www.w3.org/2000/svg" xmlns:xlink="http://www.w3.org/1999/xlink" xml:space="preserve" xmlns:serif="http://www.serif.com/" style="fill-rule:evenodd;clip-rule:evenodd;stroke-linejoin:round;stroke-miterlimit:2;">
    <g transform="matrix(1,0,0,1,-2853.75,-4404.64)">
        <g transform="matrix(0.741674,0,0,0.741674,2824.71,4487.25)">
            <g transform="matrix(-1.2233,0,0,1.2233,554.438,-107.407)">
                <path d="M332.354,346.657C335.833,320.838 342.246,269.914 345.139,225.92C345.43,221.262 349.308,217.642 353.975,217.672C353.976,217.671 353.976,217.671 353.976,217.671C356.396,217.687 358.702,218.698 360.354,220.466C362.006,222.234 362.857,224.604 362.708,227.019C359.761,272.247 353.189,324.233 349.131,353.869C346.348,374.243 338.414,393.17 326.206,408.611C322.862,412.834 319.233,416.77 315.392,420.343C298.758,451.87 277.097,471.522 251.059,478.856C242.977,481.129 235.06,482.113 227.477,482.059C203.197,481.886 182.082,470.821 165.072,453.759C139.9,428.511 123.732,390.113 119.605,354.729C94.218,352.428 72.277,334.215 65.184,308.84L0.846,78.771L0.844,78.766C0.815,78.66 0.796,78.553 0.767,78.446C0.764,78.434 0.761,78.421 0.758,78.408C-3.883,58.583 0.495,37.747 12.443,22.671C21.574,11.166 33.858,4.543 47.242,3.811C47.581,3.793 47.908,3.938 48.122,4.201C48.336,4.464 48.411,4.813 48.324,5.141C47.786,7.164 47.498,9.298 47.498,11.487L47.498,12.406C47.498,15.069 47.915,17.629 48.695,20.032C48.795,20.342 48.747,20.68 48.566,20.95C48.384,21.221 48.088,21.392 47.763,21.415C39.608,22.005 32.026,26.3 26.236,33.614C17.608,44.484 14.499,59.651 17.851,74.22L82.133,304.102C87.615,323.696 105.255,337.384 125.057,337.384C144.859,337.384 162.507,323.696 167.98,304.102C167.98,304.102 232.263,74.222 232.265,74.212C235.623,59.645 232.505,44.483 223.888,33.616C218.09,26.302 210.516,22.006 202.361,21.417C202.036,21.394 201.74,21.223 201.558,20.953C201.377,20.682 201.329,20.344 201.429,20.034C202.209,17.631 202.626,15.071 202.626,12.408L202.626,11.489C202.626,9.3 202.338,7.166 201.8,5.144C201.713,4.817 201.788,4.467 202.002,4.204C202.216,3.941 202.543,3.796 202.882,3.814C216.267,4.546 228.55,11.168 237.681,22.673C249.629,37.748 254.008,58.584 249.366,78.409C249.363,78.422 249.36,78.435 249.357,78.448C249.328,78.554 249.299,78.661 249.27,78.766L249.268,78.772L184.93,308.841C178.477,331.937 159.722,349.097 137.262,353.739C140.959,390.757 161.286,428.415 187.862,449.001C205.572,462.719 226.066,468.843 246.231,461.936C258.065,457.882 269.233,451.601 279.117,441.531C263.269,446.479 250.958,445.672 249.041,445.506C228.999,444.314 213.264,437.216 202.273,424.466C184.193,403.497 185.842,374.66 186.082,371.487C187.091,346.574 193.158,325.992 204.073,310.302C213.269,297.091 232.884,280.86 257.933,278.612C277.641,276.833 296.545,284.303 312.559,300.269C325.91,313.566 331.294,330.137 332.354,346.657ZM301.147,409.488C303.851,403.678 313.732,380.942 314.781,357.119C315.481,341.211 312.247,324.801 300.13,312.73C288.958,301.596 276.718,295.943 263.659,295.943C262.287,295.943 260.906,296.01 259.505,296.133C241.71,297.738 226.103,309.452 218.525,320.354C209.493,333.327 204.514,350.822 203.66,372.332C203.66,372.483 203.65,372.643 203.638,372.793L203.637,372.799C203.619,373.018 201.74,396.982 215.669,413.056C223.5,422.089 235.133,427.079 250.205,427.95C250.218,427.95 250.231,427.951 250.243,427.952C250.359,427.963 250.475,427.967 250.61,427.985C252.181,428.118 277.506,429.902 301.147,409.488Z" style="fill:rgb(3,4,4);fill-rule:nonzero;"/>
                <g transform="matrix(1.3959,0,0,1.3959,-27.8198,-4.65499)">
                    <path d="M61.928,12.716C62.083,18.357 66.727,22.894 72.406,22.894L84.838,22.894C90.614,22.894 95.326,18.192 95.326,12.407L95.326,11.488C95.326,5.702 90.614,1 84.838,1L72.406,1C66.62,1 61.918,5.702 61.918,11.488L61.918,12.146C61.928,12.272 61.928,12.407 61.928,12.543L61.928,12.716Z" style="fill:rgb(3,4,4);fill-rule:nonzero;"/>
                </g>
                <g transform="matrix(1.3959,0,0,1.3959,59.2527,-4.65499)">
                    <path d="M61.928,12.716C62.083,18.357 66.727,22.894 72.406,22.894L84.838,22.894C90.614,22.894 95.326,18.192 95.326,12.407L95.326,11.488C95.326,5.702 90.614,1 84.838,1L72.406,1C66.62,1 61.918,5.702 61.918,11.488L61.918,12.146C61.928,12.272 61.928,12.407 61.928,12.543L61.928,12.716Z" style="fill:rgb(3,4,4);fill-rule:nonzero;"/>
                </g>
            </g>
        </g>
        <g transform="matrix(1,0,0,1,-115.946,803)">
            <g transform="matrix(-0.0421903,-0.021132,-0.021132,0.0421903,3079.78,3731.89)">
                <g>
                    <g transform="matrix(25.3842,12.7159,-11.2397,22.4372,30.6234,-874.13)">
                        <path d="M82.659,74.63C82.735,75.192 82.863,76.132 82.894,76.353C82.898,76.384 82.901,76.416 82.904,76.448C82.916,76.614 82.959,77.172 82.983,77.484C82.994,77.628 83,77.772 83,77.916L83,79.618C83,79.872 82.983,80.126 82.949,80.378C82.897,80.758 82.816,81.346 82.761,81.751C82.72,82.05 82.656,82.344 82.568,82.629C82.415,83.126 82.166,83.936 82.019,84.414C81.94,84.671 81.842,84.92 81.727,85.159C81.492,85.647 81.072,86.519 80.817,87.05C80.673,87.349 80.502,87.631 80.307,87.89C80.012,88.284 79.564,88.882 79.305,89.227C79.168,89.409 79.021,89.579 78.863,89.737L77.281,91.319C77.094,91.506 76.893,91.675 76.681,91.823C76.305,92.087 75.682,92.523 75.309,92.784C75.103,92.928 74.888,93.052 74.664,93.156C74.117,93.41 73.043,93.909 72.512,94.155C72.304,94.252 72.09,94.33 71.872,94.389C71.374,94.525 70.449,94.777 70.12,94.867C70.04,94.889 69.959,94.903 69.877,94.909C69.648,94.925 69.155,94.96 68.853,94.982C68.684,94.994 68.515,94.995 68.347,94.985C68.031,94.967 67.494,94.935 67.171,94.916C66.99,94.905 66.811,94.882 66.633,94.847C66.293,94.779 65.703,94.661 65.307,94.581C65.036,94.527 64.771,94.445 64.514,94.334C64.074,94.146 63.371,93.845 63.018,93.693C62.873,93.631 62.731,93.56 62.592,93.481C62.153,93.23 61.142,92.652 60.809,92.462C60.736,92.421 60.665,92.377 60.595,92.331C60.239,92.099 59.078,91.342 58.604,91.033C58.468,90.944 58.328,90.864 58.185,90.792C57.579,90.49 55.888,89.644 55.633,89.516C55.611,89.505 55.589,89.495 55.567,89.484C55.334,89.373 53.925,88.699 53.454,88.474C53.352,88.425 53.245,88.388 53.136,88.365C52.845,88.303 52.247,88.174 52.005,88.122C51.935,88.107 51.865,88.094 51.794,88.083C51.537,88.043 50.868,87.937 50.424,87.867C50.142,87.822 49.857,87.809 49.572,87.827C49.228,87.848 48.765,87.877 48.538,87.891C48.446,87.897 48.355,87.912 48.266,87.936C47.972,88.014 47.276,88.2 47.008,88.271C46.936,88.29 46.866,88.316 46.797,88.347C46.528,88.472 45.809,88.803 45.637,88.883L45.562,88.916C45.386,88.993 44.637,89.321 44.244,89.493C44.081,89.564 43.923,89.646 43.769,89.739C43.382,89.971 42.634,90.42 42.516,90.49C42.505,90.497 42.495,90.503 42.484,90.509C42.33,90.6 41.097,91.325 40.845,91.474L40.755,91.525C40.508,91.662 39.333,92.315 39.058,92.468C39.019,92.489 38.982,92.513 38.947,92.54C38.864,92.602 38.701,92.724 38.548,92.839C38.316,93.013 38.071,93.161 37.815,93.282C37.493,93.435 37.035,93.652 36.707,93.807C36.436,93.935 36.155,94.033 35.868,94.098C35.295,94.227 34.286,94.455 33.687,94.59C33.363,94.663 33.033,94.695 32.704,94.684C32.068,94.665 30.98,94.631 30.397,94.612C30.133,94.604 29.87,94.569 29.612,94.508C29.236,94.418 28.67,94.283 28.293,94.194C28.032,94.131 27.776,94.042 27.528,93.927C26.964,93.666 25.904,93.173 25.392,92.936C25.198,92.845 25.009,92.739 24.828,92.619C24.395,92.33 23.549,91.766 23.064,91.443C22.822,91.281 22.594,91.094 22.383,90.883L21.107,89.607C20.969,89.469 20.839,89.322 20.717,89.165C20.485,88.867 20.081,88.346 19.802,87.988C19.601,87.73 19.425,87.449 19.275,87.15C19.021,86.643 18.614,85.828 18.38,85.361C18.26,85.121 18.158,84.87 18.075,84.61C17.907,84.088 17.61,83.164 17.436,82.624C17.346,82.342 17.278,82.051 17.233,81.755C17.187,81.445 17.125,81.03 17.076,80.707C17.025,80.37 17.006,80.028 17.017,79.686C17.038,79.065 17.072,78.038 17.089,77.52C17.096,77.307 17.116,77.095 17.147,76.884C17.228,76.333 17.395,75.207 17.466,74.726C17.489,74.575 17.517,74.426 17.552,74.278C17.657,73.828 17.898,72.793 18.055,72.122C18.151,71.709 18.294,71.312 18.48,70.94C18.709,70.483 19.025,69.85 19.221,69.458C19.34,69.22 19.476,68.993 19.629,68.78C19.976,68.293 20.62,67.392 20.831,67.097C20.877,67.032 20.93,66.975 20.988,66.926C21.07,66.858 21.194,66.755 21.299,66.668C21.433,66.556 21.565,66.44 21.693,66.321C22.624,65.462 26.638,61.757 27.727,60.752C27.909,60.584 28.078,60.4 28.234,60.202C28.749,59.547 29.95,58.018 30.166,57.743C30.189,57.714 30.211,57.685 30.233,57.656C30.415,57.414 31.307,56.224 31.75,55.633C31.916,55.412 32.065,55.174 32.195,54.922C32.578,54.18 33.406,52.576 33.571,52.256C33.59,52.219 33.609,52.181 33.628,52.143C33.818,51.751 34.936,49.449 35.23,48.845C35.276,48.748 35.326,48.653 35.379,48.56C35.611,48.149 36.292,46.945 36.523,46.537C36.574,46.446 36.628,46.356 36.685,46.269C36.872,45.982 37.324,45.286 37.621,44.829C37.807,44.544 38.018,44.282 38.253,44.047L39.706,42.594C39.902,42.398 40.112,42.223 40.335,42.069C40.916,41.67 42.107,40.851 42.756,40.406C43.051,40.203 43.366,40.04 43.695,39.92C44.346,39.683 45.48,39.271 46.087,39.05C46.362,38.95 46.644,38.881 46.931,38.844C47.407,38.782 48.16,38.684 48.549,38.633C48.716,38.611 48.884,38.6 49.053,38.6L50.947,38.6C51.116,38.6 51.284,38.611 51.451,38.633C51.848,38.685 52.623,38.786 53.098,38.848C53.365,38.882 53.63,38.945 53.887,39.035C54.4,39.213 55.28,39.519 55.64,39.644C55.747,39.681 55.852,39.723 55.956,39.769C56.227,39.89 56.795,40.142 57.187,40.317C57.462,40.439 57.725,40.591 57.972,40.773C58.337,41.04 58.862,41.426 59.039,41.555C59.08,41.585 59.119,41.617 59.156,41.651C59.356,41.833 60.025,42.441 60.171,42.574C60.19,42.591 60.209,42.609 60.227,42.627L61.076,43.476C61.225,43.625 61.365,43.786 61.495,43.956C61.816,44.378 62.451,45.21 62.744,45.595C62.848,45.732 62.945,45.874 63.035,46.022C63.321,46.492 63.98,47.574 64.215,47.96C64.272,48.053 64.326,48.149 64.376,48.246C64.588,48.65 65.179,49.777 65.352,50.108C65.384,50.169 65.415,50.232 65.445,50.294C65.595,50.611 66.08,51.637 66.245,51.984C66.282,52.061 66.32,52.138 66.36,52.213C66.586,52.634 67.384,54.123 67.684,54.684C67.761,54.828 67.845,54.967 67.934,55.102C68.224,55.536 68.897,56.546 69.124,56.886C69.175,56.962 69.227,57.036 69.282,57.109C69.529,57.439 70.27,58.426 70.571,58.827C70.657,58.942 70.748,59.053 70.843,59.159C71.186,59.54 72.052,60.502 72.375,60.862C72.458,60.954 72.545,61.042 72.634,61.127C73.028,61.5 74.168,62.58 74.369,62.771C74.39,62.79 74.41,62.809 74.431,62.828C74.692,63.067 76.522,64.738 76.688,64.889C76.696,64.896 76.704,64.904 76.712,64.911C76.836,65.023 77.884,65.966 78.407,66.436C78.602,66.612 78.783,66.806 78.95,67.016C79.226,67.366 79.669,67.927 79.946,68.279C80.115,68.493 80.267,68.722 80.401,68.966C80.672,69.458 81.136,70.301 81.265,70.537C81.288,70.579 81.309,70.623 81.327,70.668C81.408,70.87 81.647,71.467 81.692,71.581C81.697,71.594 81.702,71.606 81.707,71.619C81.769,71.783 82.201,72.936 82.286,73.162C82.295,73.187 82.304,73.213 82.312,73.239C82.34,73.332 82.411,73.571 82.476,73.788C82.559,74.062 82.62,74.344 82.659,74.63ZM69.667,74.046C69.644,73.874 69.607,73.704 69.557,73.539C69.518,73.409 69.475,73.265 69.458,73.209C69.454,73.193 69.448,73.178 69.443,73.162C69.392,73.026 69.132,72.332 69.094,72.233C69.091,72.226 69.088,72.218 69.085,72.211C69.058,72.142 68.914,71.782 68.865,71.661C68.855,71.634 68.842,71.607 68.828,71.582C68.75,71.44 68.471,70.932 68.308,70.636C68.227,70.489 68.136,70.351 68.034,70.222C67.867,70.01 67.6,69.673 67.434,69.462C67.334,69.335 67.225,69.219 67.107,69.113C66.792,68.83 66.161,68.262 66.087,68.194C66.082,68.19 66.077,68.185 66.072,68.181C65.972,68.09 64.87,67.084 64.713,66.94C64.701,66.929 64.689,66.917 64.676,66.906C64.555,66.791 63.868,66.141 63.631,65.916C63.578,65.865 63.525,65.812 63.475,65.756C63.281,65.54 62.759,64.96 62.553,64.731C62.496,64.667 62.441,64.6 62.389,64.531C62.208,64.29 61.762,63.695 61.613,63.497C61.58,63.453 61.548,63.408 61.518,63.362C61.381,63.158 60.976,62.55 60.801,62.288C60.748,62.207 60.697,62.123 60.651,62.037C60.47,61.699 59.99,60.802 59.854,60.549C59.829,60.504 59.807,60.457 59.784,60.411C59.685,60.202 59.393,59.584 59.303,59.393C59.285,59.356 59.266,59.318 59.247,59.281C59.142,59.082 58.787,58.403 58.659,58.16C58.629,58.102 58.596,58.044 58.562,57.988C58.42,57.756 58.024,57.104 57.851,56.821C57.797,56.732 57.739,56.646 57.676,56.564C57.5,56.332 57.118,55.831 56.924,55.577C56.846,55.475 56.762,55.378 56.672,55.288L56.161,54.777C56.15,54.766 56.138,54.755 56.127,54.745C56.039,54.665 55.636,54.299 55.516,54.189C55.494,54.169 55.47,54.149 55.445,54.131C55.339,54.054 55.023,53.821 54.803,53.661C54.654,53.551 54.496,53.459 54.33,53.386C54.094,53.281 53.752,53.129 53.589,53.056C53.526,53.028 53.463,53.003 53.399,52.981C53.182,52.906 52.652,52.721 52.343,52.614C52.189,52.56 52.029,52.522 51.868,52.501C51.582,52.464 51.116,52.403 50.877,52.372C50.776,52.359 50.675,52.352 50.573,52.352L49.433,52.352C49.331,52.352 49.23,52.359 49.129,52.372C48.895,52.403 48.442,52.462 48.155,52.499C47.982,52.521 47.812,52.563 47.647,52.623C47.281,52.756 46.599,53.004 46.207,53.147C46.008,53.219 45.819,53.317 45.641,53.44C45.25,53.708 44.533,54.201 44.183,54.441C44.049,54.534 43.923,54.639 43.805,54.757L42.93,55.632C42.788,55.773 42.661,55.931 42.549,56.103C42.37,56.378 42.098,56.797 41.986,56.97C41.951,57.022 41.919,57.076 41.888,57.131C41.749,57.377 41.339,58.102 41.199,58.349C41.167,58.405 41.137,58.462 41.11,58.521C40.933,58.885 40.259,60.271 40.145,60.507C40.134,60.529 40.122,60.552 40.111,60.575C40.011,60.767 39.513,61.733 39.282,62.18C39.204,62.332 39.114,62.475 39.014,62.608C38.748,62.964 38.21,63.68 38.101,63.826C38.088,63.844 38.074,63.861 38.061,63.878C37.93,64.044 37.207,64.965 36.897,65.359C36.803,65.478 36.702,65.589 36.592,65.69C35.936,66.295 33.519,68.526 32.959,69.043C32.882,69.115 32.802,69.185 32.722,69.252C32.658,69.305 32.584,69.367 32.534,69.408C32.499,69.437 32.467,69.472 32.44,69.511C32.313,69.688 31.925,70.231 31.716,70.524C31.624,70.652 31.542,70.789 31.47,70.932C31.352,71.168 31.162,71.549 31.024,71.825C30.912,72.049 30.826,72.288 30.768,72.536C30.674,72.94 30.529,73.564 30.465,73.834C30.444,73.924 30.427,74.013 30.414,74.104C30.371,74.394 30.27,75.072 30.222,75.404C30.203,75.531 30.191,75.658 30.187,75.787C30.176,76.098 30.156,76.717 30.143,77.091C30.137,77.297 30.148,77.503 30.179,77.705C30.208,77.9 30.246,78.15 30.273,78.336C30.3,78.515 30.341,78.69 30.396,78.86C30.5,79.185 30.679,79.741 30.78,80.056C30.83,80.212 30.892,80.363 30.964,80.508C31.105,80.789 31.35,81.28 31.503,81.585C31.593,81.765 31.699,81.934 31.82,82.089C31.988,82.305 32.231,82.619 32.371,82.798C32.445,82.893 32.523,82.981 32.606,83.064L33.374,83.833C33.501,83.96 33.639,84.072 33.784,84.17C34.076,84.364 34.586,84.704 34.846,84.878C34.955,84.95 35.069,85.014 35.186,85.069C35.494,85.211 36.133,85.508 36.472,85.665C36.621,85.735 36.776,85.788 36.933,85.826C37.16,85.88 37.501,85.961 37.727,86.015C37.882,86.052 38.041,86.073 38.2,86.078C38.551,86.089 39.206,86.11 39.589,86.121C39.787,86.128 39.985,86.109 40.181,86.065C40.541,85.983 41.149,85.846 41.494,85.768C41.667,85.729 41.836,85.67 41.999,85.593C42.196,85.5 42.472,85.369 42.666,85.277C42.82,85.204 42.968,85.115 43.107,85.01C43.2,84.941 43.298,84.868 43.348,84.83C43.369,84.814 43.391,84.8 43.415,84.787C43.58,84.695 44.288,84.302 44.436,84.219L44.491,84.188C44.642,84.099 45.385,83.662 45.477,83.607C45.484,83.604 45.49,83.6 45.497,83.596C45.568,83.554 46.018,83.283 46.251,83.144C46.344,83.088 46.439,83.038 46.537,82.996C46.774,82.892 47.225,82.695 47.331,82.648L47.376,82.628C47.479,82.58 47.912,82.381 48.074,82.306C48.116,82.287 48.158,82.271 48.201,82.26C48.363,82.217 48.782,82.105 48.959,82.058C49.012,82.044 49.067,82.035 49.123,82.031C49.259,82.023 49.538,82.005 49.745,81.993C49.917,81.982 50.088,81.99 50.258,82.017C50.526,82.059 50.928,82.123 51.083,82.147C51.126,82.153 51.168,82.161 51.21,82.17C51.356,82.201 51.716,82.279 51.891,82.316C51.957,82.33 52.021,82.353 52.083,82.382C52.366,82.518 53.215,82.923 53.355,82.99C53.368,82.997 53.381,83.003 53.395,83.01C53.548,83.087 54.566,83.596 54.931,83.778C55.017,83.821 55.102,83.869 55.184,83.923C55.469,84.109 56.168,84.565 56.382,84.704C56.424,84.732 56.467,84.759 56.511,84.783C56.712,84.898 57.32,85.246 57.585,85.397C57.668,85.444 57.754,85.487 57.841,85.525C58.054,85.616 58.477,85.797 58.742,85.911C58.897,85.977 59.056,86.027 59.219,86.059C59.458,86.107 59.813,86.178 60.018,86.219C60.125,86.24 60.233,86.254 60.342,86.261C60.536,86.272 60.86,86.292 61.05,86.302C61.151,86.309 61.253,86.308 61.355,86.301C61.536,86.287 61.833,86.266 61.971,86.257C62.021,86.253 62.069,86.245 62.117,86.231C62.316,86.177 62.873,86.026 63.172,85.944C63.304,85.908 63.433,85.861 63.558,85.803C63.877,85.655 64.524,85.354 64.853,85.201C64.988,85.139 65.118,85.064 65.242,84.977C65.466,84.82 65.842,84.558 66.068,84.399C66.196,84.309 66.317,84.208 66.429,84.095L67.382,83.143C67.477,83.047 67.565,82.945 67.648,82.835C67.804,82.628 68.074,82.268 68.251,82.03C68.369,81.875 68.472,81.705 68.558,81.525C68.712,81.205 68.965,80.68 69.106,80.386C69.175,80.242 69.234,80.092 69.282,79.938C69.371,79.65 69.52,79.162 69.613,78.863C69.666,78.691 69.704,78.514 69.729,78.334C69.762,78.09 69.811,77.736 69.842,77.507C69.863,77.356 69.873,77.203 69.873,77.05L69.873,76.025C69.873,75.938 69.869,75.852 69.863,75.765C69.848,75.577 69.822,75.241 69.815,75.141C69.813,75.122 69.811,75.103 69.809,75.084C69.79,74.951 69.713,74.385 69.667,74.046Z" style="fill-rule:nonzero;"/>
                    </g>
                    <g transform="matrix(13.8483,-20.9761,24.0622,15.0064,50.4908,1425.75)">
                        <ellipse cx="63.9" cy="20.4" rx="15.4" ry="10.8"/>
                    </g>
                    <g transform="matrix(26.427,10.2856,-8.50743,23.6515,-59.5341,-813.983)">
                        <ellipse cx="36.1" cy="20.3" rx="10.8" ry="15.4"/>
                    </g>
                    <g transform="matrix(16.4896,-19.1365,22.334,17.2899,-704.369,2022.7)">
                        <ellipse cx="83.9" cy="44.2" rx="15.3" ry="10.8"/>
                    </g>
                    <g transform="matrix(27.221,7.53417,-5.45251,24.6654,-251.786,-892.25)">
                        <ellipse cx="16.1" cy="44.2" rx="10.8" ry="15.3"/>
                    </g>
                </g>
            </g>
        </g>
    </g>
</svg>
