<?xml version="1.0" encoding="UTF-8" standalone="no"?>
<!DOCTYPE svg PUBLIC "-//W3C//DTD SVG 1.1//EN" "http://www.w3.org/Graphics/SVG/1.1/DTD/svg11.dtd">
<svg width="100%" height="100%" viewBox="0 0 50 50" version="1.1" xmlns="http://www.w3.org/2000/svg" xmlns:xlink="http://www.w3.org/1999/xlink" xml:space="preserve" xmlns:serif="http://www.serif.com/" style="fill-rule:evenodd;clip-rule:evenodd;stroke-linejoin:round;stroke-miterlimit:2;">
    <g transform="matrix(1,0,0,2.3871,-102.797,-807.048)">
        <path d="M127.797,338.087C141.605,338.087 152.798,342.776 152.798,348.56C152.798,354.344 141.605,359.033 127.797,359.033C113.99,359.033 102.797,354.344 102.797,348.56C102.797,342.776 113.99,338.087 127.797,338.087ZM133.15,349.055L122.444,349.055C118.846,349.055 115.921,350.281 115.921,351.788L115.921,353.61C115.921,354.31 117.28,354.88 118.952,354.88L136.641,354.88C138.313,354.88 139.674,354.31 139.674,353.61L139.674,351.788C139.675,350.281 136.747,349.055 133.15,349.055ZM137.8,353.61C137.8,353.877 137.28,354.095 136.642,354.095L118.952,354.095C118.313,354.095 117.796,353.877 117.796,353.61L117.796,351.788C117.796,351.247 118.325,350.758 119.179,350.404C119.732,351.055 120.646,351.623 121.878,352.088C121.872,352.114 121.858,352.14 121.858,352.167C121.858,352.579 122.653,352.912 123.635,352.912C124.617,352.912 125.412,352.579 125.412,352.167C125.412,351.755 124.617,351.422 123.635,351.422C123.422,351.422 123.221,351.44 123.031,351.469C121.967,351.058 121.218,350.558 120.802,349.972C121.314,349.89 121.863,349.84 122.443,349.84L133.148,349.84C135.712,349.84 137.798,350.714 137.798,351.788L137.798,353.61L137.8,353.61ZM133.359,351.032L131.484,351.032L131.484,351.774L129.714,351.774L129.714,352.559L131.484,352.559L131.484,353.301L133.359,353.301L133.359,352.559L135.128,352.559L135.128,351.774L133.359,351.774L133.359,351.032ZM127.798,348.491C131.909,348.491 135.257,347.089 135.257,345.366C135.257,343.643 131.909,342.241 127.798,342.241C123.685,342.241 120.339,343.643 120.339,345.366C120.339,347.089 123.685,348.491 127.798,348.491ZM127.798,343.027C130.876,343.027 133.382,344.076 133.382,345.366C133.382,346.656 130.876,347.705 127.798,347.705C124.718,347.705 122.214,346.656 122.214,345.366C122.214,344.076 124.718,343.027 127.798,343.027Z"/>
    </g>
</svg>
