<?xml version="1.0" encoding="UTF-8" standalone="no"?>
<!DOCTYPE svg PUBLIC "-//W3C//DTD SVG 1.1//EN" "http://www.w3.org/Graphics/SVG/1.1/DTD/svg11.dtd">
<svg width="100%" height="100%" viewBox="0 0 4820 3625" version="1.1" xmlns="http://www.w3.org/2000/svg" xmlns:xlink="http://www.w3.org/1999/xlink" xml:space="preserve" xmlns:serif="http://www.serif.com/" style="fill-rule:evenodd;clip-rule:evenodd;stroke-miterlimit:2;">
    <g transform="matrix(1,0,0,1,-651.525,-2476.41)">
        <g transform="matrix(4.16667,0,0,4.16667,0,0)">
            <path d="M223.42,663.148L223.42,956.815C223.42,962.584 225.312,967.515 229.111,971.612C232.903,975.71 237.833,978.214 243.908,979.124L242.087,981.856L161.499,981.856L159.678,979.124C165.746,978.214 170.677,975.71 174.475,971.612C178.267,967.515 180.167,962.584 180.167,956.815L180.167,699.116C180.167,693.354 178.346,688.417 174.703,684.319C171.061,680.221 166.202,677.717 160.134,676.807L161.499,674.075L223.42,663.148Z" style="fill:white;fill-rule:nonzero;"/>
        </g>
        <g transform="matrix(4.16667,0,0,4.16667,0,0)">
            <path d="M337.932,956.587C353.256,970.403 369.874,977.303 387.788,977.303C405.694,977.303 422.312,970.403 437.642,956.587C452.966,942.779 465.032,923.962 473.839,900.13C482.639,876.306 487.042,850.432 487.042,822.502C487.042,794.58 482.639,768.706 473.839,744.873C465.032,721.049 452.966,702.232 437.642,688.417C422.312,674.608 405.694,667.701 387.788,667.701C369.874,667.701 353.256,674.608 337.932,688.417C322.601,702.232 310.536,721.049 301.736,744.873C292.929,768.706 288.532,794.58 288.532,822.502C288.532,850.432 292.929,876.306 301.736,900.13C310.536,923.962 322.601,942.779 337.932,956.587ZM316.306,684.547C338.16,670.283 361.985,663.148 387.788,663.148C413.583,663.148 437.415,670.283 459.269,684.547C481.123,698.817 498.425,718.167 511.173,742.597C523.922,767.034 530.296,793.669 530.296,822.502C530.296,851.342 523.922,877.978 511.173,902.407C498.425,926.844 481.123,946.194 459.269,960.457C437.415,974.728 413.583,981.856 387.788,981.856C361.985,981.856 338.16,974.728 316.306,960.457C294.451,946.194 277.15,926.844 264.402,902.407C251.653,877.978 245.279,851.342 245.279,822.502C245.279,793.669 251.653,767.034 264.402,742.597C277.15,718.167 294.451,698.817 316.306,684.547Z" style="fill:white;fill-rule:nonzero;"/>
        </g>
        <g transform="matrix(4.16667,0,0,4.16667,0,0)">
            <path d="M646.163,956.587C661.486,970.403 678.105,977.303 696.018,977.303C713.924,977.303 730.542,970.403 745.873,956.587C761.196,942.779 773.262,923.962 782.069,900.13C790.869,876.306 795.274,850.432 795.274,822.502C795.274,794.58 790.869,768.706 782.069,744.873C773.262,721.049 761.196,702.232 745.873,688.417C730.542,674.608 713.924,667.701 696.018,667.701C678.105,667.701 661.486,674.608 646.163,688.417C630.832,702.232 618.767,721.049 609.967,744.873C601.159,768.706 596.763,794.58 596.763,822.502C596.763,850.432 601.159,876.306 609.967,900.13C618.767,923.962 630.832,942.779 646.163,956.587ZM624.536,684.547C646.391,670.283 670.216,663.148 696.018,663.148C721.814,663.148 745.646,670.283 767.5,684.547C789.355,698.817 806.655,718.167 819.403,742.597C832.152,767.034 838.526,793.669 838.526,822.502C838.526,851.342 832.152,877.978 819.403,902.407C806.655,926.844 789.355,946.194 767.5,960.457C745.646,974.728 721.814,981.856 696.018,981.856C670.216,981.856 646.391,974.728 624.536,960.457C602.682,946.194 585.381,926.844 572.632,902.407C559.884,877.978 553.51,851.342 553.51,822.502C553.51,793.669 559.884,767.034 572.632,742.597C585.381,718.167 602.682,698.817 624.536,684.547Z" style="fill:white;fill-rule:nonzero;"/>
        </g>
        <g transform="matrix(4.16667,0,0,4.16667,0,0)">
            <path d="M192.854,1167.32L275.967,1167.32L234.845,1043.08L192.854,1167.32ZM305.215,1170.21C305.6,1171.76 306.419,1174.51 307.677,1178.47C308.931,1182.43 309.994,1185.61 310.863,1188.02C311.731,1190.44 312.84,1193.48 314.193,1197.15C315.541,1200.81 316.944,1203.86 318.392,1206.27C319.84,1208.68 321.433,1211.1 323.17,1213.51C324.908,1215.92 326.835,1217.76 328.962,1219.01C331.084,1220.27 333.306,1220.99 335.623,1221.18L334.464,1222.92L282.628,1222.92L281.469,1221.18C285.134,1220.6 287.646,1219.15 288.998,1216.84C290.347,1214.52 290.446,1211.53 289.288,1207.86L276.836,1170.21L191.986,1170.21L179.244,1208.15C176.732,1215.68 179.339,1220.02 187.062,1221.18L185.904,1222.92L159.262,1222.92L158.103,1221.18C161.963,1220.6 165.678,1219.06 169.253,1216.55C172.823,1214.04 175.09,1211.24 176.058,1208.15L176.058,1207.86L233.397,1038.16L227.316,1020.21L255.406,1020.21L305.215,1170.21Z" style="fill:white;fill-rule:nonzero;"/>
        </g>
        <g transform="matrix(4.16667,0,0,4.16667,0,0)">
            <path d="M345.757,1222.92L344.598,1221.18C348.458,1220.6 351.594,1219.01 354.01,1216.4C356.422,1213.8 357.63,1210.66 357.63,1206.99L357.63,1036.13C357.63,1032.47 356.422,1029.33 354.01,1026.72C351.594,1024.11 348.458,1022.52 344.598,1021.94L345.757,1020.21L387.458,1020.21L469.702,1219.73L469.702,1036.13C469.702,1032.27 468.493,1029.09 466.082,1026.58C463.665,1024.07 460.625,1022.52 456.96,1021.94L457.828,1020.21L484.471,1020.21L485.919,1021.94C482.828,1022.33 480.317,1023.06 478.389,1024.11C476.457,1025.18 475.104,1026.48 474.335,1028.02C473.561,1029.57 473.077,1030.88 472.887,1031.93C472.693,1033 472.597,1034.4 472.597,1036.13L472.597,1206.99C472.597,1210.66 473.851,1213.8 476.362,1216.4C478.869,1219.01 482.054,1220.6 485.919,1221.18L484.471,1222.92L442.769,1222.92L360.526,1024.84L360.526,1206.99C360.526,1210.66 361.729,1213.8 364.146,1216.4C366.557,1219.01 369.693,1220.6 373.557,1221.18L372.399,1222.92L345.757,1222.92Z" style="fill:white;fill-rule:nonzero;"/>
        </g>
        <g transform="matrix(4.16667,0,0,4.16667,0,0)">
            <path d="M548.328,1206.85C558.074,1215.63 568.645,1220.02 580.038,1220.02C591.427,1220.02 601.997,1215.63 611.748,1206.85C621.495,1198.06 629.169,1186.1 634.771,1170.94C640.368,1155.78 643.169,1139.33 643.169,1121.56C643.169,1103.8 640.368,1087.35 634.771,1072.19C629.169,1057.03 621.495,1045.06 611.748,1036.28C601.997,1027.49 591.427,1023.1 580.038,1023.1C568.645,1023.1 558.074,1027.49 548.328,1036.28C538.577,1045.06 530.902,1057.03 525.305,1072.19C519.703,1087.35 516.906,1103.8 516.906,1121.56C516.906,1139.33 519.703,1155.78 525.305,1170.94C530.902,1186.1 538.577,1198.06 548.328,1206.85ZM534.572,1033.82C548.473,1024.74 563.627,1020.21 580.038,1020.21C596.445,1020.21 611.604,1024.74 625.504,1033.82C639.404,1042.89 650.409,1055.2 658.517,1070.74C666.626,1086.28 670.68,1103.22 670.68,1121.56C670.68,1139.91 666.626,1156.85 658.517,1172.39C650.409,1187.93 639.404,1200.24 625.504,1209.31C611.604,1218.39 596.445,1222.92 580.038,1222.92C563.627,1222.92 548.473,1218.39 534.572,1209.31C520.672,1200.24 509.667,1187.93 501.559,1172.39C493.45,1156.85 489.396,1139.91 489.396,1121.56C489.396,1103.22 493.45,1086.28 501.559,1070.74C509.667,1055.2 520.672,1042.89 534.572,1033.82Z" style="fill:white;fill-rule:nonzero;"/>
        </g>
        <g transform="matrix(4.16667,0,0,4.16667,0,0)">
            <path d="M795.203,1032.37C797.325,1033.53 799.208,1033.29 800.85,1031.64C802.488,1030.01 803.312,1028.02 803.312,1025.71L806.208,1025.71L812.579,1077.25L808.524,1079.28C805.629,1059.4 800.221,1045.5 792.307,1037.58C784.389,1029.67 770.778,1025.61 751.475,1025.42C735.448,1025.23 723.719,1029.14 716.29,1037.15C708.855,1045.16 704.946,1055.06 704.561,1066.83C704.366,1073.97 706.009,1080.15 709.484,1085.36C712.959,1090.58 717.638,1094.58 723.529,1097.38C729.416,1100.18 736.077,1102.84 743.511,1105.34C750.941,1107.86 758.57,1109.93 766.389,1111.57C774.208,1113.21 781.782,1115.63 789.122,1118.81C796.457,1122 802.922,1125.57 808.524,1129.53C814.122,1133.48 818.37,1139.04 821.266,1146.18C824.162,1153.32 825.221,1161.72 824.452,1171.37C823.099,1187.01 814.556,1200 798.823,1210.32C783.086,1220.65 762.38,1224.66 736.706,1222.34C722.416,1221.18 709.579,1217.52 698.19,1211.34C695.679,1209.99 693.168,1210.08 690.661,1211.63C688.344,1212.98 687.186,1215.2 687.186,1218.29L684.29,1218.29L683.131,1166.45L686.317,1165.29C686.507,1170.7 686.846,1175.38 687.33,1179.34C687.81,1183.29 688.968,1187.78 690.805,1192.8C692.638,1197.82 695.1,1201.97 698.19,1205.25C701.276,1208.54 705.67,1211.48 711.366,1214.09C717.059,1216.69 723.864,1218.29 731.783,1218.86C751.665,1220.6 767.303,1217.13 778.696,1208.44C790.086,1199.75 795.972,1189.23 796.361,1176.87C796.551,1169.73 794.914,1163.55 791.439,1158.34C787.964,1153.13 783.28,1149.12 777.393,1146.32C771.502,1143.53 764.796,1140.87 757.267,1138.36C749.737,1135.85 742.109,1133.77 734.389,1132.13C726.665,1130.49 719.136,1128.08 711.801,1124.89C704.462,1121.71 697.996,1118.14 692.398,1114.18C686.797,1110.22 682.552,1104.67 679.656,1097.53C676.76,1090.39 675.697,1081.99 676.471,1072.33C677.629,1058.82 683.082,1047.28 692.833,1037.73C702.579,1028.17 716.529,1022.62 734.678,1021.07C757.457,1019.34 777.633,1023.1 795.203,1032.37Z" style="fill:white;fill-rule:nonzero;"/>
        </g>
        <g transform="matrix(4.16667,0,0,4.16667,0,0)">
            <path d="M219.786,1461.34C230.402,1461.34 239.668,1458.64 247.587,1453.23C255.501,1447.83 261.631,1440.49 265.976,1431.22C270.32,1421.95 273.505,1411.77 275.532,1400.67C277.56,1389.57 278.474,1377.75 278.284,1365.19C277.894,1352.26 276.496,1339.9 274.085,1328.13C271.668,1316.35 268.148,1305.64 263.515,1295.98C258.881,1286.33 252.799,1278.66 245.27,1272.96C237.741,1267.27 229.343,1264.42 220.076,1264.42L196.909,1264.42L196.909,1461.34L219.786,1461.34ZM232.818,1261.52C243.048,1261.52 252.365,1263.69 260.763,1268.04C269.162,1272.38 276.062,1278.13 281.469,1285.27C286.872,1292.41 291.46,1300.57 295.225,1309.74C298.989,1318.91 301.691,1328.13 303.333,1337.39C304.971,1346.66 305.695,1355.93 305.505,1365.19C305.505,1377.94 303.958,1390.1 300.872,1401.68C297.781,1413.27 293.342,1423.79 287.55,1433.25C281.759,1442.71 274.13,1450.24 264.673,1455.84C255.211,1461.44 244.591,1464.23 232.818,1464.23L157.524,1464.23L156.366,1462.5C160.225,1461.92 163.361,1460.32 165.777,1457.72C168.189,1455.11 169.397,1451.98 169.397,1448.31L169.397,1277.45C169.397,1273.59 168.189,1270.4 165.777,1267.89C163.361,1265.38 160.225,1263.84 156.366,1263.26L157.524,1261.52L232.818,1261.52Z" style="fill:rgb(245,229,189);fill-rule:nonzero;"/>
        </g>
        <g transform="matrix(4.16667,0,0,4.16667,0,0)">
            <path d="M311.007,1261.52L441.613,1261.52L447.115,1300.9L444.219,1302.06C442.672,1291.25 437.848,1282.28 429.739,1275.13C421.631,1267.99 412.074,1264.42 401.07,1264.42L350.392,1264.42L350.392,1336.23L397.884,1336.23C400.78,1336.23 403.242,1335.71 405.269,1334.64C407.296,1333.58 408.839,1332.33 409.902,1330.88C410.961,1329.43 411.785,1327.45 412.364,1324.94C412.943,1322.43 413.278,1320.31 413.378,1318.57C413.473,1316.83 413.522,1314.61 413.522,1311.91L416.418,1313.36L416.418,1362.01L413.522,1363.46C413.522,1360.56 413.473,1358.24 413.378,1356.51C413.278,1354.77 412.943,1352.65 412.364,1350.13C411.785,1347.63 410.961,1345.7 409.902,1344.34C408.839,1342.99 407.296,1341.79 405.269,1340.72C403.242,1339.66 400.78,1339.13 397.884,1339.13L350.392,1339.13L350.392,1461.34L401.07,1461.34C412.074,1461.34 421.631,1457.77 429.739,1450.62C437.848,1443.48 442.672,1434.41 444.219,1423.4L447.115,1424.85L441.613,1464.23L311.007,1464.23L309.849,1462.5C313.708,1461.92 316.844,1460.32 319.26,1457.72C321.672,1455.11 322.88,1451.98 322.88,1448.31L322.88,1277.45C322.88,1273.78 321.672,1270.64 319.26,1268.04C316.844,1265.43 313.708,1263.84 309.849,1263.26L311.007,1261.52Z" style="fill:rgb(245,229,189);fill-rule:nonzero;"/>
        </g>
        <g transform="matrix(4.16667,0,0,4.16667,0,0)">
            <path d="M669.519,1273.68C671.641,1274.84 673.524,1274.6 675.166,1272.96C676.804,1271.32 677.628,1269.34 677.628,1267.02L680.524,1267.02L686.895,1318.57L682.84,1320.6C679.944,1300.71 674.537,1286.81 666.623,1278.9C658.705,1270.98 645.094,1266.93 625.791,1266.73C609.764,1266.54 598.035,1270.45 590.606,1278.46C583.171,1286.47 579.262,1296.37 578.877,1308.14C578.682,1315.29 580.325,1321.47 583.8,1326.68C587.275,1331.89 591.954,1335.9 597.845,1338.7C603.732,1341.5 610.393,1344.15 617.827,1346.66C625.257,1349.17 632.886,1351.25 640.705,1352.89C648.524,1354.53 656.098,1356.94 663.438,1360.13C670.773,1363.31 677.238,1366.89 682.84,1370.84C688.438,1374.8 692.686,1380.35 695.582,1387.49C698.478,1394.64 699.537,1403.04 698.768,1412.69C697.415,1428.32 688.872,1441.31 673.139,1451.64C657.401,1461.97 636.695,1465.97 611.022,1463.65C596.732,1462.5 583.895,1458.83 572.506,1452.65C569.995,1451.3 567.484,1451.4 564.977,1452.94C562.66,1454.29 561.502,1456.51 561.502,1459.6L558.606,1459.6L557.447,1407.76L560.633,1406.61C560.823,1412.01 561.162,1416.7 561.646,1420.65C562.126,1424.61 563.284,1429.1 565.121,1434.12C566.954,1439.14 569.416,1443.29 572.506,1446.57C575.592,1449.85 579.985,1452.79 585.682,1455.4C591.375,1458.01 598.18,1459.6 606.099,1460.18C625.981,1461.92 641.619,1458.44 653.012,1449.75C664.401,1441.07 670.288,1430.55 670.677,1418.19C670.867,1411.05 669.23,1404.87 665.755,1399.66C662.279,1394.44 657.596,1390.44 651.709,1387.64C645.818,1384.84 639.112,1382.18 631.583,1379.67C624.053,1377.17 616.424,1375.09 608.705,1373.45C600.981,1371.81 593.452,1369.39 586.117,1366.21C578.777,1363.02 572.312,1359.45 566.714,1355.49C561.112,1351.54 556.868,1345.99 553.972,1338.84C551.076,1331.7 550.013,1323.3 550.787,1313.65C551.945,1300.14 557.398,1288.6 567.149,1279.04C576.895,1269.48 590.845,1263.94 608.994,1262.39C631.773,1260.65 651.949,1264.42 669.519,1273.68Z" style="fill:rgb(245,229,189);fill-rule:nonzero;"/>
        </g>
        <g transform="matrix(4.16667,0,0,4.16667,0,0)">
            <path d="M731.202,1408.63L814.315,1408.63L773.193,1284.4L731.202,1408.63ZM843.564,1411.53C843.948,1413.08 844.767,1415.83 846.025,1419.78C847.278,1423.74 848.342,1426.93 849.211,1429.34C850.08,1431.75 851.188,1434.79 852.541,1438.46C853.889,1442.13 855.292,1445.17 856.74,1447.58C858.188,1450 859.781,1452.41 861.518,1454.82C863.256,1457.24 865.184,1459.07 867.31,1460.32C869.432,1461.58 871.654,1462.31 873.971,1462.5L872.813,1464.23L820.976,1464.23L819.817,1462.5C823.483,1461.92 825.994,1460.47 827.347,1458.15C828.695,1455.84 828.795,1452.84 827.636,1449.18L815.184,1411.53L730.334,1411.53L717.591,1449.46C715.08,1456.99 717.687,1461.34 725.41,1462.5L724.252,1464.23L697.61,1464.23L696.451,1462.5C700.311,1461.92 704.026,1460.37 707.601,1457.86C711.171,1455.36 713.438,1452.56 714.406,1449.46L714.406,1449.18L771.745,1279.47L765.664,1261.52L793.754,1261.52L843.564,1411.53Z" style="fill:rgb(245,229,189);fill-rule:nonzero;"/>
        </g>
        <g transform="matrix(4.16667,0,0,4.16667,0,0)">
            <path d="M944.34,1461.34C952.059,1461.34 958.819,1459.89 964.611,1456.99C970.403,1454.1 974.937,1450.14 978.222,1445.12C981.502,1440.1 983.914,1434.65 985.462,1428.76C987.005,1422.87 987.779,1416.55 987.779,1409.79C987.779,1400.33 986.376,1391.74 983.579,1384.02C980.779,1376.3 976,1369.73 969.245,1364.33C962.485,1358.92 954.186,1356.22 944.34,1356.22L923.489,1356.22L923.489,1461.34L944.34,1461.34ZM923.489,1264.42L923.489,1353.32L938.259,1353.32C951.579,1353.32 961.616,1349.08 968.376,1340.58C975.132,1332.09 978.512,1321.66 978.512,1309.3C978.702,1296.95 975.421,1286.38 968.665,1277.59C961.905,1268.81 951.77,1264.42 938.259,1264.42L923.489,1264.42ZM960.557,1354.77C975.616,1354.77 988.502,1360.13 999.217,1370.84C1009.93,1381.56 1015.29,1394.44 1015.29,1409.5C1015.29,1424.56 1009.93,1437.45 999.217,1448.16C988.502,1458.88 975.616,1464.23 960.557,1464.23L884.105,1464.23L882.946,1462.5C886.806,1461.92 889.942,1460.32 892.358,1457.72C894.77,1455.11 895.978,1451.98 895.978,1448.31L895.978,1277.45C895.978,1273.78 894.77,1270.64 892.358,1268.04C889.942,1265.43 886.806,1263.84 882.946,1263.26L884.105,1261.52L959.399,1261.52C972.141,1261.52 983.095,1266.06 992.267,1275.13C1001.43,1284.21 1006.02,1295.16 1006.02,1308C1006.02,1320.84 1001.43,1331.85 992.267,1341.01C983.095,1350.18 972.141,1354.77 959.399,1354.77L960.557,1354.77Z" style="fill:rgb(245,229,189);fill-rule:nonzero;"/>
        </g>
        <g transform="matrix(4.16667,0,0,4.16667,0,0)">
            <path d="M1019.63,1261.52L1150.24,1261.52L1155.74,1300.9L1152.85,1302.06C1151.3,1291.25 1146.47,1282.28 1138.37,1275.13C1130.26,1267.99 1120.7,1264.42 1109.7,1264.42L1059.02,1264.42L1059.02,1336.23L1106.51,1336.23C1109.41,1336.23 1111.87,1335.71 1113.9,1334.64C1115.92,1333.58 1117.47,1332.33 1118.53,1330.88C1119.59,1329.43 1120.41,1327.45 1120.99,1324.94C1121.57,1322.43 1121.91,1320.31 1122,1318.57C1122.1,1316.83 1122.15,1314.61 1122.15,1311.91L1125.05,1313.36L1125.05,1362.01L1122.15,1363.46C1122.15,1360.56 1122.1,1358.24 1122,1356.51C1121.91,1354.77 1121.57,1352.65 1120.99,1350.13C1120.41,1347.63 1119.59,1345.7 1118.53,1344.34C1117.47,1342.99 1115.92,1341.79 1113.9,1340.72C1111.87,1339.66 1109.41,1339.13 1106.51,1339.13L1059.02,1339.13L1059.02,1461.34L1109.7,1461.34C1120.7,1461.34 1130.26,1457.77 1138.37,1450.62C1146.47,1443.48 1151.3,1434.41 1152.85,1423.4L1155.74,1424.85L1150.24,1464.23L1019.63,1464.23L1018.48,1462.5C1022.34,1461.92 1025.47,1460.32 1027.89,1457.72C1030.3,1455.11 1031.51,1451.98 1031.51,1448.31L1031.51,1277.45C1031.51,1273.78 1030.3,1270.64 1027.89,1268.04C1025.47,1265.43 1022.34,1263.84 1018.48,1263.26L1019.63,1261.52Z" style="fill:rgb(245,229,189);fill-rule:nonzero;"/>
        </g>
        <g transform="matrix(4.16667,0,0,4.16667,0,0)">
            <path d="M1227.56,1367.8C1237.99,1367.8 1247.44,1363.94 1255.94,1356.22C1266.17,1347.14 1271.19,1333.82 1271,1316.25C1271,1301.58 1267.42,1289.28 1260.28,1279.33C1253.14,1269.39 1242.23,1264.42 1227.56,1264.42L1201.21,1264.42L1201.21,1367.8L1227.56,1367.8ZM1297.06,1453.23C1300.54,1458.44 1305.84,1461.53 1312.99,1462.5L1311.83,1464.23L1257.97,1464.23L1256.52,1462.5C1261.34,1461.92 1264.24,1460.18 1265.21,1457.28C1265.59,1456.13 1264.87,1452.79 1263.03,1447.29C1261.2,1441.79 1258.59,1435.04 1255.22,1427.02C1251.84,1419.01 1248.6,1411.53 1245.51,1404.58C1242.42,1397.63 1239.24,1390.49 1235.96,1383.15C1232.67,1375.81 1230.84,1371.66 1230.46,1370.7L1201.21,1370.7L1201.21,1448.31C1201.21,1451.98 1202.41,1455.11 1204.83,1457.72C1207.24,1460.32 1210.28,1461.92 1213.95,1462.5L1213.08,1464.23L1161.82,1464.23L1160.66,1462.5C1164.52,1461.92 1167.66,1460.32 1170.08,1457.72C1172.49,1455.11 1173.7,1451.98 1173.7,1448.31L1173.7,1277.45C1173.7,1273.59 1172.49,1270.4 1170.08,1267.89C1167.66,1265.38 1164.52,1263.84 1160.66,1263.26L1161.82,1261.52L1243.78,1261.52C1258.84,1261.52 1271.72,1266.88 1282.44,1277.59C1293.15,1288.31 1298.51,1301.19 1298.51,1316.25C1298.51,1328.42 1294.79,1339.38 1287.36,1349.12C1279.93,1358.87 1270.42,1365.39 1258.84,1368.67C1260.18,1372.14 1262.98,1378.95 1267.23,1389.08C1271.48,1399.22 1275.05,1407.72 1277.95,1414.57C1280.84,1421.42 1284.13,1428.71 1287.79,1436.43C1291.46,1444.16 1294.55,1449.75 1297.06,1453.23Z" style="fill:rgb(245,229,189);fill-rule:nonzero;"/>
        </g>
        <g transform="matrix(4.16667,0,0,4.16667,0,0)">
            <path d="M898.531,1109.65L893.756,1098.27L888.896,1109.65L898.531,1109.65ZM899.768,1112.63L887.66,1112.63L884.249,1120.65L880.753,1120.65L893.841,1090.85L906.589,1120.65L903.093,1120.65L899.768,1112.63Z" style="fill:rgb(35,31,32);fill-rule:nonzero;"/>
        </g>
        <g transform="matrix(4.16667,0,0,4.16667,0,0)">
            <path d="M923.68,1103.77L938.26,1103.77L938.26,1092.21L941.415,1092.21L941.415,1120.65L938.26,1120.65L938.26,1106.75L923.68,1106.75L923.68,1120.65L920.525,1120.65L920.525,1092.21L923.68,1092.21L923.68,1103.77Z" style="fill:rgb(35,31,32);fill-rule:nonzero;"/>
        </g>
        <g transform="matrix(4.16667,0,0,4.16667,0,0)">
            <path d="M951.046,1102.96L951.046,1120.65L947.976,1120.65L947.976,1102.96L951.046,1102.96ZM949.511,1094.09C950.705,1094.09 951.685,1095.07 951.685,1096.26C951.685,1097.46 950.705,1098.44 949.511,1098.44C948.318,1098.44 947.337,1097.46 947.337,1096.26C947.337,1095.07 948.318,1094.09 949.511,1094.09Z" style="fill:rgb(35,31,32);fill-rule:nonzero;"/>
        </g>
        <g transform="matrix(4.16667,0,0,4.16667,0,0)">
            <path d="M964.133,1107.05C963.707,1106.03 962.811,1105.26 961.661,1105.26C960.552,1105.26 959.529,1105.9 959.529,1107.26C959.529,1108.54 960.381,1108.93 962.385,1109.78C964.943,1110.84 966.137,1111.65 966.819,1112.51C967.586,1113.44 967.757,1114.38 967.757,1115.36C967.757,1119.07 965.071,1121.16 961.661,1121.16C960.935,1121.16 956.971,1121.08 955.478,1116.64L958.122,1115.53C958.463,1116.47 959.486,1118.43 961.703,1118.43C963.707,1118.43 964.602,1116.94 964.602,1115.62C964.602,1113.96 963.408,1113.4 961.745,1112.68C959.614,1111.74 958.25,1111.06 957.44,1110.08C956.758,1109.22 956.63,1108.37 956.63,1107.48C956.63,1104.36 958.804,1102.53 961.788,1102.53C962.726,1102.53 965.242,1102.7 966.648,1105.73L964.133,1107.05Z" style="fill:rgb(35,31,32);fill-rule:nonzero;"/>
        </g>
        <g transform="matrix(4.16667,0,0,4.16667,0,0)">
            <path d="M975.002,1105.77L975.002,1120.65L971.932,1120.65L971.932,1105.77L970.057,1105.77L970.057,1102.96L971.932,1102.96L971.932,1096.56L975.002,1096.56L975.002,1102.96L978.072,1102.96L978.072,1105.77L975.002,1105.77Z" style="fill:rgb(35,31,32);fill-rule:nonzero;"/>
        </g>
        <g transform="matrix(4.16667,0,0,4.16667,0,0)">
            <path d="M995.038,1093.71L989.326,1099.46L987.407,1098.44L991.883,1092.26L995.038,1093.71ZM983.016,1111.87C983.016,1116.22 986.085,1118.43 989.24,1118.43C992.437,1118.43 995.464,1116.17 995.464,1111.87C995.464,1107.52 992.48,1105.26 989.24,1105.26C986,1105.26 983.016,1107.56 983.016,1111.87ZM979.861,1111.87C979.861,1106.5 983.826,1102.53 989.24,1102.53C994.655,1102.53 998.62,1106.5 998.62,1111.87C998.62,1117.24 994.612,1121.16 989.24,1121.16C983.869,1121.16 979.861,1117.24 979.861,1111.87Z" style="fill:rgb(35,31,32);fill-rule:nonzero;"/>
        </g>
        <g transform="matrix(4.16667,0,0,4.16667,0,0)">
            <path d="M1003.31,1102.96L1006.38,1102.96L1006.38,1104.88C1006.67,1104.41 1008,1102.53 1010.38,1102.53C1011.32,1102.53 1012.34,1102.87 1013.11,1103.25L1011.66,1106.03C1010.98,1105.56 1010.34,1105.43 1009.87,1105.43C1008.63,1105.43 1007.87,1105.94 1007.4,1106.54C1006.89,1107.22 1006.38,1108.41 1006.38,1111.31L1006.38,1120.65L1003.31,1120.65L1003.31,1102.96Z" style="fill:rgb(35,31,32);fill-rule:nonzero;"/>
        </g>
        <g transform="matrix(4.16667,0,0,4.16667,0,0)">
            <path d="M1018.99,1102.96L1018.99,1120.65L1015.92,1120.65L1015.92,1102.96L1018.99,1102.96ZM1017.46,1094.09C1018.65,1094.09 1019.63,1095.07 1019.63,1096.26C1019.63,1097.46 1018.65,1098.44 1017.46,1098.44C1016.26,1098.44 1015.28,1097.46 1015.28,1096.26C1015.28,1095.07 1016.26,1094.09 1017.46,1094.09Z" style="fill:rgb(35,31,32);fill-rule:nonzero;"/>
        </g>
        <g transform="matrix(4.16667,0,0,4.16667,0,0)">
            <path d="M1026.84,1111.78C1026.84,1115.58 1028.97,1118.43 1032.63,1118.43C1036.39,1118.43 1038.52,1115.32 1038.52,1111.82C1038.52,1107.26 1035.36,1105.26 1032.63,1105.26C1029.61,1105.26 1026.84,1107.48 1026.84,1111.78ZM1038.35,1102.96L1041.42,1102.96L1041.42,1120.65L1038.35,1120.65L1038.35,1118.18C1037.32,1119.5 1035.4,1121.16 1032.29,1121.16C1027.82,1121.16 1023.68,1118.01 1023.68,1111.78C1023.68,1105.69 1027.77,1102.53 1032.29,1102.53C1035.7,1102.53 1037.54,1104.41 1038.35,1105.47L1038.35,1102.96Z" style="fill:rgb(35,31,32);fill-rule:nonzero;"/>
        </g>
        <g transform="matrix(4.16667,0,0,4.16667,0,0)">
            <path d="M1059.19,1111.78C1059.19,1115.58 1061.32,1118.43 1064.99,1118.43C1068.74,1118.43 1070.87,1115.32 1070.87,1111.82C1070.87,1107.26 1067.72,1105.26 1064.99,1105.26C1061.96,1105.26 1059.19,1107.48 1059.19,1111.78ZM1070.7,1089.57L1073.77,1089.57L1073.77,1120.65L1070.7,1120.65L1070.7,1118.18C1069.68,1119.5 1067.76,1121.16 1064.65,1121.16C1060.17,1121.16 1056.03,1118.01 1056.03,1111.78C1056.03,1105.69 1060.13,1102.53 1064.65,1102.53C1068.06,1102.53 1069.89,1104.41 1070.7,1105.47L1070.7,1089.57Z" style="fill:rgb(35,31,32);fill-rule:nonzero;"/>
        </g>
        <g transform="matrix(4.16667,0,0,4.16667,0,0)">
            <path d="M1081.61,1111.78C1081.61,1115.58 1083.74,1118.43 1087.41,1118.43C1091.16,1118.43 1093.29,1115.32 1093.29,1111.82C1093.29,1107.26 1090.14,1105.26 1087.41,1105.26C1084.38,1105.26 1081.61,1107.48 1081.61,1111.78ZM1093.12,1102.96L1096.19,1102.96L1096.19,1120.65L1093.12,1120.65L1093.12,1118.18C1092.1,1119.5 1090.18,1121.16 1087.07,1121.16C1082.59,1121.16 1078.46,1118.01 1078.46,1111.78C1078.46,1105.69 1082.55,1102.53 1087.07,1102.53C1090.48,1102.53 1092.31,1104.41 1093.12,1105.47L1093.12,1102.96Z" style="fill:rgb(35,31,32);fill-rule:nonzero;"/>
        </g>
        <g transform="matrix(4.16667,0,0,4.16667,0,0)">
            <path d="M901.26,1143.37L900.492,1149.63L892.136,1149.63L891.54,1154.37L899.64,1154.37L898.872,1160.59L890.772,1160.59L890.175,1165.54L898.872,1165.54L898.105,1171.8L882.203,1171.8L885.699,1143.37L901.26,1143.37Z" style="fill:rgb(35,31,32);fill-rule:nonzero;"/>
        </g>
        <g transform="matrix(4.16667,0,0,4.16667,0,0)">
            <path d="M919.291,1154.07L917.628,1158.88C915.624,1157.65 914.474,1157.26 912.981,1157.26C911.404,1157.26 910.551,1157.65 910.551,1158.42C910.551,1158.88 910.849,1159.14 911.66,1159.35L913.962,1159.95C917.458,1160.89 919.035,1162.55 919.035,1165.28C919.035,1169.63 915.582,1172.36 910.167,1172.36C907.012,1172.36 904.668,1171.59 901.385,1169.46L903.985,1164.85C906.672,1166.56 907.993,1167.07 909.911,1167.07C911.575,1167.07 912.512,1166.6 912.512,1165.75C912.512,1165.24 912.171,1164.94 911.447,1164.73L909.144,1164.21C905.563,1163.36 904.028,1161.66 904.028,1158.67C904.028,1154.75 907.268,1152.11 912.214,1152.11C914.559,1152.11 916.69,1152.7 919.291,1154.07Z" style="fill:rgb(35,31,32);fill-rule:nonzero;"/>
        </g>
        <g transform="matrix(4.16667,0,0,4.16667,0,0)">
            <path d="M938.388,1153.51L937.663,1159.44C936.299,1158.2 935.276,1157.73 933.784,1157.73C931.14,1157.73 929.264,1159.82 929.264,1162.72C929.264,1165.24 930.756,1166.81 933.186,1166.81C934.466,1166.81 935.403,1166.47 936.938,1165.37L936.213,1171.33C933.784,1172.14 932.803,1172.36 931.183,1172.36C925.853,1172.36 922.102,1168.43 922.102,1162.89C922.102,1156.71 926.536,1152.19 932.632,1152.19C934.721,1152.19 936.555,1152.62 938.388,1153.51Z" style="fill:rgb(35,31,32);fill-rule:nonzero;"/>
        </g>
        <g transform="matrix(4.16667,0,0,4.16667,0,0)">
            <path d="M955.651,1161.7C955.651,1159.27 954.202,1157.73 951.857,1157.73C949.256,1157.73 947.295,1159.95 947.295,1162.85C947.295,1165.28 948.83,1166.86 951.175,1166.86C953.775,1166.86 955.651,1164.68 955.651,1161.7ZM962.813,1161.95C962.813,1168.09 958.209,1172.36 951.558,1172.36C944.737,1172.36 940.133,1168.35 940.133,1162.34C940.133,1156.41 944.95,1152.19 951.771,1152.19C958.465,1152.19 962.813,1156.03 962.813,1161.95Z" style="fill:rgb(35,31,32);fill-rule:nonzero;"/>
        </g>
        <g transform="matrix(4.16667,0,0,4.16667,0,0)">
            <path d="M976.581,1140.72L972.744,1171.8L965.709,1171.8L969.546,1140.72L976.581,1140.72Z" style="fill:rgb(35,31,32);fill-rule:nonzero;"/>
        </g>
        <g transform="matrix(4.16667,0,0,4.16667,0,0)">
            <path d="M993.333,1161.7C993.333,1159.27 991.884,1157.73 989.582,1157.73C987.024,1157.73 985.063,1159.95 985.063,1162.85C985.063,1165.28 986.555,1166.86 988.9,1166.86C991.458,1166.86 993.333,1164.68 993.333,1161.7ZM1001.18,1152.75L998.833,1171.8L991.799,1171.8L992.31,1169.71C990.136,1171.67 988.474,1172.36 985.83,1172.36C981.013,1172.36 977.9,1168.86 977.9,1163.36C977.9,1156.92 982.164,1152.19 987.919,1152.19C990.605,1152.19 992.055,1152.83 994.101,1154.92L994.143,1152.75L1001.18,1152.75Z" style="fill:rgb(35,31,32);fill-rule:nonzero;"/>
        </g>
        <g transform="matrix(4.16667,0,0,4.16667,0,0)">
            <path d="M1033.36,1143.37L1032.59,1149.63L1024.24,1149.63L1023.64,1154.37L1031.74,1154.37L1030.97,1160.59L1022.87,1160.59L1022.28,1165.54L1030.97,1165.54L1030.21,1171.8L1014.3,1171.8L1017.8,1143.37L1033.36,1143.37Z" style="fill:rgb(35,31,32);fill-rule:nonzero;"/>
        </g>
        <g transform="matrix(4.16667,0,0,4.16667,0,0)">
            <path d="M1051.39,1154.07L1049.73,1158.88C1047.72,1157.65 1046.57,1157.26 1045.08,1157.26C1043.5,1157.26 1042.65,1157.65 1042.65,1158.42C1042.65,1158.88 1042.95,1159.14 1043.76,1159.35L1046.06,1159.95C1049.56,1160.89 1051.14,1162.55 1051.14,1165.28C1051.14,1169.63 1047.68,1172.36 1042.27,1172.36C1039.11,1172.36 1036.77,1171.59 1033.49,1169.46L1036.09,1164.85C1038.77,1166.56 1040.09,1167.07 1042.01,1167.07C1043.68,1167.07 1044.61,1166.6 1044.61,1165.75C1044.61,1165.24 1044.27,1164.94 1043.55,1164.73L1041.24,1164.21C1037.66,1163.36 1036.13,1161.66 1036.13,1158.67C1036.13,1154.75 1039.37,1152.11 1044.31,1152.11C1046.66,1152.11 1048.79,1152.7 1051.39,1154.07Z" style="fill:rgb(35,31,32);fill-rule:nonzero;"/>
        </g>
        <g transform="matrix(4.16667,0,0,4.16667,0,0)">
            <path d="M1063.62,1158.16L1061.92,1171.8L1054.93,1171.8L1056.59,1158.16L1053.61,1158.16L1054.24,1152.75L1057.27,1152.75L1058,1146.48L1065.03,1146.48L1064.26,1152.75L1068.02,1152.75L1067.38,1158.16L1063.62,1158.16Z" style="fill:rgb(35,31,32);fill-rule:nonzero;"/>
        </g>
        <g transform="matrix(4.16667,0,0,4.16667,0,0)">
            <path d="M1083.74,1161.7C1083.74,1159.27 1082.3,1157.73 1079.99,1157.73C1077.44,1157.73 1075.47,1159.95 1075.47,1162.85C1075.47,1165.28 1076.97,1166.86 1079.31,1166.86C1081.87,1166.86 1083.74,1164.68 1083.74,1161.7ZM1091.59,1152.75L1089.24,1171.8L1082.21,1171.8L1082.72,1169.71C1080.55,1171.67 1078.89,1172.36 1076.24,1172.36C1071.42,1172.36 1068.31,1168.86 1068.31,1163.36C1068.31,1156.92 1072.58,1152.19 1078.33,1152.19C1081.02,1152.19 1082.47,1152.83 1084.51,1154.92L1084.56,1152.75L1091.59,1152.75Z" style="fill:rgb(35,31,32);fill-rule:nonzero;"/>
        </g>
        <g transform="matrix(4.16667,0,0,4.16667,0,0)">
            <path d="M1109.79,1161.7C1109.79,1159.27 1108.34,1157.73 1106.04,1157.73C1103.44,1157.73 1101.52,1159.95 1101.52,1162.85C1101.52,1165.28 1103.01,1166.86 1105.36,1166.86C1107.91,1166.86 1109.79,1164.68 1109.79,1161.7ZM1119.13,1140.72L1115.29,1171.8L1108.3,1171.8L1108.81,1169.54C1106.55,1171.59 1104.72,1172.36 1102.12,1172.36C1097.47,1172.36 1094.36,1168.9 1094.36,1163.7C1094.36,1157.18 1098.58,1152.19 1104.04,1152.19C1106.68,1152.19 1108.38,1153 1110.34,1155.22L1112.09,1140.72L1119.13,1140.72Z" style="fill:rgb(35,31,32);fill-rule:nonzero;"/>
        </g>
        <g transform="matrix(4.16667,0,0,4.16667,0,0)">
            <path d="M1143.08,1152.75L1141.89,1162.81C1141.38,1166.77 1140.61,1168.73 1139.03,1170.05C1137.29,1171.55 1134.43,1172.36 1130.98,1172.36C1124.88,1172.36 1121.43,1169.67 1121.43,1164.85C1121.43,1164.17 1121.47,1163.32 1121.6,1162.25L1122.79,1152.75L1129.78,1152.75L1128.67,1161.83C1128.55,1162.98 1128.46,1163.7 1128.46,1164.04C1128.46,1165.66 1129.48,1166.52 1131.32,1166.52C1133.53,1166.52 1134.51,1165.45 1134.86,1162.68L1136.09,1152.75L1143.08,1152.75Z" style="fill:rgb(35,31,32);fill-rule:nonzero;"/>
        </g>
        <g transform="matrix(4.16667,0,0,4.16667,0,0)">
            <path d="M1161.37,1161.7C1161.37,1159.27 1159.92,1157.73 1157.62,1157.73C1155.06,1157.73 1153.1,1159.95 1153.1,1162.85C1153.1,1165.28 1154.59,1166.86 1156.94,1166.86C1159.49,1166.86 1161.37,1164.68 1161.37,1161.7ZM1169.21,1152.75L1166.87,1171.8L1159.83,1171.8L1160.35,1169.71C1158.17,1171.67 1156.51,1172.36 1153.87,1172.36C1149.05,1172.36 1145.94,1168.86 1145.94,1163.36C1145.94,1156.92 1150.2,1152.19 1155.96,1152.19C1158.64,1152.19 1160.09,1152.83 1162.14,1154.92L1162.18,1152.75L1169.21,1152.75Z" style="fill:rgb(35,31,32);fill-rule:nonzero;"/>
        </g>
        <g transform="matrix(4.16667,0,0,4.16667,0,0)">
            <path d="M1182.85,1140.72L1179.02,1171.8L1171.98,1171.8L1175.82,1140.72L1182.85,1140.72Z" style="fill:rgb(35,31,32);fill-rule:nonzero;"/>
        </g>
        <g transform="matrix(4.16667,0,0,4.16667,0,0)">
            <path d="M892.136,1200.79L890.175,1216.69L892.35,1216.69C896.059,1216.69 898.02,1215.2 898.744,1214.51C900.322,1213.07 901.302,1210.68 901.302,1207.99C901.302,1205.48 900.492,1203.56 899.256,1202.41C897.721,1201 895.675,1200.79 894.097,1200.79L892.136,1200.79ZM885.699,1194.52L893.756,1194.52C897.764,1194.52 902.07,1195.2 905.139,1198.06C907.569,1200.32 908.721,1203.52 908.721,1207.65C908.721,1213.83 906.461,1217.2 903.945,1219.29C899.64,1222.83 894.481,1222.96 891.582,1222.96L882.203,1222.96L885.699,1194.52Z" style="fill:rgb(35,31,32);fill-rule:nonzero;"/>
        </g>
        <g transform="matrix(4.16667,0,0,4.16667,0,0)">
            <path d="M920.739,1203.9L920.185,1206.5C922.359,1204.54 923.851,1203.9 926.537,1203.9C926.835,1203.9 927.305,1203.94 927.901,1203.98L927.134,1210.46C926.026,1209.87 925.173,1209.61 923.936,1209.61C921.037,1209.61 919.886,1210.98 919.375,1214.86L918.394,1222.96L911.36,1222.96L913.704,1203.9L920.739,1203.9Z" style="fill:rgb(35,31,32);fill-rule:nonzero;"/>
        </g>
        <g transform="matrix(4.16667,0,0,4.16667,0,0)">
            <path d="M935.786,1219.12C935.786,1221.59 933.911,1223.51 931.523,1223.51C929.136,1223.51 927.132,1221.51 927.132,1219.16C927.132,1216.77 929.051,1214.86 931.353,1214.86C933.826,1214.86 935.786,1216.73 935.786,1219.12Z" style="fill:rgb(35,31,32);fill-rule:nonzero;"/>
        </g>
        <g transform="matrix(4.16667,0,0,4.16667,0,0)">
            <path d="M978.842,1194.52L975.347,1222.96L968.141,1222.96L969.548,1211.32L959.103,1211.32L957.654,1222.96L950.449,1222.96L953.945,1194.52L961.15,1194.52L959.87,1205.05L970.316,1205.05L971.637,1194.52L978.842,1194.52Z" style="fill:rgb(35,31,32);fill-rule:nonzero;"/>
        </g>
        <g transform="matrix(4.16667,0,0,4.16667,0,0)">
            <path d="M994.783,1210.89C994.741,1210 994.357,1209.14 993.803,1208.63C993.291,1208.16 992.523,1207.86 991.585,1207.86C990.605,1207.86 989.71,1208.25 989.156,1208.8C988.601,1209.36 988.26,1210.21 988.132,1210.89L994.783,1210.89ZM987.663,1214.86C987.663,1215.54 987.663,1217.2 988.644,1218.1C988.985,1218.44 989.667,1218.82 990.818,1218.82C991.415,1218.82 992.055,1218.69 992.609,1218.31C993.163,1217.93 993.419,1217.46 993.547,1217.03L1001.22,1217.03C1000.75,1218.44 999.984,1219.63 999.132,1220.48C996.702,1223 993.12,1223.51 990.861,1223.51C986.853,1223.51 984.636,1221.98 983.571,1221C982.334,1219.8 980.97,1217.67 980.97,1214.26C980.97,1210.59 982.462,1207.95 984.082,1206.37C985.745,1204.75 988.346,1203.34 992.225,1203.34C995.806,1203.34 998.066,1204.62 999.43,1205.99C1001.39,1207.95 1001.99,1210.76 1001.99,1213.24C1001.99,1213.79 1001.95,1214.34 1001.9,1214.86L987.663,1214.86Z" style="fill:rgb(35,31,32);fill-rule:nonzero;"/>
        </g>
        <g transform="matrix(4.16667,0,0,4.16667,0,0)">
            <path d="M1011.32,1192.13C1013.45,1192.13 1015.16,1193.84 1015.16,1195.97C1015.16,1198.1 1013.45,1199.81 1011.32,1199.81C1009.19,1199.81 1007.48,1198.1 1007.48,1195.97C1007.48,1193.84 1009.19,1192.13 1011.32,1192.13ZM1014.18,1203.9L1011.83,1222.96L1004.8,1222.96L1007.14,1203.9L1014.18,1203.9Z" style="fill:rgb(35,31,32);fill-rule:nonzero;"/>
        </g>
        <g transform="matrix(4.16667,0,0,4.16667,0,0)">
            <path d="M1025.9,1209.31L1024.19,1222.96L1017.2,1222.96L1018.87,1209.31L1015.88,1209.31L1016.52,1203.9L1019.55,1203.9L1020.27,1197.63L1027.31,1197.63L1026.54,1203.9L1030.29,1203.9L1029.65,1209.31L1025.9,1209.31Z" style="fill:rgb(35,31,32);fill-rule:nonzero;"/>
        </g>
        <g transform="matrix(4.16667,0,0,4.16667,0,0)">
            <path d="M1046.62,1212.85C1046.62,1210.42 1045.17,1208.89 1042.82,1208.89C1040.22,1208.89 1038.26,1211.1 1038.26,1214C1038.26,1216.43 1039.8,1218.01 1042.14,1218.01C1044.74,1218.01 1046.62,1215.84 1046.62,1212.85ZM1053.78,1213.11C1053.78,1219.25 1049.18,1223.51 1042.52,1223.51C1035.7,1223.51 1031.1,1219.5 1031.1,1213.49C1031.1,1207.57 1035.92,1203.34 1042.74,1203.34C1049.43,1203.34 1053.78,1207.18 1053.78,1213.11Z" style="fill:rgb(35,31,32);fill-rule:nonzero;"/>
        </g>
        <g transform="matrix(4.16667,0,0,4.16667,0,0)">
            <path d="M1066.06,1203.9L1065.5,1206.5C1067.68,1204.54 1069.17,1203.9 1071.85,1203.9C1072.15,1203.9 1072.62,1203.94 1073.22,1203.98L1072.45,1210.46C1071.34,1209.87 1070.49,1209.61 1069.25,1209.61C1066.35,1209.61 1065.2,1210.98 1064.69,1214.86L1063.71,1222.96L1056.68,1222.96L1059.02,1203.9L1066.06,1203.9Z" style="fill:rgb(35,31,32);fill-rule:nonzero;"/>
        </g>
        <g transform="matrix(4.16667,0,0,4.16667,0,0)">
            <path d="M1094.36,1200.49L1093.51,1207.57L1095.77,1207.57C1096.79,1207.57 1098.67,1207.48 1099.77,1206.37C1100.58,1205.56 1100.67,1204.5 1100.67,1203.86C1100.67,1202.62 1100.29,1201.85 1099.86,1201.43C1098.92,1200.45 1097.39,1200.49 1096.36,1200.49L1094.36,1200.49ZM1087.88,1194.52L1097.39,1194.52C1100.63,1194.52 1103.53,1194.95 1105.66,1197.04C1107.79,1199.12 1108.04,1201.68 1108.04,1203.56C1108.04,1205.6 1107.75,1208.16 1105.83,1210.25C1103.87,1212.38 1100.46,1213.53 1095.94,1213.53L1092.74,1213.53L1091.59,1222.96L1084.38,1222.96L1087.88,1194.52Z" style="fill:rgb(35,31,32);fill-rule:nonzero;"/>
        </g>
        <g transform="matrix(4.16667,0,0,4.16667,0,0)">
            <path d="M1121.56,1210.89C1121.51,1210 1121.13,1209.14 1120.58,1208.63C1120.06,1208.16 1119.3,1207.86 1118.36,1207.86C1117.38,1207.86 1116.48,1208.25 1115.93,1208.8C1115.37,1209.36 1115.03,1210.21 1114.91,1210.89L1121.56,1210.89ZM1114.44,1214.86C1114.44,1215.54 1114.44,1217.2 1115.42,1218.1C1115.76,1218.44 1116.44,1218.82 1117.59,1218.82C1118.19,1218.82 1118.83,1218.69 1119.38,1218.31C1119.94,1217.93 1120.19,1217.46 1120.32,1217.03L1127.99,1217.03C1127.52,1218.44 1126.76,1219.63 1125.9,1220.48C1123.47,1223 1119.89,1223.51 1117.63,1223.51C1113.63,1223.51 1111.41,1221.98 1110.34,1221C1109.11,1219.8 1107.74,1217.67 1107.74,1214.26C1107.74,1210.59 1109.24,1207.95 1110.85,1206.37C1112.52,1204.75 1115.12,1203.34 1119,1203.34C1122.58,1203.34 1124.84,1204.62 1126.2,1205.99C1128.16,1207.95 1128.76,1210.76 1128.76,1213.24C1128.76,1213.79 1128.72,1214.34 1128.68,1214.86L1114.44,1214.86Z" style="fill:rgb(35,31,32);fill-rule:nonzero;"/>
        </g>
        <g transform="matrix(4.16667,0,0,4.16667,0,0)">
            <path d="M1140.95,1203.9L1140.35,1206.37C1142.95,1204.07 1144.66,1203.34 1147.26,1203.34C1151.14,1203.34 1153.27,1205.39 1153.27,1209.14C1153.27,1209.95 1153.23,1210.93 1153.06,1212.26L1151.74,1222.96L1144.7,1222.96L1145.77,1214.56C1145.9,1213.45 1145.94,1212.89 1145.94,1212.21C1145.94,1210.25 1145,1209.19 1143.38,1209.19C1141.12,1209.19 1140.14,1210.55 1139.67,1214.34L1138.61,1222.96L1131.57,1222.96L1133.92,1203.9L1140.95,1203.9Z" style="fill:rgb(35,31,32);fill-rule:nonzero;"/>
        </g>
        <g transform="matrix(4.16667,0,0,4.16667,0,0)">
            <path d="M1166.4,1209.31L1164.69,1222.96L1157.7,1222.96L1159.36,1209.31L1156.38,1209.31L1157.02,1203.9L1160.05,1203.9L1160.77,1197.63L1167.81,1197.63L1167.04,1203.9L1170.79,1203.9L1170.15,1209.31L1166.4,1209.31Z" style="fill:rgb(35,31,32);fill-rule:nonzero;"/>
        </g>
        <g transform="matrix(4.16667,0,0,4.16667,0,0)">
            <path d="M1184.94,1210.89C1184.9,1210 1184.52,1209.14 1183.96,1208.63C1183.45,1208.16 1182.68,1207.86 1181.74,1207.86C1180.76,1207.86 1179.87,1208.25 1179.31,1208.8C1178.76,1209.36 1178.42,1210.21 1178.29,1210.89L1184.94,1210.89ZM1177.82,1214.86C1177.82,1215.54 1177.82,1217.2 1178.8,1218.1C1179.14,1218.44 1179.83,1218.82 1180.98,1218.82C1181.57,1218.82 1182.21,1218.69 1182.77,1218.31C1183.32,1217.93 1183.58,1217.46 1183.71,1217.03L1191.38,1217.03C1190.91,1218.44 1190.14,1219.63 1189.29,1220.48C1186.86,1223 1183.28,1223.51 1181.02,1223.51C1177.01,1223.51 1174.8,1221.98 1173.73,1221C1172.49,1219.8 1171.13,1217.67 1171.13,1214.26C1171.13,1210.59 1172.62,1207.95 1174.24,1206.37C1175.9,1204.75 1178.5,1203.34 1182.38,1203.34C1185.97,1203.34 1188.22,1204.62 1189.59,1205.99C1191.55,1207.95 1192.15,1210.76 1192.15,1213.24C1192.15,1213.79 1192.1,1214.34 1192.06,1214.86L1177.82,1214.86Z" style="fill:rgb(35,31,32);fill-rule:nonzero;"/>
        </g>
        <g transform="matrix(4.16667,0,0,4.16667,0,0)">
            <path d="M1210.43,1212.85C1210.43,1210.42 1208.98,1208.89 1206.68,1208.89C1204.12,1208.89 1202.16,1211.1 1202.16,1214C1202.16,1216.43 1203.66,1218.01 1206,1218.01C1208.56,1218.01 1210.43,1215.84 1210.43,1212.85ZM1218.28,1203.9L1215.93,1222.96L1208.9,1222.96L1209.41,1220.87C1207.24,1222.83 1205.57,1223.51 1202.93,1223.51C1198.11,1223.51 1195,1220.01 1195,1214.51C1195,1208.08 1199.26,1203.34 1205.02,1203.34C1207.7,1203.34 1209.15,1203.98 1211.2,1206.07L1211.24,1203.9L1218.28,1203.9Z" style="fill:rgb(35,31,32);fill-rule:nonzero;"/>
        </g>
        <g transform="matrix(4.16667,0,0,4.16667,0,0)">
            <path d="M1236.48,1212.85C1236.48,1210.42 1235.03,1208.89 1232.73,1208.89C1230.13,1208.89 1228.21,1211.1 1228.21,1214C1228.21,1216.43 1229.7,1218.01 1232.05,1218.01C1234.6,1218.01 1236.48,1215.84 1236.48,1212.85ZM1245.82,1191.88L1241.98,1222.96L1234.99,1222.96L1235.5,1220.7C1233.24,1222.74 1231.41,1223.51 1228.81,1223.51C1224.16,1223.51 1221.05,1220.06 1221.05,1214.86C1221.05,1208.33 1225.27,1203.34 1230.72,1203.34C1233.37,1203.34 1235.07,1204.15 1237.03,1206.37L1238.78,1191.88L1245.82,1191.88Z" style="fill:rgb(35,31,32);fill-rule:nonzero;"/>
        </g>
        <g transform="matrix(4.16667,0,0,4.16667,0,0)">
            <path d="M1262.78,1212.85C1262.78,1210.42 1261.33,1208.89 1258.99,1208.89C1256.39,1208.89 1254.42,1211.1 1254.42,1214C1254.42,1216.43 1255.96,1218.01 1258.3,1218.01C1260.9,1218.01 1262.78,1215.84 1262.78,1212.85ZM1269.94,1213.11C1269.94,1219.25 1265.34,1223.51 1258.69,1223.51C1251.87,1223.51 1247.26,1219.5 1247.26,1213.49C1247.26,1207.57 1252.08,1203.34 1258.9,1203.34C1265.59,1203.34 1269.94,1207.18 1269.94,1213.11Z" style="fill:rgb(35,31,32);fill-rule:nonzero;"/>
        </g>
        <g transform="matrix(4.16667,0,0,4.16667,0,0)">
            <path d="M898.531,1109.65L893.756,1098.27L888.896,1109.65L898.531,1109.65ZM899.768,1112.63L887.66,1112.63L884.249,1120.65L880.753,1120.65L893.841,1090.85L906.589,1120.65L903.093,1120.65L899.768,1112.63Z" style="fill:rgb(245,229,189);fill-rule:nonzero;"/>
        </g>
        <g transform="matrix(4.16667,0,0,4.16667,0,0)">
            <path d="M923.68,1103.77L938.26,1103.77L938.26,1092.21L941.415,1092.21L941.415,1120.65L938.26,1120.65L938.26,1106.75L923.68,1106.75L923.68,1120.65L920.525,1120.65L920.525,1092.21L923.68,1092.21L923.68,1103.77Z" style="fill:rgb(245,229,189);fill-rule:nonzero;"/>
        </g>
        <g transform="matrix(4.16667,0,0,4.16667,0,0)">
            <path d="M951.046,1102.96L951.046,1120.65L947.976,1120.65L947.976,1102.96L951.046,1102.96ZM949.511,1094.09C950.705,1094.09 951.685,1095.07 951.685,1096.26C951.685,1097.46 950.705,1098.44 949.511,1098.44C948.318,1098.44 947.337,1097.46 947.337,1096.26C947.337,1095.07 948.318,1094.09 949.511,1094.09Z" style="fill:rgb(245,229,189);fill-rule:nonzero;"/>
        </g>
        <g transform="matrix(4.16667,0,0,4.16667,0,0)">
            <path d="M964.133,1107.05C963.707,1106.03 962.811,1105.26 961.661,1105.26C960.552,1105.26 959.529,1105.9 959.529,1107.26C959.529,1108.54 960.381,1108.93 962.385,1109.78C964.943,1110.84 966.137,1111.65 966.819,1112.51C967.586,1113.44 967.757,1114.38 967.757,1115.36C967.757,1119.07 965.071,1121.16 961.661,1121.16C960.935,1121.16 956.971,1121.08 955.478,1116.64L958.122,1115.53C958.463,1116.47 959.486,1118.43 961.703,1118.43C963.707,1118.43 964.602,1116.94 964.602,1115.62C964.602,1113.96 963.408,1113.4 961.745,1112.68C959.614,1111.74 958.25,1111.06 957.44,1110.08C956.758,1109.22 956.63,1108.37 956.63,1107.48C956.63,1104.36 958.804,1102.53 961.788,1102.53C962.726,1102.53 965.242,1102.7 966.648,1105.73L964.133,1107.05Z" style="fill:rgb(245,229,189);fill-rule:nonzero;"/>
        </g>
        <g transform="matrix(4.16667,0,0,4.16667,0,0)">
            <path d="M975.002,1105.77L975.002,1120.65L971.932,1120.65L971.932,1105.77L970.057,1105.77L970.057,1102.96L971.932,1102.96L971.932,1096.56L975.002,1096.56L975.002,1102.96L978.072,1102.96L978.072,1105.77L975.002,1105.77Z" style="fill:rgb(245,229,189);fill-rule:nonzero;"/>
        </g>
        <g transform="matrix(4.16667,0,0,4.16667,0,0)">
            <path d="M995.038,1093.71L989.326,1099.46L987.407,1098.44L991.883,1092.26L995.038,1093.71ZM983.016,1111.87C983.016,1116.22 986.085,1118.43 989.24,1118.43C992.437,1118.43 995.464,1116.17 995.464,1111.87C995.464,1107.52 992.48,1105.26 989.24,1105.26C986,1105.26 983.016,1107.56 983.016,1111.87ZM979.861,1111.87C979.861,1106.5 983.826,1102.53 989.24,1102.53C994.655,1102.53 998.62,1106.5 998.62,1111.87C998.62,1117.24 994.612,1121.16 989.24,1121.16C983.869,1121.16 979.861,1117.24 979.861,1111.87Z" style="fill:rgb(245,229,189);fill-rule:nonzero;"/>
        </g>
        <g transform="matrix(4.16667,0,0,4.16667,0,0)">
            <path d="M1003.31,1102.96L1006.38,1102.96L1006.38,1104.88C1006.67,1104.41 1008,1102.53 1010.38,1102.53C1011.32,1102.53 1012.34,1102.87 1013.11,1103.25L1011.66,1106.03C1010.98,1105.56 1010.34,1105.43 1009.87,1105.43C1008.63,1105.43 1007.87,1105.94 1007.4,1106.54C1006.89,1107.22 1006.38,1108.41 1006.38,1111.31L1006.38,1120.65L1003.31,1120.65L1003.31,1102.96Z" style="fill:rgb(245,229,189);fill-rule:nonzero;"/>
        </g>
        <g transform="matrix(4.16667,0,0,4.16667,0,0)">
            <path d="M1018.99,1102.96L1018.99,1120.65L1015.92,1120.65L1015.92,1102.96L1018.99,1102.96ZM1017.46,1094.09C1018.65,1094.09 1019.63,1095.07 1019.63,1096.26C1019.63,1097.46 1018.65,1098.44 1017.46,1098.44C1016.26,1098.44 1015.28,1097.46 1015.28,1096.26C1015.28,1095.07 1016.26,1094.09 1017.46,1094.09Z" style="fill:rgb(245,229,189);fill-rule:nonzero;"/>
        </g>
        <g transform="matrix(4.16667,0,0,4.16667,0,0)">
            <path d="M1026.84,1111.78C1026.84,1115.58 1028.97,1118.43 1032.63,1118.43C1036.39,1118.43 1038.52,1115.32 1038.52,1111.82C1038.52,1107.26 1035.36,1105.26 1032.63,1105.26C1029.61,1105.26 1026.84,1107.48 1026.84,1111.78ZM1038.35,1102.96L1041.42,1102.96L1041.42,1120.65L1038.35,1120.65L1038.35,1118.18C1037.32,1119.5 1035.4,1121.16 1032.29,1121.16C1027.82,1121.16 1023.68,1118.01 1023.68,1111.78C1023.68,1105.69 1027.77,1102.53 1032.29,1102.53C1035.7,1102.53 1037.54,1104.41 1038.35,1105.47L1038.35,1102.96Z" style="fill:rgb(245,229,189);fill-rule:nonzero;"/>
        </g>
        <g transform="matrix(4.16667,0,0,4.16667,0,0)">
            <path d="M1059.19,1111.78C1059.19,1115.58 1061.32,1118.43 1064.99,1118.43C1068.74,1118.43 1070.87,1115.32 1070.87,1111.82C1070.87,1107.26 1067.72,1105.26 1064.99,1105.26C1061.96,1105.26 1059.19,1107.48 1059.19,1111.78ZM1070.7,1089.57L1073.77,1089.57L1073.77,1120.65L1070.7,1120.65L1070.7,1118.18C1069.68,1119.5 1067.76,1121.16 1064.65,1121.16C1060.17,1121.16 1056.03,1118.01 1056.03,1111.78C1056.03,1105.69 1060.13,1102.53 1064.65,1102.53C1068.06,1102.53 1069.89,1104.41 1070.7,1105.47L1070.7,1089.57Z" style="fill:rgb(245,229,189);fill-rule:nonzero;"/>
        </g>
        <g transform="matrix(4.16667,0,0,4.16667,0,0)">
            <path d="M1081.61,1111.78C1081.61,1115.58 1083.74,1118.43 1087.41,1118.43C1091.16,1118.43 1093.29,1115.32 1093.29,1111.82C1093.29,1107.26 1090.14,1105.26 1087.41,1105.26C1084.38,1105.26 1081.61,1107.48 1081.61,1111.78ZM1093.12,1102.96L1096.19,1102.96L1096.19,1120.65L1093.12,1120.65L1093.12,1118.18C1092.1,1119.5 1090.18,1121.16 1087.07,1121.16C1082.59,1121.16 1078.46,1118.01 1078.46,1111.78C1078.46,1105.69 1082.55,1102.53 1087.07,1102.53C1090.48,1102.53 1092.31,1104.41 1093.12,1105.47L1093.12,1102.96Z" style="fill:rgb(245,229,189);fill-rule:nonzero;"/>
        </g>
        <g transform="matrix(4.16667,0,0,4.16667,0,0)">
            <path d="M901.26,1143.37L900.492,1149.63L892.136,1149.63L891.54,1154.37L899.64,1154.37L898.872,1160.59L890.772,1160.59L890.175,1165.54L898.872,1165.54L898.105,1171.8L882.203,1171.8L885.699,1143.37L901.26,1143.37Z" style="fill:rgb(245,229,189);fill-rule:nonzero;"/>
        </g>
        <g transform="matrix(4.16667,0,0,4.16667,0,0)">
            <path d="M919.291,1154.07L917.628,1158.88C915.624,1157.65 914.474,1157.26 912.981,1157.26C911.404,1157.26 910.551,1157.65 910.551,1158.42C910.551,1158.88 910.849,1159.14 911.66,1159.35L913.962,1159.95C917.458,1160.89 919.035,1162.55 919.035,1165.28C919.035,1169.63 915.582,1172.36 910.167,1172.36C907.012,1172.36 904.668,1171.59 901.385,1169.46L903.985,1164.85C906.672,1166.56 907.993,1167.07 909.911,1167.07C911.575,1167.07 912.512,1166.6 912.512,1165.75C912.512,1165.24 912.171,1164.94 911.447,1164.73L909.144,1164.21C905.563,1163.36 904.028,1161.66 904.028,1158.67C904.028,1154.75 907.268,1152.11 912.214,1152.11C914.559,1152.11 916.69,1152.7 919.291,1154.07Z" style="fill:rgb(245,229,189);fill-rule:nonzero;"/>
        </g>
        <g transform="matrix(4.16667,0,0,4.16667,0,0)">
            <path d="M938.388,1153.51L937.663,1159.44C936.299,1158.2 935.276,1157.73 933.784,1157.73C931.14,1157.73 929.264,1159.82 929.264,1162.72C929.264,1165.24 930.756,1166.81 933.186,1166.81C934.466,1166.81 935.403,1166.47 936.938,1165.37L936.213,1171.33C933.784,1172.14 932.803,1172.36 931.183,1172.36C925.853,1172.36 922.102,1168.43 922.102,1162.89C922.102,1156.71 926.536,1152.19 932.632,1152.19C934.721,1152.19 936.555,1152.62 938.388,1153.51Z" style="fill:rgb(245,229,189);fill-rule:nonzero;"/>
        </g>
        <g transform="matrix(4.16667,0,0,4.16667,0,0)">
            <path d="M955.651,1161.7C955.651,1159.27 954.202,1157.73 951.857,1157.73C949.256,1157.73 947.295,1159.95 947.295,1162.85C947.295,1165.28 948.83,1166.86 951.175,1166.86C953.775,1166.86 955.651,1164.68 955.651,1161.7ZM962.813,1161.95C962.813,1168.09 958.209,1172.36 951.558,1172.36C944.737,1172.36 940.133,1168.35 940.133,1162.34C940.133,1156.41 944.95,1152.19 951.771,1152.19C958.465,1152.19 962.813,1156.03 962.813,1161.95Z" style="fill:rgb(245,229,189);fill-rule:nonzero;"/>
        </g>
        <g transform="matrix(4.16667,0,0,4.16667,0,0)">
            <path d="M976.581,1140.72L972.744,1171.8L965.709,1171.8L969.546,1140.72L976.581,1140.72Z" style="fill:rgb(245,229,189);fill-rule:nonzero;"/>
        </g>
        <g transform="matrix(4.16667,0,0,4.16667,0,0)">
            <path d="M993.333,1161.7C993.333,1159.27 991.884,1157.73 989.582,1157.73C987.024,1157.73 985.063,1159.95 985.063,1162.85C985.063,1165.28 986.555,1166.86 988.9,1166.86C991.458,1166.86 993.333,1164.68 993.333,1161.7ZM1001.18,1152.75L998.833,1171.8L991.799,1171.8L992.31,1169.71C990.136,1171.67 988.474,1172.36 985.83,1172.36C981.013,1172.36 977.9,1168.86 977.9,1163.36C977.9,1156.92 982.164,1152.19 987.919,1152.19C990.605,1152.19 992.055,1152.83 994.101,1154.92L994.143,1152.75L1001.18,1152.75Z" style="fill:rgb(245,229,189);fill-rule:nonzero;"/>
        </g>
        <g transform="matrix(4.16667,0,0,4.16667,0,0)">
            <path d="M1033.36,1143.37L1032.59,1149.63L1024.24,1149.63L1023.64,1154.37L1031.74,1154.37L1030.97,1160.59L1022.87,1160.59L1022.28,1165.54L1030.97,1165.54L1030.21,1171.8L1014.3,1171.8L1017.8,1143.37L1033.36,1143.37Z" style="fill:rgb(245,229,189);fill-rule:nonzero;"/>
        </g>
        <g transform="matrix(4.16667,0,0,4.16667,0,0)">
            <path d="M1051.39,1154.07L1049.73,1158.88C1047.72,1157.65 1046.57,1157.26 1045.08,1157.26C1043.5,1157.26 1042.65,1157.65 1042.65,1158.42C1042.65,1158.88 1042.95,1159.14 1043.76,1159.35L1046.06,1159.95C1049.56,1160.89 1051.14,1162.55 1051.14,1165.28C1051.14,1169.63 1047.68,1172.36 1042.27,1172.36C1039.11,1172.36 1036.77,1171.59 1033.49,1169.46L1036.09,1164.85C1038.77,1166.56 1040.09,1167.07 1042.01,1167.07C1043.68,1167.07 1044.61,1166.6 1044.61,1165.75C1044.61,1165.24 1044.27,1164.94 1043.55,1164.73L1041.24,1164.21C1037.66,1163.36 1036.13,1161.66 1036.13,1158.67C1036.13,1154.75 1039.37,1152.11 1044.31,1152.11C1046.66,1152.11 1048.79,1152.7 1051.39,1154.07Z" style="fill:rgb(245,229,189);fill-rule:nonzero;"/>
        </g>
        <g transform="matrix(4.16667,0,0,4.16667,0,0)">
            <path d="M1063.62,1158.16L1061.92,1171.8L1054.93,1171.8L1056.59,1158.16L1053.61,1158.16L1054.24,1152.75L1057.27,1152.75L1058,1146.48L1065.03,1146.48L1064.26,1152.75L1068.02,1152.75L1067.38,1158.16L1063.62,1158.16Z" style="fill:rgb(245,229,189);fill-rule:nonzero;"/>
        </g>
        <g transform="matrix(4.16667,0,0,4.16667,0,0)">
            <path d="M1083.74,1161.7C1083.74,1159.27 1082.3,1157.73 1079.99,1157.73C1077.44,1157.73 1075.47,1159.95 1075.47,1162.85C1075.47,1165.28 1076.97,1166.86 1079.31,1166.86C1081.87,1166.86 1083.74,1164.68 1083.74,1161.7ZM1091.59,1152.75L1089.24,1171.8L1082.21,1171.8L1082.72,1169.71C1080.55,1171.67 1078.89,1172.36 1076.24,1172.36C1071.42,1172.36 1068.31,1168.86 1068.31,1163.36C1068.31,1156.92 1072.58,1152.19 1078.33,1152.19C1081.02,1152.19 1082.47,1152.83 1084.51,1154.92L1084.56,1152.75L1091.59,1152.75Z" style="fill:rgb(245,229,189);fill-rule:nonzero;"/>
        </g>
        <g transform="matrix(4.16667,0,0,4.16667,0,0)">
            <path d="M1109.79,1161.7C1109.79,1159.27 1108.34,1157.73 1106.04,1157.73C1103.44,1157.73 1101.52,1159.95 1101.52,1162.85C1101.52,1165.28 1103.01,1166.86 1105.36,1166.86C1107.91,1166.86 1109.79,1164.68 1109.79,1161.7ZM1119.13,1140.72L1115.29,1171.8L1108.3,1171.8L1108.81,1169.54C1106.55,1171.59 1104.72,1172.36 1102.12,1172.36C1097.47,1172.36 1094.36,1168.9 1094.36,1163.7C1094.36,1157.18 1098.58,1152.19 1104.04,1152.19C1106.68,1152.19 1108.38,1153 1110.34,1155.22L1112.09,1140.72L1119.13,1140.72Z" style="fill:rgb(245,229,189);fill-rule:nonzero;"/>
        </g>
        <g transform="matrix(4.16667,0,0,4.16667,0,0)">
            <path d="M1143.08,1152.75L1141.89,1162.81C1141.38,1166.77 1140.61,1168.73 1139.03,1170.05C1137.29,1171.55 1134.43,1172.36 1130.98,1172.36C1124.88,1172.36 1121.43,1169.67 1121.43,1164.85C1121.43,1164.17 1121.47,1163.32 1121.6,1162.25L1122.79,1152.75L1129.78,1152.75L1128.67,1161.83C1128.55,1162.98 1128.46,1163.7 1128.46,1164.04C1128.46,1165.66 1129.48,1166.52 1131.32,1166.52C1133.53,1166.52 1134.51,1165.45 1134.86,1162.68L1136.09,1152.75L1143.08,1152.75Z" style="fill:rgb(245,229,189);fill-rule:nonzero;"/>
        </g>
        <g transform="matrix(4.16667,0,0,4.16667,0,0)">
            <path d="M1161.37,1161.7C1161.37,1159.27 1159.92,1157.73 1157.62,1157.73C1155.06,1157.73 1153.1,1159.95 1153.1,1162.85C1153.1,1165.28 1154.59,1166.86 1156.94,1166.86C1159.49,1166.86 1161.37,1164.68 1161.37,1161.7ZM1169.21,1152.75L1166.87,1171.8L1159.83,1171.8L1160.35,1169.71C1158.17,1171.67 1156.51,1172.36 1153.87,1172.36C1149.05,1172.36 1145.94,1168.86 1145.94,1163.36C1145.94,1156.92 1150.2,1152.19 1155.96,1152.19C1158.64,1152.19 1160.09,1152.83 1162.14,1154.92L1162.18,1152.75L1169.21,1152.75Z" style="fill:rgb(245,229,189);fill-rule:nonzero;"/>
        </g>
        <g transform="matrix(4.16667,0,0,4.16667,0,0)">
            <path d="M1182.85,1140.72L1179.02,1171.8L1171.98,1171.8L1175.82,1140.72L1182.85,1140.72Z" style="fill:rgb(245,229,189);fill-rule:nonzero;"/>
        </g>
        <g transform="matrix(4.16667,0,0,4.16667,0,0)">
            <path d="M892.136,1200.79L890.175,1216.69L892.35,1216.69C896.059,1216.69 898.02,1215.2 898.744,1214.51C900.322,1213.07 901.302,1210.68 901.302,1207.99C901.302,1205.48 900.492,1203.56 899.256,1202.41C897.721,1201 895.675,1200.79 894.097,1200.79L892.136,1200.79ZM885.699,1194.52L893.756,1194.52C897.764,1194.52 902.07,1195.2 905.139,1198.06C907.569,1200.32 908.721,1203.52 908.721,1207.65C908.721,1213.83 906.461,1217.2 903.945,1219.29C899.64,1222.83 894.481,1222.96 891.582,1222.96L882.203,1222.96L885.699,1194.52Z" style="fill:rgb(245,229,189);fill-rule:nonzero;"/>
        </g>
        <g transform="matrix(4.16667,0,0,4.16667,0,0)">
            <path d="M920.739,1203.9L920.185,1206.5C922.359,1204.54 923.851,1203.9 926.537,1203.9C926.835,1203.9 927.305,1203.94 927.901,1203.98L927.134,1210.46C926.026,1209.87 925.173,1209.61 923.936,1209.61C921.037,1209.61 919.886,1210.98 919.375,1214.86L918.394,1222.96L911.36,1222.96L913.704,1203.9L920.739,1203.9Z" style="fill:rgb(245,229,189);fill-rule:nonzero;"/>
        </g>
        <g transform="matrix(4.16667,0,0,4.16667,0,0)">
            <path d="M935.786,1219.12C935.786,1221.59 933.911,1223.51 931.523,1223.51C929.136,1223.51 927.132,1221.51 927.132,1219.16C927.132,1216.77 929.051,1214.86 931.353,1214.86C933.826,1214.86 935.786,1216.73 935.786,1219.12Z" style="fill:rgb(245,229,189);fill-rule:nonzero;"/>
        </g>
        <g transform="matrix(4.16667,0,0,4.16667,0,0)">
            <path d="M978.842,1194.52L975.347,1222.96L968.141,1222.96L969.548,1211.32L959.103,1211.32L957.654,1222.96L950.449,1222.96L953.945,1194.52L961.15,1194.52L959.87,1205.05L970.316,1205.05L971.637,1194.52L978.842,1194.52Z" style="fill:rgb(245,229,189);fill-rule:nonzero;"/>
        </g>
        <g transform="matrix(4.16667,0,0,4.16667,0,0)">
            <path d="M994.783,1210.89C994.741,1210 994.357,1209.14 993.803,1208.63C993.291,1208.16 992.523,1207.86 991.585,1207.86C990.605,1207.86 989.71,1208.25 989.156,1208.8C988.601,1209.36 988.26,1210.21 988.132,1210.89L994.783,1210.89ZM987.663,1214.86C987.663,1215.54 987.663,1217.2 988.644,1218.1C988.985,1218.44 989.667,1218.82 990.818,1218.82C991.415,1218.82 992.055,1218.69 992.609,1218.31C993.163,1217.93 993.419,1217.46 993.547,1217.03L1001.22,1217.03C1000.75,1218.44 999.984,1219.63 999.132,1220.48C996.702,1223 993.12,1223.51 990.861,1223.51C986.853,1223.51 984.636,1221.98 983.571,1221C982.334,1219.8 980.97,1217.67 980.97,1214.26C980.97,1210.59 982.462,1207.95 984.082,1206.37C985.745,1204.75 988.346,1203.34 992.225,1203.34C995.806,1203.34 998.066,1204.62 999.43,1205.99C1001.39,1207.95 1001.99,1210.76 1001.99,1213.24C1001.99,1213.79 1001.95,1214.34 1001.9,1214.86L987.663,1214.86Z" style="fill:rgb(245,229,189);fill-rule:nonzero;"/>
        </g>
        <g transform="matrix(4.16667,0,0,4.16667,0,0)">
            <path d="M1011.32,1192.13C1013.45,1192.13 1015.16,1193.84 1015.16,1195.97C1015.16,1198.1 1013.45,1199.81 1011.32,1199.81C1009.19,1199.81 1007.48,1198.1 1007.48,1195.97C1007.48,1193.84 1009.19,1192.13 1011.32,1192.13ZM1014.18,1203.9L1011.83,1222.96L1004.8,1222.96L1007.14,1203.9L1014.18,1203.9Z" style="fill:rgb(245,229,189);fill-rule:nonzero;"/>
        </g>
        <g transform="matrix(4.16667,0,0,4.16667,0,0)">
            <path d="M1025.9,1209.31L1024.19,1222.96L1017.2,1222.96L1018.87,1209.31L1015.88,1209.31L1016.52,1203.9L1019.55,1203.9L1020.27,1197.63L1027.31,1197.63L1026.54,1203.9L1030.29,1203.9L1029.65,1209.31L1025.9,1209.31Z" style="fill:rgb(245,229,189);fill-rule:nonzero;"/>
        </g>
        <g transform="matrix(4.16667,0,0,4.16667,0,0)">
            <path d="M1046.62,1212.85C1046.62,1210.42 1045.17,1208.89 1042.82,1208.89C1040.22,1208.89 1038.26,1211.1 1038.26,1214C1038.26,1216.43 1039.8,1218.01 1042.14,1218.01C1044.74,1218.01 1046.62,1215.84 1046.62,1212.85ZM1053.78,1213.11C1053.78,1219.25 1049.18,1223.51 1042.52,1223.51C1035.7,1223.51 1031.1,1219.5 1031.1,1213.49C1031.1,1207.57 1035.92,1203.34 1042.74,1203.34C1049.43,1203.34 1053.78,1207.18 1053.78,1213.11Z" style="fill:rgb(245,229,189);fill-rule:nonzero;"/>
        </g>
        <g transform="matrix(4.16667,0,0,4.16667,0,0)">
            <path d="M1066.06,1203.9L1065.5,1206.5C1067.68,1204.54 1069.17,1203.9 1071.85,1203.9C1072.15,1203.9 1072.62,1203.94 1073.22,1203.98L1072.45,1210.46C1071.34,1209.87 1070.49,1209.61 1069.25,1209.61C1066.35,1209.61 1065.2,1210.98 1064.69,1214.86L1063.71,1222.96L1056.68,1222.96L1059.02,1203.9L1066.06,1203.9Z" style="fill:rgb(245,229,189);fill-rule:nonzero;"/>
        </g>
        <g transform="matrix(4.16667,0,0,4.16667,0,0)">
            <path d="M1094.36,1200.49L1093.51,1207.57L1095.77,1207.57C1096.79,1207.57 1098.67,1207.48 1099.77,1206.37C1100.58,1205.56 1100.67,1204.5 1100.67,1203.86C1100.67,1202.62 1100.29,1201.85 1099.86,1201.43C1098.92,1200.45 1097.39,1200.49 1096.36,1200.49L1094.36,1200.49ZM1087.88,1194.52L1097.39,1194.52C1100.63,1194.52 1103.53,1194.95 1105.66,1197.04C1107.79,1199.12 1108.04,1201.68 1108.04,1203.56C1108.04,1205.6 1107.75,1208.16 1105.83,1210.25C1103.87,1212.38 1100.46,1213.53 1095.94,1213.53L1092.74,1213.53L1091.59,1222.96L1084.38,1222.96L1087.88,1194.52Z" style="fill:rgb(245,229,189);fill-rule:nonzero;"/>
        </g>
        <g transform="matrix(4.16667,0,0,4.16667,0,0)">
            <path d="M1121.56,1210.89C1121.51,1210 1121.13,1209.14 1120.58,1208.63C1120.06,1208.16 1119.3,1207.86 1118.36,1207.86C1117.38,1207.86 1116.48,1208.25 1115.93,1208.8C1115.37,1209.36 1115.03,1210.21 1114.91,1210.89L1121.56,1210.89ZM1114.44,1214.86C1114.44,1215.54 1114.44,1217.2 1115.42,1218.1C1115.76,1218.44 1116.44,1218.82 1117.59,1218.82C1118.19,1218.82 1118.83,1218.69 1119.38,1218.31C1119.94,1217.93 1120.19,1217.46 1120.32,1217.03L1127.99,1217.03C1127.52,1218.44 1126.76,1219.63 1125.9,1220.48C1123.47,1223 1119.89,1223.51 1117.63,1223.51C1113.63,1223.51 1111.41,1221.98 1110.34,1221C1109.11,1219.8 1107.74,1217.67 1107.74,1214.26C1107.74,1210.59 1109.24,1207.95 1110.85,1206.37C1112.52,1204.75 1115.12,1203.34 1119,1203.34C1122.58,1203.34 1124.84,1204.62 1126.2,1205.99C1128.16,1207.95 1128.76,1210.76 1128.76,1213.24C1128.76,1213.79 1128.72,1214.34 1128.68,1214.86L1114.44,1214.86Z" style="fill:rgb(245,229,189);fill-rule:nonzero;"/>
        </g>
        <g transform="matrix(4.16667,0,0,4.16667,0,0)">
            <path d="M1140.95,1203.9L1140.35,1206.37C1142.95,1204.07 1144.66,1203.34 1147.26,1203.34C1151.14,1203.34 1153.27,1205.39 1153.27,1209.14C1153.27,1209.95 1153.23,1210.93 1153.06,1212.26L1151.74,1222.96L1144.7,1222.96L1145.77,1214.56C1145.9,1213.45 1145.94,1212.89 1145.94,1212.21C1145.94,1210.25 1145,1209.19 1143.38,1209.19C1141.12,1209.19 1140.14,1210.55 1139.67,1214.34L1138.61,1222.96L1131.57,1222.96L1133.92,1203.9L1140.95,1203.9Z" style="fill:rgb(245,229,189);fill-rule:nonzero;"/>
        </g>
        <g transform="matrix(4.16667,0,0,4.16667,0,0)">
            <path d="M1166.4,1209.31L1164.69,1222.96L1157.7,1222.96L1159.36,1209.31L1156.38,1209.31L1157.02,1203.9L1160.05,1203.9L1160.77,1197.63L1167.81,1197.63L1167.04,1203.9L1170.79,1203.9L1170.15,1209.31L1166.4,1209.31Z" style="fill:rgb(245,229,189);fill-rule:nonzero;"/>
        </g>
        <g transform="matrix(4.16667,0,0,4.16667,0,0)">
            <path d="M1184.94,1210.89C1184.9,1210 1184.52,1209.14 1183.96,1208.63C1183.45,1208.16 1182.68,1207.86 1181.74,1207.86C1180.76,1207.86 1179.87,1208.25 1179.31,1208.8C1178.76,1209.36 1178.42,1210.21 1178.29,1210.89L1184.94,1210.89ZM1177.82,1214.86C1177.82,1215.54 1177.82,1217.2 1178.8,1218.1C1179.14,1218.44 1179.83,1218.82 1180.98,1218.82C1181.57,1218.82 1182.21,1218.69 1182.77,1218.31C1183.32,1217.93 1183.58,1217.46 1183.71,1217.03L1191.38,1217.03C1190.91,1218.44 1190.14,1219.63 1189.29,1220.48C1186.86,1223 1183.28,1223.51 1181.02,1223.51C1177.01,1223.51 1174.8,1221.98 1173.73,1221C1172.49,1219.8 1171.13,1217.67 1171.13,1214.26C1171.13,1210.59 1172.62,1207.95 1174.24,1206.37C1175.9,1204.75 1178.5,1203.34 1182.38,1203.34C1185.97,1203.34 1188.22,1204.62 1189.59,1205.99C1191.55,1207.95 1192.15,1210.76 1192.15,1213.24C1192.15,1213.79 1192.1,1214.34 1192.06,1214.86L1177.82,1214.86Z" style="fill:rgb(245,229,189);fill-rule:nonzero;"/>
        </g>
        <g transform="matrix(4.16667,0,0,4.16667,0,0)">
            <path d="M1210.43,1212.85C1210.43,1210.42 1208.98,1208.89 1206.68,1208.89C1204.12,1208.89 1202.16,1211.1 1202.16,1214C1202.16,1216.43 1203.66,1218.01 1206,1218.01C1208.56,1218.01 1210.43,1215.84 1210.43,1212.85ZM1218.28,1203.9L1215.93,1222.96L1208.9,1222.96L1209.41,1220.87C1207.24,1222.83 1205.57,1223.51 1202.93,1223.51C1198.11,1223.51 1195,1220.01 1195,1214.51C1195,1208.08 1199.26,1203.34 1205.02,1203.34C1207.7,1203.34 1209.15,1203.98 1211.2,1206.07L1211.24,1203.9L1218.28,1203.9Z" style="fill:rgb(245,229,189);fill-rule:nonzero;"/>
        </g>
        <g transform="matrix(4.16667,0,0,4.16667,0,0)">
            <path d="M1236.48,1212.85C1236.48,1210.42 1235.03,1208.89 1232.73,1208.89C1230.13,1208.89 1228.21,1211.1 1228.21,1214C1228.21,1216.43 1229.7,1218.01 1232.05,1218.01C1234.6,1218.01 1236.48,1215.84 1236.48,1212.85ZM1245.82,1191.88L1241.98,1222.96L1234.99,1222.96L1235.5,1220.7C1233.24,1222.74 1231.41,1223.51 1228.81,1223.51C1224.16,1223.51 1221.05,1220.06 1221.05,1214.86C1221.05,1208.33 1225.27,1203.34 1230.72,1203.34C1233.37,1203.34 1235.07,1204.15 1237.03,1206.37L1238.78,1191.88L1245.82,1191.88Z" style="fill:rgb(245,229,189);fill-rule:nonzero;"/>
        </g>
        <g transform="matrix(4.16667,0,0,4.16667,0,0)">
            <path d="M1262.78,1212.85C1262.78,1210.42 1261.33,1208.89 1258.99,1208.89C1256.39,1208.89 1254.42,1211.1 1254.42,1214C1254.42,1216.43 1255.96,1218.01 1258.3,1218.01C1260.9,1218.01 1262.78,1215.84 1262.78,1212.85ZM1269.94,1213.11C1269.94,1219.25 1265.34,1223.51 1258.69,1223.51C1251.87,1223.51 1247.26,1219.5 1247.26,1213.49C1247.26,1207.57 1252.08,1203.34 1258.9,1203.34C1265.59,1203.34 1269.94,1207.18 1269.94,1213.11Z" style="fill:rgb(245,229,189);fill-rule:nonzero;"/>
        </g>
        <g transform="matrix(4.16667,0,0,4.16667,0,0)">
            <path d="M205.668,598.86L188.103,598.86L188.103,611.645L205.151,611.645L205.151,616.166L188.103,616.166L188.103,632.891L205.668,632.891L205.668,637.411L183.325,637.411L183.325,594.339L205.668,594.339L205.668,598.86Z" style="fill:rgb(35,31,32);fill-rule:nonzero;"/>
        </g>
        <g transform="matrix(4.16667,0,0,4.16667,0,0)">
            <path d="M220.841,623.075L211.09,610.612L216.773,610.612L223.683,619.718L230.721,610.612L236.404,610.612L226.589,623.14L237.695,637.411L232.013,637.411L223.553,626.498L215.094,637.411L209.412,637.411L220.841,623.075Z" style="fill:rgb(35,31,32);fill-rule:nonzero;"/>
        </g>
        <g transform="matrix(4.16667,0,0,4.16667,0,0)">
            <path d="M264.687,624.173C264.687,617.586 260.23,614.1 255.904,614.1C251.578,614.1 246.993,617.651 246.993,624.108C246.993,629.598 250.48,634.053 255.969,634.053C261.393,634.053 264.687,629.533 264.687,624.173ZM247.251,652.264L242.602,652.264L242.602,610.612L247.251,610.612L247.251,614.358C250.416,610.419 254.484,609.967 256.42,609.967C264.816,609.967 269.465,616.941 269.465,624.173C269.465,631.535 264.751,638.186 256.614,638.186C252.288,638.186 249.253,636.249 247.251,633.666L247.251,652.264Z" style="fill:rgb(35,31,32);fill-rule:nonzero;"/>
        </g>
        <g transform="matrix(4.16667,0,0,4.16667,0,0)">
            <path d="M279.666,624.108C279.666,630.695 284.315,634.053 289.094,634.053C293.937,634.053 298.522,630.631 298.522,624.108C298.522,617.522 294.002,614.1 289.094,614.1C284.186,614.1 279.666,617.586 279.666,624.108ZM274.887,624.108C274.887,615.972 280.893,609.967 289.094,609.967C297.295,609.967 303.3,615.972 303.3,624.108C303.3,632.245 297.23,638.186 289.094,638.186C280.957,638.186 274.887,632.245 274.887,624.108Z" style="fill:rgb(35,31,32);fill-rule:nonzero;"/>
        </g>
        <g transform="matrix(4.16667,0,0,4.16667,0,0)">
            <path d="M321.444,616.811C320.798,615.262 319.442,614.1 317.699,614.1C316.02,614.1 314.47,615.068 314.47,617.135C314.47,619.072 315.761,619.653 318.797,620.944C322.671,622.559 324.479,623.786 325.512,625.077C326.675,626.498 326.933,627.918 326.933,629.404C326.933,635.022 322.865,638.186 317.699,638.186C316.601,638.186 310.595,638.057 308.335,631.341L312.339,629.662C312.856,631.083 314.405,634.053 317.763,634.053C320.798,634.053 322.154,631.793 322.154,629.791C322.154,627.273 320.346,626.434 317.828,625.335C314.599,623.915 312.533,622.882 311.306,621.396C310.273,620.105 310.079,618.813 310.079,617.457C310.079,612.743 313.372,609.967 317.892,609.967C319.313,609.967 323.123,610.225 325.254,614.81L321.444,616.811Z" style="fill:rgb(35,31,32);fill-rule:nonzero;"/>
        </g>
        <g transform="matrix(4.16667,0,0,4.16667,0,0)">
            <path d="M337.78,610.612L337.78,637.411L333.131,637.411L333.131,610.612L337.78,610.612ZM335.455,597.181C337.264,597.181 338.749,598.666 338.749,600.474C338.749,602.282 337.264,603.768 335.455,603.768C333.647,603.768 332.162,602.282 332.162,600.474C332.162,598.666 333.647,597.181 335.455,597.181Z" style="fill:rgb(35,31,32);fill-rule:nonzero;"/>
        </g>
        <g transform="matrix(4.16667,0,0,4.16667,0,0)">
            <path d="M362.318,642.513L355.796,650.778L352.632,649.228L358.056,640.769L362.318,642.513ZM367.548,618.103C365.094,615.003 361.543,614.1 359.153,614.1C354.181,614.1 349.661,617.586 349.661,624.108C349.661,630.631 354.31,634.053 359.089,634.053C361.866,634.053 365.288,632.826 367.742,629.856L367.742,635.409C364.836,637.54 361.736,638.186 359.218,638.186C350.888,638.186 344.882,632.245 344.882,624.173C344.882,615.972 350.953,609.967 359.218,609.967C363.48,609.967 366.257,611.645 367.548,612.55L367.548,618.103Z" style="fill:rgb(35,31,32);fill-rule:nonzero;"/>
        </g>
        <g transform="matrix(4.16667,0,0,4.16667,0,0)">
            <path d="M378.331,603.122C378.912,602.153 379.816,600.926 380.526,600.216C381.753,599.054 382.851,598.666 384.207,598.666C385.951,598.666 387.307,599.247 388.727,599.957C390.213,600.732 391.117,601.249 392.343,601.249C393.118,601.249 393.635,601.12 394.216,600.474C394.668,599.957 395.314,598.989 395.572,598.472L398.22,600.668C397.897,601.507 397.381,602.347 396.541,603.186C395.056,604.736 393.506,605.123 392.279,605.123C390.729,605.123 389.05,604.349 387.823,603.768C386.274,603.057 385.24,602.54 384.272,602.54C383.497,602.54 382.98,602.863 382.399,603.444C381.818,604.026 381.366,604.736 381.043,605.317L378.331,603.122ZM377.943,623.979C377.943,629.727 381.172,634.053 386.725,634.053C392.408,634.053 395.637,629.339 395.637,624.044C395.637,617.135 390.858,614.1 386.725,614.1C382.141,614.1 377.943,617.457 377.943,623.979ZM395.379,610.612L400.028,610.612L400.028,637.411L395.379,637.411L395.379,633.666C393.829,635.667 390.923,638.186 386.209,638.186C379.428,638.186 373.165,633.407 373.165,623.979C373.165,614.745 379.364,609.967 386.209,609.967C391.375,609.967 394.152,612.808 395.379,614.422L395.379,610.612Z" style="fill:rgb(35,31,32);fill-rule:nonzero;"/>
        </g>
        <g transform="matrix(4.16667,0,0,4.16667,0,0)">
            <path d="M411.908,624.108C411.908,630.695 416.557,634.053 421.336,634.053C426.179,634.053 430.764,630.631 430.764,624.108C430.764,617.522 426.243,614.1 421.336,614.1C416.428,614.1 411.908,617.586 411.908,624.108ZM407.129,624.108C407.129,615.972 413.134,609.967 421.336,609.967C429.537,609.967 435.542,615.972 435.542,624.108C435.542,632.245 429.472,638.186 421.336,638.186C413.199,638.186 407.129,632.245 407.129,624.108Z" style="fill:rgb(35,31,32);fill-rule:nonzero;"/>
        </g>
        <g transform="matrix(4.16667,0,0,4.16667,0,0)">
            <path d="M205.668,598.86L188.103,598.86L188.103,611.645L205.151,611.645L205.151,616.166L188.103,616.166L188.103,632.891L205.668,632.891L205.668,637.411L183.325,637.411L183.325,594.339L205.668,594.339L205.668,598.86Z" style="fill:rgb(245,229,189);fill-rule:nonzero;"/>
        </g>
        <g transform="matrix(4.16667,0,0,4.16667,0,0)">
            <path d="M220.841,623.075L211.09,610.612L216.773,610.612L223.683,619.718L230.721,610.612L236.404,610.612L226.589,623.14L237.695,637.411L232.013,637.411L223.553,626.498L215.094,637.411L209.412,637.411L220.841,623.075Z" style="fill:rgb(245,229,189);fill-rule:nonzero;"/>
        </g>
        <g transform="matrix(4.16667,0,0,4.16667,0,0)">
            <path d="M264.687,624.173C264.687,617.586 260.23,614.1 255.904,614.1C251.578,614.1 246.993,617.651 246.993,624.108C246.993,629.598 250.48,634.053 255.969,634.053C261.393,634.053 264.687,629.533 264.687,624.173ZM247.251,652.264L242.602,652.264L242.602,610.612L247.251,610.612L247.251,614.358C250.416,610.419 254.484,609.967 256.42,609.967C264.816,609.967 269.465,616.941 269.465,624.173C269.465,631.535 264.751,638.186 256.614,638.186C252.288,638.186 249.253,636.249 247.251,633.666L247.251,652.264Z" style="fill:rgb(245,229,189);fill-rule:nonzero;"/>
        </g>
        <g transform="matrix(4.16667,0,0,4.16667,0,0)">
            <path d="M279.666,624.108C279.666,630.695 284.315,634.053 289.094,634.053C293.937,634.053 298.522,630.631 298.522,624.108C298.522,617.522 294.002,614.1 289.094,614.1C284.186,614.1 279.666,617.586 279.666,624.108ZM274.887,624.108C274.887,615.972 280.893,609.967 289.094,609.967C297.295,609.967 303.3,615.972 303.3,624.108C303.3,632.245 297.23,638.186 289.094,638.186C280.957,638.186 274.887,632.245 274.887,624.108Z" style="fill:rgb(245,229,189);fill-rule:nonzero;"/>
        </g>
        <g transform="matrix(4.16667,0,0,4.16667,0,0)">
            <path d="M321.444,616.811C320.798,615.262 319.442,614.1 317.699,614.1C316.02,614.1 314.47,615.068 314.47,617.135C314.47,619.072 315.761,619.653 318.797,620.944C322.671,622.559 324.479,623.786 325.512,625.077C326.675,626.498 326.933,627.918 326.933,629.404C326.933,635.022 322.865,638.186 317.699,638.186C316.601,638.186 310.595,638.057 308.335,631.341L312.339,629.662C312.856,631.083 314.405,634.053 317.763,634.053C320.798,634.053 322.154,631.793 322.154,629.791C322.154,627.273 320.346,626.434 317.828,625.335C314.599,623.915 312.533,622.882 311.306,621.396C310.273,620.105 310.079,618.813 310.079,617.457C310.079,612.743 313.372,609.967 317.892,609.967C319.313,609.967 323.123,610.225 325.254,614.81L321.444,616.811Z" style="fill:rgb(245,229,189);fill-rule:nonzero;"/>
        </g>
        <g transform="matrix(4.16667,0,0,4.16667,0,0)">
            <path d="M337.78,610.612L337.78,637.411L333.131,637.411L333.131,610.612L337.78,610.612ZM335.455,597.181C337.264,597.181 338.749,598.666 338.749,600.474C338.749,602.282 337.264,603.768 335.455,603.768C333.647,603.768 332.162,602.282 332.162,600.474C332.162,598.666 333.647,597.181 335.455,597.181Z" style="fill:rgb(245,229,189);fill-rule:nonzero;"/>
        </g>
        <g transform="matrix(4.16667,0,0,4.16667,0,0)">
            <path d="M362.318,642.513L355.796,650.778L352.632,649.228L358.056,640.769L362.318,642.513ZM367.548,618.103C365.094,615.003 361.543,614.1 359.153,614.1C354.181,614.1 349.661,617.586 349.661,624.108C349.661,630.631 354.31,634.053 359.089,634.053C361.866,634.053 365.288,632.826 367.742,629.856L367.742,635.409C364.836,637.54 361.736,638.186 359.218,638.186C350.888,638.186 344.882,632.245 344.882,624.173C344.882,615.972 350.953,609.967 359.218,609.967C363.48,609.967 366.257,611.645 367.548,612.55L367.548,618.103Z" style="fill:rgb(245,229,189);fill-rule:nonzero;"/>
        </g>
        <g transform="matrix(4.16667,0,0,4.16667,0,0)">
            <path d="M378.331,603.122C378.912,602.153 379.816,600.926 380.526,600.216C381.753,599.054 382.851,598.666 384.207,598.666C385.951,598.666 387.307,599.247 388.727,599.957C390.213,600.732 391.117,601.249 392.343,601.249C393.118,601.249 393.635,601.12 394.216,600.474C394.668,599.957 395.314,598.989 395.572,598.472L398.22,600.668C397.897,601.507 397.381,602.347 396.541,603.186C395.056,604.736 393.506,605.123 392.279,605.123C390.729,605.123 389.05,604.349 387.823,603.768C386.274,603.057 385.24,602.54 384.272,602.54C383.497,602.54 382.98,602.863 382.399,603.444C381.818,604.026 381.366,604.736 381.043,605.317L378.331,603.122ZM377.943,623.979C377.943,629.727 381.172,634.053 386.725,634.053C392.408,634.053 395.637,629.339 395.637,624.044C395.637,617.135 390.858,614.1 386.725,614.1C382.141,614.1 377.943,617.457 377.943,623.979ZM395.379,610.612L400.028,610.612L400.028,637.411L395.379,637.411L395.379,633.666C393.829,635.667 390.923,638.186 386.209,638.186C379.428,638.186 373.165,633.407 373.165,623.979C373.165,614.745 379.364,609.967 386.209,609.967C391.375,609.967 394.152,612.808 395.379,614.422L395.379,610.612Z" style="fill:rgb(245,229,189);fill-rule:nonzero;"/>
        </g>
        <g transform="matrix(4.16667,0,0,4.16667,0,0)">
            <path d="M411.908,624.108C411.908,630.695 416.557,634.053 421.336,634.053C426.179,634.053 430.764,630.631 430.764,624.108C430.764,617.522 426.243,614.1 421.336,614.1C416.428,614.1 411.908,617.586 411.908,624.108ZM407.129,624.108C407.129,615.972 413.134,609.967 421.336,609.967C429.537,609.967 435.542,615.972 435.542,624.108C435.542,632.245 429.472,638.186 421.336,638.186C413.199,638.186 407.129,632.245 407.129,624.108Z" style="fill:rgb(245,229,189);fill-rule:nonzero;"/>
        </g>
        <g transform="matrix(4.16667,0,0,4.16667,0,0)">
            <path d="M467.789,621.189L800.456,621.189" style="fill:none;fill-rule:nonzero;"/>
        </g>
        <g transform="matrix(4.16667,0,0,4.16667,0,0)">
            <path d="M467.789,621.189L800.456,621.189" style="fill:none;stroke:rgb(245,229,189);stroke-width:2.83px;"/>
        </g>
    </g>
</svg>
