<?xml version="1.0" encoding="UTF-8" standalone="no"?>
<!DOCTYPE svg PUBLIC "-//W3C//DTD SVG 1.1//EN" "http://www.w3.org/Graphics/SVG/1.1/DTD/svg11.dtd">
<svg width="100%" height="100%" viewBox="0 0 2253 2249" version="1.1" xmlns="http://www.w3.org/2000/svg" xmlns:xlink="http://www.w3.org/1999/xlink" xml:space="preserve" xmlns:serif="http://www.serif.com/" style="fill-rule:evenodd;clip-rule:evenodd;stroke-linejoin:round;stroke-miterlimit:2;">
    <g transform="matrix(1,0,0,1,-66620.3,-77450.2)">
        <g transform="matrix(-3.41152,-1.57772e-30,0,2.53914,-33844.2,63765.1)">
            <g transform="matrix(-0.190004,-0.252534,-0.187957,0.255284,-29488.9,5788.37)">
                <g>
                    <g transform="matrix(25.3842,12.7159,-11.2397,22.4372,30.6234,-874.13)">
                        <path d="M82.626,74.393C82.609,74.264 82.581,74.138 82.545,74.015C82.472,73.773 82.349,73.365 82.312,73.238C82.304,73.213 82.295,73.188 82.286,73.163C82.202,72.939 81.769,71.785 81.707,71.62C81.702,71.607 81.697,71.594 81.692,71.581C81.646,71.466 81.411,70.877 81.328,70.671C81.31,70.624 81.288,70.578 81.264,70.534C81.112,70.258 80.53,69.2 80.297,68.777C80.233,68.659 80.159,68.548 80.077,68.445C79.798,68.091 79.115,67.226 78.829,66.864C78.743,66.755 78.649,66.654 78.548,66.563C78.101,66.161 76.814,65.003 76.707,64.906C76.702,64.902 76.698,64.898 76.693,64.894C76.562,64.774 74.643,63.022 74.421,62.819C74.407,62.806 74.393,62.793 74.379,62.78C74.2,62.611 72.906,61.385 72.576,61.072C72.526,61.024 72.476,60.974 72.429,60.921C72.145,60.605 71.09,59.434 70.784,59.093C70.728,59.031 70.675,58.966 70.624,58.898C70.355,58.54 69.454,57.338 69.244,57.058C69.215,57.02 69.186,56.98 69.159,56.939C68.964,56.646 68.124,55.387 67.872,55.008C67.824,54.936 67.779,54.861 67.738,54.784C67.486,54.314 66.545,52.558 66.34,52.174C66.313,52.125 66.288,52.074 66.264,52.023C66.113,51.704 65.535,50.485 65.42,50.242C65.407,50.214 65.393,50.186 65.378,50.159C65.243,49.9 64.514,48.509 64.338,48.173C64.313,48.124 64.286,48.077 64.257,48.03C64.06,47.706 63.235,46.351 62.977,45.927C62.926,45.842 62.87,45.761 62.811,45.683C62.538,45.325 61.713,44.241 61.411,43.846C61.337,43.749 61.257,43.657 61.172,43.572C60.916,43.316 60.355,42.755 60.227,42.627C60.209,42.609 60.191,42.592 60.172,42.575C60.028,42.443 59.358,41.834 59.157,41.652C59.119,41.617 59.08,41.585 59.039,41.555C58.821,41.395 58.078,40.851 57.754,40.613C57.652,40.538 57.543,40.475 57.429,40.424C57.046,40.254 56.13,39.847 55.87,39.731C55.823,39.71 55.776,39.692 55.728,39.675C55.421,39.568 54.211,39.147 53.714,38.975C53.572,38.925 53.425,38.89 53.277,38.871C52.805,38.809 51.716,38.667 51.335,38.618C51.245,38.606 51.155,38.6 51.064,38.6L48.94,38.6C48.847,38.6 48.754,38.606 48.661,38.618C48.278,38.668 47.205,38.808 46.731,38.87C46.577,38.89 46.426,38.927 46.279,38.98C45.729,39.18 44.295,39.702 43.596,39.956C43.333,40.052 43.081,40.182 42.845,40.344C42.205,40.784 40.871,41.701 40.286,42.104C40.096,42.234 39.916,42.384 39.749,42.551C39.337,42.963 38.522,43.778 38.126,44.174C37.976,44.324 37.84,44.492 37.721,44.675C37.415,45.146 36.808,46.08 36.643,46.334C36.614,46.378 36.587,46.423 36.561,46.469C36.372,46.804 35.544,48.269 35.344,48.623C35.315,48.674 35.287,48.727 35.261,48.78C35.026,49.264 33.804,51.78 33.623,52.154C33.608,52.185 33.592,52.215 33.576,52.246C33.417,52.554 32.499,54.333 32.142,55.025C32.048,55.208 31.939,55.381 31.818,55.543C31.397,56.105 30.38,57.46 30.221,57.672C30.207,57.691 30.193,57.709 30.178,57.727C29.993,57.963 28.666,59.652 28.179,60.272C28.06,60.424 27.93,60.564 27.791,60.693C26.797,61.61 22.553,65.528 21.664,66.349C21.555,66.45 21.443,66.547 21.33,66.642C21.217,66.736 21.074,66.855 20.985,66.93C20.928,66.976 20.878,67.031 20.834,67.092C20.604,67.415 19.832,68.495 19.527,68.923C19.442,69.041 19.367,69.166 19.301,69.298C19.092,69.716 18.605,70.689 18.355,71.19C18.252,71.396 18.173,71.616 18.12,71.844C17.966,72.503 17.636,73.915 17.532,74.362C17.511,74.454 17.493,74.547 17.479,74.641C17.412,75.096 17.2,76.525 17.126,77.025C17.109,77.142 17.098,77.259 17.094,77.377C17.078,77.87 17.031,79.262 17.01,79.888C17.003,80.096 17.015,80.303 17.046,80.507C17.109,80.929 17.221,81.672 17.272,82.016C17.291,82.138 17.319,82.259 17.356,82.375C17.512,82.859 17.947,84.214 18.124,84.764C18.175,84.921 18.237,85.073 18.309,85.219C18.546,85.692 19.104,86.809 19.364,87.327C19.454,87.509 19.561,87.679 19.683,87.835C19.987,88.227 20.587,88.997 20.812,89.287C20.871,89.362 20.933,89.433 21,89.5C21.293,89.793 22.152,90.652 22.525,91.025C22.641,91.141 22.767,91.245 22.902,91.334C23.363,91.642 24.491,92.394 24.926,92.684C25.042,92.761 25.163,92.829 25.287,92.887C25.775,93.113 27.084,93.721 27.642,93.98C27.814,94.06 27.991,94.122 28.173,94.165C28.603,94.267 29.43,94.464 29.805,94.554C29.935,94.584 30.067,94.602 30.199,94.606C30.725,94.623 32.161,94.668 32.838,94.689C33.079,94.696 33.319,94.673 33.555,94.62C34.165,94.482 35.403,94.202 35.985,94.071C36.194,94.024 36.399,93.953 36.596,93.86C36.993,93.672 37.684,93.345 38.014,93.188C38.138,93.129 38.256,93.058 38.368,92.974C38.551,92.837 38.832,92.626 38.948,92.539C38.983,92.513 39.019,92.49 39.056,92.469C39.339,92.312 40.6,91.611 40.779,91.512C40.793,91.504 40.807,91.496 40.821,91.488C41.008,91.378 42.382,90.57 42.493,90.504C42.498,90.501 42.502,90.499 42.507,90.496C42.601,90.439 43.599,89.841 43.909,89.655C43.969,89.618 44.032,89.586 44.096,89.558C44.419,89.417 45.449,88.966 45.585,88.907C45.595,88.902 45.605,88.898 45.615,88.893C45.732,88.839 46.512,88.479 46.796,88.348C46.865,88.316 46.936,88.29 47.009,88.271C47.277,88.199 47.968,88.015 48.263,87.936C48.354,87.912 48.447,87.897 48.54,87.891C48.836,87.873 49.524,87.83 49.838,87.81C49.946,87.803 50.054,87.808 50.16,87.825C50.566,87.889 51.617,88.055 51.853,88.093C51.884,88.098 51.916,88.103 51.947,88.11C52.135,88.15 52.838,88.301 53.15,88.368C53.25,88.389 53.347,88.423 53.441,88.467C53.91,88.692 55.397,89.403 55.581,89.491C55.594,89.497 55.606,89.503 55.619,89.509C55.825,89.613 57.694,90.547 58.247,90.823C58.349,90.874 58.448,90.932 58.545,90.995C58.991,91.285 60.328,92.157 60.636,92.358C60.679,92.386 60.722,92.413 60.766,92.438C61.066,92.609 62.308,93.319 62.689,93.536C62.763,93.579 62.839,93.617 62.917,93.65C63.26,93.797 64.268,94.229 64.7,94.414C64.833,94.471 64.971,94.514 65.111,94.542C65.527,94.625 66.442,94.808 66.776,94.875C66.858,94.892 66.942,94.902 67.026,94.907C67.35,94.926 68.207,94.977 68.5,94.994C68.567,94.998 68.633,94.998 68.7,94.993C68.95,94.975 69.602,94.928 69.876,94.909C69.958,94.903 70.041,94.889 70.121,94.867C70.49,94.766 71.603,94.463 72.03,94.346C72.143,94.315 72.254,94.275 72.362,94.225C72.834,94.006 74.214,93.365 74.767,93.108C74.922,93.036 75.072,92.95 75.214,92.85C75.614,92.57 76.465,91.974 76.829,91.72C76.943,91.64 77.05,91.55 77.15,91.45C77.537,91.063 78.56,90.04 78.948,89.652C79.049,89.551 79.144,89.442 79.231,89.325C79.507,88.957 80.146,88.105 80.443,87.709C80.547,87.57 80.639,87.419 80.716,87.259C80.966,86.741 81.55,85.527 81.792,85.024C81.864,84.875 81.925,84.719 81.974,84.559C82.127,84.063 82.475,82.931 82.627,82.438C82.676,82.28 82.711,82.117 82.734,81.951C82.796,81.5 82.924,80.555 82.977,80.169C82.992,80.057 83,79.943 83,79.829L83,77.801C83,77.734 82.997,77.666 82.992,77.6C82.972,77.336 82.918,76.63 82.903,76.445C82.901,76.415 82.898,76.385 82.894,76.355C82.86,76.106 82.692,74.874 82.626,74.393Z" style="fill:rgb(193,237,255);fill-rule:nonzero;"/>
                    </g>
                    <g transform="matrix(13.8483,-20.9761,24.0622,15.0064,50.4908,1425.75)">
                        <ellipse cx="63.9" cy="20.4" rx="15.4" ry="10.8" style="fill:rgb(193,237,255);"/>
                    </g>
                    <g transform="matrix(26.427,10.2856,-8.50743,23.6515,-59.5341,-813.983)">
                        <ellipse cx="36.1" cy="20.3" rx="10.8" ry="15.4" style="fill:rgb(193,237,255);"/>
                    </g>
                    <g transform="matrix(16.4896,-19.1365,22.334,17.2899,-704.369,2022.7)">
                        <ellipse cx="83.9" cy="44.2" rx="15.3" ry="10.8" style="fill:rgb(193,237,255);"/>
                    </g>
                    <g transform="matrix(27.221,7.53417,-5.45251,24.6654,-251.786,-892.25)">
                        <ellipse cx="16.1" cy="44.2" rx="10.8" ry="15.3" style="fill:rgb(193,237,255);"/>
                    </g>
                </g>
            </g>
        </g>
    </g>
</svg>
