<?xml version="1.0" encoding="UTF-8" standalone="no"?>
<!DOCTYPE svg PUBLIC "-//W3C//DTD SVG 1.1//EN" "http://www.w3.org/Graphics/SVG/1.1/DTD/svg11.dtd">
<svg width="100%" height="100%" viewBox="0 0 879 713" version="1.1" xmlns="http://www.w3.org/2000/svg" xmlns:xlink="http://www.w3.org/1999/xlink" xml:space="preserve" xmlns:serif="http://www.serif.com/" style="fill-rule:evenodd;clip-rule:evenodd;stroke-linejoin:round;stroke-miterlimit:2;">
    <g transform="matrix(1,0,0,1,-199.011,-1706.29)">
        <g transform="matrix(1,0,0,1,0,1424)">
            <g transform="matrix(-2.21977,0,0,2.21977,732.576,282.286)">
                <g transform="matrix(-4.16667,0,0,4.16667,250.661,-47.8789)">
                    <path d="M47.9,24.1C46.2,22.7 40.4,28.8 34.9,37.7C34.3,38.7 33.8,39.6 33.2,40.5C32.9,41.1 32,40.9 31.8,40.3C28.8,24 24.4,11.1 22.1,11.5C19.8,11.9 20.4,25.5 23.4,41.9C23.5,42.6 22.7,43 22.2,42.6C21.4,41.9 20.5,41.2 19.6,40.5C11.2,34.1 3.6,30.5 2.6,32.5C1.5,34.4 7.5,41.2 15.8,47.6C19.2,50.2 22.6,52.4 25.3,53.9C25.8,54.2 26.1,54.6 26.3,55.1C28.8,64.6 31.4,71 33.1,70.7C34.7,70.4 34.9,63.5 33.8,53.7C33.7,53.2 33.9,52.6 34.3,52.2C36.4,49.8 38.7,46.6 40.9,42.9C46.5,33.9 49.6,25.5 47.9,24.1Z" style="fill:rgb(223,245,255);fill-rule:nonzero;"/>
                </g>
                <g transform="matrix(-4.16667,0,0,4.16667,250.661,-47.8789)">
                    <path d="M97.4,52C96.4,50 88.6,53.2 80,59.1C79.1,59.7 78.2,60.4 77.3,61C76.7,61.4 76,60.9 76.1,60.2C80,44.1 81.3,30.5 79,30C76.7,29.5 71.7,42.1 67.8,58.3C67.6,59 66.7,59.1 66.4,58.5C65.9,57.5 65.4,56.6 64.9,55.6C59.9,46.4 54.4,40 52.6,41.3C50.8,42.6 53.5,51.2 58.5,60.4C60.6,64.2 62.7,67.5 64.7,70C65,70.4 65.2,71 65.1,71.5C63.5,81.2 63.3,88.1 65,88.5C66.6,88.9 69.6,82.7 72.6,73.3C72.8,72.8 73.1,72.3 73.6,72.1C76.5,70.8 79.9,68.8 83.4,66.3C92.1,60.4 98.4,54 97.4,52Z" style="fill:rgb(223,245,255);fill-rule:nonzero;"/>
                </g>
            </g>
        </g>
    </g>
</svg>
