<?xml version="1.0" encoding="UTF-8" standalone="no"?>
<!DOCTYPE svg PUBLIC "-//W3C//DTD SVG 1.1//EN" "http://www.w3.org/Graphics/SVG/1.1/DTD/svg11.dtd">
<svg width="100%" height="100%" viewBox="0 0 757 765" version="1.1" xmlns="http://www.w3.org/2000/svg" xmlns:xlink="http://www.w3.org/1999/xlink" xml:space="preserve" xmlns:serif="http://www.serif.com/" style="fill-rule:evenodd;clip-rule:evenodd;stroke-linejoin:round;stroke-miterlimit:2;">
    <g transform="matrix(1,0,0,1,-4680.98,-1667.67)">
        <g transform="matrix(1,0,0,1,4414,1424)">
            <g transform="matrix(16.4526,6.08954,-6.08954,16.4526,120.51,-488.875)">
                <path d="M62.12,60C59.488,58.4 57.364,56.082 56,53.32C54.68,50.74 52.49,49.06 50,49.06C47.51,49.06 45.33,50.74 44,53.32C42.636,56.082 40.512,58.4 37.88,60C36.01,61.08 34.88,62.43 34.88,63.88C34.88,67.48 41.63,70.4 49.97,70.4C58.31,70.4 65.06,67.48 65.06,63.88C65.09,62.39 64,61 62.12,60Z" style="fill:rgb(223,245,255);fill-rule:nonzero;"/>
            </g>
            <g transform="matrix(17.2967,2.93198,-2.93198,17.2967,-33.7389,-389.019)">
                <ellipse cx="41.71" cy="37.71" rx="5.4" ry="8.15" style="fill:rgb(223,245,255);"/>
            </g>
            <g transform="matrix(9.03574,-15.0375,15.0375,9.03574,-243.872,1022.25)">
                <ellipse cx="58.29" cy="37.71" rx="8.15" ry="5.4" style="fill:rgb(223,245,255);"/>
            </g>
            <g transform="matrix(12.4312,-12.3789,12.3789,12.4312,-542.128,966.851)">
                <ellipse cx="67.8" cy="50.64" rx="6.41" ry="4.25" style="fill:rgb(223,245,255);"/>
            </g>
            <g transform="matrix(17.4894,-1.37619,1.37619,17.4894,-291.013,-300.918)">
                <ellipse cx="32.2" cy="50.64" rx="4.25" ry="6.41" style="fill:rgb(223,245,255);"/>
            </g>
        </g>
    </g>
</svg>
