<?xml version="1.0" encoding="UTF-8" standalone="no"?>
<!DOCTYPE svg PUBLIC "-//W3C//DTD SVG 1.1//EN" "http://www.w3.org/Graphics/SVG/1.1/DTD/svg11.dtd">
<svg width="100%" height="100%" viewBox="0 0 143 143" version="1.1" xmlns="http://www.w3.org/2000/svg" xmlns:xlink="http://www.w3.org/1999/xlink" xml:space="preserve" xmlns:serif="http://www.serif.com/" style="fill-rule:evenodd;clip-rule:evenodd;stroke-linejoin:round;stroke-miterlimit:2;">
    <g transform="matrix(1,0,0,1,-921.705,-1202.27)">
        <g transform="matrix(1,0,0,1,1.13687e-12,696.582)">
            <g transform="matrix(0.484669,0,0,0.484669,180.681,224.1)">
                <path d="M1675.43,581C1756.3,581 1821.94,646.648 1821.94,727.508C1821.94,808.368 1756.3,874.016 1675.43,874.016C1594.58,874.016 1528.93,808.368 1528.93,727.508C1528.93,646.648 1594.58,581 1675.43,581ZM1675.43,774.206C1666.62,774.206 1659.46,781.371 1659.46,790.181C1659.46,798.991 1666.62,806.156 1675.43,806.156C1684.24,806.156 1691.41,798.991 1691.41,790.181C1691.41,781.371 1684.24,774.206 1675.43,774.206ZM1722.64,664.614C1719.87,662.513 1715.89,663.058 1713.78,665.825L1713.77,665.834C1713.64,666.009 1700.15,683.142 1669.72,687.488C1668.58,687.637 1659.34,688.947 1649.97,693.38C1643.6,696.396 1637.18,700.857 1633.11,707.312C1628.25,715.032 1627.46,724.12 1630.86,734.328C1631.97,737.65 1635.56,739.437 1638.87,738.333C1642.19,737.225 1643.98,733.641 1642.88,730.324C1640.73,723.895 1640.99,718.58 1643.82,714.081C1647.96,707.497 1656.45,703.887 1662.9,701.966C1660.77,719.96 1663.73,731.399 1664.45,733.827C1666.87,747.416 1665.49,756.895 1659.89,761.922C1656.39,765.063 1651.61,766.131 1647.15,766.337C1640.24,766.655 1634.02,764.877 1633.85,764.826C1630.5,763.833 1626.98,765.735 1625.98,769.078C1624.98,772.428 1626.88,775.958 1630.23,776.962C1630.76,777.123 1637.27,779.027 1645.35,779.027C1652.83,779.027 1661.61,777.378 1668.31,771.381C1675.02,765.391 1678.37,756.329 1678.21,744.311C1689.96,752.846 1707.67,770.549 1707.67,799.826C1707.67,803.322 1710.51,806.158 1714,806.158C1717.5,806.158 1720.34,803.322 1720.34,799.826C1720.34,754.886 1686.24,733.383 1676.04,727.958C1675.13,723.607 1673.77,713.611 1676.08,699.226C1708.82,693.08 1723.26,674.3 1723.89,673.456C1725.99,670.666 1725.42,666.718 1722.64,664.614ZM1722.78,666.908C1722.64,666.712 1722.49,666.524 1722.32,666.347L1723.06,665.111C1723.25,665.47 1723.3,665.899 1723.16,666.302C1723.08,666.538 1722.95,666.744 1722.78,666.908ZM1675.43,680.807C1684.24,680.807 1691.41,673.642 1691.41,664.832C1691.41,656.022 1684.24,648.857 1675.43,648.857C1666.62,648.857 1659.46,656.022 1659.46,664.832C1659.46,673.642 1666.62,680.807 1675.43,680.807Z" style="fill:white;"/>
            </g>
        </g>
    </g>
</svg>
