<?xml version="1.0" encoding="UTF-8" standalone="no"?>
<!DOCTYPE svg PUBLIC "-//W3C//DTD SVG 1.1//EN" "http://www.w3.org/Graphics/SVG/1.1/DTD/svg11.dtd">
<svg width="100%" height="100%" viewBox="0 0 143 143" version="1.1" xmlns="http://www.w3.org/2000/svg" xmlns:xlink="http://www.w3.org/1999/xlink" xml:space="preserve" xmlns:serif="http://www.serif.com/" style="fill-rule:evenodd;clip-rule:evenodd;stroke-linejoin:round;stroke-miterlimit:2;">
    <g transform="matrix(1,0,0,1,-4411.61,-1755.29)">
        <g transform="matrix(0.484669,0,0,0.484669,3670.59,1473.7)">
            <path d="M1675.43,581C1756.3,581 1821.94,646.648 1821.94,727.508C1821.94,808.368 1756.3,874.016 1675.43,874.016C1594.58,874.016 1528.93,808.368 1528.93,727.508C1528.93,646.648 1594.58,581 1675.43,581ZM1718.72,723.743L1718.92,723.79C1719.91,723.953 1743.4,728.288 1743.4,757.258C1743.4,760.725 1746.22,763.539 1749.68,763.539C1753.15,763.539 1755.97,760.725 1755.97,757.258C1755.97,732.084 1741.98,720.43 1731.72,715.251C1760.26,686.015 1756.11,653.739 1755.9,652.263C1755.43,648.835 1752.28,646.44 1748.84,646.915C1745.41,647.381 1743,650.543 1743.46,653.973C1743.57,654.829 1745.16,668.269 1737.73,684.728C1733.86,682.563 1728.99,679.4 1725.45,675.838C1723.02,673.39 1721.18,670.782 1720.96,668.164C1720.84,666.665 1721.38,665.15 1722.5,663.605C1723.76,661.867 1725.73,660.122 1728.37,658.358C1731.26,656.436 1732.04,652.535 1730.12,649.648C1728.19,646.761 1724.29,645.975 1721.4,647.907C1712.06,654.137 1707.78,661.361 1708.45,669.228C1708.9,674.519 1711.66,679.314 1715.37,683.42C1720.29,688.859 1726.87,693.085 1731.57,695.687C1729.43,698.833 1726.92,702.011 1723.97,705.166C1722.58,701.381 1720.34,697.511 1716.75,694.712C1713.41,692.107 1707.56,689.412 1698.57,691.662C1695.21,692.501 1693.16,695.912 1694,699.282C1694.85,702.646 1698.27,704.698 1701.62,703.849C1704.81,703.049 1707.24,703.227 1709.01,704.603C1710.5,705.756 1711.49,707.604 1712.19,709.542C1713.31,712.644 1713.64,716.009 1713.65,717.599C1713.65,720.026 1715.06,722.244 1717.27,723.28L1717.27,723.282C1717.72,723.492 1718.2,723.635 1718.67,723.732L1718.72,723.743ZM1650.94,719.819C1651.01,720.012 1650.94,719.819 1650.94,719.819C1650.71,719.399 1650.44,719.003 1650.11,718.545C1650.1,718.54 1650.1,718.534 1650.09,718.529C1648.27,716.342 1645.13,715.596 1642.47,716.929C1629.64,723.341 1619.48,737.603 1611.92,752.638C1600.71,774.932 1595.17,798.85 1594.8,800.501C1594.03,803.883 1596.15,807.248 1599.54,808.014L1599.54,808.015C1600.01,808.118 1600.47,808.168 1600.93,808.168C1603.8,808.168 1606.39,806.19 1607.05,803.272C1607.12,802.962 1610.73,787.391 1617.72,770.228C1621.6,772.38 1626.49,775.544 1630.06,779.114C1632.52,781.579 1634.38,784.21 1634.6,786.852C1634.73,788.351 1634.19,789.866 1633.07,791.41C1631.81,793.148 1629.84,794.894 1627.19,796.659C1624.31,798.58 1623.53,802.481 1625.45,805.37C1626.66,807.187 1628.65,808.167 1630.68,808.167C1631.88,808.167 1633.09,807.827 1634.16,807.11C1643.51,800.881 1647.79,793.657 1647.12,785.789C1646.65,780.277 1643.67,775.298 1639.71,771.077C1634.44,765.448 1627.46,761.168 1622.88,758.717C1626.28,751.834 1630.23,745.193 1634.7,739.673C1633.42,750.518 1635.61,757.962 1641,762.285C1644.33,764.96 1648.42,765.99 1652.71,765.988C1663.93,765.987 1676.42,758.79 1678.26,757.69C1681.23,755.909 1682.2,752.051 1680.41,749.077C1678.63,746.109 1674.78,745.136 1671.8,746.917C1667.58,749.436 1661.42,752.108 1656.23,753.084C1654.58,753.394 1653.04,753.533 1651.7,753.421C1650.55,753.325 1649.57,753.056 1648.86,752.487C1648.35,752.081 1647.54,750.976 1647.14,748.464C1646.73,745.807 1646.81,741.776 1648.12,735.694C1652.32,739.044 1657.74,741.557 1664.24,741.557C1668.35,741.557 1672.9,740.551 1677.84,738.083C1680.94,736.531 1682.2,732.759 1680.65,729.654C1679.1,726.555 1675.33,725.289 1672.22,726.844C1668.13,728.892 1664.64,729.241 1661.74,728.639C1655.15,727.27 1651.63,721.129 1650.94,719.819ZM1665.11,681.557C1656.18,681.557 1648.91,688.822 1648.91,697.755C1648.91,706.688 1656.18,713.953 1665.11,713.953C1674.05,713.953 1681.31,706.688 1681.31,697.755C1681.31,688.822 1674.04,681.557 1665.11,681.557ZM1700.1,721.226C1691.16,721.226 1683.9,728.491 1683.9,737.424C1683.9,746.357 1691.16,753.623 1700.1,753.623C1709.03,753.623 1716.3,746.357 1716.3,737.424C1716.3,728.491 1709.03,721.226 1700.1,721.226Z" style="fill:white;"/>
        </g>
    </g>
</svg>
