<?xml version="1.0" encoding="UTF-8" standalone="no"?>
<!DOCTYPE svg PUBLIC "-//W3C//DTD SVG 1.1//EN" "http://www.w3.org/Graphics/SVG/1.1/DTD/svg11.dtd">
<svg width="100%" height="100%" viewBox="0 0 700 190" version="1.1" xmlns="http://www.w3.org/2000/svg" xmlns:xlink="http://www.w3.org/1999/xlink" xml:space="preserve" xmlns:serif="http://www.serif.com/" style="fill-rule:evenodd;clip-rule:evenodd;stroke-linejoin:round;stroke-miterlimit:2;">
    <g transform="matrix(1,0,0,1,-562,-422)">
        <g transform="matrix(1,0,0,1,562,422)">
            <g>
                <path d="M218.37,22.83L220.3,16.16L228.39,16.16C228.72,16.16 229.01,15.93 229.1,15.63L230.03,12.57L221.6,12.57C221.6,12.57 221.44,12.57 221.36,12.69C221.34,12.73 221.23,12.93 221.23,12.93C221.23,12.93 222.15,9.76 223.48,9.76L230.32,9.76C230.65,9.76 230.94,9.54 231.03,9.24L232.17,5.37L223.82,5.37C221.11,5.55 219.14,7.8 217.89,12.1L214.57,23.38L217.65,23.38C217.99,23.38 218.28,23.15 218.37,22.83Z" style="fill:white;fill-rule:nonzero;"/>
                <path d="M243.5,22.94L239.3,5.37L236.81,5.37C236.28,5.37 236.1,5.62 235.98,5.85L228.27,23.38L231.29,23.38C231.89,23.38 231.99,23.12 232.08,22.91L233.84,18.93L238.6,18.91C239.17,18.91 239.33,19.3 239.33,19.3L240.29,23.38L242.83,23.38C242.83,23.38 243.58,23.38 243.48,22.94L243.5,22.94ZM238.2,16.39L235.15,16.39C235.02,16.39 234.88,16.62 234.88,16.62L237.38,10.9L238.6,16.06C238.6,16.06 238.66,16.38 238.2,16.38L238.2,16.39Z" style="fill:white;fill-rule:nonzero;"/>
                <path d="M260.84,5.37C260.08,5.37 259.68,5.37 259.3,6.21L254.41,16.98C254.41,16.98 254.35,17.12 254.33,17.16C254.23,17.39 254.28,17.72 254.28,17.72L251.18,5.38L248.25,5.38C247.46,5.38 246.88,5.38 246.81,6.31L245.06,23.39C245.44,23.38 247.05,23.39 247.05,23.39C247.963,23.39 248.447,23.083 248.5,22.47L249.53,12.33L252.23,23.14L253.35,23.14L253.91,23.14C254.637,23.14 255.113,22.897 255.34,22.41L259.87,12.4L258.74,23.38L260.84,23.38C261.673,23.38 262.127,23.07 262.2,22.45L263.95,5.37L260.84,5.37Z" style="fill:white;fill-rule:nonzero;"/>
            </g>
            <g>
                <path d="M0,23.09L0,5.71L7.54,5.71C11.93,5.71 14.51,8.02 14.51,11.79C14.51,15.56 11.93,17.75 7.54,17.75L4.96,17.75L4.96,23.09L0,23.09ZM4.96,13.9L7.12,13.9C8.56,13.9 9.55,13.18 9.55,11.79C9.55,10.4 8.56,9.68 7.12,9.68L4.96,9.68L4.96,13.9Z" style="fill:rgb(252,227,0);fill-rule:nonzero;"/>
                <path d="M15.96,14.39C15.96,9.08 19.21,5.46 24.65,5.46C30.09,5.46 33.34,9.06 33.34,14.39C33.34,19.72 30.09,23.32 24.65,23.32C19.21,23.32 15.96,19.7 15.96,14.39ZM28.37,14.39C28.37,11.34 26.91,9.55 24.65,9.55C22.39,9.55 20.93,11.34 20.93,14.39C20.93,17.44 22.39,19.23 24.65,19.23C26.91,19.23 28.37,17.44 28.37,14.39ZM22.84,4.22L24.63,0L30.02,0L26.5,4.22L22.84,4.22Z" style="fill:rgb(252,227,0);fill-rule:nonzero;"/>
                <path d="M35.02,18.61L39.74,17.67C40.29,19.13 41.5,19.68 42.87,19.68C44.24,19.68 45.1,19.11 45.1,18.19C45.1,15.29 35.42,17.62 35.42,10.47C35.42,7.64 37.93,5.46 42.37,5.46C46.17,5.46 48.87,6.87 49.72,9.93L44.91,10.87C44.56,9.65 43.67,9.11 42.4,9.11C41.28,9.11 40.49,9.68 40.49,10.47C40.49,13.4 50.17,10.99 50.17,18.29C50.17,21.17 47.66,23.33 42.87,23.33C39.2,23.33 35.85,21.89 35.03,18.61L35.02,18.61Z" style="fill:rgb(252,227,0);fill-rule:nonzero;"/>
                <rect x="51.57" y="14.4" width="8.81" height="3.47" style="fill:rgb(252,227,0);fill-rule:nonzero;"/>
                <path d="M62.24,14.39C62.24,9.05 65.44,5.46 70.06,5.46C73.19,5.46 75.77,6.9 77.03,10.1L74.95,10.87C73.98,8.44 72.32,7.37 70.06,7.37C66.73,7.37 64.48,10.03 64.48,14.39C64.48,18.75 66.66,21.41 70.36,21.41C72.1,21.41 73.66,20.67 74.65,19.57L74.65,15.95L70.48,15.75L70.48,13.96L76.88,13.96L76.88,20.26C75.39,22.29 73.01,23.31 70.35,23.31C65.44,23.31 62.24,19.71 62.24,14.38L62.24,14.39Z" style="fill:white;fill-rule:nonzero;"/>
                <path d="M80.55,23.08L80.55,5.71L87.25,5.71C90.72,5.71 92.96,7.67 92.96,11C92.96,13.56 91.57,15.29 89.29,15.91L93.21,23.08L90.68,23.08L87.08,16.16L82.79,16.16L82.79,23.08L80.55,23.08ZM82.78,14.27L87.15,14.27C89.33,14.27 90.72,13.08 90.72,10.99C90.72,8.9 89.33,7.69 87.15,7.69L82.78,7.69L82.78,14.27Z" style="fill:white;fill-rule:nonzero;"/>
                <path d="M107.98,23.08L106.59,19.11L98.48,19.11L97.09,23.08L94.81,23.08L101.04,5.71L104.12,5.71L110.37,23.08L107.98,23.08ZM99.12,17.25L105.94,17.25L102.59,7.65L102.47,7.65L99.12,17.25Z" style="fill:white;fill-rule:nonzero;"/>
                <path d="M112.69,23.09L112.69,5.71L118.25,5.71C123.19,5.71 126.46,9.18 126.46,14.4C126.46,19.62 123.18,23.09 118.25,23.09L112.69,23.09ZM114.92,21.09L118.25,21.09C121.87,21.09 124.23,18.56 124.23,14.39C124.23,10.22 121.87,7.69 118.25,7.69L114.92,7.69L114.92,21.09Z" style="fill:white;fill-rule:nonzero;"/>
                <path d="M129.62,16.11L129.62,5.71L131.85,5.71L131.85,16.11C131.85,19.96 134.01,21.35 136.39,21.35C138.77,21.35 140.91,19.96 140.91,16.11L140.91,5.71L143.14,5.71L143.14,16.11C143.14,21.05 140.09,23.33 136.39,23.33C132.69,23.33 129.62,21.05 129.62,16.11Z" style="fill:white;fill-rule:nonzero;"/>
                <path d="M158.53,23.08L157.14,19.11L149.03,19.11L147.64,23.08L145.36,23.08L151.59,5.71L154.67,5.71L160.92,23.08L158.53,23.08ZM149.67,17.25L156.49,17.25L153.14,7.65L153.02,7.65L149.67,17.25Z" style="fill:white;fill-rule:nonzero;"/>
                <path d="M177.11,18.26C176.02,21.61 173.59,23.12 170.68,23.3L170.38,24.19L170.53,24.19C171.89,24.19 173.01,24.96 173.01,26.4C173.01,27.76 171.94,28.78 169.96,28.78C168.82,28.78 167.93,28.48 167.21,27.94L168.03,26.65C168.63,27.07 169.3,27.3 169.97,27.3C170.74,27.3 171.29,26.95 171.29,26.36C171.29,25.71 170.77,25.44 170.12,25.44C169.75,25.44 169.5,25.49 169.15,25.59L168.78,25.04L169.38,23.3C165.24,22.93 162.33,19.45 162.33,14.39C162.33,9.05 165.56,5.46 170.1,5.46C173.2,5.46 175.88,7 177,10.52L174.89,11.29C173.97,8.61 172.33,7.44 170.1,7.44C166.77,7.44 164.57,10.05 164.57,14.39C164.57,18.73 166.78,21.34 170.1,21.34C172.38,21.34 174.05,20.22 175.01,17.49L177.12,18.26L177.11,18.26Z" style="fill:white;fill-rule:nonzero;"/>
                <path d="M191.76,23.08L190.37,19.11L182.26,19.11L180.87,23.08L178.59,23.08L184.82,5.71L187.9,5.71L194.15,23.08L191.76,23.08ZM184.19,4.1L182.63,4.1L182.63,3.38C182.63,1.3 183.7,0.63 184.64,0.63C186.15,0.63 186.95,2.24 187.79,2.24C188.29,2.24 188.51,1.64 188.51,0.63L190.07,0.63L190.07,1.4C190.07,3.56 189,4.1 188.06,4.1C186.52,4.1 185.75,2.49 184.91,2.49C184.49,2.49 184.19,2.86 184.19,4.1ZM182.9,17.25L189.72,17.25L186.37,7.65L186.25,7.65L182.9,17.25Z" style="fill:white;fill-rule:nonzero;"/>
                <path d="M195.55,14.39C195.55,9.05 198.78,5.46 203.32,5.46C207.86,5.46 211.06,9.03 211.06,14.39C211.06,19.75 207.86,23.32 203.32,23.32C198.78,23.32 195.55,19.72 195.55,14.39ZM208.83,14.39C208.83,10.05 206.65,7.44 203.32,7.44C199.99,7.44 197.79,10.05 197.79,14.39C197.79,18.73 200,21.34 203.32,21.34C206.64,21.34 208.83,18.73 208.83,14.39Z" style="fill:white;fill-rule:nonzero;"/>
            </g>
        </g>
        <g transform="matrix(1,0,0,1,562,422)">
            <path d="M2.24,42.7L27.05,42.7L29.92,77.98L30.17,77.98L33.16,42.7L60.09,42.7L60.09,128.71L43.01,128.71L43.01,57.28L42.76,57.28L36.4,128.71L23.44,128.71L17.08,57.28L16.83,57.28L16.83,128.71L2.24,128.71L2.24,42.7Z" style="fill:rgb(252,227,0);fill-rule:nonzero;"/>
            <path d="M64.57,42.7L97.98,42.7L97.98,56.91L81.9,56.91L81.9,75.36L95.74,75.36L95.74,89.57L81.9,89.57L81.9,114.5L97.98,114.5L97.98,128.71L64.57,128.71L64.57,42.7Z" style="fill:rgb(252,227,0);fill-rule:nonzero;"/>
            <path d="M100.72,42.7L120.17,42.7C133.01,42.7 139.49,49.31 139.49,62.15L139.49,109.27C139.49,122.11 133.01,128.72 120.17,128.72L100.72,128.72L100.72,42.7ZM118.67,114.5C121.54,114.5 122.16,113.5 122.16,109.39L122.16,62.02C122.16,57.91 121.54,56.91 118.67,56.91L118.05,56.91L118.05,114.5L118.67,114.5Z" style="fill:rgb(252,227,0);fill-rule:nonzero;"/>
            <rect x="143.22" y="42.7" width="17.33" height="86.01" style="fill:rgb(252,227,0);fill-rule:nonzero;"/>
            <path d="M164.41,110.76L164.41,60.65C164.41,48.81 171.52,41.45 183.11,41.45C194.7,41.45 202.31,48.8 202.31,60.65L202.31,75.11L185.36,75.11L185.36,59.15C185.36,56.78 184.86,55.91 183.61,55.91C182.11,55.91 181.74,56.78 181.74,59.15L181.74,112.25C181.74,114.62 182.11,115.49 183.61,115.49C184.86,115.49 185.36,114.62 185.36,112.25L185.36,92.68L202.31,92.68L202.31,110.76C202.31,122.6 195.08,129.96 183.11,129.96C171.14,129.96 164.41,122.61 164.41,110.76Z" style="fill:rgb(252,227,0);fill-rule:nonzero;"/>
            <rect x="205.42" y="42.7" width="17.33" height="86.01" style="fill:rgb(252,227,0);fill-rule:nonzero;"/>
            <path d="M227.23,42.7L248.18,42.7L254.16,88.45L254.41,88.45L254.41,42.7L268.87,42.7L268.87,128.71L248.92,128.71L241.94,75.36L241.69,75.36L241.69,128.71L227.23,128.71L227.23,42.7Z" style="fill:rgb(252,227,0);fill-rule:nonzero;"/>
            <path d="M279.47,42.7L303.9,42.7L312.38,128.71L294.8,128.71L293.93,113L288.44,113L287.57,128.71L270.99,128.71L279.47,42.7ZM293.43,98.8L291.31,56.92L291.06,56.92L288.94,98.8L293.43,98.8Z" style="fill:rgb(252,227,0);fill-rule:nonzero;"/>
            <path d="M331.69,42.7L351.14,42.7C363.98,42.7 370.46,49.31 370.46,62.15L370.46,109.27C370.46,122.11 363.98,128.72 351.14,128.72L331.69,128.72L331.69,42.7ZM349.64,114.5C352.51,114.5 353.13,113.5 353.13,109.39L353.13,62.02C353.13,57.91 352.51,56.91 349.64,56.91L349.02,56.91L349.02,114.5L349.64,114.5Z" style="fill:rgb(252,227,0);fill-rule:nonzero;"/>
            <path d="M374.2,42.7L407.61,42.7L407.61,56.91L391.53,56.91L391.53,75.36L405.37,75.36L405.37,89.57L391.53,89.57L391.53,114.5L407.61,114.5L407.61,128.71L374.2,128.71L374.2,42.7Z" style="fill:rgb(252,227,0);fill-rule:nonzero;"/>
            <path d="M433.65,42.7L458.08,42.7L466.56,128.71L448.98,128.71L448.11,113L442.62,113L441.75,128.71L425.17,128.71L433.65,42.7ZM447.61,98.8L445.49,56.92L445.24,56.92L443.12,98.8L447.61,98.8Z" style="fill:rgb(252,227,0);fill-rule:nonzero;"/>
            <path d="M468.68,42.7L489.62,42.7L495.6,88.45L495.85,88.45L495.85,42.7L510.31,42.7L510.31,128.71L490.37,128.71L483.39,75.36L483.14,75.36L483.14,128.71L468.68,128.71L468.68,42.7Z" style="fill:rgb(252,227,0);fill-rule:nonzero;"/>
            <rect x="514.8" y="42.7" width="17.33" height="86.01" style="fill:rgb(252,227,0);fill-rule:nonzero;"/>
            <path d="M536.61,42.7L561.42,42.7L564.29,77.98L564.54,77.98L567.53,42.7L594.46,42.7L594.46,128.71L577.38,128.71L577.38,57.28L577.13,57.28L570.77,128.71L557.81,128.71L551.45,57.28L551.2,57.28L551.2,128.71L536.61,128.71L536.61,42.7Z" style="fill:rgb(252,227,0);fill-rule:nonzero;"/>
            <path d="M605.05,42.7L629.48,42.7L637.96,128.71L620.38,128.71L619.51,113L614.02,113L613.15,128.71L596.57,128.71L605.05,42.7ZM619.01,98.8L616.89,56.92L616.64,56.92L614.52,98.8L619.01,98.8Z" style="fill:rgb(252,227,0);fill-rule:nonzero;"/>
            <rect x="640.07" y="42.7" width="17.33" height="86.01" style="fill:rgb(252,227,0);fill-rule:nonzero;"/>
            <path d="M660.51,110.26L660.51,96.55L677.46,96.55L677.46,111.88C677.46,114.5 678.08,115.49 679.7,115.49C681.2,115.49 681.69,114.49 681.69,111.88L681.69,99.41C681.69,96.92 680.69,94.92 678.32,93.43L671.21,88.57C663.73,83.58 660.49,77.97 660.49,69.12L660.49,60.64C660.49,48.8 667.6,41.44 679.06,41.44C690.52,41.44 698.13,48.79 698.13,60.64L698.13,71.24L681.18,71.24L681.18,58.9C681.18,56.78 680.68,55.91 679.56,55.91C678.19,55.91 677.82,56.78 677.82,58.9L677.82,68.62C677.82,71.11 678.82,73.11 681.19,74.6L688.42,79.46C695.77,84.45 699.02,90.06 699.02,98.91L699.02,110.25C699.02,122.47 692.04,129.95 679.82,129.95C667.6,129.95 660.5,122.47 660.5,110.25L660.51,110.26Z" style="fill:rgb(252,227,0);fill-rule:nonzero;"/>
        </g>
        <g transform="matrix(1,0,0,1,562,422)">
            <path d="M2.13,182.21L5.58,180.97C6.94,184.55 10.4,186.04 13.72,186.04C18.11,186.04 20.28,183.95 20.28,181.18C20.28,173.64 2.76,177.9 2.76,166.35C2.76,161.75 6.64,158.59 12.86,158.59C17.85,158.59 21.85,160.76 23.43,165.24L19.98,166.48C18.74,163.16 15.85,161.83 12.86,161.83C8.77,161.83 6.55,163.83 6.55,166.35C6.55,173.77 24.07,169.5 24.07,181.18C24.07,186.12 20.06,189.28 13.71,189.28C8.38,189.28 3.82,186.98 2.12,182.2L2.13,182.21Z" style="fill:white;fill-rule:nonzero;"/>
            <path d="M28,161.36C28,159.78 29.28,158.59 30.9,158.59C32.52,158.59 33.76,159.78 33.76,161.36C33.76,162.94 32.52,164.13 30.9,164.13C29.28,164.13 28,162.94 28,161.36ZM28.98,188.85L28.98,167.11L32.82,167.11L32.82,188.85L28.98,188.85Z" style="fill:white;fill-rule:nonzero;"/>
            <rect x="38.79" y="159.02" width="3.84" height="29.84" style="fill:white;fill-rule:nonzero;"/>
            <path d="M54.17,188.86L46.33,167.12L50.42,167.12L56.52,185.11L56.73,185.11L62.78,167.12L66.79,167.12L58.95,188.86L54.17,188.86Z" style="fill:white;fill-rule:nonzero;"/>
            <path d="M89.08,179.31L73.1,179.31C73.48,183.44 75.96,186.09 79.62,186.09C82.09,186.09 83.93,185.02 85.2,182.47L88.61,183.71C87.08,187.42 83.88,189.29 79.62,189.29C73.14,189.29 69.18,184.35 69.18,177.99C69.18,171.63 73.1,166.69 79.58,166.69C85.29,166.69 89.21,170.65 89.21,177.43C89.21,178.07 89.17,178.75 89.08,179.31ZM73.13,176.24L85.54,176.24C85.2,172.19 82.85,169.89 79.57,169.89C76.03,169.89 73.64,172.32 73.13,176.24Z" style="fill:white;fill-rule:nonzero;"/>
            <path d="M92.92,183.7L96.16,182.55C97.01,185.24 99.61,186.3 101.96,186.3C104.77,186.3 106.26,184.98 106.26,183.15C106.26,178.04 93.43,181.57 93.43,172.62C93.43,169.17 96.41,166.7 101.23,166.7C105.11,166.7 108.39,168.36 109.46,171.86L106.22,173.01C105.41,170.62 103.41,169.69 101.23,169.69C98.5,169.69 97.14,171.01 97.14,172.63C97.14,177.83 109.97,174.29 109.97,183.16C109.97,186.87 106.77,189.3 101.96,189.3C98.08,189.3 94.16,187.77 92.92,183.72L92.92,183.7Z" style="fill:white;fill-rule:nonzero;"/>
            <path d="M124.63,188.86C120.11,188.86 117.21,186.47 117.21,181.53L117.21,170.32L112.95,170.32L112.95,167.12L117.51,167.12L118.45,161.15L121.05,161.15L121.05,167.12L127.44,167.12L127.44,170.32L121.05,170.32L121.05,181.4C121.05,184.26 122.41,185.45 124.84,185.45L127.44,185.45L127.44,188.86L124.63,188.86Z" style="fill:white;fill-rule:nonzero;"/>
            <path d="M145.13,166.73L145.13,170.35C144.45,170.31 144.11,170.31 143.51,170.31C140.1,170.31 136.39,172.4 136.39,178.88L136.39,188.85L132.55,188.85L132.55,178.71C132.55,174.83 132.55,170.99 132.34,167.12L135.96,167.12L136.47,171.38L136.73,171.38C138.01,168.31 140.4,166.69 143.42,166.69C144.02,166.69 144.4,166.69 145.13,166.73Z" style="fill:white;fill-rule:nonzero;"/>
            <path d="M167.8,179.31L151.82,179.31C152.2,183.44 154.68,186.09 158.34,186.09C160.81,186.09 162.65,185.02 163.92,182.47L167.33,183.71C165.8,187.42 162.6,189.29 158.34,189.29C151.86,189.29 147.9,184.35 147.9,177.99C147.9,171.63 151.82,166.69 158.3,166.69C164.01,166.69 167.93,170.65 167.93,177.43C167.93,178.07 167.89,178.75 167.8,179.31ZM151.85,176.24L164.26,176.24C163.92,172.19 161.57,169.89 158.29,169.89C154.75,169.89 152.36,172.32 151.85,176.24Z" style="fill:white;fill-rule:nonzero;"/>
            <path d="M171.64,183.7L174.88,182.55C175.73,185.24 178.33,186.3 180.68,186.3C183.49,186.3 184.98,184.98 184.98,183.15C184.98,178.04 172.15,181.57 172.15,172.62C172.15,169.17 175.13,166.7 179.95,166.7C183.83,166.7 187.11,168.36 188.18,171.86L184.94,173.01C184.13,170.62 182.13,169.69 179.95,169.69C177.22,169.69 175.86,171.01 175.86,172.63C175.86,177.83 188.69,174.29 188.69,183.16C188.69,186.87 185.49,189.3 180.68,189.3C176.8,189.3 172.88,187.77 171.64,183.72L171.64,183.7Z" style="fill:white;fill-rule:nonzero;"/>
            <path d="M222.87,179.31L206.89,179.31C207.27,183.44 209.75,186.09 213.41,186.09C215.88,186.09 217.72,185.02 218.99,182.47L222.4,183.71C220.87,187.42 217.67,189.29 213.41,189.29C206.93,189.29 202.97,184.35 202.97,177.99C202.97,171.63 206.89,166.69 213.37,166.69C219.08,166.69 223,170.65 223,177.43C223,178.07 222.96,178.75 222.87,179.31ZM206.92,176.24L219.33,176.24C218.99,172.19 216.64,169.89 213.36,169.89C209.82,169.89 207.43,172.32 206.92,176.24Z" style="fill:white;fill-rule:nonzero;"/>
            <path d="M238.64,188.86L238.64,159.02L258.46,159.02L258.46,162.43L242.48,162.43L242.48,171.81L256.76,171.81L256.76,175.22L242.48,175.22L242.48,185.45L258.46,185.45L258.46,188.86L238.64,188.86Z" style="fill:white;fill-rule:nonzero;"/>
            <path d="M261.78,188.86L269.07,177.78L262.21,167.12L266.6,167.12L271.76,175.69L271.97,175.69L277.13,167.12L281.39,167.12L274.53,177.82L281.82,188.86L277.39,188.86L271.89,180.04L271.68,180.04L266.1,188.86L261.78,188.86Z" style="fill:white;fill-rule:nonzero;"/>
            <path d="M284.07,177.99C284.07,171.64 288.03,166.69 294.51,166.69C300.99,166.69 304.95,171.63 304.95,177.99C304.95,184.35 300.99,189.29 294.51,189.29C288.03,189.29 284.07,184.35 284.07,177.99ZM301.12,177.99C301.12,173.22 298.48,170.1 294.51,170.1C290.54,170.1 287.9,173.21 287.9,177.99C287.9,182.77 290.54,185.88 294.51,185.88C298.48,185.88 301.12,182.77 301.12,177.99ZM292.81,164.14L295.41,158.6L300.7,158.6L296.35,164.14L292.81,164.14Z" style="fill:white;fill-rule:nonzero;"/>
            <path d="M319.54,188.86C315.02,188.86 312.12,186.47 312.12,181.53L312.12,170.32L307.86,170.32L307.86,167.12L312.42,167.12L313.36,161.15L315.96,161.15L315.96,167.12L322.35,167.12L322.35,170.32L315.96,170.32L315.96,181.4C315.96,184.26 317.32,185.45 319.75,185.45L322.35,185.45L322.35,188.86L319.54,188.86Z" style="fill:white;fill-rule:nonzero;"/>
            <path d="M326.48,161.36C326.48,159.78 327.76,158.59 329.38,158.59C331,158.59 332.24,159.78 332.24,161.36C332.24,162.94 331,164.13 329.38,164.13C327.76,164.13 326.48,162.94 326.48,161.36ZM327.46,188.85L327.46,167.11L331.3,167.11L331.3,188.85L327.46,188.85Z" style="fill:white;fill-rule:nonzero;"/>
            <path d="M336.2,177.99C336.2,171.64 340.16,166.69 346.64,166.69C350.95,166.69 354.44,168.78 355.85,173.25L352.18,174.57C351.07,171.46 349.15,170.09 346.64,170.09C342.68,170.09 340.03,173.2 340.03,177.98C340.03,182.76 342.67,185.87 346.64,185.87C349.16,185.87 351.2,184.51 352.39,181.39L356.06,182.71C354.61,187.14 350.82,189.27 346.64,189.27C340.16,189.27 336.2,184.33 336.2,177.97L336.2,177.99Z" style="fill:white;fill-rule:nonzero;"/>
            <path d="M359.52,177.99C359.52,171.64 363.48,166.69 369.96,166.69C376.44,166.69 380.4,171.63 380.4,177.99C380.4,184.35 376.44,189.29 369.96,189.29C363.48,189.29 359.52,184.35 359.52,177.99ZM376.57,177.99C376.57,173.22 373.93,170.1 369.96,170.1C365.99,170.1 363.35,173.21 363.35,177.99C363.35,182.77 365.99,185.88 369.96,185.88C373.93,185.88 376.57,182.77 376.57,177.99Z" style="fill:white;fill-rule:nonzero;"/>
            <path d="M384.24,183.7L387.48,182.55C388.33,185.24 390.93,186.3 393.28,186.3C396.09,186.3 397.58,184.98 397.58,183.15C397.58,178.04 384.75,181.57 384.75,172.62C384.75,169.17 387.73,166.7 392.55,166.7C396.43,166.7 399.71,168.36 400.78,171.86L397.54,173.01C396.73,170.62 394.73,169.69 392.55,169.69C389.82,169.69 388.46,171.01 388.46,172.63C388.46,177.83 401.29,174.29 401.29,183.16C401.29,186.87 398.09,189.3 393.28,189.3C389.4,189.3 385.48,187.77 384.24,183.72L384.24,183.7Z" style="fill:white;fill-rule:nonzero;"/>
        </g>
    </g>
</svg>
