<?xml version="1.0" encoding="UTF-8" standalone="no"?>
<!DOCTYPE svg PUBLIC "-//W3C//DTD SVG 1.1//EN" "http://www.w3.org/Graphics/SVG/1.1/DTD/svg11.dtd">
<svg width="100%" height="100%" viewBox="0 0 1045 428" version="1.1" xmlns="http://www.w3.org/2000/svg" xmlns:xlink="http://www.w3.org/1999/xlink" xml:space="preserve" xmlns:serif="http://www.serif.com/" style="fill-rule:evenodd;clip-rule:evenodd;stroke-linejoin:round;stroke-miterlimit:2;">
    <g transform="matrix(1,0,0,1,-15469,-8751.73)">
        <g transform="matrix(1,0,0,1,10261,4802)">
            <path d="M5212.38,4032.58L5250.11,4032.58C5275.02,4032.58 5287.6,4045.4 5287.6,4070.31L5287.6,4091.59C5287.6,4116.5 5275.02,4129.32 5250.11,4129.32L5246,4129.32L5246,4199.46L5212.38,4199.46L5212.38,4032.58ZM5247.21,4101.76C5252.77,4101.76 5253.98,4099.58 5253.98,4091.6L5253.98,4070.07C5253.98,4062.09 5252.77,4060.15 5247.21,4060.15L5246,4060.15L5246,4101.75L5247.21,4101.75L5247.21,4101.76Z" style="fill:rgb(252,227,0);fill-rule:nonzero;"/>
            <path d="M5291.22,4163.67L5291.22,4137.06L5324.11,4137.06L5324.11,4166.81C5324.11,4171.89 5325.32,4173.82 5328.46,4173.82C5331.36,4173.82 5332.33,4171.88 5332.33,4166.81L5332.33,4142.62C5332.33,4137.78 5330.4,4133.91 5325.8,4131.01L5312.01,4121.58C5297.5,4111.91 5291.21,4101.02 5291.21,4083.85L5291.21,4067.4C5291.21,4044.42 5305,4030.15 5327.25,4030.15C5350.23,4030.15 5364.26,4044.42 5364.26,4067.4L5364.26,4087.96L5331.37,4087.96L5331.37,4064.01C5331.37,4059.9 5330.4,4058.21 5328.23,4058.21C5325.57,4058.21 5324.84,4059.9 5324.84,4064.01L5324.84,4082.88C5324.84,4087.72 5326.77,4091.59 5331.37,4094.49L5345.4,4103.92C5359.67,4113.59 5365.96,4124.48 5365.96,4141.65L5365.96,4163.66C5365.96,4187.36 5352.42,4201.87 5328.71,4201.87C5305.25,4201.89 5291.22,4187.38 5291.22,4163.67Z" style="fill:rgb(252,227,0);fill-rule:nonzero;"/>
            <rect x="5371.52" y="4032.58" width="33.62" height="166.89" style="fill:rgb(252,227,0);fill-rule:nonzero;"/>
            <path d="M5412.63,4164.64L5412.63,4067.41C5412.63,4044.43 5426.42,4030.16 5448.91,4030.16C5472.13,4030.16 5486.16,4044.43 5486.16,4067.41L5486.16,4095.47L5453.27,4095.47L5453.27,4064.51C5453.27,4059.91 5452.3,4058.22 5449.88,4058.22C5446.98,4058.22 5446.25,4059.91 5446.25,4064.51L5446.25,4167.55C5446.25,4172.15 5446.98,4173.84 5449.88,4173.84C5452.3,4173.84 5453.27,4172.15 5453.27,4167.55L5453.27,4129.58L5486.16,4129.58L5486.16,4164.65C5486.16,4187.63 5472.13,4201.9 5448.91,4201.9C5426.42,4201.89 5412.63,4187.62 5412.63,4164.64Z" style="fill:rgb(252,227,0);fill-rule:nonzero;"/>
            <path d="M5491,4163.19L5491,4068.86C5491,4044.91 5505.75,4030.16 5528.73,4030.16C5551.95,4030.16 5566.22,4044.91 5566.22,4068.86L5566.22,4163.19C5566.22,4187.13 5551.95,4201.89 5528.73,4201.89C5505.75,4201.89 5491,4187.13 5491,4163.19ZM5532.6,4166.82L5532.6,4065.24C5532.6,4060.16 5531.63,4058.23 5528.73,4058.23C5525.59,4058.23 5524.62,4060.17 5524.62,4065.24L5524.62,4166.82C5524.62,4171.9 5525.59,4173.83 5528.73,4173.83C5531.63,4173.83 5532.6,4171.9 5532.6,4166.82Z" style="fill:rgb(252,227,0);fill-rule:nonzero;"/>
            <path d="M5573.71,4032.58L5611.44,4032.58C5636.35,4032.58 5648.93,4045.4 5648.93,4070.31L5648.93,4091.59C5648.93,4116.5 5636.35,4129.32 5611.44,4129.32L5607.33,4129.32L5607.33,4199.46L5573.71,4199.46L5573.71,4032.58ZM5608.54,4101.76C5614.1,4101.76 5615.31,4099.58 5615.31,4091.6L5615.31,4070.07C5615.31,4062.09 5614.1,4060.15 5608.54,4060.15L5607.33,4060.15L5607.33,4101.75L5608.54,4101.75L5608.54,4101.76Z" style="fill:rgb(252,227,0);fill-rule:nonzero;"/>
            <path d="M5653.52,4032.58L5718.34,4032.58L5718.34,4060.15L5687.14,4060.15L5687.14,4095.95L5713.99,4095.95L5713.99,4123.52L5687.14,4123.52L5687.14,4171.89L5718.34,4171.89L5718.34,4199.46L5653.52,4199.46L5653.52,4032.58Z" style="fill:rgb(252,227,0);fill-rule:nonzero;"/>
            <path d="M5723.66,4032.58L5761.39,4032.58C5786.3,4032.58 5798.88,4045.4 5798.88,4070.31L5798.88,4161.74C5798.88,4186.65 5786.3,4199.47 5761.39,4199.47L5723.66,4199.47L5723.66,4032.58ZM5758.49,4171.9C5764.05,4171.9 5765.26,4169.96 5765.26,4161.98L5765.26,4070.07C5765.26,4062.09 5764.05,4060.15 5758.49,4060.15L5757.28,4060.15L5757.28,4171.89L5758.49,4171.89L5758.49,4171.9Z" style="fill:rgb(252,227,0);fill-rule:nonzero;"/>
            <path d="M5817.5,4032.58L5864.91,4032.58L5881.36,4199.47L5847.26,4199.47L5845.57,4169L5834.93,4169L5833.24,4199.47L5801.07,4199.47L5817.5,4032.58ZM5844.58,4141.42L5840.47,4060.15L5839.99,4060.15L5835.88,4141.42L5844.58,4141.42Z" style="fill:rgb(252,227,0);fill-rule:nonzero;"/>
            <path d="M5884,4171.17L5884,4068.62C5884,4044.92 5898.75,4030.16 5921.49,4030.16C5944.23,4030.16 5958.49,4044.91 5958.49,4068.62L5958.49,4087L5925.6,4087L5925.6,4065.23C5925.6,4060.15 5924.63,4058.22 5921.73,4058.22C5918.59,4058.22 5917.62,4060.16 5917.62,4065.23L5917.62,4169.23C5917.62,4171.89 5918.35,4173.83 5921.25,4173.83C5925.12,4173.83 5926.09,4170.93 5926.09,4162.7L5926.09,4130.77L5921.98,4130.77L5921.98,4102.96L5958.99,4102.96L5958.99,4199.46L5930.21,4199.46L5930.21,4187.13L5929.24,4187.13C5925.61,4197.05 5918.6,4201.88 5907.71,4201.88C5892.71,4201.89 5884,4190.28 5884,4171.17Z" style="fill:rgb(252,227,0);fill-rule:nonzero;"/>
            <path d="M5965.51,4163.19L5965.51,4068.86C5965.51,4044.91 5980.26,4030.16 6003.24,4030.16C6026.46,4030.16 6040.73,4044.91 6040.73,4068.86L6040.73,4163.19C6040.73,4187.13 6026.46,4201.89 6003.24,4201.89C5980.26,4201.89 5965.51,4187.13 5965.51,4163.19ZM6007.11,4166.82L6007.11,4065.24C6007.11,4060.16 6006.14,4058.23 6003.24,4058.23C6000.1,4058.23 5999.13,4060.17 5999.13,4065.24L5999.13,4166.82C5999.13,4171.9 6000.1,4173.83 6003.24,4173.83C6006.14,4173.83 6007.11,4171.9 6007.11,4166.82Z" style="fill:rgb(252,227,0);fill-rule:nonzero;"/>
            <path d="M6047.26,4171.17L6047.26,4068.62C6047.26,4044.92 6062.01,4030.16 6084.75,4030.16C6107.49,4030.16 6121.75,4044.91 6121.75,4068.62L6121.75,4087L6088.86,4087L6088.86,4065.23C6088.86,4060.15 6087.89,4058.22 6084.99,4058.22C6081.85,4058.22 6080.88,4060.16 6080.88,4065.23L6080.88,4169.23C6080.88,4171.89 6081.61,4173.83 6084.51,4173.83C6088.38,4173.83 6089.35,4170.93 6089.35,4162.7L6089.35,4130.77L6085.24,4130.77L6085.24,4102.96L6122.25,4102.96L6122.25,4199.46L6093.47,4199.46L6093.47,4187.13L6092.5,4187.13C6088.87,4197.05 6081.86,4201.88 6070.97,4201.88C6055.96,4201.89 6047.26,4190.28 6047.26,4171.17Z" style="fill:rgb(252,227,0);fill-rule:nonzero;"/>
            <rect x="6129.97" y="4032.58" width="33.62" height="166.89" style="fill:rgb(252,227,0);fill-rule:nonzero;"/>
            <path d="M6184.15,4032.58L6231.56,4032.58L6248.01,4199.47L6213.91,4199.47L6212.22,4169L6201.58,4169L6199.89,4199.47L6167.72,4199.47L6184.15,4032.58ZM6211.24,4141.42L6207.13,4060.15L6206.65,4060.15L6202.54,4141.42L6211.24,4141.42Z" style="fill:rgb(252,227,0);fill-rule:nonzero;"/>
        </g>
        <g transform="matrix(1,0,0,1,10261,4802)">
            <g>
                <path d="M5211.53,4240.94L5263.62,4240.94L5263.62,4263.1L5238.55,4263.1L5238.55,4291.87L5260.12,4291.87L5260.12,4314.03L5238.55,4314.03L5238.55,4352.9L5263.62,4352.9L5263.62,4375.06L5211.53,4375.06L5211.53,4240.94Z" style="fill:white;fill-rule:nonzero;"/>
                <path d="M5294.71,4240.94L5325.03,4240.94C5345.05,4240.94 5355.16,4251.24 5355.16,4271.26L5355.16,4288.36C5355.16,4308.38 5345.05,4318.68 5325.03,4318.68L5321.73,4318.68L5321.73,4375.05L5294.71,4375.05L5294.71,4240.94ZM5322.7,4296.53C5327.17,4296.53 5328.14,4294.78 5328.14,4288.37L5328.14,4271.07C5328.14,4264.66 5327.17,4263.1 5322.7,4263.1L5321.73,4263.1L5321.73,4296.53L5322.7,4296.53Z" style="fill:white;fill-rule:nonzero;"/>
                <path d="M5358.07,4346.29L5358.07,4324.91L5384.5,4324.91L5384.5,4348.82C5384.5,4352.9 5385.47,4354.46 5388,4354.46C5390.33,4354.46 5391.11,4352.9 5391.11,4348.82L5391.11,4329.38C5391.11,4325.49 5389.56,4322.38 5385.86,4320.05L5374.78,4312.47C5363.12,4304.7 5358.06,4295.95 5358.06,4282.15L5358.06,4268.93C5358.06,4250.47 5369.14,4239 5387.02,4239C5405.48,4239 5416.76,4250.47 5416.76,4268.93L5416.76,4285.45L5390.33,4285.45L5390.33,4266.21C5390.33,4262.91 5389.55,4261.55 5387.8,4261.55C5385.66,4261.55 5385.08,4262.91 5385.08,4266.21L5385.08,4281.37C5385.08,4285.26 5386.64,4288.37 5390.33,4290.7L5401.6,4298.28C5413.07,4306.05 5418.12,4314.8 5418.12,4328.6L5418.12,4346.29C5418.12,4365.34 5407.24,4377 5388.19,4377C5369.35,4377 5358.07,4365.33 5358.07,4346.29Z" style="fill:white;fill-rule:nonzero;"/>
                <rect x="5422.6" y="4240.94" width="27.02" height="134.11" style="fill:white;fill-rule:nonzero;"/>
                <path d="M5455.64,4347.06L5455.64,4268.92C5455.64,4250.46 5466.72,4238.99 5484.79,4238.99C5503.45,4238.99 5514.72,4250.46 5514.72,4268.92L5514.72,4291.47L5488.29,4291.47L5488.29,4266.59C5488.29,4262.9 5487.51,4261.54 5485.57,4261.54C5483.24,4261.54 5482.65,4262.9 5482.65,4266.59L5482.65,4349.39C5482.65,4353.08 5483.23,4354.44 5485.57,4354.44C5487.51,4354.44 5488.29,4353.08 5488.29,4349.39L5488.29,4318.87L5514.72,4318.87L5514.72,4347.05C5514.72,4365.51 5503.45,4376.98 5484.79,4376.98C5466.72,4377 5455.64,4365.53 5455.64,4347.06Z" style="fill:white;fill-rule:nonzero;"/>
                <path d="M5518.62,4345.9L5518.62,4270.1C5518.62,4250.86 5530.48,4239 5548.94,4239C5567.6,4239 5579.07,4250.86 5579.07,4270.1L5579.07,4345.9C5579.07,4365.14 5567.6,4377 5548.94,4377C5530.47,4377 5518.62,4365.14 5518.62,4345.9ZM5552.05,4348.81L5552.05,4267.18C5552.05,4263.1 5551.27,4261.54 5548.94,4261.54C5546.41,4261.54 5545.64,4263.09 5545.64,4267.18L5545.64,4348.81C5545.64,4352.89 5546.42,4354.45 5548.94,4354.45C5551.27,4354.45 5552.05,4352.89 5552.05,4348.81Z" style="fill:white;fill-rule:nonzero;"/>
                <path d="M5585.09,4240.94L5623.77,4240.94L5628.24,4295.95L5628.63,4295.95L5633.3,4240.94L5675.28,4240.94L5675.28,4375.05L5648.65,4375.05L5648.65,4263.68L5648.26,4263.68L5638.35,4375.05L5618.14,4375.05L5608.23,4263.68L5607.84,4263.68L5607.84,4375.05L5585.1,4375.05L5585.1,4240.94L5585.09,4240.94Z" style="fill:white;fill-rule:nonzero;"/>
                <path d="M5681.3,4345.9L5681.3,4270.1C5681.3,4250.86 5693.16,4239 5711.62,4239C5730.28,4239 5741.75,4250.86 5741.75,4270.1L5741.75,4345.9C5741.75,4365.14 5730.28,4377 5711.62,4377C5693.16,4377 5681.3,4365.14 5681.3,4345.9ZM5714.73,4348.81L5714.73,4267.18C5714.73,4263.1 5713.95,4261.54 5711.62,4261.54C5709.09,4261.54 5708.32,4263.09 5708.32,4267.18L5708.32,4348.81C5708.32,4352.89 5709.1,4354.45 5711.62,4354.45C5713.95,4354.45 5714.73,4352.89 5714.73,4348.81Z" style="fill:white;fill-rule:nonzero;"/>
                <path d="M5760.6,4263.1L5744.27,4263.1L5744.27,4240.94L5803.94,4240.94L5803.94,4263.1L5787.61,4263.1L5787.61,4375.06L5760.59,4375.06L5760.59,4263.1L5760.6,4263.1Z" style="fill:white;fill-rule:nonzero;"/>
                <path d="M5807.05,4240.94L5837.18,4240.94C5857.2,4240.94 5867.31,4251.24 5867.31,4271.26L5867.31,4280.2C5867.31,4292.45 5863.62,4300.03 5856.04,4303.91L5856.04,4304.3C5863.62,4307.99 5867.31,4315.57 5867.31,4327.82L5867.31,4375.05L5840.29,4375.05L5840.29,4324.51C5840.29,4318.1 5838.35,4316.74 5834.26,4316.74L5834.07,4316.74L5834.07,4375.05L5807.05,4375.05L5807.05,4240.94ZM5834.85,4294.58C5839.13,4294.58 5840.29,4292.83 5840.29,4286.42L5840.29,4271.06C5840.29,4264.65 5839.12,4263.09 5834.85,4263.09L5834.07,4263.09L5834.07,4294.58L5834.85,4294.58Z" style="fill:white;fill-rule:nonzero;"/>
                <rect x="5873.14" y="4240.94" width="27.02" height="134.11" style="fill:white;fill-rule:nonzero;"/>
                <path d="M5906.18,4347.06L5906.18,4268.92C5906.18,4250.46 5917.26,4238.99 5935.33,4238.99C5953.99,4238.99 5965.26,4250.46 5965.26,4268.92L5965.26,4291.47L5938.83,4291.47L5938.83,4266.59C5938.83,4262.9 5938.05,4261.54 5936.11,4261.54C5933.78,4261.54 5933.19,4262.9 5933.19,4266.59L5933.19,4349.39C5933.19,4353.08 5933.77,4354.44 5936.11,4354.44C5938.05,4354.44 5938.83,4353.08 5938.83,4349.39L5938.83,4318.87L5965.26,4318.87L5965.26,4347.05C5965.26,4365.51 5953.99,4376.98 5935.33,4376.98C5917.26,4377 5906.18,4365.53 5906.18,4347.06Z" style="fill:white;fill-rule:nonzero;"/>
                <rect x="5970.12" y="4240.94" width="27.02" height="134.11" style="fill:white;fill-rule:nonzero;"/>
                <path d="M6004.13,4240.94L6034.45,4240.94C6054.47,4240.94 6064.58,4251.24 6064.58,4271.26L6064.58,4344.73C6064.58,4364.75 6054.47,4375.05 6034.45,4375.05L6004.13,4375.05L6004.13,4240.94ZM6032.12,4352.89C6036.59,4352.89 6037.56,4351.34 6037.56,4344.92L6037.56,4271.06C6037.56,4264.65 6036.59,4263.09 6032.12,4263.09L6031.15,4263.09L6031.15,4352.89L6032.12,4352.89Z" style="fill:white;fill-rule:nonzero;"/>
                <path d="M6079.55,4240.94L6117.65,4240.94L6130.87,4375.05L6103.46,4375.05L6102.1,4350.56L6093.55,4350.56L6092.19,4375.05L6066.34,4375.05L6079.55,4240.94ZM6101.31,4328.4L6098.01,4263.09L6097.62,4263.09L6094.32,4328.4L6101.31,4328.4Z" style="fill:white;fill-rule:nonzero;"/>
                <path d="M6134.16,4240.94L6164.48,4240.94C6184.5,4240.94 6194.61,4251.24 6194.61,4271.26L6194.61,4344.73C6194.61,4364.75 6184.5,4375.05 6164.48,4375.05L6134.16,4375.05L6134.16,4240.94ZM6162.15,4352.89C6166.62,4352.89 6167.59,4351.34 6167.59,4344.92L6167.59,4271.06C6167.59,4264.65 6166.62,4263.09 6162.15,4263.09L6161.18,4263.09L6161.18,4352.89L6162.15,4352.89Z" style="fill:white;fill-rule:nonzero;"/>
                <path d="M6200.44,4240.94L6252.53,4240.94L6252.53,4263.1L6227.46,4263.1L6227.46,4291.87L6249.03,4291.87L6249.03,4314.03L6227.46,4314.03L6227.46,4352.9L6252.53,4352.9L6252.53,4375.06L6200.44,4375.06L6200.44,4240.94Z" style="fill:white;fill-rule:nonzero;"/>
            </g>
        </g>
        <g transform="matrix(1,0,0,1,10261,4802)">
            <g>
                <path d="M5631.73,3994.04L5635.47,3981.11L5651.16,3981.11C5651.81,3981.1 5652.36,3980.67 5652.54,3980.08L5654.34,3974.13L5637.98,3974.15C5637.98,3974.15 5637.66,3974.11 5637.52,3974.36C5637.48,3974.44 5637.26,3974.82 5637.26,3974.82C5637.26,3974.82 5639.05,3968.67 5641.62,3968.67L5654.89,3968.67C5655.54,3968.67 5656.09,3968.24 5656.27,3967.66L5658.49,3960.15L5642.29,3960.13C5637.04,3960.51 5633.2,3964.87 5630.78,3973.21L5624.34,3995.1L5630.32,3995.1C5630.99,3995.1 5631.55,3994.65 5631.73,3994.04Z" style="fill:white;fill-rule:nonzero;"/>
                <path d="M5680.48,3994.25L5672.33,3960.15L5667.51,3960.15C5666.49,3960.15 5666.13,3960.63 5665.91,3961.07L5650.95,3995.09L5656.81,3995.09C5657.97,3995.09 5658.17,3994.58 5658.35,3994.18L5661.77,3986.45L5671.01,3986.41C5672.11,3986.41 5672.42,3987.17 5672.42,3987.17L5674.29,3995.08L5679.22,3995.08C5679.22,3995.1 5680.68,3995.1 5680.48,3994.25ZM5670.19,3981.55L5664.58,3981.55C5664.58,3981.55 5664.33,3981.56 5664.27,3981.56C5664.02,3981.56 5663.74,3982.01 5663.74,3982.01L5668.59,3970.92L5670.96,3980.93C5670.96,3980.95 5671.08,3981.55 5670.19,3981.55Z" style="fill:white;fill-rule:nonzero;"/>
                <path d="M5714.13,3960.15C5712.66,3960.15 5711.88,3960.15 5711.14,3961.77L5701.65,3982.66C5701.65,3982.66 5701.52,3982.92 5701.49,3983.01C5701.3,3983.46 5701.39,3984.09 5701.39,3984.09L5695.38,3960.15L5689.69,3960.15C5688.15,3960.15 5687.03,3960.15 5686.89,3961.96L5683.49,3995.09C5684.22,3995.06 5687.36,3995.09 5687.36,3995.09C5690.01,3995.09 5690.01,3995.09 5690.18,3993.3L5692.18,3973.63L5697.42,3994.61L5699.59,3994.61L5700.67,3994.61C5702.79,3994.61 5702.79,3994.61 5703.45,3993.2L5712.25,3973.77L5710.07,3995.08L5714.14,3995.08C5716.56,3995.08 5716.56,3995.08 5716.77,3993.27L5720.17,3960.14C5717.54,3960.15 5714.13,3960.15 5714.13,3960.15Z" style="fill:white;fill-rule:nonzero;"/>
            </g>
            <g>
                <path d="M5208.03,3994.52L5208.03,3960.81L5222.67,3960.81C5231.19,3960.81 5236.2,3965.29 5236.2,3972.61C5236.2,3979.83 5231.19,3984.17 5222.67,3984.17L5217.66,3984.17L5217.66,3994.52L5208.03,3994.52ZM5217.66,3976.7L5221.85,3976.7C5224.64,3976.7 5226.57,3975.3 5226.57,3972.61C5226.57,3969.91 5224.64,3968.52 5221.85,3968.52L5217.66,3968.52L5217.66,3976.7Z" style="fill:rgb(252,227,0);fill-rule:nonzero;"/>
                <path d="M5238.99,3977.66C5238.99,3967.36 5245.3,3960.33 5255.84,3960.33C5266.38,3960.33 5272.69,3967.31 5272.69,3977.66C5272.69,3988.01 5266.38,3994.99 5255.84,3994.99C5245.3,3994.99 5238.99,3987.97 5238.99,3977.66ZM5263.06,3977.66C5263.06,3971.74 5260.22,3968.27 5255.84,3968.27C5251.46,3968.27 5248.62,3971.74 5248.62,3977.66C5248.62,3983.58 5251.46,3987.05 5255.84,3987.05C5260.22,3987.05 5263.06,3983.58 5263.06,3977.66ZM5252.33,3957.92L5255.8,3949.73L5266.25,3949.73L5259.41,3957.92L5252.33,3957.92Z" style="fill:rgb(252,227,0);fill-rule:nonzero;"/>
                <path d="M5275.97,3985.85L5285.12,3984.02C5286.18,3986.86 5288.54,3987.92 5291.19,3987.92C5293.93,3987.92 5295.52,3986.81 5295.52,3985.03C5295.52,3979.4 5276.74,3983.92 5276.74,3970.06C5276.74,3964.57 5281.6,3960.33 5290.22,3960.33C5297.59,3960.33 5302.84,3963.07 5304.47,3969L5295.13,3970.83C5294.46,3968.47 5292.72,3967.41 5290.27,3967.41C5288.1,3967.41 5286.56,3968.52 5286.56,3970.06C5286.56,3975.74 5305.34,3971.07 5305.34,3985.23C5305.34,3990.82 5300.48,3995 5291.18,3995C5284.06,3995 5277.56,3992.2 5275.97,3985.85Z" style="fill:rgb(252,227,0);fill-rule:nonzero;"/>
                <rect x="5308.09" y="3977.66" width="17.09" height="6.74" style="fill:rgb(252,227,0);fill-rule:nonzero;"/>
                <path d="M5328.79,3977.66C5328.79,3967.31 5335,3960.33 5343.96,3960.33C5350.03,3960.33 5355.03,3963.12 5357.49,3969.33L5353.45,3970.82C5351.57,3966.1 5348.35,3964.03 5343.96,3964.03C5337.51,3964.03 5333.13,3969.18 5333.13,3977.66C5333.13,3986.13 5337.37,3991.29 5344.54,3991.29C5347.91,3991.29 5350.94,3989.85 5352.87,3987.73L5352.87,3980.7L5344.78,3980.31L5344.78,3976.84L5357.2,3976.84L5357.2,3989.07C5354.31,3993.02 5349.69,3994.99 5344.54,3994.99C5335,3995 5328.79,3988.01 5328.79,3977.66Z" style="fill:white;fill-rule:nonzero;"/>
                <path d="M5364.33,3994.52L5364.33,3960.81L5377.33,3960.81C5384.07,3960.81 5388.4,3964.61 5388.4,3971.07C5388.4,3976.03 5385.7,3979.4 5381.27,3980.6L5388.88,3994.52L5383.97,3994.52L5376.99,3981.09L5368.66,3981.09L5368.66,3994.52L5364.33,3994.52ZM5368.66,3977.42L5377.13,3977.42C5381.37,3977.42 5384.06,3975.11 5384.06,3971.06C5384.06,3967.06 5381.36,3964.66 5377.13,3964.66L5368.66,3964.66L5368.66,3977.42Z" style="fill:white;fill-rule:nonzero;"/>
                <path d="M5417.53,3994.51L5414.83,3986.81L5399.09,3986.81L5396.39,3994.51L5391.96,3994.51L5404.05,3960.81L5410.02,3960.81L5422.15,3994.51L5417.53,3994.51ZM5400.34,3983.2L5413.58,3983.2L5407.08,3964.57L5406.84,3964.57L5400.34,3983.2Z" style="fill:white;fill-rule:nonzero;"/>
                <path d="M5426.68,3994.51L5426.68,3960.81L5437.47,3960.81C5447.05,3960.81 5453.41,3967.55 5453.41,3977.66C5453.41,3987.77 5447.05,3994.51 5437.47,3994.51L5426.68,3994.51ZM5431.01,3990.66L5437.46,3990.66C5444.49,3990.66 5449.06,3985.75 5449.06,3977.66C5449.06,3969.57 5444.49,3964.66 5437.46,3964.66L5431.01,3964.66L5431.01,3990.66Z" style="fill:white;fill-rule:nonzero;"/>
                <path d="M5459.52,3980.98L5459.52,3960.81L5463.85,3960.81L5463.85,3980.98C5463.85,3988.44 5468.04,3991.14 5472.66,3991.14C5477.28,3991.14 5481.42,3988.44 5481.42,3980.98L5481.42,3960.81L5485.75,3960.81L5485.75,3980.98C5485.75,3990.56 5479.83,3994.99 5472.65,3994.99C5465.47,3994.99 5459.52,3990.57 5459.52,3980.98Z" style="fill:white;fill-rule:nonzero;"/>
                <path d="M5515.61,3994.51L5512.91,3986.81L5497.17,3986.81L5494.47,3994.51L5490.04,3994.51L5502.13,3960.81L5508.1,3960.81L5520.23,3994.51L5515.61,3994.51ZM5498.42,3983.2L5511.66,3983.2L5505.16,3964.57L5504.92,3964.57L5498.42,3983.2Z" style="fill:white;fill-rule:nonzero;"/>
                <path d="M5551.68,3985.17C5549.56,3991.67 5544.84,3994.61 5539.21,3994.94L5538.63,3996.67L5538.92,3996.67C5541.57,3996.67 5543.73,3998.16 5543.73,4000.96C5543.73,4003.61 5541.66,4005.58 5537.81,4005.58C5535.6,4005.58 5533.86,4005 5532.47,4003.94L5534.06,4001.44C5535.22,4002.26 5536.52,4002.69 5537.82,4002.69C5539.31,4002.69 5540.37,4002.02 5540.37,4000.86C5540.37,3999.61 5539.36,3999.08 5538.11,3999.08C5537.39,3999.08 5536.91,3999.18 5536.23,3999.37L5535.51,3998.31L5536.67,3994.94C5528.63,3994.22 5523,3987.48 5523,3977.65C5523,3967.3 5529.26,3960.32 5538.07,3960.32C5544.09,3960.32 5549.29,3963.31 5551.46,3970.14L5547.37,3971.63C5545.59,3966.43 5542.41,3964.17 5538.08,3964.17C5531.63,3964.17 5527.34,3969.23 5527.34,3977.65C5527.34,3986.08 5531.63,3991.13 5538.08,3991.13C5542.51,3991.13 5545.74,3988.96 5547.61,3983.67L5551.68,3985.17Z" style="fill:white;fill-rule:nonzero;"/>
                <path d="M5580.09,3994.51L5577.39,3986.81L5561.64,3986.81L5558.94,3994.51L5554.51,3994.51L5566.6,3960.81L5572.57,3960.81L5584.7,3994.51L5580.09,3994.51ZM5565.4,3957.68L5562.37,3957.68L5562.37,3956.28C5562.37,3952.24 5564.44,3950.94 5566.27,3950.94C5569.21,3950.94 5570.75,3954.07 5572.39,3954.07C5573.35,3954.07 5573.79,3952.91 5573.79,3950.94L5576.82,3950.94L5576.82,3952.43C5576.82,3956.62 5574.75,3957.68 5572.92,3957.68C5569.93,3957.68 5568.44,3954.55 5566.8,3954.55C5565.98,3954.55 5565.4,3955.27 5565.4,3957.68ZM5562.9,3983.2L5576.14,3983.2L5569.64,3964.57L5569.4,3964.57L5562.9,3983.2Z" style="fill:white;fill-rule:nonzero;"/>
                <path d="M5587.45,3977.66C5587.45,3967.31 5593.71,3960.33 5602.52,3960.33C5611.33,3960.33 5617.54,3967.26 5617.54,3977.66C5617.54,3988.06 5611.33,3994.99 5602.52,3994.99C5593.71,3994.99 5587.45,3988.01 5587.45,3977.66ZM5613.21,3977.66C5613.21,3969.23 5608.97,3964.18 5602.52,3964.18C5596.07,3964.18 5591.78,3969.24 5591.78,3977.66C5591.78,3986.09 5596.07,3991.14 5602.52,3991.14C5608.97,3991.14 5613.21,3986.09 5613.21,3977.66Z" style="fill:white;fill-rule:nonzero;"/>
            </g>
        </g>
    </g>
</svg>
