<?xml version="1.0" encoding="UTF-8" standalone="no"?>
<!DOCTYPE svg PUBLIC "-//W3C//DTD SVG 1.1//EN" "http://www.w3.org/Graphics/SVG/1.1/DTD/svg11.dtd">
<svg width="100%" height="100%" viewBox="0 0 1608 519" version="1.1" xmlns="http://www.w3.org/2000/svg" xmlns:xlink="http://www.w3.org/1999/xlink" xml:space="preserve" xmlns:serif="http://www.serif.com/" style="fill-rule:evenodd;clip-rule:evenodd;stroke-linejoin:round;stroke-miterlimit:2;">
    <g transform="matrix(1,0,0,1,-80,-699.625)">
        <g transform="matrix(1,0,0,1,80,83)">
            <path d="M0,706.4L45.37,706.4L58.33,805.5L58.87,805.5L58.87,706.4L90.19,706.4L90.19,892.72L46.98,892.72L31.86,777.14L31.32,777.14L31.32,892.72L0,892.72L0,706.4Z" style="fill:rgb(252,227,0);fill-rule:nonzero;"/>
            <path d="M99.91,706.4L172.28,706.4L172.28,737.18L137.45,737.18L137.45,777.14L167.42,777.14L167.42,807.92L137.45,807.92L137.45,861.93L172.28,861.93L172.28,892.71L99.91,892.71L99.91,706.39L99.91,706.4Z" style="fill:rgb(252,227,0);fill-rule:nonzero;"/>
            <path d="M177.41,853.83L177.41,706.39L214.94,706.39L214.94,856.8C214.94,862.2 216.02,864.09 219.26,864.09C222.23,864.09 223.04,862.2 223.04,856.8L223.04,706.39L260.04,706.39L260.04,853.83C260.04,879.21 243.57,895.42 218.72,895.42C193.87,895.42 177.4,879.22 177.4,853.83L177.41,853.83Z" style="fill:rgb(252,227,0);fill-rule:nonzero;"/>
            <path d="M268.95,706.4L310.81,706.4C338.62,706.4 352.67,720.71 352.67,748.53L352.67,760.95C352.67,777.96 347.54,788.49 337.01,793.89L337.01,794.43C347.54,799.56 352.67,810.09 352.67,827.1L352.67,892.72L315.13,892.72L315.13,822.51C315.13,813.6 312.43,811.71 306.76,811.71L306.49,811.71L306.49,892.72L268.95,892.72L268.95,706.4ZM307.57,780.93C313.51,780.93 315.13,778.5 315.13,769.59L315.13,748.26C315.13,739.35 313.51,737.19 307.57,737.19L306.49,737.19L306.49,780.94L307.57,780.94L307.57,780.93Z" style="fill:rgb(252,227,0);fill-rule:nonzero;"/>
            <path d="M359.41,852.21L359.41,746.9C359.41,720.17 375.88,703.69 401.53,703.69C427.18,703.69 443.39,720.16 443.39,746.9L443.39,852.21C443.39,878.94 427.46,895.42 401.53,895.42C375.6,895.42 359.41,878.95 359.41,852.21ZM405.86,856.26L405.86,742.84C405.86,737.17 404.78,735.01 401.54,735.01C398.03,735.01 396.95,737.17 396.95,742.84L396.95,856.26C396.95,861.93 398.03,864.09 401.54,864.09C404.78,864.09 405.86,861.93 405.86,856.26Z" style="fill:rgb(252,227,0);fill-rule:nonzero;"/>
            <path d="M451.75,706.4L493.88,706.4C521.69,706.4 535.74,720.71 535.74,748.53L535.74,772.29C535.74,800.1 521.7,814.42 493.88,814.42L489.29,814.42L489.29,892.73L451.75,892.73L451.75,706.4ZM490.64,783.63C496.85,783.63 498.2,781.2 498.2,772.29L498.2,748.26C498.2,739.35 496.85,737.19 490.64,737.19L489.29,737.19L489.29,783.64L490.64,783.64L490.64,783.63Z" style="fill:rgb(252,227,0);fill-rule:nonzero;"/>
            <path d="M539.78,852.75L539.78,823.05L576.5,823.05L576.5,856.26C576.5,861.93 577.85,864.09 581.36,864.09C584.6,864.09 585.68,861.93 585.68,856.26L585.68,829.26C585.68,823.86 583.52,819.54 578.39,816.3L563,805.77C546.8,794.97 539.78,782.82 539.78,763.64L539.78,745.28C539.78,719.63 555.17,703.69 580.01,703.69C604.85,703.69 621.33,719.62 621.33,745.28L621.33,768.23L584.61,768.23L584.61,741.5C584.61,736.91 583.53,735.02 581.1,735.02C578.13,735.02 577.32,736.91 577.32,741.5L577.32,762.56C577.32,767.96 579.48,772.28 584.61,775.52L600.27,786.05C616.2,796.85 623.22,809 623.22,828.18L623.22,852.75C623.22,879.21 608.1,895.42 581.64,895.42C555.18,895.42 539.78,879.22 539.78,852.75Z" style="fill:rgb(252,227,0);fill-rule:nonzero;"/>
            <rect x="629.43" y="706.4" width="37.54" height="186.32" style="fill:rgb(252,227,0);fill-rule:nonzero;"/>
            <path d="M675.33,853.83L675.33,745.28C675.33,719.63 690.72,703.69 715.83,703.69C740.94,703.69 757.41,719.62 757.41,745.28L757.41,776.6L720.69,776.6L720.69,742.04C720.69,736.91 719.61,735.02 716.91,735.02C713.67,735.02 712.86,736.91 712.86,742.04L712.86,857.08C712.86,862.21 713.67,864.1 716.91,864.1C719.61,864.1 720.69,862.21 720.69,857.08L720.69,814.68L757.41,814.68L757.41,853.83C757.41,879.48 741.75,895.42 715.83,895.42C689.91,895.42 675.33,879.49 675.33,853.83Z" style="fill:rgb(252,227,0);fill-rule:nonzero;"/>
            <path d="M762.82,852.21L762.82,746.9C762.82,720.17 779.29,703.69 804.94,703.69C830.59,703.69 846.8,720.16 846.8,746.9L846.8,852.21C846.8,878.94 830.87,895.42 804.94,895.42C779.01,895.42 762.82,878.95 762.82,852.21ZM809.27,856.26L809.27,742.84C809.27,737.17 808.19,735.01 804.95,735.01C801.44,735.01 800.36,737.17 800.36,742.84L800.36,856.26C800.36,861.93 801.44,864.09 804.95,864.09C808.19,864.09 809.27,861.93 809.27,856.26Z" style="fill:rgb(252,227,0);fill-rule:nonzero;"/>
            <path d="M855.16,706.4L897.29,706.4C925.1,706.4 939.15,720.71 939.15,748.53L939.15,772.29C939.15,800.1 925.11,814.42 897.29,814.42L892.7,814.42L892.7,892.73L855.16,892.73L855.16,706.4ZM894.05,783.63C900.26,783.63 901.61,781.2 901.61,772.29L901.61,748.26C901.61,739.35 900.26,737.19 894.05,737.19L892.7,737.19L892.7,783.64L894.05,783.64L894.05,783.63Z" style="fill:rgb(252,227,0);fill-rule:nonzero;"/>
            <path d="M944.27,706.4L1016.64,706.4L1016.64,737.18L981.81,737.18L981.81,777.14L1011.78,777.14L1011.78,807.92L981.81,807.92L981.81,861.93L1016.64,861.93L1016.64,892.71L944.27,892.71L944.27,706.39L944.27,706.4Z" style="fill:rgb(252,227,0);fill-rule:nonzero;"/>
            <path d="M1022.58,706.4L1064.71,706.4C1092.52,706.4 1106.57,720.71 1106.57,748.53L1106.57,850.6C1106.57,878.41 1092.53,892.73 1064.71,892.73L1022.58,892.73L1022.58,706.4ZM1061.47,861.94C1067.68,861.94 1069.03,859.78 1069.03,850.87L1069.03,748.26C1069.03,739.35 1067.68,737.19 1061.47,737.19L1060.12,737.19L1060.12,861.95L1061.47,861.95L1061.47,861.94Z" style="fill:rgb(252,227,0);fill-rule:nonzero;"/>
            <path d="M1127.34,706.4L1180.28,706.4L1198.64,892.72L1160.56,892.72L1158.67,858.7L1146.79,858.7L1144.9,892.72L1108.98,892.72L1127.34,706.4ZM1157.59,827.92L1153,737.19L1152.46,737.19L1147.87,827.92L1157.59,827.92Z" style="fill:rgb(252,227,0);fill-rule:nonzero;"/>
            <path d="M1201.6,861.13L1201.6,746.64C1201.6,720.18 1218.07,703.7 1243.46,703.7C1268.85,703.7 1284.78,720.17 1284.78,746.64L1284.78,767.16L1248.06,767.16L1248.06,742.86C1248.06,737.19 1246.98,735.03 1243.74,735.03C1240.23,735.03 1239.15,737.19 1239.15,742.86L1239.15,858.98C1239.15,861.95 1239.96,864.11 1243.2,864.11C1247.52,864.11 1248.6,860.87 1248.6,851.69L1248.6,816.05L1244.01,816.05L1244.01,785L1285.33,785L1285.33,892.74L1253.2,892.74L1253.2,878.97L1252.12,878.97C1248.07,890.04 1240.24,895.44 1228.09,895.44C1211.35,895.44 1201.63,882.48 1201.63,861.15L1201.6,861.13Z" style="fill:rgb(252,227,0);fill-rule:nonzero;"/>
            <path d="M1292.6,852.21L1292.6,746.9C1292.6,720.17 1309.07,703.69 1334.72,703.69C1360.37,703.69 1376.58,720.16 1376.58,746.9L1376.58,852.21C1376.58,878.94 1360.65,895.42 1334.72,895.42C1308.79,895.42 1292.6,878.95 1292.6,852.21ZM1339.05,856.26L1339.05,742.84C1339.05,737.17 1337.97,735.01 1334.73,735.01C1331.22,735.01 1330.14,737.17 1330.14,742.84L1330.14,856.26C1330.14,861.93 1331.22,864.09 1334.73,864.09C1337.97,864.09 1339.05,861.93 1339.05,856.26Z" style="fill:rgb(252,227,0);fill-rule:nonzero;"/>
            <path d="M1383.87,861.13L1383.87,746.64C1383.87,720.18 1400.34,703.7 1425.73,703.7C1451.12,703.7 1467.05,720.17 1467.05,746.64L1467.05,767.16L1430.33,767.16L1430.33,742.86C1430.33,737.19 1429.25,735.03 1426.01,735.03C1422.5,735.03 1421.42,737.19 1421.42,742.86L1421.42,858.98C1421.42,861.95 1422.23,864.11 1425.47,864.11C1429.79,864.11 1430.87,860.87 1430.87,851.69L1430.87,816.05L1426.28,816.05L1426.28,785L1467.6,785L1467.6,892.74L1435.47,892.74L1435.47,878.97L1434.39,878.97C1430.34,890.04 1422.51,895.44 1410.36,895.44C1393.62,895.44 1383.9,882.48 1383.9,861.15L1383.87,861.13Z" style="fill:rgb(252,227,0);fill-rule:nonzero;"/>
            <rect x="1476.22" y="706.4" width="37.54" height="186.32" style="fill:rgb(252,227,0);fill-rule:nonzero;"/>
            <path d="M1536.69,706.4L1589.63,706.4L1607.99,892.72L1569.91,892.72L1568.02,858.7L1556.14,858.7L1554.25,892.72L1518.33,892.72L1536.69,706.4ZM1566.94,827.92L1562.35,737.19L1561.81,737.19L1557.22,827.92L1566.94,827.92Z" style="fill:rgb(252,227,0);fill-rule:nonzero;"/>
        </g>
        <g transform="matrix(1,0,0,1,80,83)">
            <g transform="matrix(2.14364,0,0,2.14364,-4.56314,616.625)">
                <g>
                    <path d="M222.36,22.83L224.29,16.16L232.38,16.16C232.71,16.16 233,15.93 233.09,15.63L234.02,12.57L225.59,12.57C225.59,12.57 225.43,12.57 225.35,12.69C225.33,12.73 225.22,12.93 225.22,12.93C225.22,12.93 226.14,9.76 227.47,9.76L234.31,9.76C234.64,9.76 234.93,9.54 235.02,9.24L236.16,5.37L227.81,5.37C225.1,5.55 223.13,7.8 221.88,12.1L218.56,23.38L221.64,23.38C221.98,23.38 222.27,23.15 222.36,22.83Z" style="fill:white;fill-rule:nonzero;"/>
                    <path d="M247.49,22.94L243.29,5.37L240.8,5.37C240.27,5.37 240.09,5.62 239.97,5.85L232.26,23.38L235.28,23.38C235.88,23.38 235.98,23.12 236.07,22.91L237.83,18.93L242.59,18.91C243.16,18.91 243.32,19.3 243.32,19.3L244.28,23.38L246.82,23.38C246.82,23.38 247.57,23.38 247.47,22.94L247.49,22.94ZM242.19,16.39L239.14,16.39C239.01,16.39 238.87,16.62 238.87,16.62L241.37,10.9L242.59,16.06C242.59,16.06 242.65,16.38 242.19,16.38L242.19,16.39Z" style="fill:white;fill-rule:nonzero;"/>
                    <path d="M264.83,5.37C264.07,5.37 263.67,5.37 263.29,6.21L258.4,16.98C258.4,16.98 258.34,17.12 258.32,17.16C258.22,17.39 258.27,17.72 258.27,17.72L255.17,5.38L252.24,5.38C251.45,5.38 250.87,5.38 250.8,6.31L249.05,23.39C249.43,23.38 251.04,23.39 251.04,23.39C251.953,23.39 252.437,23.083 252.49,22.47L253.52,12.33L256.22,23.14L257.34,23.14L257.9,23.14C258.627,23.14 259.103,22.897 259.33,22.41L263.86,12.4L262.73,23.38L264.83,23.38C265.663,23.38 266.117,23.07 266.19,22.45L267.94,5.37L264.83,5.37Z" style="fill:white;fill-rule:nonzero;"/>
                </g>
                <g>
                    <path d="M3.99,23.09L3.99,5.71L11.53,5.71C15.92,5.71 18.5,8.02 18.5,11.79C18.5,15.56 15.92,17.75 11.53,17.75L8.95,17.75L8.95,23.09L3.99,23.09ZM8.95,13.9L11.11,13.9C12.55,13.9 13.54,13.18 13.54,11.79C13.54,10.4 12.55,9.68 11.11,9.68L8.95,9.68L8.95,13.9Z" style="fill:rgb(252,227,0);fill-rule:nonzero;"/>
                    <path d="M19.95,14.39C19.95,9.08 23.2,5.46 28.64,5.46C34.08,5.46 37.33,9.06 37.33,14.39C37.33,19.72 34.08,23.32 28.64,23.32C23.2,23.32 19.95,19.7 19.95,14.39ZM32.36,14.39C32.36,11.34 30.9,9.55 28.64,9.55C26.38,9.55 24.92,11.34 24.92,14.39C24.92,17.44 26.38,19.23 28.64,19.23C30.9,19.23 32.36,17.44 32.36,14.39ZM26.83,4.22L28.62,0L34.01,0L30.49,4.22L26.83,4.22Z" style="fill:rgb(252,227,0);fill-rule:nonzero;"/>
                    <path d="M39.01,18.61L43.73,17.67C44.28,19.13 45.49,19.68 46.86,19.68C48.23,19.68 49.09,19.11 49.09,18.19C49.09,15.29 39.41,17.62 39.41,10.47C39.41,7.64 41.92,5.46 46.36,5.46C50.16,5.46 52.86,6.87 53.71,9.93L48.9,10.87C48.55,9.65 47.66,9.11 46.39,9.11C45.27,9.11 44.48,9.68 44.48,10.47C44.48,13.4 54.16,10.99 54.16,18.29C54.16,21.17 51.65,23.33 46.86,23.33C43.19,23.33 39.84,21.89 39.02,18.61L39.01,18.61Z" style="fill:rgb(252,227,0);fill-rule:nonzero;"/>
                    <rect x="55.56" y="14.4" width="8.81" height="3.47" style="fill:rgb(252,227,0);fill-rule:nonzero;"/>
                    <path d="M66.23,14.39C66.23,9.05 69.43,5.46 74.05,5.46C77.18,5.46 79.76,6.9 81.02,10.1L78.94,10.87C77.97,8.44 76.31,7.37 74.05,7.37C70.72,7.37 68.47,10.03 68.47,14.39C68.47,18.75 70.65,21.41 74.35,21.41C76.09,21.41 77.65,20.67 78.64,19.57L78.64,15.95L74.47,15.75L74.47,13.96L80.87,13.96L80.87,20.26C79.38,22.29 77,23.31 74.34,23.31C69.43,23.31 66.23,19.71 66.23,14.38L66.23,14.39Z" style="fill:white;fill-rule:nonzero;"/>
                    <path d="M84.55,23.08L84.55,5.71L91.25,5.71C94.72,5.71 96.96,7.67 96.96,11C96.96,13.56 95.57,15.29 93.29,15.91L97.21,23.08L94.68,23.08L91.08,16.16L86.79,16.16L86.79,23.08L84.55,23.08ZM86.78,14.27L91.15,14.27C93.33,14.27 94.72,13.08 94.72,10.99C94.72,8.9 93.33,7.69 91.15,7.69L86.78,7.69L86.78,14.27Z" style="fill:white;fill-rule:nonzero;"/>
                    <path d="M111.97,23.08L110.58,19.11L102.47,19.11L101.08,23.08L98.8,23.08L105.03,5.71L108.11,5.71L114.36,23.08L111.97,23.08ZM103.11,17.25L109.93,17.25L106.58,7.65L106.46,7.65L103.11,17.25Z" style="fill:white;fill-rule:nonzero;"/>
                    <path d="M116.68,23.09L116.68,5.71L122.24,5.71C127.18,5.71 130.45,9.18 130.45,14.4C130.45,19.62 127.17,23.09 122.24,23.09L116.68,23.09ZM118.91,21.09L122.24,21.09C125.86,21.09 128.22,18.56 128.22,14.39C128.22,10.22 125.86,7.69 122.24,7.69L118.91,7.69L118.91,21.09Z" style="fill:white;fill-rule:nonzero;"/>
                    <path d="M133.61,16.11L133.61,5.71L135.84,5.71L135.84,16.11C135.84,19.96 138,21.35 140.38,21.35C142.76,21.35 144.9,19.96 144.9,16.11L144.9,5.71L147.13,5.71L147.13,16.11C147.13,21.05 144.08,23.33 140.38,23.33C136.68,23.33 133.61,21.05 133.61,16.11Z" style="fill:white;fill-rule:nonzero;"/>
                    <path d="M162.52,23.08L161.13,19.11L153.02,19.11L151.63,23.08L149.35,23.08L155.58,5.71L158.66,5.71L164.91,23.08L162.52,23.08ZM153.66,17.25L160.48,17.25L157.13,7.65L157.01,7.65L153.66,17.25Z" style="fill:white;fill-rule:nonzero;"/>
                    <path d="M181.11,18.26C180.02,21.61 177.59,23.12 174.68,23.3L174.38,24.19L174.53,24.19C175.89,24.19 177.01,24.96 177.01,26.4C177.01,27.76 175.94,28.78 173.96,28.78C172.82,28.78 171.93,28.48 171.21,27.94L172.03,26.65C172.63,27.07 173.3,27.3 173.97,27.3C174.74,27.3 175.29,26.95 175.29,26.36C175.29,25.71 174.77,25.44 174.12,25.44C173.75,25.44 173.5,25.49 173.15,25.59L172.78,25.04L173.38,23.3C169.24,22.93 166.33,19.45 166.33,14.39C166.33,9.05 169.56,5.46 174.1,5.46C177.2,5.46 179.88,7 181,10.52L178.89,11.29C177.97,8.61 176.33,7.44 174.1,7.44C170.77,7.44 168.57,10.05 168.57,14.39C168.57,18.73 170.78,21.34 174.1,21.34C176.38,21.34 178.05,20.22 179.01,17.49L181.12,18.26L181.11,18.26Z" style="fill:white;fill-rule:nonzero;"/>
                    <path d="M195.75,23.08L194.36,19.11L186.25,19.11L184.86,23.08L182.58,23.08L188.81,5.71L191.89,5.71L198.14,23.08L195.75,23.08ZM188.18,4.1L186.62,4.1L186.62,3.38C186.62,1.3 187.69,0.63 188.63,0.63C190.14,0.63 190.94,2.24 191.78,2.24C192.28,2.24 192.5,1.64 192.5,0.63L194.06,0.63L194.06,1.4C194.06,3.56 192.99,4.1 192.05,4.1C190.51,4.1 189.74,2.49 188.9,2.49C188.48,2.49 188.18,2.86 188.18,4.1ZM186.89,17.25L193.71,17.25L190.36,7.65L190.24,7.65L186.89,17.25Z" style="fill:white;fill-rule:nonzero;"/>
                    <path d="M199.55,14.39C199.55,9.05 202.78,5.46 207.32,5.46C211.86,5.46 215.06,9.03 215.06,14.39C215.06,19.75 211.86,23.32 207.32,23.32C202.78,23.32 199.55,19.72 199.55,14.39ZM212.83,14.39C212.83,10.05 210.65,7.44 207.32,7.44C203.99,7.44 201.79,10.05 201.79,14.39C201.79,18.73 204,21.34 207.32,21.34C210.64,21.34 212.83,18.73 212.83,14.39Z" style="fill:white;fill-rule:nonzero;"/>
                </g>
            </g>
        </g>
        <g transform="matrix(1,0,0,1,80,83)">
            <path d="M0.54,924.66L80.97,924.66L80.97,958.87L42.26,958.87L42.26,1003.29L75.57,1003.29L75.57,1037.5L42.26,1037.5L42.26,1097.52L80.97,1097.52L80.97,1131.73L0.54,1131.73L0.54,924.65L0.54,924.66Z" style="fill:rgb(252,227,0);fill-rule:nonzero;"/>
            <path d="M128.98,924.66L175.8,924.66C206.71,924.66 222.32,940.57 222.32,971.48L222.32,997.89C222.32,1028.8 206.71,1044.71 175.8,1044.71L170.7,1044.71L170.7,1131.74L128.99,1131.74L128.99,924.66L128.98,924.66ZM172.2,1010.49C179.1,1010.49 180.6,1007.79 180.6,997.89L180.6,971.18C180.6,961.28 179.1,958.88 172.2,958.88L170.7,958.88L170.7,1010.5L172.2,1010.5L172.2,1010.49Z" style="fill:rgb(252,227,0);fill-rule:nonzero;"/>
            <path d="M226.81,1087.32L226.81,1054.31L267.63,1054.31L267.63,1091.22C267.63,1097.52 269.13,1099.92 273.03,1099.92C276.63,1099.92 277.83,1097.52 277.83,1091.22L277.83,1061.21C277.83,1055.21 275.43,1050.41 269.73,1046.8L252.62,1035.1C234.61,1023.1 226.81,1009.59 226.81,988.28L226.81,967.87C226.81,939.36 243.92,921.65 271.53,921.65C299.14,921.65 317.45,939.36 317.45,967.87L317.45,993.38L276.63,993.38L276.63,963.67C276.63,958.57 275.43,956.47 272.73,956.47C269.43,956.47 268.53,958.57 268.53,963.67L268.53,987.08C268.53,993.08 270.93,997.88 276.63,1001.49L294.04,1013.19C311.75,1025.19 319.55,1038.7 319.55,1060.01L319.55,1087.32C319.55,1116.73 302.74,1134.74 273.33,1134.74C243.92,1134.74 226.81,1116.73 226.81,1087.32Z" style="fill:rgb(252,227,0);fill-rule:nonzero;"/>
            <rect x="326.45" y="924.66" width="41.71" height="207.08" style="fill:rgb(252,227,0);fill-rule:nonzero;"/>
            <path d="M377.46,1088.53L377.46,967.88C377.46,939.37 394.57,921.66 422.48,921.66C450.39,921.66 468.7,939.37 468.7,967.88L468.7,1002.69L427.89,1002.69L427.89,964.28C427.89,958.58 426.69,956.48 423.69,956.48C420.09,956.48 419.19,958.58 419.19,964.28L419.19,1092.13C419.19,1097.83 420.09,1099.93 423.69,1099.93C426.69,1099.93 427.89,1097.83 427.89,1092.13L427.89,1045.01L468.7,1045.01L468.7,1088.53C468.7,1117.04 451.29,1134.75 422.48,1134.75C393.67,1134.75 377.46,1117.04 377.46,1088.53Z" style="fill:rgb(252,227,0);fill-rule:nonzero;"/>
            <path d="M474.7,1086.72L474.7,969.68C474.7,939.97 493.01,921.66 521.52,921.66C550.03,921.66 568.04,939.97 568.04,969.68L568.04,1086.72C568.04,1116.43 550.33,1134.74 521.52,1134.74C492.71,1134.74 474.7,1116.43 474.7,1086.72ZM526.32,1091.22L526.32,965.17C526.32,958.87 525.12,956.47 521.52,956.47C517.62,956.47 516.42,958.87 516.42,965.17L516.42,1091.22C516.42,1097.52 517.62,1099.92 521.52,1099.92C525.12,1099.92 526.32,1097.52 526.32,1091.22Z" style="fill:rgb(252,227,0);fill-rule:nonzero;"/>
            <path d="M577.31,924.66L637.05,924.66L643.95,1009.59L644.55,1009.59L651.75,924.66L716.57,924.66L716.57,1131.74L675.45,1131.74L675.45,959.78L674.85,959.78L659.54,1131.74L628.33,1131.74L613.02,959.78L612.42,959.78L612.42,1131.74L577.31,1131.74L577.31,924.66Z" style="fill:rgb(252,227,0);fill-rule:nonzero;"/>
            <path d="M725.89,1086.72L725.89,969.68C725.89,939.97 744.2,921.66 772.71,921.66C801.22,921.66 819.23,939.97 819.23,969.68L819.23,1086.72C819.23,1116.43 801.52,1134.74 772.71,1134.74C743.9,1134.74 725.89,1116.43 725.89,1086.72ZM777.51,1091.22L777.51,965.17C777.51,958.87 776.31,956.47 772.71,956.47C768.81,956.47 767.61,958.87 767.61,965.17L767.61,1091.22C767.61,1097.52 768.81,1099.92 772.71,1099.92C776.31,1099.92 777.51,1097.52 777.51,1091.22Z" style="fill:rgb(252,227,0);fill-rule:nonzero;"/>
            <path d="M848.33,958.88L823.12,958.88L823.12,924.67L915.25,924.67L915.25,958.88L890.04,958.88L890.04,1131.74L848.33,1131.74L848.33,958.88Z" style="fill:rgb(252,227,0);fill-rule:nonzero;"/>
            <path d="M920.06,924.66L966.58,924.66C997.49,924.66 1013.1,940.57 1013.1,971.48L1013.1,985.29C1013.1,1004.2 1007.4,1015.9 995.69,1021.9L995.69,1022.5C1007.4,1028.2 1013.1,1039.91 1013.1,1058.81L1013.1,1131.74L971.38,1131.74L971.38,1053.71C971.38,1043.81 968.38,1041.71 962.08,1041.71L961.78,1041.71L961.78,1131.74L920.07,1131.74L920.07,924.66L920.06,924.66ZM962.98,1007.49C969.58,1007.49 971.38,1004.79 971.38,994.89L971.38,971.18C971.38,961.28 969.58,958.88 962.98,958.88L961.78,958.88L961.78,1007.5L962.98,1007.5L962.98,1007.49Z" style="fill:rgb(252,227,0);fill-rule:nonzero;"/>
            <rect x="1022.09" y="924.66" width="41.71" height="207.08" style="fill:rgb(252,227,0);fill-rule:nonzero;"/>
            <path d="M1073.11,1088.53L1073.11,967.88C1073.11,939.37 1090.22,921.66 1118.13,921.66C1146.04,921.66 1164.35,939.37 1164.35,967.88L1164.35,1002.69L1123.54,1002.69L1123.54,964.28C1123.54,958.58 1122.34,956.48 1119.34,956.48C1115.74,956.48 1114.84,958.58 1114.84,964.28L1114.84,1092.13C1114.84,1097.83 1115.74,1099.93 1119.34,1099.93C1122.34,1099.93 1123.54,1097.83 1123.54,1092.13L1123.54,1045.01L1164.35,1045.01L1164.35,1088.53C1164.35,1117.04 1146.94,1134.75 1118.13,1134.75C1089.32,1134.75 1073.11,1117.04 1073.11,1088.53Z" style="fill:rgb(252,227,0);fill-rule:nonzero;"/>
            <rect x="1171.84" y="924.66" width="41.71" height="207.08" style="fill:rgb(252,227,0);fill-rule:nonzero;"/>
            <path d="M1224.36,924.66L1271.18,924.66C1302.09,924.66 1317.7,940.57 1317.7,971.48L1317.7,1084.92C1317.7,1115.83 1302.09,1131.74 1271.18,1131.74L1224.36,1131.74L1224.36,924.66ZM1267.58,1097.52C1274.48,1097.52 1275.98,1095.12 1275.98,1085.22L1275.98,971.18C1275.98,961.28 1274.48,958.88 1267.58,958.88L1266.08,958.88L1266.08,1097.53L1267.58,1097.53L1267.58,1097.52Z" style="fill:rgb(252,227,0);fill-rule:nonzero;"/>
            <path d="M1340.8,924.66L1399.62,924.66L1420.03,1131.74L1377.71,1131.74L1375.61,1093.93L1362.4,1093.93L1360.3,1131.74L1320.39,1131.74L1340.8,924.66ZM1374.41,1059.71L1369.31,958.87L1368.71,958.87L1363.61,1059.71L1374.41,1059.71Z" style="fill:rgb(252,227,0);fill-rule:nonzero;"/>
            <path d="M1425.13,924.66L1471.95,924.66C1502.86,924.66 1518.47,940.57 1518.47,971.48L1518.47,1084.92C1518.47,1115.83 1502.86,1131.74 1471.95,1131.74L1425.13,1131.74L1425.13,924.66ZM1468.35,1097.52C1475.25,1097.52 1476.75,1095.12 1476.75,1085.22L1476.75,971.18C1476.75,961.28 1475.25,958.88 1468.35,958.88L1466.85,958.88L1466.85,1097.53L1468.35,1097.53L1468.35,1097.52Z" style="fill:rgb(252,227,0);fill-rule:nonzero;"/>
            <path d="M1527.46,924.66L1607.89,924.66L1607.89,958.87L1569.18,958.87L1569.18,1003.29L1602.49,1003.29L1602.49,1037.5L1569.18,1037.5L1569.18,1097.52L1607.89,1097.52L1607.89,1131.73L1527.46,1131.73L1527.46,924.65L1527.46,924.66Z" style="fill:rgb(252,227,0);fill-rule:nonzero;"/>
        </g>
    </g>
</svg>
