<?xml version="1.0" encoding="UTF-8" standalone="no"?>
<!DOCTYPE svg PUBLIC "-//W3C//DTD SVG 1.1//EN" "http://www.w3.org/Graphics/SVG/1.1/DTD/svg11.dtd">
<svg width="100%" height="100%" viewBox="0 0 605 326" version="1.1" xmlns="http://www.w3.org/2000/svg" xmlns:xlink="http://www.w3.org/1999/xlink" xml:space="preserve" xmlns:serif="http://www.serif.com/" style="fill-rule:evenodd;clip-rule:evenodd;stroke-linejoin:round;stroke-miterlimit:2;">
    <g transform="matrix(1,0,0,1,-7442,-1465.14)">
        <g transform="matrix(1,0,0,1,6902,4080)">
            <path d="M963.7,-2570.55L967.44,-2583.48L983.13,-2583.48C983.78,-2583.49 984.33,-2583.92 984.51,-2584.51L986.31,-2590.46L969.95,-2590.44C969.95,-2590.44 969.63,-2590.48 969.49,-2590.23C969.45,-2590.15 969.23,-2589.77 969.23,-2589.77C969.23,-2589.77 971.02,-2595.92 973.59,-2595.92L986.86,-2595.92C987.51,-2595.92 988.06,-2596.34 988.24,-2596.93L990.46,-2604.44L974.26,-2604.46C969.01,-2604.08 965.17,-2599.72 962.75,-2591.38L956.31,-2569.49L962.29,-2569.49C962.96,-2569.49 963.52,-2569.94 963.7,-2570.55Z" style="fill:white;fill-rule:nonzero;"/>
        </g>
        <g transform="matrix(1,0,0,1,6902,4080)">
            <path d="M1012.45,-2570.33L1004.3,-2604.43L999.48,-2604.43C998.46,-2604.43 998.1,-2603.95 997.88,-2603.51L982.92,-2569.49L988.78,-2569.49C989.94,-2569.49 990.14,-2570 990.32,-2570.39L993.74,-2578.12L1002.98,-2578.16C1004.08,-2578.16 1004.39,-2577.4 1004.39,-2577.4L1006.26,-2569.49L1011.19,-2569.49C1011.19,-2569.49 1012.65,-2569.49 1012.45,-2570.33ZM1002.16,-2583.04L996.55,-2583.04C996.55,-2583.04 996.3,-2583.03 996.24,-2583.03C995.99,-2583.03 995.71,-2582.58 995.71,-2582.58L1000.56,-2593.67L1002.93,-2583.66C1002.93,-2583.64 1003.05,-2583.04 1002.16,-2583.04Z" style="fill:white;fill-rule:nonzero;"/>
        </g>
        <g transform="matrix(1,0,0,1,6902,4080)">
            <path d="M1046.1,-2604.43C1044.63,-2604.43 1043.85,-2604.43 1043.11,-2602.81L1033.62,-2581.92C1033.62,-2581.92 1033.49,-2581.66 1033.46,-2581.57C1033.27,-2581.12 1033.36,-2580.49 1033.36,-2580.49L1027.35,-2604.43L1021.66,-2604.43C1020.12,-2604.43 1019,-2604.43 1018.86,-2602.62L1015.46,-2569.49C1016.19,-2569.52 1019.33,-2569.49 1019.33,-2569.49C1021.98,-2569.49 1021.98,-2569.49 1022.15,-2571.28L1024.15,-2590.95L1029.39,-2569.97L1031.56,-2569.97L1032.64,-2569.97C1034.76,-2569.97 1034.76,-2569.97 1035.42,-2571.38L1044.22,-2590.81L1042.04,-2569.5L1046.11,-2569.5C1048.53,-2569.5 1048.53,-2569.5 1048.75,-2571.31L1052.15,-2604.44C1049.51,-2604.43 1046.1,-2604.43 1046.1,-2604.43Z" style="fill:white;fill-rule:nonzero;"/>
        </g>
        <g transform="matrix(1,0,0,1,6902,4080)">
            <path d="M540,-2570.07L540,-2603.78L554.64,-2603.78C563.16,-2603.78 568.17,-2599.3 568.17,-2591.98C568.17,-2584.76 563.16,-2580.42 554.64,-2580.42L549.63,-2580.42L549.63,-2570.07L540,-2570.07ZM549.63,-2587.89L553.82,-2587.89C556.61,-2587.89 558.54,-2589.29 558.54,-2591.98C558.54,-2594.68 556.61,-2596.07 553.82,-2596.07L549.63,-2596.07L549.63,-2587.89Z" style="fill:rgb(251,226,0);fill-rule:nonzero;"/>
        </g>
        <g transform="matrix(1,0,0,1,6902,4080)">
            <path d="M570.96,-2586.92C570.96,-2597.22 577.27,-2604.25 587.81,-2604.25C598.35,-2604.25 604.66,-2597.27 604.66,-2586.92C604.66,-2576.57 598.35,-2569.59 587.81,-2569.59C577.27,-2569.59 570.96,-2576.62 570.96,-2586.92ZM595.04,-2586.92C595.04,-2592.84 592.2,-2596.31 587.82,-2596.31C583.44,-2596.31 580.6,-2592.84 580.6,-2586.92C580.6,-2581 583.44,-2577.53 587.82,-2577.53C592.2,-2577.53 595.04,-2581 595.04,-2586.92ZM584.3,-2606.67L587.77,-2614.86L598.22,-2614.86L591.38,-2606.67L584.3,-2606.67Z" style="fill:rgb(251,226,0);fill-rule:nonzero;"/>
        </g>
        <g transform="matrix(1,0,0,1,6902,4080)">
            <path d="M607.94,-2578.74L617.09,-2580.57C618.15,-2577.73 620.51,-2576.67 623.16,-2576.67C625.9,-2576.67 627.49,-2577.78 627.49,-2579.56C627.49,-2585.19 608.71,-2580.67 608.71,-2594.53C608.71,-2600.02 613.57,-2604.26 622.19,-2604.26C629.56,-2604.26 634.81,-2601.52 636.44,-2595.59L627.1,-2593.76C626.43,-2596.12 624.69,-2597.18 622.24,-2597.18C620.07,-2597.18 618.53,-2596.07 618.53,-2594.53C618.53,-2588.85 637.31,-2593.52 637.31,-2579.36C637.31,-2573.77 632.45,-2569.59 623.15,-2569.59C616.03,-2569.59 609.53,-2572.38 607.94,-2578.74Z" style="fill:rgb(251,226,0);fill-rule:nonzero;"/>
        </g>
        <g transform="matrix(1,0,0,1,6902,4080)">
            <rect x="640.06" y="-2586.92" width="17.09" height="6.74" style="fill:rgb(251,226,0);fill-rule:nonzero;"/>
        </g>
        <g transform="matrix(1,0,0,1,6902,4080)">
            <path d="M660.76,-2586.92C660.76,-2597.27 666.97,-2604.25 675.93,-2604.25C682,-2604.25 687,-2601.46 689.46,-2595.25L685.42,-2593.76C683.54,-2598.48 680.32,-2600.55 675.93,-2600.55C669.48,-2600.55 665.1,-2595.4 665.1,-2586.92C665.1,-2578.44 669.34,-2573.29 676.51,-2573.29C679.88,-2573.29 682.91,-2574.73 684.84,-2576.85L684.84,-2583.88L676.75,-2584.27L676.75,-2587.74L689.17,-2587.74L689.17,-2575.51C686.28,-2571.56 681.66,-2569.59 676.51,-2569.59C666.97,-2569.59 660.76,-2576.57 660.76,-2586.92Z" style="fill:white;fill-rule:nonzero;"/>
        </g>
        <g transform="matrix(1,0,0,1,6902,4080)">
            <path d="M696.3,-2570.07L696.3,-2603.78L709.3,-2603.78C716.04,-2603.78 720.37,-2599.98 720.37,-2593.52C720.37,-2588.56 717.67,-2585.19 713.24,-2583.99L720.85,-2570.07L715.94,-2570.07L708.96,-2583.5L700.63,-2583.5L700.63,-2570.07L696.3,-2570.07ZM700.63,-2587.17L709.1,-2587.17C713.34,-2587.17 716.03,-2589.48 716.03,-2593.53C716.03,-2597.53 713.33,-2599.93 709.1,-2599.93L700.63,-2599.93L700.63,-2587.17Z" style="fill:white;fill-rule:nonzero;"/>
        </g>
        <g transform="matrix(1,0,0,1,6902,4080)">
            <path d="M749.5,-2570.07L746.8,-2577.77L731.06,-2577.77L728.36,-2570.07L723.93,-2570.07L736.02,-2603.78L741.99,-2603.78L754.12,-2570.07L749.5,-2570.07ZM732.31,-2581.39L745.55,-2581.39L739.05,-2600.02L738.81,-2600.02L732.31,-2581.39Z" style="fill:white;fill-rule:nonzero;"/>
        </g>
        <g transform="matrix(1,0,0,1,6902,4080)">
            <path d="M758.65,-2570.07L758.65,-2603.78L769.44,-2603.78C779.02,-2603.78 785.38,-2597.04 785.38,-2586.93C785.38,-2576.82 779.02,-2570.08 769.44,-2570.08L758.65,-2570.08L758.65,-2570.07ZM762.98,-2573.92L769.43,-2573.92C776.46,-2573.92 781.03,-2578.83 781.03,-2586.92C781.03,-2595.01 776.46,-2599.92 769.43,-2599.92L762.98,-2599.92L762.98,-2573.92Z" style="fill:white;fill-rule:nonzero;"/>
        </g>
        <g transform="matrix(1,0,0,1,6902,4080)">
            <path d="M791.49,-2583.6L791.49,-2603.77L795.82,-2603.77L795.82,-2583.6C795.82,-2576.14 800.01,-2573.44 804.63,-2573.44C809.25,-2573.44 813.39,-2576.14 813.39,-2583.6L813.39,-2603.77L817.72,-2603.77L817.72,-2583.6C817.72,-2574.02 811.8,-2569.59 804.62,-2569.59C797.46,-2569.59 791.49,-2574.02 791.49,-2583.6Z" style="fill:white;fill-rule:nonzero;"/>
        </g>
        <g transform="matrix(1,0,0,1,6902,4080)">
            <path d="M847.58,-2570.07L844.88,-2577.77L829.14,-2577.77L826.44,-2570.07L822.01,-2570.07L834.1,-2603.78L840.07,-2603.78L852.2,-2570.07L847.58,-2570.07ZM830.39,-2581.39L843.63,-2581.39L837.13,-2600.02L836.89,-2600.02L830.39,-2581.39Z" style="fill:white;fill-rule:nonzero;"/>
        </g>
        <g transform="matrix(1,0,0,1,6902,4080)">
            <path d="M883.65,-2579.41C881.53,-2572.91 876.81,-2569.97 871.18,-2569.64L870.6,-2567.91L870.89,-2567.91C873.54,-2567.91 875.71,-2566.42 875.71,-2563.62C875.71,-2560.97 873.64,-2559 869.79,-2559C867.58,-2559 865.84,-2559.58 864.45,-2560.64L866.04,-2563.14C867.2,-2562.32 868.5,-2561.89 869.8,-2561.89C871.29,-2561.89 872.35,-2562.56 872.35,-2563.72C872.35,-2564.97 871.34,-2565.5 870.09,-2565.5C869.37,-2565.5 868.89,-2565.4 868.21,-2565.21L867.49,-2566.27L868.65,-2569.64C860.61,-2570.36 854.98,-2577.1 854.98,-2586.93C854.98,-2597.28 861.24,-2604.26 870.05,-2604.26C876.07,-2604.26 881.27,-2601.27 883.44,-2594.44L879.35,-2592.95C877.57,-2598.15 874.39,-2600.41 870.06,-2600.41C863.61,-2600.41 859.32,-2595.35 859.32,-2586.93C859.32,-2578.51 863.61,-2573.45 870.06,-2573.45C874.49,-2573.45 877.72,-2575.62 879.59,-2580.91L883.65,-2579.41Z" style="fill:white;fill-rule:nonzero;"/>
        </g>
        <g transform="matrix(1,0,0,1,6902,4080)">
            <path d="M912.06,-2570.07L909.36,-2577.77L893.62,-2577.77L890.92,-2570.07L886.49,-2570.07L898.58,-2603.78L904.55,-2603.78L916.68,-2570.07L912.06,-2570.07ZM897.37,-2606.91L894.34,-2606.91L894.34,-2608.31C894.34,-2612.35 896.41,-2613.65 898.24,-2613.65C901.18,-2613.65 902.72,-2610.52 904.36,-2610.52C905.32,-2610.52 905.76,-2611.68 905.76,-2613.65L908.79,-2613.65L908.79,-2612.16C908.79,-2607.97 906.72,-2606.91 904.89,-2606.91C901.9,-2606.91 900.41,-2610.04 898.77,-2610.04C897.95,-2610.04 897.37,-2609.31 897.37,-2606.91ZM894.87,-2581.39L908.11,-2581.39L901.61,-2600.02L901.37,-2600.02L894.87,-2581.39Z" style="fill:white;fill-rule:nonzero;"/>
        </g>
        <g transform="matrix(1,0,0,1,6902,4080)">
            <path d="M919.43,-2586.92C919.43,-2597.27 925.69,-2604.25 934.5,-2604.25C943.31,-2604.25 949.52,-2597.32 949.52,-2586.92C949.52,-2576.52 943.31,-2569.59 934.5,-2569.59C925.69,-2569.59 919.43,-2576.57 919.43,-2586.92ZM945.19,-2586.92C945.19,-2595.35 940.95,-2600.4 934.5,-2600.4C928.05,-2600.4 923.76,-2595.34 923.76,-2586.92C923.76,-2578.5 928.05,-2573.44 934.5,-2573.44C940.95,-2573.44 945.19,-2578.5 945.19,-2586.92Z" style="fill:white;fill-rule:nonzero;"/>
        </g>
        <g transform="matrix(1,0,0,1,7442,1714.88)">
            <path d="M4.369,-0.015L37.957,-0.015L37.957,-73.057L65.045,-73.057L65.045,-100.599L37.957,-100.599L37.957,-139.326L69.157,-139.326L69.157,-166.868L4.369,-166.868L4.369,-0.015Z" style="fill:rgb(251,226,0);fill-rule:nonzero;"/>
        </g>
        <g transform="matrix(1,0,0,1,7442,1714.88)">
            <rect x="73.299" y="-166.868" width="33.588" height="166.853" style="fill:rgb(251,226,0);fill-rule:nonzero;"/>
        </g>
        <g transform="matrix(1,0,0,1,7442,1714.88)">
            <path d="M115.624,-0.015L143.65,-0.015L143.65,-103.512L144.134,-103.512L157.695,-0.015L196.375,-0.015L196.375,-166.868L168.35,-166.868L168.35,-78.122L167.865,-78.122L156.242,-166.868L115.624,-166.868L115.624,-0.015Z" style="fill:rgb(251,226,0);fill-rule:nonzero;"/>
        </g>
        <g transform="matrix(1,0,0,1,7442,1714.88)">
            <path d="M200.517,-0.015L232.672,-0.015L234.364,-30.489L245.002,-30.489L246.695,-0.015L280.784,-0.015L264.344,-166.868L216.957,-166.868L200.517,-0.015ZM235.332,-58.031L239.442,-139.326L239.925,-139.326L244.035,-58.031L235.332,-58.031Z" style="fill:rgb(251,226,0);fill-rule:nonzero;"/>
        </g>
        <g transform="matrix(1,0,0,1,7442,1714.88)">
            <path d="M284.926,-0.015L312.952,-0.015L312.952,-103.512L313.436,-103.512L326.997,-0.015L365.677,-0.015L365.677,-166.868L337.652,-166.868L337.652,-78.122L337.167,-78.122L325.544,-166.868L284.926,-166.868L284.926,-0.015Z" style="fill:rgb(251,226,0);fill-rule:nonzero;"/>
        </g>
        <g transform="matrix(1,0,0,1,7442,1714.88)">
            <path d="M446.7,-104.015L446.7,-132.058C446.7,-155.032 432.685,-169.287 409.465,-169.287C386.979,-169.287 373.205,-155.032 373.205,-132.071L373.205,-34.843C373.205,-14.043 384.562,-0.499 403.41,1.92L399.803,10.869L403.67,10.869C405.603,10.869 407.053,11.597 407.053,13.783C407.053,17.185 405.361,18.155 400.045,18.155L392.554,18.155L392.554,30.943L410.436,30.943C419.86,30.943 427.351,28.53 427.351,18.637C427.351,9.427 422.277,6.784 411.161,6.303L412.852,2.407C433.893,0.952 446.7,-13.076 446.7,-34.843L446.7,-69.913L413.837,-69.913L413.837,-31.941C413.837,-27.345 412.866,-25.652 410.437,-25.652C407.519,-25.652 406.793,-27.345 406.793,-31.941L406.793,-134.973C406.793,-139.568 407.519,-141.261 410.421,-141.261C412.866,-141.261 413.837,-139.568 413.837,-134.973L413.837,-104.015L446.7,-104.015Z" style="fill:rgb(251,226,0);fill-rule:nonzero;"/>
        </g>
        <g transform="matrix(1,0,0,1,7442,1714.88)">
            <path d="M448.182,-0.015L480.337,-0.015L482.029,-30.489L492.667,-30.489L494.359,-0.015L528.449,-0.015L512.008,-166.868L464.622,-166.868L448.182,-0.015ZM482.996,-58.031L487.106,-139.326L487.59,-139.326L491.7,-58.031L482.996,-58.031Z" style="fill:rgb(251,226,0);fill-rule:nonzero;"/>
        </g>
        <g transform="matrix(1,0,0,1,7442,1714.88)">
            <path d="M567.405,2.403C591.103,2.403 604.635,-12.092 604.635,-35.78L604.635,-57.789C604.635,-74.961 598.352,-85.845 584.095,-95.52L570.075,-104.952C565.463,-107.854 563.521,-111.724 563.521,-116.561L563.521,-135.455C563.521,-139.568 564.249,-141.261 566.92,-141.261C569.107,-141.261 570.079,-139.568 570.079,-135.455L570.079,-111.513L602.942,-111.513L602.942,-132.06C602.942,-155.025 588.927,-169.287 565.95,-169.287C543.704,-169.287 529.93,-155.017 529.93,-132.04L529.93,-115.594C529.93,-98.422 536.213,-87.538 550.711,-77.864L564.492,-68.431C569.104,-65.529 571.046,-61.659 571.046,-56.822L571.046,-32.636C571.046,-27.557 570.075,-25.622 567.162,-25.622C564.007,-25.622 562.793,-27.557 562.793,-32.636L562.793,-62.385L529.93,-62.385L529.93,-35.792C529.93,-12.092 543.945,2.403 567.405,2.403Z" style="fill:rgb(251,226,0);fill-rule:nonzero;"/>
        </g>
        <g transform="matrix(1,0,0,1,7442,1780.8)">
            <rect x="3.552" y="-32.259" width="4.142" height="32.256" style="fill:white;fill-rule:nonzero;"/>
        </g>
        <g transform="matrix(1,0,0,1,7442,1780.8)">
            <path d="M18.617,-0.003L18.617,-12.907C18.617,-17.009 21.429,-20.282 25.625,-20.282C29.222,-20.282 31.297,-18.069 31.297,-13.599L31.297,-0.003L35.439,-0.003L35.439,-13.829C35.439,-20.742 32.125,-23.963 26.732,-23.963C23.504,-23.963 20.599,-22.398 18.939,-19.59L18.617,-19.59L18.156,-23.502L14.244,-23.502C14.474,-19.309 14.474,-15.162 14.474,-10.969L14.474,-0.003L18.617,-0.003Z" style="fill:white;fill-rule:nonzero;"/>
        </g>
        <g transform="matrix(1,0,0,1,7442,1780.8)">
            <path d="M52.724,-0.003L61.202,-23.502L56.871,-23.502L50.328,-4.053L50.098,-4.053L43.509,-23.502L39.085,-23.502L47.563,-0.003L52.724,-0.003Z" style="fill:white;fill-rule:nonzero;"/>
        </g>
        <g transform="matrix(1,0,0,1,7442,1780.8)">
            <path d="M85.444,-12.351C85.444,-19.682 81.21,-23.963 75.031,-23.963C68.023,-23.963 63.789,-18.621 63.789,-11.753C63.789,-4.884 68.069,0.458 75.077,0.458C79.688,0.458 83.143,-1.566 84.8,-5.576L81.117,-6.913C79.734,-4.146 77.752,-2.993 75.077,-2.993C71.112,-2.993 68.438,-5.853 68.023,-10.327L85.306,-10.327C85.398,-10.925 85.444,-11.661 85.444,-12.351ZM75.031,-20.512C78.581,-20.512 81.117,-18.021 81.486,-13.639L68.069,-13.639C68.622,-17.883 71.204,-20.512 75.031,-20.512Z" style="fill:white;fill-rule:nonzero;"/>
        </g>
        <g transform="matrix(1,0,0,1,7442,1780.8)">
            <path d="M99.227,0.458C104.437,0.458 107.889,-2.164 107.889,-6.174C107.889,-15.763 94.016,-11.937 94.016,-17.561C94.016,-19.313 95.492,-20.742 98.443,-20.742C100.795,-20.742 102.963,-19.728 103.839,-17.146L107.337,-18.391C106.186,-22.169 102.64,-23.963 98.443,-23.963C93.234,-23.963 90.013,-21.295 90.013,-17.561C90.013,-7.88 103.885,-11.706 103.885,-6.174C103.885,-4.192 102.271,-2.762 99.227,-2.762C96.691,-2.762 93.878,-3.915 92.958,-6.819L89.459,-5.575C90.795,-1.198 95.031,0.458 99.227,0.458Z" style="fill:white;fill-rule:nonzero;"/>
        </g>
        <g transform="matrix(1,0,0,1,7442,1780.8)">
            <path d="M122.222,0.458C124.112,0.458 125.679,0.09 127.476,-1.106L126.14,-3.961C124.941,-3.223 123.974,-2.993 122.867,-2.993C121.162,-2.993 119.872,-4.053 119.872,-6.358L119.872,-20.051L126.693,-20.051L126.693,-23.502L119.872,-23.502L119.872,-29.954L117.064,-29.954L116.052,-23.502L111.121,-23.502L111.121,-20.051L115.73,-20.051L115.73,-6.22C115.73,-1.843 118.399,0.458 122.222,0.458Z" style="fill:white;fill-rule:nonzero;"/>
        </g>
        <g transform="matrix(1,0,0,1,7442,1780.8)">
            <path d="M134.392,-26.734C136.142,-26.734 137.477,-28.023 137.477,-29.727C137.477,-31.43 136.142,-32.72 134.392,-32.72C132.643,-32.72 131.261,-31.43 131.261,-29.727C131.261,-28.023 132.643,-26.734 134.392,-26.734ZM136.463,-0.003L136.463,-23.502L132.321,-23.502L132.321,-0.003L136.463,-0.003Z" style="fill:white;fill-rule:nonzero;"/>
        </g>
        <g transform="matrix(1,0,0,1,7442,1780.8)">
            <path d="M147.064,-0.003L147.064,-13.414C147.064,-17.378 149.6,-20.282 153.196,-20.282C156.332,-20.282 158.13,-18.115 158.13,-13.968L158.13,-0.003L162.273,-0.003L162.273,-13.414C162.273,-17.378 164.809,-20.282 168.405,-20.282C171.541,-20.282 173.339,-18.115 173.339,-13.968L173.339,-0.003L177.482,-0.003L177.482,-14.521C177.482,-20.972 174.582,-23.963 169.604,-23.963C166.192,-23.963 163.425,-22.306 161.904,-19.36L161.582,-19.36C160.294,-22.444 157.992,-23.963 154.395,-23.963C151.536,-23.963 148.816,-22.536 147.34,-19.821L147.018,-19.821L146.603,-23.502L142.691,-23.502C142.921,-19.309 142.921,-15.162 142.921,-10.969L142.921,-0.003L147.064,-0.003Z" style="fill:white;fill-rule:nonzero;"/>
        </g>
        <g transform="matrix(1,0,0,1,7442,1780.8)">
            <path d="M204.213,-12.351C204.213,-19.682 199.978,-23.963 193.8,-23.963C186.791,-23.963 182.557,-18.621 182.557,-11.753C182.557,-4.884 186.837,0.458 193.846,0.458C198.457,0.458 201.912,-1.566 203.568,-5.576L199.886,-6.913C198.503,-4.146 196.52,-2.993 193.846,-2.993C189.881,-2.993 187.206,-5.853 186.791,-10.327L204.075,-10.327C204.167,-10.925 204.213,-11.661 204.213,-12.351ZM193.8,-20.512C197.35,-20.512 199.886,-18.021 200.255,-13.639L186.837,-13.639C187.391,-17.883 189.973,-20.512 193.8,-20.512Z" style="fill:white;fill-rule:nonzero;"/>
        </g>
        <g transform="matrix(1,0,0,1,7442,1780.8)">
            <path d="M213.661,-0.003L213.661,-12.907C213.661,-17.009 216.473,-20.282 220.669,-20.282C224.266,-20.282 226.341,-18.069 226.341,-13.599L226.341,-0.003L230.483,-0.003L230.483,-13.829C230.483,-20.742 227.169,-23.963 221.776,-23.963C218.548,-23.963 215.643,-22.398 213.983,-19.59L213.661,-19.59L213.2,-23.502L209.288,-23.502C209.518,-19.309 209.518,-15.162 209.518,-10.969L209.518,-0.003L213.661,-0.003Z" style="fill:white;fill-rule:nonzero;"/>
        </g>
        <g transform="matrix(1,0,0,1,7442,1780.8)">
            <path d="M245.692,0.458C247.581,0.458 249.148,0.09 250.946,-1.106L249.609,-3.961C248.411,-3.223 247.443,-2.993 246.337,-2.993C244.632,-2.993 243.341,-4.053 243.341,-6.358L243.341,-20.051L250.162,-20.051L250.162,-23.502L243.341,-23.502L243.341,-29.954L240.534,-29.954L239.521,-23.502L234.59,-23.502L234.59,-20.051L239.199,-20.051L239.199,-6.22C239.199,-1.843 241.868,0.458 245.692,0.458Z" style="fill:white;fill-rule:nonzero;"/>
        </g>
        <g transform="matrix(1,0,0,1,7442,1780.8)">
            <path d="M265.328,0.458C272.336,0.458 276.617,-4.883 276.617,-11.752C276.617,-18.622 272.336,-23.963 265.328,-23.963C258.32,-23.963 254.039,-18.622 254.039,-11.752C254.039,-4.883 258.32,0.458 265.328,0.458ZM265.328,-3.223C261.04,-3.223 258.182,-6.589 258.182,-11.752C258.182,-16.916 261.04,-20.282 265.328,-20.282C269.616,-20.282 272.475,-16.916 272.475,-11.752C272.475,-6.589 269.616,-3.223 265.328,-3.223Z" style="fill:white;fill-rule:nonzero;"/>
        </g>
        <g transform="matrix(1,0,0,1,7442,1780.8)">
            <path d="M290.538,0.458C295.748,0.458 299.2,-2.164 299.2,-6.174C299.2,-15.763 285.327,-11.937 285.327,-17.561C285.327,-19.313 286.803,-20.742 289.754,-20.742C292.106,-20.742 294.274,-19.728 295.15,-17.146L298.648,-18.391C297.497,-22.169 293.951,-23.963 289.754,-23.963C284.545,-23.963 281.323,-21.295 281.323,-17.561C281.323,-7.88 295.196,-11.706 295.196,-6.174C295.196,-4.192 293.582,-2.762 290.538,-2.762C288.002,-2.762 285.189,-3.915 284.269,-6.819L280.77,-5.575C282.106,-1.198 286.342,0.458 290.538,0.458Z" style="fill:white;fill-rule:nonzero;"/>
        </g>
        <g transform="matrix(1,0,0,1,7442,1780.8)">
            <path d="M336.301,-12.351C336.301,-19.682 332.066,-23.963 325.888,-23.963C318.879,-23.963 314.645,-18.621 314.645,-11.753C314.645,-4.884 318.925,0.458 325.934,0.458C330.545,0.458 333.999,-1.566 335.656,-5.576L331.974,-6.913C330.591,-4.146 328.608,-2.993 325.934,-2.993C321.969,-2.993 319.294,-5.853 318.879,-10.327L336.162,-10.327C336.255,-10.925 336.301,-11.661 336.301,-12.351ZM325.888,-20.512C329.438,-20.512 331.974,-18.021 332.343,-13.639L318.925,-13.639C319.479,-17.883 322.061,-20.512 325.888,-20.512Z" style="fill:white;fill-rule:nonzero;"/>
        </g>
        <g transform="matrix(1,0,0,1,7442,1780.8)">
            <path d="M366.722,-0.003C373.683,-0.003 377.18,-3.27 377.18,-8.664C377.18,-12.768 375.155,-15.257 371.563,-16.407L371.563,-16.637C374.003,-17.65 375.798,-20 375.798,-23.735C375.798,-29.636 371.656,-32.259 365.616,-32.259L353.221,-32.259L353.221,-0.003L366.722,-0.003ZM357.363,-28.67L365.477,-28.67C369.535,-28.67 371.656,-26.733 371.656,-23.367C371.656,-20 369.535,-18.11 365.477,-18.11L357.363,-18.11L357.363,-28.67ZM357.363,-14.613L366.492,-14.613C370.687,-14.613 373.038,-12.63 373.038,-9.079C373.038,-5.529 370.687,-3.592 366.491,-3.592L357.363,-3.592L357.363,-14.613Z" style="fill:white;fill-rule:nonzero;"/>
        </g>
        <g transform="matrix(1,0,0,1,7442,1780.8)">
            <path d="M401.423,-15.732C401.423,-20.972 397.833,-23.963 391.886,-23.963C387.044,-23.963 383.038,-21.662 381.979,-17.295L385.569,-16.008C386.537,-18.949 388.612,-20.512 391.886,-20.512C394.975,-20.512 397.419,-18.995 397.419,-15.594L397.419,-14.399L391.609,-14.077C384.97,-13.709 381.749,-10.995 381.749,-6.462C381.749,-2.303 384.786,0.458 389.396,0.458C393.177,0.458 395.943,-1.291 397.419,-4.241L397.741,-4.241L398.202,-0.003L401.653,-0.003C401.423,-4.206 401.423,-8.362 401.423,-12.559L401.423,-15.732ZM390.087,-3.085C387.413,-3.085 385.753,-4.426 385.753,-6.601C385.753,-9.376 388.243,-10.486 392.254,-10.764L397.419,-11.087C397.28,-6.462 394.145,-3.085 390.087,-3.085Z" style="fill:white;fill-rule:nonzero;"/>
        </g>
        <g transform="matrix(1,0,0,1,7442,1780.8)">
            <path d="M411.885,-0.003L411.885,-12.907C411.885,-17.009 414.697,-20.282 418.893,-20.282C422.49,-20.282 424.565,-18.069 424.565,-13.599L424.565,-0.003L428.707,-0.003L428.707,-13.829C428.707,-20.742 425.393,-23.963 420,-23.963C416.772,-23.963 413.867,-22.398 412.207,-19.59L411.885,-19.59L411.424,-23.502L407.512,-23.502C407.743,-19.309 407.743,-15.162 407.743,-10.969L407.743,-0.003L411.885,-0.003Z" style="fill:white;fill-rule:nonzero;"/>
        </g>
        <g transform="matrix(1,0,0,1,7442,1780.8)">
            <path d="M439.077,-0.003L439.077,-11.799L449.677,-0.003L455.207,-0.003L443.962,-12.351L454.977,-23.502L449.585,-23.502L439.077,-12.305L439.077,-32.259L434.934,-32.259L434.934,-0.003L439.077,-0.003Z" style="fill:white;fill-rule:nonzero;"/>
        </g>
        <g transform="matrix(1,0,0,1,7442,1780.8)">
            <path d="M461.432,-26.734C463.182,-26.734 464.517,-28.023 464.517,-29.727C464.517,-31.43 463.182,-32.72 461.432,-32.72C459.682,-32.72 458.301,-31.43 458.301,-29.727C458.301,-28.023 459.682,-26.734 461.432,-26.734ZM463.503,-0.003L463.503,-23.502L459.361,-23.502L459.361,-0.003L463.503,-0.003Z" style="fill:white;fill-rule:nonzero;"/>
        </g>
        <g transform="matrix(1,0,0,1,7442,1780.8)">
            <path d="M474.103,-0.003L474.103,-12.907C474.103,-17.009 476.916,-20.282 481.112,-20.282C484.708,-20.282 486.783,-18.069 486.783,-13.599L486.783,-0.003L490.925,-0.003L490.925,-13.829C490.925,-20.742 487.612,-23.963 482.219,-23.963C478.991,-23.963 476.086,-22.398 474.426,-19.59L474.103,-19.59L473.643,-23.502L469.731,-23.502C469.961,-19.309 469.961,-15.162 469.961,-10.969L469.961,-0.003L474.103,-0.003Z" style="fill:white;fill-rule:nonzero;"/>
        </g>
        <g transform="matrix(1,0,0,1,7442,1780.8)">
            <path d="M507.658,9.676C514.343,9.676 518.117,5.902 518.117,0.182L518.117,-11.429C518.117,-15.483 518.117,-19.308 518.348,-23.502L514.435,-23.502L513.975,-19.59L513.652,-19.59C512.039,-22.352 509.457,-23.963 505.906,-23.963C499.913,-23.963 496.001,-19.267 496.001,-12.213C496.001,-5.159 499.913,-0.464 505.906,-0.464C509.503,-0.464 512.039,-2.074 513.652,-4.837L513.975,-4.837L513.975,0.044C513.975,4.103 511.531,6.225 507.658,6.225C504.062,6.225 501.665,4.795 500.696,1.935L496.921,3.319C498.348,7.375 502.356,9.676 507.658,9.676ZM507.059,-4.145C502.817,-4.145 500.143,-7.465 500.143,-12.213C500.143,-16.962 502.817,-20.282 507.059,-20.282C511.301,-20.282 513.975,-17.008 513.975,-12.259C513.975,-7.511 511.301,-4.145 507.059,-4.145Z" style="fill:white;fill-rule:nonzero;"/>
        </g>
    </g>
</svg>
