<?xml version="1.0" encoding="UTF-8" standalone="no"?>
<!DOCTYPE svg PUBLIC "-//W3C//DTD SVG 1.1//EN" "http://www.w3.org/Graphics/SVG/1.1/DTD/svg11.dtd">
<svg width="100%" height="100%" viewBox="0 0 513 236" version="1.1" xmlns="http://www.w3.org/2000/svg" xmlns:xlink="http://www.w3.org/1999/xlink" xml:space="preserve" xmlns:serif="http://www.serif.com/" style="fill-rule:evenodd;clip-rule:evenodd;stroke-linejoin:round;stroke-miterlimit:2;">
    <g transform="matrix(1,0,0,1,-263.9,-229)">
        <g transform="matrix(1,0,0,1,270,519)">
            <path d="M417.8,-245.7L421.5,-258.6L437.2,-258.6C437.8,-258.6 438.4,-259 438.6,-259.6L440.4,-265.5L424,-265.5C424,-265.5 423.7,-265.5 423.5,-265.3C423.5,-265.2 423.2,-264.8 423.2,-264.8C423.2,-264.8 425,-271 427.6,-271L441,-271C441.6,-271 442.2,-271.4 442.4,-272L444.6,-279.5L428.4,-279.5C423.1,-279.1 419.3,-274.8 416.9,-266.4L410.5,-244.5L416.5,-244.5C417.1,-244.6 417.6,-245.1 417.8,-245.7Z" style="fill:white;fill-rule:nonzero;"/>
            <path d="M466.6,-245.5L458.4,-279.6L453.6,-279.6C452.6,-279.6 452.2,-279.1 452,-278.7L437,-244.7L442.9,-244.7C444.1,-244.7 444.3,-245.2 444.4,-245.6L447.8,-253.3L457,-253.3C458.1,-253.3 458.4,-252.5 458.4,-252.5L460.3,-244.6L465.2,-244.6C465.3,-244.6 466.8,-244.6 466.6,-245.5ZM456.3,-258.2L450.4,-258.2C450.2,-258.2 449.9,-257.7 449.9,-257.7L454.8,-268.8L457.2,-258.8C457,-258.8 457.2,-258.2 456.3,-258.2Z" style="fill:white;fill-rule:nonzero;"/>
            <path d="M500.2,-279.6C498.7,-279.6 497.9,-279.6 497.2,-278L487.7,-257.1C487.7,-257.1 487.6,-256.8 487.5,-256.8C487.3,-256.3 487.4,-255.7 487.4,-255.7L481.4,-279.6L475.7,-279.6C474.2,-279.6 473,-279.6 472.9,-277.8L469.5,-244.7L473.4,-244.7C476.1,-244.7 476.1,-244.7 476.2,-246.5L478.2,-266.2L483.4,-245.2L485.6,-245.2L486.7,-245.2C488.8,-245.2 488.8,-245.2 489.5,-246.6L498.3,-266L496.1,-244.7L500.2,-244.7C502.6,-244.7 502.6,-244.7 502.8,-246.5L506.2,-279.6L500.2,-279.6Z" style="fill:white;fill-rule:nonzero;"/>
        </g>
        <g transform="matrix(1,0,0,1,270,519)">
            <path d="M-5.9,-245.1L-5.9,-278.9L8.7,-278.9C17.2,-278.9 22.2,-274.4 22.2,-267.1C22.2,-259.9 17.2,-255.5 8.7,-255.5L3.7,-255.5L3.7,-245.1L-5.9,-245.1ZM3.7,-263L7.9,-263C10.7,-263 12.6,-264.4 12.6,-267.1C12.6,-269.8 10.7,-271.2 7.9,-271.2L3.7,-271.2L3.7,-263Z" style="fill:rgb(251,226,0);fill-rule:nonzero;"/>
            <path d="M25.1,-262C25.1,-272.3 31.4,-279.3 42,-279.3C52.6,-279.3 58.9,-272.3 58.9,-262C58.9,-251.6 52.6,-244.7 42,-244.7C31.4,-244.7 25.1,-251.7 25.1,-262ZM49.1,-262C49.1,-267.9 46.3,-271.4 41.9,-271.4C37.5,-271.4 34.7,-267.9 34.7,-262C34.7,-256.1 37.5,-252.6 41.9,-252.6C46.3,-252.6 49.1,-256.1 49.1,-262ZM38.4,-281.8L41.9,-290L52.3,-290L45.5,-281.8L38.4,-281.8Z" style="fill:rgb(251,226,0);fill-rule:nonzero;"/>
            <path d="M62,-253.9L71.1,-255.7C72.2,-252.9 74.5,-251.8 77.2,-251.8C79.9,-251.8 81.5,-252.9 81.5,-254.7C81.5,-260.3 62.7,-255.8 62.7,-269.7C62.7,-275.2 67.6,-279.4 76.2,-279.4C83.6,-279.4 88.8,-276.7 90.5,-270.7L81.2,-268.9C80.5,-271.3 78.8,-272.3 76.3,-272.3C74.1,-272.3 72.6,-271.2 72.6,-269.7C72.6,-264 91.4,-268.7 91.4,-254.5C91.4,-248.9 86.5,-244.7 77.2,-244.7C70.1,-244.7 63.6,-247.5 62,-253.9Z" style="fill:rgb(251,226,0);fill-rule:nonzero;"/>
            <rect x="94.2" y="-262" width="17.1" height="6.7" style="fill:rgb(251,226,0);fill-rule:nonzero;"/>
            <path d="M114.9,-262C114.9,-272.4 121.1,-279.3 130.1,-279.3C136.2,-279.3 141.2,-276.5 143.6,-270.3L139.6,-268.8C137.7,-273.5 134.5,-275.6 130.1,-275.6C123.6,-275.6 119.3,-270.4 119.3,-262C119.3,-253.5 123.5,-248.4 130.7,-248.4C134.1,-248.4 137.1,-249.8 139,-252L139,-259L130.9,-259.4L130.9,-262.9L143.3,-262.9L143.3,-250.7C140.4,-246.8 135.8,-244.8 130.6,-244.8C121.1,-244.7 114.9,-251.7 114.9,-262Z" style="fill:white;fill-rule:nonzero;"/>
            <path d="M150.4,-245.2L150.4,-278.9L163.4,-278.9C170.1,-278.9 174.5,-275.1 174.5,-268.6C174.5,-263.6 171.8,-260.3 167.4,-259.1L175,-245.2L170,-245.2L163,-258.6L154.7,-258.6L154.7,-245.2L150.4,-245.2ZM154.7,-262.3L163.2,-262.3C167.4,-262.3 170.1,-264.6 170.1,-268.7C170.1,-272.7 167.4,-275.1 163.2,-275.1L154.7,-275.1L154.7,-262.3Z" style="fill:white;fill-rule:nonzero;"/>
            <path d="M203.6,-245.2L200.9,-252.9L185.2,-252.9L182.5,-245.2L178,-245.2L190.1,-278.9L196.1,-278.9L208.2,-245.2L203.6,-245.2ZM186.4,-256.5L199.6,-256.5L193.1,-275.1L192.9,-275.1L186.4,-256.5Z" style="fill:white;fill-rule:nonzero;"/>
            <path d="M212.8,-245.1L212.8,-278.9L223.6,-278.9C233.2,-278.9 239.5,-272.2 239.5,-262C239.5,-251.9 233.1,-245.1 223.6,-245.1L212.8,-245.1ZM217.1,-249L223.6,-249C230.6,-249 235.2,-253.9 235.2,-262C235.2,-270.1 230.6,-275 223.6,-275L217.1,-275L217.1,-249Z" style="fill:white;fill-rule:nonzero;"/>
            <path d="M245.6,-258.7L245.6,-278.9L249.9,-278.9L249.9,-258.7C249.9,-251.2 254.1,-248.5 258.7,-248.5C263.3,-248.5 267.5,-251.2 267.5,-258.7L267.5,-278.9L271.8,-278.9L271.8,-258.7C271.8,-249.1 265.9,-244.7 258.7,-244.7C251.6,-244.7 245.6,-249.1 245.6,-258.7Z" style="fill:white;fill-rule:nonzero;"/>
            <path d="M301.7,-245.2L299,-252.9L283.3,-252.9L280.6,-245.2L276.2,-245.2L288.3,-278.9L294.3,-278.9L306.4,-245.2L301.7,-245.2ZM284.5,-256.5L297.7,-256.5L291.2,-275.1L291,-275.1L284.5,-256.5Z" style="fill:white;fill-rule:nonzero;"/>
            <path d="M337.8,-254.5C335.7,-248 331,-245.1 325.3,-244.7L324.7,-243L325,-243C327.6,-243 329.8,-241.5 329.8,-238.7C329.8,-236.1 327.7,-234.1 323.9,-234.1C321.7,-234.1 320,-234.7 318.6,-235.7L320.2,-238.2C321.4,-237.4 322.7,-236.9 324,-236.9C325.5,-236.9 326.6,-237.6 326.6,-238.7C326.6,-240 325.6,-240.5 324.3,-240.5C323.6,-240.5 323.1,-240.4 322.4,-240.2L321.7,-241.3L322.9,-244.7C314.9,-245.4 309.2,-252.2 309.2,-262C309.2,-272.4 315.5,-279.3 324.3,-279.3C330.3,-279.3 335.5,-276.3 337.7,-269.5L333.6,-268C331.8,-273.2 328.6,-275.5 324.3,-275.5C317.8,-275.5 313.6,-270.4 313.6,-262C313.6,-253.6 317.9,-248.5 324.3,-248.5C328.7,-248.5 332,-250.7 333.8,-256L337.8,-254.5Z" style="fill:white;fill-rule:nonzero;"/>
            <path d="M366.2,-245.2L363.5,-252.9L347.8,-252.9L345.1,-245.2L340.7,-245.2L352.8,-278.9L358.8,-278.9L370.9,-245.2L366.2,-245.2ZM351.5,-282L348.5,-282L348.5,-283.4C348.5,-287.4 350.6,-288.7 352.4,-288.7C355.3,-288.7 356.9,-285.6 358.5,-285.6C359.5,-285.6 359.9,-286.8 359.9,-288.7L362.9,-288.7L362.9,-287.2C362.9,-283 360.8,-282 359,-282C356,-282 354.5,-285.1 352.9,-285.1C352.1,-285.2 351.5,-284.4 351.5,-282ZM349,-256.5L362.2,-256.5L355.7,-275.1L355.5,-275.1L349,-256.5Z" style="fill:white;fill-rule:nonzero;"/>
            <path d="M373.5,-262C373.5,-272.4 379.8,-279.3 388.6,-279.3C397.4,-279.3 403.6,-272.4 403.6,-262C403.6,-251.6 397.4,-244.7 388.6,-244.7C379.8,-244.7 373.5,-251.7 373.5,-262ZM399.3,-262C399.3,-270.4 395.1,-275.5 388.6,-275.5C382.1,-275.5 377.9,-270.4 377.9,-262C377.9,-253.6 382.2,-248.5 388.6,-248.5C395.1,-248.6 399.3,-253.6 399.3,-262Z" style="fill:white;fill-rule:nonzero;"/>
        </g>
        <g transform="matrix(1,0,0,1,270,519)">
            <path d="M-5.4,-78.1C-5.4,-86.5 -0.9,-92.1 5.9,-92.1C9.9,-92.1 12.8,-90.3 14.7,-87.1L15.1,-87.1L15.1,-101.5L19.8,-101.5L19.8,-79C19.8,-74.2 19.8,-69.5 20.1,-64.7L15.6,-64.7L15.1,-69.2L14.7,-69.2C12.9,-66 9.9,-64.2 5.9,-64.2C-0.9,-64.2 -5.4,-69.8 -5.4,-78.1ZM15.1,-78.1C15.1,-84 12,-87.9 7.2,-87.9C2.4,-87.9 -0.7,-84 -0.7,-78.1C-0.7,-72.2 2.4,-68.4 7.2,-68.4C12,-68.4 15.1,-72.2 15.1,-78.1Z" style="fill:white;fill-rule:nonzero;"/>
        </g>
        <g transform="matrix(1,0,0,1,270,519)">
            <path d="M50.4,-76.5L30.7,-76.5C31.2,-71.4 34.2,-68.1 38.7,-68.1C41.7,-68.1 44,-69.4 45.6,-72.6L49.8,-71.1C47.9,-66.5 44,-64.2 38.7,-64.2C30.7,-64.2 25.8,-70.3 25.8,-78.1C25.8,-85.9 30.6,-92 38.6,-92C45.6,-92 50.5,-87.1 50.5,-78.8C50.6,-78 50.5,-77.2 50.4,-76.5ZM30.8,-80.3L46.1,-80.3C45.7,-85.3 42.8,-88.1 38.7,-88.1C34.3,-88.1 31.4,-85.1 30.8,-80.3Z" style="fill:white;fill-rule:nonzero;"/>
        </g>
        <g transform="matrix(1,0,0,1,270,519)">
            <path d="M69.8,-64.7L69.8,-101.5L83.2,-101.5C91.3,-101.5 96.1,-97.3 96.1,-90C96.1,-82.8 91.4,-78.6 83.2,-78.6L74.5,-78.6L74.5,-64.7L69.8,-64.7ZM74.5,-82.8L83,-82.8C88.3,-82.8 91.4,-85.4 91.4,-90C91.4,-94.6 88.3,-97.2 83,-97.2L74.5,-97.2L74.5,-82.8Z" style="fill:white;fill-rule:nonzero;"/>
        </g>
        <g transform="matrix(1,0,0,1,270,519)">
            <path d="M124.3,-76.5L104.6,-76.5C105.1,-71.4 108.1,-68.1 112.6,-68.1C115.6,-68.1 117.9,-69.4 119.5,-72.6L123.7,-71.1C121.8,-66.5 117.9,-64.2 112.6,-64.2C104.6,-64.2 99.7,-70.3 99.7,-78.1C99.7,-85.9 104.5,-92 112.5,-92C119.5,-92 124.4,-87.1 124.4,-78.8C124.5,-78 124.4,-77.2 124.3,-76.5ZM104.7,-80.3L120,-80.3C119.6,-85.3 116.7,-88.1 112.6,-88.1C108.2,-88.1 105.3,-85.1 104.7,-80.3Z" style="fill:white;fill-rule:nonzero;"/>
        </g>
        <g transform="matrix(1,0,0,1,270,519)">
            <path d="M149.7,-54.2L149.7,-69.2L149.3,-69.2C147.5,-66 144.6,-64.2 140.5,-64.2C133.6,-64.2 129.2,-69.8 129.2,-78.1C129.2,-86.5 133.7,-92 140.5,-92C144.5,-92 147.4,-90.2 149.3,-87L149.7,-87L150.2,-91.5L154.7,-91.5C154.4,-86.7 154.4,-82 154.4,-77.2L154.4,-54.2L149.7,-54.2ZM149.7,-78.1C149.7,-84 146.6,-87.9 141.8,-87.9C137,-87.9 133.9,-84 133.9,-78.1C133.9,-72.2 137,-68.4 141.8,-68.4C146.6,-68.4 149.7,-72.2 149.7,-78.1Z" style="fill:white;fill-rule:nonzero;"/>
        </g>
        <g transform="matrix(1,0,0,1,270,519)">
            <path d="M161.5,-75.7L161.5,-91.5L166.2,-91.5L166.2,-76C166.2,-70.9 168.6,-68.4 172.7,-68.4C177.5,-68.4 180.7,-72.1 180.7,-76.8L180.7,-91.5L185.4,-91.5L185.4,-79C185.4,-74.2 185.4,-69.5 185.7,-64.7L181.2,-64.7L180.7,-69.2L180.3,-69.2C178.4,-66 175.1,-64.2 171.4,-64.2C165.3,-64.2 161.5,-67.9 161.5,-75.7Z" style="fill:white;fill-rule:nonzero;"/>
        </g>
        <g transform="matrix(1,0,0,1,270,519)">
            <path d="M216,-76.5L196.3,-76.5C196.8,-71.4 199.8,-68.1 204.3,-68.1C207.3,-68.1 209.6,-69.4 211.2,-72.6L215.4,-71.1C213.5,-66.5 209.6,-64.2 204.3,-64.2C196.3,-64.2 191.4,-70.3 191.4,-78.1C191.4,-85.9 196.2,-92 204.2,-92C211.2,-92 216.1,-87.1 216.1,-78.8C216.1,-78 216.1,-77.2 216,-76.5ZM196.3,-80.3L211.6,-80.3C211.2,-85.3 208.3,-88.1 204.2,-88.1C199.9,-88.1 197,-85.1 196.3,-80.3Z" style="fill:white;fill-rule:nonzero;"/>
        </g>
        <g transform="matrix(1,0,0,1,270,519)">
            <path d="M222.2,-64.6L222.2,-77.2C222.2,-82 222.2,-86.7 221.9,-91.5L226.4,-91.5L226.9,-87L227.3,-87C229.2,-90.2 232.5,-92 236.2,-92C242.3,-92 246.1,-88.3 246.1,-80.4L246.1,-64.6L241.4,-64.6L241.4,-80.1C241.4,-85.2 239,-87.7 234.9,-87.7C230.1,-87.7 226.9,-84 226.9,-79.3L226.9,-64.6L222.2,-64.6Z" style="fill:white;fill-rule:nonzero;"/>
        </g>
        <g transform="matrix(1,0,0,1,270,519)">
            <path d="M251.9,-78.1C251.9,-85.9 256.8,-92 264.8,-92C272.8,-92 277.7,-85.9 277.7,-78.1C277.7,-70.3 272.8,-64.2 264.8,-64.2C256.8,-64.2 251.9,-70.3 251.9,-78.1ZM272.9,-78.1C272.9,-84 269.6,-87.8 264.8,-87.8C260,-87.8 256.7,-84 256.7,-78.1C256.7,-72.2 260,-68.4 264.8,-68.4C269.6,-68.4 272.9,-72.2 272.9,-78.1Z" style="fill:white;fill-rule:nonzero;"/>
        </g>
        <g transform="matrix(1,0,0,1,270,519)">
            <path d="M282.3,-71.1L286.3,-72.5C287.4,-69.2 290.6,-67.9 293.4,-67.9C296.9,-67.9 298.7,-69.5 298.7,-71.8C298.7,-78.1 282.9,-73.7 282.9,-84.8C282.9,-89.1 286.6,-92.1 292.5,-92.1C297.3,-92.1 301.3,-90.1 302.6,-85.7L298.6,-84.3C297.6,-87.2 295.1,-88.4 292.5,-88.4C289.1,-88.4 287.5,-86.8 287.5,-84.8C287.5,-78.4 303.3,-82.8 303.3,-71.8C303.3,-67.2 299.4,-64.2 293.4,-64.2C288.7,-64.2 283.8,-66.1 282.3,-71.1Z" style="fill:white;fill-rule:nonzero;"/>
        </g>
        <g transform="matrix(1,0,0,1,270,519)">
            <path d="M347.4,-64.7L344.5,-73.1L327.3,-73.1L324.4,-64.7L319.6,-64.7L332.8,-101.5L339.3,-101.5L352.5,-64.7L347.4,-64.7ZM328.6,-77.1L343,-77.1L336,-97.4L335.7,-97.4L328.6,-77.1Z" style="fill:white;fill-rule:nonzero;"/>
        </g>
        <g transform="matrix(1,0,0,1,270,519)">
            <path d="M357,-64.6L357,-77.2C357,-82 357,-86.7 356.7,-91.5L361.2,-91.5L361.7,-87L362.1,-87C364,-90.2 367.3,-92 371,-92C377.1,-92 380.9,-88.3 380.9,-80.4L380.9,-64.6L376.2,-64.6L376.2,-80.1C376.2,-85.2 373.8,-87.7 369.7,-87.7C364.9,-87.7 361.7,-84 361.7,-79.3L361.7,-64.6L357,-64.6Z" style="fill:white;fill-rule:nonzero;"/>
        </g>
        <g transform="matrix(1,0,0,1,270,519)">
            <path d="M386.8,-98.6C386.8,-100.5 388.4,-102 390.4,-102C392.4,-102 393.9,-100.5 393.9,-98.6C393.9,-96.7 392.4,-95.2 390.4,-95.2C388.3,-95.2 386.8,-96.7 386.8,-98.6ZM388,-64.7L388,-91.5L392.7,-91.5L392.7,-64.7L388,-64.7Z" style="fill:white;fill-rule:nonzero;"/>
        </g>
        <g transform="matrix(1,0,0,1,270,519)">
            <path d="M400,-64.7L400,-77.2C400,-82 400,-86.7 399.7,-91.5L404.2,-91.5L404.7,-87.3L405.1,-87.3C406.8,-90.4 409.9,-92 413.1,-92C417.2,-92 419.8,-90.3 421.3,-86.7L421.7,-86.7C423.4,-90.1 426.6,-92 430.5,-92C436.2,-92 439.5,-88.6 439.5,-81.2L439.5,-64.7L434.8,-64.7L434.8,-80.6C434.8,-85.3 432.8,-87.8 429.2,-87.8C425.1,-87.8 422.2,-84.5 422.2,-80L422.2,-64.7L417.5,-64.7L417.5,-80.6C417.5,-85.3 415.5,-87.8 411.9,-87.8C407.8,-87.8 404.9,-84.5 404.9,-80L404.9,-64.7L400,-64.7Z" style="fill:white;fill-rule:nonzero;"/>
        </g>
        <g transform="matrix(1,0,0,1,270,519)">
            <path d="M467.9,-79C467.9,-74.2 467.9,-69.5 468.2,-64.7L464.3,-64.7L463.8,-69.5L463.4,-69.5C461.7,-66.1 458.6,-64.1 454.3,-64.1C449,-64.1 445.6,-67.3 445.6,-72C445.6,-77.1 449.3,-80.2 456.8,-80.7L463.4,-81.1L463.4,-82.5C463.4,-86.4 460.6,-88.1 457.1,-88.1C453.4,-88.1 451,-86.3 449.9,-83L445.8,-84.5C447,-89.5 451.6,-92.1 457.1,-92.1C463.9,-92.1 468,-88.7 468,-82.7L468,-79L467.9,-79ZM463.3,-77.3L457.4,-76.9C452.8,-76.6 450,-75.3 450,-72.2C450,-69.7 451.9,-68.2 454.9,-68.2C459.6,-68.2 463.1,-72.1 463.3,-77.3Z" style="fill:white;fill-rule:nonzero;"/>
        </g>
        <g transform="matrix(1,0,0,1,270,519)">
            <path d="M473.8,-98.6C473.8,-100.5 475.4,-102 477.4,-102C479.4,-102 480.9,-100.5 480.9,-98.6C480.9,-96.7 479.4,-95.2 477.4,-95.2C475.4,-95.2 473.8,-96.7 473.8,-98.6ZM475.1,-64.7L475.1,-91.5L479.8,-91.5L479.8,-64.7L475.1,-64.7Z" style="fill:white;fill-rule:nonzero;"/>
        </g>
        <g transform="matrix(1,0,0,1,270,519)">
            <path d="M485.8,-71.1L489.8,-72.5C490.9,-69.2 494.1,-67.9 496.9,-67.9C500.4,-67.9 502.2,-69.5 502.2,-71.8C502.2,-78.1 486.4,-73.7 486.4,-84.8C486.4,-89.1 490.1,-92.1 496,-92.1C500.8,-92.1 504.8,-90.1 506.1,-85.7L502.1,-84.3C501.1,-87.2 498.6,-88.4 496,-88.4C492.6,-88.4 491,-86.8 491,-84.8C491,-78.4 506.8,-82.8 506.8,-71.8C506.8,-67.2 502.9,-64.2 496.9,-64.2C492.2,-64.2 487.3,-66.1 485.8,-71.1Z" style="fill:white;fill-rule:nonzero;"/>
        </g>
        <g transform="matrix(1,0,0,1,270,519)">
            <path d="M-6.1,-147.6L-6.1,-198.4C-6.1,-210.4 1.1,-217.8 12.8,-217.8C24.9,-217.8 32.2,-210.3 32.2,-198.4L32.2,-183.8L15.1,-183.8L15.1,-200C15.1,-202.4 14.6,-203.3 13.3,-203.3C11.8,-203.3 11.4,-202.4 11.4,-200L11.4,-146.2C11.4,-143.8 11.8,-142.9 13.3,-142.9C14.6,-142.9 15.1,-143.8 15.1,-146.2L15.1,-166L32.3,-166L32.3,-147.7C32.3,-135.7 25,-128.3 12.9,-128.3C1.1,-128.2 -6.1,-135.7 -6.1,-147.6Z" style="fill:rgb(251,226,0);fill-rule:nonzero;"/>
        </g>
        <g transform="matrix(1,0,0,1,270,519)">
            <path d="M35.4,-216.6L53,-216.6L53,-143.9L68,-143.9L68,-129.5L35.4,-129.5L35.4,-216.6Z" style="fill:rgb(251,226,0);fill-rule:nonzero;"/>
        </g>
        <g transform="matrix(1,0,0,1,270,519)">
            <path d="M79.1,-237.3L96.8,-237.3L82.5,-221.3L68.7,-221.3L79.1,-237.3ZM69.9,-216.6L87.5,-216.6L87.5,-129.5L69.9,-129.5L69.9,-216.6Z" style="fill:rgb(251,226,0);fill-rule:nonzero;"/>
        </g>
        <g transform="matrix(1,0,0,1,270,519)">
            <path d="M92,-216.6L113.2,-216.6L119.3,-170.3L119.6,-170.3L119.6,-216.6L134.2,-216.6L134.2,-129.5L114,-129.5L106.9,-183.5L106.6,-183.5L106.6,-129.5L92,-129.5L92,-216.6Z" style="fill:rgb(251,226,0);fill-rule:nonzero;"/>
        </g>
        <g transform="matrix(1,0,0,1,270,519)">
            <rect x="138.7" y="-216.6" width="17.6" height="87.1" style="fill:rgb(251,226,0);fill-rule:nonzero;"/>
        </g>
        <g transform="matrix(1,0,0,1,270,519)">
            <path d="M160.2,-147.6L160.2,-198.4C160.2,-210.4 167.4,-217.8 179.1,-217.8C191.2,-217.8 198.5,-210.3 198.5,-198.4L198.5,-183.8L181.3,-183.8L181.3,-200C181.3,-202.4 180.8,-203.3 179.5,-203.3C178,-203.3 177.6,-202.4 177.6,-200L177.6,-146.2C177.6,-143.8 178,-142.9 179.5,-142.9C180.8,-142.9 181.3,-143.8 181.3,-146.2L181.3,-166L198.5,-166L198.5,-147.7C198.5,-135.7 191.2,-128.3 179.1,-128.3C167.4,-128.2 160.2,-135.7 160.2,-147.6Z" style="fill:rgb(251,226,0);fill-rule:nonzero;"/>
        </g>
        <g transform="matrix(1,0,0,1,270,519)">
            <path d="M207.9,-216.6L232.7,-216.6L241.3,-129.5L223.5,-129.5L222.6,-145.4L217,-145.4L216.1,-129.5L199.3,-129.5L207.9,-216.6ZM222.1,-159.8L220,-202.2L219.7,-202.2L217.6,-159.8L222.1,-159.8Z" style="fill:rgb(251,226,0);fill-rule:nonzero;"/>
        </g>
        <g transform="matrix(1,0,0,1,270,519)">
            <path d="M260.9,-216.6L286,-216.6L288.9,-180.9L289.2,-180.9L292.2,-216.6L319.5,-216.6L319.5,-129.5L302.2,-129.5L302.2,-201.9L301.9,-201.9L295.5,-129.5L282.4,-129.5L276,-201.9L275.7,-201.9L275.7,-129.5L260.9,-129.5L260.9,-216.6Z" style="fill:rgb(251,226,0);fill-rule:nonzero;"/>
        </g>
        <g transform="matrix(1,0,0,1,270,519)">
            <path d="M324,-216.6L357.8,-216.6L357.8,-202.2L341.5,-202.2L341.5,-183.5L355.5,-183.5L355.5,-169.1L341.5,-169.1L341.5,-143.8L357.8,-143.8L357.8,-129.4L324,-129.4L324,-216.6ZM341.3,-237.3L359,-237.3L344.7,-221.3L330.8,-221.3L341.3,-237.3Z" style="fill:rgb(251,226,0);fill-rule:nonzero;"/>
        </g>
        <g transform="matrix(1,0,0,1,270,519)">
            <path d="M360.6,-216.6L380.3,-216.6C393.3,-216.6 399.9,-209.9 399.9,-196.9L399.9,-149.2C399.9,-136.2 393.3,-129.5 380.3,-129.5L360.6,-129.5L360.6,-216.6ZM378.8,-143.9C381.7,-143.9 382.3,-144.9 382.3,-149.1L382.3,-197.1C382.3,-201.3 381.7,-202.3 378.8,-202.3L378.2,-202.3L378.2,-144L378.8,-144L378.8,-143.9Z" style="fill:rgb(251,226,0);fill-rule:nonzero;"/>
        </g>
        <g transform="matrix(1,0,0,1,270,519)">
            <rect x="403.7" y="-216.6" width="17.6" height="87.1" style="fill:rgb(251,226,0);fill-rule:nonzero;"/>
        </g>
        <g transform="matrix(1,0,0,1,270,519)">
            <path d="M425.2,-147.6L425.2,-198.4C425.2,-210.4 432.4,-217.8 444.1,-217.8C456.2,-217.8 463.5,-210.3 463.5,-198.4L463.5,-183.8L446.3,-183.8L446.3,-200C446.3,-202.4 445.8,-203.3 444.5,-203.3C443,-203.3 442.6,-202.4 442.6,-200L442.6,-146.2C442.6,-143.8 443,-142.9 444.5,-142.9C445.8,-142.9 446.3,-143.8 446.3,-146.2L446.3,-166L463.5,-166L463.5,-147.7C463.5,-135.7 456.2,-128.3 444.1,-128.3C432.4,-128.2 425.2,-135.7 425.2,-147.6Z" style="fill:rgb(251,226,0);fill-rule:nonzero;"/>
        </g>
        <g transform="matrix(1,0,0,1,270,519)">
            <path d="M472.9,-216.6L497.7,-216.6L506.3,-129.5L488.5,-129.5L487.6,-145.4L482,-145.4L481.1,-129.5L464.3,-129.5L472.9,-216.6ZM487,-159.8L484.9,-202.2L484.6,-202.2L482.5,-159.8L487,-159.8Z" style="fill:rgb(251,226,0);fill-rule:nonzero;"/>
        </g>
    </g>
</svg>
