<?xml version="1.0" encoding="UTF-8" standalone="no"?>
<!DOCTYPE svg PUBLIC "-//W3C//DTD SVG 1.1//EN" "http://www.w3.org/Graphics/SVG/1.1/DTD/svg11.dtd">
<svg width="100%" height="100%" viewBox="0 0 559 145" version="1.1" xmlns="http://www.w3.org/2000/svg" xmlns:xlink="http://www.w3.org/1999/xlink" xml:space="preserve" xmlns:serif="http://www.serif.com/" style="fill-rule:evenodd;clip-rule:evenodd;stroke-linejoin:round;stroke-miterlimit:2;">
    <g transform="matrix(1,0,0,1,-6443.15,-452.24)">
        <g transform="matrix(1,0,0,1,5648,5057.61)">
            <g>
                <path d="M1013.52,-4582.54L1015.45,-4589.21L1023.54,-4589.21C1023.87,-4589.21 1024.16,-4589.44 1024.25,-4589.74L1025.18,-4592.8L1016.75,-4592.79C1016.75,-4592.79 1016.59,-4592.81 1016.51,-4592.68C1016.49,-4592.64 1016.38,-4592.44 1016.38,-4592.44C1016.38,-4592.44 1017.3,-4595.61 1018.63,-4595.61L1025.47,-4595.61C1025.8,-4595.61 1026.09,-4595.83 1026.18,-4596.13L1027.32,-4600L1018.97,-4600.01C1016.26,-4599.81 1014.29,-4597.56 1013.04,-4593.27L1009.72,-4581.99L1012.8,-4581.99C1013.14,-4581.99 1013.43,-4582.22 1013.52,-4582.54Z" style="fill:white;fill-rule:nonzero;"/>
                <path d="M1038.65,-4582.43L1034.45,-4600L1031.96,-4600C1031.43,-4600 1031.25,-4599.75 1031.13,-4599.52L1023.42,-4581.99L1026.44,-4581.99C1027.04,-4581.99 1027.14,-4582.25 1027.23,-4582.46L1028.99,-4586.44L1033.75,-4586.46C1034.32,-4586.46 1034.48,-4586.07 1034.48,-4586.07L1035.44,-4581.99L1037.98,-4581.99C1038,-4581.99 1038.75,-4581.99 1038.65,-4582.43ZM1033.35,-4588.98L1030.3,-4588.98C1030.17,-4588.98 1030.03,-4588.75 1030.03,-4588.75L1032.53,-4594.47L1033.75,-4589.31C1033.75,-4589.29 1033.81,-4588.98 1033.35,-4588.98Z" style="fill:white;fill-rule:nonzero;"/>
                <path d="M1055.99,-4600C1055.23,-4600 1054.83,-4600 1054.45,-4599.16L1049.56,-4588.39C1049.56,-4588.39 1049.5,-4588.25 1049.48,-4588.21C1049.38,-4587.98 1049.43,-4587.65 1049.43,-4587.65L1046.33,-4599.99L1043.4,-4599.99C1042.61,-4599.99 1042.03,-4599.99 1041.96,-4599.06L1040.21,-4581.98C1040.59,-4581.99 1042.2,-4581.98 1042.2,-4581.98C1043.57,-4581.98 1043.57,-4581.98 1043.65,-4582.9L1044.68,-4593.04L1047.38,-4582.23L1048.5,-4582.23L1049.06,-4582.23C1050.15,-4582.23 1050.15,-4582.23 1050.49,-4582.96L1055.02,-4592.97L1053.89,-4581.99L1055.99,-4581.99C1057.24,-4581.99 1057.24,-4581.99 1057.35,-4582.92L1059.1,-4600L1055.99,-4600Z" style="fill:white;fill-rule:nonzero;"/>
            </g>
            <g>
                <path d="M795.15,-4582.28L795.15,-4599.66L802.69,-4599.66C807.08,-4599.66 809.66,-4597.35 809.66,-4593.58C809.66,-4589.86 807.08,-4587.62 802.69,-4587.62L800.11,-4587.62L800.11,-4582.28L795.15,-4582.28ZM800.12,-4591.48L802.28,-4591.48C803.72,-4591.48 804.71,-4592.2 804.71,-4593.59C804.71,-4594.98 803.72,-4595.7 802.28,-4595.7L800.12,-4595.7L800.12,-4591.48Z" style="fill:rgb(252,227,0);fill-rule:nonzero;"/>
                <path d="M811.11,-4590.98C811.11,-4596.29 814.36,-4599.91 819.8,-4599.91C825.24,-4599.91 828.49,-4596.31 828.49,-4590.98C828.49,-4585.65 825.24,-4582.05 819.8,-4582.05C814.36,-4582.05 811.11,-4585.67 811.11,-4590.98ZM823.52,-4590.98C823.52,-4594.03 822.06,-4595.82 819.8,-4595.82C817.54,-4595.82 816.08,-4594.03 816.08,-4590.98C816.08,-4587.93 817.54,-4586.14 819.8,-4586.14C822.05,-4586.14 823.52,-4587.93 823.52,-4590.98ZM817.98,-4601.15L819.77,-4605.37L825.16,-4605.37L821.64,-4601.15L817.98,-4601.15Z" style="fill:rgb(252,227,0);fill-rule:nonzero;"/>
                <path d="M830.17,-4586.76L834.89,-4587.7C835.44,-4586.24 836.65,-4585.69 838.02,-4585.69C839.43,-4585.69 840.25,-4586.26 840.25,-4587.18C840.25,-4590.08 830.57,-4587.75 830.57,-4594.9C830.57,-4597.73 833.08,-4599.91 837.52,-4599.91C841.32,-4599.91 844.02,-4598.5 844.87,-4595.44L840.06,-4594.5C839.71,-4595.72 838.82,-4596.26 837.55,-4596.26C836.43,-4596.26 835.64,-4595.69 835.64,-4594.9C835.64,-4591.97 845.32,-4594.38 845.32,-4587.08C845.32,-4584.2 842.81,-4582.04 838.02,-4582.04C834.34,-4582.04 830.99,-4583.48 830.17,-4586.76Z" style="fill:rgb(252,227,0);fill-rule:nonzero;"/>
                <rect x="846.72" y="-4590.97" width="8.81" height="3.47" style="fill:rgb(252,227,0);fill-rule:nonzero;"/>
                <path d="M857.39,-4590.98C857.39,-4596.32 860.59,-4599.91 865.21,-4599.91C868.34,-4599.91 870.92,-4598.47 872.18,-4595.27L870.1,-4594.5C869.13,-4596.93 867.47,-4598 865.21,-4598C861.88,-4598 859.63,-4595.34 859.63,-4590.98C859.63,-4586.62 861.81,-4583.96 865.51,-4583.96C867.25,-4583.96 868.81,-4584.7 869.8,-4585.8L869.8,-4589.42L865.63,-4589.62L865.63,-4591.41L872.03,-4591.41L872.03,-4585.11C870.54,-4583.07 868.16,-4582.06 865.5,-4582.06C860.59,-4582.04 857.39,-4585.64 857.39,-4590.98Z" style="fill:white;fill-rule:nonzero;"/>
                <path d="M875.71,-4582.29L875.71,-4599.66L882.41,-4599.66C885.88,-4599.66 888.12,-4597.7 888.12,-4594.37C888.12,-4591.81 886.73,-4590.08 884.45,-4589.46L888.37,-4582.29L885.84,-4582.29L882.24,-4589.21L877.95,-4589.21L877.95,-4582.29L875.71,-4582.29ZM877.94,-4591.1L882.31,-4591.1C884.49,-4591.1 885.88,-4592.29 885.88,-4594.38C885.88,-4596.44 884.49,-4597.68 882.31,-4597.68L877.94,-4597.68L877.94,-4591.1Z" style="fill:white;fill-rule:nonzero;"/>
                <path d="M903.13,-4582.29L901.74,-4586.26L893.63,-4586.26L892.24,-4582.29L889.96,-4582.29L896.19,-4599.66L899.27,-4599.66L905.52,-4582.29L903.13,-4582.29ZM894.27,-4588.12L901.09,-4588.12L897.74,-4597.72L897.62,-4597.72L894.27,-4588.12Z" style="fill:white;fill-rule:nonzero;"/>
                <path d="M907.84,-4582.28L907.84,-4599.66L913.4,-4599.66C918.34,-4599.66 921.61,-4596.19 921.61,-4590.97C921.61,-4585.75 918.33,-4582.28 913.4,-4582.28L907.84,-4582.28ZM910.08,-4584.28L913.41,-4584.28C917.03,-4584.28 919.39,-4586.81 919.39,-4590.98C919.39,-4595.15 917.03,-4597.68 913.41,-4597.68L910.08,-4597.68L910.08,-4584.28Z" style="fill:white;fill-rule:nonzero;"/>
                <path d="M924.77,-4589.27L924.77,-4599.67L927,-4599.67L927,-4589.27C927,-4585.42 929.16,-4584.03 931.54,-4584.03C933.92,-4584.03 936.06,-4585.42 936.06,-4589.27L936.06,-4599.67L938.29,-4599.67L938.29,-4589.27C938.29,-4584.33 935.24,-4582.05 931.54,-4582.05C927.85,-4582.04 924.77,-4584.33 924.77,-4589.27Z" style="fill:white;fill-rule:nonzero;"/>
                <path d="M953.68,-4582.29L952.29,-4586.26L944.18,-4586.26L942.79,-4582.29L940.51,-4582.29L946.74,-4599.66L949.82,-4599.66L956.07,-4582.29L953.68,-4582.29ZM944.82,-4588.12L951.64,-4588.12L948.29,-4597.72L948.17,-4597.72L944.82,-4588.12Z" style="fill:white;fill-rule:nonzero;"/>
                <path d="M972.27,-4587.11C971.18,-4583.76 968.75,-4582.25 965.84,-4582.07L965.54,-4581.18L965.69,-4581.18C967.05,-4581.18 968.17,-4580.41 968.17,-4578.97C968.17,-4577.61 967.1,-4576.59 965.12,-4576.59C963.98,-4576.59 963.09,-4576.89 962.37,-4577.43L963.19,-4578.72C963.79,-4578.3 964.46,-4578.07 965.13,-4578.07C965.9,-4578.07 966.45,-4578.42 966.45,-4579.01C966.45,-4579.66 965.93,-4579.93 965.28,-4579.93C964.91,-4579.93 964.66,-4579.88 964.31,-4579.78L963.94,-4580.33L964.54,-4582.07C960.4,-4582.44 957.49,-4585.92 957.49,-4590.98C957.49,-4596.32 960.72,-4599.91 965.26,-4599.91C968.36,-4599.91 971.04,-4598.37 972.16,-4594.85L970.05,-4594.08C969.13,-4596.76 967.49,-4597.93 965.26,-4597.93C961.93,-4597.93 959.73,-4595.32 959.73,-4590.98C959.73,-4586.64 961.94,-4584.03 965.26,-4584.03C967.54,-4584.03 969.21,-4585.15 970.17,-4587.88L972.27,-4587.11Z" style="fill:white;fill-rule:nonzero;"/>
                <path d="M986.91,-4582.29L985.52,-4586.26L977.41,-4586.26L976.02,-4582.29L973.74,-4582.29L979.97,-4599.66L983.05,-4599.66L989.3,-4582.29L986.91,-4582.29ZM979.34,-4601.28L977.78,-4601.28L977.78,-4602C977.78,-4604.08 978.85,-4604.75 979.79,-4604.75C981.3,-4604.75 982.1,-4603.14 982.94,-4603.14C983.44,-4603.14 983.66,-4603.74 983.66,-4604.75L985.22,-4604.75L985.22,-4603.98C985.22,-4601.82 984.15,-4601.27 983.21,-4601.27C981.67,-4601.27 980.9,-4602.88 980.06,-4602.88C979.64,-4602.89 979.34,-4602.52 979.34,-4601.28ZM978.05,-4588.12L984.87,-4588.12L981.52,-4597.72L981.4,-4597.72L978.05,-4588.12Z" style="fill:white;fill-rule:nonzero;"/>
                <path d="M990.71,-4590.98C990.71,-4596.32 993.94,-4599.91 998.48,-4599.91C1003.02,-4599.91 1006.22,-4596.34 1006.22,-4590.98C1006.22,-4585.62 1003.02,-4582.05 998.48,-4582.05C993.94,-4582.05 990.71,-4585.64 990.71,-4590.98ZM1003.98,-4590.98C1003.98,-4595.32 1001.8,-4597.93 998.47,-4597.93C995.14,-4597.93 992.94,-4595.32 992.94,-4590.98C992.94,-4586.64 995.15,-4584.03 998.47,-4584.03C1001.8,-4584.03 1003.98,-4586.64 1003.98,-4590.98Z" style="fill:white;fill-rule:nonzero;"/>
            </g>
        </g>
        <g transform="matrix(1,0,0,1,5648,5057.61)">
            <path d="M797.4,-4562.67L822.21,-4562.67L825.08,-4527.39L825.33,-4527.39L828.32,-4562.67L855.25,-4562.67L855.25,-4476.66L838.17,-4476.66L838.17,-4548.09L837.92,-4548.09L831.56,-4476.66L818.6,-4476.66L812.24,-4548.09L811.99,-4548.09L811.99,-4476.66L797.4,-4476.66L797.4,-4562.67Z" style="fill:rgb(252,227,0);fill-rule:nonzero;"/>
            <path d="M859.72,-4562.67L893.13,-4562.67L893.13,-4548.46L877.05,-4548.46L877.05,-4530.01L890.89,-4530.01L890.89,-4515.8L877.05,-4515.8L877.05,-4490.87L893.13,-4490.87L893.13,-4476.66L859.72,-4476.66L859.72,-4562.67Z" style="fill:rgb(252,227,0);fill-rule:nonzero;"/>
            <path d="M895.87,-4562.67L915.32,-4562.67C928.16,-4562.67 934.64,-4556.06 934.64,-4543.22L934.64,-4496.1C934.64,-4483.26 928.16,-4476.65 915.32,-4476.65L895.87,-4476.65L895.87,-4562.67ZM913.82,-4490.87C916.69,-4490.87 917.31,-4491.87 917.31,-4495.98L917.31,-4543.35C917.31,-4547.46 916.69,-4548.46 913.82,-4548.46L913.2,-4548.46L913.2,-4490.87L913.82,-4490.87Z" style="fill:rgb(252,227,0);fill-rule:nonzero;"/>
            <rect x="938.38" y="-4562.67" width="17.33" height="86.01" style="fill:rgb(252,227,0);fill-rule:nonzero;"/>
            <path d="M959.57,-4494.61L959.57,-4544.72C959.57,-4556.56 966.68,-4563.92 978.27,-4563.92C990.24,-4563.92 997.47,-4556.57 997.47,-4544.72L997.47,-4530.26L980.52,-4530.26L980.52,-4546.22C980.52,-4548.59 980.02,-4549.46 978.77,-4549.46C977.27,-4549.46 976.9,-4548.59 976.9,-4546.22L976.9,-4493.12C976.9,-4490.75 977.27,-4489.88 978.77,-4489.88C980.02,-4489.88 980.52,-4490.75 980.52,-4493.12L980.52,-4512.69L997.47,-4512.69L997.47,-4494.61C997.47,-4482.77 990.24,-4475.41 978.27,-4475.41C966.67,-4475.41 959.57,-4482.77 959.57,-4494.61Z" style="fill:rgb(252,227,0);fill-rule:nonzero;"/>
            <rect x="1000.58" y="-4562.67" width="17.33" height="86.01" style="fill:rgb(252,227,0);fill-rule:nonzero;"/>
            <path d="M1022.38,-4562.67L1043.33,-4562.67L1049.31,-4516.92L1049.56,-4516.92L1049.56,-4562.67L1064.02,-4562.67L1064.02,-4476.66L1044.07,-4476.66L1037.09,-4530.01L1036.84,-4530.01L1036.84,-4476.66L1022.38,-4476.66L1022.38,-4562.67Z" style="fill:rgb(252,227,0);fill-rule:nonzero;"/>
            <path d="M1074.62,-4562.67L1099.05,-4562.67L1107.53,-4476.66L1089.95,-4476.66L1089.08,-4492.37L1083.59,-4492.37L1082.72,-4476.66L1066.14,-4476.66L1074.62,-4562.67ZM1088.58,-4506.58L1086.46,-4548.46L1086.21,-4548.46L1084.09,-4506.58L1088.58,-4506.58Z" style="fill:rgb(252,227,0);fill-rule:nonzero;"/>
            <path d="M1126.84,-4562.67L1160.25,-4562.67L1160.25,-4548.46L1144.17,-4548.46L1144.17,-4530.01L1158.01,-4530.01L1158.01,-4515.8L1144.17,-4515.8L1144.17,-4490.87L1160.25,-4490.87L1160.25,-4476.66L1126.84,-4476.66L1126.84,-4562.67Z" style="fill:rgb(252,227,0);fill-rule:nonzero;"/>
            <path d="M1175.96,-4475.91L1175.96,-4476.03C1167.61,-4478.27 1162.37,-4485.01 1162.37,-4495.35L1162.37,-4543.97C1162.37,-4556.31 1169.97,-4563.91 1181.82,-4563.91C1193.79,-4563.91 1201.14,-4556.31 1201.14,-4543.97L1201.14,-4495.35C1201.14,-4487.25 1198.02,-4481.14 1192.41,-4477.9L1192.41,-4474.91C1192.41,-4473.66 1193.28,-4472.92 1194.53,-4472.92L1201.14,-4472.92L1201.14,-4460.7L1191.79,-4460.7C1181.19,-4460.7 1175.96,-4465.57 1175.96,-4475.91ZM1183.81,-4493.49L1183.81,-4545.85C1183.81,-4548.47 1183.31,-4549.47 1181.82,-4549.47C1180.2,-4549.47 1179.7,-4548.47 1179.7,-4545.85L1179.7,-4493.49C1179.7,-4490.87 1180.2,-4489.87 1181.82,-4489.87C1183.31,-4489.87 1183.81,-4490.87 1183.81,-4493.49Z" style="fill:rgb(252,227,0);fill-rule:nonzero;"/>
            <path d="M1204.63,-4494.61L1204.63,-4562.67L1221.96,-4562.67L1221.96,-4493.24C1221.96,-4490.75 1222.46,-4489.87 1223.95,-4489.87C1225.32,-4489.87 1225.7,-4490.74 1225.7,-4493.24L1225.7,-4562.67L1242.78,-4562.67L1242.78,-4494.61C1242.78,-4482.89 1235.18,-4475.41 1223.71,-4475.41C1212.24,-4475.41 1204.63,-4482.89 1204.63,-4494.61Z" style="fill:rgb(252,227,0);fill-rule:nonzero;"/>
            <rect x="1246.88" y="-4562.67" width="17.33" height="86.01" style="fill:rgb(252,227,0);fill-rule:nonzero;"/>
            <path d="M1268.69,-4562.67L1289.64,-4562.67L1295.62,-4516.92L1295.87,-4516.92L1295.87,-4562.67L1310.33,-4562.67L1310.33,-4476.66L1290.38,-4476.66L1283.4,-4530.01L1283.15,-4530.01L1283.15,-4476.66L1268.69,-4476.66L1268.69,-4562.67Z" style="fill:rgb(252,227,0);fill-rule:nonzero;"/>
            <path d="M1320.93,-4562.67L1345.36,-4562.67L1353.84,-4476.66L1336.26,-4476.66L1335.39,-4492.37L1329.9,-4492.37L1329.03,-4476.66L1312.45,-4476.66L1320.93,-4562.67ZM1334.89,-4506.58L1332.77,-4548.46L1332.52,-4548.46L1330.4,-4506.58L1334.89,-4506.58Z" style="fill:rgb(252,227,0);fill-rule:nonzero;"/>
        </g>
    </g>
</svg>
