<?xml version="1.0" encoding="UTF-8" standalone="no"?>
<!DOCTYPE svg PUBLIC "-//W3C//DTD SVG 1.1//EN" "http://www.w3.org/Graphics/SVG/1.1/DTD/svg11.dtd">
<svg width="100%" height="100%" viewBox="0 0 714 331" version="1.1" xmlns="http://www.w3.org/2000/svg" xmlns:xlink="http://www.w3.org/1999/xlink" xml:space="preserve" xmlns:serif="http://www.serif.com/" style="fill-rule:evenodd;clip-rule:evenodd;stroke-linejoin:round;stroke-miterlimit:2;">
    <g transform="matrix(1,0,0,1,-5226.55,-1406.58)">
        <g transform="matrix(1,0,0,1,6902,4080)">
            <g>
                <path d="M-1251.76,-2629.11L-1248.02,-2642.04L-1232.33,-2642.04C-1231.68,-2642.05 -1231.13,-2642.48 -1230.95,-2643.07L-1229.15,-2649.02L-1245.51,-2649C-1245.51,-2649 -1245.83,-2649.04 -1245.97,-2648.79C-1246.01,-2648.71 -1246.23,-2648.33 -1246.23,-2648.33C-1246.23,-2648.33 -1244.44,-2654.48 -1241.87,-2654.48L-1228.6,-2654.48C-1227.95,-2654.48 -1227.4,-2654.91 -1227.22,-2655.49L-1225,-2663L-1241.2,-2663.02C-1246.45,-2662.64 -1250.29,-2658.28 -1252.71,-2649.94L-1259.15,-2628.05L-1253.17,-2628.05C-1252.5,-2628.05 -1251.93,-2628.5 -1251.76,-2629.11Z" style="fill:white;fill-rule:nonzero;"/>
                <path d="M-1203.01,-2628.9L-1211.16,-2663L-1215.98,-2663C-1217,-2663 -1217.36,-2662.52 -1217.58,-2662.08L-1232.54,-2628.06L-1226.68,-2628.06C-1225.52,-2628.06 -1225.32,-2628.57 -1225.14,-2628.96L-1221.72,-2636.69L-1212.48,-2636.73C-1211.38,-2636.73 -1211.07,-2635.97 -1211.07,-2635.97L-1209.2,-2628.06L-1204.27,-2628.06C-1204.27,-2628.05 -1202.8,-2628.05 -1203.01,-2628.9ZM-1213.3,-2641.6L-1218.91,-2641.6C-1218.91,-2641.6 -1219.16,-2641.59 -1219.22,-2641.59C-1219.47,-2641.59 -1219.75,-2641.14 -1219.75,-2641.14L-1214.9,-2652.23L-1212.53,-2642.22C-1212.52,-2642.2 -1212.41,-2641.6 -1213.3,-2641.6Z" style="fill:white;fill-rule:nonzero;"/>
                <path d="M-1169.35,-2663C-1170.82,-2663 -1171.6,-2663 -1172.34,-2661.38L-1181.83,-2640.49C-1181.83,-2640.49 -1181.96,-2640.23 -1181.99,-2640.14C-1182.18,-2639.69 -1182.09,-2639.06 -1182.09,-2639.06L-1188.1,-2663L-1193.79,-2663C-1195.33,-2663 -1196.45,-2663 -1196.59,-2661.19L-1199.99,-2628.06C-1199.26,-2628.09 -1196.12,-2628.06 -1196.12,-2628.06C-1193.47,-2628.06 -1193.47,-2628.06 -1193.3,-2629.85L-1191.3,-2649.52L-1186.06,-2628.54L-1183.89,-2628.54L-1182.81,-2628.54C-1180.69,-2628.54 -1180.69,-2628.54 -1180.03,-2629.95L-1171.23,-2649.38L-1173.41,-2628.07L-1169.34,-2628.07C-1166.92,-2628.07 -1166.92,-2628.07 -1166.7,-2629.88L-1163.3,-2663.01C-1165.94,-2663 -1169.35,-2663 -1169.35,-2663Z" style="fill:white;fill-rule:nonzero;"/>
            </g>
            <g>
                <path d="M-1675.45,-2628.64L-1675.45,-2662.35L-1660.81,-2662.35C-1652.29,-2662.35 -1647.28,-2657.87 -1647.28,-2650.55C-1647.28,-2643.33 -1652.29,-2638.99 -1660.81,-2638.99L-1665.82,-2638.99L-1665.82,-2628.64L-1675.45,-2628.64ZM-1665.82,-2646.45L-1661.63,-2646.45C-1658.84,-2646.45 -1656.91,-2647.85 -1656.91,-2650.54C-1656.91,-2653.24 -1658.84,-2654.63 -1661.63,-2654.63L-1665.82,-2654.63L-1665.82,-2646.45Z" style="fill:rgb(251,226,0);fill-rule:nonzero;"/>
                <path d="M-1644.49,-2645.49C-1644.49,-2655.79 -1638.18,-2662.82 -1627.64,-2662.82C-1617.1,-2662.82 -1610.79,-2655.84 -1610.79,-2645.49C-1610.79,-2635.14 -1617.1,-2628.16 -1627.64,-2628.16C-1638.18,-2628.16 -1644.49,-2635.19 -1644.49,-2645.49ZM-1620.42,-2645.49C-1620.42,-2651.41 -1623.26,-2654.88 -1627.64,-2654.88C-1632.02,-2654.88 -1634.86,-2651.41 -1634.86,-2645.49C-1634.86,-2639.57 -1632.02,-2636.1 -1627.64,-2636.1C-1623.26,-2636.1 -1620.42,-2639.57 -1620.42,-2645.49ZM-1631.16,-2665.23L-1627.69,-2673.42L-1617.24,-2673.42L-1624.08,-2665.23L-1631.16,-2665.23Z" style="fill:rgb(251,226,0);fill-rule:nonzero;"/>
                <path d="M-1607.52,-2637.3L-1598.37,-2639.13C-1597.31,-2636.29 -1594.95,-2635.23 -1592.3,-2635.23C-1589.56,-2635.23 -1587.97,-2636.34 -1587.97,-2638.12C-1587.97,-2643.75 -1606.75,-2639.23 -1606.75,-2653.09C-1606.75,-2658.58 -1601.89,-2662.82 -1593.27,-2662.82C-1585.9,-2662.82 -1580.65,-2660.08 -1579.02,-2654.15L-1588.36,-2652.32C-1589.03,-2654.68 -1590.77,-2655.74 -1593.22,-2655.74C-1595.39,-2655.74 -1596.93,-2654.63 -1596.93,-2653.09C-1596.93,-2647.41 -1578.15,-2652.08 -1578.15,-2637.92C-1578.15,-2632.33 -1583.01,-2628.15 -1592.31,-2628.15C-1599.43,-2628.16 -1605.93,-2630.95 -1607.52,-2637.3Z" style="fill:rgb(251,226,0);fill-rule:nonzero;"/>
                <rect x="-1575.4" y="-2645.49" width="17.09" height="6.74" style="fill:rgb(251,226,0);fill-rule:nonzero;"/>
                <path d="M-1554.69,-2645.49C-1554.69,-2655.84 -1548.48,-2662.82 -1539.52,-2662.82C-1533.45,-2662.82 -1528.45,-2660.03 -1525.99,-2653.82L-1530.03,-2652.33C-1531.91,-2657.05 -1535.13,-2659.12 -1539.52,-2659.12C-1545.97,-2659.12 -1550.35,-2653.97 -1550.35,-2645.49C-1550.35,-2637.02 -1546.11,-2631.86 -1538.94,-2631.86C-1535.57,-2631.86 -1532.54,-2633.3 -1530.61,-2635.42L-1530.61,-2642.45L-1538.7,-2642.84L-1538.7,-2646.31L-1526.28,-2646.31L-1526.28,-2634.08C-1529.17,-2630.13 -1533.79,-2628.16 -1538.94,-2628.16C-1548.48,-2628.16 -1554.69,-2635.14 -1554.69,-2645.49Z" style="fill:white;fill-rule:nonzero;"/>
                <path d="M-1519.16,-2628.64L-1519.16,-2662.35L-1506.16,-2662.35C-1499.42,-2662.35 -1495.09,-2658.55 -1495.09,-2652.09C-1495.09,-2647.13 -1497.79,-2643.76 -1502.22,-2642.56L-1494.61,-2628.64L-1499.52,-2628.64L-1506.5,-2642.07L-1514.83,-2642.07L-1514.83,-2628.64L-1519.16,-2628.64ZM-1514.83,-2645.73L-1506.36,-2645.73C-1502.12,-2645.73 -1499.43,-2648.04 -1499.43,-2652.09C-1499.43,-2656.09 -1502.13,-2658.49 -1506.36,-2658.49L-1514.83,-2658.49L-1514.83,-2645.73Z" style="fill:white;fill-rule:nonzero;"/>
                <path d="M-1465.95,-2628.64L-1468.65,-2636.34L-1484.39,-2636.34L-1487.09,-2628.64L-1491.52,-2628.64L-1479.43,-2662.35L-1473.46,-2662.35L-1461.33,-2628.64L-1465.95,-2628.64ZM-1483.14,-2639.95L-1469.9,-2639.95L-1476.4,-2658.58L-1476.64,-2658.58L-1483.14,-2639.95Z" style="fill:white;fill-rule:nonzero;"/>
                <path d="M-1456.81,-2628.64L-1456.81,-2662.35L-1446.02,-2662.35C-1436.44,-2662.35 -1430.08,-2655.61 -1430.08,-2645.5C-1430.08,-2635.39 -1436.44,-2628.65 -1446.02,-2628.65L-1456.81,-2628.65L-1456.81,-2628.64ZM-1452.47,-2632.49L-1446.02,-2632.49C-1438.99,-2632.49 -1434.42,-2637.4 -1434.42,-2645.49C-1434.42,-2653.58 -1438.99,-2658.49 -1446.02,-2658.49L-1452.47,-2658.49L-1452.47,-2632.49Z" style="fill:white;fill-rule:nonzero;"/>
                <path d="M-1423.97,-2642.17L-1423.97,-2662.34L-1419.64,-2662.34L-1419.64,-2642.17C-1419.64,-2634.71 -1415.45,-2632.01 -1410.83,-2632.01C-1406.21,-2632.01 -1402.07,-2634.71 -1402.07,-2642.17L-1402.07,-2662.34L-1397.74,-2662.34L-1397.74,-2642.17C-1397.74,-2632.59 -1403.66,-2628.16 -1410.84,-2628.16C-1418,-2628.16 -1423.97,-2632.58 -1423.97,-2642.17Z" style="fill:white;fill-rule:nonzero;"/>
                <path d="M-1367.87,-2628.64L-1370.57,-2636.34L-1386.31,-2636.34L-1389.01,-2628.64L-1393.44,-2628.64L-1381.35,-2662.35L-1375.38,-2662.35L-1363.25,-2628.64L-1367.87,-2628.64ZM-1385.06,-2639.95L-1371.82,-2639.95L-1378.32,-2658.58L-1378.56,-2658.58L-1385.06,-2639.95Z" style="fill:white;fill-rule:nonzero;"/>
                <path d="M-1331.81,-2637.98C-1333.93,-2631.48 -1338.65,-2628.54 -1344.28,-2628.21L-1344.86,-2626.48L-1344.57,-2626.48C-1341.92,-2626.48 -1339.76,-2624.99 -1339.76,-2622.19C-1339.76,-2619.54 -1341.83,-2617.57 -1345.68,-2617.57C-1347.89,-2617.57 -1349.63,-2618.15 -1351.02,-2619.21L-1349.43,-2621.71C-1348.27,-2620.89 -1346.97,-2620.46 -1345.67,-2620.46C-1344.18,-2620.46 -1343.12,-2621.13 -1343.12,-2622.29C-1343.12,-2623.54 -1344.13,-2624.07 -1345.38,-2624.07C-1346.1,-2624.07 -1346.58,-2623.97 -1347.26,-2623.78L-1347.98,-2624.84L-1346.82,-2628.21C-1354.86,-2628.93 -1360.49,-2635.67 -1360.49,-2645.5C-1360.49,-2655.85 -1354.23,-2662.83 -1345.42,-2662.83C-1339.4,-2662.83 -1334.2,-2659.84 -1332.03,-2653.01L-1336.12,-2651.52C-1337.9,-2656.72 -1341.08,-2658.98 -1345.41,-2658.98C-1351.86,-2658.98 -1356.15,-2653.92 -1356.15,-2645.5C-1356.15,-2637.08 -1351.86,-2632.02 -1345.41,-2632.02C-1340.98,-2632.02 -1337.75,-2634.19 -1335.88,-2639.48L-1331.81,-2637.98Z" style="fill:white;fill-rule:nonzero;"/>
                <path d="M-1303.4,-2628.64L-1306.1,-2636.34L-1321.84,-2636.34L-1324.54,-2628.64L-1328.97,-2628.64L-1316.88,-2662.35L-1310.91,-2662.35L-1298.78,-2628.64L-1303.4,-2628.64ZM-1318.08,-2665.47L-1321.11,-2665.47L-1321.11,-2666.87C-1321.11,-2670.91 -1319.04,-2672.21 -1317.21,-2672.21C-1314.27,-2672.21 -1312.73,-2669.08 -1311.1,-2669.08C-1310.14,-2669.08 -1309.7,-2670.24 -1309.7,-2672.21L-1306.67,-2672.21L-1306.67,-2670.72C-1306.67,-2666.53 -1308.74,-2665.47 -1310.57,-2665.47C-1313.56,-2665.47 -1315.05,-2668.6 -1316.69,-2668.6C-1317.51,-2668.6 -1318.08,-2667.88 -1318.08,-2665.47ZM-1320.59,-2639.95L-1307.35,-2639.95L-1313.85,-2658.58L-1314.09,-2658.58L-1320.59,-2639.95Z" style="fill:white;fill-rule:nonzero;"/>
                <path d="M-1296.03,-2645.49C-1296.03,-2655.84 -1289.77,-2662.82 -1280.96,-2662.82C-1272.15,-2662.82 -1265.94,-2655.89 -1265.94,-2645.49C-1265.94,-2635.09 -1272.15,-2628.16 -1280.96,-2628.16C-1289.77,-2628.16 -1296.03,-2635.14 -1296.03,-2645.49ZM-1270.27,-2645.49C-1270.27,-2653.92 -1274.51,-2658.97 -1280.96,-2658.97C-1287.41,-2658.97 -1291.7,-2653.91 -1291.7,-2645.49C-1291.7,-2637.07 -1287.41,-2632.01 -1280.96,-2632.01C-1274.51,-2632.01 -1270.27,-2637.06 -1270.27,-2645.49Z" style="fill:white;fill-rule:nonzero;"/>
            </g>
        </g>
        <g transform="matrix(1,0,0,1,6902,4080)">
            <g transform="matrix(1,0,0,1,-1675.45,-2423.68)">
                <path d="M4.369,-0.015L37.957,-0.015L37.957,-70.154L42.084,-70.154C66.991,-70.154 79.557,-82.959 79.557,-107.862L79.557,-129.161C79.557,-154.064 66.991,-166.868 42.084,-166.868L4.369,-166.868L4.369,-0.015ZM37.957,-97.696L37.957,-139.326L39.171,-139.326C44.755,-139.326 45.968,-137.39 45.968,-129.403L45.968,-107.862C45.968,-99.875 44.755,-97.696 39.171,-97.696L37.957,-97.696Z" style="fill:rgb(251,226,0);fill-rule:nonzero;"/>
                <path d="M120.69,2.403C144.387,2.403 157.919,-12.092 157.919,-35.78L157.919,-57.789C157.919,-74.961 151.637,-85.845 137.38,-95.52L123.36,-104.952C118.748,-107.854 116.806,-111.724 116.806,-116.561L116.806,-135.455C116.806,-139.568 117.534,-141.261 120.204,-141.261C122.392,-141.261 123.364,-139.568 123.364,-135.455L123.364,-111.513L156.226,-111.513L156.226,-132.06C156.226,-155.025 142.211,-169.287 119.235,-169.287C96.988,-169.287 83.215,-155.017 83.215,-132.04L83.215,-115.594C83.215,-98.422 89.498,-87.538 103.996,-77.864L117.777,-68.431C122.389,-65.529 124.331,-61.659 124.331,-56.822L124.331,-32.636C124.331,-27.557 123.36,-25.622 120.447,-25.622C117.291,-25.622 116.078,-27.557 116.078,-32.636L116.078,-62.385L83.215,-62.385L83.215,-35.792C83.215,-12.092 97.23,2.403 120.69,2.403Z" style="fill:rgb(251,226,0);fill-rule:nonzero;"/>
                <rect x="163.512" y="-166.868" width="33.588" height="166.853" style="fill:rgb(251,226,0);fill-rule:nonzero;"/>
                <path d="M240.877,2.403C264.109,2.403 278.124,-11.851 278.124,-34.815L278.124,-69.894L245.261,-69.894L245.261,-31.912C245.261,-27.315 244.289,-25.622 241.86,-25.622C238.942,-25.622 238.217,-27.315 238.217,-31.912L238.217,-134.971C238.217,-139.568 238.942,-141.261 241.845,-141.261C244.289,-141.261 245.261,-139.568 245.261,-134.971L245.261,-104.015L278.124,-104.015L278.124,-132.058C278.124,-155.032 264.109,-169.287 240.889,-169.287C218.402,-169.287 204.629,-155.032 204.629,-132.068L204.629,-34.815C204.629,-11.851 218.402,2.403 240.877,2.403Z" style="fill:rgb(251,226,0);fill-rule:nonzero;"/>
                <path d="M320.707,2.403C343.922,2.403 358.179,-12.334 358.179,-36.267L358.179,-130.616C358.179,-154.549 343.922,-169.287 320.707,-169.287C297.731,-169.287 282.991,-154.549 282.991,-130.616L282.991,-36.267C282.991,-12.334 297.731,2.403 320.707,2.403ZM320.707,-25.622C317.551,-25.622 316.579,-27.557 316.579,-32.638L316.579,-134.245C316.579,-139.326 317.551,-141.261 320.707,-141.261C323.62,-141.261 324.591,-139.326 324.591,-134.245L324.591,-32.638C324.591,-27.557 323.62,-25.622 320.707,-25.622Z" style="fill:rgb(251,226,0);fill-rule:nonzero;"/>
                <path d="M365.707,-0.015L428.077,-0.015L428.077,-27.557L399.296,-27.557L399.296,-166.868L365.707,-166.868L365.707,-0.015Z" style="fill:rgb(251,226,0);fill-rule:nonzero;"/>
                <path d="M468.725,2.403C491.941,2.403 506.198,-12.334 506.198,-36.267L506.198,-130.616C506.198,-154.549 491.941,-169.287 468.725,-169.287C445.75,-169.287 431.009,-154.549 431.009,-130.616L431.009,-36.267C431.009,-12.334 445.75,2.403 468.725,2.403ZM468.725,-25.622C465.569,-25.622 464.598,-27.557 464.598,-32.638L464.598,-134.245C464.598,-139.326 465.569,-141.261 468.725,-141.261C471.638,-141.261 472.609,-139.326 472.609,-134.245L472.609,-32.638C472.609,-27.557 471.638,-25.622 468.725,-25.622Z" style="fill:rgb(251,226,0);fill-rule:nonzero;"/>
                <path d="M536.439,2.403C547.317,2.403 554.356,-2.428 557.983,-12.334L558.95,-12.334L558.95,-0.015L587.704,-0.015L587.704,-96.487L550.715,-96.487L550.715,-68.703L554.842,-68.703L554.842,-36.778C554.842,-28.526 553.871,-25.622 549.987,-25.622C547.075,-25.622 546.346,-27.558 546.346,-30.221L546.346,-134.242C546.346,-139.325 547.317,-141.261 550.473,-141.261C553.385,-141.261 554.356,-139.325 554.356,-134.242L554.356,-112.46L587.221,-112.46L587.221,-130.854C587.221,-154.549 572.965,-169.287 550.23,-169.287C527.498,-169.287 512.758,-154.549 512.758,-130.854L512.758,-28.284C512.758,-9.193 521.457,2.403 536.439,2.403Z" style="fill:rgb(251,226,0);fill-rule:nonzero;"/>
                <rect x="595.474" y="-166.868" width="33.588" height="166.853" style="fill:rgb(251,226,0);fill-rule:nonzero;"/>
                <path d="M633.204,-0.015L665.359,-0.015L667.052,-30.489L677.69,-30.489L679.382,-0.015L713.472,-0.015L697.031,-166.868L649.645,-166.868L633.204,-0.015ZM668.019,-58.031L672.129,-139.326L672.612,-139.326L676.723,-58.031L668.019,-58.031Z" style="fill:rgb(251,226,0);fill-rule:nonzero;"/>
            </g>
        </g>
        <g transform="matrix(1,0,0,1,6902,4080)">
            <g transform="matrix(1,0,0,1,-1675.46,-2343.52)">
                <path d="M30.697,-0.004L30.697,-4.528L9.456,-4.528L9.456,-18.129L28.431,-18.129L28.431,-22.653L9.456,-22.653L9.456,-35.122L30.697,-35.122L30.697,-39.646L4.365,-39.646L4.365,-0.004L30.697,-0.004Z" style="fill:white;"/>
                <path d="M48.259,0.563C54.662,0.563 58.904,-2.66 58.904,-7.588C58.904,-19.373 41.855,-14.67 41.855,-21.583C41.855,-23.736 43.669,-25.493 47.296,-25.493C50.186,-25.493 52.85,-24.246 53.927,-21.073L58.226,-22.603C56.812,-27.245 52.453,-29.45 47.296,-29.45C40.894,-29.45 36.934,-26.171 36.934,-21.583C36.934,-9.684 53.984,-14.387 53.984,-7.588C53.984,-5.151 52,-3.395 48.259,-3.395C45.142,-3.395 41.685,-4.812 40.554,-8.381L36.255,-6.851C37.896,-1.473 43.102,0.563 48.259,0.563Z" style="fill:white;"/>
                <path d="M77.766,0.563C83.317,0.563 88.358,-2.265 90.284,-8.154L85.413,-9.911C83.827,-5.775 81.108,-3.961 77.766,-3.961C72.498,-3.961 68.987,-8.098 68.987,-14.444C68.987,-20.79 72.498,-24.926 77.766,-24.926C81.108,-24.926 83.657,-23.113 85.13,-18.977L90.001,-20.733C88.132,-26.679 83.487,-29.45 77.766,-29.45C69.157,-29.45 63.896,-22.886 63.896,-14.444C63.896,-6.001 69.157,0.563 77.766,0.563Z" style="fill:white;"/>
                <path d="M108.753,0.563C117.366,0.563 122.627,-6.001 122.627,-14.444C122.627,-22.886 117.366,-29.45 108.753,-29.45C100.14,-29.45 94.879,-22.886 94.879,-14.444C94.879,-6.001 100.14,0.563 108.753,0.563ZM108.753,-3.961C103.483,-3.961 99.97,-8.098 99.97,-14.444C99.97,-20.79 103.483,-24.926 108.753,-24.926C114.023,-24.926 117.536,-20.79 117.536,-14.444C117.536,-8.098 114.023,-3.961 108.753,-3.961Z" style="fill:white;"/>
                <rect x="129.148" y="-39.646" width="5.091" height="39.642" style="fill:white;"/>
                <path d="M165.165,-19.335C165.165,-25.775 160.753,-29.45 153.444,-29.45C147.494,-29.45 142.57,-26.623 141.269,-21.255L145.681,-19.674C146.87,-23.289 149.42,-25.209 153.444,-25.209C157.241,-25.209 160.244,-23.345 160.244,-19.165L160.244,-17.697L153.104,-17.301C144.945,-16.849 140.986,-13.513 140.986,-7.942C140.986,-2.83 144.719,0.563 150.384,0.563C155.03,0.563 158.431,-1.586 160.244,-5.213L160.641,-5.213L161.207,-0.004L165.448,-0.004C165.165,-5.169 165.165,-10.278 165.165,-15.435L165.165,-19.335ZM151.234,-3.791C147.947,-3.791 145.907,-5.44 145.907,-8.112C145.907,-11.523 148.967,-12.888 153.897,-13.229L160.244,-13.626C160.074,-7.942 156.221,-3.791 151.234,-3.791Z" style="fill:white;"/>
                <path d="M187.369,-29.45C183.347,-29.45 180.175,-27.301 178.476,-23.227L178.136,-23.227L177.457,-28.884L172.649,-28.884C172.932,-23.731 172.932,-18.634 172.932,-13.481L172.932,-0.004L178.023,-0.004L178.023,-13.255C178.023,-21.867 182.951,-24.643 187.482,-24.643C188.275,-24.643 188.728,-24.643 189.635,-24.586L189.635,-29.394C188.672,-29.45 188.162,-29.45 187.369,-29.45Z" style="fill:white;"/>
                <path d="M233.815,-15.179C233.815,-24.189 228.611,-29.45 221.018,-29.45C212.405,-29.45 207.201,-22.885 207.201,-14.444C207.201,-6.002 212.461,0.563 221.075,0.563C226.741,0.563 230.987,-1.925 233.024,-6.853L228.498,-8.497C226.798,-5.095 224.361,-3.678 221.075,-3.678C216.201,-3.678 212.915,-7.193 212.405,-12.691L233.646,-12.691C233.759,-13.426 233.815,-14.331 233.815,-15.179ZM221.018,-25.209C225.381,-25.209 228.498,-22.148 228.951,-16.763L212.461,-16.763C213.141,-21.978 216.315,-25.209 221.018,-25.209Z" style="fill:white;"/>
                <path d="M280.942,-0.004L280.942,-4.528L259.701,-4.528L259.701,-18.129L278.676,-18.129L278.676,-22.653L259.701,-22.653L259.701,-35.122L280.942,-35.122L280.942,-39.646L254.61,-39.646L254.61,-0.004L280.942,-0.004Z" style="fill:white;"/>
                <path d="M298.56,0.563C302.867,0.563 306.04,-1.417 308.024,-4.811L308.42,-4.811L308.986,-0.004L313.794,-0.004C313.511,-5.158 313.511,-10.256 313.511,-15.41L313.511,-39.646L308.42,-39.646L308.42,-24.076L308.024,-24.076C306.04,-27.471 302.867,-29.45 298.56,-29.45C291.138,-29.45 286.33,-23.397 286.33,-14.391C286.33,-5.435 291.138,0.563 298.56,0.563ZM299.92,-3.961C294.764,-3.961 291.421,-8.041 291.421,-14.387C291.421,-20.733 294.764,-24.926 299.92,-24.926C305.077,-24.926 308.42,-20.733 308.42,-14.387C308.42,-8.041 305.077,-3.961 299.92,-3.961Z" style="fill:white;"/>
                <path d="M331.866,0.563C335.832,0.563 339.403,-1.36 341.443,-4.811L341.839,-4.811L342.405,-0.004L347.213,-0.004C346.93,-5.157 346.93,-10.253 346.93,-15.406L346.93,-28.884L341.839,-28.884L341.839,-13.028C341.839,-7.983 338.383,-3.961 333.226,-3.961C328.806,-3.961 326.256,-6.68 326.256,-12.175L326.256,-28.884L321.165,-28.884L321.165,-11.891C321.165,-3.396 325.237,0.563 331.866,0.563Z" style="fill:white;"/>
                <path d="M367.321,0.563C372.872,0.563 377.913,-2.265 379.839,-8.154L374.968,-9.911C373.382,-5.775 370.663,-3.961 367.321,-3.961C362.053,-3.961 358.542,-8.098 358.542,-14.444C358.542,-20.79 362.053,-24.926 367.321,-24.926C370.663,-24.926 373.212,-23.113 374.685,-18.977L379.556,-20.733C377.687,-26.679 373.042,-29.45 367.321,-29.45C358.712,-29.45 353.451,-22.886 353.451,-14.444C353.451,-6.001 358.712,0.563 367.321,0.563Z" style="fill:white;"/>
                <path d="M408.783,-19.335C408.783,-25.775 404.371,-29.45 397.062,-29.45C391.112,-29.45 386.188,-26.623 384.887,-21.255L389.299,-19.674C390.488,-23.289 393.038,-25.209 397.062,-25.209C400.859,-25.209 403.862,-23.345 403.862,-19.165L403.862,-17.697L396.722,-17.301C388.563,-16.849 384.604,-13.513 384.604,-7.942C384.604,-2.83 388.337,0.563 394.002,0.563C398.649,0.563 402.049,-1.586 403.862,-5.213L404.259,-5.213L404.825,-0.004L409.066,-0.004C408.783,-5.169 408.783,-10.278 408.783,-15.435L408.783,-19.335ZM394.852,-3.791C391.565,-3.791 389.525,-5.44 389.525,-8.112C389.525,-11.523 392.585,-12.888 397.515,-13.229L403.862,-13.626C403.692,-7.942 399.839,-3.791 394.852,-3.791Z" style="fill:white;"/>
                <path d="M429.004,0.563C434.555,0.563 439.597,-2.265 441.522,-8.154L436.651,-9.911C435.065,-5.775 432.346,-3.961 429.004,-3.961C423.737,-3.961 420.225,-8.098 420.225,-14.444C420.225,-20.79 423.737,-24.926 429.004,-24.926C432.346,-24.926 434.895,-23.113 436.368,-18.977L441.239,-20.733C439.37,-26.679 434.725,-29.45 429.004,-29.45C420.395,-29.45 415.134,-22.886 415.134,-14.444C415.134,-6.001 420.395,0.563 429.004,0.563Z" style="fill:white;"/>
                <path d="M450.305,-32.856C452.456,-32.856 454.097,-34.44 454.097,-36.534C454.097,-38.628 452.456,-40.212 450.305,-40.212C448.155,-40.212 446.457,-38.628 446.457,-36.534C446.457,-34.44 448.155,-32.856 450.305,-32.856ZM452.851,-0.004L452.851,-28.884L447.76,-28.884L447.76,-0.004L452.851,-0.004Z" style="fill:white;"/>
                <path d="M473.246,0.563C481.859,0.563 487.119,-6.001 487.119,-14.444C487.119,-22.886 481.859,-29.45 473.246,-29.45C464.632,-29.45 459.372,-22.886 459.372,-14.444C459.372,-6.001 464.632,0.563 473.246,0.563ZM473.246,-3.961C467.976,-3.961 464.462,-8.098 464.462,-14.444C464.462,-20.79 467.976,-24.926 473.246,-24.926C478.515,-24.926 482.029,-20.79 482.029,-14.444C482.029,-8.098 478.515,-3.961 473.246,-3.961Z" style="fill:white;"/>
                <path d="M498.731,-0.004L498.731,-15.863C498.731,-20.905 502.188,-24.926 507.345,-24.926C511.765,-24.926 514.315,-22.207 514.315,-16.713L514.315,-0.004L519.405,-0.004L519.405,-16.996C519.405,-25.492 515.333,-29.45 508.705,-29.45C504.738,-29.45 501.168,-27.528 499.128,-24.076L498.731,-24.076L498.165,-28.884L493.357,-28.884C493.64,-23.731 493.64,-18.634 493.64,-13.481L493.64,-0.004L498.731,-0.004Z" style="fill:white;"/>
                <path d="M550.049,-19.335C550.049,-25.775 545.637,-29.45 538.328,-29.45C532.377,-29.45 527.453,-26.623 526.153,-21.255L530.564,-19.674C531.754,-23.289 534.304,-25.209 538.328,-25.209C542.124,-25.209 545.128,-23.345 545.128,-19.165L545.128,-17.697L537.988,-17.301C529.829,-16.849 525.87,-13.513 525.87,-7.942C525.87,-2.83 529.603,0.563 535.267,0.563C539.914,0.563 543.314,-1.586 545.128,-5.213L545.524,-5.213L546.091,-0.004L550.332,-0.004C550.049,-5.169 550.049,-10.278 550.049,-15.435L550.049,-19.335ZM536.117,-3.791C532.831,-3.791 530.791,-5.44 530.791,-8.112C530.791,-11.523 533.851,-12.888 538.781,-13.229L545.128,-13.626C544.958,-7.942 541.104,-3.791 536.117,-3.791Z" style="fill:white;"/>
                <rect x="557.816" y="-39.646" width="5.091" height="39.642" style="fill:white;"/>
            </g>
        </g>
    </g>
</svg>
