<?xml version="1.0" encoding="UTF-8" standalone="no"?>
<!DOCTYPE svg PUBLIC "-//W3C//DTD SVG 1.1//EN" "http://www.w3.org/Graphics/SVG/1.1/DTD/svg11.dtd">
<svg width="100%" height="100%" viewBox="0 0 354 178" version="1.1" xmlns="http://www.w3.org/2000/svg" xmlns:xlink="http://www.w3.org/1999/xlink" xml:space="preserve" xmlns:serif="http://www.serif.com/" style="fill-rule:evenodd;clip-rule:evenodd;stroke-linejoin:round;stroke-miterlimit:2;">
    <g transform="matrix(1,0,0,1,-232.232,-2243.79)">
        <g transform="matrix(0.934732,0,0,1.60617,-254.391,3864.45)">
            <g transform="matrix(0.121463,0,0,0.0706872,500.492,-1000.65)">
                <g transform="matrix(577.963,0,0,577.963,154,712)">
                    <path d="M0.051,-0L0.177,-0C0.194,-0 0.208,-0.014 0.208,-0.031L0.208,-0.241C0.208,-0.265 0.227,-0.271 0.239,-0.251L0.388,-0.012C0.393,-0.005 0.401,-0 0.41,-0L0.521,-0C0.538,-0 0.552,-0.014 0.552,-0.031L0.552,-0.629C0.552,-0.646 0.538,-0.66 0.521,-0.66L0.395,-0.66C0.378,-0.66 0.364,-0.646 0.364,-0.629L0.364,-0.413C0.364,-0.39 0.345,-0.384 0.333,-0.404L0.184,-0.648C0.18,-0.655 0.171,-0.66 0.162,-0.66L0.051,-0.66C0.034,-0.66 0.02,-0.646 0.02,-0.629L0.02,-0.031C0.02,-0.014 0.034,-0 0.051,-0Z" style="fill:rgb(249,226,15);fill-rule:nonzero;"/>
                </g>
                <g transform="matrix(577.963,0,0,577.963,484.595,712)">
                    <path d="M0.02,-0.629L0.02,-0.031C0.02,-0.014 0.034,-0 0.051,-0L0.452,-0C0.469,-0 0.483,-0.014 0.483,-0.031L0.483,-0.141C0.483,-0.158 0.469,-0.167 0.452,-0.167L0.228,-0.167C0.217,-0.167 0.208,-0.176 0.208,-0.187L0.208,-0.228C0.208,-0.239 0.217,-0.248 0.228,-0.248L0.392,-0.248C0.409,-0.248 0.423,-0.258 0.423,-0.275L0.423,-0.383C0.423,-0.4 0.409,-0.413 0.392,-0.413L0.228,-0.414C0.217,-0.414 0.208,-0.423 0.208,-0.434L0.208,-0.473C0.208,-0.484 0.217,-0.493 0.228,-0.493L0.452,-0.493C0.469,-0.493 0.483,-0.502 0.483,-0.519L0.483,-0.629C0.483,-0.646 0.469,-0.66 0.452,-0.66L0.051,-0.66C0.034,-0.66 0.02,-0.646 0.02,-0.629Z" style="fill:rgb(249,226,15);fill-rule:nonzero;"/>
                </g>
                <g transform="matrix(577.963,0,0,577.963,775.31,712)">
                    <path d="M0.26,-0L0.308,-0C0.441,-0 0.548,-0.095 0.548,-0.24L0.548,-0.635C0.548,-0.649 0.537,-0.66 0.523,-0.66L0.386,-0.66C0.372,-0.66 0.361,-0.648 0.361,-0.634L0.361,-0.25C0.361,-0.199 0.334,-0.167 0.284,-0.167C0.234,-0.167 0.207,-0.199 0.207,-0.25L0.207,-0.634C0.207,-0.648 0.196,-0.66 0.182,-0.66L0.045,-0.66C0.031,-0.66 0.02,-0.649 0.02,-0.635L0.02,-0.24C0.02,-0.095 0.137,-0 0.26,-0Z" style="fill:rgb(249,226,15);fill-rule:nonzero;"/>
                </g>
                <g transform="matrix(577.963,0,0,577.963,1103.59,712)">
                    <path d="M0.05,-0L0.178,-0C0.197,-0 0.208,-0.011 0.208,-0.03L0.208,-0.184C0.208,-0.203 0.212,-0.209 0.231,-0.209L0.281,-0.209C0.321,-0.209 0.323,-0.172 0.328,-0.138L0.345,-0.032C0.348,-0.011 0.362,-0 0.383,-0L0.508,-0C0.528,-0 0.538,-0.012 0.535,-0.032L0.506,-0.202C0.496,-0.26 0.489,-0.282 0.467,-0.293C0.461,-0.297 0.46,-0.301 0.465,-0.306C0.496,-0.334 0.515,-0.378 0.515,-0.433L0.515,-0.476C0.515,-0.638 0.408,-0.66 0.313,-0.66L0.05,-0.66C0.031,-0.66 0.02,-0.649 0.02,-0.63L0.02,-0.03C0.02,-0.011 0.031,-0 0.05,-0ZM0.207,-0.465C0.207,-0.484 0.212,-0.49 0.231,-0.49L0.271,-0.49C0.316,-0.49 0.326,-0.477 0.326,-0.434C0.326,-0.389 0.317,-0.373 0.271,-0.373L0.232,-0.373C0.213,-0.373 0.208,-0.379 0.208,-0.399L0.207,-0.465Z" style="fill:rgb(249,226,15);fill-rule:nonzero;"/>
                </g>
                <g transform="matrix(577.963,0,0,577.963,1413.38,712)">
                    <path d="M0.337,0.008C0.528,0.008 0.652,-0.139 0.653,-0.332C0.654,-0.527 0.534,-0.67 0.337,-0.67C0.139,-0.67 0.019,-0.528 0.02,-0.333C0.021,-0.143 0.141,0.008 0.337,0.008ZM0.212,-0.328C0.211,-0.432 0.256,-0.5 0.336,-0.5C0.416,-0.5 0.461,-0.434 0.461,-0.328C0.461,-0.225 0.403,-0.162 0.337,-0.162C0.26,-0.162 0.213,-0.225 0.212,-0.328Z" style="fill:rgb(249,226,15);fill-rule:nonzero;"/>
                </g>
                <g transform="matrix(577.963,0,0,577.963,1802.35,712)">
                    <path d="M0.05,-0L0.178,-0C0.197,-0 0.208,-0.011 0.208,-0.03L0.208,-0.184C0.208,-0.203 0.212,-0.209 0.231,-0.209L0.311,-0.209C0.408,-0.209 0.515,-0.255 0.515,-0.413L0.515,-0.476C0.515,-0.638 0.408,-0.66 0.313,-0.66L0.05,-0.66C0.031,-0.66 0.02,-0.649 0.02,-0.63L0.02,-0.03C0.02,-0.011 0.031,-0 0.05,-0ZM0.207,-0.465C0.207,-0.484 0.212,-0.49 0.231,-0.49L0.271,-0.49C0.316,-0.49 0.326,-0.477 0.326,-0.434C0.326,-0.389 0.317,-0.373 0.271,-0.373L0.232,-0.373C0.213,-0.373 0.208,-0.379 0.208,-0.399L0.207,-0.465Z" style="fill:rgb(249,226,15);fill-rule:nonzero;"/>
                </g>
                <g transform="matrix(577.963,0,0,577.963,2111.56,712)">
                    <path d="M0.269,0.008C0.411,0.009 0.489,-0.069 0.492,-0.161C0.496,-0.297 0.429,-0.327 0.298,-0.4C0.236,-0.435 0.217,-0.451 0.216,-0.474C0.215,-0.499 0.232,-0.508 0.252,-0.508C0.281,-0.508 0.289,-0.5 0.294,-0.463C0.295,-0.449 0.305,-0.439 0.318,-0.439L0.46,-0.439C0.473,-0.439 0.484,-0.449 0.485,-0.462C0.487,-0.582 0.398,-0.668 0.256,-0.67C0.125,-0.672 0.029,-0.598 0.029,-0.492C0.029,-0.357 0.124,-0.326 0.228,-0.262C0.293,-0.222 0.307,-0.202 0.306,-0.168C0.305,-0.138 0.287,-0.129 0.264,-0.129C0.235,-0.129 0.21,-0.151 0.209,-0.214C0.209,-0.23 0.198,-0.242 0.183,-0.242L0.045,-0.242C0.032,-0.242 0.022,-0.233 0.021,-0.219C0.011,-0.068 0.128,0.007 0.269,0.008Z" style="fill:rgb(249,226,15);fill-rule:nonzero;"/>
                </g>
                <g transform="matrix(577.963,0,0,577.963,2407.48,712)">
                    <path d="M0.045,-0L0.183,-0C0.197,-0 0.208,-0.011 0.208,-0.025L0.208,-0.635C0.208,-0.649 0.196,-0.66 0.182,-0.66L0.045,-0.66C0.031,-0.66 0.02,-0.648 0.02,-0.634L0.02,-0.025C0.02,-0.011 0.031,-0 0.045,-0Z" style="fill:rgb(249,226,15);fill-rule:nonzero;"/>
                </g>
                <g transform="matrix(577.963,0,0,577.963,2533.47,712)">
                    <path d="M0.554,-0.132L0.441,-0.206C0.428,-0.215 0.415,-0.21 0.405,-0.197C0.388,-0.175 0.365,-0.162 0.337,-0.162C0.26,-0.162 0.213,-0.235 0.212,-0.328C0.211,-0.422 0.256,-0.5 0.336,-0.5C0.368,-0.5 0.391,-0.488 0.408,-0.467C0.416,-0.456 0.429,-0.452 0.441,-0.458L0.561,-0.524C0.575,-0.532 0.579,-0.547 0.57,-0.56C0.521,-0.629 0.443,-0.67 0.337,-0.67C0.139,-0.67 0.019,-0.528 0.02,-0.333C0.021,-0.143 0.141,0.008 0.337,0.008C0.435,0.008 0.511,-0.031 0.561,-0.095C0.57,-0.108 0.567,-0.123 0.554,-0.132Z" style="fill:rgb(249,226,15);fill-rule:nonzero;"/>
                </g>
                <g transform="matrix(577.963,0,0,577.963,2871.58,712)">
                    <path d="M0.337,0.008C0.528,0.008 0.652,-0.139 0.653,-0.332C0.654,-0.527 0.534,-0.67 0.337,-0.67C0.139,-0.67 0.019,-0.528 0.02,-0.333C0.021,-0.143 0.141,0.008 0.337,0.008ZM0.212,-0.328C0.211,-0.432 0.256,-0.5 0.336,-0.5C0.416,-0.5 0.461,-0.434 0.461,-0.328C0.461,-0.225 0.403,-0.162 0.337,-0.162C0.26,-0.162 0.213,-0.225 0.212,-0.328Z" style="fill:rgb(249,226,15);fill-rule:nonzero;"/>
                </g>
            </g>
        </g>
        <g transform="matrix(0.934732,0,0,1.60617,-254.391,3864.45)">
            <g transform="matrix(0.134694,0,0,0.0783871,498.316,-973.44)">
                <g transform="matrix(577.963,0,0,577.963,154,712)">
                    <path d="M0.05,-0L0.178,-0C0.197,-0 0.208,-0.011 0.208,-0.03L0.208,-0.184C0.208,-0.203 0.212,-0.209 0.231,-0.209L0.311,-0.209C0.408,-0.209 0.515,-0.255 0.515,-0.413L0.515,-0.476C0.515,-0.638 0.408,-0.66 0.313,-0.66L0.05,-0.66C0.031,-0.66 0.02,-0.649 0.02,-0.63L0.02,-0.03C0.02,-0.011 0.031,-0 0.05,-0ZM0.207,-0.465C0.207,-0.484 0.212,-0.49 0.231,-0.49L0.271,-0.49C0.316,-0.49 0.326,-0.477 0.326,-0.434C0.326,-0.389 0.317,-0.373 0.271,-0.373L0.232,-0.373C0.213,-0.373 0.208,-0.379 0.208,-0.399L0.207,-0.465Z" style="fill:rgb(249,226,15);fill-rule:nonzero;"/>
                </g>
                <g transform="matrix(577.963,0,0,577.963,463.21,712)">
                    <path d="M0.02,-0.629L0.02,-0.031C0.02,-0.014 0.034,-0 0.051,-0L0.452,-0C0.469,-0 0.483,-0.014 0.483,-0.031L0.483,-0.141C0.483,-0.158 0.469,-0.167 0.452,-0.167L0.228,-0.167C0.217,-0.167 0.208,-0.176 0.208,-0.187L0.208,-0.228C0.208,-0.239 0.217,-0.248 0.228,-0.248L0.392,-0.248C0.409,-0.248 0.423,-0.258 0.423,-0.275L0.423,-0.383C0.423,-0.4 0.409,-0.413 0.392,-0.413L0.228,-0.414C0.217,-0.414 0.208,-0.423 0.208,-0.434L0.208,-0.473C0.208,-0.484 0.217,-0.493 0.228,-0.493L0.452,-0.493C0.469,-0.493 0.483,-0.502 0.483,-0.519L0.483,-0.629C0.483,-0.646 0.469,-0.66 0.452,-0.66L0.051,-0.66C0.034,-0.66 0.02,-0.646 0.02,-0.629Z" style="fill:rgb(249,226,15);fill-rule:nonzero;"/>
                </g>
                <g transform="matrix(577.963,0,0,577.963,753.926,712)">
                    <path d="M0.05,-0L0.3,-0C0.485,-0 0.571,-0.179 0.569,-0.34C0.567,-0.497 0.481,-0.66 0.3,-0.66L0.05,-0.66C0.031,-0.66 0.02,-0.649 0.02,-0.63L0.02,-0.03C0.02,-0.011 0.031,-0 0.05,-0ZM0.207,-0.189L0.207,-0.471C0.207,-0.485 0.215,-0.493 0.229,-0.493L0.241,-0.493C0.334,-0.493 0.381,-0.419 0.381,-0.334C0.382,-0.247 0.335,-0.167 0.24,-0.167L0.229,-0.167C0.215,-0.167 0.207,-0.175 0.207,-0.189Z" style="fill:rgb(249,226,15);fill-rule:nonzero;"/>
                </g>
                <g transform="matrix(577.963,0,0,577.963,1071.23,712)">
                    <path d="M0.053,-0L0.179,-0C0.191,-0 0.202,-0.007 0.206,-0.02L0.227,-0.086C0.232,-0.102 0.243,-0.113 0.259,-0.113L0.371,-0.113C0.388,-0.113 0.399,-0.104 0.404,-0.089L0.428,-0.019C0.432,-0.008 0.442,-0 0.454,-0L0.581,-0C0.605,-0 0.621,-0.02 0.614,-0.044L0.455,-0.633C0.45,-0.65 0.436,-0.66 0.419,-0.66L0.208,-0.66C0.191,-0.66 0.176,-0.649 0.172,-0.633L0.021,-0.043C0.015,-0.019 0.029,-0 0.053,-0ZM0.277,-0.299L0.306,-0.417C0.309,-0.43 0.317,-0.431 0.32,-0.418L0.346,-0.3C0.349,-0.285 0.344,-0.275 0.326,-0.275L0.297,-0.275C0.282,-0.275 0.273,-0.284 0.277,-0.299Z" style="fill:rgb(249,226,15);fill-rule:nonzero;"/>
                </g>
                <g transform="matrix(577.963,0,0,577.963,1415.69,712)">
                    <path d="M0.02,-0.333C0.021,-0.143 0.141,0.008 0.337,0.008C0.445,0.008 0.521,-0.031 0.571,-0.095C0.573,-0.098 0.575,-0.102 0.576,-0.105C0.578,-0.109 0.579,-0.113 0.579,-0.118L0.579,-0.288C0.579,-0.302 0.567,-0.313 0.553,-0.313L0.416,-0.313C0.402,-0.313 0.391,-0.301 0.391,-0.287L0.391,-0.175C0.378,-0.166 0.353,-0.162 0.337,-0.162C0.26,-0.162 0.213,-0.235 0.212,-0.328C0.211,-0.422 0.256,-0.5 0.336,-0.5C0.368,-0.5 0.391,-0.488 0.408,-0.467C0.416,-0.456 0.429,-0.452 0.441,-0.458L0.561,-0.524C0.575,-0.532 0.579,-0.547 0.57,-0.56C0.521,-0.629 0.443,-0.67 0.337,-0.67C0.139,-0.67 0.019,-0.528 0.02,-0.333Z" style="fill:rgb(249,226,15);fill-rule:nonzero;"/>
                </g>
                <g transform="matrix(577.963,0,0,577.963,1761.89,712)">
                    <path d="M0.337,0.008C0.528,0.008 0.652,-0.139 0.653,-0.332C0.654,-0.527 0.534,-0.67 0.337,-0.67C0.139,-0.67 0.019,-0.528 0.02,-0.333C0.021,-0.143 0.141,0.008 0.337,0.008ZM0.212,-0.328C0.211,-0.432 0.256,-0.5 0.336,-0.5C0.416,-0.5 0.461,-0.434 0.461,-0.328C0.461,-0.225 0.403,-0.162 0.337,-0.162C0.26,-0.162 0.213,-0.225 0.212,-0.328Z" style="fill:rgb(249,226,15);fill-rule:nonzero;"/>
                </g>
                <g transform="matrix(577.963,0,0,577.963,2150.86,712)">
                    <path d="M0.02,-0.333C0.021,-0.143 0.141,0.008 0.337,0.008C0.445,0.008 0.521,-0.031 0.571,-0.095C0.573,-0.098 0.575,-0.102 0.576,-0.105C0.578,-0.109 0.579,-0.113 0.579,-0.118L0.579,-0.288C0.579,-0.302 0.567,-0.313 0.553,-0.313L0.416,-0.313C0.402,-0.313 0.391,-0.301 0.391,-0.287L0.391,-0.175C0.378,-0.166 0.353,-0.162 0.337,-0.162C0.26,-0.162 0.213,-0.235 0.212,-0.328C0.211,-0.422 0.256,-0.5 0.336,-0.5C0.368,-0.5 0.391,-0.488 0.408,-0.467C0.416,-0.456 0.429,-0.452 0.441,-0.458L0.561,-0.524C0.575,-0.532 0.579,-0.547 0.57,-0.56C0.521,-0.629 0.443,-0.67 0.337,-0.67C0.139,-0.67 0.019,-0.528 0.02,-0.333Z" style="fill:rgb(249,226,15);fill-rule:nonzero;"/>
                </g>
                <g transform="matrix(577.963,0,0,577.963,2497.06,712)">
                    <path d="M0.045,-0L0.183,-0C0.197,-0 0.208,-0.011 0.208,-0.025L0.208,-0.635C0.208,-0.649 0.196,-0.66 0.182,-0.66L0.045,-0.66C0.031,-0.66 0.02,-0.648 0.02,-0.634L0.02,-0.025C0.02,-0.011 0.031,-0 0.045,-0Z" style="fill:rgb(249,226,15);fill-rule:nonzero;"/>
                </g>
                <g transform="matrix(577.963,0,0,577.963,2617.28,712)">
                    <path d="M0.053,-0L0.179,-0C0.191,-0 0.202,-0.007 0.206,-0.02L0.227,-0.086C0.232,-0.102 0.243,-0.113 0.259,-0.113L0.371,-0.113C0.388,-0.113 0.399,-0.104 0.404,-0.089L0.428,-0.019C0.432,-0.008 0.442,-0 0.454,-0L0.581,-0C0.605,-0 0.621,-0.02 0.614,-0.044L0.455,-0.633C0.45,-0.65 0.436,-0.66 0.419,-0.66L0.208,-0.66C0.191,-0.66 0.176,-0.649 0.172,-0.633L0.021,-0.043C0.015,-0.019 0.029,-0 0.053,-0ZM0.277,-0.299L0.306,-0.417C0.309,-0.43 0.317,-0.431 0.32,-0.418L0.346,-0.3C0.349,-0.285 0.344,-0.275 0.326,-0.275L0.297,-0.275C0.282,-0.275 0.273,-0.284 0.277,-0.299Z" style="fill:rgb(249,226,15);fill-rule:nonzero;"/>
                </g>
            </g>
        </g>
        <g transform="matrix(0.934732,0,0,1.60617,-254.391,3864.45)">
            <g transform="matrix(0.0416922,0,0,0.0242633,495.81,-938.793)">
                <g transform="matrix(998.381,0,0,998.381,575,1642.01)">
                    <path d="M0.02,-0.629L0.02,-0.031C0.02,-0.014 0.034,-0 0.051,-0L0.452,-0C0.469,-0 0.483,-0.014 0.483,-0.031L0.483,-0.141C0.483,-0.158 0.469,-0.167 0.452,-0.167L0.228,-0.167C0.217,-0.167 0.208,-0.176 0.208,-0.187L0.208,-0.228C0.208,-0.239 0.217,-0.248 0.228,-0.248L0.392,-0.248C0.409,-0.248 0.423,-0.258 0.423,-0.275L0.423,-0.383C0.423,-0.4 0.409,-0.413 0.392,-0.413L0.228,-0.414C0.217,-0.414 0.208,-0.423 0.208,-0.434L0.208,-0.473C0.208,-0.484 0.217,-0.493 0.228,-0.493L0.452,-0.493C0.469,-0.493 0.483,-0.502 0.483,-0.519L0.483,-0.629C0.483,-0.646 0.469,-0.66 0.452,-0.66L0.051,-0.66C0.034,-0.66 0.02,-0.646 0.02,-0.629Z" style="fill:white;fill-rule:nonzero;"/>
                </g>
                <g transform="matrix(998.381,0,0,998.381,1326.78,1642.01)">
                    <path d="M0.05,-0L0.178,-0C0.197,-0 0.208,-0.011 0.208,-0.03L0.208,-0.184C0.208,-0.203 0.212,-0.209 0.231,-0.209L0.311,-0.209C0.408,-0.209 0.515,-0.255 0.515,-0.413L0.515,-0.476C0.515,-0.638 0.408,-0.66 0.313,-0.66L0.05,-0.66C0.031,-0.66 0.02,-0.649 0.02,-0.63L0.02,-0.03C0.02,-0.011 0.031,-0 0.05,-0ZM0.207,-0.465C0.207,-0.484 0.212,-0.49 0.231,-0.49L0.271,-0.49C0.316,-0.49 0.326,-0.477 0.326,-0.434C0.326,-0.389 0.317,-0.373 0.271,-0.373L0.232,-0.373C0.213,-0.373 0.208,-0.379 0.208,-0.399L0.207,-0.465Z" style="fill:white;fill-rule:nonzero;"/>
                </g>
                <g transform="matrix(998.381,0,0,998.381,1860.91,1642.01)">
                    <path d="M0.269,0.008C0.411,0.009 0.489,-0.069 0.492,-0.161C0.496,-0.297 0.429,-0.327 0.298,-0.4C0.236,-0.435 0.217,-0.451 0.216,-0.474C0.215,-0.499 0.232,-0.508 0.252,-0.508C0.281,-0.508 0.289,-0.5 0.294,-0.463C0.295,-0.449 0.305,-0.439 0.318,-0.439L0.46,-0.439C0.473,-0.439 0.484,-0.449 0.485,-0.462C0.487,-0.582 0.398,-0.668 0.256,-0.67C0.125,-0.672 0.029,-0.598 0.029,-0.492C0.029,-0.357 0.124,-0.326 0.228,-0.262C0.293,-0.222 0.307,-0.202 0.306,-0.168C0.305,-0.138 0.287,-0.129 0.264,-0.129C0.235,-0.129 0.21,-0.151 0.209,-0.214C0.209,-0.23 0.198,-0.242 0.183,-0.242L0.045,-0.242C0.032,-0.242 0.022,-0.233 0.021,-0.219C0.011,-0.068 0.128,0.007 0.269,0.008Z" style="fill:white;fill-rule:nonzero;"/>
                </g>
                <g transform="matrix(998.381,0,0,998.381,2372.09,1642.01)">
                    <path d="M0.045,-0L0.183,-0C0.197,-0 0.208,-0.011 0.208,-0.025L0.208,-0.635C0.208,-0.649 0.196,-0.66 0.182,-0.66L0.045,-0.66C0.031,-0.66 0.02,-0.648 0.02,-0.634L0.02,-0.025C0.02,-0.011 0.031,-0 0.045,-0Z" style="fill:white;fill-rule:nonzero;"/>
                </g>
                <g transform="matrix(998.381,0,0,998.381,2589.73,1642.01)">
                    <path d="M0.554,-0.132L0.441,-0.206C0.428,-0.215 0.415,-0.21 0.405,-0.197C0.388,-0.175 0.365,-0.162 0.337,-0.162C0.26,-0.162 0.213,-0.235 0.212,-0.328C0.211,-0.422 0.256,-0.5 0.336,-0.5C0.368,-0.5 0.391,-0.488 0.408,-0.467C0.416,-0.456 0.429,-0.452 0.441,-0.458L0.561,-0.524C0.575,-0.532 0.579,-0.547 0.57,-0.56C0.521,-0.629 0.443,-0.67 0.337,-0.67C0.139,-0.67 0.019,-0.528 0.02,-0.333C0.021,-0.143 0.141,0.008 0.337,0.008C0.435,0.008 0.511,-0.031 0.561,-0.095C0.57,-0.108 0.567,-0.123 0.554,-0.132Z" style="fill:white;fill-rule:nonzero;"/>
                </g>
                <g transform="matrix(998.381,0,0,998.381,3173.79,1642.01)">
                    <path d="M0.337,0.008C0.528,0.008 0.652,-0.139 0.653,-0.332C0.654,-0.527 0.534,-0.67 0.337,-0.67C0.139,-0.67 0.019,-0.528 0.02,-0.333C0.021,-0.143 0.141,0.008 0.337,0.008ZM0.212,-0.328C0.211,-0.432 0.256,-0.5 0.336,-0.5C0.416,-0.5 0.461,-0.434 0.461,-0.328C0.461,-0.225 0.403,-0.162 0.337,-0.162C0.26,-0.162 0.213,-0.225 0.212,-0.328Z" style="fill:white;fill-rule:nonzero;"/>
                </g>
                <g transform="matrix(998.381,0,0,998.381,3845.7,1642.01)">
                    <path d="M0.051,-0L0.177,-0C0.194,-0 0.208,-0.014 0.208,-0.031L0.208,-0.254C0.208,-0.261 0.217,-0.263 0.219,-0.256L0.28,-0.028C0.285,-0.011 0.299,-0 0.316,-0L0.438,-0C0.455,-0 0.469,-0.011 0.474,-0.028L0.535,-0.256C0.537,-0.263 0.546,-0.261 0.546,-0.254L0.546,-0.031C0.546,-0.014 0.56,-0 0.577,-0L0.703,-0C0.72,-0 0.734,-0.014 0.734,-0.031L0.734,-0.629C0.734,-0.646 0.72,-0.66 0.703,-0.66L0.507,-0.66C0.492,-0.66 0.479,-0.652 0.474,-0.638L0.394,-0.41C0.388,-0.393 0.373,-0.393 0.367,-0.41L0.281,-0.639C0.276,-0.653 0.261,-0.66 0.247,-0.66L0.051,-0.66C0.034,-0.66 0.02,-0.646 0.02,-0.629L0.02,-0.031C0.02,-0.014 0.034,-0 0.051,-0Z" style="fill:white;fill-rule:nonzero;"/>
                </g>
                <g transform="matrix(998.381,0,0,998.381,4588.49,1642.01)">
                    <path d="M0.337,0.008C0.528,0.008 0.652,-0.139 0.653,-0.332C0.654,-0.527 0.534,-0.67 0.337,-0.67C0.139,-0.67 0.019,-0.528 0.02,-0.333C0.021,-0.143 0.141,0.008 0.337,0.008ZM0.212,-0.328C0.211,-0.432 0.256,-0.5 0.336,-0.5C0.416,-0.5 0.461,-0.434 0.461,-0.328C0.461,-0.225 0.403,-0.162 0.337,-0.162C0.26,-0.162 0.213,-0.225 0.212,-0.328Z" style="fill:white;fill-rule:nonzero;"/>
                </g>
                <g transform="matrix(998.381,0,0,998.381,5230.45,1642.01)">
                    <path d="M0.553,-0.66L0.045,-0.66C0.031,-0.66 0.02,-0.649 0.02,-0.635L0.02,-0.518C0.02,-0.504 0.031,-0.493 0.045,-0.493L0.185,-0.493C0.196,-0.493 0.205,-0.484 0.205,-0.473L0.205,-0.025C0.205,-0.018 0.208,-0.012 0.212,-0.007C0.217,-0.003 0.223,-0 0.23,-0L0.368,-0C0.375,-0 0.381,-0.003 0.386,-0.007C0.39,-0.012 0.393,-0.018 0.393,-0.025L0.393,-0.473C0.393,-0.484 0.402,-0.493 0.413,-0.493L0.553,-0.493C0.567,-0.493 0.578,-0.504 0.578,-0.518L0.578,-0.635C0.578,-0.649 0.567,-0.66 0.553,-0.66Z" style="fill:white;fill-rule:nonzero;"/>
                </g>
                <g transform="matrix(998.381,0,0,998.381,5827.48,1642.01)">
                    <path d="M0.05,-0L0.178,-0C0.197,-0 0.208,-0.011 0.208,-0.03L0.208,-0.184C0.208,-0.203 0.212,-0.209 0.231,-0.209L0.281,-0.209C0.321,-0.209 0.323,-0.172 0.328,-0.138L0.345,-0.032C0.348,-0.011 0.362,-0 0.383,-0L0.508,-0C0.528,-0 0.538,-0.012 0.535,-0.032L0.506,-0.202C0.496,-0.26 0.489,-0.282 0.467,-0.293C0.461,-0.297 0.46,-0.301 0.465,-0.306C0.496,-0.334 0.515,-0.378 0.515,-0.433L0.515,-0.476C0.515,-0.638 0.408,-0.66 0.313,-0.66L0.05,-0.66C0.031,-0.66 0.02,-0.649 0.02,-0.63L0.02,-0.03C0.02,-0.011 0.031,-0 0.05,-0ZM0.207,-0.465C0.207,-0.484 0.212,-0.49 0.231,-0.49L0.271,-0.49C0.316,-0.49 0.326,-0.477 0.326,-0.434C0.326,-0.389 0.317,-0.373 0.271,-0.373L0.232,-0.373C0.213,-0.373 0.208,-0.379 0.208,-0.399L0.207,-0.465Z" style="fill:white;fill-rule:nonzero;"/>
                </g>
                <g transform="matrix(998.381,0,0,998.381,6382.58,1642.01)">
                    <path d="M0.045,-0L0.183,-0C0.197,-0 0.208,-0.011 0.208,-0.025L0.208,-0.635C0.208,-0.649 0.196,-0.66 0.182,-0.66L0.045,-0.66C0.031,-0.66 0.02,-0.648 0.02,-0.634L0.02,-0.025C0.02,-0.011 0.031,-0 0.045,-0Z" style="fill:white;fill-rule:nonzero;"/>
                </g>
                <g transform="matrix(998.381,0,0,998.381,6600.23,1642.01)">
                    <path d="M0.554,-0.132L0.441,-0.206C0.428,-0.215 0.415,-0.21 0.405,-0.197C0.388,-0.175 0.365,-0.162 0.337,-0.162C0.26,-0.162 0.213,-0.235 0.212,-0.328C0.211,-0.422 0.256,-0.5 0.336,-0.5C0.368,-0.5 0.391,-0.488 0.408,-0.467C0.416,-0.456 0.429,-0.452 0.441,-0.458L0.561,-0.524C0.575,-0.532 0.579,-0.547 0.57,-0.56C0.521,-0.629 0.443,-0.67 0.337,-0.67C0.139,-0.67 0.019,-0.528 0.02,-0.333C0.021,-0.143 0.141,0.008 0.337,0.008C0.435,0.008 0.511,-0.031 0.561,-0.095C0.57,-0.108 0.567,-0.123 0.554,-0.132Z" style="fill:white;fill-rule:nonzero;"/>
                </g>
                <g transform="matrix(998.381,0,0,998.381,7194.27,1642.01)">
                    <path d="M0.045,-0L0.183,-0C0.197,-0 0.208,-0.011 0.208,-0.025L0.208,-0.635C0.208,-0.649 0.196,-0.66 0.182,-0.66L0.045,-0.66C0.031,-0.66 0.02,-0.648 0.02,-0.634L0.02,-0.025C0.02,-0.011 0.031,-0 0.045,-0Z" style="fill:white;fill-rule:nonzero;"/>
                </g>
                <g transform="matrix(998.381,0,0,998.381,7411.91,1642.01)">
                    <path d="M0.05,-0L0.3,-0C0.485,-0 0.571,-0.179 0.569,-0.34C0.567,-0.497 0.481,-0.66 0.3,-0.66L0.05,-0.66C0.031,-0.66 0.02,-0.649 0.02,-0.63L0.02,-0.03C0.02,-0.011 0.031,-0 0.05,-0ZM0.207,-0.189L0.207,-0.471C0.207,-0.485 0.215,-0.493 0.229,-0.493L0.241,-0.493C0.334,-0.493 0.381,-0.419 0.381,-0.334C0.382,-0.247 0.335,-0.167 0.24,-0.167L0.229,-0.167C0.215,-0.167 0.207,-0.175 0.207,-0.189Z" style="fill:white;fill-rule:nonzero;"/>
                </g>
                <g transform="matrix(998.381,0,0,998.381,7960.02,1642.01)">
                    <path d="M0.053,-0L0.179,-0C0.191,-0 0.202,-0.007 0.206,-0.02L0.227,-0.086C0.232,-0.102 0.243,-0.113 0.259,-0.113L0.371,-0.113C0.388,-0.113 0.399,-0.104 0.404,-0.089L0.428,-0.019C0.432,-0.008 0.442,-0 0.454,-0L0.581,-0C0.605,-0 0.621,-0.02 0.614,-0.044L0.455,-0.633C0.45,-0.65 0.436,-0.66 0.419,-0.66L0.208,-0.66C0.191,-0.66 0.176,-0.649 0.172,-0.633L0.021,-0.043C0.015,-0.019 0.029,-0 0.053,-0ZM0.277,-0.299L0.306,-0.417C0.309,-0.43 0.317,-0.431 0.32,-0.418L0.346,-0.3C0.349,-0.285 0.344,-0.275 0.326,-0.275L0.297,-0.275C0.282,-0.275 0.273,-0.284 0.277,-0.299Z" style="fill:white;fill-rule:nonzero;"/>
                </g>
                <g transform="matrix(998.381,0,0,998.381,8594.99,1642.01)">
                    <path d="M0.05,-0L0.3,-0C0.485,-0 0.571,-0.179 0.569,-0.34C0.567,-0.497 0.481,-0.66 0.3,-0.66L0.05,-0.66C0.031,-0.66 0.02,-0.649 0.02,-0.63L0.02,-0.03C0.02,-0.011 0.031,-0 0.05,-0ZM0.207,-0.189L0.207,-0.471C0.207,-0.485 0.215,-0.493 0.229,-0.493L0.241,-0.493C0.334,-0.493 0.381,-0.419 0.381,-0.334C0.382,-0.247 0.335,-0.167 0.24,-0.167L0.229,-0.167C0.215,-0.167 0.207,-0.175 0.207,-0.189Z" style="fill:white;fill-rule:nonzero;"/>
                </g>
                <g transform="matrix(998.381,0,0,998.381,9183.04,1642.01)">
                    <path d="M0.02,-0.629L0.02,-0.031C0.02,-0.014 0.034,-0 0.051,-0L0.452,-0C0.469,-0 0.483,-0.014 0.483,-0.031L0.483,-0.141C0.483,-0.158 0.469,-0.167 0.452,-0.167L0.228,-0.167C0.217,-0.167 0.208,-0.176 0.208,-0.187L0.208,-0.228C0.208,-0.239 0.217,-0.248 0.228,-0.248L0.392,-0.248C0.409,-0.248 0.423,-0.258 0.423,-0.275L0.423,-0.383C0.423,-0.4 0.409,-0.413 0.392,-0.413L0.228,-0.414C0.217,-0.414 0.208,-0.423 0.208,-0.434L0.208,-0.473C0.208,-0.484 0.217,-0.493 0.228,-0.493L0.452,-0.493C0.469,-0.493 0.483,-0.502 0.483,-0.519L0.483,-0.629C0.483,-0.646 0.469,-0.66 0.452,-0.66L0.051,-0.66C0.034,-0.66 0.02,-0.646 0.02,-0.629Z" style="fill:white;fill-rule:nonzero;"/>
                </g>
            </g>
        </g>
        <g transform="matrix(0.934732,0,0,1.60617,-254.391,3864.45)">
            <g transform="matrix(0.650284,0,0,0.483895,419.339,-1780.35)">
                <path d="M500.447,1598.33L500.447,1635.67C500.447,1638.06 497.965,1640 494.907,1640L162.541,1640C159.483,1640 157,1638.06 157,1635.67L157,1598.33C157,1595.94 159.483,1594 162.541,1594L494.907,1594C497.965,1594 500.447,1595.94 500.447,1598.33ZM370.907,1625.9C372.227,1625.89 373.435,1625.77 374.532,1625.52C375.629,1625.27 376.569,1624.88 377.351,1624.35C378.143,1623.82 378.752,1623.14 379.179,1622.3C379.615,1621.46 379.834,1620.45 379.834,1619.26L379.834,1609.89C379.834,1609.72 379.819,1609.58 379.788,1609.47C379.758,1609.36 379.702,1609.27 379.621,1609.21C379.549,1609.14 379.443,1609.09 379.301,1609.07C379.169,1609.04 378.991,1609.03 378.767,1609.03L376.315,1609.03C375.878,1609.03 375.583,1609.09 375.431,1609.21C375.289,1609.33 375.218,1609.55 375.218,1609.89L375.218,1619C375.218,1619.62 375.142,1620.18 374.989,1620.67C374.847,1621.15 374.603,1621.57 374.258,1621.91C373.923,1622.25 373.481,1622.51 372.933,1622.69C372.384,1622.87 371.709,1622.96 370.907,1622.96C370.033,1622.96 369.307,1622.87 368.728,1622.71C368.159,1622.54 367.697,1622.29 367.342,1621.96C366.997,1621.62 366.753,1621.21 366.611,1620.7C366.468,1620.2 366.397,1619.61 366.397,1618.94L366.397,1609.89C366.397,1609.72 366.377,1609.58 366.336,1609.47C366.306,1609.36 366.25,1609.27 366.169,1609.21C366.088,1609.14 365.976,1609.09 365.834,1609.07C365.692,1609.04 365.509,1609.03 365.285,1609.03L362.909,1609.03C362.472,1609.03 362.178,1609.09 362.025,1609.21C361.883,1609.32 361.812,1609.55 361.812,1609.89L361.812,1619.26C361.812,1620.47 362.03,1621.5 362.467,1622.35C362.904,1623.19 363.518,1623.88 364.31,1624.41C365.113,1624.93 366.072,1625.32 367.19,1625.57C368.307,1625.81 369.546,1625.92 370.907,1625.9ZM440.084,1625.76L442.842,1625.7C443.055,1625.69 443.223,1625.67 443.345,1625.64C443.477,1625.6 443.568,1625.54 443.619,1625.47C443.67,1625.4 443.69,1625.31 443.68,1625.21C443.67,1625.1 443.644,1624.96 443.604,1624.79C443.421,1624.12 443.172,1623.35 442.857,1622.47C442.542,1621.59 442.192,1620.67 441.806,1619.7C441.42,1618.74 441.014,1617.76 440.587,1616.76C440.161,1615.77 439.739,1614.83 439.323,1613.94C438.906,1613.05 438.505,1612.24 438.119,1611.52C437.743,1610.79 437.419,1610.2 437.144,1609.77C437.053,1609.62 436.961,1609.5 436.87,1609.41C436.779,1609.32 436.672,1609.24 436.55,1609.18C436.438,1609.13 436.301,1609.09 436.139,1609.08C435.987,1609.05 435.804,1609.04 435.59,1609.04L432.544,1609.04C432.188,1609.04 431.883,1609.05 431.63,1609.05C431.386,1609.05 431.167,1609.08 430.974,1609.12C430.792,1609.16 430.629,1609.24 430.487,1609.34C430.355,1609.44 430.228,1609.59 430.106,1609.78C429.842,1610.18 429.563,1610.67 429.268,1611.22C428.974,1611.77 428.669,1612.37 428.354,1613.02C428.05,1613.66 427.735,1614.34 427.41,1615.06C427.095,1615.77 426.785,1616.5 426.48,1617.23C426.176,1617.96 425.881,1618.68 425.597,1619.41C425.313,1620.12 425.043,1620.81 424.789,1621.47C424.546,1622.13 424.322,1622.74 424.119,1623.32C423.926,1623.89 423.764,1624.39 423.632,1624.83C423.581,1624.99 423.55,1625.13 423.54,1625.23C423.53,1625.34 423.545,1625.42 423.586,1625.48C423.637,1625.55 423.718,1625.59 423.83,1625.63C423.952,1625.65 424.119,1625.67 424.332,1625.67L427.151,1625.73C427.374,1625.75 427.552,1625.75 427.684,1625.73C427.826,1625.72 427.938,1625.68 428.019,1625.64C428.1,1625.58 428.166,1625.5 428.217,1625.4C428.268,1625.3 428.319,1625.16 428.369,1624.99C428.41,1624.85 428.466,1624.68 428.537,1624.47C428.608,1624.26 428.689,1624.02 428.781,1623.76C428.872,1623.49 428.969,1623.22 429.07,1622.92C429.172,1622.63 429.284,1622.33 429.405,1622.02L437.83,1622.02C438.063,1622.65 438.272,1623.24 438.454,1623.77C438.637,1624.3 438.774,1624.7 438.866,1624.98C438.927,1625.16 438.988,1625.3 439.049,1625.41C439.109,1625.52 439.181,1625.59 439.262,1625.65C439.353,1625.7 439.465,1625.73 439.597,1625.75C439.729,1625.76 439.891,1625.77 440.084,1625.76ZM433.397,1611.98L433.839,1611.98C434.438,1613.12 435.006,1614.31 435.545,1615.55C436.093,1616.78 436.586,1617.99 437.022,1619.17L430.228,1619.17C430.462,1618.53 430.705,1617.89 430.959,1617.25C431.223,1616.61 431.487,1615.98 431.751,1615.37C432.026,1614.75 432.3,1614.15 432.574,1613.58C432.858,1613.01 433.133,1612.48 433.397,1611.98ZM399.135,1625.76L401.893,1625.7C402.106,1625.69 402.274,1625.67 402.395,1625.64C402.527,1625.6 402.619,1625.54 402.67,1625.47C402.72,1625.4 402.741,1625.31 402.731,1625.21C402.72,1625.1 402.695,1624.96 402.654,1624.79C402.472,1624.12 402.223,1623.35 401.908,1622.47C401.593,1621.59 401.243,1620.67 400.857,1619.7C400.471,1618.74 400.065,1617.76 399.638,1616.76C399.211,1615.77 398.79,1614.83 398.374,1613.94C397.957,1613.05 397.556,1612.24 397.17,1611.52C396.794,1610.79 396.469,1610.2 396.195,1609.77C396.104,1609.62 396.012,1609.5 395.921,1609.41C395.83,1609.32 395.723,1609.24 395.601,1609.18C395.489,1609.13 395.352,1609.09 395.19,1609.08C395.037,1609.05 394.855,1609.04 394.641,1609.04L391.594,1609.04C391.239,1609.04 390.934,1609.05 390.68,1609.05C390.437,1609.05 390.218,1609.08 390.025,1609.12C389.843,1609.16 389.68,1609.24 389.538,1609.34C389.406,1609.44 389.279,1609.59 389.157,1609.78C388.893,1610.18 388.614,1610.67 388.319,1611.22C388.025,1611.77 387.72,1612.37 387.405,1613.02C387.1,1613.66 386.786,1614.34 386.461,1615.06C386.146,1615.77 385.836,1616.5 385.531,1617.23C385.227,1617.96 384.932,1618.68 384.648,1619.41C384.363,1620.12 384.094,1620.81 383.84,1621.47C383.597,1622.13 383.373,1622.74 383.17,1623.32C382.977,1623.89 382.815,1624.39 382.683,1624.83C382.632,1624.99 382.601,1625.13 382.591,1625.23C382.581,1625.34 382.596,1625.42 382.637,1625.48C382.688,1625.55 382.769,1625.59 382.881,1625.63C383.002,1625.65 383.17,1625.67 383.383,1625.67L386.202,1625.73C386.425,1625.75 386.603,1625.75 386.735,1625.73C386.877,1625.72 386.989,1625.68 387.07,1625.64C387.151,1625.58 387.217,1625.5 387.268,1625.4C387.319,1625.3 387.37,1625.16 387.42,1624.99C387.461,1624.85 387.517,1624.68 387.588,1624.47C387.659,1624.26 387.74,1624.02 387.832,1623.76C387.923,1623.49 388.02,1623.22 388.121,1622.92C388.223,1622.63 388.334,1622.33 388.456,1622.02L396.881,1622.02C397.114,1622.65 397.322,1623.24 397.505,1623.77C397.688,1624.3 397.825,1624.7 397.917,1624.98C397.978,1625.16 398.038,1625.3 398.099,1625.41C398.16,1625.52 398.231,1625.59 398.313,1625.65C398.404,1625.7 398.516,1625.73 398.648,1625.75C398.78,1625.76 398.942,1625.77 399.135,1625.76ZM392.448,1611.98L392.889,1611.98C393.489,1613.12 394.057,1614.31 394.596,1615.55C395.144,1616.78 395.637,1617.99 396.073,1619.17L389.279,1619.17C389.512,1618.53 389.756,1617.89 390.01,1617.25C390.274,1616.61 390.538,1615.98 390.802,1615.37C391.077,1614.75 391.351,1614.15 391.625,1613.58C391.909,1613.01 392.184,1612.48 392.448,1611.98ZM277.156,1617.36C277.156,1618.81 277.364,1620.07 277.781,1621.15C278.207,1622.22 278.832,1623.11 279.655,1623.82C280.487,1624.51 281.518,1625.04 282.747,1625.39C283.976,1625.73 285.393,1625.9 286.997,1625.9C287.607,1625.9 288.231,1625.88 288.871,1625.83C289.521,1625.79 290.141,1625.73 290.73,1625.66C291.329,1625.6 291.877,1625.52 292.375,1625.43C292.883,1625.35 293.304,1625.26 293.64,1625.17C293.934,1625.09 294.132,1624.99 294.234,1624.88C294.335,1624.76 294.386,1624.59 294.386,1624.34L294.386,1617.95C294.386,1617.67 294.31,1617.49 294.157,1617.4C294.015,1617.31 293.772,1617.26 293.426,1617.26L291.156,1617.26C290.72,1617.26 290.425,1617.31 290.273,1617.42C290.131,1617.52 290.06,1617.72 290.06,1618L290.06,1622.66C289.552,1622.76 289.074,1622.83 288.628,1622.89C288.191,1622.93 287.729,1622.96 287.241,1622.96C285.444,1622.96 284.062,1622.49 283.098,1621.55C282.133,1620.61 281.65,1619.18 281.65,1617.24C281.65,1616.33 281.782,1615.52 282.046,1614.83C282.31,1614.14 282.686,1613.57 283.174,1613.1C283.661,1612.64 284.25,1612.3 284.941,1612.07C285.642,1611.84 286.419,1611.72 287.272,1611.72C287.729,1611.72 288.196,1611.74 288.673,1611.78C289.151,1611.82 289.602,1611.87 290.029,1611.94C290.466,1611.99 290.857,1612.06 291.202,1612.13C291.558,1612.2 291.842,1612.27 292.055,1612.34C292.441,1612.45 292.72,1612.48 292.893,1612.42C293.066,1612.37 293.218,1612.23 293.35,1612.01L293.99,1610.81C294.163,1610.53 294.203,1610.32 294.112,1610.18C294.031,1610.04 293.782,1609.9 293.365,1609.76C293.132,1609.68 292.807,1609.58 292.39,1609.47C291.974,1609.35 291.486,1609.24 290.928,1609.15C290.379,1609.05 289.77,1608.96 289.1,1608.89C288.44,1608.82 287.744,1608.78 287.013,1608.78C285.439,1608.78 284.037,1608.95 282.808,1609.3C281.589,1609.64 280.559,1610.17 279.716,1610.89C278.883,1611.6 278.248,1612.49 277.811,1613.57C277.375,1614.64 277.156,1615.9 277.156,1617.36ZM341.886,1625.65L348.406,1625.65C349.96,1625.65 351.371,1625.49 352.641,1625.17C353.921,1624.86 355.012,1624.35 355.916,1623.66C356.83,1622.97 357.536,1622.08 358.034,1620.99C358.532,1619.89 358.78,1618.57 358.78,1617.02C358.78,1616.02 358.643,1615.12 358.369,1614.33C358.095,1613.55 357.714,1612.86 357.226,1612.27C356.739,1611.68 356.165,1611.18 355.505,1610.77C354.845,1610.36 354.124,1610.02 353.342,1609.77C352.56,1609.51 351.737,1609.33 350.874,1609.22C350.011,1609.1 349.137,1609.04 348.254,1609.04L341.886,1609.04C341.449,1609.04 341.16,1609.1 341.017,1609.21C340.875,1609.32 340.804,1609.55 340.804,1609.89L340.804,1624.8C340.804,1625.14 340.875,1625.37 341.017,1625.48C341.16,1625.59 341.449,1625.65 341.886,1625.65ZM345.42,1622.71L345.42,1611.98L348.619,1611.98C349.472,1611.98 350.244,1612.09 350.935,1612.31C351.636,1612.52 352.235,1612.85 352.732,1613.28C353.23,1613.72 353.616,1614.26 353.89,1614.91C354.164,1615.57 354.302,1616.33 354.302,1617.2C354.302,1618.15 354.159,1618.97 353.875,1619.66C353.591,1620.35 353.189,1620.92 352.671,1621.37C352.164,1621.83 351.554,1622.16 350.843,1622.38C350.132,1622.6 349.35,1622.71 348.497,1622.71L345.42,1622.71ZM264.984,1620.31L273.576,1620.31C273.79,1620.31 273.967,1620.3 274.109,1620.29C274.252,1620.26 274.363,1620.23 274.445,1620.17C274.526,1620.11 274.582,1620.03 274.612,1619.93C274.643,1619.83 274.658,1619.69 274.658,1619.53L274.658,1618.19C274.658,1617.9 274.587,1617.71 274.445,1617.61C274.302,1617.5 274.013,1617.44 273.576,1617.44L264.984,1617.44C264.771,1617.44 264.593,1617.45 264.451,1617.48C264.309,1617.5 264.197,1617.54 264.116,1617.61C264.035,1617.66 263.979,1617.74 263.948,1617.85C263.918,1617.95 263.903,1618.08 263.903,1618.24L263.903,1619.56C263.903,1619.84 263.974,1620.03 264.116,1620.14C264.258,1620.26 264.548,1620.31 264.984,1620.31ZM300.205,1625.65L302.628,1625.65C303.064,1625.65 303.354,1625.59 303.496,1625.48C303.638,1625.37 303.709,1625.14 303.709,1624.8L303.709,1620.25L306.558,1620.25C306.842,1620.46 307.117,1620.7 307.381,1620.99C307.645,1621.28 307.894,1621.58 308.127,1621.88C308.371,1622.19 308.594,1622.51 308.797,1622.83C309.001,1623.14 309.178,1623.44 309.331,1623.72C309.493,1623.99 309.625,1624.23 309.727,1624.43C309.828,1624.64 309.899,1624.79 309.94,1624.89C310.011,1625.05 310.087,1625.17 310.168,1625.27C310.25,1625.36 310.346,1625.44 310.458,1625.51C310.57,1625.56 310.702,1625.6 310.854,1625.63C311.006,1625.64 311.194,1625.65 311.418,1625.65L314.053,1625.65C314.246,1625.65 314.404,1625.62 314.525,1625.55C314.647,1625.49 314.734,1625.41 314.784,1625.3C314.835,1625.2 314.855,1625.08 314.845,1624.95C314.835,1624.81 314.795,1624.67 314.723,1624.53C314.632,1624.37 314.52,1624.18 314.388,1623.96C314.256,1623.73 314.114,1623.49 313.962,1623.23C313.809,1622.98 313.652,1622.72 313.489,1622.47C313.327,1622.21 313.17,1621.96 313.017,1621.73C312.682,1621.25 312.316,1620.79 311.92,1620.34C311.524,1619.88 311.118,1619.46 310.702,1619.07L310.702,1619.01C311.067,1618.87 311.474,1618.68 311.92,1618.44C312.367,1618.2 312.789,1617.91 313.185,1617.56C313.591,1617.2 313.936,1616.79 314.221,1616.32C314.515,1615.85 314.688,1615.32 314.739,1614.71C314.789,1614.3 314.784,1613.91 314.723,1613.56C314.612,1612.82 314.317,1612.17 313.84,1611.6C313.373,1611.04 312.784,1610.57 312.073,1610.18C311.362,1609.8 310.559,1609.52 309.666,1609.33C308.772,1609.13 307.848,1609.03 306.893,1609.03L300.205,1609.03C299.769,1609.03 299.479,1609.09 299.337,1609.21C299.195,1609.32 299.124,1609.55 299.124,1609.89L299.124,1624.8C299.124,1625.14 299.195,1625.37 299.337,1625.48C299.479,1625.59 299.769,1625.65 300.205,1625.65ZM303.709,1617.4L303.709,1611.88L306.177,1611.88C306.797,1611.88 307.36,1611.93 307.868,1612.03C308.376,1612.13 308.808,1612.28 309.163,1612.5C309.529,1612.71 309.808,1612.99 310.001,1613.33C310.204,1613.66 310.306,1614.07 310.306,1614.53C310.306,1614.94 310.214,1615.32 310.031,1615.67C309.859,1616.02 309.6,1616.32 309.254,1616.58C308.909,1616.84 308.483,1617.04 307.975,1617.19C307.467,1617.33 306.878,1617.4 306.208,1617.4L303.709,1617.4ZM333.964,1625.76L336.721,1625.7C336.935,1625.69 337.102,1625.67 337.224,1625.64C337.356,1625.6 337.448,1625.54 337.498,1625.47C337.549,1625.4 337.569,1625.31 337.559,1625.21C337.549,1625.1 337.524,1624.96 337.483,1624.79C337.3,1624.12 337.051,1623.35 336.737,1622.47C336.422,1621.59 336.071,1620.67 335.685,1619.7C335.3,1618.74 334.893,1617.76 334.467,1616.76C334.04,1615.77 333.619,1614.83 333.202,1613.94C332.786,1613.05 332.385,1612.24 331.999,1611.52C331.623,1610.79 331.298,1610.2 331.024,1609.77C330.932,1609.62 330.841,1609.5 330.75,1609.41C330.658,1609.32 330.552,1609.24 330.43,1609.18C330.318,1609.13 330.181,1609.09 330.018,1609.08C329.866,1609.05 329.683,1609.04 329.47,1609.04L326.423,1609.04C326.068,1609.04 325.763,1609.05 325.509,1609.05C325.265,1609.05 325.047,1609.08 324.854,1609.12C324.671,1609.16 324.509,1609.24 324.367,1609.34C324.235,1609.44 324.108,1609.59 323.986,1609.78C323.722,1610.18 323.442,1610.67 323.148,1611.22C322.853,1611.77 322.549,1612.37 322.234,1613.02C321.929,1613.66 321.614,1614.34 321.289,1615.06C320.974,1615.77 320.665,1616.5 320.36,1617.23C320.055,1617.96 319.761,1618.68 319.476,1619.41C319.192,1620.12 318.923,1620.81 318.669,1621.47C318.425,1622.13 318.202,1622.74 317.999,1623.32C317.806,1623.89 317.643,1624.39 317.511,1624.83C317.46,1624.99 317.43,1625.13 317.42,1625.23C317.41,1625.34 317.425,1625.42 317.466,1625.48C317.516,1625.55 317.598,1625.59 317.709,1625.63C317.831,1625.65 317.999,1625.67 318.212,1625.67L321.03,1625.73C321.254,1625.75 321.432,1625.75 321.564,1625.73C321.706,1625.72 321.817,1625.68 321.899,1625.64C321.98,1625.58 322.046,1625.5 322.097,1625.4C322.148,1625.3 322.198,1625.16 322.249,1624.99C322.29,1624.85 322.346,1624.68 322.417,1624.47C322.488,1624.26 322.569,1624.02 322.66,1623.76C322.752,1623.49 322.848,1623.22 322.95,1622.92C323.051,1622.63 323.163,1622.33 323.285,1622.02L331.709,1622.02C331.943,1622.65 332.151,1623.24 332.334,1623.77C332.517,1624.3 332.654,1624.7 332.745,1624.98C332.806,1625.16 332.867,1625.3 332.928,1625.41C332.989,1625.52 333.06,1625.59 333.141,1625.65C333.233,1625.7 333.345,1625.73 333.477,1625.75C333.609,1625.76 333.771,1625.77 333.964,1625.76ZM327.276,1611.98L327.718,1611.98C328.317,1613.12 328.886,1614.31 329.424,1615.55C329.973,1616.78 330.465,1617.99 330.902,1619.17L324.108,1619.17C324.341,1618.53 324.585,1617.89 324.839,1617.25C325.103,1616.61 325.367,1615.98 325.631,1615.37C325.905,1614.75 326.179,1614.15 326.454,1613.58C326.738,1613.01 327.012,1612.48 327.276,1611.98ZM427.882,1606.4L428.568,1606.71C428.862,1606.84 429.096,1606.91 429.268,1606.91C429.441,1606.91 429.614,1606.83 429.786,1606.67C429.898,1606.57 430.05,1606.48 430.243,1606.41C430.446,1606.33 430.766,1606.29 431.203,1606.29C431.538,1606.29 431.868,1606.34 432.193,1606.43C432.528,1606.53 432.874,1606.63 433.229,1606.74C433.585,1606.85 433.955,1606.96 434.341,1607.05C434.737,1607.15 435.164,1607.19 435.621,1607.19C435.956,1607.19 436.291,1607.15 436.626,1607.08C436.961,1607 437.281,1606.89 437.586,1606.75C437.891,1606.62 438.17,1606.46 438.424,1606.28C438.688,1606.09 438.906,1605.88 439.079,1605.67C439.201,1605.53 439.282,1605.41 439.323,1605.31C439.374,1605.21 439.384,1605.12 439.353,1605.04C439.323,1604.96 439.257,1604.89 439.155,1604.82C439.054,1604.75 438.927,1604.68 438.774,1604.6L438.135,1604.31C437.982,1604.24 437.85,1604.18 437.738,1604.14C437.637,1604.11 437.54,1604.09 437.449,1604.09C437.368,1604.09 437.286,1604.11 437.205,1604.14C437.124,1604.18 437.033,1604.25 436.931,1604.34C436.769,1604.47 436.591,1604.57 436.398,1604.63C436.205,1604.69 435.915,1604.72 435.529,1604.72C435.194,1604.72 434.864,1604.67 434.539,1604.57C434.224,1604.48 433.894,1604.38 433.549,1604.26C433.204,1604.14 432.838,1604.04 432.452,1603.94C432.066,1603.85 431.65,1603.8 431.203,1603.8C430.746,1603.8 430.33,1603.84 429.954,1603.93C429.578,1604.02 429.238,1604.14 428.933,1604.29C428.639,1604.43 428.38,1604.6 428.156,1604.79C427.943,1604.97 427.76,1605.16 427.608,1605.36C427.496,1605.51 427.42,1605.64 427.379,1605.74C427.339,1605.84 427.334,1605.93 427.364,1606C427.394,1606.08 427.45,1606.14 427.532,1606.21C427.623,1606.26 427.74,1606.33 427.882,1606.4ZM466.318,1617.38C466.328,1616.02 466.084,1614.81 465.586,1613.75C465.099,1612.68 464.403,1611.78 463.499,1611.04C462.595,1610.3 461.509,1609.74 460.239,1609.36C458.97,1608.97 457.563,1608.78 456.019,1608.78C454.435,1608.78 452.998,1608.97 451.708,1609.35C450.418,1609.72 449.316,1610.28 448.402,1611.01C447.498,1611.74 446.798,1612.64 446.3,1613.71C445.802,1614.78 445.548,1616 445.538,1617.39C445.528,1618.76 445.772,1619.97 446.269,1621.03C446.767,1622.08 447.473,1622.97 448.387,1623.7C449.311,1624.41 450.418,1624.95 451.708,1625.33C453.008,1625.7 454.445,1625.89 456.019,1625.9C457.543,1625.91 458.934,1625.73 460.193,1625.38C461.453,1625.01 462.534,1624.47 463.438,1623.76C464.342,1623.04 465.043,1622.15 465.541,1621.09C466.048,1620.02 466.307,1618.79 466.318,1617.38ZM456.004,1611.72C456.959,1611.72 457.797,1611.87 458.518,1612.16C459.249,1612.46 459.858,1612.86 460.346,1613.37C460.843,1613.88 461.214,1614.47 461.458,1615.16C461.712,1615.85 461.839,1616.58 461.839,1617.37C461.839,1618.19 461.707,1618.95 461.443,1619.64C461.179,1620.33 460.793,1620.92 460.285,1621.41C459.787,1621.9 459.178,1622.28 458.457,1622.55C457.736,1622.82 456.913,1622.96 455.989,1622.96C454.973,1622.96 454.09,1622.81 453.338,1622.5C452.587,1622.19 451.962,1621.79 451.464,1621.28C450.977,1620.76 450.611,1620.17 450.367,1619.5C450.134,1618.83 450.022,1618.12 450.032,1617.39C450.042,1616.61 450.169,1615.87 450.413,1615.19C450.667,1614.5 451.038,1613.9 451.525,1613.39C452.023,1612.87 452.642,1612.47 453.384,1612.17C454.125,1611.87 454.999,1611.72 456.004,1611.72ZM412.868,1625.84C412.832,1625.87 412.799,1625.9 412.77,1625.94C412.709,1626.02 412.653,1626.11 412.602,1626.21L412.282,1626.82C412.201,1626.98 412.15,1627.1 412.13,1627.2C412.12,1627.29 412.135,1627.37 412.176,1627.41C412.216,1627.46 412.282,1627.49 412.374,1627.51C412.465,1627.52 412.577,1627.53 412.709,1627.53L413.288,1627.56C413.775,1627.56 414.136,1627.62 414.369,1627.72C414.613,1627.83 414.735,1628.03 414.735,1628.34C414.735,1628.64 414.583,1628.85 414.278,1628.97C413.983,1629.11 413.623,1629.18 413.196,1629.18C412.932,1629.18 412.678,1629.16 412.435,1629.14C412.201,1629.12 412.018,1629.1 411.886,1629.08C411.714,1629.07 411.602,1629.08 411.551,1629.13C411.5,1629.18 411.45,1629.27 411.399,1629.4L411.17,1630.02C411.119,1630.16 411.119,1630.28 411.17,1630.38C411.231,1630.48 411.424,1630.57 411.749,1630.65C411.901,1630.69 412.15,1630.73 412.496,1630.77C412.851,1630.82 413.313,1630.84 413.882,1630.84C415.019,1630.84 415.903,1630.67 416.533,1630.33C417.162,1629.99 417.508,1629.47 417.569,1628.78C417.579,1628.64 417.579,1628.5 417.569,1628.35C417.518,1627.83 417.279,1627.42 416.853,1627.12C416.436,1626.82 415.903,1626.65 415.253,1626.59L415.451,1626.27C415.54,1626.09 415.568,1625.96 415.533,1625.86C415.776,1625.84 416.017,1625.81 416.258,1625.78C416.888,1625.7 417.477,1625.6 418.026,1625.48C418.584,1625.36 419.092,1625.22 419.549,1625.08C420.016,1624.93 420.402,1624.79 420.707,1624.66C420.89,1624.58 421.032,1624.51 421.133,1624.43C421.245,1624.36 421.321,1624.29 421.362,1624.21C421.402,1624.13 421.408,1624.05 421.377,1623.96C421.357,1623.86 421.306,1623.75 421.225,1623.62L420.615,1622.47C420.534,1622.33 420.453,1622.23 420.372,1622.16C420.301,1622.09 420.214,1622.04 420.113,1622.03C420.011,1622 419.889,1622.01 419.747,1622.04C419.615,1622.06 419.452,1622.11 419.26,1622.18C419.026,1622.27 418.757,1622.36 418.452,1622.44C418.158,1622.53 417.833,1622.62 417.477,1622.69C417.122,1622.77 416.746,1622.84 416.35,1622.89C415.954,1622.93 415.542,1622.96 415.116,1622.96C414.151,1622.96 413.293,1622.85 412.541,1622.63C411.8,1622.42 411.175,1622.09 410.668,1621.63C410.16,1621.18 409.774,1620.61 409.51,1619.92C409.246,1619.23 409.114,1618.41 409.114,1617.45C409.114,1615.48 409.621,1614.03 410.637,1613.1C411.663,1612.18 413.156,1611.72 415.116,1611.72C415.563,1611.72 415.994,1611.75 416.411,1611.81C416.827,1611.85 417.218,1611.92 417.584,1612.01C417.96,1612.09 418.3,1612.17 418.604,1612.27C418.909,1612.37 419.178,1612.46 419.412,1612.56C419.605,1612.63 419.762,1612.68 419.884,1612.71C420.006,1612.74 420.108,1612.74 420.189,1612.71C420.27,1612.68 420.341,1612.62 420.402,1612.54C420.473,1612.46 420.549,1612.35 420.631,1612.21L421.225,1611.08C421.367,1610.83 421.418,1610.64 421.377,1610.5C421.347,1610.35 421.149,1610.2 420.783,1610.04C420.478,1609.91 420.097,1609.76 419.64,1609.61C419.183,1609.46 418.676,1609.33 418.117,1609.21C417.558,1609.08 416.959,1608.98 416.319,1608.9C415.68,1608.81 415.035,1608.77 414.385,1608.77C412.983,1608.77 411.683,1608.92 410.485,1609.23C409.296,1609.54 408.266,1610.04 407.392,1610.73C406.529,1611.42 405.848,1612.33 405.351,1613.45C404.863,1614.56 404.62,1615.92 404.62,1617.54C404.62,1619.1 404.863,1620.41 405.351,1621.48C405.848,1622.54 406.529,1623.41 407.392,1624.07C408.266,1624.72 409.296,1625.18 410.485,1625.47C411.239,1625.65 412.033,1625.77 412.868,1625.84ZM241.859,1617.4C241.879,1616.17 241.641,1615.03 241.143,1613.96C240.645,1612.89 239.909,1611.96 238.934,1611.17C237.959,1610.39 236.745,1609.77 235.293,1609.33C233.851,1608.88 232.185,1608.65 230.296,1608.65C228.326,1608.65 226.61,1608.87 225.147,1609.3C223.685,1609.73 222.461,1610.34 221.476,1611.11C220.501,1611.88 219.765,1612.81 219.267,1613.88C218.769,1614.95 218.505,1616.13 218.475,1617.4C218.454,1618.62 218.688,1619.75 219.175,1620.8C219.673,1621.84 220.42,1622.74 221.415,1623.51C222.41,1624.27 223.649,1624.87 225.132,1625.32C226.615,1625.75 228.341,1625.98 230.312,1625.98C232.18,1626 233.831,1625.79 235.263,1625.36C236.695,1624.93 237.893,1624.34 238.858,1623.58C239.833,1622.81 240.569,1621.91 241.067,1620.86C241.575,1619.8 241.839,1618.65 241.859,1617.4ZM230.251,1613.43C230.901,1613.43 231.485,1613.54 232.003,1613.76C232.52,1613.98 232.957,1614.28 233.313,1614.64C233.678,1615.01 233.952,1615.43 234.135,1615.9C234.328,1616.37 234.425,1616.86 234.425,1617.36C234.425,1617.88 234.323,1618.38 234.12,1618.85C233.917,1619.31 233.633,1619.72 233.267,1620.07C232.901,1620.42 232.46,1620.7 231.942,1620.91C231.434,1621.11 230.87,1621.21 230.251,1621.21C229.58,1621.21 228.971,1621.11 228.423,1620.91C227.884,1620.7 227.427,1620.42 227.051,1620.07C226.686,1619.72 226.401,1619.32 226.198,1618.87C226.005,1618.41 225.919,1617.92 225.939,1617.4C225.95,1616.86 226.046,1616.34 226.229,1615.86C226.422,1615.37 226.696,1614.95 227.051,1614.59C227.417,1614.23 227.864,1613.94 228.392,1613.74C228.93,1613.53 229.55,1613.43 230.251,1613.43ZM199.036,1625.65L204.17,1625.65C204.424,1625.65 204.632,1625.64 204.795,1625.61C204.957,1625.58 205.084,1625.53 205.175,1625.46C205.267,1625.39 205.328,1625.29 205.358,1625.16C205.399,1625.03 205.419,1624.87 205.419,1624.67L205.419,1621.56L207.4,1621.56C208.649,1621.56 209.832,1621.44 210.949,1621.21C212.066,1620.97 213.041,1620.59 213.874,1620.07C214.717,1619.56 215.382,1618.89 215.87,1618.07C216.367,1617.25 216.616,1616.27 216.616,1615.11C216.616,1614.06 216.403,1613.15 215.976,1612.39C215.56,1611.62 214.945,1610.98 214.133,1610.48C213.331,1609.98 212.346,1609.61 211.178,1609.38C210.02,1609.13 208.7,1609.01 207.217,1609.01L199.036,1609.01C198.792,1609.01 198.589,1609.02 198.427,1609.05C198.264,1609.08 198.132,1609.13 198.031,1609.21C197.939,1609.28 197.873,1609.38 197.833,1609.51C197.802,1609.63 197.787,1609.79 197.787,1609.98L197.787,1624.67C197.787,1624.87 197.802,1625.03 197.833,1625.16C197.873,1625.29 197.939,1625.39 198.031,1625.46C198.132,1625.53 198.264,1625.58 198.427,1625.61C198.589,1625.64 198.792,1625.65 199.036,1625.65ZM205.419,1617.11L205.419,1613.59L207.019,1613.59C207.486,1613.59 207.862,1613.65 208.146,1613.77C208.43,1613.88 208.649,1614.03 208.801,1614.2C208.953,1614.37 209.055,1614.55 209.106,1614.75C209.157,1614.95 209.182,1615.13 209.182,1615.31C209.182,1615.52 209.146,1615.74 209.075,1615.95C209.004,1616.17 208.882,1616.36 208.71,1616.54C208.547,1616.7 208.334,1616.84 208.07,1616.95C207.806,1617.06 207.476,1617.11 207.08,1617.11L205.419,1617.11ZM229.352,1606.98L230.601,1607.52C230.814,1607.61 231.002,1607.68 231.165,1607.73C231.337,1607.77 231.495,1607.78 231.637,1607.77C231.779,1607.75 231.921,1607.7 232.063,1607.62C232.206,1607.54 232.363,1607.42 232.536,1607.28L235.781,1604.54C236.126,1604.24 236.278,1604.02 236.238,1603.87C236.197,1603.71 235.958,1603.55 235.522,1603.37L232.475,1602.15C232.251,1602.07 232.058,1602.01 231.896,1601.99C231.733,1601.96 231.586,1601.96 231.454,1601.99C231.332,1602.02 231.215,1602.09 231.104,1602.19C231.002,1602.29 230.896,1602.42 230.784,1602.6L228.788,1605.62C228.676,1605.79 228.6,1605.94 228.56,1606.06C228.529,1606.19 228.534,1606.31 228.575,1606.41C228.615,1606.51 228.697,1606.61 228.819,1606.71C228.951,1606.79 229.128,1606.88 229.352,1606.98ZM244.753,1620.97L243.504,1623.41C243.413,1623.59 243.347,1623.75 243.306,1623.87C243.266,1624 243.26,1624.11 243.291,1624.21C243.332,1624.3 243.413,1624.39 243.535,1624.46C243.657,1624.53 243.824,1624.61 244.037,1624.68C244.413,1624.82 244.855,1624.96 245.363,1625.11C245.881,1625.26 246.475,1625.41 247.145,1625.54C247.826,1625.67 248.587,1625.78 249.43,1625.86C250.273,1625.95 251.213,1626 252.249,1626C253.792,1626 255.128,1625.87 256.255,1625.61C257.393,1625.36 258.332,1624.99 259.073,1624.51C259.825,1624.01 260.378,1623.41 260.734,1622.71C261.1,1621.99 261.282,1621.18 261.282,1620.28C261.282,1619.62 261.115,1619.01 260.78,1618.45C260.455,1617.9 259.982,1617.4 259.363,1616.96C258.743,1616.52 257.982,1616.14 257.078,1615.82C256.184,1615.5 255.174,1615.25 254.046,1615.06C253.66,1614.99 253.3,1614.93 252.965,1614.86C252.629,1614.78 252.34,1614.71 252.096,1614.63C251.853,1614.55 251.66,1614.46 251.517,1614.37C251.375,1614.26 251.304,1614.15 251.304,1614.03C251.304,1613.81 251.502,1613.66 251.898,1613.57C252.304,1613.47 252.98,1613.43 253.924,1613.43C254.341,1613.43 254.757,1613.45 255.174,1613.49C255.6,1613.53 255.996,1613.57 256.362,1613.63C256.738,1613.68 257.063,1613.74 257.337,1613.81C257.621,1613.86 257.829,1613.91 257.961,1613.94C258.378,1614.05 258.698,1614.07 258.921,1613.99C259.155,1613.91 259.368,1613.7 259.561,1613.35L260.734,1611.15C260.825,1610.97 260.891,1610.81 260.932,1610.68C260.973,1610.56 260.978,1610.45 260.947,1610.35C260.917,1610.25 260.841,1610.16 260.719,1610.08C260.607,1610 260.445,1609.92 260.231,1609.84C259.845,1609.7 259.358,1609.55 258.769,1609.41C258.18,1609.27 257.55,1609.14 256.88,1609.03C256.22,1608.91 255.554,1608.82 254.884,1608.74C254.214,1608.67 253.604,1608.64 253.056,1608.64C251.431,1608.64 250.029,1608.77 248.851,1609.04C247.673,1609.3 246.698,1609.69 245.926,1610.2C245.165,1610.7 244.601,1611.33 244.235,1612.07C243.87,1612.8 243.687,1613.63 243.687,1614.57C243.687,1615.34 243.875,1616 244.251,1616.56C244.626,1617.12 245.139,1617.59 245.789,1617.99C246.439,1618.38 247.191,1618.7 248.044,1618.97C248.907,1619.22 249.826,1619.43 250.801,1619.6C251.208,1619.67 251.583,1619.74 251.929,1619.82C252.284,1619.9 252.589,1619.99 252.843,1620.07C253.107,1620.16 253.31,1620.26 253.452,1620.36C253.604,1620.45 253.681,1620.56 253.681,1620.67C253.681,1620.87 253.508,1621.01 253.163,1621.09C252.817,1621.17 252.284,1621.21 251.563,1621.21C251.076,1621.21 250.598,1621.18 250.131,1621.13C249.664,1621.08 249.212,1621.01 248.775,1620.93C248.339,1620.84 247.922,1620.76 247.526,1620.67C247.14,1620.57 246.79,1620.48 246.475,1620.4C246.231,1620.32 246.023,1620.28 245.85,1620.28C245.678,1620.26 245.525,1620.28 245.393,1620.32C245.261,1620.36 245.144,1620.44 245.043,1620.55C244.941,1620.65 244.845,1620.79 244.753,1620.97Z" style="fill:white;"/>
            </g>
        </g>
    </g>
</svg>
