<?xml version="1.0" encoding="UTF-8" standalone="no"?>
<!DOCTYPE svg PUBLIC "-//W3C//DTD SVG 1.1//EN" "http://www.w3.org/Graphics/SVG/1.1/DTD/svg11.dtd">
<svg width="100%" height="100%" viewBox="0 0 50 50" version="1.1" xmlns="http://www.w3.org/2000/svg" xmlns:xlink="http://www.w3.org/1999/xlink" xml:space="preserve" xmlns:serif="http://www.serif.com/" style="fill-rule:evenodd;clip-rule:evenodd;stroke-linejoin:round;stroke-miterlimit:2;">
    <g transform="matrix(1,0,0,2.3871,-37.2684,-807.048)">
        <path d="M62.268,338.087C76.076,338.087 87.269,342.776 87.269,348.56C87.269,354.344 76.076,359.033 62.268,359.033C48.461,359.033 37.268,354.344 37.268,348.56C37.268,342.776 48.461,338.087 62.268,338.087ZM62.269,354.597C70.218,354.597 76.678,351.89 76.678,348.561C76.678,345.23 70.217,342.524 62.269,342.524C54.321,342.524 47.859,345.231 47.859,348.561C47.859,351.891 54.321,354.597 62.269,354.597ZM62.269,343.366C69.105,343.366 74.668,345.697 74.668,348.561C74.668,351.424 69.105,353.755 62.269,353.755C55.433,353.755 49.87,351.424 49.87,348.561C49.87,345.697 55.433,343.366 62.269,343.366ZM67.631,350.666L67.631,350.661C67.939,350.661 68.234,350.605 68.435,350.493C68.77,350.307 68.676,350.044 68.234,349.903L63.274,348.347L63.274,345.191C63.274,344.961 62.818,344.77 62.269,344.77C61.72,344.77 61.263,344.961 61.263,345.191L61.263,348.561C61.263,348.695 61.41,348.819 61.666,348.898L67.028,350.582C67.215,350.638 67.416,350.666 67.631,350.666Z" style="fill:rgb(69,183,229);"/>
    </g>
</svg>
