<?xml version="1.0" encoding="UTF-8" standalone="no"?>
<!DOCTYPE svg PUBLIC "-//W3C//DTD SVG 1.1//EN" "http://www.w3.org/Graphics/SVG/1.1/DTD/svg11.dtd">
<svg width="100%" height="100%" viewBox="0 0 308 422" version="1.1" xmlns="http://www.w3.org/2000/svg" xmlns:xlink="http://www.w3.org/1999/xlink" xml:space="preserve" xmlns:serif="http://www.serif.com/" style="fill-rule:evenodd;clip-rule:evenodd;stroke-linejoin:round;stroke-miterlimit:2;">
    <g transform="matrix(1,0,0,1,-3326.66,-4415.62)">
        <g transform="matrix(1,0,0,1,-115.946,803)">
            <g transform="matrix(6.04949,0,0,6.04949,3262.15,3515.92)">
                <path d="M74.222,37.351C73.092,48.367 72.965,58.818 74.842,70.446C74.923,70.952 73.75,74.257 61.999,74.184C50.247,74.111 49.076,70.963 49.155,70.466C50.851,59.962 50.911,50.432 50.081,40.582C58.869,41.193 63.644,37.494 74.222,37.351ZM60.707,56.711L60.707,60.136C60.707,60.85 61.285,61.428 61.999,61.428C62.713,61.428 63.291,60.85 63.291,60.136L63.291,56.711L66.716,56.711C67.429,56.711 68.007,56.133 68.007,55.419C68.007,54.706 67.429,54.128 66.716,54.128L63.291,54.128L63.291,50.703C63.291,49.989 62.713,49.411 61.999,49.411C61.285,49.411 60.707,49.989 60.707,50.703L60.707,54.128L57.282,54.128C56.569,54.128 55.991,54.706 55.991,55.419C55.991,56.133 56.569,56.711 57.282,56.711L60.707,56.711Z"/>
            </g>
        </g>
        <g transform="matrix(1,0,0,1,-115.946,803)">
            <g transform="matrix(5.00575,0,0,5.00575,3326.86,3575.47)">
                <path d="M23.123,91.577L23.123,12C23.123,9.476 25.175,7.423 27.699,7.423L53,7.423C55.524,7.423 57.577,9.476 57.577,12L57.577,15C57.577,17.439 59.561,19.423 62,19.423C64.439,19.423 66.423,17.439 66.423,15L66.423,12C66.423,11.129 67.129,10.423 68,10.423C68.871,10.423 69.577,11.129 69.577,12L69.577,15C69.577,19.178 66.178,22.577 62,22.577C57.822,22.577 54.423,19.178 54.423,15L54.423,12C54.423,11.214 53.786,10.577 53,10.577L27.699,10.577C26.914,10.577 26.276,11.214 26.276,12L26.276,91.577L23.123,91.577Z" style="fill-rule:nonzero;"/>
            </g>
        </g>
        <g transform="matrix(1,0,0,1,-115.946,803)">
            <g transform="matrix(5.00575,0,0,5.00575,3326.86,3575.47)">
                <path d="M84.5,28.218L84.499,28.222C82.435,42.525 81.533,54.941 83.807,69.014C84.752,74.971 80.68,80.586 74.73,81.537L74.726,81.537C73.435,81.747 72.137,81.862 70.841,82.008C70.121,82.089 69.577,82.697 69.577,83.422L69.577,91.577L66.423,91.577L66.423,83.869C66.423,83.482 66.266,83.113 65.988,82.844C65.709,82.576 65.334,82.433 64.947,82.447C63.965,82.483 62.984,82.567 62.001,82.567C61.018,82.567 60.035,82.483 59.053,82.447C58.666,82.433 58.291,82.576 58.012,82.844C57.734,83.113 57.577,83.482 57.577,83.869L57.577,87C57.577,87.871 56.871,88.577 56,88.577C55.129,88.577 54.423,87.871 54.423,87L54.423,83.423C54.423,82.698 53.879,82.089 53.158,82.009C51.861,81.863 50.56,81.748 49.267,81.537L49.264,81.537C43.32,80.586 39.248,74.972 40.192,69.023C42.467,54.935 41.568,42.521 39.499,28.215L39.499,28.213C39.177,26.014 39.83,23.78 41.289,22.093L41.289,22.092C42.754,20.397 44.88,19.423 47.12,19.423L52.2,19.423C52.547,20.538 53.419,21.793 54.202,22.577C54.202,22.577 47.12,22.577 47.12,22.577C45.778,22.577 44.554,23.136 43.675,24.154C42.802,25.163 42.427,26.445 42.619,27.76C44.724,42.316 45.654,54.985 43.306,69.521L43.306,69.525C42.635,73.748 45.53,77.745 49.767,78.423C57.888,79.739 66.113,79.742 74.227,78.423C78.468,77.745 81.363,73.75 80.692,69.516L80.691,69.512C78.346,54.99 79.276,42.319 81.378,27.763C81.572,26.443 81.196,25.164 80.326,24.154L80.325,24.154C79.446,23.137 78.223,22.577 76.88,22.577L69.813,22.577C70.802,21.793 71.481,20.538 71.831,19.423C71.831,19.423 76.88,19.423 76.88,19.423C79.12,19.423 81.246,20.397 82.711,22.093L82.711,22.094C84.17,23.781 84.824,26.014 84.5,28.218Z" style="fill-rule:nonzero;"/>
            </g>
        </g>
    </g>
</svg>
