<?xml version="1.0" encoding="UTF-8" standalone="no"?>
<!DOCTYPE svg PUBLIC "-//W3C//DTD SVG 1.1//EN" "http://www.w3.org/Graphics/SVG/1.1/DTD/svg11.dtd">
<svg width="100%" height="100%" viewBox="0 0 660 68" version="1.1" xmlns="http://www.w3.org/2000/svg" xmlns:xlink="http://www.w3.org/1999/xlink" xml:space="preserve" xmlns:serif="http://www.serif.com/" style="fill-rule:evenodd;clip-rule:evenodd;stroke-linejoin:round;stroke-miterlimit:2;">
    <g transform="matrix(1,0,0,1,-91.33,-263.67)">
        <path d="M638.69,306.08C644.37,301.993 647.213,297.067 647.22,291.3L647.22,278C647.22,269.333 642.967,265 634.46,265C625.953,265 621.7,269.333 621.7,278L621.7,282.1C621.7,282.103 621.7,282.107 621.7,282.11C621.7,284.178 623.402,285.88 625.47,285.88C625.47,285.88 629.26,285.88 629.26,285.88L629.26,278C629.26,274.3 630.99,272.46 634.46,272.46L634.53,272.46C637.95,272.46 639.66,274.3 639.66,278L639.66,291.05C639.66,294.383 636.507,298.277 630.2,302.73C624.527,306.81 621.693,311.673 621.7,317.32L621.7,326.87C621.7,328.9 623.37,330.57 625.4,330.57L647.22,330.57L647.22,326.86C647.228,324.893 645.665,323.246 643.7,323.15L629.26,323.15L629.26,318.15C629.26,314.583 632.403,310.56 638.69,306.08Z" style="fill:white;fill-rule:nonzero;"/>
        <path d="M706,306.08C711.68,301.993 714.523,297.067 714.53,291.3L714.53,278C714.53,269.333 710.277,265 701.77,265C693.263,265 689.007,269.333 689,278L689,282.1C689,282.103 689,282.107 689,282.11C689,284.178 690.702,285.88 692.77,285.88C692.77,285.88 696.56,285.88 696.56,285.88L696.56,278C696.56,274.3 698.29,272.46 701.76,272.46L701.83,272.46C705.25,272.46 706.97,274.3 706.97,278L706.97,291.05C706.97,294.383 703.817,298.277 697.51,302.73C691.83,306.81 688.993,311.673 689,317.32L689,326.87C689,328.9 690.67,330.57 692.7,330.57L714.52,330.57L714.52,326.86C714.528,324.893 712.965,323.246 711,323.15L696.52,323.15L696.52,318.15C696.52,314.583 699.68,310.56 706,306.08Z" style="fill:white;fill-rule:nonzero;"/>
        <path d="M746.86,306.86L746.86,269.64C746.765,267.672 745.121,266.103 743.15,266.1L738.78,266.1C737.349,266.105 736.042,266.936 735.43,268.23L735.3,268.57L720.3,305.79C719.959,306.649 719.782,307.565 719.78,308.49L719.78,310.78C719.876,312.736 721.512,314.292 723.47,314.29L739.3,314.29L739.3,326.81C739.3,328.884 741.006,330.59 743.08,330.59L746.86,330.59L746.86,314.29L750.56,314.29L750.56,306.86L746.86,306.86ZM739.3,306.86L726.76,306.86L739.3,275.08L739.3,306.86Z" style="fill:white;fill-rule:nonzero;"/>
        <path d="M680.85,318.69C680.85,327.303 676.597,331.61 668.09,331.61C659.583,331.61 655.33,327.303 655.33,318.69L655.33,278C655.33,269.333 659.583,265 668.09,265C676.597,265 680.85,269.333 680.85,278L680.85,318.69ZM673.29,278C673.29,274.34 671.567,272.51 668.12,272.51L668.06,272.51C664.613,272.51 662.89,274.34 662.89,278L662.89,318.71C662.89,322.37 664.623,324.2 668.09,324.2C671.557,324.2 673.29,322.37 673.29,318.71L673.29,278Z" style="fill:white;fill-rule:nonzero;"/>
        <path d="M558.67,280.08C558.67,275.77 561.87,275.85 564.06,274.99C566.25,274.13 566.21,272.82 565.38,272.43C564.55,272.04 564.2,273.43 562.05,273.43C561.979,273.434 561.908,273.436 561.836,273.436C559.757,273.436 558.046,271.725 558.046,269.646C558.046,269.591 558.048,269.535 558.05,269.48C558.05,266.8 560.05,265.05 563.05,265.05C566.05,265.05 568,266.8 568,271.05L568,293.43L558.79,293.43L558.67,280.08Z" style="fill:white;fill-rule:nonzero;"/>
        <path d="M551.92,279.54C550.895,278.51 549.65,277.724 548.28,277.24C546.846,276.72 545.356,276.367 543.84,276.19C542.38,276.01 541,275.81 539.73,275.58C538.72,275.423 537.735,275.134 536.8,274.72C536.402,274.6 536.138,274.215 536.17,273.8C536.134,272.9 536.601,272.051 537.38,271.6C538.686,270.902 540.161,270.58 541.64,270.67C543.026,270.556 544.417,270.848 545.64,271.51C546.345,272.002 546.784,272.792 546.83,273.65L546.94,274.83L552.59,274.1L552.5,273.01C552.412,271.764 552.028,270.558 551.38,269.49C550.764,268.494 549.942,267.642 548.97,266.99C547.948,266.323 546.823,265.83 545.64,265.53C544.331,265.206 542.989,265.035 541.64,265.02L541.35,265.02C539.974,265.014 538.604,265.182 537.27,265.52C536.008,265.825 534.812,266.357 533.74,267.09C532.692,267.813 531.831,268.777 531.23,269.9C530.604,271.103 530.288,272.444 530.31,273.8C530.221,275.413 530.813,276.992 531.94,278.15C532.98,279.123 534.224,279.854 535.58,280.29C537.011,280.763 538.485,281.098 539.98,281.29C541.44,281.48 542.82,281.71 544.08,281.97C545.087,282.16 546.061,282.497 546.97,282.97C547.429,283.189 547.705,283.673 547.66,284.18C547.722,285.235 547.178,286.237 546.26,286.76C544.783,287.519 543.127,287.865 541.47,287.76C539.959,287.817 538.463,287.449 537.15,286.7C536.253,286.178 535.689,285.227 535.66,284.19L535.58,282.98L529.85,283.7L529.91,284.76C529.966,285.808 530.186,286.84 530.56,287.82C530.976,288.934 531.664,289.928 532.56,290.71C533.606,291.601 534.815,292.281 536.12,292.71C539.77,293.723 543.633,293.681 547.26,292.59C548.658,292.111 549.937,291.336 551.01,290.32C551.925,289.446 552.612,288.361 553.01,287.16C553.328,286.164 553.496,285.126 553.51,284.08C553.605,282.416 553.032,280.781 551.92,279.54Z" style="fill:white;fill-rule:nonzero;"/>
        <path d="M579.55,287.67L579.29,287.67L579.29,265L573.29,265L573.29,293.4L593.9,293.4L593.9,287.65L579.55,287.67Z" style="fill:white;fill-rule:nonzero;"/>
        <path d="M541,330.48C536.53,330.48 533,328.07 533,323.98C533,320.63 535.32,318.08 540.53,316.91C543.088,316.437 545.691,316.252 548.29,316.36C550.61,316.36 551.96,316.22 551.73,314.78C551.73,314.68 551.54,313.85 549.73,313.85C548.563,313.904 547.407,314.105 546.29,314.45C544.665,314.932 542.984,315.198 541.29,315.24C535.57,315.24 532.97,311.52 532.97,306.55C532.97,300.7 537.43,297.95 544.12,297.95L563.83,297.95L563.83,307.25L539.83,307.25C538.76,307.25 538.25,307.85 538.67,308.6C539.23,309.6 540.9,309.94 542.94,309.94C544.712,309.922 546.477,309.704 548.2,309.29C549.919,308.872 551.681,308.653 553.45,308.64C557.35,308.64 560.65,309.9 560.65,313.64C560.65,319.58 552.19,319.3 546.15,319.3C544.676,319.239 543.199,319.319 541.74,319.54C540.74,319.72 540.3,320.09 540.34,320.54C540.38,320.99 540.71,321.19 541.74,321.19L563.86,321.19L563.86,330.48L541,330.48Z" style="fill:white;fill-rule:nonzero;"/>
        <path d="M569,308.83C568.962,307.112 569.513,305.432 570.56,304.07C571.714,302.638 573.168,301.477 574.82,300.67C576.756,299.729 578.812,299.056 580.93,298.67C583.279,298.212 585.667,297.984 588.06,297.99C590.91,297.975 593.755,298.249 596.55,298.81C598.981,299.303 601.359,300.03 603.65,300.98L603.65,312.1C602.57,311.339 601.375,310.755 600.11,310.37C597.134,309.405 594.028,308.903 590.9,308.88C590.02,308.871 589.141,308.928 588.27,309.05C587.625,309.123 586.995,309.292 586.4,309.55C585.93,309.78 585.7,310.06 585.7,310.42C585.691,310.59 585.77,310.753 585.91,310.85C586.109,310.963 586.332,311.028 586.56,311.04C586.93,311.064 587.3,311.064 587.67,311.04L591.57,311.04C593.188,311.044 594.805,311.148 596.41,311.35C597.937,311.534 599.427,311.949 600.83,312.58C602.111,313.152 603.216,314.057 604.03,315.2C604.89,316.538 605.312,318.111 605.24,319.7C605.298,321.504 604.725,323.273 603.62,324.7C602.449,326.144 600.946,327.283 599.24,328.02C597.264,328.911 595.18,329.536 593.04,329.88C590.676,330.265 588.285,330.456 585.89,330.45C582.991,330.452 580.098,330.181 577.25,329.64C574.716,329.194 572.26,328.382 569.96,327.23L569.96,315.52C570.927,316.488 572.104,317.221 573.4,317.66C574.973,318.241 576.602,318.659 578.26,318.91C579.894,319.172 581.545,319.309 583.2,319.32C584.099,319.324 584.998,319.268 585.89,319.15C586.548,319.079 587.19,318.9 587.79,318.62C588.19,318.476 588.467,318.105 588.49,317.68C588.503,317.553 588.45,317.428 588.35,317.35C588.208,317.27 588.052,317.219 587.89,317.2C587.611,317.164 587.331,317.147 587.05,317.15L584.16,317.15C583.04,317.15 581.79,317.15 580.43,317.03C579.062,316.953 577.702,316.775 576.36,316.5C575.077,316.251 573.838,315.816 572.68,315.21C571.596,314.629 570.677,313.783 570.01,312.75C569.301,311.569 568.95,310.207 569,308.83Z" style="fill:white;fill-rule:nonzero;"/>
        <path d="M495.58,308.1C494.816,306.72 493.733,305.544 492.42,304.67C491.094,303.799 489.62,303.178 488.07,302.84C484.999,302.139 481.812,302.112 478.73,302.76C477.289,303.053 475.907,303.584 474.64,304.33C473.383,305.072 472.298,306.075 471.46,307.27C470.643,308.465 470.119,309.835 469.93,311.27L469.75,312.46L476.04,313.3L476.25,312.18C476.353,311.52 476.588,310.888 476.94,310.32C477.3,309.769 477.787,309.313 478.36,308.99C479.02,308.628 479.737,308.381 480.48,308.26C481.368,308.106 482.268,308.029 483.17,308.03C484.97,307.915 486.767,308.303 488.36,309.15C489.498,309.991 490.129,311.359 490.03,312.77C490.03,312.93 490.03,313.25 489.13,313.43C487.913,313.658 486.678,313.785 485.44,313.81C483.91,313.87 482.24,313.92 480.44,313.97C478.656,314.011 476.885,314.28 475.17,314.77C473.586,315.204 472.133,316.021 470.94,317.15C469.668,318.491 469.014,320.306 469.14,322.15C469.106,323.751 469.646,325.312 470.66,326.55C471.653,327.75 472.904,328.711 474.32,329.36C475.546,329.972 476.875,330.352 478.24,330.48C479.34,330.56 480.04,330.59 480.38,330.59C481.86,330.593 483.333,330.377 484.75,329.95C486.737,329.323 488.557,328.253 490.07,326.82L490.19,326.72C490.247,326.959 490.324,327.193 490.42,327.42C490.671,328.003 491.031,328.532 491.48,328.98C491.957,329.455 492.53,329.823 493.16,330.06C493.941,330.282 494.748,330.403 495.56,330.42L496.8,330.48L496.8,313.48C496.862,311.612 496.442,309.759 495.58,308.1ZM490,321C489.966,321.058 489.936,321.118 489.91,321.18C489.842,321.346 489.762,321.506 489.67,321.66C489.543,321.902 489.396,322.133 489.23,322.35C489.087,322.535 488.929,322.709 488.76,322.87C488.319,323.261 487.832,323.597 487.31,323.87L487.16,323.95C486.928,324.101 486.684,324.231 486.43,324.34C485.501,324.742 484.522,325.018 483.52,325.16C482.856,325.244 482.189,325.294 481.52,325.31C480.696,325.302 479.876,325.212 479.07,325.04C478.254,324.865 477.492,324.494 476.85,323.96C476.264,323.485 475.946,322.752 476,322C475.944,321.334 476.169,320.674 476.62,320.18C477.147,319.691 477.791,319.347 478.49,319.18C479.44,318.947 480.412,318.813 481.39,318.78C482.53,318.72 483.68,318.68 484.84,318.65C486,318.62 487.16,318.53 488.23,318.4C488.848,318.337 489.455,318.199 490.04,317.99L490,321Z" style="fill:white;fill-rule:nonzero;"/>
        <path d="M522,298L522,308.72C521.502,308.268 520.963,307.863 520.39,307.51C519.623,307.024 518.813,306.609 517.97,306.27C517.122,305.928 516.245,305.664 515.35,305.48C514.494,305.304 513.623,305.214 512.75,305.21C509.05,305.21 506.1,306.32 503.99,308.42C502.836,309.591 501.99,311.031 501.53,312.61C501.015,314.359 500.769,316.177 500.8,318C500.8,318.71 500.8,319.39 500.89,320.05C500.99,322.856 502.086,325.537 503.98,327.61C505.688,329.259 507.885,330.312 510.24,330.61C511.071,330.733 511.91,330.793 512.75,330.79C513.616,330.783 514.479,330.699 515.33,330.54C516.228,330.378 517.109,330.13 517.96,329.8C518.801,329.476 519.61,329.078 520.38,328.61C520.921,328.284 521.436,327.916 521.92,327.51C522.185,328.069 522.551,328.574 523,329C523.474,329.475 524.043,329.843 524.67,330.08C525.452,330.301 526.258,330.422 527.07,330.44L528.31,330.44L528.31,298L522,298ZM521.54,320.55C521.48,320.708 521.41,320.861 521.33,321.01C520.894,321.875 520.284,322.64 519.54,323.26C518.797,323.875 517.95,324.352 517.04,324.67C516.14,324.988 515.194,325.153 514.24,325.16C513.098,325.183 511.96,325.038 510.86,324.73C510.055,324.489 509.321,324.057 508.72,323.47C508.186,322.92 507.783,322.257 507.54,321.53L507.47,321.31C507.166,320.234 507.021,319.118 507.04,318C507.023,316.875 507.168,315.754 507.47,314.67C507.703,313.854 508.128,313.107 508.71,312.49C509.306,311.893 510.042,311.453 510.85,311.21C511.951,310.887 513.092,310.722 514.24,310.72C516.185,310.753 518.059,311.46 519.54,312.72C519.862,313.002 520.159,313.309 520.43,313.64C520.781,314.065 521.083,314.527 521.33,315.02C521.787,315.953 522.016,316.981 522,318.02C522.011,318.867 521.862,319.709 521.56,320.5L521.54,320.55Z" style="fill:white;fill-rule:nonzero;"/>
        <path d="M597.18,265.34L597.18,286.5L598.62,286.5C601.242,286.5 603.4,284.342 603.4,281.72L603.4,265.34L597.18,265.34Z" style="fill:white;fill-rule:nonzero;"/>
        <path d="M600.23,287.88C598.673,287.949 597.43,289.249 597.43,290.807C597.43,292.414 598.753,293.737 600.36,293.737C601.966,293.737 603.288,292.416 603.29,290.81C603.252,289.168 601.872,287.847 600.23,287.88Z" style="fill:white;fill-rule:nonzero;"/>
        <path d="M464.23,310.18C463.846,308.684 463.247,307.253 462.45,305.93C461.637,304.592 460.59,303.41 459.36,302.44C458.004,301.388 456.469,300.588 454.83,300.08C452.871,299.479 450.829,299.188 448.78,299.22L427.11,299.22L427.11,330.58L448.78,330.58C451.264,330.646 453.734,330.189 456.03,329.24C457.944,328.433 459.653,327.206 461.03,325.65C462.318,324.166 463.294,322.439 463.9,320.57C464.517,318.702 464.831,316.747 464.83,314.78C464.827,313.227 464.626,311.681 464.23,310.18ZM444.85,320.08L437.06,314.9L444.85,309.72L452.65,314.9L444.85,320.08Z" style="fill:white;fill-rule:nonzero;"/>
        <path d="M464.58,282.37C463.864,281.172 462.824,280.201 461.58,279.57C460.01,278.781 458.266,278.402 456.51,278.47C454.754,278.538 456.51,278.47 456.51,278.47C458.041,278.517 459.559,278.173 460.92,277.47C463.058,276.325 464.404,274.095 464.42,271.67C464.42,270.554 464.127,269.457 463.57,268.49C462.971,267.45 462.1,266.592 461.05,266.01C459.763,265.313 458.314,264.967 456.85,265.01L427.05,265.01L427.05,293.42L456.85,293.42C458.141,293.445 459.426,293.232 460.64,292.79C461.656,292.42 462.582,291.841 463.36,291.09C464.067,290.406 464.628,289.586 465.01,288.68C465.879,286.625 465.715,284.274 464.57,282.36L464.58,282.37ZM449.43,285.55L442,285.55L442,280.63L449.43,280.63C450.78,280.63 451.89,281.74 451.89,283.09C451.89,284.44 450.78,285.55 449.43,285.55ZM449.43,276.23L442,276.23L442,271.31L449.43,271.31C450.78,271.31 451.89,272.42 451.89,273.77C451.89,275.12 450.78,276.23 449.43,276.23Z" style="fill:white;fill-rule:nonzero;"/>
        <path d="M514.77,293.16C514.54,292.94 514.31,292.7 514.09,292.45C511.705,294.77 508.644,296.272 505.35,296.74L503.43,296.74C502.529,296.734 501.631,296.636 500.75,296.45C498.899,296.071 497.146,295.315 495.6,294.23C490.41,290.59 488.66,283.99 488.09,280.79L488.76,280.56C489.22,280.4 489.666,280.2 490.09,279.96C490.513,279.719 490.898,279.416 491.23,279.06L492.02,278.24C492.338,277.875 492.61,277.472 492.83,277.04C493.056,276.564 493.227,276.064 493.34,275.55C493.463,274.945 493.52,274.328 493.51,273.71C493.686,271.128 492.559,268.622 490.51,267.04C488.224,265.551 485.525,264.823 482.8,264.96L469.66,264.96L469.66,299.29L475.66,299.29L475.66,284.13L482.81,284.13C484.1,289.41 488.08,299.83 499.54,302.24C500.888,302.522 502.262,302.662 503.64,302.66L505.22,302.66C508.19,302.491 511.096,301.733 513.77,300.43C515.02,299.826 516.203,299.092 517.3,298.24C518.208,297.529 519.066,296.757 519.87,295.93C517.944,295.503 516.177,294.543 514.77,293.16ZM487.46,276C487.179,276.499 486.793,276.933 486.33,277.27C485.777,277.684 485.153,277.996 484.49,278.19C483.704,278.421 482.889,278.536 482.07,278.53L475.66,278.53L475.66,270.53L482.48,270.53C483.319,270.519 484.156,270.593 484.98,270.75C485.547,270.856 486.088,271.073 486.57,271.39C486.964,271.681 487.274,272.071 487.47,272.52C487.728,273.154 487.848,273.836 487.82,274.52C487.825,275.036 487.701,275.544 487.46,276Z" style="fill:white;fill-rule:nonzero;"/>
        <path d="M522,278.74C518.32,278.74 513.5,284.19 509.25,284.47C507.49,284.58 506.53,283.73 506.53,282.54C506.47,277.1 526.09,280.9 525.92,270.86C525.86,266.27 521.72,264.97 515.2,265.08C513.2,265.08 507.27,265.03 499.2,265.03L499.2,275.8L507.76,275.8C509.35,275.8 510.08,275.97 510.08,276.3C510.08,276.81 508.95,277.38 506.4,277.95C498.18,279.76 496.31,283.45 496.31,286.95C496.31,292.45 500.96,294.09 504.08,294.09C507.91,294.09 511.86,291.62 514.46,287.91C514.463,287.89 514.463,287.87 514.46,287.85C514.457,287.877 514.457,287.903 514.46,287.93L515.36,289.5C516.758,291.917 519.347,293.411 522.14,293.41L525.31,293.41L525.31,283.21C525.29,280.44 524,278.74 522,278.74Z" style="fill:white;fill-rule:nonzero;"/>
        <path d="M95.18,330.45L99,330.45L99,280C98.995,277.89 97.26,276.155 95.15,276.15L91.33,276.15L91.33,326.64C91.352,328.737 93.083,330.45 95.18,330.45Z" style="fill:white;fill-rule:nonzero;"/>
        <path d="M95.18,272.51C95.18,272.51 99,272.51 99,272.51L99,268.58C98.995,266.47 97.26,264.735 95.15,264.73L91.33,264.73L91.33,268.65C91.33,268.653 91.33,268.657 91.33,268.66C91.33,270.772 93.068,272.51 95.18,272.51Z" style="fill:white;fill-rule:nonzero;"/>
        <path d="M212.52,264.73L208.67,264.73L208.67,315.23C208.675,317.34 210.41,319.075 212.52,319.08L216.37,319.08L216.37,268.6C216.37,268.597 216.37,268.593 216.37,268.59C216.37,266.476 214.634,264.735 212.52,264.73Z" style="fill:white;fill-rule:nonzero;"/>
        <path d="M212.52,322.67L208.67,322.67L208.67,326.6C208.675,328.71 210.41,330.445 212.52,330.45L216.37,330.45L216.37,326.54C216.37,326.537 216.37,326.533 216.37,326.53C216.37,324.416 214.634,322.675 212.52,322.67Z" style="fill:white;fill-rule:nonzero;"/>
        <path d="M129.67,264.82L126.19,264.87L126.19,311.94L115,264.73L111.51,264.73C109.089,264.735 107.1,266.729 107.1,269.15L107.1,326.78C107.1,328.79 108.75,330.445 110.76,330.45L114.43,330.45L114.43,284.45L124.43,326.96L125.26,330.49C125.26,330.49 128.75,330.49 128.75,330.49C131.169,330.49 133.16,328.499 133.16,326.08C133.16,326.077 133.16,326.073 133.16,326.07C133.16,326.07 133.16,268.3 133.16,268.3C133.16,266.391 131.589,264.82 129.68,264.82C129.677,264.82 129.673,264.82 129.67,264.82Z" style="fill:white;fill-rule:nonzero;"/>
        <path d="M154.27,263.67C145.603,263.67 141.27,268.06 141.27,276.84L141.27,283.22C141.27,289.1 144.16,294.14 149.97,298.29C156.377,302.877 159.58,306.98 159.58,310.6L159.58,318.34C159.58,322.08 157.82,323.94 154.3,323.94C150.78,323.94 148.97,322.08 148.97,318.34L148.97,314.08C148.978,312.04 147.358,310.331 145.32,310.23L141.27,310.23L141.27,318.34C141.27,327.12 145.603,331.527 154.27,331.56C162.937,331.593 167.27,327.187 167.27,318.34L167.27,309.76C167.27,304.027 164.367,299.08 158.56,294.92C152.16,290.35 148.96,286.37 148.96,283.02L148.96,276.84C148.96,273.11 150.71,271.24 154.23,271.24L154.29,271.24C157.81,271.24 159.57,273.107 159.57,276.84L159.57,281.09C159.575,283.202 161.308,284.939 163.42,284.95L167.27,284.95L167.27,276.84C167.27,268.06 162.937,263.67 154.27,263.67Z" style="fill:white;fill-rule:nonzero;"/>
        <path d="M188.59,264.73L179.23,264.73C177.116,264.735 175.38,266.476 175.38,268.59C175.38,268.593 175.38,268.597 175.38,268.6L175.38,326.6C175.385,328.712 177.118,330.449 179.23,330.46L183.09,330.46L183.09,301.39L185.72,301.39C187.81,301.471 189.901,301.235 191.92,300.69C197.68,298.817 200.56,294.637 200.56,288.15L200.56,278C200.56,269.173 196.57,264.75 188.59,264.73ZM192.86,288.15C192.86,290.777 191.76,292.547 189.56,293.46C188.515,293.726 187.437,293.837 186.36,293.79L183.09,293.79L183.09,272.31L187.59,272.31C191.09,272.31 192.86,274.2 192.86,277.99L192.86,288.15Z" style="fill:white;fill-rule:nonzero;"/>
        <path d="M250.74,325.32C250.74,325.2 250.65,325.08 250.62,324.96L241.68,299.33C247.01,297.38 249.68,293.64 249.68,288.15L249.68,278C249.68,269.18 245.68,264.76 237.68,264.74L228.33,264.74C226.216,264.745 224.48,266.486 224.48,268.6C224.48,268.603 224.48,268.607 224.48,268.61L224.48,326.61C224.485,328.722 226.218,330.459 228.33,330.47L232.18,330.47L232.18,300.93L235.18,300.53L243.06,327.24L243.25,327.87C243.833,329.406 245.307,330.434 246.95,330.45L252.53,330.45L250.74,325.32ZM238.66,293.46C237.615,293.726 236.537,293.837 235.46,293.79L232.18,293.79L232.18,272.31L236.69,272.31C240.197,272.31 241.95,274.203 241.95,277.99L241.95,288.15C242,290.78 240.86,292.55 238.66,293.46Z" style="fill:white;fill-rule:nonzero;"/>
        <path d="M302.72,264.73C300.934,264.741 299.378,265.989 298.98,267.73C298.975,267.756 298.975,267.784 298.98,267.81L298.9,268.32C298.895,268.41 298.895,268.5 298.9,268.59L298.9,326.59C298.905,328.7 300.64,330.435 302.75,330.44L306.6,330.44L306.6,301.39L316.22,301.39C316.223,301.39 316.227,301.39 316.23,301.39C318.309,301.39 320.02,299.679 320.02,297.6C320.02,297.597 320.02,297.593 320.02,297.59L320.02,293.79L306.58,293.79L306.58,272.31L318.37,272.31C318.373,272.31 318.377,272.31 318.38,272.31C320.454,272.31 322.16,270.604 322.16,268.53C322.16,268.527 322.16,268.523 322.16,268.52L322.16,264.73L302.72,264.73Z" style="fill:white;fill-rule:nonzero;"/>
        <path d="M408.85,268.19L408.75,267.52C408.334,265.88 406.842,264.724 405.15,264.73L401,264.73L388.79,314.47L376.49,264.73L372.2,264.73C370.479,264.74 368.982,265.95 368.61,267.63C368.238,269.31 368.61,267.68 368.61,267.71L368.54,268.19C368.53,268.273 368.53,268.357 368.54,268.44L368.54,326.91C368.54,327.03 368.54,327.16 368.59,327.27L368.79,327.9C369.352,329.422 370.807,330.442 372.43,330.45L375.95,330.45L375.95,284.15L386.42,330.45L391.42,330.45L401.62,283.92L401.62,330.45L405.26,330.45C406.656,330.451 407.936,329.654 408.55,328.4C408.806,327.902 408.936,327.35 408.93,326.79L408.93,268.44C408.909,268.355 408.882,268.272 408.85,268.19Z" style="fill:white;fill-rule:nonzero;"/>
        <path d="M290.76,326.35L290.7,325.8L289.95,320.15L288.27,307.6L282,268L281.91,267.37C281.514,265.827 280.113,264.74 278.52,264.74L272.81,264.74C271.186,264.744 269.77,265.884 269.42,267.47C269.414,267.493 269.414,267.517 269.42,267.54L269.35,268L263.09,307.7L261.45,320.13L260.7,325.78L260.64,326.33C260.63,326.4 260.63,326.47 260.64,326.54C260.645,328.668 262.392,330.419 264.52,330.43L267.89,330.43L268.31,327.33C268.31,327.2 268.31,327.06 268.36,326.92L269.88,316.05C270.295,313.164 272.794,310.999 275.71,310.999C278.626,310.999 281.125,313.164 281.54,316.05L283.49,330.43L286.9,330.43C289.026,330.419 290.77,328.666 290.77,326.54C290.771,326.477 290.768,326.413 290.76,326.35ZM275.71,302.35C274.272,302.353 272.857,302.721 271.6,303.42L275.73,272.42L279.82,303.42C278.564,302.72 277.148,302.355 275.71,302.36L275.71,302.35Z" style="fill:white;fill-rule:nonzero;"/>
        <path d="M360.38,326.35L360.32,325.8L359.57,320.15L357.89,307.6L351.65,268L351.56,267.37C351.164,265.827 349.763,264.74 348.17,264.74L342.47,264.74C340.843,264.743 339.424,265.883 339.07,267.47C339.064,267.493 339.064,267.517 339.07,267.54L339,268L332.73,307.7L331.09,320.13L330.34,325.78L330.28,326.33C330.275,326.4 330.275,326.47 330.28,326.54C330.28,328.666 332.024,330.419 334.15,330.43L337.52,330.43L337.94,327.33C337.967,327.195 337.984,327.058 337.99,326.92L339.51,316.05C339.925,313.164 342.424,310.999 345.34,310.999C348.256,310.999 350.755,313.164 351.17,316.05L353.12,330.43L356.53,330.43C358.656,330.419 360.4,328.666 360.4,326.54C360.398,326.476 360.391,326.413 360.38,326.35ZM345.33,302.35C343.892,302.354 342.478,302.722 341.22,303.42L345.36,272.42L349.45,303.42C348.19,302.72 346.771,302.355 345.33,302.36L345.33,302.35Z" style="fill:white;fill-rule:nonzero;"/>
    </g>
</svg>
