<svg id="Camada_1" data-name="Camada 1" xmlns="http://www.w3.org/2000/svg" viewBox="0 0 841.89 595.28"><defs><style>.cls-1{fill:#fff;}</style></defs><path class="cls-1" d="M638.69,306.08q8.52-6.13,8.53-14.78V278q0-13-12.76-13T621.7,278v4.1a3.77,3.77,0,0,0,3.77,3.78h3.79V278c0-3.7,1.73-5.54,5.2-5.54h.07c3.42,0,5.13,1.84,5.13,5.54v13.05q0,5-9.46,11.68-8.51,6.12-8.5,14.59v9.55a3.7,3.7,0,0,0,3.7,3.7h21.82v-3.71a3.7,3.7,0,0,0-3.52-3.71H629.26v-5Q629.26,312.8,638.69,306.08Z"/><path class="cls-1" d="M706,306.08q8.52-6.13,8.53-14.78V278q0-13-12.76-13T689,278v4.1a3.77,3.77,0,0,0,3.77,3.78h3.79V278c0-3.7,1.73-5.54,5.2-5.54h.07c3.42,0,5.14,1.84,5.14,5.54v13.05q0,5-9.46,11.68-8.52,6.12-8.51,14.59v9.55a3.7,3.7,0,0,0,3.7,3.7h21.82v-3.71a3.7,3.7,0,0,0-3.52-3.71H696.52v-5Q696.52,312.8,706,306.08Z"/><path class="cls-1" d="M746.86,306.86V269.64a3.72,3.72,0,0,0-3.71-3.54h-4.37a3.72,3.72,0,0,0-3.35,2.13l-.13.34-15,37.22a7.36,7.36,0,0,0-.52,2.7v2.29a3.69,3.69,0,0,0,3.69,3.51H739.3v12.52a3.78,3.78,0,0,0,3.78,3.78h3.78v-16.3h3.7v-7.43Zm-7.56,0H726.76l12.54-31.78Z"/><path class="cls-1" d="M680.85,318.69q0,12.92-12.76,12.92t-12.76-12.92V278q0-13,12.76-13t12.76,13ZM673.29,278q0-5.49-5.17-5.49h-.06q-5.17,0-5.17,5.49v40.71q0,5.49,5.2,5.49t5.2-5.49Z"/><path class="cls-1" d="M558.67,280.08c0-4.31,3.2-4.23,5.39-5.09s2.15-2.17,1.32-2.56-1.18,1-3.33,1a3.79,3.79,0,0,1-4-3.95c0-2.68,2-4.43,5-4.43s4.95,1.75,4.95,6c0,.62,0,1.9,0,4.15v18.23h-9.21Z"/><path class="cls-1" d="M551.92,279.54a9.69,9.69,0,0,0-3.64-2.3,19.75,19.75,0,0,0-4.44-1.05c-1.46-.18-2.84-.38-4.11-.61a11.68,11.68,0,0,1-2.93-.86.89.89,0,0,1-.63-.92,2.43,2.43,0,0,1,1.21-2.2,8,8,0,0,1,4.26-.93,7.17,7.17,0,0,1,4,.84,2.79,2.79,0,0,1,1.19,2.14l.11,1.18,5.65-.73-.09-1.09a7.86,7.86,0,0,0-1.12-3.52,8.21,8.21,0,0,0-2.41-2.5,11.07,11.07,0,0,0-3.33-1.46,17.49,17.49,0,0,0-4-.51h-.29a16.35,16.35,0,0,0-4.08.5,10.69,10.69,0,0,0-3.53,1.57,8,8,0,0,0-2.51,2.81,8.17,8.17,0,0,0-.92,3.9,5.78,5.78,0,0,0,1.63,4.35,9.65,9.65,0,0,0,3.64,2.14,23.6,23.6,0,0,0,4.4,1c1.46.19,2.84.42,4.1.68a10.46,10.46,0,0,1,2.89,1,1.22,1.22,0,0,1,.69,1.21,2.78,2.78,0,0,1-1.4,2.58,9.21,9.21,0,0,1-4.79,1,8.1,8.1,0,0,1-4.32-1.06,3,3,0,0,1-1.49-2.51l-.08-1.21-5.73.72.06,1.06a10.1,10.1,0,0,0,.65,3.06,7.16,7.16,0,0,0,2,2.89,10.58,10.58,0,0,0,3.56,2,20.06,20.06,0,0,0,11.14-.12,10.32,10.32,0,0,0,3.75-2.27,7.73,7.73,0,0,0,2-3.16,10.58,10.58,0,0,0,.5-3.08A6.27,6.27,0,0,0,551.92,279.54Z"/><path class="cls-1" d="M579.55,287.67h-.26V265h-6v28.4H593.9v-5.75Z"/><path class="cls-1" d="M541,330.48c-4.47,0-8-2.41-8-6.5,0-3.35,2.32-5.9,7.53-7.07a34.75,34.75,0,0,1,7.76-.55c2.32,0,3.67-.14,3.44-1.58,0-.1-.19-.93-2-.93a13.82,13.82,0,0,0-3.44.6,19.26,19.26,0,0,1-5,.79c-5.72,0-8.32-3.72-8.32-8.69,0-5.85,4.46-8.6,11.15-8.6h19.71v9.3h-24c-1.07,0-1.58.6-1.16,1.35.56,1,2.23,1.34,4.27,1.34a23.49,23.49,0,0,0,5.26-.65,22.93,22.93,0,0,1,5.25-.65c3.9,0,7.2,1.26,7.2,5,0,5.94-8.46,5.66-14.5,5.66a23.1,23.1,0,0,0-4.41.24c-1,.18-1.44.55-1.4,1s.37.65,1.4.65h22.12v9.29Z"/><path class="cls-1" d="M569,308.83a7.54,7.54,0,0,1,1.56-4.76,12.54,12.54,0,0,1,4.26-3.4,23.72,23.72,0,0,1,6.11-2,36.77,36.77,0,0,1,7.13-.68,42,42,0,0,1,8.49.82,38.48,38.48,0,0,1,7.1,2.17V312.1a12.42,12.42,0,0,0-3.54-1.73,30.57,30.57,0,0,0-9.21-1.49,17.61,17.61,0,0,0-2.63.17,6.57,6.57,0,0,0-1.87.5c-.47.23-.7.51-.7.87a.49.49,0,0,0,.21.43,1.47,1.47,0,0,0,.65.19,8.64,8.64,0,0,0,1.11,0h3.9a39.57,39.57,0,0,1,4.84.31,15.23,15.23,0,0,1,4.42,1.23,7.86,7.86,0,0,1,3.2,2.62,7.68,7.68,0,0,1,1.21,4.5,7.76,7.76,0,0,1-1.62,5,11.52,11.52,0,0,1-4.38,3.32,24.58,24.58,0,0,1-6.2,1.86,43.78,43.78,0,0,1-7.15.57,46.15,46.15,0,0,1-8.64-.81,26.54,26.54,0,0,1-7.29-2.41V315.52a8.9,8.9,0,0,0,3.44,2.14,24.69,24.69,0,0,0,4.86,1.25,32.55,32.55,0,0,0,4.94.41,19.86,19.86,0,0,0,2.69-.17,6,6,0,0,0,1.9-.53,1.06,1.06,0,0,0,.7-.94.37.37,0,0,0-.14-.33,1.23,1.23,0,0,0-.46-.15,6.08,6.08,0,0,0-.84-.05h-2.89c-1.12,0-2.37,0-3.73-.12a28.17,28.17,0,0,1-4.07-.53,13.47,13.47,0,0,1-3.68-1.29,7.26,7.26,0,0,1-2.67-2.46A7.11,7.11,0,0,1,569,308.83Z"/><path class="cls-1" d="M495.58,308.1h0a9.85,9.85,0,0,0-3.16-3.43,12.94,12.94,0,0,0-4.35-1.83,21.8,21.8,0,0,0-9.34-.08,13.27,13.27,0,0,0-4.09,1.57,10.25,10.25,0,0,0-3.18,2.94,9.21,9.21,0,0,0-1.53,4l-.18,1.19,6.29.84.21-1.12a5,5,0,0,1,.69-1.86,4.1,4.1,0,0,1,1.42-1.33,6.63,6.63,0,0,1,2.12-.73,15.57,15.57,0,0,1,2.69-.23,9.73,9.73,0,0,1,5.19,1.12,4.14,4.14,0,0,1,1.67,3.62c0,.16,0,.48-.9.66a22.46,22.46,0,0,1-3.69.38c-1.53.06-3.2.11-5,.16a20.92,20.92,0,0,0-5.27.8,10,10,0,0,0-4.23,2.38,6.61,6.61,0,0,0-1.8,5,6.72,6.72,0,0,0,1.52,4.4,10.34,10.34,0,0,0,3.66,2.81,11.1,11.1,0,0,0,3.92,1.12c1.1.08,1.8.11,2.14.11a15.06,15.06,0,0,0,4.37-.64,13.76,13.76,0,0,0,5.32-3.13l.12-.1a4.41,4.41,0,0,0,.23.7,5,5,0,0,0,1.06,1.56,4.76,4.76,0,0,0,1.68,1.08,9.5,9.5,0,0,0,2.4.36l1.24.06v-17A10.88,10.88,0,0,0,495.58,308.1ZM490,321h0a1.5,1.5,0,0,0-.09.18,3.58,3.58,0,0,1-.24.48,4.78,4.78,0,0,1-.44.69,4.69,4.69,0,0,1-.47.52,7.2,7.2,0,0,1-1.45,1l-.15.08a4.79,4.79,0,0,1-.73.39,11.3,11.3,0,0,1-2.91.82,19.45,19.45,0,0,1-2,.15,12.3,12.3,0,0,1-2.45-.27,5.17,5.17,0,0,1-2.22-1.08A2.31,2.31,0,0,1,476,322a2.4,2.4,0,0,1,.62-1.82,4.17,4.17,0,0,1,1.87-1,14.19,14.19,0,0,1,2.9-.4c1.14-.06,2.29-.1,3.45-.13s2.32-.12,3.39-.25a7.73,7.73,0,0,0,1.81-.41Z"/><path class="cls-1" d="M522,298v10.72a10.92,10.92,0,0,0-1.61-1.21,14.91,14.91,0,0,0-2.42-1.24,15.18,15.18,0,0,0-2.62-.79,13.2,13.2,0,0,0-2.6-.27c-3.7,0-6.65,1.11-8.76,3.21a9.93,9.93,0,0,0-2.46,4.19,18,18,0,0,0-.73,5.39c0,.71,0,1.39.09,2.05a11.83,11.83,0,0,0,3.09,7.56,11,11,0,0,0,6.26,3,16.75,16.75,0,0,0,2.51.18,14.71,14.71,0,0,0,2.58-.25,14.29,14.29,0,0,0,2.63-.74,15.11,15.11,0,0,0,2.42-1.19,12.1,12.1,0,0,0,1.54-1.1A5,5,0,0,0,523,329a4.72,4.72,0,0,0,1.67,1.08,9.62,9.62,0,0,0,2.4.36l1.24,0v0h0V298Zm-.46,22.55a3.82,3.82,0,0,1-.21.46,7.08,7.08,0,0,1-1.79,2.25,8.12,8.12,0,0,1-2.5,1.41,8.6,8.6,0,0,1-2.8.49,11.68,11.68,0,0,1-3.38-.43,5.2,5.2,0,0,1-2.14-1.26,5.11,5.11,0,0,1-1.18-1.94l-.07-.22a11.46,11.46,0,0,1-.43-3.31,11.76,11.76,0,0,1,.43-3.33h0a5.29,5.29,0,0,1,1.24-2.18,5.09,5.09,0,0,1,2.14-1.28,12.1,12.1,0,0,1,3.39-.49,8.4,8.4,0,0,1,5.3,2,7.74,7.74,0,0,1,.89.92,7.29,7.29,0,0,1,.9,1.38,6.59,6.59,0,0,1,.67,3A6.7,6.7,0,0,1,521.56,320.5Z"/><path class="cls-1" d="M597.18,265.34V286.5h1.44a4.78,4.78,0,0,0,4.78-4.78V265.34Z"/><path class="cls-1" d="M600.23,287.88a2.93,2.93,0,1,0,3.06,2.93A3,3,0,0,0,600.23,287.88Z"/><path class="cls-1" d="M464.23,310.18a15.89,15.89,0,0,0-1.78-4.25,13.12,13.12,0,0,0-3.09-3.49,14.3,14.3,0,0,0-4.53-2.36,19.59,19.59,0,0,0-6.05-.86H427.11v31.36h21.67a17.74,17.74,0,0,0,7.25-1.34,13.88,13.88,0,0,0,5-3.59,14.64,14.64,0,0,0,2.87-5.08,18.42,18.42,0,0,0,.93-5.79A18.18,18.18,0,0,0,464.23,310.18Zm-19.38,9.9-7.79-5.18,7.79-5.18,7.8,5.18Z"/><path class="cls-1" d="M464.58,282.37a7.39,7.39,0,0,0-3-2.8,10.4,10.4,0,0,0-5.07-1.1s0,0,0,0a9,9,0,0,0,4.41-1,6.63,6.63,0,0,0,3.5-5.8,6.37,6.37,0,0,0-.85-3.18,6.6,6.6,0,0,0-2.52-2.48,8.31,8.31,0,0,0-4.2-1h-29.8v28.41h29.8a10.49,10.49,0,0,0,3.79-.63,7.73,7.73,0,0,0,2.72-1.7,7.31,7.31,0,0,0,1.65-2.41,7,7,0,0,0-.44-6.32Zm-15.17,3.18H442v-4.92h7.43a2.46,2.46,0,1,1,0,4.92Zm0-9.32H442v-4.92h7.43a2.46,2.46,0,1,1,0,4.92Z"/><path class="cls-1" d="M514.77,293.16c-.23-.22-.46-.46-.68-.71a15.7,15.7,0,0,1-8.74,4.29l-.25,0-.41,0c-.3,0-.6,0-.9,0h-.36a13.41,13.41,0,0,1-2.68-.29,13.78,13.78,0,0,1-5.15-2.22c-5.19-3.64-6.94-10.24-7.51-13.44l.67-.23a8.11,8.11,0,0,0,1.33-.6,4.83,4.83,0,0,0,1.14-.9l.79-.82a5.88,5.88,0,0,0,.81-1.2,7,7,0,0,0,.51-1.49,8.6,8.6,0,0,0,.17-1.84,7.76,7.76,0,0,0-3-6.67,12.94,12.94,0,0,0-7.71-2.08H469.66v34.33h6V284.13l7.15,0c1.29,5.28,5.27,15.7,16.73,18.11a19.87,19.87,0,0,0,4.1.42h.2c.46,0,.92,0,1.38,0a22.43,22.43,0,0,0,8.55-2.23,19.79,19.79,0,0,0,3.53-2.19,25.7,25.7,0,0,0,2.57-2.31A10.53,10.53,0,0,1,514.77,293.16ZM487.46,276a4,4,0,0,1-1.13,1.27,5.77,5.77,0,0,1-1.84.92,8.37,8.37,0,0,1-2.42.34h-6.41v-8h6.82a12.43,12.43,0,0,1,2.5.22,4.34,4.34,0,0,1,1.59.64,2.8,2.8,0,0,1,.9,1.13,4.79,4.79,0,0,1,.35,2A3.1,3.1,0,0,1,487.46,276Z"/><path class="cls-1" d="M522,278.74c-3.68,0-8.5,5.45-12.75,5.73-1.76.11-2.72-.74-2.72-1.93-.06-5.44,19.56-1.64,19.39-11.68-.06-4.59-4.2-5.89-10.72-5.78-2,0-7.93-.05-16-.05V275.8h8.56c1.59,0,2.32.17,2.32.5,0,.51-1.13,1.08-3.68,1.65-8.22,1.81-10.09,5.5-10.09,9,0,5.5,4.65,7.14,7.77,7.14,3.83,0,7.78-2.47,10.38-6.18a.21.21,0,0,0,0-.06.31.31,0,0,0,0,.08l.9,1.57a7.83,7.83,0,0,0,6.78,3.91h3.17v-10.2C525.29,280.44,524,278.74,522,278.74Z"/><path class="cls-1" d="M95.18,330.45H99V280a3.86,3.86,0,0,0-3.85-3.85H91.33v50.49A3.85,3.85,0,0,0,95.18,330.45Z"/><path class="cls-1" d="M95.18,272.51H99v-3.93a3.86,3.86,0,0,0-3.85-3.85H91.33v3.92A3.85,3.85,0,0,0,95.18,272.51Z"/><path class="cls-1" d="M212.52,264.73h-3.85v50.5a3.86,3.86,0,0,0,3.85,3.85h3.85V268.6A3.86,3.86,0,0,0,212.52,264.73Z"/><path class="cls-1" d="M212.52,322.67h-3.85v3.93a3.86,3.86,0,0,0,3.85,3.85h3.85v-3.91A3.86,3.86,0,0,0,212.52,322.67Z"/><path class="cls-1" d="M129.67,264.82l-3.48.05v47.07L115,264.73h-3.49a4.42,4.42,0,0,0-4.41,4.42v57.63a3.67,3.67,0,0,0,3.66,3.67h3.67v-46l10,42.51.83,3.53h3.49a4.41,4.41,0,0,0,4.41-4.42V268.3A3.48,3.48,0,0,0,129.67,264.82Z"/><path class="cls-1" d="M154.27,263.67q-13,0-13,13.17v6.38c0,5.88,2.89,10.92,8.7,15.07q9.61,6.88,9.61,12.31v7.74c0,3.74-1.76,5.6-5.28,5.6s-5.33-1.86-5.33-5.6v-4.26a3.84,3.84,0,0,0-3.65-3.85h-4.05v8.11q0,13.17,13,13.22t13-13.22v-8.58q0-8.6-8.71-14.84c-6.4-4.57-9.6-8.55-9.6-11.9v-6.18c0-3.73,1.75-5.6,5.27-5.6h.06q5.28,0,5.28,5.6v4.25a3.87,3.87,0,0,0,3.85,3.86h3.85v-8.11Q167.27,263.67,154.27,263.67Z"/><path class="cls-1" d="M188.59,264.73h-9.36a3.86,3.86,0,0,0-3.85,3.87v58a3.87,3.87,0,0,0,3.85,3.86h3.86V301.39h2.63a20.69,20.69,0,0,0,6.2-.7q8.64-2.81,8.64-12.54V278Q200.56,264.76,188.59,264.73Zm4.27,23.42q0,3.94-3.3,5.31a11,11,0,0,1-3.2.33h-3.27V272.31h4.5c3.5,0,5.27,1.89,5.27,5.68Z"/><path class="cls-1" d="M250.74,325.32c0-.12-.09-.24-.12-.36l-8.94-25.63c5.33-1.95,8-5.69,8-11.18V278q0-13.23-12-13.26h-9.35a3.86,3.86,0,0,0-3.85,3.87v58a3.87,3.87,0,0,0,3.85,3.86h3.85V300.93l3-.4,7.88,26.71.19.63a4,4,0,0,0,3.7,2.58h5.58Zm-12.08-31.86a11,11,0,0,1-3.2.33h-3.28V272.31h4.51q5.26,0,5.26,5.68v10.16C242,290.78,240.86,292.55,238.66,293.46Z"/><path class="cls-1" d="M302.72,264.73a3.86,3.86,0,0,0-3.74,3,.22.22,0,0,0,0,.08l-.08.51a2.35,2.35,0,0,0,0,.27v58a3.86,3.86,0,0,0,3.85,3.85h3.85V301.39h9.62a3.79,3.79,0,0,0,3.8-3.8v-3.8H306.58V272.31h11.79a3.78,3.78,0,0,0,3.79-3.79v-3.79Z"/><path class="cls-1" d="M408.85,268.19l-.1-.67a3.7,3.7,0,0,0-3.6-2.79H401l-12.21,49.74-12.3-49.74H372.2a3.7,3.7,0,0,0-3.59,2.9s0,.05,0,.08l-.07.48a1.06,1.06,0,0,0,0,.25v58.47c0,.12,0,.25.05.36l.2.63a3.9,3.9,0,0,0,3.64,2.55h3.52v-46.3l10.47,46.3h5l10.2-46.53v46.53h3.64a3.66,3.66,0,0,0,3.29-2.05,3.44,3.44,0,0,0,.38-1.61V268.44A2.09,2.09,0,0,0,408.85,268.19Z"/><path class="cls-1" d="M290.76,326.35l-.06-.55v0l-.75-5.65-1.68-12.55L282,268l-.09-.63a3.5,3.5,0,0,0-3.39-2.63h-5.71a3.48,3.48,0,0,0-3.39,2.73.15.15,0,0,0,0,.07l-.07.46-6.26,39.7-1.64,12.43-.75,5.65v0l-.06.55a.71.71,0,0,0,0,.21,3.9,3.9,0,0,0,3.88,3.89h3.37l.42-3.1c0-.13,0-.27.05-.41l1.52-10.87a5.89,5.89,0,0,1,11.66,0l1.95,14.38h3.41a3.89,3.89,0,0,0,3.87-3.89A1.41,1.41,0,0,0,290.76,326.35Zm-15.05-24a8.5,8.5,0,0,0-4.11,1.07l4.13-31,4.09,31A8.39,8.39,0,0,0,275.71,302.36Z"/><path class="cls-1" d="M360.38,326.35l-.06-.55v0l-.75-5.65-1.68-12.55L351.65,268l-.09-.63a3.5,3.5,0,0,0-3.39-2.63h-5.7a3.49,3.49,0,0,0-3.4,2.73.15.15,0,0,0,0,.07L339,268l-6.27,39.7-1.64,12.43-.75,5.65v0l-.06.55a1.41,1.41,0,0,0,0,.21,3.89,3.89,0,0,0,3.87,3.89h3.37l.42-3.1a2.7,2.7,0,0,0,.05-.41l1.52-10.87a5.89,5.89,0,0,1,11.66,0l1.95,14.38h3.41a3.89,3.89,0,0,0,3.87-3.89A1.41,1.41,0,0,0,360.38,326.35Zm-15.05-24a8.52,8.52,0,0,0-4.11,1.07l4.14-31,4.09,31A8.43,8.43,0,0,0,345.33,302.36Z"/></svg>