<?xml version="1.0" encoding="UTF-8" standalone="no"?>
<!DOCTYPE svg PUBLIC "-//W3C//DTD SVG 1.1//EN" "http://www.w3.org/Graphics/SVG/1.1/DTD/svg11.dtd">
<svg width="100%" height="100%" viewBox="0 0 412 412" version="1.1" xmlns="http://www.w3.org/2000/svg" xmlns:xlink="http://www.w3.org/1999/xlink" xml:space="preserve" xmlns:serif="http://www.serif.com/" style="fill-rule:evenodd;clip-rule:evenodd;stroke-linecap:round;stroke-linejoin:round;stroke-miterlimit:1.5;">
    <g transform="matrix(1,0,0,1,-161.109,-292.109)">
        <g transform="matrix(1,0,0,1,-89,-43)">
            <circle cx="456" cy="541" r="202" style="fill:none;stroke:rgb(0,171,255);stroke-width:7.78px;"/>
        </g>
        <g transform="matrix(6.56172,0,0,6.56172,262.364,391.36)">
            <path d="M15.535,3.5C17.192,3.5 18.535,4.843 18.535,6.5C18.535,8.157 17.192,9.5 15.535,9.5C13.878,9.5 12.535,8.157 12.535,6.5C12.535,4.843 13.878,3.5 15.535,3.5Z" style="fill-rule:nonzero;"/>
            <path d="M9.806,18.258L9.948,18.461C10.08,18.635 10.231,18.795 10.4,18.937L13.593,22.129L13.593,27.504C13.594,28.332 14.265,29.004 15.094,29.004C15.922,29.004 16.594,28.332 16.594,27.504L16.594,21.715C16.594,21.184 16.383,20.676 16.008,20.301L14.786,19.079L15.781,15.367L16.749,17.046L16.834,17.182C17.421,18.034 18.574,18.305 19.484,17.778L21.645,16.526C22.361,16.111 22.606,15.193 22.191,14.476C21.775,13.759 20.858,13.515 20.141,13.93L18.847,14.679L17.426,12.213C16.533,10.664 14.881,9.71 13.094,9.71L7.916,9.71C7.011,9.71 6.218,10.318 5.984,11.192L4.785,15.664C4.57,16.464 5.045,17.287 5.845,17.501L5.987,17.532C6.74,17.659 7.48,17.194 7.682,16.441L8.682,12.71L10.281,12.71L9.436,15.866C9.209,16.714 9.368,17.573 9.806,18.258Z" style="fill-rule:nonzero;"/>
            <path d="M9.482,19.448L8.868,21.706L4,21.706C3.172,21.706 2.5,22.378 2.5,23.207C2.5,24.035 3.172,24.707 4,24.707L9.633,24.707C10.535,24.707 11.326,24.102 11.563,23.232L11.93,21.88L9.738,19.688L9.607,19.571L9.482,19.448Z" style="fill-rule:nonzero;"/>
            <path d="M22.535,3.5C24.192,3.5 25.535,4.843 25.535,6.5C25.535,8.157 24.192,9.5 22.535,9.5C20.878,9.5 19.535,8.157 19.535,6.5C19.535,4.843 20.878,3.5 22.535,3.5Z" style="fill-rule:nonzero;"/>
            <path d="M20.094,9.71C21.881,9.71 23.533,10.664 24.426,12.213L25.847,14.679L27.141,13.93C27.858,13.515 28.775,13.759 29.191,14.476C29.606,15.193 29.361,16.111 28.645,16.526L26.484,17.778C25.574,18.305 24.421,18.034 23.834,17.182L23.749,17.046L23.223,16.134C23.466,15.508 23.456,14.79 23.148,14.148L23.056,13.975L22.965,13.83L22.866,13.693C22.147,12.766 20.865,12.459 19.798,12.98L19.64,13.065L19.213,13.311L18.292,11.714L18.118,11.431C17.817,10.969 17.458,10.557 17.052,10.202C17.364,10.074 17.655,9.909 17.922,9.71L20.094,9.71Z" style="fill-rule:nonzero;"/>
            <path d="M22.256,17.322L21.786,19.079L23.008,20.301C23.383,20.676 23.593,21.184 23.593,21.715L23.593,27.504C23.593,28.332 22.922,29.004 22.093,29.004C21.265,29.004 20.593,28.332 20.593,27.504L20.593,22.129L17.4,18.937C17.336,18.883 17.274,18.826 17.215,18.767C18.012,19.137 18.958,19.153 19.794,18.745L19.985,18.643L22.146,17.391L22.256,17.322Z" style="fill-rule:nonzero;"/>
        </g>
    </g>
</svg>
