<?xml version="1.0" encoding="UTF-8" standalone="no"?>
<!DOCTYPE svg PUBLIC "-//W3C//DTD SVG 1.1//EN" "http://www.w3.org/Graphics/SVG/1.1/DTD/svg11.dtd">
<svg width="100%" height="100%" viewBox="0 0 412 412" version="1.1" xmlns="http://www.w3.org/2000/svg" xmlns:xlink="http://www.w3.org/1999/xlink" xml:space="preserve" xmlns:serif="http://www.serif.com/" style="fill-rule:evenodd;clip-rule:evenodd;stroke-linecap:round;stroke-linejoin:round;stroke-miterlimit:1.5;">
    <g transform="matrix(1,0,0,1,-1063.11,-292.109)">
        <g transform="matrix(1,0,0,1,813,-43)">
            <circle cx="456" cy="541" r="202" style="fill:none;stroke:rgb(0,77,176);stroke-width:7.78px;"/>
        </g>
        <g transform="matrix(1.56832,0,0,1.56832,1160.83,389.655)">
            <g transform="matrix(4.16667,0,0,4.16667,0,0)">
                <path d="M14.559,7.672C13.902,8.811 12.484,9.237 11.317,8.678L11.688,10.049L19.351,12.104C19.73,12.206 20.054,12.409 20.301,12.677L23.435,15.811L26.508,15.811C27.336,15.811 28.008,16.483 28.008,17.311C28.008,18.14 27.336,18.811 26.508,18.811L23.436,18.811C22.64,18.811 21.877,18.495 21.315,17.933L20.168,16.786L18.985,21.198L17.745,25.911C17.514,26.79 16.719,27.402 15.81,27.402L10.144,27.398C9.316,27.398 8.645,26.726 8.645,25.898C8.646,25.069 9.317,24.398 10.146,24.398L15.04,24.401L15.9,21.135L12.867,22.886C12.248,23.243 11.486,23.243 10.867,22.886L5.848,19.988C5.131,19.574 4.885,18.656 5.299,17.939C5.713,17.222 6.631,16.976 7.348,17.39L11.867,19.998L13.32,19.16L14.711,13.966L10.911,12.947C9.878,12.67 9.071,11.865 8.792,10.833L7.949,7.717C7.733,6.917 8.206,6.093 9.006,5.877C9.328,5.79 9.654,5.815 9.943,5.928C9.995,5.669 10.09,5.414 10.229,5.172C10.92,3.977 12.449,3.567 13.644,4.257C14.84,4.948 15.25,6.477 14.559,7.672Z" style="fill-rule:nonzero;"/>
            </g>
            <g transform="matrix(4.16667,0,0,4.16667,0,0)">
                <path d="M22.083,9.776C21.254,11.211 19.42,11.703 17.985,10.874C16.55,10.046 16.058,8.211 16.887,6.776C17.715,5.341 19.55,4.85 20.985,5.678C22.42,6.506 22.911,8.341 22.083,9.776Z" style="fill-rule:nonzero;"/>
            </g>
        </g>
    </g>
</svg>
