<?xml version="1.0" encoding="UTF-8" standalone="no"?>
<!DOCTYPE svg PUBLIC "-//W3C//DTD SVG 1.1//EN" "http://www.w3.org/Graphics/SVG/1.1/DTD/svg11.dtd">
<svg width="100%" height="100%" viewBox="0 0 412 412" version="1.1" xmlns="http://www.w3.org/2000/svg" xmlns:xlink="http://www.w3.org/1999/xlink" xml:space="preserve" xmlns:serif="http://www.serif.com/" style="fill-rule:evenodd;clip-rule:evenodd;stroke-linecap:round;stroke-linejoin:round;stroke-miterlimit:1.5;">
    <g transform="matrix(1,0,0,1,-161.109,-292.109)">
        <g transform="matrix(1,0,0,1,-89,-43)">
            <circle cx="456" cy="541" r="202" style="fill:none;stroke:rgb(0,171,255);stroke-width:7.78px;"/>
        </g>
        <g transform="matrix(1.56832,0,0,1.56832,262.445,391.812)">
            <g transform="matrix(4.16667,0,0,4.16667,0,0)">
                <path d="M23.5,10C25.157,10 26.5,8.657 26.5,7C26.5,5.343 25.157,4 23.5,4C21.843,4 20.5,5.343 20.5,7C20.5,8.657 21.843,10 23.5,10Z" style="fill-rule:nonzero;"/>
            </g>
            <g transform="matrix(4.16667,0,0,4.16667,0,0)">
                <path d="M20.084,9.487C20.099,9.512 20.113,9.537 20.126,9.562L22.303,13.331L25.58,14.193C26.381,14.403 26.86,15.224 26.649,16.025C26.438,16.826 25.618,17.305 24.817,17.094L21.137,16.127C20.62,15.991 20.18,15.655 19.913,15.192L18.985,13.585L13.966,16.484L14.695,19.207C14.763,19.461 14.798,19.722 14.798,19.984L14.798,25.052C14.798,25.881 14.126,26.552 13.298,26.552C12.72,26.552 12.218,26.226 11.968,25.747C11.88,25.58 11.823,25.394 11.804,25.197L11.798,25.052L11.797,19.984L10.317,14.457C9.861,13.127 10.393,11.618 11.656,10.889L15.986,8.389C17.421,7.56 19.256,8.052 20.084,9.487Z" style="fill-rule:nonzero;"/>
            </g>
            <g transform="matrix(4.16667,0,0,4.16667,0,0)">
                <path d="M19.765,17.246L17.201,15.768L15.13,16.966L15.468,18.231L16.572,18.868L15.797,19.641L15.797,23.886L20.077,19.606L20.175,19.498C20.757,18.793 20.577,17.714 19.765,17.246Z" style="fill-rule:nonzero;"/>
            </g>
            <g transform="matrix(4.16667,0,0,4.16667,0,0)">
                <path d="M10.667,19.631C9.805,18.924 8.702,18.5 7.5,18.5C4.739,18.5 2.5,20.739 2.5,23.5C2.5,26.261 4.739,28.5 7.5,28.5C9.067,28.5 10.466,27.779 11.383,26.651C11.147,26.366 10.971,26.026 10.875,25.648C10.165,26.761 8.919,27.5 7.5,27.5C5.291,27.5 3.5,25.709 3.5,23.5C3.5,21.291 5.291,19.5 7.5,19.5C8.868,19.5 10.076,20.187 10.797,21.235L10.797,20.115L10.667,19.631Z" style="fill-rule:nonzero;"/>
            </g>
            <g transform="matrix(4.16667,0,0,4.16667,0,0)">
                <path d="M24.5,18.5C21.739,18.5 19.5,20.739 19.5,23.5C19.5,26.261 21.739,28.5 24.5,28.5C27.261,28.5 29.5,26.261 29.5,23.5C29.5,20.739 27.261,18.5 24.5,18.5ZM24.5,19.5C26.709,19.5 28.5,21.291 28.5,23.5C28.5,25.709 26.709,27.5 24.5,27.5C22.291,27.5 20.5,25.709 20.5,23.5C20.5,21.291 22.291,19.5 24.5,19.5Z"/>
            </g>
        </g>
    </g>
</svg>
