<?xml version="1.0" encoding="UTF-8" standalone="no"?>
<!DOCTYPE svg PUBLIC "-//W3C//DTD SVG 1.1//EN" "http://www.w3.org/Graphics/SVG/1.1/DTD/svg11.dtd">
<svg width="100%" height="100%" viewBox="0 0 412 412" version="1.1" xmlns="http://www.w3.org/2000/svg" xmlns:xlink="http://www.w3.org/1999/xlink" xml:space="preserve" xmlns:serif="http://www.serif.com/" style="fill-rule:evenodd;clip-rule:evenodd;stroke-linecap:round;stroke-linejoin:round;stroke-miterlimit:1.5;">
    <g transform="matrix(1,0,0,1,-161.109,-792.109)">
        <g transform="matrix(1,0,0,1,-89,457)">
            <circle cx="456" cy="541" r="202" style="fill:none;stroke:rgb(21,87,205);stroke-width:7.78px;"/>
        </g>
        <g transform="matrix(1.24293,0,0,1.24293,-1613.18,321.944)">
            <g transform="matrix(5.20029,0,0,5.20029,1509.84,460.695)">
                <path d="M17.799,5.943C17.799,7.6 16.456,8.943 14.799,8.943C13.142,8.943 11.799,7.6 11.799,5.943C11.799,4.286 13.142,2.943 14.799,2.943C16.456,2.943 17.799,4.286 17.799,5.943Z" style="fill-rule:nonzero;"/>
            </g>
            <g transform="matrix(5.20029,0,0,5.20029,1510.65,461.173)">
                <path d="M14.699,9.573L14.799,9.571C14.866,9.571 14.933,9.573 14.999,9.578L16.049,9.578C16.924,9.578 17.783,9.808 18.541,10.244L18.769,10.375C17.973,11.016 17.463,11.999 17.463,13.102C17.463,13.637 17.584,14.144 17.798,14.598L17.799,16.568L20.465,16.568C21.57,16.568 22.465,17.464 22.465,18.568L22.465,24.212C22.465,25.041 21.794,25.712 20.965,25.712C20.137,25.712 19.465,25.041 19.465,24.212L19.465,19.568L17.799,19.568L17.799,19.571L14.799,19.571C13.142,19.571 11.799,18.228 11.799,16.571L11.798,13.327L10.287,14.194L8.442,17.386C8.052,18.061 7.216,18.318 6.521,18L6.393,17.934C5.675,17.519 5.43,16.601 5.845,15.884L7.826,12.46C8.002,12.155 8.256,11.902 8.562,11.726L11.155,10.24C11.912,9.807 12.769,9.578 13.641,9.578L14.6,9.578L14.699,9.573Z" style="fill-rule:nonzero;"/>
            </g>
            <g transform="matrix(5.20029,0,0,5.20029,1510.13,460.807)">
                <path d="M18.536,13.702C18.805,14.793 19.79,15.602 20.963,15.602C22.344,15.602 23.463,14.482 23.463,13.102C23.463,11.721 22.344,10.602 20.963,10.602C20.515,10.602 20.094,10.72 19.73,10.927C18.974,11.356 18.463,12.169 18.463,13.102C18.463,13.309 18.488,13.51 18.536,13.702Z" style="fill-rule:nonzero;"/>
            </g>
            <g transform="matrix(5.20029,0,0,5.20029,1510.64,461.837)">
                <path d="M24.128,11.604L24.586,11.604C25.414,11.604 26.086,12.276 26.086,13.104C26.086,13.932 25.414,14.604 24.586,14.604L24.125,14.605C24.342,14.149 24.463,13.64 24.463,13.102C24.463,12.566 24.343,12.058 24.128,11.604Z" style="fill-rule:nonzero;"/>
            </g>
            <g transform="matrix(5.20029,0,0,5.20029,1509.84,461.393)">
                <path d="M17.798,22.101L17.798,20.569L14.797,20.569L14.797,21.833L12,26.68C11.586,27.398 11.832,28.315 12.549,28.729C13.267,29.144 14.184,28.898 14.598,28.18L17.53,23.101C17.706,22.797 17.798,22.452 17.798,22.101Z" style="fill-rule:nonzero;"/>
            </g>
        </g>
    </g>
</svg>
