<?xml version="1.0" encoding="UTF-8" standalone="no"?>
<!DOCTYPE svg PUBLIC "-//W3C//DTD SVG 1.1//EN" "http://www.w3.org/Graphics/SVG/1.1/DTD/svg11.dtd">
<svg width="100%" height="100%" viewBox="0 0 412 412" version="1.1" xmlns="http://www.w3.org/2000/svg" xmlns:xlink="http://www.w3.org/1999/xlink" xml:space="preserve" xmlns:serif="http://www.serif.com/" style="fill-rule:evenodd;clip-rule:evenodd;stroke-linecap:round;stroke-linejoin:round;stroke-miterlimit:1.5;">
    <g transform="matrix(1,0,0,1,-612.109,-1299.11)">
        <g transform="matrix(1,0,0,1,362,964)">
            <circle cx="456" cy="541" r="202" style="fill:none;stroke:rgb(0,65,200);stroke-width:7.78px;"/>
        </g>
        <g transform="matrix(1.56832,0,0,1.56832,716.39,1402.83)">
            <g transform="matrix(4.16667,0,0,4.16667,0,0)">
                <path d="M25.519,6.124C25.519,7.78 24.175,9.124 22.519,9.124C20.862,9.124 19.519,7.78 19.519,6.124C19.519,4.467 20.862,3.124 22.519,3.124C24.175,3.124 25.519,4.467 25.519,6.124Z" style="fill-rule:nonzero;"/>
            </g>
            <g transform="matrix(4.16667,0,0,4.16667,0,0)">
                <path d="M19.869,9.65L8.251,9.65C7.423,9.65 6.751,10.322 6.751,11.15L6.758,11.295C6.764,11.357 6.774,11.418 6.787,11.478C5.515,11.595 4.519,12.665 4.519,13.967C4.519,15.348 5.638,16.467 7.019,16.467C8.399,16.467 9.519,15.348 9.519,13.967C9.519,13.484 9.381,13.033 9.144,12.65L14.983,12.65L13.832,14.643C13.736,14.808 13.659,14.979 13.598,15.153L13.593,15.152L13.57,15.236C13.544,15.315 13.523,15.395 13.504,15.475L12.091,20.656L7.184,20.657C6.356,20.657 5.684,21.328 5.684,22.157C5.684,22.985 6.356,23.657 7.184,23.657L12.855,23.657C13.757,23.657 14.547,23.053 14.785,22.183L15.608,19.165L19.735,21.549L18.474,26.259C18.259,27.059 18.734,27.882 19.535,28.096C20.335,28.311 21.157,27.836 21.372,27.036L22.832,21.584C23.066,20.71 22.684,19.788 21.9,19.335L19.014,17.668L21.028,14.179C21.181,13.914 21.289,13.636 21.354,13.352L23.212,14.424L22.458,15.729C22.043,16.446 22.288,17.364 23.005,17.779C23.722,18.194 24.64,17.949 25.054,17.232L26.311,15.06L26.385,14.919C26.831,13.985 26.49,12.851 25.579,12.325L21.867,10.185C21.26,9.835 20.571,9.65 19.869,9.65Z" style="fill-rule:nonzero;"/>
            </g>
        </g>
    </g>
</svg>
