<?xml version="1.0" encoding="UTF-8" standalone="no"?>
<!DOCTYPE svg PUBLIC "-//W3C//DTD SVG 1.1//EN" "http://www.w3.org/Graphics/SVG/1.1/DTD/svg11.dtd">
<svg width="100%" height="100%" viewBox="0 0 412 412" version="1.1" xmlns="http://www.w3.org/2000/svg" xmlns:xlink="http://www.w3.org/1999/xlink" xml:space="preserve" xmlns:serif="http://www.serif.com/" style="fill-rule:evenodd;clip-rule:evenodd;stroke-linecap:round;stroke-linejoin:round;stroke-miterlimit:1.5;">
    <g transform="matrix(1,0,0,1,-1063.11,-792.109)">
        <g transform="matrix(1,0,0,1,813,457)">
            <circle cx="456" cy="541" r="202" style="fill:none;stroke:rgb(21,163,246);stroke-width:7.78px;"/>
        </g>
        <g transform="matrix(1.56832,0,0,1.56832,1169.2,892.139)">
            <g transform="matrix(4.16667,0,0,4.16667,0,0)">
                <path d="M14.914,9.76C16.571,9.76 17.914,8.417 17.914,6.76C17.914,5.103 16.571,3.76 14.914,3.76C13.257,3.76 11.914,5.103 11.914,6.76C11.914,8.417 13.257,9.76 14.914,9.76Z" style="fill-rule:nonzero;"/>
            </g>
            <g transform="matrix(4.16667,0,0,4.16667,0,0)">
                <path d="M4.435,15.704C4.988,15.704 5.435,15.256 5.435,14.704C5.435,14.152 4.988,13.704 4.435,13.704C3.883,13.704 3.435,14.152 3.435,14.704C3.435,15.256 3.883,15.704 4.435,15.704Z" style="fill-rule:nonzero;"/>
            </g>
            <g transform="matrix(4.16667,0,0,4.16667,0,0)">
                <path d="M9.365,10.986C10.243,10.551 10.562,9.66 10.243,8.47C9.873,7.088 8.958,6.485 7.729,6.815C6.5,7.144 6.009,8.123 6.38,9.506C6.698,10.695 7.42,11.307 8.399,11.245L8.505,11.642C8.359,11.713 8.222,11.81 8.101,11.932C7.517,12.519 7.519,13.469 8.107,14.053L10.544,16.476C11.326,17.254 12.589,17.252 13.369,16.472L14.643,15.197L15.365,17.889L12.316,20.94C12.068,21.188 11.89,21.497 11.799,21.835L10.516,26.613C10.302,27.414 10.776,28.236 11.576,28.451L11.718,28.482C12.471,28.609 13.212,28.144 13.414,27.391L14.627,22.871L17.269,20.228L16.972,21.324C16.833,21.838 16.904,22.386 17.17,22.847L20.083,27.89C20.497,28.607 21.414,28.853 22.132,28.438C22.849,28.024 23.095,27.107 22.68,26.389L19.976,21.706L21.105,17.543L21.104,17.542C21.219,17.07 21.221,16.562 21.086,16.059L20.051,12.195C20.046,12.177 20.04,12.158 20.035,12.139L22.272,11.54L24.547,13.822L24.661,13.926C25.249,14.407 26.118,14.374 26.668,13.826C27.255,13.241 27.257,12.291 26.672,11.705L23.988,9.012C23.483,8.506 22.745,8.307 22.054,8.493L16.847,9.888C15.83,10.161 14.903,10.696 14.158,11.44L11.952,13.646L10.222,11.926L10.108,11.823C9.928,11.678 9.724,11.58 9.51,11.53L9.365,10.986Z" style="fill-rule:nonzero;"/>
            </g>
        </g>
    </g>
</svg>
