<?xml version="1.0" encoding="UTF-8" standalone="no"?>
<!DOCTYPE svg PUBLIC "-//W3C//DTD SVG 1.1//EN" "http://www.w3.org/Graphics/SVG/1.1/DTD/svg11.dtd">
<svg width="100%" height="100%" viewBox="0 0 412 412" version="1.1" xmlns="http://www.w3.org/2000/svg" xmlns:xlink="http://www.w3.org/1999/xlink" xml:space="preserve" xmlns:serif="http://www.serif.com/" style="fill-rule:evenodd;clip-rule:evenodd;stroke-linecap:round;stroke-linejoin:round;stroke-miterlimit:1.5;">
    <g transform="matrix(1,0,0,1,-612.109,-792.109)">
        <g transform="matrix(1,0,0,1,362,457)">
            <circle cx="456" cy="541" r="202" style="fill:none;stroke:rgb(0,125,255);stroke-width:7.78px;"/>
        </g>
        <g transform="matrix(1.56832,0,0,1.56832,714.625,897.511)">
            <g transform="matrix(4.16667,0,0,4.16667,0,0)">
                <path d="M24.582,10.938C24.582,12.595 23.239,13.938 21.582,13.938C19.925,13.938 18.582,12.595 18.582,10.938C18.582,9.281 19.925,7.938 21.582,7.938C23.239,7.938 24.582,9.281 24.582,10.938Z" style="fill-rule:nonzero;"/>
            </g>
            <g transform="matrix(4.16667,0,0,4.16667,0,0)">
                <path d="M16.325,11.52L20.4,15.596C19.821,15.717 19.391,15.93 18.995,16.165L18.472,16.488C17.819,16.89 17.117,17.262 15.82,17.262C14.695,17.262 14.018,16.983 13.432,16.646L13.167,16.488L12.812,16.267C12.562,16.113 12.305,15.963 12.009,15.837L14.199,13.647L12.98,12.428L10.481,14.927C9.932,15.476 9.063,15.51 8.474,15.03L8.36,14.927C7.774,14.341 7.774,13.391 8.36,12.806L11.566,9.6C12.347,8.818 13.613,8.818 14.394,9.6L16.32,11.525L16.325,11.52Z" style="fill-rule:nonzero;"/>
            </g>
            <g transform="matrix(4.16667,0,0,4.16667,0,0)">
                <path d="M21.479,17.184C22.677,17.184 23.342,17.401 24.338,17.999L24.574,18.144C25.563,18.762 26.071,18.953 27.139,18.953C27.415,18.953 27.639,19.177 27.639,19.453C27.639,19.729 27.415,19.953 27.139,19.953C25.942,19.953 25.277,19.735 24.281,19.137L24.044,18.992C23.055,18.374 22.548,18.184 21.479,18.184C20.493,18.184 19.985,18.346 19.135,18.857L18.914,18.992C17.781,19.701 17.109,19.953 15.82,19.953C14.622,19.953 13.957,19.735 12.961,19.137L12.725,18.992C11.736,18.374 11.228,18.184 10.16,18.184C9.173,18.184 8.665,18.346 7.815,18.857L7.595,18.992C6.461,19.701 5.79,19.953 4.5,19.953C4.224,19.953 4,19.729 4,19.453C4,19.177 4.224,18.953 4.5,18.953C5.486,18.953 5.995,18.791 6.845,18.28L7.065,18.144C8.198,17.436 8.87,17.184 10.16,17.184C11.357,17.184 12.022,17.401 13.018,17.999L13.255,18.144C14.244,18.762 14.751,18.953 15.82,18.953C16.806,18.953 17.314,18.791 18.164,18.28L18.385,18.144C19.518,17.436 20.19,17.184 21.479,17.184Z" style="fill-rule:nonzero;"/>
            </g>
            <g transform="matrix(4.16667,0,0,4.16667,0,0)">
                <path d="M24.338,20.865C23.342,20.267 22.677,20.049 21.479,20.049C20.19,20.049 19.518,20.301 18.385,21.01L18.164,21.145C17.314,21.656 16.806,21.818 15.82,21.818C14.751,21.818 14.244,21.628 13.255,21.01L13.018,20.865C12.022,20.267 11.357,20.049 10.16,20.049C8.87,20.049 8.198,20.301 7.065,21.01L6.845,21.145C5.995,21.656 5.486,21.818 4.5,21.818C4.224,21.818 4,22.042 4,22.318C4,22.594 4.224,22.818 4.5,22.818C5.79,22.818 6.461,22.566 7.595,21.858L7.815,21.722C8.665,21.211 9.173,21.049 10.16,21.049C11.228,21.049 11.736,21.24 12.725,21.858L12.961,22.002C13.957,22.601 14.622,22.818 15.82,22.818C17.109,22.818 17.781,22.566 18.914,21.858L19.135,21.722C19.985,21.211 20.493,21.049 21.479,21.049C22.548,21.049 23.055,21.24 24.044,21.858L24.281,22.002C25.277,22.601 25.942,22.818 27.139,22.818C27.415,22.818 27.639,22.594 27.639,22.318C27.639,22.042 27.415,21.818 27.139,21.818C26.071,21.818 25.563,21.628 24.574,21.01L24.338,20.865Z" style="fill-rule:nonzero;"/>
            </g>
        </g>
    </g>
</svg>
