<?xml version="1.0" encoding="UTF-8" standalone="no"?>
<!DOCTYPE svg PUBLIC "-//W3C//DTD SVG 1.1//EN" "http://www.w3.org/Graphics/SVG/1.1/DTD/svg11.dtd">
<svg width="100%" height="100%" viewBox="0 0 412 412" version="1.1" xmlns="http://www.w3.org/2000/svg" xmlns:xlink="http://www.w3.org/1999/xlink" xml:space="preserve" xmlns:serif="http://www.serif.com/" style="fill-rule:evenodd;clip-rule:evenodd;stroke-linecap:round;stroke-linejoin:round;stroke-miterlimit:1.5;">
    <g transform="matrix(1,0,0,1,-612.109,-292.109)">
        <g transform="matrix(1,0,0,1,362,-43)">
            <circle cx="456" cy="541" r="202" style="fill:none;stroke:rgb(69,183,229);stroke-width:7.78px;"/>
        </g>
        <g transform="matrix(1.56832,0,0,1.56832,711.253,369.788)">
            <g transform="matrix(4.16667,0,0,4.16667,0,0)">
                <path d="M25.559,4.672C24.869,5.868 23.34,6.278 22.144,5.587C20.949,4.897 20.539,3.368 21.229,2.172C21.92,0.977 23.449,0.567 24.644,1.257C25.84,1.948 26.25,3.477 25.559,4.672Z" style="fill-rule:nonzero;"/>
            </g>
            <g transform="matrix(4.16667,0,0,4.16667,0,0)">
                <path d="M15.567,11.06C17.224,11.06 18.567,9.717 18.567,8.06C18.567,6.403 17.224,5.06 15.567,5.06C13.911,5.06 12.567,6.403 12.567,8.06C12.567,9.717 13.911,11.06 15.567,11.06Z" style="fill-rule:nonzero;"/>
            </g>
            <g transform="matrix(4.16667,0,0,4.16667,0,0)">
                <path d="M26.875,11.941L20.059,13.767L21.598,19.511L22.887,24.234C23.126,25.111 22.744,26.039 21.956,26.493L17.048,29.323C16.33,29.737 15.413,29.491 14.999,28.773C14.586,28.055 14.832,27.138 15.55,26.724L19.789,24.279L18.929,21.125L17.04,24.396C16.683,25.015 16.023,25.396 15.308,25.396L9.513,25.396C8.685,25.396 8.013,24.725 8.013,23.896C8.013,23.068 8.685,22.396 9.513,22.396L14.731,22.396L15.707,20.706L14.264,15.319L10.306,16.38C9.273,16.656 8.171,16.362 7.413,15.608L5.126,13.331C4.538,12.746 4.536,11.797 5.121,11.209C5.705,10.622 6.655,10.62 7.242,11.205L9.529,13.481L26.099,9.043C26.899,8.829 27.722,9.304 27.936,10.104C28.15,10.904 27.675,11.727 26.875,11.941Z" style="fill-rule:nonzero;"/>
            </g>
        </g>
    </g>
</svg>
