<?xml version="1.0" encoding="UTF-8" standalone="no"?>
<!DOCTYPE svg PUBLIC "-//W3C//DTD SVG 1.1//EN" "http://www.w3.org/Graphics/SVG/1.1/DTD/svg11.dtd">
<svg width="100%" height="100%" viewBox="0 0 452 126" version="1.1" xmlns="http://www.w3.org/2000/svg" xmlns:xlink="http://www.w3.org/1999/xlink" xml:space="preserve" xmlns:serif="http://www.serif.com/" style="fill-rule:evenodd;clip-rule:evenodd;stroke-linejoin:round;stroke-miterlimit:2;">
    <g transform="matrix(1,0,0,1,-1101.83,-1813.96)">
        <g transform="matrix(4.20479,0,0,4.20479,1158.25,1621.34)">
            <path d="M83.911,62.129C83.911,62.129 84.308,61.603 84.992,60.987C85.06,60.926 87.671,60.863 88.755,60.801L88.75,60.659C87.787,60.531 85.614,60.327 84.746,60.201L84.747,60.05C85.335,59.985 86.423,59.921 86.531,59.86C87.868,59.096 89.603,58.647 91.466,59.581C93.768,60.735 95.201,64.072 92.785,67.929C92.297,68.708 91.665,69.479 90.871,70.236C90.822,70.283 91.951,70.503 91.951,70.503L91.94,70.668C91.94,70.668 90.16,70.874 90.111,70.915C88.18,72.533 85.463,74.083 81.77,75.52C80.58,75.984 79.484,75.318 78.58,74.416C78.58,74.416 79.813,74.229 80.489,74.115L80.496,73.861C79.51,73.628 76.86,73.187 75.919,72.955L75.89,72.679C76.24,72.582 76.747,72.482 76.657,72.379C76.005,71.633 75.289,70.745 74.617,69.763C74.421,69.476 74.229,69.182 74.043,68.88C73.814,68.508 73.601,68.131 73.403,67.756C73.292,67.545 79.893,67.335 81.568,67.127L81.573,66.686L68.9,66.419L68.9,66.092C68.9,66.092 72.506,65.839 72.455,65.715C72.392,65.561 72.332,65.41 72.274,65.262C71.705,63.795 71.422,62.683 71.378,62.524C71.356,62.444 71.323,62.3 71.288,62.106C71.257,61.929 71.763,61.472 72.033,61.221L72.035,60.981C71.678,60.708 70.825,60.277 70.538,60.038L70.543,59.767C70.763,59.657 71.17,59.545 71.181,59.432C71.392,57.231 72.474,54.636 76.265,54.314C79.033,54.078 81.107,55.914 82.311,57.865C83.587,59.932 83.911,62.129 83.911,62.129Z" style="fill:rgb(0,78,182);"/>
        </g>
        <g transform="matrix(0.597716,0,0,0.597716,872.959,882.488)">
            <g transform="matrix(48.4761,0,0,48.4761,382.138,1593)">
                <path d="M0.799,-0.7L0.481,-0.295L0.317,-0.7L0.156,-0.7L0.016,-0L0.198,-0L0.272,-0.369L0.399,-0.069L0.486,-0.069L0.719,-0.369L0.647,-0L0.83,-0L0.968,-0.7L0.799,-0.7Z" style="fill:rgb(0,78,182);fill-rule:nonzero;"/>
            </g>
            <g transform="matrix(48.4761,0,0,48.4761,445.351,1593)">
                <path d="M0.394,0.014C0.651,0.014 0.831,-0.163 0.831,-0.406C0.831,-0.587 0.698,-0.714 0.483,-0.714C0.226,-0.714 0.046,-0.537 0.046,-0.294C0.046,-0.113 0.179,0.014 0.394,0.014ZM0.411,-0.15C0.306,-0.15 0.246,-0.213 0.246,-0.306C0.246,-0.438 0.329,-0.55 0.466,-0.55C0.571,-0.55 0.631,-0.487 0.631,-0.394C0.631,-0.262 0.548,-0.15 0.411,-0.15Z" style="fill:rgb(0,78,182);fill-rule:nonzero;"/>
            </g>
            <g transform="matrix(48.4761,0,0,48.4761,502.164,1593)">
                <path d="M0.661,-0.7L0.375,-0.245L0.275,-0.7L0.072,-0.7L0.231,-0L0.426,-0L0.865,-0.7L0.661,-0.7Z" style="fill:rgb(0,78,182);fill-rule:nonzero;"/>
            </g>
            <g transform="matrix(48.4761,0,0,48.4761,555.537,1593)">
                <path d="M0.016,-0L0.214,-0L0.354,-0.7L0.156,-0.7L0.016,-0Z" style="fill:rgb(0,78,182);fill-rule:nonzero;"/>
            </g>
            <g transform="matrix(48.4761,0,0,48.4761,588.937,1593)">
                <path d="M0.799,-0.7L0.481,-0.295L0.317,-0.7L0.156,-0.7L0.016,-0L0.198,-0L0.272,-0.369L0.399,-0.069L0.486,-0.069L0.719,-0.369L0.647,-0L0.83,-0L0.968,-0.7L0.799,-0.7Z" style="fill:rgb(0,78,182);fill-rule:nonzero;"/>
            </g>
            <g transform="matrix(48.4761,0,0,48.4761,652.149,1593)">
                <path d="M0.673,-0.547L0.704,-0.7L0.156,-0.7L0.016,-0L0.577,-0L0.609,-0.153L0.242,-0.153L0.267,-0.281L0.579,-0.281L0.608,-0.429L0.297,-0.429L0.32,-0.547L0.673,-0.547Z" style="fill:rgb(0,78,182);fill-rule:nonzero;"/>
            </g>
            <g transform="matrix(48.4761,0,0,48.4761,701.692,1593)">
                <path d="M0.627,-0.7L0.551,-0.317L0.319,-0.7L0.156,-0.7L0.016,-0L0.21,-0L0.287,-0.384L0.518,-0L0.681,-0L0.821,-0.7L0.627,-0.7Z" style="fill:rgb(0,78,182);fill-rule:nonzero;"/>
            </g>
            <g transform="matrix(48.4761,0,0,48.4761,757.73,1593)">
                <path d="M0.164,-0L0.362,-0L0.471,-0.543L0.685,-0.543L0.717,-0.7L0.09,-0.7L0.058,-0.543L0.273,-0.543L0.164,-0Z" style="fill:rgb(0,78,182);fill-rule:nonzero;"/>
            </g>
            <g transform="matrix(48.4761,0,0,48.4761,805.479,1593)">
                <path d="M0.673,-0.547L0.704,-0.7L0.156,-0.7L0.016,-0L0.577,-0L0.609,-0.153L0.242,-0.153L0.267,-0.281L0.579,-0.281L0.608,-0.429L0.297,-0.429L0.32,-0.547L0.673,-0.547Z" style="fill:rgb(0,78,182);fill-rule:nonzero;"/>
            </g>
            <g transform="matrix(48.4761,0,0,48.4761,886.095,1593)">
                <path d="M0.548,-0L0.745,-0L0.576,-0.7L0.381,-0.7L-0.068,-0L0.141,-0L0.222,-0.136L0.52,-0.136L0.548,-0ZM0.309,-0.282L0.443,-0.509L0.49,-0.282L0.309,-0.282Z" style="fill:rgb(0,78,182);fill-rule:nonzero;"/>
            </g>
        </g>
        <g transform="matrix(0.490656,0,0,0.930248,1010.22,316.235)">
            <g transform="matrix(174.485,0,0,92.0314,178,1745)">
                <path d="M0.438,-1.05L0.373,-1.05C0.195,-1.05 0.05,-0.906 0.05,-0.728L0.05,-0.323C0.05,-0.144 0.195,-0 0.373,-0L0.438,-0C0.616,-0 0.761,-0.144 0.761,-0.323L0.761,-0.448L0.513,-0.448L0.513,-0.225C0.513,-0.186 0.482,-0.154 0.443,-0.154L0.368,-0.154C0.329,-0.154 0.297,-0.186 0.297,-0.225L0.297,-0.825C0.297,-0.864 0.329,-0.896 0.368,-0.896L0.443,-0.896C0.482,-0.896 0.513,-0.864 0.513,-0.825L0.513,-0.602L0.761,-0.602L0.761,-0.728C0.761,-0.906 0.616,-1.05 0.438,-1.05Z" style="fill:rgb(230,34,136);fill-rule:nonzero;"/>
            </g>
            <g transform="matrix(174.485,0,0,92.0314,319.507,1745)">
                <path d="M0.287,-1.05L0.02,-0L0.275,-0L0.313,-0.185L0.528,-0.185L0.566,-0L0.821,-0L0.554,-1.05L0.287,-1.05ZM0.496,-0.34L0.223,-0.34L0.223,-0.371C0.298,-0.371 0.362,-0.423 0.376,-0.496L0.42,-0.711L0.496,-0.34Z" style="fill:rgb(230,34,136);fill-rule:nonzero;"/>
            </g>
            <g transform="matrix(174.485,0,0,92.0314,466.249,1745)">
                <path d="M0.513,-0.225C0.513,-0.186 0.482,-0.154 0.443,-0.154L0.368,-0.154C0.329,-0.154 0.297,-0.186 0.297,-0.225L0.297,-1.05L0.05,-1.05L0.05,-0.323C0.05,-0.145 0.195,-0 0.373,-0L0.438,-0C0.616,-0 0.761,-0.145 0.761,-0.323L0.761,-1.05L0.513,-1.05L0.513,-0.225Z" style="fill:rgb(230,34,136);fill-rule:nonzero;"/>
            </g>
            <g transform="matrix(174.485,0,0,92.0314,607.757,1745)">
                <path d="M0.512,-1.041C0.488,-1.047 0.463,-1.05 0.436,-1.05L0.371,-1.05C0.345,-1.05 0.32,-1.047 0.296,-1.041C0.245,-1.029 0.199,-1.005 0.161,-0.972C0.02,-0.851 0.02,-0.633 0.16,-0.511C0.161,-0.511 0.161,-0.51 0.162,-0.51C0.2,-0.477 0.246,-0.453 0.296,-0.441C0.32,-0.436 0.345,-0.433 0.371,-0.433L0.441,-0.433C0.48,-0.433 0.512,-0.401 0.512,-0.362L0.512,-0.225C0.512,-0.186 0.48,-0.154 0.441,-0.154L0.367,-0.154C0.328,-0.154 0.296,-0.186 0.296,-0.225L0.296,-0.34L0.058,-0.34C0.054,-0.325 0.051,-0.309 0.05,-0.293C0.063,-0.154 0.163,-0.041 0.296,-0.009C0.32,-0.003 0.345,-0 0.371,-0L0.436,-0C0.463,-0 0.488,-0.003 0.512,-0.009C0.564,-0.021 0.612,-0.047 0.651,-0.081C0.779,-0.195 0.777,-0.396 0.648,-0.508C0.647,-0.509 0.647,-0.509 0.646,-0.51C0.608,-0.542 0.562,-0.566 0.512,-0.578C0.488,-0.584 0.463,-0.587 0.436,-0.587L0.367,-0.587C0.328,-0.587 0.296,-0.619 0.296,-0.658L0.296,-0.825C0.296,-0.864 0.328,-0.896 0.367,-0.896L0.441,-0.896C0.48,-0.896 0.512,-0.864 0.512,-0.825L0.512,-0.68L0.75,-0.68C0.755,-0.7 0.758,-0.72 0.759,-0.741C0.753,-0.887 0.65,-1.008 0.512,-1.041Z" style="fill:rgb(230,34,136);fill-rule:nonzero;"/>
            </g>
            <g transform="matrix(174.485,0,0,92.0314,748.915,1745)">
                <path d="M0.287,-1.05L0.02,-0L0.275,-0L0.313,-0.185L0.528,-0.185L0.566,-0L0.821,-0L0.554,-1.05L0.287,-1.05ZM0.496,-0.34L0.223,-0.34L0.223,-0.371C0.298,-0.371 0.362,-0.423 0.376,-0.496L0.42,-0.711L0.496,-0.34Z" style="fill:rgb(230,34,136);fill-rule:nonzero;"/>
            </g>
        </g>
    </g>
</svg>
