<?xml version="1.0" encoding="UTF-8" standalone="no"?>
<!DOCTYPE svg PUBLIC "-//W3C//DTD SVG 1.1//EN" "http://www.w3.org/Graphics/SVG/1.1/DTD/svg11.dtd">
<svg width="100%" height="100%" viewBox="0 0 20365 14786" version="1.1" xmlns="http://www.w3.org/2000/svg" xmlns:xlink="http://www.w3.org/1999/xlink" xml:space="preserve" xmlns:serif="http://www.serif.com/" style="fill-rule:evenodd;clip-rule:evenodd;stroke-linejoin:round;stroke-miterlimit:2;">
    <g id="Camada-1" serif:id="Camada 1" transform="matrix(4.16667,0,0,4.16667,0,0)">
        <g transform="matrix(0.662933,0.748679,0.748679,-0.662933,625.038,746.305)">
            <path d="M33.46,-864.482L1210.37,-864.482L1920.15,74.321L743.239,74.324L33.46,-864.482Z" style="fill:rgb(48,45,45);fill-rule:nonzero;"/>
        </g>
        <g transform="matrix(-0.960726,-0.277498,-0.277498,0.960726,745.114,1673.73)">
            <path d="M-588.215,-855.549L588.696,-855.549L-121.078,83.251L-1298,83.249L-588.215,-855.549Z" style="fill:rgb(39,176,132);fill-rule:nonzero;"/>
        </g>
        <g transform="matrix(-0.802252,-0.596986,-0.596986,0.802252,997.457,1071.27)">
            <path d="M-701.179,-706.552L475.734,-706.552L-234.035,232.254L-1410.95,232.262L-701.179,-706.552Z" style="fill:rgb(49,47,46);fill-rule:nonzero;"/>
        </g>
        <g transform="matrix(-0.343787,0.939047,0.939047,0.343787,2922.92,1297.86)">
            <path d="M-826.864,-1516.62L350.052,-1516.62L1059.83,-577.818L-117.09,-577.818L-826.864,-1516.62Z" style="fill:rgb(39,176,132);fill-rule:nonzero;"/>
        </g>
        <g transform="matrix(1,0,0,1,2015.97,-0.0006)">
            <path d="M0,2094.44L-25.58,2054.75L-637.57,1105.18L-232.96,0C-232.96,0 -94.66,326.03 -131.35,1016.7C-168.52,1716.4 0,2094.44 0,2094.44" style="fill:rgb(38,155,130);fill-rule:nonzero;"/>
        </g>
        <g transform="matrix(1,0,0,1,2299.12,1500.1)">
            <path d="M0,293.37C-5.26,293.37 -9.53,289.11 -9.53,283.85L-9.53,9.53C-9.53,4.27 -5.26,0 0,0L0.25,0.01L0.51,0L137.16,0C142.42,0 146.68,4.27 146.68,9.53C146.68,14.79 142.42,19.05 137.16,19.05L9.52,19.05L9.52,137.16L137.16,137.16C142.42,137.16 146.68,141.43 146.68,146.69C146.68,151.95 142.42,156.21 137.16,156.21L9.52,156.21L9.52,274.32L137.16,274.32C142.42,274.32 146.68,278.58 146.68,283.85C146.68,289.11 142.42,293.37 137.16,293.37L0,293.37Z" style="fill:rgb(29,29,24);fill-rule:nonzero;"/>
        </g>
        <g transform="matrix(1,0,0,1,2494.67,1587.09)">
            <path d="M0,204.32L0,68.59C0,25.52 35.04,-9.52 78.11,-9.52C121.17,-9.52 156.21,25.52 156.21,68.59L156.21,203.84C156.21,209.1 151.95,213.37 146.69,213.37C141.43,213.37 137.16,209.1 137.16,203.84L137.16,68.59C137.16,36.02 110.67,9.53 78.11,9.53C45.54,9.53 19.05,36.02 19.05,68.59L19.05,204.32C19.05,209.58 14.79,213.84 9.53,213.84C4.27,213.84 0,209.58 0,204.32" style="fill:rgb(29,29,24);fill-rule:nonzero;"/>
        </g>
        <g transform="matrix(1,0,0,1,2699.75,1681.71)">
            <path d="M0,0C0,-61.62 50.14,-111.76 111.76,-111.76C117.02,-111.76 121.29,-107.5 121.29,-102.23C121.29,-96.97 117.02,-92.71 111.76,-92.71C60.64,-92.71 19.05,-51.12 19.05,0C19.05,51.12 60.64,92.71 111.76,92.71C117.02,92.71 121.29,96.97 121.29,102.24C121.29,107.5 117.02,111.76 111.76,111.76C50.14,111.76 0,61.62 0,0" style="fill:rgb(29,29,24);fill-rule:nonzero;"/>
        </g>
        <g transform="matrix(1,0,0,1,2888.94,1689.96)">
            <path d="M0,0.01C0,51.48 41.88,93.35 93.35,93.35C144.82,93.35 186.69,51.48 186.69,0.01C186.69,-51.46 144.82,-93.34 93.35,-93.34C41.88,-93.34 0,-51.46 0,0.01M-19.05,0.01C-19.05,-61.97 31.37,-112.39 93.35,-112.39C155.32,-112.39 205.74,-61.97 205.74,0.01C205.74,61.98 155.32,112.4 93.35,112.4C31.37,112.4 -19.05,61.98 -19.05,0.01" style="fill:rgb(29,29,24);fill-rule:nonzero;"/>
        </g>
        <g transform="matrix(1,0,0,1,3143.56,1587.09)">
            <path d="M0,204.32L0,68.59C0,25.52 35.03,-9.52 78.1,-9.52C121.17,-9.52 156.2,25.52 156.2,68.59L156.2,203.84C156.2,209.1 151.94,213.37 146.68,213.37C141.42,213.37 137.16,209.1 137.16,203.84L137.16,68.59C137.16,36.02 110.66,9.53 78.1,9.53C45.54,9.53 19.05,36.02 19.05,68.59L19.05,204.32C19.05,209.58 14.78,213.84 9.52,213.84C4.26,213.84 0,209.58 0,204.32" style="fill:rgb(29,29,24);fill-rule:nonzero;"/>
        </g>
        <g transform="matrix(1,0,0,1,3384.55,1544.05)">
            <path d="M0,222.93L0,121.15L-26.39,121.15C-31.65,121.15 -35.91,116.89 -35.91,111.63C-35.91,106.37 -31.65,102.1 -26.39,102.1L0,102.1L0,-25.86C0,-31.12 4.27,-35.38 9.53,-35.38C14.79,-35.38 19.05,-31.12 19.05,-25.86L19.05,102.1L42.19,102.1C47.45,102.1 51.72,106.37 51.72,111.63C51.72,116.89 47.45,121.15 42.19,121.15L19.05,121.15L19.05,222.93C19.05,231.93 26.38,239.26 35.39,239.26C40.65,239.26 44.91,243.52 44.91,248.78C44.91,254.05 40.65,258.31 35.39,258.31C15.88,258.31 0,242.44 0,222.93" style="fill:rgb(29,29,24);fill-rule:nonzero;"/>
        </g>
        <g transform="matrix(1,0,0,1,3625.01,1720.44)">
            <path d="M0,-60.95C0,-94.27 -27.1,-121.36 -60.41,-121.36C-93.72,-121.36 -120.82,-94.27 -120.82,-60.95L-120.82,72.39C-120.82,77.66 -125.08,81.92 -130.34,81.92C-135.6,81.92 -139.87,77.66 -139.87,72.39L-139.87,-133.34C-139.87,-138.61 -135.6,-142.87 -130.34,-142.87C-125.08,-142.87 -120.82,-138.61 -120.82,-133.34L-120.82,-112.52C-106.23,-129.58 -84.56,-140.41 -60.41,-140.41C-16.59,-140.41 19.05,-104.77 19.05,-60.95C19.05,-55.69 14.79,-51.43 9.53,-51.43C4.27,-51.43 0,-55.69 0,-60.95" style="fill:rgb(29,29,24);fill-rule:nonzero;"/>
        </g>
        <g transform="matrix(1,0,0,1,3712.21,1689.96)">
            <path d="M0,0.01C0,51.48 41.87,93.35 93.35,93.35C144.82,93.35 186.69,51.48 186.69,0.01C186.69,-51.46 144.82,-93.34 93.35,-93.34C41.87,-93.34 0,-51.46 0,0.01M-19.05,0.01C-19.05,-61.97 31.37,-112.39 93.35,-112.39C155.32,-112.39 205.74,-61.97 205.74,0.01C205.74,61.98 155.32,112.4 93.35,112.4C31.37,112.4 -19.05,61.98 -19.05,0.01" style="fill:rgb(29,29,24);fill-rule:nonzero;"/>
        </g>
        <g transform="matrix(1,0,0,1,4150.02,1681.71)">
            <path d="M0,0C0,-61.62 50.14,-111.76 111.76,-111.76C117.03,-111.76 121.29,-107.5 121.29,-102.23C121.29,-96.97 117.03,-92.71 111.76,-92.71C60.64,-92.71 19.05,-51.12 19.05,0C19.05,51.12 60.64,92.71 111.76,92.71C117.03,92.71 121.29,96.97 121.29,102.24C121.29,107.5 117.03,111.76 111.76,111.76C50.14,111.76 0,61.62 0,0" style="fill:rgb(29,29,24);fill-rule:nonzero;"/>
        </g>
        <g transform="matrix(1,0,0,1,4339.21,1689.96)">
            <path d="M0,0.01C0,51.48 41.88,93.35 93.35,93.35C144.82,93.35 186.69,51.48 186.69,0.01C186.69,-51.46 144.82,-93.34 93.35,-93.34C41.88,-93.34 0,-51.46 0,0.01M-19.05,0.01C-19.05,-61.97 31.37,-112.39 93.35,-112.39C155.32,-112.39 205.74,-61.97 205.74,0.01C205.74,61.98 155.32,112.4 93.35,112.4C31.37,112.4 -19.05,61.98 -19.05,0.01" style="fill:rgb(29,29,24);fill-rule:nonzero;"/>
        </g>
        <g transform="matrix(1,0,0,1,4868.14,1587.1)">
            <path d="M0,207.5L0,68.58C0,36.01 -26.49,9.52 -59.05,9.52C-91.61,9.52 -118.1,36.01 -118.1,68.58L-118.1,205.74C-118.1,211 -122.37,215.26 -127.63,215.26C-132.89,215.26 -137.15,211 -137.15,205.74L-137.15,68.58C-137.15,36.01 -163.65,9.52 -196.21,9.52C-228.77,9.52 -255.26,36.01 -255.26,68.58L-255.26,205.74C-255.26,211 -259.53,215.26 -264.79,215.26C-270.05,215.26 -274.31,211 -274.31,205.74L-274.31,68.58C-274.31,25.51 -239.28,-9.53 -196.21,-9.53C-166.66,-9.53 -140.9,6.96 -127.63,31.22C-114.36,6.96 -88.6,-9.53 -59.05,-9.53C-29.5,-9.53 -3.74,6.96 9.53,31.22C15.6,42.33 19.05,55.06 19.05,68.58L19.05,207.5C19.05,212.76 14.79,217.03 9.53,217.03C4.27,217.03 0,212.76 0,207.5" style="fill:rgb(29,29,24);fill-rule:nonzero;"/>
        </g>
        <g transform="matrix(1,0,0,1,2343.93,2084.09)">
            <path d="M0,-232.49L0,-199.06C0,-187.18 -4.09,-183.09 -15.97,-183.09L-114.02,-183.09L-114.02,-150.04L-35.66,-150.04C-23.77,-150.04 -19.69,-145.96 -19.69,-134.44L-19.69,-101.02C-19.69,-89.13 -23.77,-85.05 -35.66,-85.05L-114.02,-85.05L-114.02,-49.4L-12.63,-49.4C-1.12,-49.4 2.97,-45.68 2.97,-33.8L2.97,0.001C2.97,11.511 -1.12,15.6 -12.63,15.6L-171.58,15.6C-183.47,15.6 -187.55,11.511 -187.55,0.001L-187.55,-232.49C-187.55,-244 -183.47,-248.09 -171.58,-248.09L-15.97,-248.09C-4.09,-248.09 0,-244 0,-232.49" style="fill:rgb(29,29,24);fill-rule:nonzero;"/>
        </g>
        <g transform="matrix(1,0,0,1,2478.74,2034.69)">
            <path d="M0,-133.69L-30.45,-133.69L-30.45,0L0,0C30.08,0 43.08,-13.74 43.08,-40.11L43.08,-93.59C43.08,-119.95 30.08,-133.69 0,-133.69M116.61,-94.7L116.61,-38.99C116.61,24.891 75.76,65 2.6,65L-88.02,65C-99.9,65 -103.99,60.911 -103.99,49.401L-103.99,-183.09C-103.99,-194.6 -99.9,-198.69 -88.02,-198.69L2.6,-198.69C75.76,-198.69 116.61,-158.95 116.61,-94.7" style="fill:rgb(29,29,24);fill-rule:nonzero;"/>
        </g>
        <g transform="matrix(1,0,0,1,2736.11,1901)">
            <path d="M0,139.26C25.62,139.26 38.62,127.01 38.62,105.1L38.62,-49.4C38.62,-60.91 42.34,-65 54.22,-65L96.19,-65C108.07,-65 112.15,-60.91 112.15,-49.4L112.15,101.75C112.15,164.15 73.53,204.26 0,204.26C-73.17,204.26 -111.79,164.15 -111.79,101.75L-111.79,-49.4C-111.79,-60.91 -108.08,-65 -96.19,-65L-54.22,-65C-42.34,-65 -38.26,-60.91 -38.26,-49.4L-38.26,105.1C-38.26,127.01 -25.63,139.26 0,139.26" style="fill:rgb(29,29,24);fill-rule:nonzero;"/>
        </g>
        <g transform="matrix(1,0,0,1,2991.25,2105.26)">
            <path d="M0,-274.83C57.19,-274.83 92.84,-251.43 108.44,-209.84C112.15,-199.07 109.55,-193.49 98.41,-189.78L58.68,-175.67C47.16,-172.33 42.71,-174.18 38.62,-185.7C31.94,-202.41 20.79,-209.84 0,-209.84C-29.34,-209.84 -40.86,-197.21 -40.86,-171.21L-40.86,-103.62C-40.86,-77.62 -29.34,-65 0,-65C20.79,-65 32.68,-73.17 38.62,-89.14C43.08,-100.65 47.53,-103.25 58.68,-99.16L98.41,-85.05C109.55,-81.34 112.15,-75.77 108.44,-65C92.84,-23.399 57.19,0 0,0C-73.17,0 -114.39,-39.74 -114.39,-103.99L-114.39,-170.84C-114.39,-235.09 -73.17,-274.83 0,-274.83" style="fill:rgb(29,29,24);fill-rule:nonzero;"/>
        </g>
        <g transform="matrix(1,0,0,1,3230.42,2032.1)">
            <path d="M0,-128.51L-3.71,-128.51C-3.71,-128.51 -3.34,-101.77 -10.77,-76.88L-24.51,-33.06L21.91,-33.06L8.17,-76.51C0.74,-101.77 0,-128.51 0,-128.51M115.13,67.59L75.02,67.59C55.71,67.59 50.14,63.501 47.17,51.991L38.62,25.251L-41.59,25.251L-50.14,51.991C-53.85,63.501 -58.68,67.59 -77.25,67.59L-116.24,67.59C-127.76,67.59 -129.98,62.39 -126.27,52.36L-40.85,-183.1C-37.14,-193.87 -32.31,-196.1 -21.54,-196.1L20.8,-196.1C31.57,-196.1 36.4,-193.5 40.11,-183.84L125.9,52.36C129.61,62.39 126.27,67.59 115.13,67.59" style="fill:rgb(29,29,24);fill-rule:nonzero;"/>
        </g>
        <g transform="matrix(1,0,0,1,3480.36,2034.69)">
            <path d="M0,-133.69L-30.45,-133.69L-30.45,0L0,0C30.08,0 43.08,-13.74 43.08,-40.11L43.08,-93.59C43.08,-119.95 30.08,-133.69 0,-133.69M116.61,-94.7L116.61,-38.99C116.61,24.891 75.76,65 2.6,65L-88.02,65C-99.9,65 -103.99,60.911 -103.99,49.401L-103.99,-183.09C-103.99,-194.6 -99.9,-198.69 -88.02,-198.69L2.6,-198.69C75.76,-198.69 116.61,-158.95 116.61,-94.7" style="fill:rgb(29,29,24);fill-rule:nonzero;"/>
        </g>
        <g transform="matrix(1,0,0,1,3735.87,2040.27)">
            <path d="M0,-144.85C-26,-144.85 -40.85,-132.59 -40.85,-109.19L-40.85,-35.66C-40.85,-12.26 -26,-0.01 0,-0.01C25.63,-0.01 40.48,-12.26 40.48,-35.66L40.48,-109.19C40.48,-132.59 25.63,-144.85 0,-144.85M0,-209.84C73.16,-209.84 114.02,-170.1 114.02,-105.85L114.02,-39C114.02,25.25 73.16,64.99 0,64.99C-73.53,64.99 -114.39,25.25 -114.39,-39L-114.39,-105.85C-114.39,-170.1 -73.53,-209.84 0,-209.84" style="fill:rgb(29,29,24);fill-rule:nonzero;"/>
        </g>
        <g transform="matrix(1,0,0,1,3994.73,2034.69)">
            <path d="M0,-133.69L-40.11,-133.69L-40.11,-84.67L0,-84.67C15.59,-84.67 24.51,-94.33 24.51,-109.56C24.51,-124.41 15.96,-133.69 0,-133.69M100.64,-109.18C100.64,-72.79 85.78,-46.79 60.53,-32.68C64.24,-27.85 67.59,-22.65 70.56,-16.71L103.98,46.8C109.18,56.82 106.58,65 94.33,65L54.22,65C34.53,65 25.99,60.171 20.05,47.171L-3.72,-3.71C-10.03,-16.34 -16.34,-22.65 -31.57,-22.65L-40.11,-22.65L-40.11,49.401C-40.11,60.911 -43.83,65 -55.71,65L-97.68,65C-109.56,65 -113.65,60.911 -113.65,49.401L-113.65,-183.09C-113.65,-194.6 -109.56,-198.69 -97.68,-198.69L8.17,-198.69C64.24,-198.69 100.64,-166.75 100.64,-109.18" style="fill:rgb(29,29,24);fill-rule:nonzero;"/>
        </g>
        <g transform="matrix(1,0,0,1,4314.12,2084.09)">
            <path d="M0,-232.49L0,-199.06C0,-187.18 -4.09,-183.09 -15.97,-183.09L-114.02,-183.09L-114.02,-150.04L-35.66,-150.04C-23.77,-150.04 -19.69,-145.96 -19.69,-134.44L-19.69,-101.02C-19.69,-89.13 -23.77,-85.05 -35.66,-85.05L-114.02,-85.05L-114.02,-49.4L-12.63,-49.4C-1.12,-49.4 2.97,-45.68 2.97,-33.8L2.97,0.001C2.97,11.511 -1.12,15.6 -12.63,15.6L-171.58,15.6C-183.47,15.6 -187.55,11.511 -187.55,0.001L-187.55,-232.49C-187.55,-244 -183.47,-248.09 -171.58,-248.09L-15.97,-248.09C-4.09,-248.09 0,-244 0,-232.49" style="fill:rgb(29,29,24);fill-rule:nonzero;"/>
        </g>
        <g transform="matrix(1,0,0,1,4447.07,2105.26)">
            <path d="M0,-274.83C54.97,-274.83 86.16,-258.49 103.62,-222.83C108.82,-212.06 105.85,-206.49 94.71,-202.04L57.57,-186.07C47.54,-181.61 43.46,-183.1 37.51,-193.87C30.46,-207.98 17.09,-213.18 0,-213.18C-25.25,-213.18 -35.28,-206.86 -35.28,-193.87C-35.28,-177.9 -13.37,-174.55 13.37,-171.21C56.45,-165.27 112.16,-154.87 112.16,-84.68C112.16,-30.09 62.77,0 -2.97,0C-58.3,0 -96.93,-18.939 -111.04,-57.57C-115.13,-68.71 -111.78,-73.91 -101.01,-77.99L-66.1,-90.62C-54.96,-94.34 -49.76,-93.22 -44.19,-82.45C-37.51,-69.45 -23.02,-62.77 -2.22,-62.77C22.66,-62.77 37.51,-67.97 37.51,-83.94C37.51,-98.42 18.57,-102.51 -5.94,-105.85C-49.39,-111.79 -110.3,-119.59 -110.3,-191.64C-110.3,-240.66 -70.93,-274.83 0,-274.83" style="fill:rgb(29,29,24);fill-rule:nonzero;"/>
        </g>
        <g transform="matrix(1,0,0,1,1835.14,2378.14)">
            <path d="M0,1133.63L128.962,687.202L670.591,687.164C692.87,686.881 711.884,671.96 718.185,651.644L780.245,446.446L215.526,447.295C215.526,447.295 204.604,445.955 199.775,454.652C198.266,457.424 190.872,470.667 190.872,470.667C190.872,470.667 252.517,258.395 341.252,258.395L799.241,258.395C821.595,258.395 840.496,243.718 847.023,223.572L923.571,-35.803L364.435,-36.652C183.119,-23.485 50.753,127.066 -32.691,414.943L-254.829,1170.28L-48.404,1170.28C-25.428,1170.28 -5.961,1154.72 0,1133.63" style="fill:rgb(29,29,24);fill-rule:nonzero;"/>
        </g>
        <g transform="matrix(1,0,0,1,3162.57,2809.98)">
            <path d="M0,270.788L-193.7,270.788C-193.7,270.788 -202.198,271.127 -204.415,271.127C-213.017,271.127 -222.675,286.671 -222.675,286.671L-55.242,-96.204L26.542,249.151C26.73,250.057 30.776,270.788 0,270.788M355.164,709.253L73.861,-467.647C64.74,-467.552 -74.832,-467.647 -92.582,-467.647C-127.82,-467.647 -140.364,-450.934 -147.947,-435.767L-664.291,738.435L-461.866,738.435C-421.724,738.435 -414.81,720.835 -408.651,707.216L-290.537,440.409L28.323,439.032C66.362,439.032 76.907,465.384 76.907,465.384L141.411,738.435L311.703,738.435C311.703,738.435 362.191,738.435 355.164,709.253" style="fill:rgb(29,29,24);fill-rule:nonzero;"/>
        </g>
        <g transform="matrix(1,0,0,1,4679.21,3548.42)">
            <path d="M0,-1206.08C-50.856,-1206.08 -77.755,-1206.08 -103.108,-1150.06L-430.769,-429.128C-430.769,-429.128 -435.107,-420.017 -436.314,-417.074C-442.756,-401.417 -439.936,-379.894 -439.936,-379.894L-647.248,-1206.08L-843.58,-1206.08C-896.624,-1206.08 -935.352,-1206.08 -940.199,-1143.57L-1057.5,0C-1032.18,-0.886 -923.958,0 -923.958,0C-832.459,0 -832.459,0 -826.527,-61.684L-757.505,-740.452L-576.518,-16.373C-501.752,-16.223 -569.718,-16.223 -501.752,-16.223L-464.402,-16.223C-391.269,-16.373 -391.269,-16.373 -368.594,-64.947L-64.947,-735.586L-140.335,0L0,0C83.378,0 83.378,0 90.942,-62.514L208.368,-1206.08L0,-1206.08Z" style="fill:rgb(29,29,24);fill-rule:nonzero;"/>
        </g>
    </g>
</svg>
