<?xml version="1.0" encoding="UTF-8" standalone="no"?>
<!DOCTYPE svg PUBLIC "-//W3C//DTD SVG 1.1//EN" "http://www.w3.org/Graphics/SVG/1.1/DTD/svg11.dtd">
<svg width="100%" height="100%" viewBox="0 0 499 677" version="1.1" xmlns="http://www.w3.org/2000/svg" xmlns:xlink="http://www.w3.org/1999/xlink" xml:space="preserve" xmlns:serif="http://www.serif.com/" style="fill-rule:evenodd;clip-rule:evenodd;stroke-linejoin:round;stroke-miterlimit:2;">
    <g transform="matrix(1,0,0,1,-771.619,-650.837)">
        <g transform="matrix(29.6214,0,0,29.6214,759.901,639.285)">
            <path d="M14.607,2.79C13.008,1.19 10.913,0.39 8.818,0.39C6.722,0.39 4.627,1.19 3.029,2.79C-0.169,5.989 -0.588,10.507 2.511,15.092C4.085,17.42 8.818,23.24 8.818,23.24C8.818,23.24 13.55,17.42 15.124,15.092C18.224,10.507 17.804,5.989 14.607,2.79ZM8.818,13.748C6.097,13.748 3.891,11.541 3.891,8.818C3.891,6.095 6.097,3.888 8.818,3.888C11.538,3.888 13.744,6.095 13.744,8.818C13.744,11.541 11.538,13.748 8.818,13.748Z" style="fill:rgb(48,45,45);"/>
        </g>
    </g>
</svg>
