<?xml version="1.0" encoding="UTF-8" standalone="no"?>
<!DOCTYPE svg PUBLIC "-//W3C//DTD SVG 1.1//EN" "http://www.w3.org/Graphics/SVG/1.1/DTD/svg11.dtd">
<svg width="100%" height="100%" viewBox="0 0 1586 253" version="1.1" xmlns="http://www.w3.org/2000/svg" xmlns:xlink="http://www.w3.org/1999/xlink" xml:space="preserve" xmlns:serif="http://www.serif.com/" style="fill-rule:evenodd;clip-rule:evenodd;stroke-linejoin:round;stroke-miterlimit:2;">
    <g transform="matrix(1,0,0,1,-335.526,-940.202)">
        <g transform="matrix(1.98166,0,0,1.98166,-253.821,-1781.42)">
            <path d="M339.276,1392.75C346.442,1392.75 353.192,1393.88 359.526,1396.12L355.276,1416L353.651,1417C351.484,1415.83 348.984,1414.9 346.151,1414.19C343.317,1413.48 340.692,1413.12 338.276,1413.12C333.192,1413.12 329.526,1414.6 327.276,1417.56C325.026,1420.52 323.901,1425.46 323.901,1432.38C323.901,1440.46 325.192,1446.35 327.776,1450.06C330.359,1453.77 334.401,1455.62 339.901,1455.62C342.234,1455.62 344.838,1455.4 347.713,1454.94C350.588,1454.48 353.109,1453.83 355.276,1453L357.276,1454.25L355.276,1474C350.276,1475.58 344.484,1476.38 337.901,1476.38C324.484,1476.38 314.38,1472.88 307.588,1465.88C300.796,1458.88 297.401,1448.67 297.401,1435.25C297.401,1421.75 301.046,1411.29 308.338,1403.88C315.63,1396.46 325.942,1392.75 339.276,1392.75Z" style="fill-rule:nonzero;"/>
            <path d="M390.401,1414.5C399.734,1414.5 406.776,1417 411.526,1422C416.276,1427 418.651,1434.38 418.651,1444.12C418.651,1454.79 416.088,1462.85 410.963,1468.31C405.838,1473.77 398.276,1476.5 388.276,1476.5C378.942,1476.5 371.901,1474.02 367.151,1469.06C362.401,1464.1 360.026,1456.79 360.026,1447.12C360.026,1436.38 362.588,1428.25 367.713,1422.75C372.838,1417.25 380.401,1414.5 390.401,1414.5ZM388.651,1430.88C386.984,1430.88 385.734,1431.19 384.901,1431.81C384.067,1432.44 383.505,1433.58 383.213,1435.25C382.921,1436.92 382.776,1439.46 382.776,1442.88C382.776,1447.96 382.963,1451.73 383.338,1454.19C383.713,1456.65 384.401,1458.35 385.401,1459.31C386.401,1460.27 387.942,1460.75 390.026,1460.75C391.692,1460.75 392.921,1460.44 393.713,1459.81C394.505,1459.19 395.046,1458.02 395.338,1456.31C395.63,1454.6 395.776,1452.04 395.776,1448.62C395.776,1443.62 395.588,1439.9 395.213,1437.44C394.838,1434.98 394.151,1433.27 393.151,1432.31C392.151,1431.35 390.651,1430.88 388.651,1430.88Z" style="fill-rule:nonzero;"/>
            <path d="M487.901,1414.5C495.567,1414.5 501.484,1416.06 505.651,1419.19C509.817,1422.31 511.901,1426.79 511.901,1432.62C511.901,1434.29 511.734,1438.71 511.401,1445.88C511.067,1452.21 510.901,1455.75 510.901,1456.5C510.901,1457.42 511.046,1458.08 511.338,1458.5C511.63,1458.92 512.067,1459.12 512.651,1459.12C513.234,1459.12 513.942,1459 514.776,1458.75L516.276,1460L514.151,1472.5C511.067,1474.67 507.192,1475.92 502.526,1476.25C500.109,1476.08 497.963,1475.25 496.088,1473.75C494.213,1472.25 492.776,1470.12 491.776,1467.38L490.901,1467.38C487.234,1471.62 483.067,1474.62 478.401,1476.38C472.067,1476.29 467.005,1474.52 463.213,1471.06C459.421,1467.6 457.526,1462.88 457.526,1456.88C457.526,1447.62 462.317,1442.33 471.901,1441L489.651,1438.62L489.651,1437.12C489.651,1434.96 489.213,1433.42 488.338,1432.5C487.463,1431.58 485.942,1431.12 483.776,1431.12C479.109,1431.12 473.067,1433.12 465.651,1437.12L464.151,1436.12L461.526,1420.75C465.359,1418.75 469.588,1417.21 474.213,1416.12C478.838,1415.04 483.401,1414.5 487.901,1414.5ZM482.526,1450.25C481.359,1450.42 480.505,1450.85 479.963,1451.56C479.421,1452.27 479.151,1453.33 479.151,1454.75C479.151,1458.08 480.692,1459.75 483.776,1459.75C485.776,1459.75 487.734,1459.08 489.651,1457.75L489.651,1449.25L482.526,1450.25Z" style="fill-rule:nonzero;"/>
            <path d="M551.026,1414.5C556.692,1414.5 561.776,1415.5 566.276,1417.5L562.401,1436L560.651,1436.88C558.401,1435.96 556.567,1435.29 555.151,1434.88C553.734,1434.46 552.401,1434.25 551.151,1434.25C548.567,1434.25 546.651,1435.02 545.401,1436.56C544.151,1438.1 543.526,1440.54 543.526,1443.88C543.526,1448.62 544.255,1452.08 545.713,1454.25C547.171,1456.42 549.484,1457.5 552.651,1457.5C555.234,1457.5 558.776,1456.88 563.276,1455.62L564.901,1457L562.401,1474.88C558.067,1475.96 552.859,1476.5 546.776,1476.5C538.359,1476.5 531.838,1473.9 527.213,1468.69C522.588,1463.48 520.276,1456.08 520.276,1446.5C520.276,1436.33 522.963,1428.46 528.338,1422.88C533.713,1417.29 541.276,1414.5 551.026,1414.5ZM550.776,1480.25L555.026,1482.62C557.026,1483.71 558.442,1484.9 559.276,1486.19C560.109,1487.48 560.526,1488.92 560.526,1490.5C560.526,1493.58 559.296,1496.1 556.838,1498.06C554.38,1500.02 551.026,1501 546.776,1501C542.692,1501 538.859,1500 535.276,1498L536.651,1488.62L537.651,1488.25C538.901,1489.33 540.234,1490.19 541.651,1490.81C543.067,1491.44 544.234,1491.75 545.151,1491.75C546.484,1491.75 547.151,1491.17 547.151,1490C547.151,1489.25 546.651,1488.62 545.651,1488.12L539.401,1484.75L542.151,1470.75L552.526,1470.75L550.776,1480.25Z" style="fill-rule:nonzero;"/>
            <path d="M597.526,1414.5C605.192,1414.5 611.109,1416.06 615.276,1419.19C619.442,1422.31 621.526,1426.79 621.526,1432.62C621.526,1434.29 621.359,1438.71 621.026,1445.88C620.692,1452.21 620.526,1455.75 620.526,1456.5C620.526,1457.42 620.671,1458.08 620.963,1458.5C621.255,1458.92 621.692,1459.12 622.276,1459.12C622.859,1459.12 623.567,1459 624.401,1458.75L625.901,1460L623.776,1472.5C620.692,1474.67 616.817,1475.92 612.151,1476.25C609.734,1476.08 607.588,1475.25 605.713,1473.75C603.838,1472.25 602.401,1470.12 601.401,1467.38L600.526,1467.38C596.859,1471.62 592.692,1474.62 588.026,1476.38C581.692,1476.29 576.63,1474.52 572.838,1471.06C569.046,1467.6 567.151,1462.88 567.151,1456.88C567.151,1447.62 571.942,1442.33 581.526,1441L599.276,1438.62L599.276,1437.12C599.276,1434.96 598.838,1433.42 597.963,1432.5C597.088,1431.58 595.567,1431.12 593.401,1431.12C588.734,1431.12 582.692,1433.12 575.276,1437.12L573.776,1436.12L571.151,1420.75C574.984,1418.75 579.213,1417.21 583.838,1416.12C588.463,1415.04 593.026,1414.5 597.526,1414.5ZM592.151,1450.25C590.984,1450.42 590.13,1450.85 589.588,1451.56C589.046,1452.27 588.776,1453.33 588.776,1454.75C588.776,1458.08 590.317,1459.75 593.401,1459.75C595.401,1459.75 597.359,1459.08 599.276,1457.75L599.276,1449.25L592.151,1450.25ZM620.401,1389.25L620.401,1391.25L610.276,1405.38L608.276,1406.12C606.026,1405.88 602.442,1405.04 597.526,1403.62C596.859,1403.46 595.505,1403.12 593.463,1402.62C591.421,1402.12 589.984,1401.88 589.151,1401.88C587.734,1401.88 586.484,1402.42 585.401,1403.5C584.317,1404.58 582.692,1406.46 580.526,1409.12L578.526,1409.12L571.401,1402.25L571.401,1400.25L581.526,1386.12L583.526,1385.38C585.776,1385.62 589.359,1386.46 594.276,1387.88C594.942,1388.04 596.296,1388.38 598.338,1388.88C600.38,1389.38 601.817,1389.62 602.651,1389.62C604.067,1389.62 605.317,1389.08 606.401,1388C607.484,1386.92 609.109,1385.04 611.276,1382.38L613.276,1382.38L620.401,1389.25Z" style="fill-rule:nonzero;"/>
            <path d="M660.276,1414.5C669.609,1414.5 676.651,1417 681.401,1422C686.151,1427 688.526,1434.38 688.526,1444.12C688.526,1454.79 685.963,1462.85 680.838,1468.31C675.713,1473.77 668.151,1476.5 658.151,1476.5C648.817,1476.5 641.776,1474.02 637.026,1469.06C632.276,1464.1 629.901,1456.79 629.901,1447.12C629.901,1436.38 632.463,1428.25 637.588,1422.75C642.713,1417.25 650.276,1414.5 660.276,1414.5ZM658.526,1430.88C656.859,1430.88 655.609,1431.19 654.776,1431.81C653.942,1432.44 653.38,1433.58 653.088,1435.25C652.796,1436.92 652.651,1439.46 652.651,1442.88C652.651,1447.96 652.838,1451.73 653.213,1454.19C653.588,1456.65 654.276,1458.35 655.276,1459.31C656.276,1460.27 657.817,1460.75 659.901,1460.75C661.567,1460.75 662.796,1460.44 663.588,1459.81C664.38,1459.19 664.921,1458.02 665.213,1456.31C665.505,1454.6 665.651,1452.04 665.651,1448.62C665.651,1443.62 665.463,1439.9 665.088,1437.44C664.713,1434.98 664.026,1433.27 663.026,1432.31C662.026,1431.35 660.526,1430.88 658.526,1430.88Z" style="fill-rule:nonzero;"/>
            <path d="M767.151,1448.75L767.276,1456.38C767.276,1457.38 767.401,1458.08 767.651,1458.5C767.901,1458.92 768.317,1459.12 768.901,1459.12C769.484,1459.12 770.192,1459 771.026,1458.75L772.526,1460L770.401,1472.5C767.317,1474.67 763.442,1475.92 758.776,1476.25C756.109,1476.08 753.755,1475.25 751.713,1473.75C749.671,1472.25 748.067,1470.17 746.901,1467.5L746.026,1467.5C742.692,1471.08 738.776,1473.96 734.276,1476.12C726.359,1476.12 720.151,1473.46 715.651,1468.12C711.151,1462.79 708.901,1455.54 708.901,1446.38C708.901,1436.12 711.651,1428.31 717.151,1422.94C722.651,1417.56 730.192,1414.88 739.776,1414.88C741.026,1414.88 742.567,1415 744.401,1415.25L744.026,1388.88L768.276,1387.25L767.151,1448.75ZM739.026,1431C736.276,1431 734.359,1431.75 733.276,1433.25C732.192,1434.75 731.651,1437.62 731.651,1441.88C731.651,1447.62 732.234,1451.77 733.401,1454.31C734.567,1456.85 736.401,1458.12 738.901,1458.12C740.984,1458.12 742.942,1457.29 744.776,1455.62L744.901,1451.12L744.651,1432.25C742.734,1431.42 740.859,1431 739.026,1431Z" style="fill-rule:nonzero;"/>
            <path d="M829.276,1450.5L798.276,1450.75C799.026,1453.67 800.442,1455.81 802.526,1457.19C804.609,1458.56 807.484,1459.25 811.151,1459.25C815.234,1459.25 821.192,1458.21 829.026,1456.12L830.776,1457.38L827.026,1473.88C820.442,1475.62 814.317,1476.5 808.651,1476.5C798.317,1476.5 790.255,1473.75 784.463,1468.25C778.671,1462.75 775.776,1455.17 775.776,1445.5C775.776,1435.92 778.526,1428.38 784.026,1422.88C789.526,1417.38 797.067,1414.62 806.651,1414.62C814.901,1414.62 821.296,1416.79 825.838,1421.12C830.38,1425.46 832.651,1431.5 832.651,1439.25C832.651,1441.75 832.401,1444.46 831.901,1447.38L829.276,1450.5ZM812.026,1436.75C812.026,1432.33 810.151,1430.12 806.401,1430.12C801.817,1430.12 799.026,1433.08 798.026,1439L811.776,1438.5L812.026,1436.75Z" style="fill-rule:nonzero;"/>
            <path d="M899.276,1392.75C908.276,1392.75 916.067,1394 922.651,1396.5L917.276,1418.62L915.276,1418.62C911.109,1416.54 907.505,1415.04 904.463,1414.12C901.421,1413.21 898.109,1412.75 894.526,1412.75C890.692,1412.75 887.755,1413.38 885.713,1414.62C883.671,1415.88 882.192,1418.08 881.276,1421.25C880.359,1424.42 879.901,1429 879.901,1435C879.901,1441.08 880.359,1445.73 881.276,1448.94C882.192,1452.15 883.755,1454.4 885.963,1455.69C888.171,1456.98 891.359,1457.62 895.526,1457.62C896.692,1457.62 898.192,1457.46 900.026,1457.12L900.026,1453.12L899.651,1439.5L922.526,1437.88L922.151,1448.88L922.151,1471C912.484,1474.67 902.859,1476.5 893.276,1476.5C880.192,1476.5 870.317,1473.02 863.651,1466.06C856.984,1459.1 853.651,1449.17 853.651,1436.25C853.651,1422.08 857.588,1411.29 865.463,1403.88C873.338,1396.46 884.609,1392.75 899.276,1392.75Z" style="fill-rule:nonzero;"/>
            <path d="M967.401,1415.88C968.484,1415.88 969.442,1415.96 970.276,1416.12L970.276,1438L967.901,1438.75C966.817,1438.08 965.317,1437.75 963.401,1437.75C961.567,1437.75 959.63,1438.17 957.588,1439C955.546,1439.83 953.651,1441 951.901,1442.5L951.901,1448.75L952.901,1475L928.526,1475L929.651,1451.25L928.776,1417.38L951.901,1415.75L951.901,1426.75L953.026,1426.75C956.609,1419.5 961.401,1415.88 967.401,1415.88Z" style="fill-rule:nonzero;"/>
            <path d="M1001.53,1414.5C1009.19,1414.5 1015.11,1416.06 1019.28,1419.19C1023.44,1422.31 1025.53,1426.79 1025.53,1432.62C1025.53,1434.29 1025.36,1438.71 1025.03,1445.88C1024.69,1452.21 1024.53,1455.75 1024.53,1456.5C1024.53,1457.42 1024.67,1458.08 1024.96,1458.5C1025.26,1458.92 1025.69,1459.12 1026.28,1459.12C1026.86,1459.12 1027.57,1459 1028.4,1458.75L1029.9,1460L1027.78,1472.5C1024.69,1474.67 1020.82,1475.92 1016.15,1476.25C1013.73,1476.08 1011.59,1475.25 1009.71,1473.75C1007.84,1472.25 1006.4,1470.12 1005.4,1467.38L1004.53,1467.38C1000.86,1471.62 996.692,1474.62 992.026,1476.38C985.692,1476.29 980.63,1474.52 976.838,1471.06C973.046,1467.6 971.151,1462.88 971.151,1456.88C971.151,1447.62 975.942,1442.33 985.526,1441L1003.28,1438.62L1003.28,1437.12C1003.28,1434.96 1002.84,1433.42 1001.96,1432.5C1001.09,1431.58 999.567,1431.12 997.401,1431.12C992.734,1431.12 986.692,1433.12 979.276,1437.12L977.776,1436.12L975.151,1420.75C978.984,1418.75 983.213,1417.21 987.838,1416.12C992.463,1415.04 997.026,1414.5 1001.53,1414.5ZM996.151,1450.25C994.984,1450.42 994.13,1450.85 993.588,1451.56C993.046,1452.27 992.776,1453.33 992.776,1454.75C992.776,1458.08 994.317,1459.75 997.401,1459.75C999.401,1459.75 1001.36,1459.08 1003.28,1457.75L1003.28,1449.25L996.151,1450.25Z" style="fill-rule:nonzero;"/>
            <path d="M1097.65,1460L1095.53,1472.5C1091.53,1475.08 1087.36,1476.33 1083.03,1476.25C1078.19,1475.25 1074.69,1471.75 1072.53,1465.75L1071.03,1465.75C1068.69,1468.33 1066.4,1470.44 1064.15,1472.06C1061.9,1473.69 1059.4,1474.92 1056.65,1475.75C1050.48,1475.75 1045.71,1474.33 1042.34,1471.5C1038.96,1468.67 1037.28,1464.58 1037.28,1459.25L1037.65,1446.38L1036.9,1417.38L1060.03,1415.75L1060.03,1449.62C1060.03,1452.12 1060.44,1453.9 1061.28,1454.94C1062.11,1455.98 1063.4,1456.5 1065.15,1456.5C1066.23,1456.5 1067.17,1456.35 1067.96,1456.06C1068.76,1455.77 1069.61,1455.29 1070.53,1454.62L1070.53,1417.38L1093.65,1415.75L1092.28,1456.5C1092.28,1457.42 1092.42,1458.08 1092.71,1458.5C1093.01,1458.92 1093.44,1459.12 1094.03,1459.12C1094.61,1459.12 1095.32,1459 1096.15,1458.75L1097.65,1460Z" style="fill-rule:nonzero;"/>
        </g>
        <g transform="matrix(-0.411559,0.0262358,0.0262358,0.411559,902.517,752.827)">
            <g transform="matrix(2.09683,3.60061,-3.60061,2.09683,1589.01,-51.5639)">
                <path d="M54.569,262.426L50.567,259.808L47.933,259.452C48.198,258.254 48.39,257.042 48.504,255.811C48.505,255.799 48.506,255.787 48.507,255.775L53.761,258.39L55.305,259.268C55.103,260.333 54.854,261.384 54.569,262.426Z" style="fill-rule:nonzero;"/>
            </g>
            <g transform="matrix(2.09683,3.60061,-3.60061,2.09683,1585.82,-63.5094)">
                <path d="M48.507,255.775C47.76,263.968 43.551,271.4 37.258,278.375C39.801,277.802 42.156,277.004 44.098,275.714C44.416,277.908 44.328,279.882 44.1,281.78C49.755,274.823 53.763,267.396 55.305,259.268L53.761,258.39L48.507,255.775Z" style="fill-rule:nonzero;"/>
            </g>
            <g transform="matrix(2.09683,3.60061,-3.60061,2.09683,1525.59,-55.4188)">
                <path d="M16.121,214.933L56.725,237.794L62.565,240.689L108.941,261.159L109.694,261.495C111.309,262.301 112.394,264.171 112.569,266.921C112.912,272.431 109.457,279.373 104.854,282.421C102.55,283.95 100.403,284.213 98.786,283.409L53.758,258.383L47.953,255.494L4.994,236.713L4.934,236.683C3.353,235.859 2.279,233.992 2.114,231.272C1.78,225.767 5.231,218.835 9.829,215.772C12.128,214.253 14.285,213.995 15.901,214.799L16.131,214.914L16.121,214.933Z" style="fill-rule:nonzero;"/>
            </g>
            <g transform="matrix(2.09683,3.60061,-3.60061,2.09683,1525.59,-55.4188)">
                <path d="M47.27,244.084C48.396,241.831 50.016,239.827 51.865,238.602C53.044,237.82 54.174,237.449 55.177,237.449C55.719,237.449 56.224,237.558 56.679,237.769L16.121,214.933L16.131,214.914L15.402,214.551C14.167,213.936 12.94,213.678 11.75,213.678C5.536,213.678 0.346,220.722 0.346,220.722L4.124,222.603C3.594,223.667 3.153,224.776 2.819,225.892C2.351,227.453 2.092,229.029 2.092,230.522C2.092,230.774 2.099,231.025 2.114,231.272C2.279,233.992 3.353,235.859 4.934,236.683L4.994,236.713L18.696,242.703L20.293,243.401L47.907,255.473L47.892,255.465C47.386,255.198 46.947,254.8 46.593,254.279C46.288,253.83 46.046,253.29 45.88,252.664C45.755,252.194 45.672,251.677 45.637,251.113C45.631,251.01 45.626,250.906 45.623,250.802L45.623,250.783C45.593,249.698 45.737,248.551 46.027,247.404C46.311,246.279 46.735,245.153 47.27,244.084ZM112.53,266.458C112.271,263.958 111.218,262.249 109.692,261.489C109.565,261.426 109.435,261.369 109.302,261.319L109.236,261.29L108.941,261.159C108.94,261.158 108.939,261.157 108.939,261.157C108.933,261.155 108.926,261.152 108.92,261.15L62.565,240.689L59.846,239.341L62.568,240.696C62.091,240.459 61.558,240.336 60.982,240.336C60.52,240.336 60.03,240.415 59.521,240.577L59.531,240.582C58.937,240.769 58.319,241.06 57.684,241.478C57.683,241.479 57.682,241.479 57.681,241.48C57.676,241.483 57.671,241.487 57.667,241.49L57.637,241.511L57.636,241.51C57.246,241.771 56.867,242.065 56.501,242.389L56.507,242.393C55.479,243.302 54.553,244.442 53.779,245.707L53.774,245.704C53.522,246.115 53.288,246.539 53.071,246.972C52.536,248.041 52.113,249.167 51.828,250.292C51.8,250.405 51.773,250.518 51.747,250.631L51.75,250.633C51.497,251.747 51.38,252.854 51.433,253.9C51.434,253.901 51.434,253.902 51.434,253.903C51.434,253.91 51.434,253.918 51.435,253.925C51.435,253.93 51.435,253.936 51.436,253.942L51.436,253.95L51.439,254.001C51.572,256.129 52.38,257.607 53.593,258.301L53.758,258.383L60.634,262.206L63.703,263.91L88.096,277.467L91.483,279.349L98.424,283.207C97.003,282.314 96.063,280.518 95.905,277.971C95.89,277.724 95.882,277.473 95.882,277.221C95.881,276.12 96.02,274.975 96.28,273.823C96.327,273.596 96.38,273.371 96.439,273.148C96.38,273.372 96.327,273.598 96.28,273.827L104.102,277.719L104.08,277.709C104.381,277.877 104.718,277.958 105.081,277.958C107.37,277.959 110.684,274.754 112.37,270.175C112.515,269.327 112.592,268.489 112.591,267.676C112.594,270.798 111.466,274.285 109.659,277.232C111.462,274.295 112.589,270.819 112.592,267.705C112.592,267.441 112.585,267.179 112.569,266.921C112.559,266.764 112.546,266.609 112.53,266.458ZM108.915,261.195C108.539,261.095 108.141,261.044 107.726,261.044C106.483,261.044 105.082,261.504 103.62,262.472C105.082,261.504 106.483,261.043 107.726,261.043C108.141,261.043 108.538,261.095 108.915,261.195ZM103.169,262.786C100.328,264.86 97.98,268.402 96.77,272.09C96.731,272.198 96.693,272.307 96.657,272.416C97.318,270.277 98.37,268.172 99.684,266.361C100.707,264.952 101.889,263.72 103.169,262.786Z"/>
            </g>
            <g transform="matrix(2.09683,3.60061,-3.60061,2.09683,1525.59,-55.4188)">
                <path d="M109.302,261.32L109.302,261.319L109.236,261.29L109.302,261.32Z" style="fill-rule:nonzero;"/>
            </g>
            <g transform="matrix(2.09683,3.60061,-3.60061,2.09683,1525.59,-55.4188)">
                <path d="M76.766,246.957L62.565,240.689L59.846,239.341L59.832,239.334L62.565,240.689L76.766,246.957ZM16.121,214.933L16.13,214.914L16.131,214.914L16.121,214.933Z" style="fill-rule:nonzero;"/>
            </g>
            <g transform="matrix(2.09683,3.60061,-3.60061,2.09683,1525.59,-55.4188)">
                <path d="M112.568,266.926C112.398,264.171 111.311,262.295 109.692,261.489C108.072,260.683 105.921,260.948 103.62,262.472C99.018,265.522 95.564,272.462 95.905,277.971C96.075,280.726 97.162,282.602 98.782,283.408C100.401,284.214 102.553,283.95 104.854,282.425C109.455,279.375 112.909,272.435 112.568,266.926Z" style="fill-rule:nonzero;"/>
            </g>
            <g transform="matrix(2.09683,3.60061,-3.60061,2.09683,1525.59,-55.4188)">
                <path d="M15.402,214.551L16.131,214.914L16.121,214.933L56.725,237.794L62.565,240.689L108.941,261.159C101.521,258.311 94.637,267.666 94.637,267.666L0.346,220.722C0.346,220.722 7.712,210.724 15.402,214.551Z" style="fill-rule:nonzero;"/>
            </g>
            <g transform="matrix(2.09683,3.60061,-3.60061,2.09683,1525.59,-55.4188)">
                <path d="M100.748,283.853C100.034,283.853 99.372,283.702 98.782,283.408C97.162,282.602 96.075,280.726 95.905,277.971C95.89,277.724 95.882,277.473 95.882,277.221C95.881,276.12 96.02,274.975 96.28,273.823L96.28,273.827L104.08,277.709C104.381,277.877 104.718,277.958 105.081,277.958C107.37,277.959 110.684,274.754 112.37,270.175C112.557,269.083 112.63,268.007 112.571,266.979C112.585,267.209 112.591,267.442 112.591,267.676C112.596,273.051 109.248,279.512 104.854,282.425C103.392,283.394 101.991,283.854 100.748,283.853ZM102.71,275.046L96.77,272.09C96.731,272.198 96.693,272.307 96.657,272.416C97.893,268.418 100.491,264.546 103.62,262.472C105.082,261.504 106.483,261.043 107.726,261.043C108.44,261.043 109.101,261.195 109.692,261.489C109.101,261.195 108.44,261.044 107.726,261.044C106.483,261.044 105.082,261.504 103.62,262.472C100.577,264.489 98.043,268.209 96.77,272.09L102.71,275.046ZM112.571,266.968C112.571,266.963 112.57,266.958 112.57,266.953C112.57,266.958 112.571,266.963 112.571,266.968Z" style="fill-rule:nonzero;"/>
            </g>
            <g transform="matrix(2.09683,3.60061,-3.60061,2.09683,1525.59,-55.4188)">
                <path d="M112.571,266.979L112.571,266.968L112.571,266.979Z" style="fill-rule:nonzero;"/>
            </g>
            <g transform="matrix(2.09683,3.60061,-3.60061,2.09683,1525.59,-55.4188)">
                <path d="M112.57,266.953C112.569,266.944 112.569,266.935 112.568,266.926C112.569,266.935 112.569,266.944 112.57,266.953Z" style="fill-rule:nonzero;"/>
            </g>
            <g transform="matrix(2.09683,3.60061,-3.60061,2.09683,1525.59,-55.4188)">
                <path d="M111.615,263.371C111.125,262.512 110.47,261.876 109.692,261.489C110.47,261.876 111.125,262.512 111.615,263.371Z" style="fill-rule:nonzero;"/>
            </g>
            <g transform="matrix(2.09683,3.60061,-3.60061,2.09683,1525.59,-55.4188)">
                <path d="M112.53,266.458C112.529,266.45 112.528,266.443 112.527,266.436C112.399,265.221 112.083,264.193 111.615,263.371C112.085,264.198 112.403,265.233 112.53,266.458Z" style="fill-rule:nonzero;"/>
            </g>
            <g transform="matrix(2.09683,3.60061,-3.60061,2.09683,1525.59,-55.4188)">
                <path d="M112.568,266.926C112.558,266.759 112.544,266.596 112.527,266.436C112.528,266.443 112.529,266.45 112.53,266.458C112.546,266.611 112.558,266.767 112.568,266.926Z" style="fill-rule:nonzero;"/>
            </g>
            <g transform="matrix(2.09683,3.60061,-3.60061,2.09683,1525.59,-55.4188)">
                <path d="M104.102,277.719L96.28,273.827C96.402,273.23 96.568,272.652 96.77,272.09L102.71,275.046C102.844,275.94 103.17,277.187 104.102,277.719Z" style="fill-rule:nonzero;"/>
            </g>
            <g transform="matrix(2.09683,3.60061,-3.60061,2.09683,1525.59,-55.4188)">
                <path d="M56.73,237.792C55.427,237.163 53.705,237.382 51.865,238.602C48.151,241.064 45.362,246.665 45.638,251.113C45.773,253.298 46.623,254.796 47.892,255.465L47.952,255.499L53.761,258.39C52.454,257.741 51.578,256.226 51.439,254.001C51.164,249.553 53.952,243.952 57.667,241.49C59.525,240.259 61.261,240.045 62.568,240.696L56.766,237.808L56.73,237.792Z" style="fill:rgb(249,226,15);fill-rule:nonzero;"/>
            </g>
            <g transform="matrix(2.09683,3.60061,-3.60061,2.09683,1525.59,-55.4188)">
                <path d="M53.779,245.707L53.774,245.704C54.546,244.44 55.473,243.299 56.501,242.389L56.507,242.393C55.479,243.302 54.553,244.442 53.779,245.707Z" style="fill-rule:nonzero;"/>
            </g>
            <g transform="matrix(2.09683,3.60061,-3.60061,2.09683,1525.59,-55.4188)">
                <path d="M53.774,245.704L47.978,242.819C48.751,241.554 49.677,240.414 50.705,239.505L56.501,242.389C55.473,243.299 54.546,244.44 53.774,245.704Z" style="fill:rgb(249,226,15);fill-rule:nonzero;"/>
            </g>
            <g transform="matrix(2.09683,3.60061,-3.60061,2.09683,1525.59,-55.4188)">
                <path d="M57.637,241.511L57.636,241.51C57.646,241.503 57.656,241.496 57.667,241.49C57.671,241.487 57.676,241.483 57.681,241.48C57.676,241.483 57.671,241.487 57.667,241.49L57.637,241.511ZM57.684,241.478C58.315,241.063 58.931,240.764 59.521,240.577L59.531,240.582C58.937,240.769 58.319,241.06 57.684,241.478Z" style="fill-rule:nonzero;"/>
            </g>
            <g transform="matrix(2.09683,3.60061,-3.60061,2.09683,1525.59,-55.4188)">
                <path d="M53.733,258.376L50.824,256.93L47.952,255.499L47.907,255.473L47.908,255.474L47.952,255.499L53.733,258.376Z" style="fill-rule:nonzero;"/>
            </g>
            <g transform="matrix(2.09683,3.60061,-3.60061,2.09683,1525.59,-55.4188)">
                <path d="M47.908,255.474L47.907,255.473L47.892,255.465C47.386,255.198 46.947,254.8 46.593,254.279C46.947,254.8 47.386,255.198 47.892,255.465L47.908,255.474ZM51.436,253.95L51.436,253.942L51.436,253.95ZM51.435,253.925C51.434,253.918 51.434,253.91 51.434,253.903C51.434,253.91 51.434,253.918 51.435,253.925ZM51.433,253.9C51.38,252.854 51.493,251.746 51.747,250.631L51.75,250.633C51.497,251.747 51.38,252.854 51.433,253.9ZM45.88,252.664C45.755,252.194 45.672,251.677 45.637,251.113C45.631,251.01 45.626,250.906 45.623,250.802C45.626,250.906 45.631,251.01 45.638,251.113C45.672,251.677 45.755,252.194 45.88,252.664ZM45.623,250.784L45.623,250.783L45.623,250.784Z" style="fill-rule:nonzero;"/>
            </g>
            <g transform="matrix(2.09683,3.60061,-3.60061,2.09683,1525.59,-55.4188)">
                <path d="M53.761,258.39L50.824,256.93L53.733,258.376C53.742,258.381 53.751,258.387 53.761,258.39Z" style="fill-rule:nonzero;"/>
            </g>
            <g transform="matrix(2.09683,3.60061,-3.60061,2.09683,1525.59,-55.4188)">
                <path d="M53.733,258.376L47.952,255.499L47.908,255.474L47.892,255.465C47.386,255.198 46.947,254.8 46.593,254.279C46.288,253.83 46.046,253.29 45.88,252.664C45.755,252.194 45.672,251.677 45.638,251.113C45.631,251.01 45.626,250.906 45.623,250.802L45.623,250.783C45.596,249.805 45.714,248.778 45.949,247.745L51.747,250.631C51.493,251.746 51.38,252.854 51.433,253.9C51.434,253.901 51.434,253.902 51.434,253.903C51.434,253.91 51.434,253.918 51.435,253.925C51.435,253.93 51.435,253.936 51.436,253.942L51.436,253.95C51.437,253.967 51.438,253.984 51.439,254.001C51.577,256.21 52.442,257.719 53.733,258.376Z" style="fill:rgb(249,226,15);fill-rule:nonzero;"/>
            </g>
        </g>
    </g>
</svg>
