<?xml version="1.0" encoding="UTF-8" standalone="no"?>
<!DOCTYPE svg PUBLIC "-//W3C//DTD SVG 1.1//EN" "http://www.w3.org/Graphics/SVG/1.1/DTD/svg11.dtd">
<svg width="100%" height="100%" viewBox="0 0 62 62" version="1.1" xmlns="http://www.w3.org/2000/svg" xmlns:xlink="http://www.w3.org/1999/xlink" xml:space="preserve" xmlns:serif="http://www.serif.com/" style="fill-rule:evenodd;clip-rule:evenodd;stroke-linecap:round;stroke-linejoin:round;stroke-miterlimit:1.5;">
    <g transform="matrix(1,0,0,1,-97,-132.5)">
        <g transform="matrix(1,0,0,1,37,10)">
            <g transform="matrix(1,0,0,1,17,-52.5)">
                <circle cx="74" cy="206" r="30" style="fill:none;stroke:rgb(52,186,144);stroke-width:2px;"/>
            </g>
        </g>
        <g transform="matrix(1,0,0,1,37,10)">
            <g transform="matrix(0.210997,0,0,0.210997,74.6202,137.62)">
                <path d="M149.241,68.32L149.241,68.318C149.241,59.875 143.391,52.508 135.249,50.532L135.25,50.52L135.47,48L137.53,25.015L148.057,10.561C149.195,8.998 148.851,6.81 147.288,5.671C145.725,4.532 143.536,4.878 142.398,6.44L131.301,21.676C128.592,25.394 124.222,27.614 119.611,27.614L89.811,27.614C87.878,27.614 86.311,29.181 86.311,31.114C86.311,33.047 87.878,34.614 89.811,34.614L119.612,34.614C123.238,34.614 126.759,33.68 129.871,31.988L129.871,31.99L128.381,48.72L127.581,57.66L125.751,78.09C125.681,78.72 125.611,79.36 125.541,80.02L130.921,80.02C131.491,80.02 132.051,79.96 132.591,79.86C132.631,79.51 132.671,79.16 132.711,78.81L134.381,60.21L134.61,57.624C139.105,59.175 142.243,63.458 142.243,68.319L142.24,71.469C142.105,77.159 137.748,81.818 132.189,82.439C132.114,82.448 132.038,82.455 131.963,82.463C131.62,82.494 131.275,82.515 130.924,82.515L86.107,82.515C82.691,82.515 79.912,85.294 79.912,88.71L79.912,104.571C79.912,107.987 82.691,110.766 86.107,110.766L126.259,110.766L126.259,110.769C126.359,111.609 126.469,112.439 126.589,113.269C126.649,113.719 126.709,114.169 126.779,114.619L126.779,114.62L33.23,114.62L33.23,114.619C34.88,103.279 35.39,91.269 34.58,81.429C34.51,80.58 34.43,79.751 34.34,78.932L114.034,78.932C117.45,78.932 120.229,76.153 120.229,72.737L120.229,56.877C120.229,53.461 117.45,50.682 114.034,50.682L31.8,50.682L31.8,50.68L29.08,50.68C28.307,50.68 27.555,50.603 26.827,50.457C21.745,49.428 17.887,44.984 17.761,39.633L17.758,36.485C17.758,32.696 19.601,29.252 22.659,27.158L22.659,27.16L22.929,30.16L24.419,46.83C25.769,47.69 27.369,48.18 29.079,48.18L31.579,48.18L30.129,31.99L30.129,31.988C33.241,33.68 36.762,34.614 40.388,34.614L70.189,34.614C72.122,34.614 73.689,33.047 73.689,31.114C73.689,29.181 72.122,27.614 70.189,27.614L40.389,27.614C35.777,27.614 31.407,25.394 28.699,21.676L17.602,6.44C16.465,4.877 14.274,4.533 12.712,5.671C11.149,6.809 10.805,8.998 11.943,10.561L19.469,20.895C14.059,24.217 10.758,30.038 10.758,36.485L10.758,36.489L10.761,39.223C10.759,39.269 10.758,39.316 10.758,39.363C10.758,39.479 10.759,39.595 10.761,39.71L10.781,59.274C10.774,64.523 12.812,69.459 16.521,73.173C19.479,76.135 23.222,78.015 27.278,78.663L27.279,78.68L27.299,78.91C27.389,79.67 27.469,80.45 27.539,81.24C28.679,93.8 27.489,110.24 24.409,123.94C22.889,130.71 22.109,137.39 22.109,143.78L22.109,151.5C22.109,153.43 23.679,155 25.609,155C27.549,155 29.109,153.43 29.109,151.5L29.109,143.78C29.109,141.391 29.229,138.942 29.469,136.473L38.494,136.473C45.799,136.473 52.768,138.771 58.6,143.081L69.488,151.425C72.596,153.807 76.316,154.996 80.036,154.996C83.775,154.996 87.515,153.794 90.63,151.39L101.351,143.118C107.232,138.771 114.201,136.473 121.505,136.473L130.53,136.473C130.77,138.942 130.89,141.391 130.89,143.78L130.89,151.5C130.89,153.43 132.45,155 134.39,155C136.32,155 137.89,153.43 137.89,151.5L137.89,143.78C137.89,137.39 137.11,130.71 135.59,123.94C134.8,120.41 134.13,116.69 133.6,112.9C133.48,112.08 133.37,111.25 133.27,110.42L133.27,110.416C137.115,109.69 140.653,107.836 143.478,105.007C147.187,101.293 149.226,96.357 149.218,91.116L149.239,71.546C149.241,71.429 149.242,71.312 149.242,71.195C149.242,71.148 149.241,71.1 149.239,71.053L149.242,68.321C149.241,68.322 149.241,68.321 149.241,68.32ZM25.162,68.736L25.162,70.782C23.809,70.162 22.558,69.312 21.474,68.227C19.088,65.837 17.776,62.661 17.781,59.275L17.776,53.77C20.891,56.219 24.817,57.681 29.077,57.681L113.229,57.681L113.229,71.932L108.125,71.932L108.125,68.735C108.125,67.354 107.006,66.235 105.625,66.235C104.244,66.235 103.125,67.354 103.125,68.735L103.125,71.932L98.38,71.932L98.38,63.243C98.38,61.862 97.261,60.743 95.88,60.743C94.499,60.743 93.38,61.862 93.38,63.243L93.38,71.932L88.634,71.932L88.634,68.735C88.634,67.354 87.515,66.235 86.134,66.235C84.753,66.235 83.634,67.354 83.634,68.735L83.634,71.932L78.89,71.932L78.89,63.243C78.89,61.862 77.771,60.743 76.39,60.743C75.009,60.743 73.89,61.862 73.89,63.243L73.89,71.932L69.145,71.932L69.145,68.735C69.145,67.354 68.026,66.235 66.645,66.235C65.264,66.235 64.145,67.354 64.145,68.735L64.145,71.932L59.399,71.932L59.399,63.243C59.399,61.862 58.28,60.743 56.899,60.743C55.518,60.743 54.399,61.862 54.399,63.243L54.399,71.932L49.654,71.932L49.654,68.735C49.654,67.354 48.535,66.235 47.154,66.235C45.773,66.235 44.654,67.354 44.654,68.735L44.654,71.932L39.908,71.932L39.908,63.243C39.908,61.862 38.789,60.743 37.408,60.743C36.027,60.743 34.908,61.862 34.908,63.243L34.908,71.932L30.414,71.932C30.329,71.932 30.247,71.921 30.163,71.92L30.163,68.735C30.163,67.354 29.044,66.235 27.663,66.235C26.282,66.235 25.162,67.355 25.162,68.736ZM97.133,137.532L86.355,145.848C82.647,148.708 77.464,148.719 73.747,145.869L62.81,137.489C55.717,132.245 47.309,129.473 38.495,129.473L30.44,129.473C30.44,129.472 30.44,129.471 30.441,129.47C30.671,128.14 30.941,126.81 31.241,125.47C31.521,124.21 31.791,122.921 32.041,121.621L127.962,121.621C128.212,122.921 128.482,124.21 128.762,125.47C129.062,126.81 129.332,128.14 129.562,129.47C129.562,129.471 129.562,129.472 129.563,129.473L121.507,129.473C112.691,129.474 104.283,132.245 97.133,137.532ZM142.218,91.118C142.223,94.496 140.911,97.672 138.525,100.061C137.442,101.145 136.191,101.996 134.838,102.615L134.838,100.568C134.838,99.187 133.719,98.068 132.338,98.068C130.957,98.068 129.838,99.187 129.838,100.568L129.838,103.754C129.754,103.756 129.671,103.766 129.586,103.766L125.092,103.766L125.092,95.076C125.092,93.695 123.973,92.576 122.592,92.576C121.211,92.576 120.092,93.695 120.092,95.076L120.092,103.766L115.347,103.766L115.347,100.568C115.347,99.187 114.228,98.068 112.847,98.068C111.466,98.068 110.347,99.187 110.347,100.568L110.347,103.766L105.602,103.766L105.602,95.076C105.602,93.695 104.483,92.576 103.102,92.576C101.721,92.576 100.602,93.695 100.602,95.076L100.602,103.766L95.856,103.766L95.856,100.568C95.856,99.187 94.737,98.068 93.356,98.068C91.975,98.068 90.856,99.187 90.856,100.568L90.856,103.766L86.913,103.766L86.913,89.516L130.923,89.516C135.184,89.516 139.11,88.054 142.225,85.605L142.218,91.118Z" style="fill:rgb(52,186,144);fill-rule:nonzero;"/>
            </g>
        </g>
    </g>
</svg>
