<?xml version="1.0" encoding="UTF-8" standalone="no"?>
<!DOCTYPE svg PUBLIC "-//W3C//DTD SVG 1.1//EN" "http://www.w3.org/Graphics/SVG/1.1/DTD/svg11.dtd">
<svg width="100%" height="100%" viewBox="0 0 62 62" version="1.1" xmlns="http://www.w3.org/2000/svg" xmlns:xlink="http://www.w3.org/1999/xlink" xml:space="preserve" xmlns:serif="http://www.serif.com/" style="fill-rule:evenodd;clip-rule:evenodd;stroke-linecap:round;stroke-linejoin:round;stroke-miterlimit:1.5;">
    <g transform="matrix(1,0,0,1,-169,-59)">
        <g transform="matrix(1,0,0,1,37,10)">
            <g transform="matrix(1,0,0,1,89,-126)">
                <circle cx="74" cy="206" r="30" style="fill:none;stroke:rgb(30,160,172);stroke-width:2px;"/>
            </g>
        </g>
        <g transform="matrix(1,0,0,1,37,10)">
            <g transform="matrix(1,0,0,1,-0.953713,0.875)">
                <g transform="matrix(0.345088,0,0,0.345088,146.617,61.8822)">
                    <path d="M10.781,79.062C10,79.062 9.219,78.906 8.594,78.437L2.812,75C0.781,73.75 0.156,71.25 1.25,69.218L16.562,42.187C16.874,41.719 17.187,41.406 17.656,41.406C18.124,41.25 18.593,41.406 19.062,41.562L29.062,47.344C29.843,47.812 30.156,48.906 29.687,49.844L14.531,76.875C13.906,77.812 12.968,78.593 11.875,78.906C11.562,78.906 11.093,79.062 10.781,79.062L10.781,79.062ZM18.75,45.468L4.375,70.937C4.219,71.25 4.375,71.562 4.531,71.718L10.312,75.156C10.469,75.312 10.625,75.312 10.781,75.156C10.937,75.156 11.094,75 11.094,74.843L25.469,49.374L18.75,45.468Z" style="fill:rgb(30,160,172);fill-rule:nonzero;"/>
                </g>
                <g transform="matrix(0.345088,0,0,0.345088,146.66,61.6676)">
                    <path d="M26.562,49.688C26.25,49.688 25.937,49.688 25.625,49.532C24.687,49.063 24.375,47.969 24.843,47.032L29.218,39.063L25.781,37.032L20.937,44.688C20.468,45.469 19.218,45.782 18.437,45.313C17.656,44.844 17.343,43.594 17.812,42.813L23.281,34.063C23.906,32.969 25.312,32.657 26.406,33.282L31.875,36.563C32.968,37.188 33.437,38.594 32.812,39.688L28.125,48.75C27.812,49.375 27.187,49.688 26.562,49.688L26.562,49.688Z" style="fill:rgb(30,160,172);fill-rule:nonzero;"/>
                </g>
                <g transform="matrix(0.345088,0,0,0.345088,146.674,61.7412)">
                    <path d="M13.594,100C13.282,100 12.969,100 12.813,99.844C11.719,99.688 10.625,98.906 10,97.969L6.25,92.344C5,90.469 5.469,87.813 7.344,86.563L32.969,69.063C33.438,68.75 33.907,68.75 34.375,68.75C34.844,68.906 35.313,69.063 35.469,69.531L41.875,79.219C42.5,80 42.188,81.094 41.406,81.719L15.937,99.219C15.312,99.688 14.375,100 13.594,100L13.594,100ZM33.594,72.969L9.532,89.531C9.22,89.687 9.22,90.156 9.376,90.468L13.126,96.093C13.282,96.25 13.438,96.406 13.595,96.406C13.751,96.406 13.907,96.406 14.063,96.25L38.125,79.531L33.594,72.969Z" style="fill:rgb(30,160,172);fill-rule:nonzero;"/>
                </g>
                <g transform="matrix(0.345088,0,0,0.345088,146.802,61.8212)">
                    <path d="M39.531,80.312C38.906,80.312 38.437,80 38.125,79.531C37.5,78.75 37.656,77.656 38.594,77.031L45.937,71.718L43.75,68.593L35.937,73.437C35.156,73.906 33.906,73.75 33.437,72.812C32.969,72.031 33.125,70.781 34.062,70.312L42.812,64.843C43.906,64.218 45.312,64.531 45.937,65.468L49.531,70.781C50.312,71.875 50,73.281 48.906,74.062L40.625,79.999C40.156,80.312 39.844,80.312 39.531,80.312L39.531,80.312Z" style="fill:rgb(30,160,172);fill-rule:nonzero;"/>
                </g>
                <g transform="matrix(0.345088,0,0,0.345088,146.799,61.9844)">
                    <path d="M82.188,79.844C78.907,79.844 75.782,78.906 72.813,77.188C68.438,74.375 64.376,71.407 60.625,68.438C58.594,66.719 55.938,66.407 53.594,67.5L46.719,70.625C45.781,71.094 44.688,70.625 44.375,69.688C43.906,68.75 44.375,67.657 45.313,67.344L52.188,64.219C55.781,62.656 60,63.125 62.969,65.781C66.406,68.75 70.469,71.563 74.688,74.219C78.281,76.406 82.656,77.031 86.563,75.625C90.313,74.219 93.281,71.406 94.688,67.656L94.844,67.188C96.25,62.969 95.469,58.438 92.5,54.844C89.531,51.094 84.844,49.219 80.156,49.844L58.125,52.5C52.969,53.125 48.281,49.375 47.5,44.375C47.031,41.562 47.969,38.75 49.687,36.719C51.562,34.531 54.219,33.437 57.031,33.437L64.062,33.437C67.969,33.437 71.562,32.031 74.062,29.687C75.312,28.437 76.406,26.875 77.031,25.156C78.125,22.344 77.969,19.062 76.406,16.094C74.375,12.031 70.937,8.75 65.937,6.094C61.875,3.906 57.187,3.438 52.812,4.844C48.281,6.25 44.531,9.375 42.187,13.594L29.687,37.188C29.219,38.125 28.125,38.438 27.187,37.969C26.25,37.5 25.937,36.406 26.406,35.469L39.218,11.407C41.874,6.407 46.406,2.657 51.874,0.938C57.187,-0.625 62.968,-0.156 67.812,2.5C73.437,5.469 77.343,9.375 79.843,14.062C81.874,17.969 82.031,22.344 80.624,26.093C79.687,28.281 78.437,30.156 76.718,31.718C73.437,34.843 69.062,36.562 64.218,36.562L57.187,36.562C55.468,36.562 53.749,37.344 52.656,38.593C51.562,39.843 50.937,41.718 51.249,43.437C51.718,46.718 54.687,48.906 57.812,48.593L79.843,45.937C85.78,45.156 91.562,47.656 95.468,52.343C99.062,56.875 100.155,62.812 98.437,68.125L98.281,68.593C96.562,73.437 92.812,77.187 87.969,78.905C86.094,79.53 84.062,79.843 82.187,79.843L82.188,79.844Z" style="fill:rgb(30,160,172);fill-rule:nonzero;"/>
                </g>
            </g>
        </g>
    </g>
</svg>
