<?xml version="1.0" encoding="UTF-8" standalone="no"?>
<!DOCTYPE svg PUBLIC "-//W3C//DTD SVG 1.1//EN" "http://www.w3.org/Graphics/SVG/1.1/DTD/svg11.dtd">
<svg width="100%" height="100%" viewBox="0 0 62 62" version="1.1" xmlns="http://www.w3.org/2000/svg" xmlns:xlink="http://www.w3.org/1999/xlink" xml:space="preserve" xmlns:serif="http://www.serif.com/" style="fill-rule:evenodd;clip-rule:evenodd;stroke-linecap:round;stroke-linejoin:round;stroke-miterlimit:1.5;">
    <g transform="matrix(1,0,0,1,-97.5,-59)">
        <g transform="matrix(1,0,0,1,37,10)">
            <g transform="matrix(1,0,0,1,17.5,-126)">
                <circle cx="74" cy="206" r="30" style="fill:none;stroke:rgb(52,186,144);stroke-width:2px;"/>
            </g>
        </g>
        <g transform="matrix(1,0,0,1,37,10)">
            <g transform="matrix(0.432229,0,0,0.432229,69.8899,58.3868)">
                <path d="M50.781,49.289C50.781,51.602 52.66,53.48 54.972,53.48C57.285,53.48 59.164,51.602 59.164,49.289C59.164,46.977 57.285,45.098 54.972,45.098C52.66,45.098 50.781,46.977 50.781,49.289ZM54.969,48.223C55.554,48.223 56.035,48.699 56.035,49.289C56.035,49.875 55.558,50.355 54.969,50.355C54.383,50.355 53.902,49.879 53.902,49.289C53.902,48.703 54.379,48.223 54.969,48.223ZM32.386,27.731L35.148,27.731C36.011,27.731 36.711,28.43 36.711,29.293C36.711,30.156 36.011,30.856 35.148,30.856L32.386,30.856C31.523,30.856 30.824,30.156 30.824,29.293C30.824,28.43 31.523,27.731 32.386,27.731ZM36.711,38.461C36.711,39.324 36.011,40.023 35.148,40.023L32.386,40.023C31.523,40.023 30.824,39.324 30.824,38.461C30.824,37.597 31.523,36.898 32.386,36.898L35.148,36.898C36.011,36.898 36.711,37.597 36.711,38.461ZM36.711,47.633C36.711,48.496 36.011,49.195 35.148,49.195L32.386,49.195C31.523,49.195 30.824,48.496 30.824,47.633C30.824,46.769 31.523,46.07 32.386,46.07L35.148,46.07C36.011,46.07 36.711,46.769 36.711,47.633ZM36.711,56.804C36.711,57.668 36.011,58.367 35.148,58.367L32.386,58.367C31.523,58.367 30.824,57.668 30.824,56.804C30.824,55.941 31.523,55.242 32.386,55.242L35.148,55.242C36.011,55.242 36.711,55.941 36.711,56.804ZM36.711,65.976C36.711,66.84 36.011,67.539 35.148,67.539L32.386,67.539C31.523,67.539 30.824,66.84 30.824,65.976C30.824,65.113 31.523,64.414 32.386,64.414L35.148,64.414C36.011,64.414 36.711,65.113 36.711,65.976ZM90.766,34.546L90.766,32.988C90.766,30.246 88.649,28.011 85.965,27.777L85.965,20.125C85.965,11.515 78.961,4.512 70.352,4.512L54.352,4.512C46.461,4.512 39.809,10.535 38.856,18.219L33.743,18.219C28.664,18.219 24.539,22.347 24.539,27.422L24.539,76.606C24.539,82.465 29.258,87.231 35.094,87.329C32.946,90.372 29.411,92.372 25.411,92.372C18.88,92.372 13.563,87.055 13.563,80.524L13.563,70.547C16.067,70.527 18.098,68.488 18.098,65.981C18.098,65.09 17.836,64.242 17.379,63.524C20.223,61.406 22.438,57.266 22.438,50.305C22.438,44.551 17.754,39.867 12,39.867C6.246,39.867 1.562,44.55 1.562,50.305C1.562,57.266 3.781,61.407 6.621,63.524C6.16,64.242 5.902,65.094 5.902,65.981C5.902,68.488 7.933,70.528 10.437,70.547L10.437,80.524C10.437,88.781 17.156,95.497 25.41,95.497C31.211,95.497 36.238,92.176 38.726,87.34L55.937,87.34C61.855,87.34 66.671,82.524 66.671,76.606L66.671,62.239C67.972,56.548 67.972,50.774 66.671,45.067L66.671,35.263C66.671,30.478 63.487,26.349 58.983,25.013C57.921,21.107 54.351,18.22 50.108,18.22L42.019,18.22C42.948,12.259 48.171,7.638 54.347,7.638L70.347,7.638C77.233,7.638 82.835,13.239 82.835,20.126L82.835,27.778C80.151,28.012 78.034,30.247 78.034,32.989L78.034,34.548C73.487,36.872 70.362,41.594 70.362,47.044C70.362,54.782 76.659,61.079 84.397,61.079C92.135,61.079 98.432,54.782 98.432,47.044C98.432,41.594 95.307,36.876 90.76,34.548L90.766,34.546ZM4.688,50.296C4.688,46.265 7.969,42.984 12,42.984C16.031,42.984 19.313,46.265 19.313,50.296C19.313,56.339 17.41,60.491 14.219,61.773L14.211,61.773C13.531,62.047 12.793,62.195 12,62.195C11.207,62.195 10.469,62.047 9.789,61.773L9.781,61.773C6.59,60.492 4.688,56.344 4.688,50.296L4.688,50.296ZM9.027,65.976C9.027,65.578 9.199,65.211 9.473,64.945C10.317,65.195 11.168,65.32 12,65.32C12.828,65.32 13.68,65.195 14.527,64.945C14.805,65.215 14.973,65.578 14.973,65.976C14.973,66.773 14.324,67.422 13.527,67.422L10.473,67.422C9.676,67.422 9.027,66.773 9.027,65.976L9.027,65.976ZM35.269,84.21C31.078,84.21 27.672,80.804 27.664,76.617C29.289,78.05 31.414,78.929 33.742,78.929L37.258,78.929L37.258,80.523C37.258,81.812 37.043,83.05 36.66,84.214L35.269,84.214L35.269,84.21ZM55.937,84.21L39.906,84.21C40.207,83.027 40.387,81.796 40.387,80.519L40.387,78.925L50.114,78.925C55.192,78.925 59.317,74.796 59.317,69.722L59.317,60.003C60.899,60.714 62.328,61.644 63.547,62.773L63.547,76.605C63.547,80.8 60.133,84.214 55.938,84.214L55.937,84.21ZM63.719,46.167C64.648,50.48 64.773,54.828 64.09,59.144C60.801,56.722 56.66,55.363 52.164,55.277C50.914,55.254 49.781,54.347 49.465,53.121C48.82,50.621 48.824,47.984 49.48,45.488C49.816,44.215 51.047,43.316 52.437,43.316C52.484,43.316 52.531,43.316 52.574,43.32C57.633,43.539 60.918,44.371 63.715,46.172L63.719,46.167ZM63.547,35.257L63.547,42.5C62.266,41.875 60.867,41.394 59.316,41.031L59.316,28.469C61.844,29.727 63.547,32.316 63.547,35.258L63.547,35.257ZM56.191,27.418L56.191,40.48C55.105,40.347 53.961,40.245 52.711,40.19C49.836,40.081 47.176,41.956 46.461,44.687C45.672,47.694 45.664,50.878 46.441,53.894C47.109,56.495 49.441,58.347 52.105,58.397C53.508,58.425 54.875,58.62 56.191,58.937L56.191,69.718C56.191,73.069 53.465,75.796 50.113,75.796L33.746,75.796C30.395,75.796 27.668,73.069 27.668,69.718L27.668,27.417C27.668,24.065 30.395,21.338 33.746,21.338L50.113,21.338C53.465,21.338 56.191,24.065 56.191,27.417L56.191,27.418ZM81.164,32.988C81.164,31.812 82.121,30.855 83.297,30.855L85.512,30.855C86.688,30.855 87.645,31.812 87.645,32.988L87.645,33.398C86.602,33.152 85.52,33.007 84.406,33.007C83.289,33.007 82.211,33.152 81.168,33.398L81.168,32.988L81.164,32.988ZM84.403,57.953C78.387,57.953 73.493,53.058 73.493,47.043C73.493,41.027 78.387,36.133 84.403,36.133C90.418,36.133 95.313,41.027 95.313,47.043C95.313,53.058 90.418,57.953 84.403,57.953ZM90.094,39.582C89.508,39.176 88.719,39.219 88.18,39.687L81.555,45.449C80.614,46.269 80.098,47.5 80.172,48.746C80.242,49.926 80.84,50.98 81.805,51.636C82.422,52.054 83.137,52.269 83.871,52.269C84.262,52.269 84.66,52.207 85.051,52.082C86.227,51.707 87.184,50.793 87.614,49.636L90.668,41.406C90.918,40.734 90.68,39.984 90.09,39.578L90.094,39.582ZM84.68,48.551C84.582,48.808 84.36,49.023 84.094,49.105C83.953,49.152 83.746,49.176 83.555,49.047C83.391,48.937 83.301,48.769 83.289,48.555C83.274,48.273 83.391,47.984 83.602,47.801L85.602,46.058L84.68,48.543L84.68,48.551Z" style="fill:rgb(52,186,144);fill-rule:nonzero;"/>
            </g>
        </g>
    </g>
</svg>
