<?xml version="1.0" encoding="UTF-8" standalone="no"?>
<!DOCTYPE svg PUBLIC "-//W3C//DTD SVG 1.1//EN" "http://www.w3.org/Graphics/SVG/1.1/DTD/svg11.dtd">
<svg width="100%" height="100%" viewBox="0 0 62 62" version="1.1" xmlns="http://www.w3.org/2000/svg" xmlns:xlink="http://www.w3.org/1999/xlink" xml:space="preserve" xmlns:serif="http://www.serif.com/" style="fill-rule:evenodd;clip-rule:evenodd;stroke-linecap:round;stroke-linejoin:round;stroke-miterlimit:1.5;">
    <g transform="matrix(1,0,0,1,-24,-132.5)">
        <g transform="matrix(1,0,0,1,37,10)">
            <g transform="matrix(1,0,0,1,-56,-52.5)">
                <circle cx="74" cy="206" r="30" style="fill:none;stroke:rgb(30,160,172);stroke-width:2px;"/>
            </g>
        </g>
        <g transform="matrix(1,0,0,1,37,10)">
            <g transform="matrix(0.302364,0,0,0.302364,-38.7573,109.79)">
                <g transform="matrix(1,0,0,1,161.512,108.385)">
                    <path d="M88.516,41.387C84.122,42.774 80.68,46.215 79.293,50.61C78.602,53.164 79.098,55.52 80.653,57.071C81.793,58.176 83.328,58.778 84.914,58.735C85.657,58.731 86.399,58.625 87.114,58.43C89.293,57.778 91.27,56.578 92.852,54.946C94.485,53.364 95.684,51.387 96.336,49.207C97.028,46.653 96.532,44.301 94.977,42.746C93.422,41.192 91.067,40.7 88.516,41.387L88.516,41.387ZM93.899,48.547L93.899,48.551C92.747,52.075 89.981,54.84 86.454,55.993C84.797,56.442 83.332,56.184 82.434,55.285C81.536,54.387 81.278,52.926 81.727,51.266L81.731,51.27C82.883,47.743 85.649,44.977 89.172,43.825C89.672,43.688 90.188,43.614 90.703,43.61C91.621,43.571 92.52,43.903 93.192,44.532C94.09,45.43 94.348,46.891 93.899,48.551L93.899,48.547Z" style="fill:rgb(30,160,172);fill-rule:nonzero;stroke:rgb(30,160,172);stroke-width:0.99px;stroke-linecap:butt;stroke-miterlimit:2;"/>
                </g>
                <g transform="matrix(1,0,0,1,137.029,104.256)">
                    <path d="M89.082,29.523C92.266,26.441 94.605,22.593 95.879,18.347C97.168,13.581 96.277,9.222 93.437,6.378C90.598,3.538 86.234,2.648 81.468,3.937C77.222,5.21 73.375,7.55 70.292,10.737C67.109,13.819 64.765,17.667 63.496,21.913C62.206,26.679 63.097,31.038 65.937,33.882L65.937,33.878C68.027,35.898 70.843,36.984 73.749,36.898C75.152,36.89 76.55,36.695 77.902,36.324C82.148,35.05 85.996,32.707 89.082,29.523L89.082,29.523ZM67.723,32.093C65.539,29.91 64.887,26.437 65.934,22.57L65.93,22.57C67.086,18.75 69.203,15.293 72.078,12.523C74.848,9.648 78.309,7.531 82.129,6.374C83.262,6.058 84.434,5.894 85.614,5.886C87.852,5.804 90.028,6.624 91.653,8.164C93.836,10.347 94.489,13.82 93.442,17.687C92.286,21.507 90.169,24.968 87.297,27.738C84.528,30.613 81.067,32.73 77.246,33.886C73.379,34.929 69.907,34.277 67.723,32.093L67.723,32.093Z" style="fill:rgb(30,160,172);fill-rule:nonzero;stroke:rgb(30,160,172);stroke-width:0.99px;stroke-linecap:butt;stroke-miterlimit:2;"/>
                </g>
                <g transform="matrix(1,0,0,1,137.134,104.36)">
                    <path d="M88.191,11.629C87.695,11.133 86.894,11.129 86.398,11.621C86.16,11.856 86.027,12.176 86.027,12.508C86.023,12.84 86.156,13.164 86.39,13.399C86.609,14.176 86.57,15 86.281,15.754C85.453,18.317 84,20.633 82.046,22.492C80.191,24.445 77.875,25.899 75.308,26.723C74.558,27.008 73.734,27.051 72.96,26.84C72.464,26.352 71.667,26.36 71.179,26.852C70.691,27.348 70.691,28.141 71.183,28.633C71.886,29.242 72.804,29.551 73.734,29.488C74.488,29.477 75.242,29.367 75.968,29.16C78.957,28.219 81.664,26.539 83.832,24.277C86.093,22.106 87.773,19.402 88.714,16.41C89.293,14.281 89.101,12.539 88.191,11.629L88.191,11.629Z" style="fill:rgb(30,160,172);fill-rule:nonzero;stroke:rgb(30,160,172);stroke-width:0.99px;stroke-linecap:butt;stroke-miterlimit:2;"/>
                </g>
                <g transform="matrix(1,0,0,1,138.25,120.163)">
                    <path d="M50.609,79.293C46.215,80.68 42.773,84.121 41.386,88.516C40.695,91.07 41.191,93.426 42.746,94.977C43.886,96.082 45.422,96.68 47.007,96.641C47.753,96.637 48.492,96.531 49.207,96.336C53.601,94.949 57.043,91.508 58.429,87.113C59.121,84.559 58.625,82.203 57.07,80.652C55.515,79.098 53.16,78.602 50.609,79.293L50.609,79.293ZM55.992,86.453C55.457,88.207 54.484,89.797 53.16,91.067C51.89,92.391 50.304,93.363 48.55,93.899C46.894,94.348 45.429,94.09 44.531,93.191C43.632,92.293 43.379,90.832 43.824,89.172C44.976,85.645 47.742,82.883 51.269,81.731C51.765,81.59 52.281,81.52 52.796,81.516C53.718,81.477 54.613,81.809 55.285,82.438C56.183,83.332 56.441,84.797 55.992,86.453L55.992,86.453Z" style="fill:rgb(30,160,172);fill-rule:nonzero;stroke:rgb(30,160,172);stroke-width:0.99px;stroke-linecap:butt;stroke-miterlimit:2;"/>
                </g>
                <g transform="matrix(1,0,0,1,116.423,104.268)">
                    <path d="M7.098,56.395C8.707,55.918 10.164,55.036 11.332,53.833C12.535,52.665 13.418,51.208 13.899,49.598C14.473,47.883 14.066,45.993 12.84,44.661C11.508,43.434 9.617,43.028 7.902,43.606C6.293,44.082 4.836,44.965 3.668,46.168C2.465,47.336 1.582,48.793 1.106,50.403C0.527,52.118 0.934,54.008 2.16,55.34C3.039,56.192 4.219,56.657 5.441,56.626C6.004,56.622 6.559,56.547 7.098,56.395L7.098,56.395ZM3.945,53.555C3.375,52.856 3.219,51.903 3.539,51.059C3.902,49.879 4.563,48.809 5.453,47.954C6.309,47.063 7.379,46.403 8.559,46.04C8.883,45.95 9.215,45.903 9.551,45.899C10.106,45.875 10.645,46.071 11.055,46.446C11.625,47.145 11.781,48.098 11.461,48.942C11.098,50.122 10.442,51.192 9.547,52.047C8.692,52.938 7.621,53.598 6.441,53.961C5.598,54.282 4.645,54.126 3.945,53.555L3.945,53.555Z" style="fill:rgb(30,160,172);fill-rule:nonzero;stroke:rgb(30,160,172);stroke-width:0.99px;stroke-linecap:butt;stroke-miterlimit:2;"/>
                </g>
                <g transform="matrix(1,0,0,1,126.766,78.2764)">
                    <path d="M47.941,13.93C48.504,13.93 49.058,13.852 49.597,13.703C51.207,13.223 52.664,12.34 53.832,11.137C55.035,9.969 55.918,8.512 56.394,6.907C56.972,5.188 56.566,3.297 55.339,1.969C54.007,0.739 52.117,0.336 50.402,0.91C48.793,1.387 47.336,2.27 46.168,3.473C44.964,4.641 44.082,6.098 43.605,7.707C43.027,9.422 43.433,11.317 44.66,12.645C45.535,13.496 46.718,13.961 47.941,13.93L47.941,13.93ZM46.039,8.364L46.039,8.368C46.402,7.184 47.062,6.114 47.953,5.258C48.808,4.367 49.879,3.707 51.058,3.348C51.383,3.258 51.715,3.211 52.05,3.207C52.605,3.18 53.144,3.375 53.554,3.754C54.125,4.453 54.281,5.403 53.961,6.246C53.597,7.43 52.937,8.496 52.047,9.352C51.191,10.246 50.121,10.903 48.941,11.266C48.097,11.586 47.144,11.43 46.445,10.86C45.875,10.16 45.718,9.211 46.039,8.368L46.039,8.364Z" style="fill:rgb(30,160,172);fill-rule:nonzero;stroke:rgb(30,160,172);stroke-width:0.99px;stroke-linecap:butt;stroke-miterlimit:2;"/>
                </g>
                <g transform="matrix(1,0,0,1,132.911,84.4724)">
                    <path d="M23.215,50.715C25.305,52.731 28.121,53.821 31.028,53.735C32.43,53.723 33.828,53.531 35.18,53.156C39.426,51.883 43.274,49.543 46.356,46.356C49.543,43.274 51.883,39.426 53.157,35.18C54.446,30.414 53.555,26.055 50.715,23.211C47.875,20.371 43.512,19.48 38.746,20.769C34.5,22.043 30.652,24.386 27.57,27.57C24.387,30.652 22.043,34.5 20.769,38.746C19.484,43.512 20.375,47.871 23.215,50.715L23.215,50.715ZM23.207,39.406C24.363,35.586 26.481,32.125 29.356,29.355C32.125,26.48 35.586,24.363 39.407,23.207C40.539,22.89 41.711,22.726 42.891,22.718C45.125,22.636 47.305,23.457 48.93,25C51.114,27.183 51.766,30.656 50.719,34.523C49.563,38.343 47.446,41.8 44.571,44.57C41.801,47.445 38.344,49.562 34.524,50.718C30.657,51.765 27.184,51.113 25,48.929C22.817,46.742 22.161,43.273 23.207,39.406L23.207,39.406Z" style="fill:rgb(30,160,172);fill-rule:nonzero;stroke:rgb(30,160,172);stroke-width:0.99px;stroke-linecap:butt;stroke-miterlimit:2;"/>
                </g>
                <g transform="matrix(1,0,0,1,133.013,84.5776)">
                    <path d="M31.012,46.32C31.766,46.308 32.516,46.199 33.246,45.992C36.235,45.05 38.938,43.371 41.11,41.109C43.371,38.937 45.051,36.234 45.993,33.246C46.567,31.117 46.375,29.371 45.465,28.461C44.973,27.964 44.172,27.961 43.676,28.453C43.438,28.687 43.305,29.007 43.301,29.339C43.301,29.675 43.434,29.996 43.668,30.23C43.887,31.007 43.844,31.832 43.555,32.586C42.731,35.148 41.278,37.468 39.324,39.324C37.469,41.277 35.153,42.73 32.586,43.554C31.836,43.843 31.012,43.883 30.235,43.672C29.738,43.187 28.945,43.191 28.457,43.687C27.969,44.179 27.969,44.976 28.461,45.465C29.164,46.078 30.082,46.382 31.012,46.32L31.012,46.32Z" style="fill:rgb(30,160,172);fill-rule:nonzero;stroke:rgb(30,160,172);stroke-width:0.99px;stroke-linecap:butt;stroke-miterlimit:2;"/>
                </g>
                <g transform="matrix(1,0,0,1,136.935,90.5747)">
                    <path d="M26.844,71.176C26.606,71.41 26.469,71.731 26.469,72.063C26.469,72.399 26.602,72.719 26.836,72.953C27.051,73.731 27.012,74.555 26.723,75.309C25.899,77.875 24.446,80.192 22.492,82.047C20.633,84 18.317,85.453 15.754,86.282C15,86.567 14.18,86.606 13.403,86.395C12.906,85.91 12.11,85.914 11.621,86.41C11.133,86.903 11.137,87.7 11.629,88.192C12.332,88.801 13.25,89.106 14.176,89.043C14.934,89.031 15.684,88.922 16.41,88.715C19.403,87.774 22.106,86.094 24.278,83.832C26.539,81.664 28.219,78.957 29.16,75.969C29.735,73.84 29.543,72.094 28.633,71.184C28.141,70.688 27.34,70.688 26.844,71.176L26.844,71.176Z" style="fill:rgb(30,160,172);fill-rule:nonzero;stroke:rgb(30,160,172);stroke-width:0.99px;stroke-linecap:butt;stroke-miterlimit:2;"/>
                </g>
                <g transform="matrix(1,0,0,1,136.833,90.4675)">
                    <path d="M21.914,63.496C17.668,64.766 13.82,67.109 10.738,70.293C7.551,73.375 5.211,77.223 3.937,81.469C2.648,86.235 3.539,90.594 6.379,93.438C8.472,95.454 11.289,96.543 14.195,96.457C15.597,96.45 16.996,96.254 18.347,95.879C22.593,94.606 26.441,92.266 29.523,89.082L29.523,89.078C32.711,85.996 35.051,82.149 36.324,77.902C37.613,73.137 36.723,68.777 33.883,65.933C31.039,63.098 26.676,62.207 21.914,63.496L21.914,63.496ZM33.887,77.246C32.731,81.066 30.614,84.523 27.739,87.297C24.969,90.168 21.508,92.285 17.688,93.442C13.82,94.488 10.348,93.836 8.164,91.649C5.981,89.465 5.328,85.992 6.375,82.125L6.375,82.129C7.531,78.309 9.649,74.848 12.524,72.078C15.293,69.203 18.75,67.086 22.571,65.93C23.707,65.617 24.879,65.453 26.055,65.441C28.293,65.359 30.469,66.184 32.094,67.723C34.278,69.906 34.934,73.375 33.887,77.246L33.887,77.246Z" style="fill:rgb(30,160,172);fill-rule:nonzero;stroke:rgb(30,160,172);stroke-width:0.99px;stroke-linecap:butt;stroke-miterlimit:2;"/>
                </g>
                <g transform="matrix(1,0,0,1,130.089,78.4424)">
                    <path d="M11.84,26.066C12.215,26.273 12.668,26.273 13.043,26.066L23.734,20.265C24.14,20.046 24.394,19.621 24.394,19.156L24.394,7.554C24.394,7.089 24.14,6.663 23.734,6.444L13.043,0.64C12.668,0.437 12.215,0.437 11.84,0.64L1.149,6.444C0.743,6.663 0.489,7.089 0.489,7.554L0.489,19.156C0.489,19.621 0.743,20.046 1.149,20.265L11.84,26.066ZM21.871,18.406L13.703,22.836L13.703,14.105L21.871,9.671L21.871,18.406ZM12.441,3.187L20.488,7.554L12.441,11.917L4.394,7.554L12.441,3.187ZM3.012,9.675L11.18,14.109L11.18,22.839L3.012,18.406L3.012,9.675Z" style="fill:rgb(30,160,172);fill-rule:nonzero;stroke:rgb(30,160,172);stroke-width:0.99px;stroke-linecap:butt;stroke-miterlimit:2;"/>
                </g>
                <g transform="matrix(1,0,0,1,143.764,106.122)">
                    <path d="M72.953,55.199C72.953,54.734 72.699,54.308 72.293,54.09L61.598,48.285C61.223,48.082 60.77,48.082 60.395,48.285L49.704,54.09C49.297,54.308 49.044,54.734 49.044,55.199L49.044,66.801C49.044,67.266 49.297,67.692 49.704,67.91L60.395,73.711C60.77,73.918 61.223,73.918 61.598,73.711L72.293,67.91C72.699,67.692 72.953,67.266 72.953,66.801L72.953,55.199ZM59.734,70.48L51.57,66.05L51.57,57.32L59.738,61.753L59.734,70.48ZM60.996,59.562L52.953,55.199L60.996,50.832L69.043,55.199L60.996,59.562ZM70.425,66.046L62.257,70.48L62.257,61.75L70.425,57.316L70.425,66.046Z" style="fill:rgb(30,160,172);fill-rule:nonzero;stroke:rgb(30,160,172);stroke-width:0.99px;stroke-linecap:butt;stroke-miterlimit:2;"/>
                </g>
                <g transform="matrix(1,0,0,1,149.815,103.833)">
                    <path d="M99.512,80.844C99.512,80.383 99.258,79.957 98.852,79.735L88.161,73.93L88.161,73.934C87.786,73.731 87.333,73.731 86.958,73.934L76.267,79.735C75.86,79.957 75.607,80.383 75.607,80.844L75.607,92.449C75.607,92.91 75.86,93.336 76.267,93.558L86.958,99.359C87.333,99.562 87.786,99.562 88.161,99.359L98.852,93.558C99.258,93.336 99.512,92.91 99.512,92.449L99.512,80.844ZM86.293,96.129L78.125,91.699L78.129,82.965L86.297,87.399L86.293,96.129ZM87.555,85.211L79.508,80.844L87.555,76.477L95.602,80.844L87.555,85.211ZM96.984,91.695L88.816,96.125L88.82,87.398L96.988,82.965L96.984,91.695Z" style="fill:rgb(30,160,172);fill-rule:nonzero;stroke:rgb(30,160,172);stroke-width:0.99px;stroke-linecap:butt;stroke-miterlimit:2;"/>
                </g>
            </g>
        </g>
    </g>
</svg>
