<?xml version="1.0" encoding="UTF-8" standalone="no"?>
<!DOCTYPE svg PUBLIC "-//W3C//DTD SVG 1.1//EN" "http://www.w3.org/Graphics/SVG/1.1/DTD/svg11.dtd">
<svg width="100%" height="100%" viewBox="0 0 62 62" version="1.1" xmlns="http://www.w3.org/2000/svg" xmlns:xlink="http://www.w3.org/1999/xlink" xml:space="preserve" xmlns:serif="http://www.serif.com/" style="fill-rule:evenodd;clip-rule:evenodd;stroke-linejoin:round;stroke-miterlimit:2;">
    <g transform="matrix(1,0,0,1,-172,-132)">
        <g transform="matrix(1,0,0,1,37,10)">
            <g transform="matrix(0.421569,0,0,0.421569,144.922,131.921)">
                <path d="M89.16,24.445L75.555,10.84C73.602,8.887 70.442,8.887 68.489,10.84C66.539,12.785 66.539,15.957 68.489,17.906L71.239,20.656L64.723,27.176L55.93,18.383C54.414,16.863 51.953,16.863 50.434,18.383C48.914,19.902 48.914,22.36 50.434,23.879L54.52,27.965C44.946,37.539 31.18,51.301 22.27,60.207C21.328,61.148 20.809,62.402 20.809,63.738C20.809,65.074 21.328,66.328 22.27,67.269L23.543,68.543L21.41,70.672C19.547,72.535 19.262,75.394 20.606,77.566L9.754,88.418C9.246,88.926 9.246,89.742 9.754,90.25C10.258,90.754 11.078,90.758 11.586,90.25L22.438,79.398C24.59,80.726 27.449,80.476 29.332,78.593L31.465,76.465L32.735,77.734C33.707,78.707 34.988,79.195 36.266,79.195C37.543,79.195 38.824,78.707 39.797,77.734C49.203,68.328 44.762,72.769 72.047,45.492L76.125,49.57C77.641,51.086 80.106,51.086 81.621,49.57C83.137,48.055 83.137,45.59 81.621,44.074L72.836,35.289L79.352,28.769L82.094,31.512C84.043,33.461 87.211,33.461 89.16,31.512C91.113,29.558 91.113,26.398 89.16,24.445ZM27.504,76.757C26.328,77.933 24.422,77.933 23.246,76.757C22.07,75.581 22.07,73.671 23.246,72.499L25.379,70.37L29.637,74.628L27.504,76.757ZM37.969,75.898C37.031,76.835 35.504,76.835 34.567,75.898L26.293,67.624L26.293,67.62L26.289,67.616L24.102,65.425C23.164,64.488 23.164,62.96 24.102,62.023L40.743,45.386L54.61,59.253L51.875,61.987L46.344,56.456C45.836,55.948 45.016,55.948 44.512,56.456C44.004,56.964 44.004,57.78 44.512,58.288L50.043,63.819L47.305,66.554L44.129,63.378C43.622,62.87 42.805,62.87 42.297,63.378C41.79,63.886 41.79,64.702 42.297,65.21L45.473,68.386L42.739,71.12L37.208,65.589C36.7,65.081 35.883,65.081 35.376,65.589C34.868,66.097 34.868,66.913 35.376,67.421L40.907,72.952L37.965,75.886L37.969,75.898ZM65.578,48.296L62.402,45.12C61.894,44.612 61.078,44.612 60.57,45.12C60.062,45.628 60.062,46.444 60.57,46.952L63.746,50.128L61.012,52.862L55.48,47.331C54.973,46.823 54.152,46.823 53.648,47.331C53.141,47.839 53.141,48.655 53.648,49.163L59.18,54.694L56.445,57.428L42.578,43.561L56.351,29.788L70.218,43.655L65.578,48.292L65.578,48.296ZM79.789,47.733C79.285,48.237 78.461,48.237 77.957,47.733L52.266,22.042C51.762,21.538 51.758,20.718 52.266,20.21C52.754,19.722 53.61,19.722 54.098,20.21L79.789,45.901C80.293,46.405 80.293,47.229 79.789,47.733ZM71.004,33.452L66.551,28.999L73.066,22.48L77.519,26.933L71,33.452L71.004,33.452ZM87.328,29.679C86.39,30.616 84.863,30.616 83.926,29.679L70.321,16.074C69.383,15.136 69.383,13.609 70.321,12.671C71.262,11.73 72.781,11.73 73.723,12.671L87.328,26.276C88.269,27.218 88.269,28.737 87.328,29.679Z" style="fill:rgb(52,186,144);fill-rule:nonzero;stroke:rgb(52,186,144);stroke-width:0.44px;"/>
            </g>
        </g>
        <g transform="matrix(1,0,0,1,37,10)">
            <g transform="matrix(1,0,0,1,92,-53)">
                <circle cx="74" cy="206" r="30" style="fill:none;stroke:rgb(52,186,144);stroke-width:2px;stroke-linecap:round;stroke-miterlimit:1.5;"/>
            </g>
        </g>
    </g>
</svg>
