<?xml version="1.0" encoding="UTF-8" standalone="no"?>
<!DOCTYPE svg PUBLIC "-//W3C//DTD SVG 1.1//EN" "http://www.w3.org/Graphics/SVG/1.1/DTD/svg11.dtd">
<svg width="100%" height="100%" viewBox="0 0 12197 4792" version="1.1" xmlns="http://www.w3.org/2000/svg" xmlns:xlink="http://www.w3.org/1999/xlink" xml:space="preserve" xmlns:serif="http://www.serif.com/" style="fill-rule:evenodd;clip-rule:evenodd;stroke-linejoin:round;stroke-miterlimit:2;">
    <g transform="matrix(1,0,0,1,-83108.8,-17191.8)">
        <g transform="matrix(17.062,0,0,17.062,68047.3,-32484.8)">
            <g transform="matrix(1.71004,0,0,1.7563,767.712,2249.32)">
                <g transform="matrix(0.641122,0,0,0.624232,35.759,450.313)">
                    <path d="M365.127,79.81L353.223,79.81L353.223,99.323C353.252,99.762 353.596,99.983 354.254,99.983L355.14,99.983C355.796,99.983 356.141,99.762 356.168,99.323L356.168,90.658L361.844,90.658C362.238,90.658 362.449,90.396 362.48,89.868L362.48,89.279C362.449,88.753 362.238,88.489 361.844,88.489L356.168,88.489L356.168,82.191L365.127,82.191C365.475,82.163 365.648,81.868 365.648,81.306L365.648,80.557C365.648,80.087 365.475,79.839 365.127,79.81" style="fill:rgb(27,53,86);fill-rule:nonzero;"/>
                </g>
                <g transform="matrix(0.641122,0,0,0.624232,35.759,453.206)">
                    <path d="M378.452,88.517C377.824,91.137 376.45,92.45 374.326,92.458C372.185,92.458 371.115,90.849 371.115,87.631C371.385,84.288 372.82,82.57 375.412,82.475C376.875,82.475 377.89,82.799 378.452,83.446L378.452,88.517ZM375.512,79.81C371.172,79.997 368.781,82.615 368.34,87.659C368.34,92.786 370.395,95.348 374.508,95.348C376.342,95.159 377.655,94.422 378.452,93.139L378.452,94.688C378.483,95.127 378.822,95.348 379.484,95.348L380.37,95.348C381.025,95.348 381.369,95.127 381.397,94.688L381.397,82.248C380.527,80.622 378.562,79.81 375.512,79.81" style="fill:rgb(27,53,86);fill-rule:nonzero;"/>
                </g>
                <g transform="matrix(0.641122,0,0,0.624232,35.759,453.112)">
                    <path d="M392.173,82.552C393.712,82.552 394.824,83.083 395.512,84.146C395.577,84.27 395.692,84.33 395.849,84.33C395.955,84.33 396.07,84.305 396.203,84.258L397.88,83.486C398.027,83.389 398.105,83.28 398.105,83.147C398.105,83.063 398.08,82.974 398.033,82.892C396.944,80.958 394.991,79.961 392.173,79.906C387.592,80 385.292,82.596 385.272,87.697C385.292,92.739 387.592,95.308 392.173,95.403C394.991,95.345 396.944,94.35 398.033,92.415C398.08,92.329 398.105,92.246 398.105,92.16C398.105,92.03 398.027,91.918 397.88,91.82L396.203,91.049C396.07,91 395.955,90.978 395.849,90.978C395.692,90.978 395.577,91.039 395.512,91.161C394.824,92.22 393.712,92.75 392.173,92.75C389.675,92.75 388.389,91.069 388.315,87.697C388.389,84.27 389.675,82.552 392.173,82.552" style="fill:rgb(27,53,86);fill-rule:nonzero;"/>
                </g>
                <g transform="matrix(0.641122,0,0,0.624232,35.759,453.216)">
                    <path d="M413.188,79.81L412.303,79.81C411.647,79.81 411.301,80.032 411.275,80.472L411.275,89.119C410.581,91.535 409.26,92.764 407.315,92.812C405.532,92.812 404.64,91.229 404.64,88.064L404.64,80.472C404.612,80.032 404.269,79.81 403.613,79.81L402.722,79.81C402.065,79.81 401.724,80.032 401.696,80.472L401.696,88.12C401.696,92.898 403.575,95.289 407.332,95.289C409.095,95.289 410.41,94.648 411.275,93.36L411.275,94.672C411.301,95.112 411.647,95.332 412.303,95.332L413.188,95.332C413.85,95.332 414.189,95.112 414.219,94.672L414.219,80.472C414.189,80.032 413.85,79.81 413.188,79.81" style="fill:rgb(27,53,86);fill-rule:nonzero;"/>
                </g>
                <g transform="matrix(0.641122,0,0,0.624232,35.759,449.345)">
                    <path d="M424.6,98.532C424.59,98.532 424.579,98.539 424.559,98.545C424.324,98.64 423.953,98.688 423.447,98.688C422.31,98.688 421.743,98.05 421.743,96.771L421.743,80.516C421.711,80.073 421.37,79.854 420.714,79.854L419.823,79.854C419.168,79.854 418.826,80.073 418.795,80.516L418.795,96.927C418.879,99.97 420.428,101.489 423.43,101.489C423.928,101.489 424.374,101.444 424.769,101.349C425.13,101.267 425.319,100.698 425.348,99.645L425.348,99.577C425.348,98.88 425.098,98.532 424.6,98.532" style="fill:rgb(27,53,86);fill-rule:nonzero;"/>
                </g>
                <g transform="matrix(0.641122,0,0,0.624232,35.759,449.373)">
                    <path d="M437.729,94.658C437.102,97.278 435.722,98.591 433.601,98.599C431.459,98.599 430.392,96.99 430.392,93.772C430.662,90.429 432.096,88.711 434.688,88.616C436.152,88.616 437.166,88.94 437.729,89.587L437.729,94.658ZM439.646,79.81L438.759,79.81C438.1,79.81 437.756,80.029 437.729,80.472L437.729,86.291C436.895,86.063 435.912,85.951 434.786,85.951C430.446,86.138 428.055,88.756 427.615,93.8C427.615,98.927 429.673,101.489 433.785,101.489C435.617,101.3 436.932,100.563 437.729,99.28L437.729,100.829C437.756,101.268 438.1,101.489 438.759,101.489L439.646,101.489C440.301,101.489 440.645,101.268 440.672,100.829L440.672,80.472C440.645,80.029 440.301,79.81 439.646,79.81" style="fill:rgb(27,53,86);fill-rule:nonzero;"/>
                </g>
                <g transform="matrix(0.641122,0,0,0.624232,35.759,453.206)">
                    <path d="M454.986,88.517C454.358,91.137 452.981,92.45 450.858,92.458C448.718,92.458 447.648,90.849 447.648,87.631C447.918,84.288 449.354,82.57 451.945,82.475C453.409,82.475 454.423,82.799 454.986,83.446L454.986,88.517ZM452.043,79.81C447.704,79.997 445.315,82.615 444.874,87.659C444.874,92.786 446.929,95.348 451.043,95.348C452.873,95.159 454.189,94.422 454.986,93.139L454.986,94.688C455.013,95.127 455.357,95.348 456.016,95.348L456.903,95.348C457.558,95.348 457.903,95.127 457.927,94.688L457.927,82.248C457.059,80.622 455.093,79.81 452.043,79.81" style="fill:rgb(27,53,86);fill-rule:nonzero;"/>
                </g>
                <g transform="matrix(0.641122,0,0,0.624232,35.759,449.373)">
                    <path d="M471.667,94.658C471.037,97.278 469.662,98.591 467.537,98.599C465.4,98.599 464.326,96.99 464.326,93.772C464.598,90.429 466.032,88.711 468.624,88.616C470.09,88.616 471.104,88.94 471.667,89.587L471.667,94.658ZM473.583,79.81L472.692,79.81C472.038,79.81 471.695,80.029 471.667,80.472L471.667,86.291C470.831,86.063 469.849,85.951 468.724,85.951C464.385,86.138 461.989,88.756 461.554,93.8C461.554,98.927 463.61,101.489 467.722,101.489C469.552,101.3 470.867,100.563 471.667,99.28L471.667,100.829C471.695,101.268 472.038,101.489 472.692,101.489L473.583,101.489C474.24,101.489 474.583,101.268 474.61,100.829L474.61,80.472C474.583,80.029 474.24,79.81 473.583,79.81" style="fill:rgb(27,53,86);fill-rule:nonzero;"/>
                </g>
                <g transform="matrix(0.641122,0,0,0.624232,35.759,453.145)">
                    <path d="M485.723,82.272C487.358,82.272 488.284,82.854 488.498,84.008L488.498,84.092C488.498,85.164 487.76,85.901 486.286,86.301C485.665,86.472 485.043,86.557 484.413,86.557C483.52,86.557 482.604,86.435 481.664,86.193C482.108,83.768 483.46,82.463 485.723,82.272M491.429,91.782L489.751,91.008C489.619,90.962 489.5,90.938 489.4,90.938C489.241,90.938 489.126,90.999 489.062,91.122C488.378,92.276 487.265,92.856 485.723,92.856C483.452,92.856 482.113,91.484 481.706,88.743C482.572,88.845 483.421,88.897 484.26,88.897C488.662,88.691 490.911,87.022 491.004,83.894C490.677,81.285 488.963,79.951 485.865,79.895C481.469,79.988 479.121,82.533 478.82,87.529C478.842,92.659 481.142,95.269 485.723,95.361C488.544,95.304 490.494,94.31 491.584,92.376C491.63,92.292 491.656,92.207 491.656,92.121C491.656,91.991 491.579,91.878 491.429,91.782" style="fill:rgb(27,53,86);fill-rule:nonzero;"/>
                </g>
                <g transform="matrix(0.641122,0,0,0.624232,35.759,449.373)">
                    <path d="M511.828,94.658C511.198,97.278 509.82,98.591 507.699,98.599C505.557,98.599 504.487,96.99 504.487,93.772C504.762,90.429 506.191,88.711 508.783,88.616C510.249,88.616 511.265,88.94 511.828,89.587L511.828,94.658ZM513.743,79.81L512.855,79.81C512.197,79.81 511.852,80.029 511.828,80.472L511.828,86.291C510.989,86.063 510.01,85.951 508.882,85.951C504.544,86.138 502.155,88.756 501.712,93.8C501.712,98.927 503.766,101.489 507.882,101.489C509.715,101.3 511.028,100.563 511.828,99.28L511.828,100.829C511.852,101.268 512.197,101.489 512.855,101.489L513.743,101.489C514.398,101.489 514.742,101.268 514.768,100.829L514.768,80.472C514.742,80.029 514.398,79.81 513.743,79.81" style="fill:rgb(27,53,86);fill-rule:nonzero;"/>
                </g>
                <g transform="matrix(0.641122,0,0,0.624232,35.759,453.145)">
                    <path d="M525.885,82.272C527.519,82.272 528.448,82.854 528.659,84.008L528.659,84.092C528.659,85.164 527.923,85.901 526.449,86.301C525.829,86.472 525.204,86.557 524.575,86.557C523.684,86.557 522.768,86.435 521.826,86.193C522.27,83.768 523.622,82.463 525.885,82.272M531.593,91.782L529.913,91.008C529.782,90.962 529.664,90.938 529.56,90.938C529.401,90.938 529.288,90.999 529.226,91.122C528.537,92.276 527.427,92.856 525.885,92.856C523.613,92.856 522.277,91.484 521.871,88.743C522.735,88.845 523.588,88.897 524.422,88.897C528.827,88.691 531.072,87.022 531.168,83.894C530.839,81.285 529.125,79.951 526.025,79.895C521.635,79.988 519.283,82.533 518.981,87.529C519.002,92.659 521.303,95.269 525.885,95.361C528.705,95.304 530.656,94.31 531.745,92.376C531.793,92.292 531.819,92.207 531.819,92.121C531.819,91.991 531.74,91.878 531.593,91.782" style="fill:rgb(27,53,86);fill-rule:nonzero;"/>
                </g>
                <g transform="matrix(0.641122,0,0,0.624232,35.759,450.252)">
                    <path d="M546.48,92.812L549.371,84.346L552.255,92.812L546.48,92.812ZM550.847,80.472C550.762,80.256 550.63,80.086 550.454,79.965C550.294,79.86 550.061,79.809 549.763,79.809L548.566,79.809C548.294,79.809 548.059,79.875 547.871,80.007C547.674,80.139 547.542,80.294 547.464,80.472L540.999,99.42C540.982,99.512 540.97,99.58 540.97,99.617C540.97,99.926 541.251,100.081 541.804,100.081L542.973,100.081C543.623,100.081 544.04,99.86 544.224,99.42L545.792,94.84L552.947,94.84L554.509,99.42C554.698,99.86 555.119,100.081 555.776,100.081L556.522,100.081C557.071,100.081 557.341,99.926 557.341,99.617C557.341,99.58 557.332,99.512 557.312,99.42L550.847,80.472Z" style="fill:rgb(27,53,86);fill-rule:nonzero;"/>
                </g>
                <g transform="matrix(0.641122,0,0,0.624232,35.759,453.216)">
                    <path d="M575.755,79.81C573.817,79.81 572.35,80.649 571.344,82.33C570.536,80.649 569.142,79.81 567.158,79.81C565.194,79.81 563.774,80.669 562.891,82.385L562.891,80.472C562.864,80.032 562.52,79.81 561.863,79.81L560.974,79.81C560.317,79.81 559.974,80.032 559.947,80.472L559.947,94.672C559.974,95.112 560.317,95.332 560.974,95.332L561.863,95.332C562.52,95.332 562.864,95.112 562.891,94.672L562.891,87.147C563.416,84.048 564.581,82.491 566.383,82.47C568.28,82.47 569.229,84.188 569.229,87.616L569.229,94.672C569.258,95.112 569.601,95.332 570.259,95.332L571.146,95.332C571.804,95.332 572.147,95.112 572.175,94.672L572.175,87.53C572.455,84.168 573.483,82.482 575.259,82.47C576.97,82.47 577.824,84.188 577.824,87.616L577.824,94.672C577.85,95.112 578.193,95.332 578.851,95.332L579.736,95.332C580.397,95.332 580.737,95.112 580.767,94.672L580.767,87.018C580.767,82.214 579.094,79.81 575.755,79.81" style="fill:rgb(27,53,86);fill-rule:nonzero;"/>
                </g>
                <g transform="matrix(0.641122,0,0,0.624232,35.759,453.145)">
                    <path d="M591.572,82.272C593.208,82.272 594.134,82.854 594.346,84.008L594.346,84.092C594.346,85.164 593.611,85.901 592.135,86.301C591.517,86.472 590.89,86.557 590.261,86.557C589.368,86.557 588.455,86.435 587.514,86.193C587.956,83.768 589.31,82.463 591.572,82.272M597.278,91.782L595.601,91.008C595.469,90.962 595.352,90.938 595.248,90.938C595.091,90.938 594.975,90.999 594.911,91.122C594.225,92.276 593.112,92.856 591.572,92.856C589.302,92.856 587.96,91.484 587.557,88.743C588.423,88.845 589.272,88.897 590.108,88.897C594.512,88.691 596.76,87.022 596.855,83.894C596.526,81.285 594.812,79.951 591.711,79.895C587.321,79.988 584.97,82.533 584.668,87.529C584.689,92.659 586.99,95.269 591.572,95.361C594.389,95.304 596.342,94.31 597.431,92.376C597.48,92.292 597.504,92.207 597.504,92.121C597.504,91.991 597.426,91.878 597.278,91.782" style="fill:rgb(27,53,86);fill-rule:nonzero;"/>
                </g>
                <g transform="matrix(0.641122,0,0,0.624232,35.759,453.198)">
                    <path d="M608.544,79.81C606.432,79.856 605.045,80.63 604.39,82.133L604.39,80.5C604.362,80.06 604.019,79.838 603.364,79.838L602.431,79.838C601.773,79.838 601.434,80.06 601.403,80.5L601.403,94.701C601.46,95.14 601.819,95.361 602.473,95.361L603.364,95.361C604.019,95.361 604.362,95.14 604.39,94.701L604.39,86.387C604.4,84.105 605.413,82.913 607.431,82.812C608.024,82.753 608.424,82.519 608.629,82.106L609.25,80.599C609.286,80.483 609.307,80.386 609.307,80.304C609.307,79.975 609.054,79.81 608.544,79.81" style="fill:rgb(27,53,86);fill-rule:nonzero;"/>
                </g>
                <g transform="matrix(0.641122,0,0,0.624232,35.759,453.216)">
                    <path d="M614.012,79.81L613.123,79.81C612.465,79.81 612.126,80.032 612.098,80.472L612.098,94.672C612.126,95.112 612.465,95.332 613.123,95.332L614.012,95.332C614.67,95.332 615.015,95.112 615.04,94.672L615.04,80.472C615.015,80.032 614.67,79.81 614.012,79.81" style="fill:rgb(27,53,86);fill-rule:nonzero;"/>
                </g>
                <g transform="matrix(0.641122,0,0,0.624232,35.759,438.285)">
                    <path d="M614.055,98.11L613.082,98.11C612.424,98.11 612.097,98.347 612.097,98.827L612.097,100.25C612.097,100.719 612.424,100.952 613.082,100.952L614.055,100.952C614.721,100.952 615.055,100.719 615.055,100.25L615.055,98.827C615.055,98.347 614.721,98.11 614.055,98.11" style="fill:rgb(27,53,86);fill-rule:nonzero;"/>
                </g>
                <g transform="matrix(0.641122,0,0,0.624232,35.759,453.112)">
                    <path d="M626.308,82.552C627.848,82.552 628.961,83.083 629.649,84.146C629.71,84.27 629.824,84.33 629.983,84.33C630.088,84.33 630.204,84.305 630.338,84.258L632.012,83.486C632.162,83.389 632.238,83.28 632.238,83.147C632.238,83.063 632.215,82.974 632.168,82.892C631.077,80.958 629.127,79.961 626.308,79.906C621.727,80 619.424,82.596 619.406,87.697C619.424,92.739 621.727,95.308 626.308,95.403C629.127,95.345 631.077,94.35 632.168,92.415C632.215,92.329 632.238,92.246 632.238,92.16C632.238,92.03 632.162,91.918 632.012,91.82L630.338,91.049C630.204,91 630.088,90.978 629.983,90.978C629.824,90.978 629.71,91.039 629.649,91.161C628.961,92.22 627.848,92.75 626.308,92.75C623.809,92.75 622.522,91.069 622.449,87.697C622.522,84.27 623.809,82.552 626.308,82.552" style="fill:rgb(27,53,86);fill-rule:nonzero;"/>
                </g>
                <g transform="matrix(0.641122,0,0,0.624232,35.759,453.206)">
                    <path d="M645.608,88.517C644.978,91.137 643.603,92.45 641.48,92.458C639.337,92.458 638.271,90.849 638.271,87.631C638.54,84.288 639.976,82.57 642.565,82.475C644.03,82.475 645.044,82.799 645.608,83.446L645.608,88.517ZM642.665,79.81C638.325,79.997 635.933,82.615 635.493,87.659C635.493,92.786 637.549,95.348 641.663,95.348C643.497,95.159 644.81,94.422 645.608,93.139L645.608,94.688C645.636,95.127 645.979,95.348 646.635,95.348L647.521,95.348C648.18,95.348 648.524,95.127 648.552,94.688L648.552,82.248C647.678,80.622 645.717,79.81 642.665,79.81" style="fill:rgb(27,53,86);fill-rule:nonzero;"/>
                </g>
                <g transform="matrix(0.641122,0,0,0.624232,35.759,453.206)">
                    <path d="M659.384,79.81C657.556,79.998 656.239,80.738 655.44,82.021L655.44,80.488C655.413,80.047 655.116,79.826 654.552,79.826L653.386,79.826C652.82,79.826 652.528,80.047 652.498,80.488L652.498,94.688C652.528,95.127 652.87,95.348 653.528,95.348L654.415,95.348C655.07,95.348 655.413,95.127 655.44,94.688L655.44,86.642C656.069,84.024 657.448,82.707 659.568,82.698C661.615,82.698 662.642,84.174 662.642,87.121L662.642,94.688C662.664,95.127 663.012,95.348 663.669,95.348L664.555,95.348C665.213,95.348 665.554,95.127 665.584,94.688L665.584,87.178L665.554,87.178C665.47,82.266 663.417,79.81 659.384,79.81" style="fill:rgb(27,53,86);fill-rule:nonzero;"/>
                </g>
                <g transform="matrix(0.641122,0,0,0.624232,35.759,453.206)">
                    <path d="M679.443,88.517C678.813,91.137 677.44,92.45 675.315,92.458C673.175,92.458 672.105,90.849 672.105,87.631C672.38,84.288 673.81,82.57 676.402,82.475C677.866,82.475 678.88,82.799 679.443,83.446L679.443,88.517ZM676.502,79.81C672.161,79.997 669.77,82.615 669.331,87.659C669.331,92.786 671.384,95.348 675.502,95.348C677.332,95.159 678.646,94.422 679.443,93.139L679.443,94.688C679.473,95.127 679.814,95.348 680.472,95.348L681.362,95.348C682.017,95.348 682.359,95.127 682.388,94.688L682.388,82.248C681.517,80.622 679.552,79.81 676.502,79.81" style="fill:rgb(27,53,86);fill-rule:nonzero;"/>
                </g>
            </g>
            <g transform="matrix(1.71004,0,0,1.7563,767.712,2249.32)">
                <g transform="matrix(0.641122,0,0,0.624232,35.759,340.239)">
                    <path d="M379.642,236.752L392.995,190.529L449.075,190.524C451.381,190.496 453.35,188.95 454.002,186.848L460.428,165.602L401.957,165.689C401.957,165.689 400.827,165.551 400.327,166.45C400.17,166.738 399.405,168.108 399.405,168.108C399.405,168.108 405.788,146.13 414.975,146.13L462.395,146.13C464.709,146.13 466.666,144.611 467.342,142.524L475.268,115.67L417.375,115.581C398.602,116.944 384.897,132.533 376.257,162.34L353.257,240.547L374.63,240.547C377.009,240.547 379.025,238.935 379.642,236.752" style="fill:rgb(27,53,86);fill-rule:nonzero;"/>
                </g>
                <g transform="matrix(0.641122,0,0,0.624232,35.759,340.294)">
                    <path d="M517.084,192.037L497.028,192.037C497.028,192.037 496.148,192.072 495.919,192.072C495.028,192.072 494.028,193.682 494.028,193.682L511.364,154.04L519.832,189.797C519.852,189.891 520.271,192.037 517.084,192.037M553.857,237.436L524.731,115.581C523.787,115.591 509.336,115.581 507.498,115.581C503.85,115.581 502.551,117.31 501.766,118.881L448.304,240.458L469.263,240.458C473.419,240.458 474.135,238.635 474.772,237.225L487.002,209.6L520.017,209.457C523.955,209.457 525.047,212.186 525.047,212.186L531.726,240.458L549.357,240.458C549.357,240.458 554.585,240.458 553.857,237.436" style="fill:rgb(27,53,86);fill-rule:nonzero;"/>
                </g>
                <g transform="matrix(0.641122,0,0,0.624232,35.759,340.294)">
                    <path d="M679.579,115.581C674.313,115.581 671.528,115.581 668.395,121.381L627.939,196.025C627.939,196.025 627.407,196.97 627.256,197.274C626.447,198.894 626.544,201.124 626.544,201.124L612.563,115.581L592.235,115.581C586.743,115.581 582.733,115.581 581.665,122.054L559.16,240.458C561.79,240.366 572.987,240.458 572.987,240.458C582.461,240.458 582.461,240.458 583.634,234.07L596.93,163.792L609.109,238.763C616.85,238.777 609.812,238.777 616.85,238.777L620.717,238.777C628.29,238.763 628.29,238.763 631.078,233.732L668.592,164.296L654.123,240.458L668.653,240.458C677.286,240.458 677.286,240.458 678.636,233.985L701.153,115.581L679.579,115.581Z" style="fill:rgb(27,53,86);fill-rule:nonzero;"/>
                </g>
            </g>
            <g transform="matrix(1.09634,0,0,1.09634,828.861,2866.58)">
                <path d="M179.137,287.148C159.443,287.148 140.858,282.465 124.467,274.171L142.565,274.171L152.682,226.448L155.713,212.38C155.648,212.387 154.902,212.447 154.074,212.525C139.014,214.321 128.703,218.757 120.91,226.844C110.815,237.321 106.557,251.34 104.612,261.536C101.453,259.062 98.428,256.433 95.541,253.663C98.199,243.18 103.092,230.775 112.446,221.068C124.498,208.56 141.77,203.91 171.169,203.91C171.169,203.91 231.198,203.914 231.245,203.914C237.62,203.914 239.87,203.914 244.27,197.732L286.387,142.484L210.016,142.147C188.01,143.291 166.868,144.831 144.293,173.694L125.369,197.935L143.278,132.849C112.905,138.849 101.782,146.962 93.143,180.333L80.514,236.153C67.143,217.103 59.303,193.995 59.303,169.08C59.303,103.874 112.954,51.012 179.137,51.012C198.965,51.012 217.664,55.761 234.137,64.161L186.795,63.997C172.916,63.829 157.834,63.989 143.895,82.952C143.895,82.952 115.792,120.428 102.826,143.095C110.502,132.149 127.836,125.539 145.044,124.876L232.886,124.859C232.886,124.859 232.901,124.858 232.902,124.858C235.995,124.858 238.527,124.858 241.547,120.919C241.549,120.917 254.482,103.222 265.883,87.624C286.383,108.81 298.97,137.497 298.97,169.08C298.97,234.288 245.319,287.148 179.137,287.148M271.904,79.385C278.17,70.812 282.907,64.331 282.907,64.331L253.78,64.229C232.657,49.604 206.916,41.012 179.137,41.012C107.35,41.012 49.155,98.35 49.155,169.08C49.155,199.327 59.803,227.12 77.601,249.032L71.886,274.294L92.128,274.294C92.346,272.832 92.609,269.559 93.252,265.201C96.373,267.911 99.627,270.474 103.004,272.882C102.946,273.404 102.893,273.843 102.844,274.171L104.845,274.171C125.903,288.65 151.511,297.148 179.137,297.148C250.923,297.148 309.119,239.81 309.119,169.08C309.119,134.149 294.918,102.491 271.904,79.385" style="fill:rgb(27,53,86);fill-rule:nonzero;"/>
            </g>
        </g>
    </g>
</svg>
