<?xml version="1.0" encoding="UTF-8" standalone="no"?>
<!DOCTYPE svg PUBLIC "-//W3C//DTD SVG 1.1//EN" "http://www.w3.org/Graphics/SVG/1.1/DTD/svg11.dtd">
<svg width="100%" height="100%" viewBox="0 0 6913 2716" version="1.1" xmlns="http://www.w3.org/2000/svg" xmlns:xlink="http://www.w3.org/1999/xlink" xml:space="preserve" xmlns:serif="http://www.serif.com/" style="fill:#1b3556; fill-rule:evenodd;clip-rule:evenodd;stroke-linejoin:round;stroke-miterlimit:2;">
    <g transform="matrix(8.30088,0,0,8.30088,-15937.4,3562.11)">
        <g>
            <g>
                <g transform="matrix(1.27715,0,0,1.27715,2323.51,-151.536)">
                    <path d="M0,-20.173L-11.904,-20.173L-11.904,-0.66C-11.875,-0.221 -11.531,0 -10.873,0L-9.987,0C-9.331,0 -8.986,-0.221 -8.959,-0.66L-8.959,-9.325L-3.283,-9.325C-2.889,-9.325 -2.678,-9.587 -2.647,-10.115L-2.647,-10.704C-2.678,-11.23 -2.889,-11.494 -3.283,-11.494L-8.959,-11.494L-8.959,-17.792L0,-17.792C0.348,-17.82 0.521,-18.115 0.521,-18.677L0.521,-19.426C0.521,-19.896 0.348,-20.144 0,-20.173" style="fill:#1b3556;fill-rule:nonzero;"/>
                </g>
                <g transform="matrix(1.27715,0,0,1.27715,2340.52,-162.657)">
                    <path d="M0,1.876C-0.628,4.496 -2.002,5.809 -4.126,5.817C-6.267,5.817 -7.337,4.208 -7.337,0.99C-7.067,-2.353 -5.632,-4.071 -3.04,-4.166C-1.577,-4.166 -0.562,-3.842 0,-3.195L0,1.876ZM-2.94,-6.831C-7.28,-6.644 -9.671,-4.026 -10.112,1.018C-10.112,6.145 -8.057,8.707 -3.944,8.707C-2.11,8.518 -0.797,7.781 0,6.498L0,8.047C0.031,8.486 0.37,8.707 1.032,8.707L1.918,8.707C2.573,8.707 2.917,8.486 2.945,8.047L2.945,-4.393C2.075,-6.019 0.11,-6.831 -2.94,-6.831" style="fill:#1b3556;fill-rule:nonzero;"/>
                </g>
                <g transform="matrix(1.27715,0,0,1.27715,2358.05,-155.039)">
                    <path d="M0,-10.205C1.539,-10.205 2.651,-9.674 3.339,-8.611C3.404,-8.487 3.519,-8.427 3.676,-8.427C3.782,-8.427 3.897,-8.452 4.03,-8.499L5.707,-9.271C5.854,-9.368 5.932,-9.477 5.932,-9.61C5.932,-9.694 5.907,-9.783 5.86,-9.865C4.771,-11.799 2.818,-12.796 0,-12.851C-4.581,-12.757 -6.881,-10.161 -6.901,-5.06C-6.881,-0.018 -4.581,2.551 0,2.646C2.818,2.588 4.771,1.593 5.86,-0.342C5.907,-0.428 5.932,-0.511 5.932,-0.597C5.932,-0.727 5.854,-0.839 5.707,-0.937L4.03,-1.708C3.897,-1.757 3.782,-1.779 3.676,-1.779C3.519,-1.779 3.404,-1.718 3.339,-1.596C2.651,-0.537 1.539,-0.007 0,-0.007C-2.498,-0.007 -3.784,-1.688 -3.858,-5.06C-3.784,-8.487 -2.498,-10.205 0,-10.205" style="fill:#1b3556;fill-rule:nonzero;"/>
                </g>
                <g transform="matrix(1.27715,0,0,1.27715,2342.04,-351.975)">
                    <path d="M0,117.376L13.353,71.153L69.433,71.148C71.739,71.12 73.708,69.574 74.36,67.472L80.786,46.226L22.315,46.313C22.315,46.313 21.185,46.175 20.685,47.074C20.528,47.362 19.763,48.732 19.763,48.732C19.763,48.732 26.146,26.754 35.333,26.754L82.753,26.754C85.067,26.754 87.024,25.235 87.7,23.148L95.626,-3.706L37.733,-3.795C18.96,-2.432 5.255,13.157 -3.385,42.964L-26.385,121.171L-5.012,121.171C-2.633,121.171 -0.617,119.559 0,117.376" style="fill:#1b3556;fill-rule:nonzero;"/>
                </g>
                <g transform="matrix(1.27715,0,0,1.27715,2085.97,-416.338)">
                    <path d="M0,236.136C-19.694,236.136 -38.279,231.453 -54.67,223.159L-36.572,223.159L-26.455,175.436L-23.424,161.368C-23.489,161.375 -24.235,161.435 -25.063,161.513C-40.123,163.309 -50.434,167.745 -58.227,175.832C-68.322,186.309 -72.58,200.328 -74.525,210.524C-77.684,208.05 -80.709,205.421 -83.596,202.651C-80.938,192.168 -76.045,179.763 -66.691,170.056C-54.639,157.548 -37.367,152.898 -7.968,152.898C-7.968,152.898 52.061,152.902 52.108,152.902C58.483,152.902 60.733,152.902 65.133,146.72L107.25,91.472L30.879,91.135C8.873,92.279 -12.269,93.819 -34.844,122.682L-53.768,146.923L-35.859,81.837C-66.232,87.837 -77.355,95.95 -85.994,129.321L-98.623,185.141C-111.994,166.091 -119.834,142.983 -119.834,118.068C-119.834,52.862 -66.183,-0 0,-0C19.828,-0 38.527,4.749 55,13.149L7.658,12.985C-6.221,12.817 -21.303,12.977 -35.242,31.94C-35.242,31.94 -63.345,69.416 -76.311,92.083C-68.635,81.137 -51.301,74.527 -34.093,73.864L53.749,73.847C53.749,73.847 53.764,73.846 53.765,73.846C56.858,73.846 59.39,73.846 62.41,69.907C62.412,69.905 75.345,52.21 86.746,36.612C107.246,57.798 119.833,86.485 119.833,118.068C119.833,183.276 66.182,236.136 0,236.136M92.767,28.373C99.033,19.8 103.77,13.319 103.77,13.319L74.643,13.217C53.52,-1.408 27.779,-10 0,-10C-71.787,-10 -129.982,47.338 -129.982,118.068C-129.982,148.315 -119.334,176.108 -101.536,198.02L-107.251,223.282L-87.009,223.282C-86.791,221.82 -86.528,218.547 -85.885,214.189C-82.764,216.899 -79.51,219.462 -76.133,221.87C-76.191,222.392 -76.244,222.831 -76.293,223.159L-74.292,223.159C-53.234,237.638 -27.626,246.136 0,246.136C71.786,246.136 129.982,188.798 129.982,118.068C129.982,83.137 115.781,51.479 92.767,28.373" style="fill:#1b3556;fill-rule:nonzero;"/>
                </g>
                <g transform="matrix(1.27715,0,0,1.27715,2384.89,-151.537)">
                    <path d="M0,-15.522L-0.885,-15.522C-1.541,-15.522 -1.887,-15.3 -1.913,-14.86L-1.913,-6.213C-2.607,-3.797 -3.928,-2.568 -5.873,-2.52C-7.656,-2.52 -8.548,-4.103 -8.548,-7.268L-8.548,-14.86C-8.576,-15.3 -8.919,-15.522 -9.575,-15.522L-10.466,-15.522C-11.123,-15.522 -11.464,-15.3 -11.492,-14.86L-11.492,-7.212C-11.492,-2.434 -9.613,-0.043 -5.856,-0.043C-4.093,-0.043 -2.778,-0.684 -1.913,-1.972L-1.913,-0.66C-1.887,-0.22 -1.541,0 -0.885,0L0,0C0.662,0 1.001,-0.22 1.031,-0.66L1.031,-14.86C1.001,-15.3 0.662,-15.522 0,-15.522" style="fill:#1b3556;fill-rule:nonzero;"/>
                </g>
                <g transform="matrix(1.27715,0,0,1.27715,2399.46,-175.447)">
                    <path d="M0,15.721C-0.01,15.721 -0.021,15.728 -0.041,15.734C-0.276,15.829 -0.647,15.877 -1.153,15.877C-2.29,15.877 -2.857,15.239 -2.857,13.96L-2.857,-2.295C-2.889,-2.738 -3.23,-2.957 -3.886,-2.957L-4.777,-2.957C-5.432,-2.957 -5.774,-2.738 -5.805,-2.295L-5.805,14.116C-5.721,17.159 -4.172,18.678 -1.17,18.678C-0.672,18.678 -0.226,18.633 0.169,18.538C0.53,18.456 0.719,17.887 0.748,16.834L0.748,16.766C0.748,16.069 0.498,15.721 0,15.721" style="fill:#1b3556;fill-rule:nonzero;"/>
                </g>
                <g transform="matrix(1.27715,0,0,1.27715,2416.23,-170.5)">
                    <path d="M0,8.017C-0.627,10.637 -2.007,11.95 -4.128,11.958C-6.27,11.958 -7.337,10.349 -7.337,7.131C-7.067,3.788 -5.633,2.07 -3.041,1.975C-1.577,1.975 -0.563,2.299 0,2.946L0,8.017ZM1.917,-6.831L1.03,-6.831C0.371,-6.831 0.027,-6.612 0,-6.169L0,-0.35C-0.834,-0.578 -1.817,-0.69 -2.943,-0.69C-7.283,-0.503 -9.674,2.115 -10.114,7.159C-10.114,12.286 -8.056,14.848 -3.944,14.848C-2.112,14.659 -0.797,13.922 0,12.639L0,14.188C0.027,14.627 0.371,14.848 1.03,14.848L1.917,14.848C2.572,14.848 2.916,14.627 2.943,14.188L2.943,-6.169C2.916,-6.612 2.572,-6.831 1.917,-6.831" style="fill:#1b3556;fill-rule:nonzero;"/>
                </g>
                <g transform="matrix(1.27715,0,0,1.27715,2438.27,-162.657)">
                    <path d="M0,1.876C-0.628,4.496 -2.005,5.809 -4.128,5.817C-6.268,5.817 -7.338,4.208 -7.338,0.99C-7.068,-2.353 -5.632,-4.071 -3.041,-4.166C-1.577,-4.166 -0.563,-3.842 0,-3.195L0,1.876ZM-2.943,-6.831C-7.282,-6.644 -9.671,-4.026 -10.112,1.018C-10.112,6.145 -8.057,8.707 -3.943,8.707C-2.113,8.518 -0.797,7.781 0,6.498L0,8.047C0.027,8.486 0.371,8.707 1.03,8.707L1.917,8.707C2.572,8.707 2.917,8.486 2.941,8.047L2.941,-4.393C2.073,-6.019 0.107,-6.831 -2.943,-6.831" style="fill:#1b3556;fill-rule:nonzero;"/>
                </g>
                <g transform="matrix(1.27715,0,0,1.27715,2459.57,-170.5)">
                    <path d="M0,8.017C-0.63,10.637 -2.005,11.95 -4.13,11.958C-6.267,11.958 -7.341,10.349 -7.341,7.131C-7.069,3.788 -5.635,2.07 -3.043,1.975C-1.577,1.975 -0.563,2.299 0,2.946L0,8.017ZM1.916,-6.831L1.025,-6.831C0.371,-6.831 0.028,-6.612 0,-6.169L0,-0.35C-0.836,-0.578 -1.818,-0.69 -2.943,-0.69C-7.282,-0.503 -9.678,2.115 -10.113,7.159C-10.113,12.286 -8.057,14.848 -3.945,14.848C-2.115,14.659 -0.8,13.922 0,12.639L0,14.188C0.028,14.627 0.371,14.848 1.025,14.848L1.916,14.848C2.573,14.848 2.916,14.627 2.943,14.188L2.943,-6.169C2.916,-6.612 2.573,-6.831 1.916,-6.831" style="fill:#1b3556;fill-rule:nonzero;"/>
                </g>
                <g transform="matrix(1.27715,0,0,1.27715,2477.53,-154.681)">
                    <path d="M0,-10.712C1.635,-10.712 2.561,-10.13 2.775,-8.976L2.775,-8.892C2.775,-7.82 2.037,-7.083 0.563,-6.683C-0.058,-6.512 -0.68,-6.427 -1.31,-6.427C-2.203,-6.427 -3.119,-6.549 -4.059,-6.791C-3.615,-9.216 -2.263,-10.521 0,-10.712M5.706,-1.202L4.028,-1.976C3.896,-2.022 3.777,-2.046 3.677,-2.046C3.518,-2.046 3.403,-1.985 3.339,-1.862C2.655,-0.708 1.542,-0.128 0,-0.128C-2.271,-0.128 -3.61,-1.5 -4.017,-4.241C-3.151,-4.139 -2.302,-4.087 -1.463,-4.087C2.939,-4.293 5.188,-5.962 5.281,-9.09C4.954,-11.699 3.24,-13.033 0.142,-13.089C-4.254,-12.996 -6.602,-10.451 -6.903,-5.455C-6.881,-0.325 -4.581,2.285 0,2.377C2.821,2.32 4.771,1.326 5.861,-0.608C5.907,-0.692 5.933,-0.777 5.933,-0.863C5.933,-0.993 5.856,-1.106 5.706,-1.202" style="fill:#1b3556;fill-rule:nonzero;"/>
                </g>
                <g transform="matrix(1.27715,0,0,1.27715,2510.86,-170.5)">
                    <path d="M0,8.017C-0.63,10.637 -2.008,11.95 -4.129,11.958C-6.271,11.958 -7.341,10.349 -7.341,7.131C-7.066,3.788 -5.637,2.07 -3.045,1.975C-1.579,1.975 -0.563,2.299 0,2.946L0,8.017ZM1.915,-6.831L1.027,-6.831C0.369,-6.831 0.024,-6.612 0,-6.169L0,-0.35C-0.839,-0.578 -1.818,-0.69 -2.946,-0.69C-7.284,-0.503 -9.673,2.115 -10.116,7.159C-10.116,12.286 -8.062,14.848 -3.946,14.848C-2.113,14.659 -0.8,13.922 0,12.639L0,14.188C0.024,14.627 0.369,14.848 1.027,14.848L1.915,14.848C2.57,14.848 2.914,14.627 2.94,14.188L2.94,-6.169C2.914,-6.612 2.57,-6.831 1.915,-6.831" style="fill:#1b3556;fill-rule:nonzero;"/>
                </g>
                <g transform="matrix(1.27715,0,0,1.27715,2528.82,-154.681)">
                    <path d="M0,-10.712C1.634,-10.712 2.563,-10.13 2.774,-8.976L2.774,-8.892C2.774,-7.82 2.038,-7.083 0.564,-6.683C-0.056,-6.512 -0.681,-6.427 -1.31,-6.427C-2.201,-6.427 -3.117,-6.549 -4.059,-6.791C-3.615,-9.216 -2.263,-10.521 0,-10.712M5.708,-1.202L4.028,-1.976C3.897,-2.022 3.779,-2.046 3.675,-2.046C3.516,-2.046 3.403,-1.985 3.341,-1.862C2.652,-0.708 1.542,-0.128 0,-0.128C-2.272,-0.128 -3.608,-1.5 -4.014,-4.241C-3.15,-4.139 -2.297,-4.087 -1.463,-4.087C2.942,-4.293 5.187,-5.962 5.283,-9.09C4.954,-11.699 3.24,-13.033 0.14,-13.089C-4.25,-12.996 -6.602,-10.451 -6.904,-5.455C-6.883,-0.325 -4.582,2.285 0,2.377C2.82,2.32 4.771,1.326 5.86,-0.608C5.908,-0.692 5.934,-0.777 5.934,-0.863C5.934,-0.993 5.855,-1.106 5.708,-1.202" style="fill:#1b3556;fill-rule:nonzero;"/>
                </g>
                <g transform="matrix(1.27715,0,0,1.27715,2555.12,-168.143)">
                    <path d="M0,5.734L2.891,-2.732L5.775,5.734L0,5.734ZM4.367,-6.606C4.282,-6.822 4.15,-6.992 3.974,-7.113C3.814,-7.218 3.581,-7.269 3.283,-7.269L2.086,-7.269C1.814,-7.269 1.579,-7.203 1.391,-7.071C1.194,-6.939 1.062,-6.784 0.984,-6.606L-5.481,12.342C-5.498,12.434 -5.51,12.502 -5.51,12.539C-5.51,12.848 -5.229,13.003 -4.676,13.003L-3.507,13.003C-2.857,13.003 -2.44,12.782 -2.256,12.342L-0.688,7.762L6.467,7.762L8.029,12.342C8.218,12.782 8.639,13.003 9.296,13.003L10.042,13.003C10.591,13.003 10.861,12.848 10.861,12.539C10.861,12.502 10.852,12.434 10.832,12.342L4.367,-6.606Z" style="fill:#1b3556;fill-rule:nonzero;"/>
                </g>
                <g transform="matrix(1.27715,0,0,1.27715,2592.51,-151.537)">
                    <path d="M0,-15.522C-1.938,-15.522 -3.405,-14.683 -4.411,-13.002C-5.219,-14.683 -6.613,-15.522 -8.597,-15.522C-10.561,-15.522 -11.981,-14.663 -12.864,-12.947L-12.864,-14.86C-12.891,-15.3 -13.235,-15.522 -13.892,-15.522L-14.781,-15.522C-15.438,-15.522 -15.781,-15.3 -15.808,-14.86L-15.808,-0.66C-15.781,-0.22 -15.438,0 -14.781,0L-13.892,0C-13.235,0 -12.891,-0.22 -12.864,-0.66L-12.864,-8.185C-12.339,-11.284 -11.174,-12.841 -9.372,-12.862C-7.475,-12.862 -6.526,-11.144 -6.526,-7.716L-6.526,-0.66C-6.497,-0.22 -6.154,0 -5.496,0L-4.609,0C-3.951,0 -3.608,-0.22 -3.58,-0.66L-3.58,-7.802C-3.3,-11.164 -2.272,-12.85 -0.496,-12.862C1.215,-12.862 2.069,-11.144 2.069,-7.716L2.069,-0.66C2.095,-0.22 2.438,0 3.096,0L3.981,0C4.642,0 4.982,-0.22 5.012,-0.66L5.012,-8.314C5.012,-13.118 3.339,-15.522 0,-15.522" style="fill:#1b3556;fill-rule:nonzero;"/>
                </g>
                <g transform="matrix(1.27715,0,0,1.27715,2517.58,-294.868)">
                    <path d="M0,28.035L-20.056,28.035C-20.056,28.035 -20.936,28.07 -21.165,28.07C-22.056,28.07 -23.056,29.68 -23.056,29.68L-5.72,-9.962L2.748,25.795C2.768,25.889 3.187,28.035 0,28.035M36.773,73.434L7.647,-48.421C6.703,-48.411 -7.748,-48.421 -9.586,-48.421C-13.234,-48.421 -14.533,-46.692 -15.318,-45.121L-68.78,76.456L-47.821,76.456C-43.665,76.456 -42.949,74.633 -42.312,73.223L-30.082,45.598L2.933,45.455C6.871,45.455 7.963,48.184 7.963,48.184L14.642,76.456L32.273,76.456C32.273,76.456 37.501,76.456 36.773,73.434" style="fill:#1b3556;fill-rule:nonzero;"/>
                </g>
                <g transform="matrix(1.27715,0,0,1.27715,2725.11,-197.222)">
                    <path d="M0,-124.877C-5.266,-124.877 -8.051,-124.877 -11.184,-119.077L-51.64,-44.433C-51.64,-44.433 -52.172,-43.488 -52.323,-43.184C-53.132,-41.564 -53.035,-39.334 -53.035,-39.334L-67.016,-124.877L-87.344,-124.877C-92.836,-124.877 -96.846,-124.877 -97.914,-118.404L-120.419,0C-117.789,-0.092 -106.592,0 -106.592,0C-97.118,0 -97.118,0 -95.945,-6.388L-82.649,-76.666L-70.47,-1.695C-62.729,-1.681 -69.767,-1.681 -62.729,-1.681L-58.862,-1.681C-51.289,-1.695 -51.289,-1.695 -48.501,-6.726L-10.987,-76.162L-25.456,0L-10.926,0C-2.293,0 -2.293,0 -0.943,-6.473L21.574,-124.877L0,-124.877Z" style="fill:#1b3556;fill-rule:nonzero;"/>
                </g>
                <g transform="matrix(1.27715,0,0,1.27715,2612.71,-154.681)">
                    <path d="M0,-10.712C1.636,-10.712 2.562,-10.13 2.774,-8.976L2.774,-8.892C2.774,-7.82 2.039,-7.083 0.563,-6.683C-0.055,-6.512 -0.682,-6.427 -1.311,-6.427C-2.204,-6.427 -3.117,-6.549 -4.058,-6.791C-3.616,-9.216 -2.262,-10.521 0,-10.712M5.706,-1.202L4.029,-1.976C3.897,-2.022 3.78,-2.046 3.676,-2.046C3.519,-2.046 3.403,-1.985 3.339,-1.862C2.653,-0.708 1.54,-0.128 0,-0.128C-2.27,-0.128 -3.612,-1.5 -4.015,-4.241C-3.149,-4.139 -2.3,-4.087 -1.464,-4.087C2.94,-4.293 5.188,-5.962 5.283,-9.09C4.954,-11.699 3.24,-13.033 0.139,-13.089C-4.251,-12.996 -6.602,-10.451 -6.904,-5.455C-6.883,-0.325 -4.582,2.285 0,2.377C2.817,2.32 4.77,1.326 5.859,-0.608C5.908,-0.692 5.932,-0.777 5.932,-0.863C5.932,-0.993 5.854,-1.106 5.706,-1.202" style="fill:#1b3556;fill-rule:nonzero;"/>
                </g>
                <g transform="matrix(1.27715,0,0,1.27715,2634.39,-151.536)">
                    <path d="M0,-15.551C-2.112,-15.505 -3.499,-14.731 -4.154,-13.228L-4.154,-14.861C-4.182,-15.301 -4.525,-15.523 -5.18,-15.523L-6.113,-15.523C-6.771,-15.523 -7.11,-15.301 -7.141,-14.861L-7.141,-0.66C-7.084,-0.221 -6.725,0 -6.071,0L-5.18,0C-4.525,0 -4.182,-0.221 -4.154,-0.66L-4.154,-8.974C-4.144,-11.256 -3.131,-12.448 -1.113,-12.549C-0.52,-12.608 -0.12,-12.842 0.085,-13.255L0.706,-14.762C0.742,-14.878 0.763,-14.975 0.763,-15.057C0.763,-15.386 0.51,-15.551 0,-15.551" style="fill:#1b3556;fill-rule:nonzero;"/>
                </g>
                <g transform="matrix(1.27715,0,0,1.27715,2641.37,-151.537)">
                    <path d="M0,-15.522L-0.889,-15.522C-1.547,-15.522 -1.886,-15.3 -1.914,-14.86L-1.914,-0.66C-1.886,-0.22 -1.547,0 -0.889,0L0,0C0.658,0 1.003,-0.22 1.028,-0.66L1.028,-14.86C1.003,-15.3 0.658,-15.522 0,-15.522" style="fill:#1b3556;fill-rule:nonzero;"/>
                </g>
                <g transform="matrix(1.27715,0,0,1.27715,2641.42,-174.908)">
                    <path d="M0,-2.842L-0.973,-2.842C-1.631,-2.842 -1.958,-2.604 -1.958,-2.125L-1.958,-0.702C-1.958,-0.233 -1.631,0 -0.973,0L0,0C0.666,0 1,-0.233 1,-0.702L1,-2.125C1,-2.604 0.666,-2.842 0,-2.842" style="fill:#1b3556;fill-rule:nonzero;"/>
                </g>
                <g transform="matrix(1.27715,0,0,1.27715,2657.07,-155.039)">
                    <path d="M0,-10.205C1.54,-10.205 2.653,-9.674 3.341,-8.611C3.402,-8.487 3.516,-8.427 3.675,-8.427C3.78,-8.427 3.896,-8.452 4.03,-8.499L5.704,-9.271C5.854,-9.368 5.93,-9.477 5.93,-9.61C5.93,-9.694 5.907,-9.783 5.86,-9.865C4.769,-11.799 2.819,-12.796 0,-12.851C-4.581,-12.757 -6.884,-10.161 -6.902,-5.06C-6.884,-0.018 -4.581,2.551 0,2.646C2.819,2.588 4.769,1.593 5.86,-0.342C5.907,-0.428 5.93,-0.511 5.93,-0.597C5.93,-0.727 5.854,-0.839 5.704,-0.937L4.03,-1.708C3.896,-1.757 3.78,-1.779 3.675,-1.779C3.516,-1.779 3.402,-1.718 3.341,-1.596C2.653,-0.537 1.54,-0.007 0,-0.007C-2.499,-0.007 -3.786,-1.688 -3.859,-5.06C-3.786,-8.487 -2.499,-10.205 0,-10.205" style="fill:#1b3556;fill-rule:nonzero;"/>
                </g>
                <g transform="matrix(1.27715,0,0,1.27715,2681.72,-162.657)">
                    <path d="M0,1.876C-0.63,4.496 -2.005,5.809 -4.128,5.817C-6.271,5.817 -7.337,4.208 -7.337,0.99C-7.068,-2.353 -5.632,-4.071 -3.043,-4.166C-1.578,-4.166 -0.564,-3.842 0,-3.195L0,1.876ZM-2.943,-6.831C-7.283,-6.644 -9.675,-4.026 -10.115,1.018C-10.115,6.145 -8.059,8.707 -3.945,8.707C-2.111,8.518 -0.798,7.781 0,6.498L0,8.047C0.028,8.486 0.371,8.707 1.027,8.707L1.913,8.707C2.572,8.707 2.916,8.486 2.944,8.047L2.944,-4.393C2.07,-6.019 0.109,-6.831 -2.943,-6.831" style="fill:#1b3556;fill-rule:nonzero;"/>
                </g>
                <g transform="matrix(1.27715,0,0,1.27715,2699.32,-151.537)">
                    <path d="M0,-15.538C-1.828,-15.35 -3.145,-14.61 -3.944,-13.327L-3.944,-14.86C-3.971,-15.301 -4.268,-15.522 -4.832,-15.522L-5.998,-15.522C-6.564,-15.522 -6.856,-15.301 -6.886,-14.86L-6.886,-0.66C-6.856,-0.221 -6.514,0 -5.856,0L-4.969,0C-4.314,0 -3.971,-0.221 -3.944,-0.66L-3.944,-8.706C-3.315,-11.324 -1.936,-12.641 0.184,-12.65C2.231,-12.65 3.258,-11.174 3.258,-8.227L3.258,-0.66C3.28,-0.221 3.628,0 4.285,0L5.171,0C5.829,0 6.17,-0.221 6.2,-0.66L6.2,-8.17L6.17,-8.17C6.086,-13.082 4.033,-15.538 0,-15.538" style="fill:#1b3556;fill-rule:nonzero;"/>
                </g>
                <g transform="matrix(1.27715,0,0,1.27715,2724.93,-162.657)">
                    <path d="M0,1.876C-0.63,4.496 -2.003,5.809 -4.128,5.817C-6.268,5.817 -7.338,4.208 -7.338,0.99C-7.063,-2.353 -5.633,-4.071 -3.041,-4.166C-1.577,-4.166 -0.563,-3.842 0,-3.195L0,1.876ZM-2.941,-6.831C-7.282,-6.644 -9.673,-4.026 -10.112,1.018C-10.112,6.145 -8.059,8.707 -3.941,8.707C-2.111,8.518 -0.797,7.781 0,6.498L0,8.047C0.03,8.486 0.371,8.707 1.029,8.707L1.919,8.707C2.574,8.707 2.916,8.486 2.945,8.047L2.945,-4.393C2.074,-6.019 0.109,-6.831 -2.941,-6.831" style="fill:#1b3556;fill-rule:nonzero;"/>
                </g>
            </g>
        </g>
    </g>
</svg>
