<?xml version="1.0" encoding="UTF-8" standalone="no"?>
<!DOCTYPE svg PUBLIC "-//W3C//DTD SVG 1.1//EN" "http://www.w3.org/Graphics/SVG/1.1/DTD/svg11.dtd">
<svg width="100%" height="100%" viewBox="0 0 935 241" version="1.1" xmlns="http://www.w3.org/2000/svg" xmlns:xlink="http://www.w3.org/1999/xlink" xml:space="preserve" xmlns:serif="http://www.serif.com/" style="fill-rule:evenodd;clip-rule:evenodd;stroke-linejoin:round;stroke-miterlimit:2;">
    <g transform="matrix(1,0,0,1,-128.297,-129.249)">
        <g transform="matrix(6.12323e-17,1,-1,6.12323e-17,505.127,279.511)">
            <path d="M0,-542.327L-140.414,-542.327L-140.414,-557.456L0,-557.456L0,-542.327ZM-126.917,-27.925L-126.917,15.129L-140.414,15.129L-140.414,-85.7L-126.917,-85.7L-126.917,-42.85L0,-42.85L0,-27.925L-126.917,-27.925ZM0,-107.707L-140.414,-107.707L-140.414,-122.836L0,-122.836L0,-107.707ZM-30.193,-205.87L-140.414,-250.402L-140.414,-265.878L2.857,-206.628L2.857,-204.7L-140.414,-145.452L-140.414,-161.54L-30.193,-205.87ZM1.633,-342.375C1.633,-301.784 -29.48,-270.333 -70.207,-270.333C-110.934,-270.333 -142.047,-301.785 -142.047,-342.375C-142.047,-382.967 -110.935,-414.42 -70.207,-414.42C-29.479,-414.42 1.633,-382.967 1.633,-342.375ZM-12.069,-342.375C-12.069,-375.489 -37.54,-398.881 -70.207,-398.881C-102.875,-398.881 -128.345,-375.489 -128.345,-342.375C-128.345,-309.262 -102.875,-285.87 -70.207,-285.87C-37.54,-285.87 -12.069,-309.262 -12.069,-342.375ZM-13.498,-454.005L-13.498,-518.484L0,-518.484L0,-439.079L-140.414,-439.079L-140.414,-454.005L-13.498,-454.005" style="fill:rgb(67,29,29);fill-rule:nonzero;"/>
        </g>
        <g transform="matrix(6.12323e-17,1,-1,6.12323e-17,174.818,226.686)">
            <path d="M0,-162.434L-11.514,-139.565L123.361,-139.565L123.361,-162.434L0,-162.434ZM-29.814,46.521L-9.665,46.521L1.849,23.653L-29.814,23.653L-29.814,46.521ZM-74.895,-69.392L-74.895,-46.523L-11.233,-46.523L-22.748,-69.392L-74.895,-69.392ZM4.394,-46.523L120.648,-46.523L120.648,-69.392L-7.121,-69.392L4.394,-46.523ZM17.476,23.653L5.962,46.521L75.566,46.521L75.566,23.653L17.476,23.653ZM-52.355,-186.087L32.027,-186.087L43.542,-208.955L-52.355,-208.955L-52.355,-186.087ZM59.166,-208.955L47.652,-186.087L98.106,-186.087L98.106,-208.955L59.166,-208.955ZM-74.895,-139.565L-27.141,-139.565L-15.627,-162.434L-74.895,-162.434L-74.895,-139.565" style="fill:rgb(67,29,29);fill-rule:nonzero;"/>
        </g>
        <g transform="matrix(6.12323e-17,1,-1,6.12323e-17,1041.77,347.418)">
            <path d="M0,497.344C-4.073,497.344 -5.744,500.201 -7.368,503.555L-8.76,506.431C-10.668,510.371 -12.585,513.766 -17.44,513.766C-22.214,513.766 -25.23,509.906 -25.23,505.328C-25.23,501.349 -23.782,498.474 -20.385,496.364L-19.66,495.912L-18.171,498.461L-18.855,498.888C-21.311,500.423 -22.27,502.452 -22.27,505.328C-22.27,508.213 -20.463,510.666 -17.44,510.666C-13.932,510.666 -12.828,507.837 -11.46,505.053L-10.069,502.224C-7.876,497.76 -5.36,494.244 0,494.244C5.877,494.244 8.719,498.991 8.719,504.445C8.719,509.325 6.395,513.29 2.109,515.57L1.388,515.953L-0.118,513.244L0.634,512.848C3.878,511.138 5.711,508.124 5.711,504.445C5.711,500.744 4.103,497.344 0,497.344ZM-5.609,423.3L-24.86,423.3L-24.86,420.154L8.349,420.154L8.349,423.3L-2.646,423.3L-2.646,440.473L8.349,440.473L8.349,443.62L-24.86,443.62L-24.86,440.473L-5.609,440.473L-5.609,423.3ZM8.719,353.298C8.719,362.862 1.329,370.272 -8.256,370.272C-17.841,370.272 -25.23,362.862 -25.23,353.298C-25.23,343.733 -17.841,336.323 -8.256,336.323C1.33,336.323 8.719,343.732 8.719,353.298ZM0.137,283.294L8.349,283.294L8.349,286.441L-24.86,286.441L-24.86,279.904C-24.86,272.107 -20.327,266.455 -12.338,266.455C-4.344,266.455 0.137,272.119 0.137,279.904L0.137,283.294ZM0.137,212.962L8.349,212.962L8.349,216.109L-24.86,216.109L-24.86,209.572C-24.86,201.775 -20.327,196.123 -12.338,196.123C-4.344,196.123 0.137,201.787 0.137,209.572L0.137,212.962ZM8.349,145.591L-24.859,145.591L-24.859,142.443L8.349,142.443L8.349,145.591ZM-18.528,86.818L8.349,86.818L8.349,89.825L-25.648,89.825L-25.648,88.394L2.015,67.558L-24.86,67.558L-24.86,64.551L9.137,64.551L9.137,65.983L-18.528,86.818ZM-2.646,-14.962L-2.646,-2.078L-5.609,-2.078L-5.609,-18.609L-4.669,-18.485C3.79,-17.373 8.719,-10.756 8.719,-2.352C8.719,7.3 1.43,14.669 -8.256,14.669C-17.797,14.669 -25.23,7.391 -25.23,-2.166C-25.23,-7.786 -23.224,-12.591 -18.629,-15.965L-17.953,-16.461L-16.14,-13.944L-16.819,-13.459C-20.647,-10.724 -22.223,-6.782 -22.223,-2.166C-22.223,5.811 -16.147,11.475 -8.256,11.475C-0.312,11.475 5.711,5.624 5.711,-2.352C5.711,-8.167 2.948,-13.267 -2.646,-14.962ZM5.711,353.298C5.711,345.313 -0.319,339.516 -8.256,339.516C-16.192,339.516 -22.223,345.314 -22.223,353.298C-22.223,361.281 -16.192,367.079 -8.256,367.079C-0.32,367.079 5.711,361.281 5.711,353.298ZM-2.825,283.294L-2.825,280.089C-2.825,273.754 -5.812,269.602 -12.338,269.602C-18.862,269.602 -21.899,273.739 -21.899,280.089L-21.899,283.294L-2.825,283.294ZM-2.825,212.962L-2.825,209.757C-2.825,203.421 -5.811,199.269 -12.338,199.269C-18.863,199.269 -21.899,203.407 -21.899,209.757L-21.899,212.962L-2.825,212.962" style="fill:rgb(35,31,32);"/>
        </g>
        <g transform="matrix(6.12323e-17,1,-1,6.12323e-17,197.687,250.744)">
            <path d="M0,-209.74L51.508,-209.74L51.508,-232.608L-11.514,-232.608L0,-209.74ZM-121.495,-70.175L40.317,-70.175L51.831,-93.043L-121.495,-93.043L-121.495,-70.175ZM67.456,-93.043L55.94,-70.175L119.132,-70.175L119.132,-93.043L67.456,-93.043ZM-76.413,22.868L14.645,22.868L26.159,-0L-76.413,-0L-76.413,22.868ZM41.784,-0L30.27,22.868L74.048,22.868L74.048,-0L41.784,-0ZM-53.871,-232.608L-53.871,-209.74L-15.625,-209.74L-27.14,-232.608L-53.871,-232.608" style="fill:rgb(130,135,11);"/>
        </g>
    </g>
</svg>
