<?xml version="1.0" encoding="UTF-8" standalone="no"?>
<!DOCTYPE svg PUBLIC "-//W3C//DTD SVG 1.1//EN" "http://www.w3.org/Graphics/SVG/1.1/DTD/svg11.dtd">
<svg width="100%" height="100%" viewBox="0 0 72 72" version="1.1" xmlns="http://www.w3.org/2000/svg" xmlns:xlink="http://www.w3.org/1999/xlink" xml:space="preserve" xmlns:serif="http://www.serif.com/" style="fill-rule:evenodd;clip-rule:evenodd;stroke-linejoin:round;stroke-miterlimit:2;">
    <g transform="matrix(1,0,0,1,-225.67,-45.9968)">
        <g transform="matrix(1,0,0,1,23.8786,13.4474)">
            <g transform="matrix(1,0,0,1,182.587,-8.65194)">
                <path d="M54.708,41.201C74.303,41.201 90.211,57.11 90.211,76.705C90.211,96.299 74.303,112.208 54.708,112.208C35.113,112.208 19.205,96.299 19.205,76.705C19.205,57.11 35.113,41.201 54.708,41.201ZM74.347,69.42C74.195,69.118 73.998,68.851 73.766,68.617C73.41,68.258 72.975,67.989 72.476,67.828C71.66,67.563 70.792,67.632 70.024,68.02L65.023,70.566L65.018,70.572L57.121,74.585C57.076,74.528 57.042,74.472 56.997,74.426C56.952,74.38 56.89,74.34 56.839,74.3L60.94,66.444L60.946,66.438L63.541,61.462C63.936,60.698 64.014,59.83 63.757,59.012C63.606,58.518 63.336,58.074 62.98,57.714C62.749,57.481 62.483,57.281 62.183,57.126C61.419,56.731 60.551,56.653 59.733,56.91C58.914,57.167 58.248,57.725 57.852,58.49L56.495,61.099C55.807,62.412 56.174,64.014 57.356,64.9L59.216,66.299L55.43,73.561C54.489,73.353 53.489,73.575 52.708,74.212C48.689,72.127 43.777,72.835 40.532,76.048L34.26,82.26C33.946,82.571 33.944,83.081 34.254,83.395C34.565,83.709 35.076,83.711 35.389,83.4L41.662,77.189C44.348,74.529 48.391,73.89 51.731,75.518C51.283,76.662 51.515,78.014 52.435,78.944C53.35,79.867 54.688,80.112 55.837,79.686C56.404,80.875 56.71,82.176 56.703,83.504C56.692,85.865 55.762,88.073 54.085,89.734L47.813,95.945C47.499,96.256 47.497,96.767 47.807,97.08C48.118,97.394 48.629,97.397 48.942,97.086L55.215,90.874C57.199,88.909 58.296,86.298 58.315,83.512C58.323,81.844 57.911,80.219 57.164,78.745C57.82,77.971 58.052,76.962 57.852,76.019L65.151,72.303L66.532,74.177C67.412,75.362 69.01,75.744 70.324,75.075L72.947,73.743C73.715,73.355 74.28,72.694 74.545,71.878C74.804,71.057 74.74,70.182 74.347,69.42ZM58.31,63.616C57.756,63.205 57.589,62.455 57.91,61.844L59.267,59.234C59.468,58.855 59.798,58.573 60.207,58.45C60.617,58.327 61.053,58.358 61.433,58.558C62.22,58.965 62.527,59.937 62.115,60.718L59.955,64.856L58.31,63.616ZM53.576,77.814C52.955,77.187 52.96,76.165 53.587,75.544C54.214,74.923 55.236,74.928 55.857,75.555C56.478,76.183 56.473,77.204 55.846,77.825C55.219,78.446 54.197,78.441 53.576,77.814ZM72.216,72.309L69.594,73.642C69.036,73.923 68.384,73.812 67.955,73.378C67.91,73.333 67.864,73.276 67.819,73.219L66.596,71.561L70.755,69.442C71.545,69.043 72.509,69.354 72.908,70.145C73.104,70.526 73.136,70.958 73.004,71.371C72.871,71.785 72.597,72.113 72.216,72.309Z" style="fill:rgb(3,60,130);"/>
            </g>
        </g>
    </g>
</svg>
