<?xml version="1.0" encoding="UTF-8" standalone="no"?>
<!DOCTYPE svg PUBLIC "-//W3C//DTD SVG 1.1//EN" "http://www.w3.org/Graphics/SVG/1.1/DTD/svg11.dtd">
<svg width="100%" height="100%" viewBox="0 0 442 246" version="1.1" xmlns="http://www.w3.org/2000/svg" xmlns:xlink="http://www.w3.org/1999/xlink" xml:space="preserve" xmlns:serif="http://www.serif.com/" style="fill-rule:evenodd;clip-rule:evenodd;stroke-linejoin:round;stroke-miterlimit:2;">
    <g transform="matrix(1,0,0,1,-169.212,-859)">
        <g transform="matrix(1,0,0,1,188,72)">
            <g transform="matrix(1.17173,0,0,1.17173,-118.892,736.135)">
                <g transform="matrix(108.892,0,0,108.892,208,161)">
                    <path d="M0.05,-0L0.178,-0C0.197,-0 0.208,-0.011 0.208,-0.03L0.208,-0.184C0.208,-0.203 0.212,-0.209 0.231,-0.209L0.281,-0.209C0.321,-0.209 0.323,-0.172 0.328,-0.138L0.345,-0.032C0.348,-0.011 0.362,-0 0.383,-0L0.508,-0C0.528,-0 0.538,-0.012 0.535,-0.032L0.506,-0.202C0.496,-0.26 0.489,-0.282 0.467,-0.293C0.461,-0.297 0.46,-0.301 0.465,-0.306C0.496,-0.334 0.515,-0.378 0.515,-0.433L0.515,-0.476C0.515,-0.638 0.408,-0.66 0.313,-0.66L0.05,-0.66C0.031,-0.66 0.02,-0.649 0.02,-0.63L0.02,-0.03C0.02,-0.011 0.031,-0 0.05,-0ZM0.207,-0.465C0.207,-0.484 0.212,-0.49 0.231,-0.49L0.271,-0.49C0.316,-0.49 0.326,-0.477 0.326,-0.434C0.326,-0.389 0.317,-0.373 0.271,-0.373L0.232,-0.373C0.213,-0.373 0.208,-0.379 0.208,-0.399L0.207,-0.465Z" style="fill:rgb(141,82,161);fill-rule:nonzero;"/>
                </g>
                <g transform="matrix(108.892,0,0,108.892,266.366,161)">
                    <path d="M0.337,0.008C0.528,0.008 0.652,-0.139 0.653,-0.332C0.654,-0.527 0.534,-0.67 0.337,-0.67C0.139,-0.67 0.019,-0.528 0.02,-0.333C0.021,-0.143 0.141,0.008 0.337,0.008ZM0.212,-0.328C0.211,-0.432 0.256,-0.5 0.336,-0.5C0.416,-0.5 0.461,-0.434 0.461,-0.328C0.461,-0.225 0.403,-0.162 0.337,-0.162C0.26,-0.162 0.213,-0.225 0.212,-0.328Z" style="fill:rgb(141,82,161);fill-rule:nonzero;"/>
                </g>
                <g transform="matrix(108.892,0,0,108.892,330.939,161)">
                    <path d="M0.038,-0L0.192,-0C0.204,-0 0.215,-0.006 0.22,-0.017L0.301,-0.178C0.304,-0.184 0.311,-0.183 0.313,-0.178L0.392,-0.017C0.397,-0.006 0.408,-0 0.42,-0L0.573,-0C0.587,-0 0.596,-0.013 0.589,-0.027L0.439,-0.322C0.435,-0.331 0.434,-0.341 0.439,-0.35L0.589,-0.633C0.596,-0.647 0.587,-0.66 0.572,-0.66L0.42,-0.66C0.409,-0.66 0.397,-0.654 0.392,-0.644L0.308,-0.486C0.305,-0.48 0.298,-0.482 0.296,-0.487L0.22,-0.642C0.215,-0.653 0.203,-0.66 0.191,-0.66L0.039,-0.66C0.025,-0.66 0.016,-0.647 0.023,-0.633L0.168,-0.347C0.172,-0.338 0.172,-0.329 0.168,-0.32L0.022,-0.026C0.016,-0.013 0.024,-0 0.038,-0Z" style="fill:rgb(141,82,161);fill-rule:nonzero;"/>
                </g>
                <g transform="matrix(108.892,0,0,108.892,390.938,161)">
                    <path d="M0.337,0.008C0.528,0.008 0.652,-0.139 0.653,-0.332C0.654,-0.527 0.534,-0.67 0.337,-0.67C0.139,-0.67 0.019,-0.528 0.02,-0.333C0.021,-0.143 0.141,0.008 0.337,0.008ZM0.212,-0.328C0.211,-0.432 0.256,-0.5 0.336,-0.5C0.416,-0.5 0.461,-0.434 0.461,-0.328C0.461,-0.225 0.403,-0.162 0.337,-0.162C0.26,-0.162 0.213,-0.225 0.212,-0.328Z" style="fill:rgb(141,82,161);fill-rule:nonzero;"/>
                </g>
            </g>
        </g>
        <g transform="matrix(1,0,0,1,188,72)">
            <g transform="matrix(0.293915,0,0,0.293915,65.6054,786.315)">
                <g transform="matrix(108.892,0,0,108.892,208,161)">
                    <path d="M0.051,-0L0.177,-0C0.194,-0 0.208,-0.014 0.208,-0.031L0.208,-0.254C0.208,-0.261 0.217,-0.263 0.219,-0.256L0.28,-0.028C0.285,-0.011 0.299,-0 0.316,-0L0.438,-0C0.455,-0 0.469,-0.011 0.474,-0.028L0.535,-0.256C0.537,-0.263 0.546,-0.261 0.546,-0.254L0.546,-0.031C0.546,-0.014 0.56,-0 0.577,-0L0.703,-0C0.72,-0 0.734,-0.014 0.734,-0.031L0.734,-0.629C0.734,-0.646 0.72,-0.66 0.703,-0.66L0.507,-0.66C0.492,-0.66 0.479,-0.652 0.474,-0.638L0.394,-0.41C0.388,-0.393 0.373,-0.393 0.367,-0.41L0.281,-0.639C0.276,-0.653 0.261,-0.66 0.247,-0.66L0.051,-0.66C0.034,-0.66 0.02,-0.646 0.02,-0.629L0.02,-0.031C0.02,-0.014 0.034,-0 0.051,-0Z" style="fill:rgb(69,0,101);fill-rule:nonzero;"/>
                </g>
                <g transform="matrix(108.892,0,0,108.892,290.104,161)">
                    <path d="M0.053,-0L0.179,-0C0.191,-0 0.202,-0.007 0.206,-0.02L0.227,-0.086C0.232,-0.102 0.243,-0.113 0.259,-0.113L0.371,-0.113C0.388,-0.113 0.399,-0.104 0.404,-0.089L0.428,-0.019C0.432,-0.008 0.442,-0 0.454,-0L0.581,-0C0.605,-0 0.621,-0.02 0.614,-0.044L0.455,-0.633C0.45,-0.65 0.436,-0.66 0.419,-0.66L0.208,-0.66C0.191,-0.66 0.176,-0.649 0.172,-0.633L0.021,-0.043C0.015,-0.019 0.029,-0 0.053,-0ZM0.277,-0.299L0.306,-0.417C0.309,-0.43 0.317,-0.431 0.32,-0.418L0.346,-0.3C0.349,-0.285 0.344,-0.275 0.326,-0.275L0.297,-0.275C0.282,-0.275 0.273,-0.284 0.277,-0.299Z" style="fill:rgb(69,0,101);fill-rule:nonzero;"/>
                </g>
                <g transform="matrix(108.892,0,0,108.892,359.359,161)">
                    <path d="M0.05,-0L0.178,-0C0.197,-0 0.208,-0.011 0.208,-0.03L0.208,-0.184C0.208,-0.203 0.212,-0.209 0.231,-0.209L0.281,-0.209C0.321,-0.209 0.323,-0.172 0.328,-0.138L0.345,-0.032C0.348,-0.011 0.362,-0 0.383,-0L0.508,-0C0.528,-0 0.538,-0.012 0.535,-0.032L0.506,-0.202C0.496,-0.26 0.489,-0.282 0.467,-0.293C0.461,-0.297 0.46,-0.301 0.465,-0.306C0.496,-0.334 0.515,-0.378 0.515,-0.433L0.515,-0.476C0.515,-0.638 0.408,-0.66 0.313,-0.66L0.05,-0.66C0.031,-0.66 0.02,-0.649 0.02,-0.63L0.02,-0.03C0.02,-0.011 0.031,-0 0.05,-0ZM0.207,-0.465C0.207,-0.484 0.212,-0.49 0.231,-0.49L0.271,-0.49C0.316,-0.49 0.326,-0.477 0.326,-0.434C0.326,-0.389 0.317,-0.373 0.271,-0.373L0.232,-0.373C0.213,-0.373 0.208,-0.379 0.208,-0.399L0.207,-0.465Z" style="fill:rgb(69,0,101);fill-rule:nonzero;"/>
                </g>
                <g transform="matrix(108.892,0,0,108.892,417.725,161)">
                    <path d="M0.554,-0.132L0.441,-0.206C0.428,-0.215 0.415,-0.21 0.405,-0.197C0.388,-0.175 0.365,-0.162 0.337,-0.162C0.26,-0.162 0.213,-0.235 0.212,-0.328C0.211,-0.422 0.256,-0.5 0.336,-0.5C0.368,-0.5 0.391,-0.488 0.408,-0.467C0.416,-0.456 0.429,-0.452 0.441,-0.458L0.561,-0.524C0.575,-0.532 0.579,-0.547 0.57,-0.56C0.521,-0.629 0.443,-0.67 0.337,-0.67C0.139,-0.67 0.019,-0.528 0.02,-0.333C0.021,-0.172 0.107,-0.039 0.252,-0.002L0.222,0.099C0.219,0.11 0.226,0.119 0.237,0.12C0.272,0.124 0.325,0.135 0.321,0.155C0.317,0.176 0.297,0.186 0.241,0.184C0.224,0.183 0.211,0.193 0.211,0.209L0.209,0.292C0.209,0.305 0.216,0.314 0.228,0.316C0.376,0.344 0.465,0.279 0.478,0.193C0.484,0.154 0.474,0.079 0.396,0.057C0.385,0.054 0.38,0.044 0.383,0.035L0.395,0.003C0.465,-0.009 0.521,-0.044 0.561,-0.095C0.57,-0.108 0.567,-0.123 0.554,-0.132Z" style="fill:rgb(69,0,101);fill-rule:nonzero;"/>
                </g>
                <g transform="matrix(108.892,0,0,108.892,481.427,161)">
                    <path d="M0.337,0.008C0.528,0.008 0.652,-0.139 0.653,-0.332C0.654,-0.527 0.534,-0.67 0.337,-0.67C0.139,-0.67 0.019,-0.528 0.02,-0.333C0.021,-0.143 0.141,0.008 0.337,0.008ZM0.212,-0.328C0.211,-0.432 0.256,-0.5 0.336,-0.5C0.416,-0.5 0.461,-0.434 0.461,-0.328C0.461,-0.225 0.403,-0.162 0.337,-0.162C0.26,-0.162 0.213,-0.225 0.212,-0.328Z" style="fill:rgb(69,0,101);fill-rule:nonzero;"/>
                </g>
            </g>
        </g>
        <g transform="matrix(1,0,0,1,188,72)">
            <g transform="matrix(0.643623,0,0,0.643623,-6.69575,280.469)">
                <g transform="matrix(1,0,0,1,-143.808,557.516)">
                    <path d="M613.266,550.061C460.836,567.557 350.152,500.717 282.141,438.316C274.314,431.141 180.688,344.66 178.215,279.484C163.697,289.045 154.803,303.012 153.207,318.865C147.613,374.277 268.895,492.467 279.479,502.078C381.234,594.561 492.152,621.912 608.711,606.961L586.539,578.277L613.266,550.061Z" style="fill:url(#_Linear1);"/>
                </g>
                <g transform="matrix(1,0,0,1,-144.29,557.945)">
                    <path d="M247.426,354.523C267.59,330.695 274.426,309.404 276.578,294.055C290.074,305.004 298.109,319.785 297.516,335.719C297.238,339.98 296.438,344.27 295.32,348.531C292.787,358.156 288.84,367.252 283.635,375.664C281.756,378.703 186.57,519.224 141.508,549.908C141.281,548.51 125.502,479.436 125.502,479.436C152.578,459.646 184.283,426.799 208.619,399.695C229.566,376.396 245.051,357.336 247.426,354.523Z" style="fill:url(#_Linear2);"/>
                </g>
                <g transform="matrix(1,0,0,1,-144.534,557.808)">
                    <path d="M290.549,308.422C289.266,304.221 279.426,274.188 275.984,263.266C275.984,263.266 276.123,263.691 276.332,264.523C276.211,264.109 276.098,263.68 275.984,263.266C273.574,255.633 270.484,248.719 265.238,243.383C259.742,237.783 253.602,233.873 246.682,231.629C240.578,229.646 215.641,228.398 209.398,229.773C202.283,231.313 195.773,234.58 189.75,239.6C183.988,244.393 180.219,250.938 177.066,258.307C176.967,258.531 176.879,258.773 176.777,259.012C176.955,258.545 177.066,258.307 177.066,258.307C172.539,268.813 159.75,297.723 158.039,301.773C157.629,302.758 157.162,303.754 156.746,304.738C206.268,271.234 244.93,273.115 291.523,311.512C291.191,310.477 290.881,309.453 290.549,308.422Z" style="fill:url(#_Linear3);"/>
                </g>
            </g>
        </g>
    </g>
    <defs>
        <linearGradient id="_Linear1" x1="0" y1="0" x2="1" y2="0" gradientUnits="userSpaceOnUse" gradientTransform="matrix(470.5,23.5556,-23.5556,470.5,147.369,434.554)"><stop offset="0" style="stop-color:rgb(111,58,150);stop-opacity:1"/><stop offset="0.5" style="stop-color:rgb(138,79,159);stop-opacity:1"/><stop offset="1" style="stop-color:rgb(107,58,150);stop-opacity:1"/></linearGradient>
        <linearGradient id="_Linear2" x1="0" y1="0" x2="1" y2="0" gradientUnits="userSpaceOnUse" gradientTransform="matrix(-325.474,-294.438,-294.438,325.474,380.433,267.558)"><stop offset="0" style="stop-color:rgb(111,58,150);stop-opacity:1"/><stop offset="0.5" style="stop-color:rgb(138,79,159);stop-opacity:1"/><stop offset="1" style="stop-color:rgb(107,58,150);stop-opacity:1"/></linearGradient>
        <linearGradient id="_Linear3" x1="0" y1="0" x2="1" y2="0" gradientUnits="userSpaceOnUse" gradientTransform="matrix(134.779,6.7477,-6.7477,134.779,158.715,265.416)"><stop offset="0" style="stop-color:rgb(138,79,159);stop-opacity:1"/><stop offset="1" style="stop-color:rgb(145,86,163);stop-opacity:1"/></linearGradient>
    </defs>
</svg>
