<?xml version="1.0" encoding="UTF-8" standalone="no"?>
<!DOCTYPE svg PUBLIC "-//W3C//DTD SVG 1.1//EN" "http://www.w3.org/Graphics/SVG/1.1/DTD/svg11.dtd">
<svg width="100%" height="100%" viewBox="0 0 50 50" version="1.1" xmlns="http://www.w3.org/2000/svg" xmlns:xlink="http://www.w3.org/1999/xlink" xml:space="preserve" xmlns:serif="http://www.serif.com/" style="fill-rule:evenodd;clip-rule:evenodd;stroke-linejoin:round;stroke-miterlimit:2;">
    <g transform="matrix(1,0,0,1,-288,-394.5)">
        <g transform="matrix(1,0,0,1.63871,25,-139.877)">
            <g transform="matrix(1.06383,0,0,0.649187,206.617,267.67)">
                <path d="M76.5,90C89.479,90 100,100.521 100,113.5L100,113.5C100,126.479 89.479,137 76.5,137L76.5,137C63.521,137 53,126.479 53,113.5L53,113.5C53,100.521 63.521,90 76.5,90L76.5,90Z" style="fill:rgb(93,55,141);"/>
            </g>
        </g>
        <g transform="matrix(1,0,0,1.63871,25,-139.877)">
            <g transform="matrix(1.13636,0,0,0.69345,269.818,330.257)">
                <path d="M9.5,22L25,22C25.55,22 26,21.55 26,21L26,6C26,5.45 25.55,5 25,5L10,5C7.79,5 6,6.79 6,9L6,23.5C6,25.43 7.57,27 9.5,27L25,27C25.55,27 26,26.55 26,26C26,25.45 25.55,25 25,25L9.5,25C8.67,25 8,24.33 8,23.5C8,22.67 8.67,22 9.5,22ZM8,9C8,7.9 8.9,7 10,7L24,7L24,20L9.5,20C8.96,20 8.46,20.13 8,20.35L8,9Z" style="fill:white;fill-rule:nonzero;"/>
            </g>
        </g>
        <g transform="matrix(1,0,0,1.63871,25,-139.877)">
            <g transform="matrix(1.13636,0,0,0.69345,269.818,330.257)">
                <path d="M13,12L19,12C19.55,12 20,11.55 20,11C20,10.45 19.55,10 19,10L13,10C12.45,10 12,10.45 12,11C12,11.55 12.45,12 13,12Z" style="fill:white;fill-rule:nonzero;"/>
            </g>
        </g>
    </g>
</svg>
