<?xml version="1.0" encoding="UTF-8" standalone="no"?>
<!DOCTYPE svg PUBLIC "-//W3C//DTD SVG 1.1//EN" "http://www.w3.org/Graphics/SVG/1.1/DTD/svg11.dtd">
<svg width="100%" height="100%" viewBox="0 0 9738 7659" version="1.1" xmlns="http://www.w3.org/2000/svg" xmlns:xlink="http://www.w3.org/1999/xlink" xml:space="preserve" xmlns:serif="http://www.serif.com/" style="fill-rule:evenodd;clip-rule:evenodd;stroke-linejoin:round;stroke-miterlimit:2;">
    <g transform="matrix(1,0,0,1,-1627.5,-1962.71)">
        <g transform="matrix(4.16667,0,0,4.16667,0,0)">
            <g transform="matrix(1,0,0,1,-27,-231.84)">
                <rect x="1552.6" y="2077.43" width="81.777" height="242.56" style="fill:rgb(9,32,80);"/>
            </g>
        </g>
        <g transform="matrix(4.16667,0,0,4.16667,0,0)">
            <g transform="matrix(1,0,0,1,-27,-231.84)">
                <path d="M1664.18,2198.71C1664.18,2124.21 1721.35,2071.89 1799.32,2071.89C1846.79,2071.89 1884.21,2089.21 1908.12,2120.4L1856.49,2166.48C1842.29,2148.47 1825.31,2138.07 1803.48,2138.07C1769.52,2138.07 1746.65,2161.63 1746.65,2198.71C1746.65,2235.79 1769.52,2259.35 1803.48,2259.35C1825.31,2259.35 1842.29,2248.95 1856.49,2230.94L1908.12,2277.02C1884.21,2308.21 1846.79,2325.53 1799.32,2325.53C1721.35,2325.53 1664.18,2273.21 1664.18,2198.71" style="fill:rgb(9,32,80);fill-rule:nonzero;"/>
            </g>
        </g>
        <g transform="matrix(4.16667,0,0,4.16667,0,0)">
            <g transform="matrix(1,0,0,1,-27,-231.84)">
                <path d="M2070.99,2218.81L2047.43,2157.82L2023.86,2218.81L2070.99,2218.81ZM2093.51,2277.72L2001.34,2277.72L1985.05,2319.99L1901.89,2319.99L2007.92,2077.43L2088.32,2077.43L2194.35,2319.99L2109.8,2319.99L2093.51,2277.72Z" style="fill:rgb(9,32,80);fill-rule:nonzero;"/>
            </g>
        </g>
        <g transform="matrix(4.16667,0,0,4.16667,0,0)">
            <g transform="matrix(1,0,0,1,-27,-231.84)">
                <path d="M2446.62,2077.43L2446.62,2319.99L2379.39,2319.99L2287.22,2209.8L2287.22,2319.99L2207.52,2319.99L2207.52,2077.43L2274.75,2077.43L2366.92,2187.62L2366.92,2077.43L2446.62,2077.43Z" style="fill:rgb(9,32,80);fill-rule:nonzero;"/>
            </g>
        </g>
        <g transform="matrix(4.16667,0,0,4.16667,0,0)">
            <g transform="matrix(1,0,0,1,-27,-231.84)">
                <path d="M2628.89,2218.81L2605.32,2157.82L2581.76,2218.81L2628.89,2218.81ZM2651.41,2277.72L2559.24,2277.72L2542.95,2319.99L2459.79,2319.99L2565.82,2077.43L2646.21,2077.43L2752.24,2319.99L2667.69,2319.99L2651.41,2277.72Z" style="fill:rgb(9,32,80);fill-rule:nonzero;"/>
            </g>
        </g>
        <g transform="matrix(4.16667,0,0,4.16667,0,0)">
            <g transform="matrix(1,0,0,1,-27,-1638.58)">
                <path d="M2024.65,2914.85L2006.23,2870.39L1987.82,2914.85L2024.65,2914.85ZM2033.11,2935.26L1979.19,2935.26L1968.9,2960.15L1941.36,2960.15L1993.12,2844.01L2019.67,2844.01L2071.6,2960.15L2043.4,2960.15L2033.11,2935.26Z" style="fill:rgb(9,32,80);fill-rule:nonzero;"/>
            </g>
        </g>
        <g transform="matrix(4.16667,0,0,4.16667,0,0)">
            <g transform="matrix(1,0,0,1,-27,-1638.58)">
                <path d="M2168.68,2844.01L2168.68,2960.15L2146.61,2960.15L2088.71,2889.63L2088.71,2960.15L2062.16,2960.15L2062.16,2844.01L2084.39,2844.01L2142.13,2914.52L2142.13,2844.01L2168.68,2844.01Z" style="fill:rgb(9,32,80);fill-rule:nonzero;"/>
            </g>
        </g>
        <g transform="matrix(4.16667,0,0,4.16667,0,0)">
            <g transform="matrix(1,0,0,1,-27,-1638.58)">
                <path d="M2267.25,2902.08C2267.25,2880.01 2251.65,2864.91 2230.92,2864.91C2210.18,2864.91 2194.58,2880.01 2194.58,2902.08C2194.58,2924.14 2210.18,2939.24 2230.92,2939.24C2251.65,2939.24 2267.25,2924.14 2267.25,2902.08M2167.37,2902.08C2167.37,2867.56 2194.25,2842.02 2230.92,2842.02C2267.42,2842.02 2294.46,2867.4 2294.46,2902.08C2294.46,2936.75 2267.42,2962.14 2230.92,2962.14C2194.25,2962.14 2167.37,2936.59 2167.37,2902.08" style="fill:rgb(9,32,80);fill-rule:nonzero;"/>
            </g>
        </g>
        <g transform="matrix(4.16667,0,0,4.16667,0,0)">
            <g transform="matrix(1,0,0,1,-27,-1638.58)">
                <path d="M2284.03,2948.7L2293.15,2928.46C2302.94,2935.59 2317.54,2940.57 2331.48,2940.57C2347.4,2940.57 2353.88,2935.26 2353.88,2928.13C2353.88,2906.39 2286.35,2921.32 2286.35,2878.19C2286.35,2858.44 2302.28,2842.02 2335.29,2842.02C2349.89,2842.02 2364.83,2845.5 2375.61,2852.3L2367.32,2872.71C2356.53,2866.57 2345.41,2863.58 2335.13,2863.58C2319.2,2863.58 2313.06,2869.56 2313.06,2876.86C2313.06,2898.26 2380.59,2883.49 2380.59,2926.14C2380.59,2945.55 2364.49,2962.14 2331.31,2962.14C2312.9,2962.14 2294.31,2956.66 2284.03,2948.7" style="fill:rgb(9,32,80);fill-rule:nonzero;"/>
            </g>
        </g>
        <g transform="matrix(4.16667,0,0,4.16667,0,0)">
            <g transform="matrix(1,0,0,1,-27,-1637.56)">
                <path d="M417.599,2604.56L600.601,2604.56L600.601,3413.95L879.315,3413.95L879.315,2389.19L417.599,2389.19L417.599,2604.56Z" style="fill:rgb(9,32,80);fill-rule:nonzero;"/>
            </g>
        </g>
        <g transform="matrix(4.16667,0,0,4.16667,0,0)">
            <g transform="matrix(1,0,0,1,-27,-1638.95)">
                <path d="M1593.73,2813.34C1528.62,2776.6 1439.55,2755.19 1322.36,2755.19L1254.58,2755.19L1267.56,2608.1L1674.19,2608.1L1674.19,2387.49L1031.08,2387.49L980.617,2977.25L1254.58,2977.25C1408.88,2977.25 1450.69,3017.62 1450.69,3079.63C1450.69,3147.4 1385.81,3186.34 1289.19,3186.34C1192.58,3186.34 1091.65,3157.49 1009.45,3102.7L907.076,3317.55C1009.45,3382.44 1157.97,3417.04 1297.85,3417.04C1502.3,3417.04 1630.47,3342.76 1692.62,3239.36C1622.8,3147.54 1585.01,3034.22 1585.01,2912.35C1585.01,2878.58 1588.06,2845.53 1593.73,2813.34" style="fill:rgb(9,32,80);fill-rule:nonzero;"/>
            </g>
        </g>
        <g transform="matrix(4.16667,0,0,4.16667,0,0)">
            <g transform="matrix(1,0,0,1,-27,-1618.99)">
                <path d="M2169.07,3180.67C2016.22,3180.67 1896.53,3066.76 1896.53,2892.29C1896.53,2717.8 2016.22,2603.89 2169.07,2603.89C2321.91,2603.89 2441.6,2717.8 2441.6,2892.29C2441.6,3066.76 2321.91,3180.67 2169.07,3180.67M2169.07,2367.41C1964.97,2367.41 1794.93,2456.14 1697.33,2597.82C1694.5,2601.94 1691.71,2606.1 1689,2610.3C1655.94,2661.56 1632.05,2719.29 1619.18,2782.01C1617.58,2789.81 1616.21,2797.72 1614.95,2805.67C1610.51,2833.69 1608.15,2862.58 1608.15,2892.29C1608.15,3008.86 1643.52,3113.37 1705.32,3197.95C1710.01,3204.38 1714.85,3210.7 1719.85,3216.9C1819.95,3340.89 1979.87,3417.16 2169.07,3417.16C2492.07,3417.16 2729.98,3195.09 2729.98,2892.29C2729.98,2589.47 2492.07,2367.41 2169.07,2367.41" style="fill:rgb(9,32,80);fill-rule:nonzero;"/>
            </g>
        </g>
        <g transform="matrix(4.16667,0,0,4.16667,0,0)">
            <g transform="matrix(1,0,0,1,-27,353.21)">
                <path d="M474.627,1923.11C475.102,1924.31 475.568,1925.52 476.021,1926.74C476.474,1925.47 476.949,1924.26 477.446,1923.11C477.946,1921.95 478.511,1920.78 479.147,1919.61L512.108,1859.73C512.694,1858.69 513.308,1858.06 513.942,1857.83C514.575,1857.6 515.481,1857.49 516.659,1857.49L526.379,1857.49L526.379,1954.88L514.825,1954.88L514.825,1883.32C514.825,1882.36 514.848,1881.34 514.895,1880.26C514.937,1879.17 515.006,1878.06 515.098,1876.93L481.728,1937.82C480.595,1939.86 479.011,1940.88 476.971,1940.88L475.068,1940.88C473.031,1940.88 471.444,1939.86 470.311,1937.82L436.196,1876.72C436.332,1877.9 436.434,1879.06 436.501,1880.19C436.57,1881.32 436.602,1882.36 436.602,1883.32L436.602,1954.88L425.051,1954.88L425.051,1857.49L434.768,1857.49C435.946,1857.49 436.852,1857.6 437.486,1857.83C438.119,1858.06 438.733,1858.69 439.322,1859.73L472.961,1919.67C473.595,1920.76 474.152,1921.91 474.627,1923.11" style="fill:rgb(9,32,80);fill-rule:nonzero;"/>
            </g>
        </g>
        <g transform="matrix(4.16667,0,0,4.16667,0,0)">
            <g transform="matrix(1,0,0,1,-27,353.21)">
                <path d="M650.882,1857.49L650.882,1868.23L604.125,1868.23L604.125,1900.58L641.979,1900.58L641.979,1910.91L604.125,1910.91L604.125,1944.14L650.882,1944.14L650.882,1954.88L590.873,1954.88L590.873,1857.49L650.882,1857.49Z" style="fill:rgb(9,32,80);fill-rule:nonzero;"/>
            </g>
        </g>
        <g transform="matrix(4.16667,0,0,4.16667,0,0)">
            <g transform="matrix(1,0,0,1,-27,353.21)">
                <path d="M760.196,1923.11C760.671,1924.31 761.136,1925.52 761.589,1926.74C762.042,1925.47 762.517,1924.26 763.015,1923.11C763.515,1921.95 764.079,1920.78 764.715,1919.61L797.676,1859.73C798.263,1858.69 798.877,1858.06 799.51,1857.83C800.144,1857.6 801.05,1857.49 802.228,1857.49L811.948,1857.49L811.948,1954.88L800.394,1954.88L800.394,1883.32C800.394,1882.36 800.416,1881.34 800.463,1880.26C800.505,1879.17 800.574,1878.06 800.666,1876.93L767.297,1937.82C766.163,1939.86 764.579,1940.88 762.539,1940.88L760.636,1940.88C758.599,1940.88 757.013,1939.86 755.879,1937.82L721.765,1876.72C721.901,1877.9 722.002,1879.06 722.069,1880.19C722.138,1881.32 722.171,1882.36 722.171,1883.32L722.171,1954.88L710.619,1954.88L710.619,1857.49L720.336,1857.49C721.515,1857.49 722.42,1857.6 723.054,1857.83C723.688,1858.06 724.302,1858.69 724.891,1859.73L758.53,1919.67C759.163,1920.76 759.72,1921.91 760.196,1923.11" style="fill:rgb(9,32,80);fill-rule:nonzero;"/>
            </g>
        </g>
        <g transform="matrix(4.16667,0,0,4.16667,0,0)">
            <g transform="matrix(1,0,0,1,-27,330.51)">
                <path d="M942.159,1856.47L922.177,1871.15C921.408,1871.69 920.727,1872.06 920.14,1872.24C919.549,1872.42 918.782,1872.51 917.829,1872.51L908.45,1872.51L922.791,1858.71C923.242,1858.26 923.663,1857.9 924.046,1857.63C924.432,1857.36 924.828,1857.13 925.237,1856.95C925.645,1856.77 926.096,1856.64 926.596,1856.57C927.093,1856.5 927.727,1856.47 928.499,1856.47L942.159,1856.47ZM953.371,1928.92C953.371,1922.94 952.557,1917.57 950.926,1912.81C949.295,1908.05 946.983,1904.03 943.993,1900.75C941.003,1897.46 937.377,1894.94 933.12,1893.17C928.86,1891.4 924.103,1890.52 918.848,1890.52C913.638,1890.52 908.903,1891.4 904.644,1893.17C900.384,1894.94 896.751,1897.46 893.736,1900.75C890.724,1904.03 888.402,1908.05 886.771,1912.81C885.14,1917.57 884.323,1922.94 884.323,1928.92C884.323,1934.9 885.14,1940.26 886.771,1944.99C888.402,1949.72 890.724,1953.73 893.736,1957.02C896.751,1960.3 900.384,1962.82 904.644,1964.56C908.903,1966.31 913.638,1967.18 918.848,1967.18C924.103,1967.18 928.86,1966.31 933.12,1964.56C937.377,1962.82 941.003,1960.3 943.993,1957.02C946.983,1953.73 949.295,1949.72 950.926,1944.99C952.557,1940.26 953.371,1934.9 953.371,1928.92M966.898,1928.92C966.898,1936.21 965.742,1942.91 963.43,1949C961.121,1955.09 957.859,1960.34 953.643,1964.73C949.431,1969.13 944.367,1972.54 938.454,1974.96C932.543,1977.39 926.006,1978.6 918.848,1978.6C911.688,1978.6 905.164,1977.39 899.275,1974.96C893.385,1972.54 888.333,1969.13 884.12,1964.73C879.908,1960.34 876.645,1955.09 874.334,1949C872.024,1942.91 870.868,1936.21 870.868,1928.92C870.868,1921.62 872.024,1914.93 874.334,1908.84C876.645,1902.74 879.908,1897.49 884.12,1893.07C888.333,1888.65 893.385,1885.22 899.275,1882.77C905.164,1880.32 911.688,1879.1 918.848,1879.1C926.006,1879.1 932.543,1880.32 938.454,1882.77C944.367,1885.22 949.431,1888.65 953.643,1893.07C957.859,1897.49 961.121,1902.74 963.43,1908.84C965.742,1914.93 966.898,1921.62 966.898,1928.92" style="fill:rgb(9,32,80);fill-rule:nonzero;"/>
            </g>
        </g>
        <g transform="matrix(4.16667,0,0,4.16667,0,0)">
            <g transform="matrix(1,0,0,1,-27,353.21)">
                <path d="M1040.16,1904.65L1053.95,1904.65C1057.8,1904.65 1061.19,1904.19 1064.11,1903.26C1067.03,1902.33 1069.48,1901.02 1071.45,1899.32C1073.42,1897.62 1074.91,1895.59 1075.9,1893.24C1076.9,1890.88 1077.4,1888.28 1077.4,1885.42C1077.4,1879.62 1075.48,1875.25 1071.65,1872.3C1067.83,1869.36 1062.13,1867.89 1054.56,1867.89L1040.16,1867.89L1040.16,1904.65ZM1040.16,1914.24L1040.16,1954.88L1027.04,1954.88L1027.04,1857.49L1054.56,1857.49C1060.72,1857.49 1066.05,1858.11 1070.53,1859.36C1075.02,1860.6 1078.72,1862.41 1081.65,1864.76C1084.57,1867.12 1086.73,1869.96 1088.14,1873.29C1089.54,1876.62 1090.24,1880.35 1090.24,1884.47C1090.24,1887.91 1089.7,1891.13 1088.61,1894.12C1087.52,1897.11 1085.95,1899.8 1083.89,1902.17C1081.83,1904.55 1079.31,1906.58 1076.34,1908.26C1073.38,1909.93 1070.01,1911.2 1066.25,1912.06C1067.88,1913.01 1069.33,1914.4 1070.6,1916.21L1099.01,1954.88L1087.32,1954.88C1084.92,1954.88 1083.15,1953.95 1082.02,1952.09L1056.74,1917.29C1055.97,1916.21 1055.13,1915.43 1054.22,1914.95C1053.32,1914.48 1051.96,1914.24 1050.15,1914.24L1040.16,1914.24Z" style="fill:rgb(9,32,80);fill-rule:nonzero;"/>
            </g>
        </g>
        <g transform="matrix(4.16667,0,0,4.16667,0,0)">
            <g transform="matrix(1,0,0,1,-27,353.215)">
                <rect x="1156.44" y="1857.49" width="13.185" height="97.386" style="fill:rgb(9,32,80);"/>
            </g>
        </g>
        <g transform="matrix(4.16667,0,0,4.16667,0,0)">
            <g transform="matrix(1,0,0,1,-27,353.21)">
                <path d="M1252.8,1918.72L1289.16,1918.72L1273.87,1879.1C1272.87,1876.65 1271.9,1873.6 1270.95,1869.93C1270.45,1871.79 1269.96,1873.49 1269.49,1875.06C1269.01,1876.62 1268.55,1877.99 1268.09,1879.17L1252.8,1918.72ZM1316.62,1954.88L1306.42,1954.88C1305.24,1954.88 1304.29,1954.58 1303.57,1953.99C1302.84,1953.41 1302.3,1952.66 1301.94,1951.75L1292.83,1928.24L1249.13,1928.24L1240.03,1951.75C1239.71,1952.57 1239.16,1953.29 1238.39,1953.93C1237.63,1954.56 1236.67,1954.88 1235.54,1954.88L1225.35,1954.88L1264.29,1857.49L1277.67,1857.49L1316.62,1954.88Z" style="fill:rgb(9,32,80);fill-rule:nonzero;"/>
            </g>
        </g>
        <g transform="matrix(4.16667,0,0,4.16667,0,0)">
            <g transform="matrix(1,0,0,1,-27,353.21)">
                <path d="M1419.58,1872.71C1419.17,1873.39 1418.74,1873.9 1418.29,1874.24C1417.83,1874.58 1417.24,1874.75 1416.52,1874.75C1415.75,1874.75 1414.85,1874.37 1413.83,1873.6C1412.81,1872.83 1411.52,1871.98 1409.96,1871.05C1408.4,1870.12 1406.52,1869.27 1404.32,1868.5C1402.12,1867.73 1399.46,1867.34 1396.33,1867.34C1393.39,1867.34 1390.78,1867.74 1388.52,1868.53C1386.25,1869.33 1384.36,1870.4 1382.84,1871.76C1381.33,1873.12 1380.18,1874.72 1379.41,1876.55C1378.64,1878.39 1378.26,1880.37 1378.26,1882.5C1378.26,1885.22 1378.92,1887.47 1380.26,1889.26C1381.6,1891.05 1383.37,1892.58 1385.56,1893.85C1387.76,1895.12 1390.25,1896.22 1393.04,1897.14C1395.82,1898.07 1398.68,1899.04 1401.6,1900.03C1404.52,1901.03 1407.38,1902.15 1410.16,1903.4C1412.95,1904.64 1415.44,1906.22 1417.64,1908.12C1419.84,1910.02 1421.6,1912.36 1422.94,1915.12C1424.28,1917.88 1424.94,1921.28 1424.94,1925.31C1424.94,1929.57 1424.22,1933.57 1422.77,1937.31C1421.32,1941.05 1419.2,1944.3 1416.42,1947.06C1413.63,1949.83 1410.21,1952 1406.15,1953.59C1402.1,1955.17 1397.49,1955.97 1392.32,1955.97C1386.03,1955.97 1380.28,1954.82 1375.1,1952.53C1369.91,1950.25 1365.48,1947.15 1361.81,1943.26L1365.62,1937C1365.98,1936.5 1366.42,1936.09 1366.94,1935.75C1367.46,1935.4 1368.04,1935.24 1368.67,1935.24C1369.63,1935.24 1370.71,1935.75 1371.94,1936.77C1373.16,1937.79 1374.69,1938.91 1376.52,1940.13C1378.36,1941.35 1380.58,1942.47 1383.18,1943.49C1385.79,1944.51 1388.97,1945.02 1392.73,1945.02C1395.86,1945.02 1398.64,1944.59 1401.09,1943.73C1403.54,1942.87 1405.61,1941.66 1407.31,1940.1C1409.01,1938.53 1410.31,1936.66 1411.22,1934.49C1412.12,1932.32 1412.58,1929.89 1412.58,1927.22C1412.58,1924.27 1411.91,1921.86 1410.57,1919.98C1409.23,1918.1 1407.48,1916.52 1405.3,1915.25C1403.13,1913.99 1400.65,1912.91 1397.86,1912.03C1395.08,1911.14 1392.22,1910.24 1389.3,1909.31C1386.38,1908.38 1383.52,1907.3 1380.74,1906.08C1377.95,1904.86 1375.47,1903.27 1373.3,1901.33C1371.12,1899.38 1369.36,1896.94 1368.03,1894.02C1366.69,1891.1 1366.02,1887.48 1366.02,1883.18C1366.02,1879.74 1366.69,1876.41 1368.03,1873.19C1369.36,1869.97 1371.3,1867.12 1373.84,1864.62C1376.38,1862.13 1379.51,1860.14 1383.25,1858.64C1386.99,1857.15 1391.28,1856.4 1396.13,1856.4C1401.57,1856.4 1406.53,1857.26 1411.01,1858.99C1415.5,1860.71 1419.42,1863.2 1422.77,1866.46L1419.58,1872.71Z" style="fill:rgb(9,32,80);fill-rule:nonzero;"/>
            </g>
        </g>
        <g transform="matrix(4.16667,0,0,4.16667,0,0)">
            <g transform="matrix(1,0,0,1,-27,353.21)">
                <path d="M1555.56,1927.97C1555.56,1930.91 1556.11,1933.5 1557.19,1935.75C1558.28,1937.99 1559.71,1939.88 1561.48,1941.42C1563.24,1942.96 1565.26,1944.13 1567.53,1944.92C1569.79,1945.71 1572.1,1946.11 1574.46,1946.11C1579.53,1946.11 1584.08,1945.18 1588.12,1943.32C1592.15,1941.47 1595.7,1939 1598.79,1935.92L1570.04,1906.9C1565.24,1909.48 1561.62,1912.57 1559.2,1916.17C1556.78,1919.77 1555.56,1923.71 1555.56,1927.97M1582.54,1856.4C1586.12,1856.4 1589.38,1856.98 1592.33,1858.13C1595.27,1859.29 1597.82,1860.82 1599.98,1862.72C1602.13,1864.62 1603.83,1866.83 1605.07,1869.35C1606.32,1871.86 1607.03,1874.48 1607.21,1877.2L1599.67,1878.69C1599.44,1878.74 1599.24,1878.76 1599.06,1878.76C1598.47,1878.76 1597.91,1878.6 1597.39,1878.28C1596.87,1877.97 1596.5,1877.4 1596.27,1876.59C1595.95,1875.41 1595.44,1874.19 1594.74,1872.92C1594.04,1871.65 1593.13,1870.49 1592.02,1869.45C1590.91,1868.41 1589.58,1867.55 1588.01,1866.87C1586.45,1866.19 1584.63,1865.85 1582.54,1865.85C1580.28,1865.85 1578.24,1866.21 1576.43,1866.94C1574.61,1867.66 1573.06,1868.67 1571.77,1869.96C1570.48,1871.25 1569.48,1872.77 1568.78,1874.52C1568.08,1876.26 1567.73,1878.15 1567.73,1880.19C1567.73,1881.77 1567.92,1883.29 1568.31,1884.74C1568.69,1886.19 1569.27,1887.65 1570.04,1889.13C1570.81,1890.6 1571.81,1892.12 1573.03,1893.68C1574.25,1895.24 1575.73,1896.89 1577.45,1898.61L1605.45,1927.08C1607.17,1924.05 1608.54,1920.86 1609.56,1917.53C1610.58,1914.2 1611.27,1910.86 1611.63,1907.51C1611.72,1906.65 1611.99,1905.97 1612.45,1905.47C1612.9,1904.97 1613.53,1904.72 1614.35,1904.72L1621.82,1904.72C1621.73,1909.93 1620.9,1915.05 1619.31,1920.08C1617.72,1925.11 1615.44,1929.82 1612.45,1934.22L1632.83,1954.88L1621.15,1954.88C1619.83,1954.88 1618.77,1954.72 1617.95,1954.4C1617.14,1954.08 1616.23,1953.43 1615.23,1952.43L1605.45,1942.58C1601.19,1946.7 1596.28,1949.96 1590.73,1952.36C1585.18,1954.76 1579.08,1955.97 1572.42,1955.97C1568.79,1955.97 1565.24,1955.35 1561.75,1954.13C1558.26,1952.91 1555.15,1951.13 1552.4,1948.8C1549.66,1946.46 1547.45,1943.62 1545.78,1940.27C1544.1,1936.91 1543.26,1933.13 1543.26,1928.92C1543.26,1925.74 1543.79,1922.74 1544.86,1919.91C1545.92,1917.08 1547.4,1914.46 1549.28,1912.06C1551.16,1909.66 1553.39,1907.51 1555.97,1905.6C1558.55,1903.7 1561.38,1902.07 1564.47,1900.71C1561.7,1897.22 1559.66,1893.83 1558.35,1890.52C1557.04,1887.21 1556.38,1883.79 1556.38,1880.25C1556.38,1876.95 1556.98,1873.85 1558.18,1870.95C1559.38,1868.05 1561.11,1865.52 1563.38,1863.37C1565.64,1861.22 1568.4,1859.52 1571.64,1858.27C1574.87,1857.03 1578.51,1856.4 1582.54,1856.4" style="fill:rgb(9,32,80);fill-rule:nonzero;"/>
            </g>
        </g>
        <g transform="matrix(4.16667,0,0,4.16667,0,0)">
            <g transform="matrix(1,0,0,1,-27,353.21)">
                <path d="M1831.82,1954.88L1818.57,1954.88L1818.57,1910.57L1766.1,1910.57L1766.1,1954.88L1752.85,1954.88L1752.85,1857.49L1766.1,1857.49L1766.1,1900.92L1818.57,1900.92L1818.57,1857.49L1831.82,1857.49L1831.82,1954.88Z" style="fill:rgb(9,32,80);fill-rule:nonzero;"/>
            </g>
        </g>
        <g transform="matrix(4.16667,0,0,4.16667,0,0)">
            <g transform="matrix(1,0,0,1,-27,353.215)">
                <rect x="1898.83" y="1857.49" width="13.185" height="97.386" style="fill:rgb(9,32,80);"/>
            </g>
        </g>
        <g transform="matrix(4.16667,0,0,4.16667,0,0)">
            <g transform="matrix(1,0,0,1,-27,353.21)">
                <path d="M2028.77,1872.71C2028.36,1873.39 2027.93,1873.9 2027.48,1874.24C2027.02,1874.58 2026.43,1874.75 2025.71,1874.75C2024.94,1874.75 2024.04,1874.37 2023.02,1873.6C2022.01,1872.83 2020.71,1871.98 2019.15,1871.05C2017.59,1870.12 2015.71,1869.27 2013.51,1868.5C2011.31,1867.73 2008.65,1867.34 2005.53,1867.34C2002.58,1867.34 1999.97,1867.74 1997.71,1868.53C1995.44,1869.33 1993.55,1870.4 1992.03,1871.76C1990.52,1873.12 1989.37,1874.72 1988.6,1876.55C1987.83,1878.39 1987.45,1880.37 1987.45,1882.5C1987.45,1885.22 1988.12,1887.47 1989.45,1889.26C1990.79,1891.05 1992.55,1892.58 1994.75,1893.85C1996.95,1895.12 1999.44,1896.22 2002.23,1897.14C2005.02,1898.07 2007.87,1899.04 2010.79,1900.03C2013.71,1901.03 2016.57,1902.15 2019.35,1903.4C2022.14,1904.64 2024.63,1906.22 2026.83,1908.12C2029.03,1910.02 2030.79,1912.36 2032.13,1915.12C2033.47,1917.88 2034.14,1921.28 2034.14,1925.31C2034.14,1929.57 2033.41,1933.57 2031.96,1937.31C2030.51,1941.05 2028.39,1944.3 2025.61,1947.06C2022.82,1949.83 2019.4,1952 2015.34,1953.59C2011.29,1955.17 2006.68,1955.97 2001.52,1955.97C1995.22,1955.97 1989.47,1954.82 1984.29,1952.53C1979.1,1950.25 1974.67,1947.15 1971,1943.26L1974.81,1937C1975.17,1936.5 1975.61,1936.09 1976.13,1935.75C1976.65,1935.4 1977.23,1935.24 1977.86,1935.24C1978.82,1935.24 1979.9,1935.75 1981.13,1936.77C1982.35,1937.79 1983.88,1938.91 1985.72,1940.13C1987.55,1941.35 1989.77,1942.47 1992.38,1943.49C1994.98,1944.51 1998.16,1945.02 2001.92,1945.02C2005.05,1945.02 2007.84,1944.59 2010.28,1943.73C2012.73,1942.87 2014.8,1941.66 2016.5,1940.1C2018.2,1938.53 2019.5,1936.66 2020.41,1934.49C2021.31,1932.32 2021.77,1929.89 2021.77,1927.22C2021.77,1924.27 2021.1,1921.86 2019.76,1919.98C2018.43,1918.1 2016.67,1916.52 2014.5,1915.25C2012.32,1913.99 2009.84,1912.91 2007.05,1912.03C2004.27,1911.14 2001.41,1910.24 1998.49,1909.31C1995.57,1908.38 1992.71,1907.3 1989.93,1906.08C1987.14,1904.86 1984.66,1903.27 1982.49,1901.33C1980.31,1899.38 1978.55,1896.94 1977.22,1894.02C1975.88,1891.1 1975.22,1887.48 1975.22,1883.18C1975.22,1879.74 1975.88,1876.41 1977.22,1873.19C1978.55,1869.97 1980.49,1867.12 1983.03,1864.62C1985.57,1862.13 1988.71,1860.14 1992.44,1858.64C1996.18,1857.15 2000.47,1856.4 2005.32,1856.4C2010.76,1856.4 2015.72,1857.26 2020.2,1858.99C2024.69,1860.71 2028.61,1863.2 2031.96,1866.46L2028.77,1872.71Z" style="fill:rgb(9,32,80);fill-rule:nonzero;"/>
            </g>
        </g>
        <g transform="matrix(4.16667,0,0,4.16667,0,0)">
            <g transform="matrix(1,0,0,1,-27,353.21)">
                <path d="M2158.03,1857.49L2158.03,1868.57L2126.56,1868.57L2126.56,1954.88L2113.38,1954.88L2113.38,1868.57L2081.78,1868.57L2081.78,1857.49L2158.03,1857.49Z" style="fill:rgb(9,32,80);fill-rule:nonzero;"/>
            </g>
        </g>
        <g transform="matrix(4.16667,0,0,4.16667,0,0)">
            <g transform="matrix(1,0,0,1,-27,330.51)">
                <path d="M2271.73,1856.47L2251.74,1871.15C2250.97,1871.69 2250.29,1872.06 2249.71,1872.24C2249.12,1872.42 2248.35,1872.51 2247.4,1872.51L2238.02,1872.51L2252.36,1858.71C2252.81,1858.26 2253.23,1857.9 2253.61,1857.63C2254,1857.36 2254.39,1857.13 2254.8,1856.95C2255.21,1856.77 2255.66,1856.64 2256.16,1856.57C2256.66,1856.5 2257.3,1856.47 2258.07,1856.47L2271.73,1856.47ZM2282.94,1928.92C2282.94,1922.94 2282.12,1917.57 2280.49,1912.81C2278.86,1908.05 2276.55,1904.03 2273.56,1900.75C2270.57,1897.46 2266.94,1894.94 2262.69,1893.17C2258.43,1891.4 2253.67,1890.52 2248.42,1890.52C2243.2,1890.52 2238.47,1891.4 2234.21,1893.17C2229.95,1894.94 2226.32,1897.46 2223.3,1900.75C2220.29,1904.03 2217.97,1908.05 2216.34,1912.81C2214.71,1917.57 2213.89,1922.94 2213.89,1928.92C2213.89,1934.9 2214.71,1940.26 2216.34,1944.99C2217.97,1949.72 2220.29,1953.73 2223.3,1957.02C2226.32,1960.3 2229.95,1962.82 2234.21,1964.56C2238.47,1966.31 2243.2,1967.18 2248.42,1967.18C2253.67,1967.18 2258.43,1966.31 2262.69,1964.56C2266.94,1962.82 2270.57,1960.3 2273.56,1957.02C2276.55,1953.73 2278.86,1949.72 2280.49,1944.99C2282.12,1940.26 2282.94,1934.9 2282.94,1928.92M2296.46,1928.92C2296.46,1936.21 2295.31,1942.91 2293,1949C2290.69,1955.09 2287.43,1960.34 2283.21,1964.73C2279,1969.13 2273.93,1972.54 2268.02,1974.96C2262.11,1977.39 2255.57,1978.6 2248.42,1978.6C2241.26,1978.6 2234.73,1977.39 2228.84,1974.96C2222.95,1972.54 2217.9,1969.13 2213.69,1964.73C2209.47,1960.34 2206.21,1955.09 2203.9,1949C2201.59,1942.91 2200.44,1936.21 2200.44,1928.92C2200.44,1921.62 2201.59,1914.93 2203.9,1908.84C2206.21,1902.74 2209.47,1897.49 2213.69,1893.07C2217.9,1888.65 2222.95,1885.22 2228.84,1882.77C2234.73,1880.32 2241.26,1879.1 2248.42,1879.1C2255.57,1879.1 2262.11,1880.32 2268.02,1882.77C2273.93,1885.22 2279,1888.65 2283.21,1893.07C2287.43,1897.49 2290.69,1902.74 2293,1908.84C2295.31,1914.93 2296.46,1921.62 2296.46,1928.92" style="fill:rgb(9,32,80);fill-rule:nonzero;"/>
            </g>
        </g>
        <g transform="matrix(4.16667,0,0,4.16667,0,0)">
            <g transform="matrix(1,0,0,1,-27,353.21)">
                <path d="M2369.72,1904.65L2383.52,1904.65C2387.37,1904.65 2390.76,1904.19 2393.68,1903.26C2396.6,1902.33 2399.05,1901.02 2401.02,1899.32C2402.99,1897.62 2404.47,1895.59 2405.47,1893.24C2406.47,1890.88 2406.97,1888.28 2406.97,1885.42C2406.97,1879.62 2405.05,1875.25 2401.22,1872.3C2397.39,1869.36 2391.7,1867.89 2384.13,1867.89L2369.72,1867.89L2369.72,1904.65ZM2369.72,1914.24L2369.72,1954.88L2356.61,1954.88L2356.61,1857.49L2384.13,1857.49C2390.29,1857.49 2395.61,1858.11 2400.1,1859.36C2404.59,1860.6 2408.29,1862.41 2411.21,1864.76C2414.13,1867.12 2416.3,1869.96 2417.7,1873.29C2419.11,1876.62 2419.81,1880.35 2419.81,1884.47C2419.81,1887.91 2419.26,1891.13 2418.18,1894.12C2417.09,1897.11 2415.52,1899.8 2413.46,1902.17C2411.39,1904.55 2408.88,1906.58 2405.91,1908.26C2402.94,1909.93 2399.58,1911.2 2395.82,1912.06C2397.45,1913.01 2398.9,1914.4 2400.17,1916.21L2428.58,1954.88L2416.89,1954.88C2414.49,1954.88 2412.72,1953.95 2411.59,1952.09L2386.31,1917.29C2385.53,1916.21 2384.7,1915.43 2383.79,1914.95C2382.88,1914.48 2381.52,1914.24 2379.71,1914.24L2369.72,1914.24Z" style="fill:rgb(9,32,80);fill-rule:nonzero;"/>
            </g>
        </g>
        <g transform="matrix(4.16667,0,0,4.16667,0,0)">
            <g transform="matrix(1,0,0,1,-27,353.215)">
                <rect x="2486" y="1857.49" width="13.185" height="97.386" style="fill:rgb(9,32,80);"/>
            </g>
        </g>
        <g transform="matrix(4.16667,0,0,4.16667,0,0)">
            <g transform="matrix(1,0,0,1,-27,353.21)">
                <path d="M2582.37,1918.72L2618.73,1918.72L2603.44,1879.1C2602.44,1876.65 2601.47,1873.6 2600.51,1869.93C2600.02,1871.79 2599.53,1873.49 2599.05,1875.06C2598.58,1876.62 2598.11,1877.99 2597.66,1879.17L2582.37,1918.72ZM2646.18,1954.88L2635.99,1954.88C2634.81,1954.88 2633.86,1954.58 2633.14,1953.99C2632.41,1953.41 2631.87,1952.66 2631.51,1951.75L2622.4,1928.24L2578.7,1928.24L2569.59,1951.75C2569.28,1952.57 2568.73,1953.29 2567.96,1953.93C2567.19,1954.56 2566.24,1954.88 2565.11,1954.88L2554.91,1954.88L2593.85,1857.49L2607.24,1857.49L2646.18,1954.88Z" style="fill:rgb(9,32,80);fill-rule:nonzero;"/>
            </g>
        </g>
        <g transform="matrix(4.16667,0,0,4.16667,0,0)">
            <g transform="matrix(1,0,0,1,-27,353.21)">
                <path d="M2749.14,1872.71C2748.73,1873.39 2748.3,1873.9 2747.85,1874.24C2747.4,1874.58 2746.81,1874.75 2746.09,1874.75C2745.31,1874.75 2744.42,1874.37 2743.4,1873.6C2742.38,1872.83 2741.09,1871.98 2739.53,1871.05C2737.96,1870.12 2736.08,1869.27 2733.89,1868.5C2731.69,1867.73 2729.03,1867.34 2725.9,1867.34C2722.95,1867.34 2720.35,1867.74 2718.09,1868.53C2715.82,1869.33 2713.93,1870.4 2712.41,1871.76C2710.89,1873.12 2709.75,1874.72 2708.98,1876.55C2708.21,1878.39 2707.82,1880.37 2707.82,1882.5C2707.82,1885.22 2708.49,1887.47 2709.83,1889.26C2711.16,1891.05 2712.93,1892.58 2715.13,1893.85C2717.33,1895.12 2719.82,1896.22 2722.6,1897.14C2725.39,1898.07 2728.25,1899.04 2731.17,1900.03C2734.09,1901.03 2736.95,1902.15 2739.73,1903.4C2742.52,1904.64 2745.01,1906.22 2747.2,1908.12C2749.4,1910.02 2751.17,1912.36 2752.51,1915.12C2753.84,1917.88 2754.51,1921.28 2754.51,1925.31C2754.51,1929.57 2753.79,1933.57 2752.34,1937.31C2750.89,1941.05 2748.77,1944.3 2745.98,1947.06C2743.2,1949.83 2739.77,1952 2735.72,1953.59C2731.67,1955.17 2727.05,1955.97 2721.89,1955.97C2715.59,1955.97 2709.85,1954.82 2704.66,1952.53C2699.47,1950.25 2695.05,1947.15 2691.38,1943.26L2695.18,1937C2695.54,1936.5 2695.98,1936.09 2696.51,1935.75C2697.03,1935.4 2697.61,1935.24 2698.24,1935.24C2699.19,1935.24 2700.28,1935.75 2701.5,1936.77C2702.73,1937.79 2704.25,1938.91 2706.09,1940.13C2707.92,1941.35 2710.14,1942.47 2712.75,1943.49C2715.36,1944.51 2718.54,1945.02 2722.3,1945.02C2725.42,1945.02 2728.21,1944.59 2730.66,1943.73C2733.1,1942.87 2735.18,1941.66 2736.88,1940.1C2738.57,1938.53 2739.88,1936.66 2740.78,1934.49C2741.69,1932.32 2742.14,1929.89 2742.14,1927.22C2742.14,1924.27 2741.47,1921.86 2740.14,1919.98C2738.8,1918.1 2737.05,1916.52 2734.87,1915.25C2732.7,1913.99 2730.22,1912.91 2727.43,1912.03C2724.64,1911.14 2721.79,1910.24 2718.87,1909.31C2715.94,1908.38 2713.09,1907.3 2710.3,1906.08C2707.52,1904.86 2705.04,1903.27 2702.86,1901.33C2700.69,1899.38 2698.93,1896.94 2697.6,1894.02C2696.26,1891.1 2695.59,1887.48 2695.59,1883.18C2695.59,1879.74 2696.26,1876.41 2697.6,1873.19C2698.93,1869.97 2700.87,1867.12 2703.41,1864.62C2705.94,1862.13 2709.08,1860.14 2712.82,1858.64C2716.56,1857.15 2720.85,1856.4 2725.7,1856.4C2731.13,1856.4 2736.09,1857.26 2740.58,1858.99C2745.07,1860.71 2748.98,1863.2 2752.34,1866.46L2749.14,1872.71Z" style="fill:rgb(9,32,80);fill-rule:nonzero;"/>
            </g>
        </g>
        <g transform="matrix(4.16667,0,0,4.16667,0,0)">
            <g transform="matrix(1,0,0,1,-27,148.426)">
                <rect x="423.926" y="2003.44" width="2328.2" height="10.274" style="fill:rgb(246,139,70);"/>
            </g>
        </g>
        <g transform="matrix(4.16667,0,0,4.16667,0,0)">
            <g transform="matrix(1,0,0,1,-27,-3023.73)">
                <path d="M548.761,3667.53L548.761,3683.83L422.644,3683.83L422.644,3505.48L544.94,3505.48L544.94,3521.79L441.497,3521.79L441.497,3585.23L533.73,3585.23L533.73,3601.28L441.497,3601.28L441.497,3667.53L548.761,3667.53Z" style="fill:rgb(246,139,70);fill-rule:nonzero;"/>
            </g>
        </g>
        <g transform="matrix(4.16667,0,0,4.16667,0,0)">
            <g transform="matrix(1,0,0,1,-27,-2979.39)">
                <path d="M670.798,3639.49L628.248,3583.44L585.446,3639.49L565.064,3639.49L618.058,3570.7L567.61,3505.48L587.993,3505.48L628.248,3557.96L668.503,3505.48L688.378,3505.48L637.931,3570.7L691.435,3639.49L670.798,3639.49Z" style="fill:rgb(246,139,70);fill-rule:nonzero;"/>
            </g>
        </g>
        <g transform="matrix(4.16667,0,0,4.16667,0,0)">
            <g transform="matrix(1,0,0,1,-27,-2930.98)">
                <path d="M839.207,3524.07C839.207,3492.99 817.55,3471.84 789.269,3471.84C760.734,3471.84 739.331,3492.99 739.331,3524.07C739.331,3555.41 760.734,3576.3 789.269,3576.3C817.55,3576.3 839.207,3555.41 839.207,3524.07M857.297,3524.07C857.297,3564.84 828.762,3592.36 790.544,3592.36C769.142,3592.36 750.799,3583.18 739.586,3565.86L739.586,3640.51L721.498,3640.51L721.498,3457.07L738.824,3457.07L738.824,3483.56C749.779,3465.73 768.377,3456.05 790.544,3456.05C828.762,3456.05 857.297,3483.56 857.297,3524.07" style="fill:rgb(246,139,70);fill-rule:nonzero;"/>
            </g>
        </g>
        <g transform="matrix(4.16667,0,0,4.16667,0,0)">
            <g transform="matrix(1,0,0,1,-27,-2979.13)">
                <path d="M998.697,3572.22C998.697,3540.89 977.55,3519.99 949.015,3519.99C920.479,3519.99 899.077,3540.89 899.077,3572.22C899.077,3603.56 920.479,3624.45 949.015,3624.45C977.55,3624.45 998.697,3603.56 998.697,3572.22M880.734,3572.22C880.734,3532.48 909.779,3504.2 949.015,3504.2C988.252,3504.2 1017.04,3532.48 1017.04,3572.22C1017.04,3611.97 988.252,3640.51 949.015,3640.51C909.779,3640.51 880.734,3611.97 880.734,3572.22" style="fill:rgb(246,139,70);fill-rule:nonzero;"/>
            </g>
        </g>
        <g transform="matrix(4.16667,0,0,4.16667,0,0)">
            <g transform="matrix(1,0,0,1,-27,-2979.13)">
                <path d="M1035.38,3623.94L1043.54,3609.68C1054.24,3618.09 1072.33,3624.71 1091.18,3624.71C1116.66,3624.71 1127.11,3616.05 1127.11,3602.8C1127.11,3567.89 1040.23,3595.41 1040.23,3542.41C1040.23,3520.5 1059.08,3504.2 1093.22,3504.2C1110.55,3504.2 1129.4,3509.04 1140.61,3516.68L1132.71,3531.21C1120.99,3523.05 1106.98,3519.74 1093.22,3519.74C1069.02,3519.74 1058.31,3529.17 1058.31,3541.9C1058.31,3578.08 1145.19,3550.82 1145.19,3602.29C1145.19,3625.47 1124.81,3640.51 1089.91,3640.51C1067.74,3640.51 1046.34,3633.37 1035.38,3623.94" style="fill:rgb(246,139,70);fill-rule:nonzero;"/>
            </g>
        </g>
        <g transform="matrix(4.16667,0,0,4.16667,0,0)">
            <g transform="matrix(1,0,0,1,-27,-3034.43)">
                <path d="M1178.57,3560.52L1196.66,3560.52L1196.66,3694.53L1178.57,3694.53L1178.57,3560.52ZM1174.49,3518.22C1174.49,3511.34 1180.35,3505.48 1187.74,3505.48C1195.13,3505.48 1200.99,3511.09 1200.99,3517.97C1200.99,3525.36 1195.38,3531.22 1187.74,3531.22C1180.35,3531.22 1174.49,3525.36 1174.49,3518.22" style="fill:rgb(246,139,70);fill-rule:nonzero;"/>
            </g>
        </g>
        <g transform="matrix(4.16667,0,0,4.16667,0,0)">
            <g transform="matrix(1,0,0,1,-27,-2924.36)">
                <path d="M1341.63,3550.07L1355.13,3559.24C1344.43,3576.56 1325.32,3585.74 1302.65,3585.74L1302.14,3585.74L1299.08,3597.71C1313.09,3598.98 1320.74,3607.14 1320.74,3618.35C1320.74,3632.11 1309.02,3640.51 1291.95,3640.51C1283.54,3640.51 1276.66,3638.73 1270.54,3634.66L1274.88,3624.97C1279.97,3628.28 1285.58,3629.81 1291.69,3629.81C1301.88,3629.81 1307.49,3625.48 1307.49,3617.84C1307.49,3610.96 1302.39,3606.12 1291.69,3606.12L1285.83,3606.12L1291.44,3584.97C1257.3,3580.13 1233.6,3553.63 1233.6,3517.45C1233.6,3477.45 1262.65,3449.43 1302.65,3449.43C1325.32,3449.43 1344.43,3458.34 1355.13,3475.92L1341.63,3485.1C1332.46,3471.59 1318.19,3465.22 1302.65,3465.22C1273.35,3465.22 1251.95,3486.12 1251.95,3517.45C1251.95,3549.05 1273.35,3569.68 1302.65,3569.68C1318.19,3569.68 1332.46,3563.57 1341.63,3550.07" style="fill:rgb(246,139,70);fill-rule:nonzero;"/>
            </g>
        </g>
        <g transform="matrix(4.16667,0,0,4.16667,0,0)">
            <g transform="matrix(1,0,0,1,-27,-3029.32)">
                <path d="M1408.63,3532.22L1397.68,3532.22C1398.19,3515.15 1407.1,3504.2 1420.61,3504.2C1436.4,3504.2 1444.05,3521.52 1453.98,3521.52C1461.63,3521.52 1466.72,3515.41 1467.23,3505.72L1478.19,3505.72C1477.68,3522.28 1468.76,3533.24 1455.26,3533.24C1439.46,3533.24 1432.07,3515.92 1421.88,3515.92C1414.24,3515.92 1409.14,3522.03 1408.63,3532.22M1473.6,3649.17L1473.6,3627.26L1431.56,3627.26C1405.58,3627.26 1397.17,3637.45 1397.17,3651.2C1397.17,3666.75 1409.65,3676.43 1431.05,3676.43C1451.44,3676.43 1466.47,3666.75 1473.6,3649.17M1491.69,3606.36L1491.69,3689.42L1474.37,3689.42L1474.37,3668.53C1466.21,3682.29 1450.42,3690.7 1428.25,3690.7C1397.93,3690.7 1379.33,3674.9 1379.33,3651.71C1379.33,3631.08 1392.58,3613.75 1431.05,3613.75L1473.6,3613.75L1473.6,3605.6C1473.6,3582.67 1460.61,3570.18 1435.64,3570.18C1418.31,3570.18 1402.01,3576.3 1391.05,3585.98L1382.9,3572.48C1396.4,3561.01 1416.28,3554.39 1437.42,3554.39C1472.07,3554.39 1491.69,3571.71 1491.69,3606.36" style="fill:rgb(246,139,70);fill-rule:nonzero;"/>
            </g>
        </g>
        <g transform="matrix(4.16667,0,0,4.16667,0,0)">
            <g transform="matrix(1,0,0,1,-27,-2979.13)">
                <path d="M1645.83,3572.22C1645.83,3540.89 1624.69,3519.99 1596.15,3519.99C1567.61,3519.99 1546.21,3540.89 1546.21,3572.22C1546.21,3603.56 1567.61,3624.45 1596.15,3624.45C1624.69,3624.45 1645.83,3603.56 1645.83,3572.22M1527.87,3572.22C1527.87,3532.48 1556.91,3504.2 1596.15,3504.2C1635.39,3504.2 1664.18,3532.48 1664.18,3572.22C1664.18,3611.97 1635.39,3640.51 1596.15,3640.51C1556.91,3640.51 1527.87,3611.97 1527.87,3572.22" style="fill:rgb(246,139,70);fill-rule:nonzero;"/>
            </g>
        </g>
        <g transform="matrix(4.16667,0,0,4.16667,0,0)">
            <g transform="matrix(1,0,0,1,-27,-231.84)">
                <path d="M594.123,2218.81L570.56,2157.82L546.997,2218.81L594.123,2218.81ZM616.647,2277.72L524.474,2277.72L508.187,2319.99L425.024,2319.99L531.057,2077.43L611.449,2077.43L717.482,2319.99L632.933,2319.99L616.647,2277.72Z" style="fill:rgb(9,32,80);fill-rule:nonzero;"/>
            </g>
        </g>
        <g transform="matrix(4.16667,0,0,4.16667,0,0)">
            <g transform="matrix(1,0,0,1,-27,-231.84)">
                <path d="M947.227,2319.99L946.534,2209.45L893.864,2298.16L857.826,2298.16L805.156,2213.26L805.156,2319.99L730.655,2319.99L730.655,2077.43L797.879,2077.43L876.885,2206.68L953.811,2077.43L1021.03,2077.43L1021.73,2319.99L947.227,2319.99Z" style="fill:rgb(9,32,80);fill-rule:nonzero;"/>
            </g>
        </g>
        <g transform="matrix(4.16667,0,0,4.16667,0,0)">
            <g transform="matrix(1,0,0,1,-27,-231.84)">
                <path d="M1262.91,2258.31L1262.91,2319.99L1061.24,2319.99L1061.24,2077.43L1258.4,2077.43L1258.4,2139.11L1141.63,2139.11L1141.63,2167.52L1244.2,2167.52L1244.2,2226.43L1141.63,2226.43L1141.63,2258.31L1262.91,2258.31Z" style="fill:rgb(9,32,80);fill-rule:nonzero;"/>
            </g>
        </g>
        <g transform="matrix(4.16667,0,0,4.16667,0,0)">
            <g transform="matrix(1,0,0,1,-27,-231.84)">
                <path d="M1406.02,2140.5L1376.22,2140.5L1376.22,2197.32L1406.02,2197.32C1428.54,2197.32 1439.29,2186.58 1439.29,2168.91C1439.29,2151.24 1428.54,2140.5 1406.02,2140.5M1398.4,2259L1376.22,2259L1376.22,2319.99L1294.44,2319.99L1294.44,2077.43L1411.22,2077.43C1478.79,2077.43 1521.76,2112.77 1521.76,2168.91C1521.76,2203.91 1505.12,2230.24 1476.02,2245.14L1526.95,2319.99L1439.63,2319.99L1398.4,2259Z" style="fill:rgb(9,32,80);fill-rule:nonzero;"/>
            </g>
        </g>
    </g>
</svg>
