<?xml version="1.0" encoding="UTF-8" standalone="no"?>
<!DOCTYPE svg PUBLIC "-//W3C//DTD SVG 1.1//EN" "http://www.w3.org/Graphics/SVG/1.1/DTD/svg11.dtd">
<svg width="100%" height="100%" viewBox="0 0 2445 660" version="1.1" xmlns="http://www.w3.org/2000/svg" xmlns:xlink="http://www.w3.org/1999/xlink" xml:space="preserve" xmlns:serif="http://www.serif.com/" style="fill-rule:evenodd;clip-rule:evenodd;stroke-linejoin:round;stroke-miterlimit:2;">
    <g transform="matrix(1,0,0,1,-1436.06,-3867.07)">
        <path d="M2068.25,4226.82L2048.46,4175.62L2028.68,4226.82L2068.25,4226.82ZM2087.16,4276.28L2009.77,4276.28L1996.09,4311.78L1926.27,4311.78L2015.3,4108.12L2082.79,4108.12L2171.82,4311.78L2100.83,4311.78L2087.16,4276.28Z" style="fill:rgb(9,31,79);fill-rule:nonzero;"/>
        <path d="M2364.72,4311.78L2364.14,4218.97L2319.92,4293.45L2289.66,4293.45L2245.44,4222.17L2245.44,4311.78L2182.88,4311.78L2182.88,4108.12L2239.33,4108.12L2305.66,4216.64L2370.25,4108.12L2426.69,4108.12L2427.27,4311.78L2364.72,4311.78Z" style="fill:rgb(9,31,79);fill-rule:nonzero;"/>
        <path d="M2629.77,4259.99L2629.77,4311.78L2460.44,4311.78L2460.44,4108.12L2625.99,4108.12L2625.99,4159.91L2527.94,4159.91L2527.94,4183.76L2614.06,4183.76L2614.06,4233.22L2527.94,4233.22L2527.94,4259.99L2629.77,4259.99Z" style="fill:rgb(9,31,79);fill-rule:nonzero;"/>
        <path d="M2749.93,4161.07L2724.91,4161.07L2724.91,4208.78L2749.93,4208.78C2768.84,4208.78 2777.86,4199.77 2777.86,4184.93C2777.86,4170.09 2768.84,4161.07 2749.93,4161.07ZM2743.53,4260.57L2724.91,4260.57L2724.91,4311.78L2656.25,4311.78L2656.25,4108.12L2754.3,4108.12C2811.03,4108.12 2847.11,4137.8 2847.11,4184.93C2847.11,4214.31 2833.14,4236.42 2808.7,4248.93L2851.47,4311.78L2778.15,4311.78L2743.53,4260.57Z" style="fill:rgb(9,31,79);fill-rule:nonzero;"/>
        <rect x="2873" y="4108.12" width="68.66" height="203.66" style="fill:rgb(9,31,79);fill-rule:nonzero;"/>
        <path d="M2966.68,4209.95C2966.68,4147.4 3014.69,4103.46 3080.15,4103.46C3120.01,4103.46 3151.43,4118.01 3171.51,4144.2L3128.16,4182.89C3116.23,4167.76 3101.97,4159.03 3083.64,4159.03C3055.13,4159.03 3035.93,4178.82 3035.93,4209.95C3035.93,4241.08 3055.13,4260.86 3083.64,4260.86C3101.97,4260.86 3116.23,4252.13 3128.16,4237.01L3171.51,4275.7C3151.43,4301.89 3120.01,4316.43 3080.15,4316.43C3014.69,4316.43 2966.68,4272.5 2966.68,4209.95Z" style="fill:rgb(9,31,79);fill-rule:nonzero;"/>
        <path d="M3308.25,4226.82L3288.47,4175.62L3268.68,4226.82L3308.25,4226.82ZM3327.16,4276.28L3249.77,4276.28L3236.1,4311.78L3166.27,4311.78L3255.3,4108.12L3322.8,4108.12L3411.83,4311.78L3340.84,4311.78L3327.16,4276.28Z" style="fill:rgb(9,31,79);fill-rule:nonzero;"/>
        <path d="M3623.64,4108.12L3623.64,4311.78L3567.19,4311.78L3489.8,4219.26L3489.8,4311.78L3422.89,4311.78L3422.89,4108.12L3479.33,4108.12L3556.72,4200.64L3556.72,4108.12L3623.64,4108.12Z" style="fill:rgb(9,31,79);fill-rule:nonzero;"/>
        <path d="M3776.67,4226.82L3756.89,4175.62L3737.1,4226.82L3776.67,4226.82ZM3795.58,4276.28L3718.19,4276.28L3704.52,4311.78L3634.69,4311.78L3723.72,4108.12L3791.22,4108.12L3880.25,4311.78L3809.26,4311.78L3795.58,4276.28Z" style="fill:rgb(9,31,79);fill-rule:nonzero;"/>
        <path d="M1761.77,4210.61L1758.04,4201.61L1754.31,4210.61L1761.77,4210.61ZM1763.48,4214.74L1752.56,4214.74L1750.48,4219.78L1744.91,4219.78L1755.39,4196.27L1760.76,4196.27L1771.27,4219.78L1765.56,4219.78L1763.48,4214.74Z" style="fill:rgb(9,31,79);fill-rule:nonzero;"/>
        <path d="M1790.92,4196.27L1790.92,4219.78L1786.45,4219.78L1774.73,4205.5L1774.73,4219.78L1769.36,4219.78L1769.36,4196.27L1773.86,4196.27L1785.55,4210.54L1785.55,4196.27L1790.92,4196.27Z" style="fill:rgb(9,31,79);fill-rule:nonzero;"/>
        <path d="M1810.87,4208.02C1810.87,4203.55 1807.72,4200.5 1803.52,4200.5C1799.32,4200.5 1796.16,4203.55 1796.16,4208.02C1796.16,4212.49 1799.32,4215.54 1803.52,4215.54C1807.72,4215.54 1810.87,4212.49 1810.87,4208.02ZM1790.66,4208.02C1790.66,4201.04 1796.1,4195.86 1803.52,4195.86C1810.91,4195.86 1816.38,4201 1816.38,4208.02C1816.38,4215.04 1810.91,4220.18 1803.52,4220.18C1796.1,4220.18 1790.66,4215.01 1790.66,4208.02Z" style="fill:rgb(9,31,79);fill-rule:nonzero;"/>
        <path d="M1814.27,4217.46L1816.12,4213.36C1818.1,4214.81 1821.05,4215.81 1823.88,4215.81C1827.1,4215.81 1828.41,4214.74 1828.41,4213.29C1828.41,4208.89 1814.74,4211.92 1814.74,4203.19C1814.74,4199.19 1817.96,4195.86 1824.65,4195.86C1827.6,4195.86 1830.63,4196.57 1832.81,4197.95L1831.13,4202.08C1828.95,4200.83 1826.7,4200.23 1824.61,4200.23C1821.39,4200.23 1820.15,4201.44 1820.15,4202.92C1820.15,4207.25 1833.82,4204.26 1833.82,4212.89C1833.82,4216.82 1830.56,4220.18 1823.84,4220.18C1820.11,4220.18 1816.35,4219.07 1814.27,4217.46Z" style="fill:rgb(9,31,79);fill-rule:nonzero;"/>
        <path d="M1436.47,4148L1473.51,4148L1473.51,4311.84L1529.93,4311.84L1529.93,4104.41L1436.47,4104.41L1436.47,4148Z" style="fill:rgb(9,31,79);fill-rule:nonzero;"/>
        <path d="M1674.54,4189.98C1661.36,4182.55 1643.33,4178.21 1619.61,4178.21L1605.89,4178.21L1608.52,4148.44L1690.83,4148.44L1690.83,4103.78L1560.65,4103.78L1550.43,4223.16L1605.89,4223.16C1637.12,4223.16 1645.59,4231.33 1645.59,4243.89C1645.59,4257.6 1632.45,4265.49 1612.9,4265.49C1593.34,4265.49 1572.91,4259.65 1556.27,4248.56L1535.55,4292.05C1556.27,4305.18 1586.33,4312.19 1614.65,4312.19C1656.03,4312.19 1681.98,4297.15 1694.56,4276.22C1680.42,4257.63 1672.77,4234.7 1672.77,4210.02C1672.77,4203.19 1673.39,4196.5 1674.54,4189.98Z" style="fill:rgb(9,31,79);fill-rule:nonzero;"/>
        <path d="M1791,4268.38C1760.06,4268.38 1735.83,4245.32 1735.83,4210C1735.83,4174.69 1760.06,4151.63 1791,4151.63C1821.94,4151.63 1846.17,4174.69 1846.17,4210C1846.17,4245.32 1821.94,4268.38 1791,4268.38ZM1791,4103.76C1749.69,4103.76 1715.27,4121.72 1695.51,4150.4C1694.94,4151.23 1694.37,4152.07 1693.83,4152.93C1687.13,4163.3 1682.3,4174.99 1679.69,4187.68C1679.37,4189.26 1679.09,4190.86 1678.84,4192.47C1677.94,4198.14 1677.46,4203.99 1677.46,4210C1677.46,4233.6 1684.62,4254.76 1697.13,4271.88C1698.08,4273.18 1699.06,4274.46 1700.07,4275.71C1720.33,4300.81 1752.7,4316.25 1791,4316.25C1856.38,4316.25 1904.54,4271.3 1904.54,4210C1904.54,4148.71 1856.38,4103.76 1791,4103.76Z" style="fill:rgb(9,31,79);fill-rule:nonzero;"/>
        <path d="M1489.22,4491.97C1489.72,4493.23 1490.21,4494.5 1490.68,4495.78C1491.16,4494.46 1491.66,4493.18 1492.18,4491.97C1492.7,4490.76 1493.29,4489.54 1493.96,4488.3L1528.52,4425.53C1529.14,4424.43 1529.78,4423.77 1530.44,4423.53C1531.11,4423.29 1532.06,4423.17 1533.29,4423.17L1543.48,4423.17L1543.48,4525.28L1531.37,4525.28L1531.37,4450.25C1531.37,4449.25 1531.39,4448.19 1531.44,4447.04C1531.49,4445.91 1531.56,4444.74 1531.65,4443.55L1496.67,4507.4C1495.48,4509.54 1493.82,4510.61 1491.68,4510.61L1489.68,4510.61C1487.55,4510.61 1485.88,4509.54 1484.7,4507.4L1448.93,4443.34C1449.07,4444.58 1449.18,4445.79 1449.25,4446.97C1449.32,4448.16 1449.35,4449.25 1449.35,4450.25L1449.35,4525.28L1437.24,4525.28L1437.24,4423.17L1447.43,4423.17C1448.66,4423.17 1449.61,4423.29 1450.28,4423.53C1450.94,4423.77 1451.59,4424.43 1452.2,4425.53L1487.48,4488.37C1488.14,4489.51 1488.72,4490.71 1489.22,4491.97Z" style="fill:rgb(9,31,79);fill-rule:nonzero;"/>
        <path d="M1674.02,4423.17L1674.02,4434.43L1625,4434.43L1625,4468.35L1664.69,4468.35L1664.69,4479.18L1625,4479.18L1625,4514.03L1674.02,4514.03L1674.02,4525.28L1611.1,4525.28L1611.1,4423.17L1674.02,4423.17Z" style="fill:rgb(9,31,79);fill-rule:nonzero;"/>
        <path d="M1788.64,4491.97C1789.14,4493.23 1789.62,4494.5 1790.1,4495.78C1790.57,4494.46 1791.07,4493.18 1791.59,4491.97C1792.12,4490.76 1792.71,4489.54 1793.38,4488.3L1827.94,4425.53C1828.55,4424.43 1829.19,4423.77 1829.86,4423.53C1830.52,4423.29 1831.47,4423.17 1832.71,4423.17L1842.9,4423.17L1842.9,4525.28L1830.79,4525.28L1830.79,4450.25C1830.79,4449.25 1830.81,4448.19 1830.86,4447.04C1830.9,4445.91 1830.97,4444.74 1831.07,4443.55L1796.08,4507.4C1794.9,4509.54 1793.23,4510.61 1791.1,4510.61L1789.1,4510.61C1786.96,4510.61 1785.3,4509.54 1784.11,4507.4L1748.34,4443.34C1748.49,4444.58 1748.59,4445.79 1748.66,4446.97C1748.73,4448.16 1748.77,4449.25 1748.77,4450.25L1748.77,4525.28L1736.66,4525.28L1736.66,4423.17L1746.85,4423.17C1748.08,4423.17 1749.03,4423.29 1749.7,4423.53C1750.36,4423.77 1751,4424.43 1751.62,4425.53L1786.89,4488.37C1787.56,4489.51 1788.14,4490.71 1788.64,4491.97Z" style="fill:rgb(9,31,79);fill-rule:nonzero;"/>
        <path d="M1979.43,4398.31L1958.48,4413.7C1957.67,4414.27 1956.96,4414.65 1956.34,4414.84C1955.72,4415.03 1954.91,4415.12 1953.92,4415.12L1944.08,4415.12L1959.12,4400.66C1959.59,4400.18 1960.03,4399.8 1960.44,4399.52C1960.84,4399.23 1961.26,4399 1961.68,4398.8C1962.11,4398.62 1962.58,4398.48 1963.11,4398.41C1963.63,4398.34 1964.29,4398.31 1965.1,4398.31L1979.43,4398.31ZM1991.18,4474.27C1991.18,4467.99 1990.33,4462.37 1988.62,4457.38C1986.91,4452.39 1984.48,4448.17 1981.35,4444.73C1978.21,4441.29 1974.41,4438.64 1969.95,4436.78C1965.48,4434.93 1960.49,4434.01 1954.98,4434.01C1949.52,4434.01 1944.56,4434.93 1940.09,4436.78C1935.63,4438.64 1931.81,4441.29 1928.66,4444.73C1925.5,4448.17 1923.06,4452.39 1921.35,4457.38C1919.64,4462.37 1918.79,4467.99 1918.79,4474.27C1918.79,4480.54 1919.64,4486.15 1921.35,4491.12C1923.06,4496.08 1925.5,4500.29 1928.66,4503.73C1931.81,4507.17 1935.63,4509.81 1940.09,4511.64C1944.56,4513.47 1949.52,4514.38 1954.98,4514.38C1960.49,4514.38 1965.48,4513.47 1969.95,4511.64C1974.41,4509.81 1978.21,4507.17 1981.35,4503.73C1984.48,4500.29 1986.91,4496.08 1988.62,4491.12C1990.33,4486.15 1991.18,4480.54 1991.18,4474.27ZM2005.36,4474.27C2005.36,4481.91 2004.15,4488.93 2001.73,4495.32C1999.31,4501.71 1995.89,4507.21 1991.47,4511.82C1987.05,4516.43 1981.74,4520 1975.54,4522.54C1969.34,4525.08 1962.49,4526.35 1954.98,4526.35C1947.48,4526.35 1940.64,4525.08 1934.46,4522.54C1928.29,4520 1922.99,4516.43 1918.57,4511.82C1914.16,4507.21 1910.73,4501.71 1908.31,4495.32C1905.89,4488.93 1904.68,4481.91 1904.68,4474.27C1904.68,4466.62 1905.89,4459.6 1908.31,4453.21C1910.73,4446.82 1914.16,4441.31 1918.57,4436.68C1922.99,4432.05 1928.29,4428.45 1934.46,4425.88C1940.64,4423.32 1947.48,4422.03 1954.98,4422.03C1962.49,4422.03 1969.34,4423.32 1975.54,4425.88C1981.74,4428.45 1987.05,4432.05 1991.47,4436.68C1995.89,4441.31 1999.31,4446.82 2001.73,4453.21C2004.15,4459.6 2005.36,4466.62 2005.36,4474.27Z" style="fill:rgb(9,31,79);fill-rule:nonzero;"/>
        <path d="M2082.18,4472.63L2096.64,4472.63C2100.68,4472.63 2104.23,4472.14 2107.29,4471.17C2110.36,4470.19 2112.92,4468.81 2114.99,4467.03C2117.05,4465.25 2118.61,4463.13 2119.66,4460.66C2120.7,4458.19 2121.22,4455.45 2121.22,4452.46C2121.22,4446.38 2119.22,4441.8 2115.2,4438.71C2111.19,4435.62 2105.21,4434.08 2097.28,4434.08L2082.18,4434.08L2082.18,4472.63ZM2082.18,4482.67L2082.18,4525.28L2068.42,4525.28L2068.42,4423.17L2097.28,4423.17C2103.74,4423.17 2109.32,4423.83 2114.03,4425.13C2118.73,4426.44 2122.61,4428.33 2125.68,4430.8C2128.74,4433.27 2131.01,4436.25 2132.48,4439.74C2133.95,4443.23 2134.69,4447.14 2134.69,4451.46C2134.69,4455.07 2134.12,4458.45 2132.98,4461.58C2131.84,4464.72 2130.19,4467.53 2128.03,4470.03C2125.87,4472.52 2123.23,4474.65 2120.12,4476.4C2117.01,4478.16 2113.48,4479.49 2109.54,4480.39C2111.25,4481.39 2112.77,4482.84 2114.1,4484.74L2143.88,4525.28L2131.63,4525.28C2129.11,4525.28 2127.26,4524.31 2126.07,4522.36L2099.56,4485.88C2098.75,4484.74 2097.87,4483.92 2096.93,4483.42C2095.97,4482.92 2094.55,4482.67 2092.65,4482.67L2082.18,4482.67Z" style="fill:rgb(9,31,79);fill-rule:nonzero;"/>
        <rect x="2204.09" y="4423.17" width="13.83" height="102.11" style="fill:rgb(9,31,79);fill-rule:nonzero;"/>
        <path d="M2305.13,4487.38L2343.26,4487.38L2327.22,4445.83C2326.18,4443.27 2325.16,4440.06 2324.16,4436.21C2323.64,4438.16 2323.13,4439.96 2322.63,4441.59C2322.13,4443.23 2321.64,4444.67 2321.17,4445.91L2305.13,4487.38ZM2372.04,4525.28L2361.35,4525.28C2360.12,4525.28 2359.12,4524.98 2358.36,4524.36C2357.6,4523.74 2357.03,4522.96 2356.65,4522.01L2347.1,4497.35L2301.29,4497.35L2291.74,4522.01C2291.4,4522.86 2290.83,4523.62 2290.03,4524.29C2289.22,4524.95 2288.22,4525.28 2287.03,4525.28L2276.35,4525.28L2317.18,4423.17L2331.21,4423.17L2372.04,4525.28Z" style="fill:rgb(9,31,79);fill-rule:nonzero;"/>
        <path d="M2479.99,4439.14C2479.57,4439.85 2479.11,4440.38 2478.64,4440.74C2478.16,4441.1 2477.55,4441.27 2476.79,4441.27C2475.98,4441.27 2475.04,4440.87 2473.97,4440.06C2472.9,4439.25 2471.55,4438.36 2469.91,4437.39C2468.27,4436.42 2466.3,4435.53 2464,4434.72C2461.69,4433.91 2458.9,4433.51 2455.62,4433.51C2452.54,4433.51 2449.8,4433.92 2447.43,4434.75C2445.05,4435.59 2443.07,4436.71 2441.48,4438.14C2439.89,4439.56 2438.69,4441.24 2437.88,4443.16C2437.07,4445.09 2436.67,4447.16 2436.67,4449.4C2436.67,4452.25 2437.37,4454.61 2438.77,4456.49C2440.17,4458.36 2442.03,4459.97 2444.33,4461.3C2446.63,4462.63 2449.25,4463.78 2452.17,4464.75C2455.09,4465.73 2458.08,4466.74 2461.15,4467.78C2464.21,4468.83 2467.2,4470 2470.13,4471.31C2473.05,4472.62 2475.66,4474.27 2477.96,4476.26C2480.27,4478.26 2482.12,4480.7 2483.52,4483.6C2484.92,4486.5 2485.62,4490.06 2485.62,4494.29C2485.62,4498.75 2484.86,4502.95 2483.34,4506.87C2481.82,4510.78 2479.6,4514.19 2476.68,4517.09C2473.76,4519.99 2470.17,4522.27 2465.92,4523.93C2461.67,4525.59 2456.84,4526.42 2451.42,4526.42C2444.82,4526.42 2438.8,4525.23 2433.36,4522.83C2427.92,4520.43 2423.27,4517.19 2419.43,4513.1L2423.42,4506.54C2423.8,4506.02 2424.26,4505.58 2424.81,4505.23C2425.35,4504.87 2425.96,4504.69 2426.62,4504.69C2427.62,4504.69 2428.76,4505.23 2430.04,4506.29C2431.33,4507.36 2432.93,4508.54 2434.85,4509.82C2436.78,4511.1 2439.1,4512.28 2441.84,4513.35C2444.57,4514.42 2447.9,4514.95 2451.85,4514.95C2455.13,4514.95 2458.05,4514.5 2460.61,4513.6C2463.18,4512.7 2465.35,4511.42 2467.13,4509.79C2468.91,4508.15 2470.28,4506.19 2471.23,4503.91C2472.18,4501.63 2472.65,4499.09 2472.65,4496.28C2472.65,4493.2 2471.95,4490.67 2470.55,4488.69C2469.15,4486.72 2467.31,4485.07 2465.03,4483.74C2462.75,4482.41 2460.15,4481.28 2457.23,4480.36C2454.31,4479.43 2451.31,4478.48 2448.25,4477.51C2445.19,4476.53 2442.19,4475.41 2439.27,4474.12C2436.35,4472.84 2433.75,4471.18 2431.47,4469.13C2429.19,4467.09 2427.35,4464.54 2425.95,4461.47C2424.54,4458.41 2423.84,4454.62 2423.84,4450.11C2423.84,4446.5 2424.54,4443.01 2425.95,4439.63C2427.35,4436.26 2429.38,4433.27 2432.04,4430.66C2434.7,4428.04 2437.99,4425.95 2441.91,4424.39C2445.83,4422.82 2450.33,4422.03 2455.41,4422.03C2461.11,4422.03 2466.31,4422.94 2471.02,4424.74C2475.72,4426.55 2479.83,4429.16 2483.34,4432.58L2479.99,4439.14Z" style="fill:rgb(9,31,79);fill-rule:nonzero;"/>
        <path d="M2622.58,4497.07C2622.58,4500.16 2623.15,4502.87 2624.29,4505.23C2625.43,4507.58 2626.92,4509.56 2628.78,4511.18C2630.63,4512.79 2632.74,4514.01 2635.12,4514.85C2637.49,4515.68 2639.91,4516.09 2642.39,4516.09C2647.7,4516.09 2652.48,4515.12 2656.71,4513.17C2660.94,4511.22 2664.66,4508.63 2667.89,4505.4L2637.75,4474.98C2632.72,4477.69 2628.93,4480.93 2626.39,4484.7C2623.85,4488.48 2622.58,4492.6 2622.58,4497.07ZM2650.86,4422.03C2654.62,4422.03 2658.04,4422.64 2661.13,4423.85C2664.21,4425.06 2666.89,4426.67 2669.14,4428.66C2671.4,4430.66 2673.18,4432.97 2674.49,4435.61C2675.79,4438.25 2676.54,4440.99 2676.73,4443.84L2668.82,4445.41C2668.58,4445.45 2668.37,4445.48 2668.18,4445.48C2667.56,4445.48 2666.98,4445.31 2666.43,4444.98C2665.89,4444.65 2665.5,4444.05 2665.26,4443.2C2664.93,4441.96 2664.39,4440.68 2663.66,4439.35C2662.92,4438.02 2661.97,4436.81 2660.8,4435.72C2659.64,4434.62 2658.24,4433.72 2656.6,4433.01C2654.96,4432.29 2653.05,4431.94 2650.86,4431.94C2648.49,4431.94 2646.35,4432.32 2644.45,4433.08C2642.55,4433.84 2640.92,4434.9 2639.57,4436.25C2638.22,4437.6 2637.17,4439.2 2636.44,4441.02C2635.7,4442.85 2635.33,4444.84 2635.33,4446.97C2635.33,4448.64 2635.53,4450.23 2635.94,4451.75C2636.34,4453.27 2636.95,4454.8 2637.75,4456.34C2638.56,4457.89 2639.61,4459.48 2640.89,4461.12C2642.17,4462.76 2643.71,4464.48 2645.52,4466.28L2674.88,4496.14C2676.68,4492.96 2678.12,4489.62 2679.19,4486.13C2680.26,4482.64 2680.98,4479.13 2681.36,4475.62C2681.46,4474.72 2681.74,4474 2682.22,4473.48C2682.69,4472.96 2683.36,4472.7 2684.21,4472.7L2692.05,4472.7C2691.95,4478.16 2691.08,4483.53 2689.41,4488.8C2687.75,4494.07 2685.35,4499.02 2682.22,4503.62L2703.59,4525.28L2691.34,4525.28C2689.96,4525.28 2688.84,4525.12 2687.99,4524.79C2687.13,4524.45 2686.18,4523.76 2685.14,4522.72L2674.88,4512.39C2670.41,4516.71 2665.27,4520.13 2659.45,4522.65C2653.63,4525.17 2647.23,4526.42 2640.25,4526.42C2636.45,4526.42 2632.72,4525.78 2629.06,4524.5C2625.4,4523.22 2622.14,4521.35 2619.26,4518.91C2616.39,4516.46 2614.07,4513.48 2612.32,4509.96C2610.56,4506.45 2609.68,4502.48 2609.68,4498.06C2609.68,4494.74 2610.24,4491.59 2611.35,4488.62C2612.47,4485.66 2614.01,4482.91 2615.98,4480.39C2617.96,4477.88 2620.3,4475.62 2623,4473.62C2625.71,4471.63 2628.68,4469.92 2631.91,4468.49C2629.01,4464.84 2626.87,4461.27 2625.5,4457.8C2624.12,4454.34 2623.43,4450.75 2623.43,4447.04C2623.43,4443.58 2624.06,4440.32 2625.32,4437.28C2626.58,4434.24 2628.39,4431.59 2630.77,4429.34C2633.15,4427.08 2636.03,4425.3 2639.43,4423.99C2642.82,4422.69 2646.64,4422.03 2650.86,4422.03Z" style="fill:rgb(9,31,79);fill-rule:nonzero;"/>
        <path d="M2912.23,4525.28L2898.33,4525.28L2898.33,4478.83L2843.32,4478.83L2843.32,4525.28L2829.43,4525.28L2829.43,4423.17L2843.32,4423.17L2843.32,4468.71L2898.33,4468.71L2898.33,4423.17L2912.23,4423.17L2912.23,4525.28Z" style="fill:rgb(9,31,79);fill-rule:nonzero;"/>
        <rect x="2982.49" y="4423.17" width="13.82" height="102.11" style="fill:rgb(9,31,79);fill-rule:nonzero;"/>
        <path d="M3118.73,4439.14C3118.3,4439.85 3117.85,4440.38 3117.37,4440.74C3116.9,4441.1 3116.28,4441.27 3115.52,4441.27C3114.71,4441.27 3113.77,4440.87 3112.71,4440.06C3111.64,4439.25 3110.28,4438.36 3108.64,4437.39C3107.01,4436.42 3105.03,4435.53 3102.73,4434.72C3100.43,4433.91 3097.64,4433.51 3094.36,4433.51C3091.27,4433.51 3088.54,4433.92 3086.16,4434.75C3083.79,4435.59 3081.8,4436.71 3080.21,4438.14C3078.62,4439.56 3077.42,4441.24 3076.61,4443.16C3075.81,4445.09 3075.4,4447.16 3075.4,4449.4C3075.4,4452.25 3076.1,4454.61 3077.51,4456.49C3078.91,4458.36 3080.76,4459.97 3083.06,4461.3C3085.37,4462.63 3087.98,4463.78 3090.9,4464.75C3093.82,4465.73 3096.82,4466.74 3099.88,4467.78C3102.94,4468.83 3105.94,4470 3108.86,4471.31C3111.78,4472.62 3114.39,4474.27 3116.7,4476.26C3119,4478.26 3120.85,4480.7 3122.25,4483.6C3123.66,4486.5 3124.36,4490.06 3124.36,4494.29C3124.36,4498.75 3123.6,4502.95 3122.08,4506.87C3120.56,4510.78 3118.34,4514.19 3115.41,4517.09C3112.49,4519.99 3108.91,4522.27 3104.65,4523.93C3100.4,4525.59 3095.57,4526.42 3090.15,4526.42C3083.55,4526.42 3077.53,4525.23 3072.09,4522.83C3066.65,4520.43 3062.01,4517.19 3058.16,4513.1L3062.15,4506.54C3062.53,4506.02 3062.99,4505.58 3063.54,4505.23C3064.08,4504.87 3064.69,4504.69 3065.36,4504.69C3066.35,4504.69 3067.49,4505.23 3068.78,4506.29C3070.06,4507.36 3071.66,4508.54 3073.59,4509.82C3075.51,4511.1 3077.84,4512.28 3080.57,4513.35C3083.3,4514.42 3086.64,4514.95 3090.58,4514.95C3093.86,4514.95 3096.78,4514.5 3099.35,4513.6C3101.91,4512.7 3104.08,4511.42 3105.87,4509.79C3107.65,4508.15 3109.01,4506.19 3109.96,4503.91C3110.91,4501.63 3111.39,4499.09 3111.39,4496.28C3111.39,4493.2 3110.69,4490.67 3109.29,4488.69C3107.88,4486.72 3106.04,4485.07 3103.76,4483.74C3101.48,4482.41 3098.88,4481.28 3095.96,4480.36C3093.04,4479.43 3090.05,4478.48 3086.98,4477.51C3083.92,4476.53 3080.93,4475.41 3078,4474.12C3075.08,4472.84 3072.48,4471.18 3070.2,4469.13C3067.92,4467.09 3066.08,4464.54 3064.68,4461.47C3063.28,4458.41 3062.58,4454.62 3062.58,4450.11C3062.58,4446.5 3063.28,4443.01 3064.68,4439.63C3066.08,4436.26 3068.11,4433.27 3070.77,4430.66C3073.43,4428.04 3076.72,4425.95 3080.64,4424.39C3084.56,4422.82 3089.06,4422.03 3094.14,4422.03C3099.84,4422.03 3105.05,4422.94 3109.75,4424.74C3114.45,4426.55 3118.56,4429.16 3122.08,4432.58L3118.73,4439.14Z" style="fill:rgb(9,31,79);fill-rule:nonzero;"/>
        <path d="M3254.26,4423.17L3254.26,4434.79L3221.26,4434.79L3221.26,4525.28L3207.44,4525.28L3207.44,4434.79L3174.31,4434.79L3174.31,4423.17L3254.26,4423.17Z" style="fill:rgb(9,31,79);fill-rule:nonzero;"/>
        <path d="M3373.47,4398.31L3352.52,4413.7C3351.71,4414.27 3351,4414.65 3350.38,4414.84C3349.76,4415.03 3348.95,4415.12 3347.96,4415.12L3338.12,4415.12L3353.16,4400.66C3353.63,4400.18 3354.07,4399.8 3354.48,4399.52C3354.88,4399.23 3355.3,4399 3355.72,4398.8C3356.15,4398.62 3356.63,4398.48 3357.15,4398.41C3357.67,4398.34 3358.34,4398.31 3359.14,4398.31L3373.47,4398.31ZM3385.22,4474.27C3385.22,4467.99 3384.37,4462.37 3382.66,4457.38C3380.95,4452.39 3378.53,4448.17 3375.39,4444.73C3372.26,4441.29 3368.45,4438.64 3363.99,4436.78C3359.52,4434.93 3354.54,4434.01 3349.03,4434.01C3343.56,4434.01 3338.6,4434.93 3334.13,4436.78C3329.67,4438.64 3325.86,4441.29 3322.7,4444.73C3319.54,4448.17 3317.1,4452.39 3315.39,4457.38C3313.68,4462.37 3312.83,4467.99 3312.83,4474.27C3312.83,4480.54 3313.68,4486.15 3315.39,4491.12C3317.1,4496.08 3319.54,4500.29 3322.7,4503.73C3325.86,4507.17 3329.67,4509.81 3334.13,4511.64C3338.6,4513.47 3343.56,4514.38 3349.03,4514.38C3354.54,4514.38 3359.52,4513.47 3363.99,4511.64C3368.45,4509.81 3372.26,4507.17 3375.39,4503.73C3378.53,4500.29 3380.95,4496.08 3382.66,4491.12C3384.37,4486.15 3385.22,4480.54 3385.22,4474.27ZM3399.4,4474.27C3399.4,4481.91 3398.19,4488.93 3395.77,4495.32C3393.35,4501.71 3389.93,4507.21 3385.51,4511.82C3381.09,4516.43 3375.78,4520 3369.58,4522.54C3363.38,4525.08 3356.53,4526.35 3349.03,4526.35C3341.52,4526.35 3334.68,4525.08 3328.5,4522.54C3322.33,4520 3317.03,4516.43 3312.61,4511.82C3308.2,4507.21 3304.78,4501.71 3302.35,4495.32C3299.93,4488.93 3298.72,4481.91 3298.72,4474.27C3298.72,4466.62 3299.93,4459.6 3302.35,4453.21C3304.78,4446.82 3308.2,4441.31 3312.61,4436.68C3317.03,4432.05 3322.33,4428.45 3328.5,4425.88C3334.68,4423.32 3341.52,4422.03 3349.03,4422.03C3356.53,4422.03 3363.38,4423.32 3369.58,4425.88C3375.78,4428.45 3381.09,4432.05 3385.51,4436.68C3389.93,4441.31 3393.35,4446.82 3395.77,4453.21C3398.19,4459.6 3399.4,4466.62 3399.4,4474.27Z" style="fill:rgb(9,31,79);fill-rule:nonzero;"/>
        <path d="M3476.22,4472.63L3490.68,4472.63C3494.72,4472.63 3498.27,4472.14 3501.33,4471.17C3504.4,4470.19 3506.96,4468.81 3509.03,4467.03C3511.1,4465.25 3512.65,4463.13 3513.7,4460.66C3514.74,4458.19 3515.26,4455.45 3515.26,4452.46C3515.26,4446.38 3513.26,4441.8 3509.24,4438.71C3505.23,4435.62 3499.26,4434.08 3491.32,4434.08L3476.22,4434.08L3476.22,4472.63ZM3476.22,4482.67L3476.22,4525.28L3462.46,4525.28L3462.46,4423.17L3491.32,4423.17C3497.78,4423.17 3503.36,4423.83 3508.07,4425.13C3512.77,4426.44 3516.65,4428.33 3519.72,4430.8C3522.78,4433.27 3525.05,4436.25 3526.52,4439.74C3527.99,4443.23 3528.73,4447.14 3528.73,4451.46C3528.73,4455.07 3528.16,4458.45 3527.02,4461.58C3525.88,4464.72 3524.23,4467.53 3522.07,4470.03C3519.91,4472.52 3517.27,4474.65 3514.16,4476.4C3511.05,4478.16 3507.52,4479.49 3503.58,4480.39C3505.29,4481.39 3506.81,4482.84 3508.14,4484.74L3537.92,4525.28L3525.67,4525.28C3523.15,4525.28 3521.3,4524.31 3520.11,4522.36L3493.6,4485.88C3492.79,4484.74 3491.92,4483.92 3490.97,4483.42C3490.02,4482.92 3488.59,4482.67 3486.69,4482.67L3476.22,4482.67Z" style="fill:rgb(9,31,79);fill-rule:nonzero;"/>
        <rect x="3598.14" y="4423.17" width="13.82" height="102.11" style="fill:rgb(9,31,79);fill-rule:nonzero;"/>
        <path d="M3699.18,4487.38L3737.3,4487.38L3721.26,4445.83C3720.22,4443.27 3719.2,4440.06 3718.2,4436.21C3717.68,4438.16 3717.17,4439.96 3716.67,4441.59C3716.17,4443.23 3715.68,4444.67 3715.21,4445.91L3699.18,4487.38ZM3766.08,4525.28L3755.4,4525.28C3754.16,4525.28 3753.16,4524.98 3752.4,4524.36C3751.64,4523.74 3751.07,4522.96 3750.69,4522.01L3741.14,4497.35L3695.33,4497.35L3685.78,4522.01C3685.45,4522.86 3684.88,4523.62 3684.07,4524.29C3683.26,4524.95 3682.26,4525.28 3681.08,4525.28L3670.39,4525.28L3711.22,4423.17L3725.25,4423.17L3766.08,4525.28Z" style="fill:rgb(9,31,79);fill-rule:nonzero;"/>
        <path d="M3874.04,4439.14C3873.61,4439.85 3873.16,4440.38 3872.68,4440.74C3872.21,4441.1 3871.59,4441.27 3870.83,4441.27C3870.02,4441.27 3869.08,4440.87 3868.01,4440.06C3866.95,4439.25 3865.59,4438.36 3863.95,4437.39C3862.31,4436.42 3860.34,4435.53 3858.04,4434.72C3855.73,4433.91 3852.94,4433.51 3849.67,4433.51C3846.58,4433.51 3843.85,4433.92 3841.47,4434.75C3839.1,4435.59 3837.11,4436.71 3835.52,4438.14C3833.93,4439.56 3832.73,4441.24 3831.92,4443.16C3831.12,4445.09 3830.71,4447.16 3830.71,4449.4C3830.71,4452.25 3831.41,4454.61 3832.81,4456.49C3834.22,4458.36 3836.07,4459.97 3838.37,4461.3C3840.68,4462.63 3843.29,4463.78 3846.21,4464.75C3849.13,4465.73 3852.12,4466.74 3855.19,4467.78C3858.25,4468.83 3861.25,4470 3864.17,4471.31C3867.09,4472.62 3869.7,4474.27 3872.01,4476.26C3874.31,4478.26 3876.16,4480.7 3877.56,4483.6C3878.96,4486.5 3879.67,4490.06 3879.67,4494.29C3879.67,4498.75 3878.91,4502.95 3877.39,4506.87C3875.86,4510.78 3873.64,4514.19 3870.72,4517.09C3867.8,4519.99 3864.21,4522.27 3859.96,4523.93C3855.71,4525.59 3850.88,4526.42 3845.46,4526.42C3838.86,4526.42 3832.84,4525.23 3827.4,4522.83C3821.96,4520.43 3817.32,4517.19 3813.47,4513.1L3817.46,4506.54C3817.84,4506.02 3818.3,4505.58 3818.85,4505.23C3819.39,4504.87 3820,4504.69 3820.67,4504.69C3821.66,4504.69 3822.8,4505.23 3824.09,4506.29C3825.37,4507.36 3826.97,4508.54 3828.9,4509.82C3830.82,4511.1 3833.15,4512.28 3835.88,4513.35C3838.61,4514.42 3841.95,4514.95 3845.89,4514.95C3849.17,4514.95 3852.09,4514.5 3854.65,4513.6C3857.22,4512.7 3859.39,4511.42 3861.17,4509.79C3862.96,4508.15 3864.32,4506.19 3865.27,4503.91C3866.22,4501.63 3866.7,4499.09 3866.7,4496.28C3866.7,4493.2 3866,4490.67 3864.59,4488.69C3863.19,4486.72 3861.35,4485.07 3859.07,4483.74C3856.79,4482.41 3854.19,4481.28 3851.27,4480.36C3848.35,4479.43 3845.36,4478.48 3842.29,4477.51C3839.23,4476.53 3836.23,4475.41 3833.31,4474.12C3830.39,4472.84 3827.79,4471.18 3825.51,4469.13C3823.23,4467.09 3821.39,4464.54 3819.99,4461.47C3818.59,4458.41 3817.89,4454.62 3817.89,4450.11C3817.89,4446.5 3818.59,4443.01 3819.99,4439.63C3821.39,4436.26 3823.42,4433.27 3826.08,4430.66C3828.74,4428.04 3832.03,4425.95 3835.95,4424.39C3839.87,4422.82 3844.37,4422.03 3849.45,4422.03C3855.15,4422.03 3860.35,4422.94 3865.06,4424.74C3869.76,4426.55 3873.87,4429.16 3877.39,4432.58L3874.04,4439.14Z" style="fill:rgb(9,31,79);fill-rule:nonzero;"/>
        <rect x="1436.06" y="4361.49" width="2441.11" height="10.77" style="fill:rgb(246,139,69);fill-rule:nonzero;"/>
        <path d="M1556.76,4032.39L1556.76,4047.99L1436.06,4047.99L1436.06,3877.31L1553.1,3877.31L1553.1,3892.91L1454.11,3892.91L1454.11,3953.63L1542.38,3953.63L1542.38,3968.99L1454.11,3968.99L1454.11,4032.39L1556.76,4032.39Z" style="fill:rgb(246,139,69);fill-rule:nonzero;"/>
        <path d="M1673.56,4047.99L1632.83,3994.35L1591.87,4047.99L1572.36,4047.99L1623.08,3982.16L1574.8,3919.73L1594.31,3919.73L1632.83,3969.96L1671.36,3919.73L1690.38,3919.73L1642.1,3982.16L1693.31,4047.99L1673.56,4047.99Z" style="fill:rgb(246,139,69);fill-rule:nonzero;"/>
        <path d="M1834.73,3983.86C1834.73,3954.12 1814,3933.88 1786.94,3933.88C1759.63,3933.88 1739.14,3954.12 1739.14,3983.86C1739.14,4013.86 1759.63,4033.85 1786.94,4033.85C1814,4033.85 1834.73,4013.86 1834.73,3983.86ZM1852.04,3983.86C1852.04,4022.88 1824.73,4049.21 1788.16,4049.21C1767.67,4049.21 1750.12,4040.43 1739.39,4023.85L1739.39,4095.3L1722.08,4095.3L1722.08,3919.73L1738.66,3919.73L1738.66,3945.09C1749.14,3928.02 1766.94,3918.76 1788.16,3918.76C1824.73,3918.76 1852.04,3945.09 1852.04,3983.86Z" style="fill:rgb(246,139,69);fill-rule:nonzero;"/>
        <path d="M1987.37,3983.86C1987.37,3953.87 1967.13,3933.88 1939.82,3933.88C1912.51,3933.88 1892.03,3953.87 1892.03,3983.86C1892.03,4013.86 1912.51,4033.85 1939.82,4033.85C1967.13,4033.85 1987.37,4013.86 1987.37,3983.86ZM1874.47,3983.86C1874.47,3945.83 1902.27,3918.76 1939.82,3918.76C1977.37,3918.76 2004.92,3945.83 2004.92,3983.86C2004.92,4021.9 1977.37,4049.21 1939.82,4049.21C1902.27,4049.21 1874.47,4021.9 1874.47,3983.86Z" style="fill:rgb(246,139,69);fill-rule:nonzero;"/>
        <path d="M2022.48,4033.36L2030.28,4019.71C2040.52,4027.75 2057.83,4034.09 2075.88,4034.09C2100.26,4034.09 2110.26,4025.8 2110.26,4013.12C2110.26,3979.72 2027.11,4006.05 2027.11,3955.33C2027.11,3934.36 2045.15,3918.76 2077.83,3918.76C2094.41,3918.76 2112.45,3923.39 2123.18,3930.71L2115.62,3944.61C2104.41,3936.8 2090.99,3933.63 2077.83,3933.63C2054.66,3933.63 2044.42,3942.66 2044.42,3954.85C2044.42,3989.47 2127.57,3963.38 2127.57,4012.64C2127.57,4034.83 2108.06,4049.21 2074.66,4049.21C2053.44,4049.21 2032.96,4042.38 2022.48,4033.36Z" style="fill:rgb(246,139,69);fill-rule:nonzero;"/>
        <path d="M2159.51,3919.73L2176.82,3919.73L2176.82,4047.99L2159.51,4047.99L2159.51,3919.73ZM2155.61,3879.26C2155.61,3872.67 2161.22,3867.07 2168.29,3867.07C2175.36,3867.07 2180.97,3872.43 2180.97,3879.01C2180.97,3886.09 2175.6,3891.69 2168.29,3891.69C2161.22,3891.69 2155.61,3886.09 2155.61,3879.26Z" style="fill:rgb(246,139,69);fill-rule:nonzero;"/>
        <path d="M2315.56,4015.07L2328.49,4023.85C2318.25,4040.43 2299.96,4049.21 2278.26,4049.21L2277.77,4049.21L2274.84,4060.67C2288.25,4061.89 2295.57,4069.69 2295.57,4080.42C2295.57,4093.59 2284.35,4101.64 2268.02,4101.64C2259.97,4101.64 2253.39,4099.93 2247.53,4096.03L2251.68,4086.76C2256.56,4089.93 2261.92,4091.4 2267.77,4091.4C2277.53,4091.4 2282.89,4087.25 2282.89,4079.93C2282.89,4073.35 2278.01,4068.72 2267.77,4068.72L2262.16,4068.72L2267.53,4048.48C2234.85,4043.85 2212.18,4018.49 2212.18,3983.86C2212.18,3945.58 2239.97,3918.76 2278.26,3918.76C2299.96,3918.76 2318.25,3927.29 2328.49,3944.12L2315.56,3952.9C2306.79,3939.97 2293.13,3933.88 2278.26,3933.88C2250.22,3933.88 2229.73,3953.87 2229.73,3983.86C2229.73,4014.1 2250.22,4033.85 2278.26,4033.85C2293.13,4033.85 2306.79,4028 2315.56,4015.07Z" style="fill:rgb(246,139,69);fill-rule:nonzero;"/>
        <path d="M2379.69,3897.55L2369.2,3897.55C2369.69,3881.21 2378.22,3870.72 2391.15,3870.72C2406.27,3870.72 2413.58,3887.3 2423.09,3887.3C2430.41,3887.3 2435.28,3881.45 2435.77,3872.19L2446.25,3872.19C2445.77,3888.04 2437.23,3898.52 2424.31,3898.52C2409.19,3898.52 2402.12,3881.94 2392.37,3881.94C2385.05,3881.94 2380.18,3887.79 2379.69,3897.55ZM2441.87,4009.47L2441.87,3988.5L2401.63,3988.5C2376.76,3988.5 2368.72,3998.25 2368.72,4011.42C2368.72,4026.29 2380.66,4035.56 2401.15,4035.56C2420.65,4035.56 2435.04,4026.29 2441.87,4009.47ZM2459.18,3968.5L2459.18,4047.99L2442.6,4047.99L2442.6,4028C2434.79,4041.16 2419.68,4049.21 2398.46,4049.21C2369.45,4049.21 2351.65,4034.09 2351.65,4011.9C2351.65,3992.15 2364.33,3975.57 2401.15,3975.57L2441.87,3975.57L2441.87,3967.77C2441.87,3945.83 2429.43,3933.88 2405.53,3933.88C2388.95,3933.88 2373.35,3939.73 2362.86,3949L2355.06,3936.07C2367.98,3925.1 2387,3918.76 2407.24,3918.76C2440.4,3918.76 2459.18,3935.34 2459.18,3968.5Z" style="fill:rgb(246,139,69);fill-rule:nonzero;"/>
        <path d="M2606.7,3983.86C2606.7,3953.87 2586.46,3933.88 2559.15,3933.88C2531.84,3933.88 2511.36,3953.87 2511.36,3983.86C2511.36,4013.86 2531.84,4033.85 2559.15,4033.85C2586.46,4033.85 2606.7,4013.86 2606.7,3983.86ZM2493.8,3983.86C2493.8,3945.83 2521.6,3918.76 2559.15,3918.76C2596.7,3918.76 2624.25,3945.83 2624.25,3983.86C2624.25,4021.9 2596.7,4049.21 2559.15,4049.21C2521.6,4049.21 2493.8,4021.9 2493.8,3983.86Z" style="fill:rgb(246,139,69);fill-rule:nonzero;"/>
    </g>
</svg>
