<?xml version="1.0" encoding="UTF-8" standalone="no"?>
<!DOCTYPE svg PUBLIC "-//W3C//DTD SVG 1.1//EN" "http://www.w3.org/Graphics/SVG/1.1/DTD/svg11.dtd">
<svg width="100%" height="100%" viewBox="0 0 837 171" version="1.1" xmlns="http://www.w3.org/2000/svg" xmlns:xlink="http://www.w3.org/1999/xlink" xml:space="preserve" xmlns:serif="http://www.serif.com/" style="fill-rule:evenodd;clip-rule:evenodd;stroke-linejoin:round;stroke-miterlimit:2;">
    <g transform="matrix(1,0,0,1,-283.422,-639.982)">
        <rect x="964.94" y="670.34" width="154.8" height="114.99" style="fill:rgb(27,53,86);"/>
        <g>
            <rect x="1007.26" y="675.89" width="16.64" height="105.9" style="fill:rgb(69,183,229);fill-rule:nonzero;"/>
            <path d="M1049.16,675.89L1071.7,675.89L1088.95,781.79L1072.31,781.79L1069.28,760.76L1069.28,761.06L1050.37,761.06L1047.34,781.79L1031.91,781.79L1049.16,675.89ZM1067.32,746.69L1059.91,694.35L1059.61,694.35L1052.35,746.69L1067.33,746.69L1067.32,746.69Z" style="fill:rgb(69,183,229);fill-rule:nonzero;"/>
        </g>
        <g transform="matrix(1,0,0,1,277.71,785.47)">
            <g transform="matrix(168,0,0,168,0,0)">
                <path d="M0.196,0.01C0.302,0.01 0.358,-0.054 0.358,-0.162L0.358,-0.261L0.254,-0.261L0.254,-0.154C0.254,-0.108 0.232,-0.09 0.199,-0.09C0.166,-0.09 0.144,-0.108 0.144,-0.154L0.144,-0.545C0.144,-0.591 0.166,-0.61 0.199,-0.61C0.232,-0.61 0.254,-0.591 0.254,-0.545L0.254,-0.464L0.358,-0.464L0.358,-0.538C0.358,-0.646 0.302,-0.71 0.196,-0.71C0.09,-0.71 0.034,-0.646 0.034,-0.538L0.034,-0.162C0.034,-0.054 0.09,0.01 0.196,0.01Z" style="fill:white;fill-rule:nonzero;"/>
            </g>
            <g transform="matrix(168,0,0,168,64.344,0)">
                <path d="M0.012,-0L0.114,-0L0.134,-0.137L0.259,-0.137L0.259,-0.139L0.279,-0L0.389,-0L0.275,-0.7L0.126,-0.7L0.012,-0ZM0.147,-0.232L0.195,-0.578L0.197,-0.578L0.246,-0.232L0.147,-0.232Z" style="fill:white;fill-rule:nonzero;"/>
            </g>
            <g transform="matrix(168,0,0,168,131.712,0)">
                <path d="M0.041,-0L0.151,-0L0.151,-0.285L0.203,-0.285C0.313,-0.285 0.367,-0.346 0.367,-0.458L0.367,-0.527C0.367,-0.639 0.313,-0.7 0.203,-0.7L0.041,-0.7L0.041,-0ZM0.151,-0.385L0.151,-0.6L0.203,-0.6C0.238,-0.6 0.257,-0.584 0.257,-0.534L0.257,-0.451C0.257,-0.401 0.238,-0.385 0.203,-0.385L0.151,-0.385Z" style="fill:white;fill-rule:nonzero;"/>
            </g>
            <g transform="matrix(168,0,0,168,190.68,0)">
                <path d="M0.012,-0L0.114,-0L0.134,-0.137L0.259,-0.137L0.259,-0.139L0.279,-0L0.389,-0L0.275,-0.7L0.126,-0.7L0.012,-0ZM0.147,-0.232L0.195,-0.578L0.197,-0.578L0.246,-0.232L0.147,-0.232Z" style="fill:white;fill-rule:nonzero;"/>
            </g>
            <g transform="matrix(168,0,0,168,257.712,0)">
                <path d="M0.196,0.01C0.302,0.01 0.358,-0.054 0.358,-0.162L0.358,-0.261L0.254,-0.261L0.254,-0.154C0.254,-0.108 0.232,-0.09 0.199,-0.09C0.166,-0.09 0.144,-0.108 0.144,-0.154L0.144,-0.545C0.144,-0.591 0.166,-0.61 0.199,-0.61C0.232,-0.61 0.254,-0.591 0.254,-0.545L0.254,-0.464L0.358,-0.464L0.358,-0.538C0.358,-0.646 0.302,-0.71 0.196,-0.71C0.09,-0.71 0.034,-0.646 0.034,-0.538L0.034,-0.162C0.034,-0.054 0.09,0.01 0.196,0.01Z" style="fill:white;fill-rule:nonzero;"/>
            </g>
            <g transform="matrix(168,0,0,168,322.056,0)">
                <rect x="0.041" y="-0.7" width="0.11" height="0.7" style="fill:white;fill-rule:nonzero;"/>
            </g>
            <g transform="matrix(168,0,0,168,354.312,0)">
                <path d="M0.127,-0L0.237,-0L0.237,-0.6L0.352,-0.6L0.352,-0.7L0.012,-0.7L0.012,-0.6L0.127,-0.6L0.127,-0Z" style="fill:white;fill-rule:nonzero;"/>
            </g>
            <g transform="matrix(168,0,0,168,407.736,0)">
                <path d="M0.012,-0L0.114,-0L0.134,-0.137L0.259,-0.137L0.259,-0.139L0.279,-0L0.389,-0L0.275,-0.7L0.126,-0.7L0.012,-0ZM0.147,-0.232L0.195,-0.578L0.197,-0.578L0.246,-0.232L0.147,-0.232Z" style="fill:white;fill-rule:nonzero;"/>
            </g>
            <g transform="matrix(168,0,0,168,474.768,0)">
                <path d="M0.358,-0.464L0.358,-0.538C0.358,-0.646 0.302,-0.71 0.196,-0.71C0.09,-0.71 0.034,-0.646 0.034,-0.538L0.034,-0.162C0.034,-0.062 0.082,-0 0.173,0.009L0.173,0.057L0.178,0.057C0.203,0.057 0.215,0.064 0.215,0.083C0.215,0.1 0.207,0.107 0.189,0.107C0.178,0.107 0.167,0.102 0.167,0.087L0.167,0.079L0.093,0.079L0.093,0.089C0.093,0.135 0.134,0.147 0.189,0.147C0.249,0.147 0.291,0.14 0.291,0.086C0.291,0.051 0.266,0.039 0.222,0.039L0.222,0.009C0.311,-0.001 0.358,-0.063 0.358,-0.162L0.358,-0.261L0.254,-0.261L0.254,-0.154C0.254,-0.108 0.232,-0.09 0.199,-0.09C0.166,-0.09 0.144,-0.108 0.144,-0.154L0.144,-0.545C0.144,-0.591 0.166,-0.61 0.199,-0.61C0.232,-0.61 0.254,-0.591 0.254,-0.545L0.254,-0.464L0.358,-0.464Z" style="fill:white;fill-rule:nonzero;"/>
            </g>
            <g transform="matrix(168,0,0,168,539.112,0)">
                <path d="M0.115,-0.743C0.128,-0.771 0.139,-0.782 0.155,-0.782C0.167,-0.782 0.177,-0.776 0.189,-0.769C0.204,-0.76 0.222,-0.75 0.249,-0.75C0.287,-0.75 0.315,-0.778 0.34,-0.834L0.287,-0.866C0.274,-0.838 0.263,-0.827 0.247,-0.827C0.235,-0.827 0.225,-0.833 0.213,-0.84C0.198,-0.849 0.18,-0.859 0.153,-0.859C0.115,-0.859 0.087,-0.831 0.062,-0.775L0.115,-0.743ZM0.012,-0L0.114,-0L0.134,-0.137L0.259,-0.137L0.259,-0.139L0.279,-0L0.389,-0L0.275,-0.7L0.126,-0.7L0.012,-0ZM0.147,-0.232L0.195,-0.578L0.197,-0.578L0.246,-0.232L0.147,-0.232Z" style="fill:white;fill-rule:nonzero;"/>
            </g>
            <g transform="matrix(168,0,0,168,606.144,0)">
                <path d="M0.2,0.01C0.308,0.01 0.367,-0.054 0.367,-0.166L0.367,-0.534C0.367,-0.646 0.308,-0.71 0.2,-0.71C0.092,-0.71 0.033,-0.646 0.033,-0.534L0.033,-0.166C0.033,-0.054 0.092,0.01 0.2,0.01ZM0.2,-0.09C0.165,-0.09 0.143,-0.109 0.143,-0.159L0.143,-0.541C0.143,-0.591 0.165,-0.61 0.2,-0.61C0.235,-0.61 0.257,-0.591 0.257,-0.541L0.257,-0.159C0.257,-0.109 0.235,-0.09 0.2,-0.09Z" style="fill:white;fill-rule:nonzero;"/>
            </g>
        </g>
    </g>
</svg>
