<?xml version="1.0" encoding="UTF-8" standalone="no"?>
<!DOCTYPE svg PUBLIC "-//W3C//DTD SVG 1.1//EN" "http://www.w3.org/Graphics/SVG/1.1/DTD/svg11.dtd">
<svg width="100%" height="100%" viewBox="0 0 1049 534" version="1.1" xmlns="http://www.w3.org/2000/svg" xmlns:xlink="http://www.w3.org/1999/xlink" xml:space="preserve" xmlns:serif="http://www.serif.com/" style="fill-rule:evenodd;clip-rule:evenodd;stroke-linejoin:round;stroke-miterlimit:2;">
    <g transform="matrix(1,0,0,1,-597.209,-2409.97)">
        <g transform="matrix(1.33333,0,0,1.33333,0,0)">
            <path d="M838.803,1853.73L838.804,1853.73L838.803,1853.73Z" style="fill:rgb(249,238,51);fill-rule:nonzero;"/>
        </g>
        <g transform="matrix(1.33333,0,0,1.33333,0,0)">
            <path d="M464.86,2169.18L464.86,2190.26L452.478,2169.18L447.907,2169.18L447.907,2199L452.478,2199L452.478,2177.92L464.86,2199L469.431,2199L469.431,2169.18L464.86,2169.18Z" style="fill:rgb(27,53,85);fill-rule:nonzero;"/>
        </g>
        <g transform="matrix(1.33333,0,0,1.33333,0,0)">
            <path d="M491.089,2168.07L485.142,2168.07L480.349,2174.95L484.92,2174.95L491.089,2168.07ZM487.006,2177.7L487.006,2190.97C487.006,2193.36 485.763,2196.07 482.568,2196.07C479.994,2196.07 478.307,2194.03 478.307,2191.41L478.307,2177.7L473.958,2177.7L473.958,2191.86C473.958,2196.16 476.621,2199.4 480.97,2199.4C483.056,2199.4 485.097,2198.47 486.562,2196.83L486.917,2196.83L486.917,2198.96L491.266,2198.96L491.266,2177.65L487.006,2177.7Z" style="fill:rgb(27,53,85);fill-rule:nonzero;"/>
        </g>
        <g transform="matrix(1.33333,0,0,1.33333,0,0)">
            <path d="M504.536,2195.8C501.119,2195.8 499.521,2192.48 499.521,2188.39C499.521,2184.31 501.119,2180.98 504.536,2180.98C507.021,2180.98 508.974,2182.62 509.152,2185.24L513.767,2185.24C513.412,2180.54 509.862,2177.3 504.492,2177.3C497.968,2177.3 494.905,2182.27 494.905,2188.39C494.905,2194.52 497.968,2199.49 504.492,2199.49C509.862,2199.49 513.279,2196.34 513.767,2191.55L509.152,2191.55C508.93,2194.12 507.021,2195.8 504.536,2195.8Z" style="fill:rgb(27,53,85);fill-rule:nonzero;"/>
        </g>
        <g transform="matrix(1.33333,0,0,1.33333,0,0)">
            <rect x="517.451" y="2169.18" width="4.349" height="29.823" style="fill:rgb(27,53,85);fill-rule:nonzero;"/>
        </g>
        <g transform="matrix(1.33333,0,0,1.33333,0,0)">
            <path d="M535.202,2177.25C528.678,2177.25 525.616,2182.22 525.616,2188.35C525.616,2194.47 528.678,2199.44 535.202,2199.44C540.306,2199.44 543.635,2196.6 544.345,2192.21L539.685,2192.21C539.197,2194.39 537.421,2195.76 535.158,2195.76C531.963,2195.76 530.365,2192.83 530.232,2189.06L544.789,2189.06C544.789,2180.85 541.238,2177.3 535.247,2177.3L535.202,2177.25ZM535.247,2180.94C537.643,2180.94 539.463,2183.02 539.685,2185.55L530.409,2185.55C530.986,2182.85 532.54,2180.94 535.114,2180.94L535.247,2180.94Z" style="fill:rgb(27,53,85);fill-rule:nonzero;"/>
        </g>
        <g transform="matrix(1.33333,0,0,1.33333,0,0)">
            <path d="M557.526,2177.25C551.002,2177.25 547.94,2182.22 547.94,2188.35C547.94,2194.47 551.002,2199.44 557.526,2199.44C564.05,2199.44 567.112,2194.47 567.112,2188.35C567.112,2182.22 564.05,2177.25 557.526,2177.25ZM557.526,2195.76C554.108,2195.76 552.511,2192.43 552.511,2188.35C552.511,2184.27 554.108,2180.94 557.526,2180.94C560.943,2180.94 562.541,2184.27 562.541,2188.35C562.541,2192.43 560.943,2195.76 557.526,2195.76Z" style="fill:rgb(27,53,85);fill-rule:nonzero;"/>
        </g>
        <g transform="matrix(1.33333,0,0,1.33333,0,0)">
            <path d="M595.382,2169.18L595.382,2179.83L594.982,2179.83C593.562,2178.14 591.565,2177.25 589.213,2177.25C582.999,2177.25 581.269,2183.42 581.269,2188.35C581.269,2193.28 582.999,2199.44 589.213,2199.44C591.654,2199.44 593.695,2198.51 595.115,2196.78L595.47,2196.78L595.603,2199L599.731,2199L599.731,2169.18L595.382,2169.18ZM590.722,2196.34C586.372,2196.34 585.795,2191.01 585.795,2188.35C585.795,2185.69 586.372,2180.36 590.722,2180.36C593.917,2180.36 595.382,2184.09 595.382,2187.06L595.382,2189.55C595.382,2192.52 593.917,2196.25 590.722,2196.25L590.722,2196.34Z" style="fill:rgb(27,53,85);fill-rule:nonzero;"/>
        </g>
        <g transform="matrix(1.33333,0,0,1.33333,0,0)">
            <path d="M613.178,2177.25C606.654,2177.25 603.592,2182.22 603.592,2188.35C603.592,2194.47 606.654,2199.44 613.178,2199.44C618.282,2199.44 621.61,2196.6 622.32,2192.21L617.66,2192.21C617.172,2194.39 615.397,2195.76 613.133,2195.76C609.938,2195.76 608.34,2192.83 608.207,2189.06L622.764,2189.06C622.764,2180.85 619.214,2177.3 613.222,2177.3L613.178,2177.25ZM613.222,2180.94C615.619,2180.94 617.438,2183.02 617.66,2185.55L608.385,2185.55C608.962,2182.85 610.515,2180.94 613.089,2180.94L613.222,2180.94Z" style="fill:rgb(27,53,85);fill-rule:nonzero;"/>
        </g>
        <g transform="matrix(1.33333,0,0,1.33333,0,0)">
            <rect x="637.232" y="2169.18" width="4.571" height="29.824" style="fill:rgb(27,53,85);fill-rule:nonzero;"/>
        </g>
        <g transform="matrix(1.33333,0,0,1.33333,0,0)">
            <path d="M656.626,2177.25C654.54,2177.25 652.498,2178.19 651.034,2179.83L650.679,2179.83L650.679,2177.7L646.329,2177.7L646.329,2199L650.679,2199L650.679,2185.73C650.679,2183.33 651.921,2180.63 655.117,2180.63C657.691,2180.63 659.377,2182.67 659.377,2185.29L659.377,2199L663.726,2199L663.726,2184.84C663.726,2180.54 661.064,2177.3 656.714,2177.3L656.626,2177.25Z" style="fill:rgb(27,53,85);fill-rule:nonzero;"/>
        </g>
        <g transform="matrix(1.33333,0,0,1.33333,0,0)">
            <path d="M678.771,2181.38L678.771,2177.74L673.978,2177.74L673.978,2173.17L671.227,2173.17C671.227,2173.17 670.073,2177.74 666.434,2177.74L666.434,2181.38L669.629,2181.38L669.629,2193.14C669.629,2197.8 672.869,2199.4 675.62,2199.4C676.774,2199.4 677.839,2199.31 678.683,2199.22L678.683,2195.54C677.839,2195.72 676.685,2195.85 675.931,2195.63C675.132,2195.36 673.978,2194.56 673.978,2192.34L673.978,2181.43L678.771,2181.38Z" style="fill:rgb(27,53,85);fill-rule:nonzero;"/>
        </g>
        <g transform="matrix(1.33333,0,0,1.33333,0,0)">
            <path d="M691.774,2177.25C685.25,2177.25 682.188,2182.22 682.188,2188.35C682.188,2194.47 685.25,2199.44 691.774,2199.44C696.878,2199.44 700.207,2196.6 700.917,2192.21L696.257,2192.21C695.769,2194.39 693.993,2195.76 691.73,2195.76C688.535,2195.76 686.937,2192.83 686.804,2189.06L701.36,2189.06C701.36,2180.85 697.81,2177.3 691.819,2177.3L691.774,2177.25ZM691.819,2180.94C694.215,2180.94 696.035,2183.02 696.257,2185.55L686.981,2185.55C687.558,2182.85 689.111,2180.94 691.686,2180.94L691.819,2180.94Z" style="fill:rgb(27,53,85);fill-rule:nonzero;"/>
        </g>
        <g transform="matrix(1.33333,0,0,1.33333,0,0)">
            <rect x="705.133" y="2169.18" width="4.349" height="29.824" style="fill:rgb(27,53,85);fill-rule:nonzero;"/>
        </g>
        <g transform="matrix(1.33333,0,0,1.33333,0,0)">
            <path d="M718.447,2199L718.447,2177.7L714.097,2177.7L714.097,2199L718.447,2199ZM716.272,2174.72C717.825,2174.72 719.068,2173.53 719.068,2172.02C719.068,2170.51 717.825,2169.31 716.272,2169.31C714.719,2169.31 713.476,2170.51 713.476,2172.02C713.476,2173.53 714.719,2174.72 716.272,2174.72Z" style="fill:rgb(27,53,85);fill-rule:nonzero;"/>
        </g>
        <g transform="matrix(1.33333,0,0,1.33333,0,0)">
            <path d="M736.686,2177.7L736.686,2179.83L736.287,2179.83C734.867,2178.14 732.87,2177.25 730.517,2177.25C724.304,2177.25 722.573,2183.42 722.573,2188.35C722.573,2193.28 724.304,2199.44 730.517,2199.44C732.914,2199.44 734.911,2198.56 736.331,2196.83L736.642,2196.83L736.642,2199.22C736.642,2202.68 733.846,2203.79 730.917,2203.79C728.609,2203.79 726.923,2203.17 725.236,2202.15L723.461,2205.35C723.461,2205.35 726.079,2207.48 730.784,2207.48C736.553,2207.48 740.991,2204.46 740.991,2199.18L740.991,2177.74L736.686,2177.7ZM731.982,2196.38C727.633,2196.38 727.056,2191.06 727.056,2188.39C727.056,2185.73 727.633,2180.41 731.982,2180.41C735.177,2180.41 736.642,2184.13 736.642,2187.11L736.642,2189.59C736.642,2192.57 735.177,2196.29 731.982,2196.29L731.982,2196.38Z" style="fill:rgb(27,53,85);fill-rule:nonzero;"/>
        </g>
        <g transform="matrix(1.33333,0,0,1.33333,0,0)">
            <path d="M754.438,2170.69L757.412,2174.95L761.539,2174.95L756.746,2168.07L752.175,2168.07L747.382,2174.95L751.509,2174.95L754.438,2170.69ZM754.483,2177.21C747.959,2177.21 744.897,2182.18 744.897,2188.3C744.897,2194.43 747.959,2199.4 754.483,2199.4C759.587,2199.4 762.915,2196.56 763.625,2192.17L758.965,2192.17C758.477,2194.34 756.702,2195.72 754.438,2195.72C751.243,2195.72 749.645,2192.79 749.512,2189.01L764.069,2189.01C764.069,2180.8 760.519,2177.25 754.527,2177.25L754.483,2177.21ZM754.527,2180.89C756.924,2180.89 758.743,2182.98 758.965,2185.51L749.69,2185.51C750.267,2182.8 751.82,2180.89 754.394,2180.89L754.527,2180.89Z" style="fill:rgb(27,53,85);fill-rule:nonzero;"/>
        </g>
        <g transform="matrix(1.33333,0,0,1.33333,0,0)">
            <path d="M778.182,2177.25C776.096,2177.25 774.055,2178.19 772.59,2179.83L772.235,2179.83L772.235,2177.7L767.886,2177.7L767.886,2199L772.235,2199L772.235,2185.73C772.235,2183.33 773.478,2180.63 776.673,2180.63C779.247,2180.63 780.933,2182.67 780.933,2185.29L780.933,2199L785.283,2199L785.283,2184.84C785.283,2180.54 782.62,2177.3 778.271,2177.3L778.182,2177.25Z" style="fill:rgb(27,53,85);fill-rule:nonzero;"/>
        </g>
        <g transform="matrix(1.33333,0,0,1.33333,0,0)">
            <path d="M798.464,2195.8C795.046,2195.8 793.449,2192.48 793.449,2188.39C793.449,2184.31 795.046,2180.98 798.464,2180.98C800.949,2180.98 802.902,2182.62 803.079,2185.24L807.695,2185.24C807.34,2180.54 803.789,2177.3 798.419,2177.3C791.895,2177.3 788.833,2182.27 788.833,2188.39C788.833,2194.52 791.895,2199.49 798.419,2199.49C803.789,2199.49 807.207,2196.34 807.695,2191.55L803.079,2191.55C802.857,2194.12 800.949,2195.8 798.464,2195.8Z" style="fill:rgb(27,53,85);fill-rule:nonzero;"/>
        </g>
        <g transform="matrix(1.33333,0,0,1.33333,0,0)">
            <path d="M815.905,2199L815.905,2177.7L811.555,2177.7L811.555,2199L815.905,2199ZM813.73,2174.72C815.283,2174.72 816.526,2173.53 816.526,2172.02C816.526,2170.51 815.283,2169.31 813.73,2169.31C812.177,2169.31 810.934,2170.51 810.934,2172.02C810.934,2173.53 812.177,2174.72 813.73,2174.72Z" style="fill:rgb(27,53,85);fill-rule:nonzero;"/>
        </g>
        <g transform="matrix(1.33333,0,0,1.33333,0,0)">
            <path d="M834.145,2199L838.494,2199C838.494,2199 838.05,2196.91 838.05,2195.63L838.05,2184C838.05,2179.7 834.633,2177.39 829.663,2177.39C825.313,2177.39 821.186,2179.3 821.186,2184.44L825.535,2184.44C825.535,2182.49 827.133,2181.03 829.707,2181.03C831.66,2181.03 833.746,2181.82 833.746,2184.44L833.746,2185.82L829.174,2185.82C823.449,2185.82 820.343,2188.7 820.343,2193.05C820.343,2196.16 822.384,2199.4 826.911,2199.4C829.929,2199.4 832.103,2198.16 833.568,2196.78L833.879,2196.78C834.012,2197.85 834.234,2198.91 834.234,2198.91L834.145,2199ZM824.869,2192.65C824.869,2190.7 825.979,2189.15 829.219,2189.15L833.746,2189.15L833.746,2193.05C831.926,2194.96 830.106,2195.58 828.109,2195.58C826.201,2195.58 824.869,2194.43 824.869,2192.65Z" style="fill:rgb(27,53,85);fill-rule:nonzero;"/>
        </g>
        <g transform="matrix(1.33333,0,0,1.33333,0,0)">
            <path d="M873.51,2199L878.525,2199L867.518,2169.18L862.858,2169.18L851.852,2199L856.867,2199L859.086,2192.61L871.202,2192.61L873.51,2199ZM860.595,2188.26L865.122,2175.08L869.648,2188.26L860.595,2188.26Z" style="fill:rgb(27,53,85);fill-rule:nonzero;"/>
        </g>
        <g transform="matrix(1.33333,0,0,1.33333,0,0)">
            <path d="M892.061,2177.25C889.975,2177.25 887.933,2178.19 886.469,2179.83L886.114,2179.83L886.114,2177.7L881.764,2177.7L881.764,2199L886.114,2199L886.114,2186.22C886.114,2183.82 888.51,2181.87 891.794,2181.87C892.815,2181.87 893.836,2182.09 894.768,2182.49L894.768,2177.48C894.013,2177.39 893.126,2177.34 892.105,2177.34L892.061,2177.25Z" style="fill:rgb(27,53,85);fill-rule:nonzero;"/>
        </g>
        <g transform="matrix(1.33333,0,0,1.33333,0,0)">
            <path d="M909.014,2181.38L909.014,2177.74L904.221,2177.74L904.221,2173.17L901.469,2173.17C901.469,2173.17 900.315,2177.74 896.676,2177.74L896.676,2181.38L899.871,2181.38L899.871,2193.14C899.871,2197.8 903.111,2199.4 905.863,2199.4C907.017,2199.4 908.082,2199.31 908.925,2199.22L908.925,2195.54C908.082,2195.72 906.928,2195.85 906.174,2195.63C905.375,2195.36 904.221,2194.56 904.221,2192.34L904.221,2181.43L909.014,2181.38Z" style="fill:rgb(27,53,85);fill-rule:nonzero;"/>
        </g>
        <g transform="matrix(1.33333,0,0,1.33333,0,0)">
            <path d="M917.579,2199L917.579,2177.7L913.23,2177.7L913.23,2199L917.579,2199ZM915.404,2174.72C916.957,2174.72 918.2,2173.53 918.2,2172.02C918.2,2170.51 916.957,2169.31 915.404,2169.31C913.851,2169.31 912.608,2170.51 912.608,2172.02C912.608,2173.53 913.851,2174.72 915.404,2174.72Z" style="fill:rgb(27,53,85);fill-rule:nonzero;"/>
        </g>
        <g transform="matrix(1.33333,0,0,1.33333,0,0)">
            <path d="M930.493,2173.04C931.824,2172.64 934.398,2173.44 934.398,2173.44L935.197,2169.8C935.197,2169.8 932.845,2169.27 930.093,2169.27C927.342,2169.27 924.102,2170.86 924.102,2175.52L924.102,2177.74L920.907,2177.74L920.907,2181.38L924.102,2181.38L924.102,2199L928.451,2199L928.451,2181.38L933.688,2181.38L933.688,2177.74L928.451,2177.74L928.451,2176.37C928.451,2174.15 929.605,2173.35 930.404,2173.08L930.493,2173.04Z" style="fill:rgb(27,53,85);fill-rule:nonzero;"/>
        </g>
        <g transform="matrix(1.33333,0,0,1.33333,0,0)">
            <path d="M942.52,2199L942.52,2177.7L938.17,2177.7L938.17,2199L942.52,2199ZM940.345,2174.72C941.898,2174.72 943.141,2173.53 943.141,2172.02C943.141,2170.51 941.898,2169.31 940.345,2169.31C938.792,2169.31 937.549,2170.51 937.549,2172.02C937.549,2173.53 938.792,2174.72 940.345,2174.72Z" style="fill:rgb(27,53,85);fill-rule:nonzero;"/>
        </g>
        <g transform="matrix(1.33333,0,0,1.33333,0,0)">
            <path d="M955.966,2195.8C952.549,2195.8 950.951,2192.48 950.951,2188.39C950.951,2184.31 952.549,2180.98 955.966,2180.98C958.452,2180.98 960.404,2182.62 960.582,2185.24L965.198,2185.24C964.842,2180.54 961.292,2177.3 955.922,2177.3C949.398,2177.3 946.336,2182.27 946.336,2188.39C946.336,2194.52 949.398,2199.49 955.922,2199.49C961.292,2199.49 964.709,2196.34 965.198,2191.55L960.582,2191.55C960.36,2194.12 958.452,2195.8 955.966,2195.8Z" style="fill:rgb(27,53,85);fill-rule:nonzero;"/>
        </g>
        <g transform="matrix(1.33333,0,0,1.33333,0,0)">
            <path d="M973.408,2199L973.408,2177.7L969.059,2177.7L969.059,2199L973.408,2199ZM971.233,2174.72C972.787,2174.72 974.029,2173.53 974.029,2172.02C974.029,2170.51 972.787,2169.31 971.233,2169.31C969.68,2169.31 968.437,2170.51 968.437,2172.02C968.437,2173.53 969.68,2174.72 971.233,2174.72Z" style="fill:rgb(27,53,85);fill-rule:nonzero;"/>
        </g>
        <g transform="matrix(1.33333,0,0,1.33333,0,0)">
            <path d="M991.648,2199L995.997,2199C995.997,2199 995.553,2196.91 995.553,2195.63L995.553,2184C995.553,2179.7 992.136,2177.39 987.165,2177.39C982.816,2177.39 978.689,2179.3 978.689,2184.44L983.038,2184.44C983.038,2182.49 984.636,2181.03 987.21,2181.03C989.162,2181.03 991.248,2181.82 991.248,2184.44L991.248,2185.82L986.677,2185.82C980.952,2185.82 977.845,2188.7 977.845,2193.05C977.845,2196.16 979.887,2199.4 984.414,2199.4C987.432,2199.4 989.606,2198.16 991.071,2196.78L991.382,2196.78C991.515,2197.85 991.737,2198.91 991.737,2198.91L991.648,2199ZM982.372,2192.65C982.372,2190.7 983.482,2189.15 986.722,2189.15L991.248,2189.15L991.248,2193.05C989.429,2194.96 987.609,2195.58 985.612,2195.58C983.704,2195.58 982.372,2194.43 982.372,2192.65Z" style="fill:rgb(27,53,85);fill-rule:nonzero;"/>
        </g>
        <g transform="matrix(1.33333,0,0,1.33333,0,0)">
            <rect x="1000.03" y="2169.18" width="4.349" height="29.824" style="fill:rgb(27,53,85);fill-rule:nonzero;"/>
        </g>
        <g transform="matrix(1.33333,0,0,1.33333,0,0)">
            <path d="M1024.09,2194.65L1024.09,2185.51L1036.56,2185.51L1036.56,2181.16L1024.09,2181.16L1024.09,2173.62L1038.42,2173.62L1038.42,2169.27L1019.52,2169.27L1019.52,2199.09L1038.65,2199.09L1038.65,2194.74L1024.09,2194.65Z" style="fill:rgb(27,53,85);fill-rule:nonzero;"/>
        </g>
        <g transform="matrix(1.33333,0,0,1.33333,0,0)">
            <path d="M1056,2169.18L1056,2179.83L1055.6,2179.83C1054.18,2178.14 1052.18,2177.25 1049.83,2177.25C1043.62,2177.25 1041.89,2183.42 1041.89,2188.35C1041.89,2193.28 1043.62,2199.44 1049.83,2199.44C1052.27,2199.44 1054.31,2198.51 1055.73,2196.78L1056.09,2196.78L1056.22,2199L1060.35,2199L1060.35,2169.18L1056,2169.18ZM1051.34,2196.34C1046.99,2196.34 1046.41,2191.01 1046.41,2188.35C1046.41,2185.69 1046.99,2180.36 1051.34,2180.36C1054.53,2180.36 1056,2184.09 1056,2187.06L1056,2189.55C1056,2192.52 1054.53,2196.25 1051.34,2196.25L1051.34,2196.34Z" style="fill:rgb(27,53,85);fill-rule:nonzero;"/>
        </g>
        <g transform="matrix(1.33333,0,0,1.33333,0,0)">
            <path d="M1077.88,2177.7L1077.88,2190.97C1077.88,2193.36 1076.63,2196.07 1073.44,2196.07C1070.87,2196.07 1069.18,2194.03 1069.18,2191.41L1069.18,2177.7L1064.83,2177.7L1064.83,2191.86C1064.83,2196.16 1067.49,2199.4 1071.84,2199.4C1073.93,2199.4 1075.97,2198.47 1077.43,2196.83L1077.79,2196.83L1077.79,2198.96L1082.14,2198.96L1082.14,2177.65L1077.88,2177.7Z" style="fill:rgb(27,53,85);fill-rule:nonzero;"/>
        </g>
        <g transform="matrix(1.33333,0,0,1.33333,0,0)">
            <path d="M1095.45,2195.8C1092.04,2195.8 1090.44,2192.48 1090.44,2188.39C1090.44,2184.31 1092.04,2180.98 1095.45,2180.98C1097.94,2180.98 1099.89,2182.62 1100.07,2185.24L1104.68,2185.24C1104.33,2180.54 1100.78,2177.3 1095.41,2177.3C1088.88,2177.3 1085.82,2182.27 1085.82,2188.39C1085.82,2194.52 1088.88,2199.49 1095.41,2199.49C1100.78,2199.49 1104.19,2196.34 1104.68,2191.55L1100.07,2191.55C1099.85,2194.12 1097.94,2195.8 1095.45,2195.8Z" style="fill:rgb(27,53,85);fill-rule:nonzero;"/>
        </g>
        <g transform="matrix(1.33333,0,0,1.33333,0,0)">
            <path d="M1121.9,2199L1126.25,2199C1126.25,2199 1125.81,2196.91 1125.81,2195.63L1125.81,2184C1125.81,2179.7 1122.39,2177.39 1117.42,2177.39C1113.07,2177.39 1108.94,2179.3 1108.94,2184.44L1113.29,2184.44C1113.29,2182.49 1114.89,2181.03 1117.46,2181.03C1119.42,2181.03 1121.5,2181.82 1121.5,2184.44L1121.5,2185.82L1116.93,2185.82C1111.21,2185.82 1108.1,2188.7 1108.1,2193.05C1108.1,2196.16 1110.14,2199.4 1114.67,2199.4C1117.69,2199.4 1119.86,2198.16 1121.33,2196.78L1121.64,2196.78C1121.77,2197.85 1121.99,2198.91 1121.99,2198.91L1121.9,2199ZM1112.63,2192.65C1112.63,2190.7 1113.74,2189.15 1116.98,2189.15L1121.5,2189.15L1121.5,2193.05C1119.68,2194.96 1117.86,2195.58 1115.87,2195.58C1113.96,2195.58 1112.63,2194.43 1112.63,2192.65Z" style="fill:rgb(27,53,85);fill-rule:nonzero;"/>
        </g>
        <g transform="matrix(1.33333,0,0,1.33333,0,0)">
            <path d="M1139.03,2195.8C1135.62,2195.8 1134.02,2192.48 1134.02,2188.39C1134.02,2184.31 1135.62,2180.98 1139.03,2180.98C1141.52,2180.98 1143.47,2182.62 1143.65,2185.24L1148.26,2185.24C1147.91,2180.54 1144.36,2177.3 1138.99,2177.3C1132.46,2177.3 1129.4,2182.27 1129.4,2188.39C1129.4,2194.52 1132.46,2199.49 1138.99,2199.49C1144.36,2199.49 1147.78,2196.34 1148.26,2191.55L1143.65,2191.55C1143.43,2194.12 1141.52,2195.8 1139.03,2195.8Z" style="fill:rgb(27,53,85);fill-rule:nonzero;"/>
        </g>
        <g transform="matrix(1.33333,0,0,1.33333,0,0)">
            <path d="M1156.48,2199L1156.48,2177.7L1152.12,2177.7L1152.12,2199L1156.48,2199ZM1154.3,2174.72C1155.85,2174.72 1157.1,2173.53 1157.1,2172.02C1157.1,2170.51 1155.85,2169.31 1154.3,2169.31C1152.75,2169.31 1151.5,2170.51 1151.5,2172.02C1151.5,2173.53 1152.75,2174.72 1154.3,2174.72Z" style="fill:rgb(27,53,85);fill-rule:nonzero;"/>
        </g>
        <g transform="matrix(1.33333,0,0,1.33333,0,0)">
            <path d="M1170.14,2177.25C1163.62,2177.25 1160.56,2182.22 1160.56,2188.35C1160.56,2194.47 1163.62,2199.44 1170.14,2199.44C1176.67,2199.44 1179.73,2194.47 1179.73,2188.35C1179.73,2182.22 1176.67,2177.25 1170.14,2177.25ZM1170.14,2195.76C1166.73,2195.76 1165.13,2192.43 1165.13,2188.35C1165.13,2184.27 1166.73,2180.94 1170.14,2180.94C1173.56,2180.94 1175.16,2184.27 1175.16,2188.35C1175.16,2192.43 1173.56,2195.76 1170.14,2195.76Z" style="fill:rgb(27,53,85);fill-rule:nonzero;"/>
        </g>
        <g transform="matrix(1.33333,0,0,1.33333,0,0)">
            <path d="M1193.89,2177.25C1191.8,2177.25 1189.76,2178.19 1188.3,2179.83L1187.94,2179.83L1187.94,2177.7L1183.59,2177.7L1183.59,2199L1187.94,2199L1187.94,2185.73C1187.94,2183.33 1189.18,2180.63 1192.38,2180.63C1194.95,2180.63 1196.64,2182.67 1196.64,2185.29L1196.64,2199L1200.99,2199L1200.99,2184.84C1200.99,2180.54 1198.33,2177.3 1193.98,2177.3L1193.89,2177.25Z" style="fill:rgb(27,53,85);fill-rule:nonzero;"/>
        </g>
        <g transform="matrix(1.33333,0,0,1.33333,0,0)">
            <path d="M1218.96,2199L1223.31,2199C1223.31,2199 1222.87,2196.91 1222.87,2195.63L1222.87,2184C1222.87,2179.7 1219.45,2177.39 1214.48,2177.39C1210.13,2177.39 1206,2179.3 1206,2184.44L1210.35,2184.44C1210.35,2182.49 1211.95,2181.03 1214.52,2181.03C1216.48,2181.03 1218.56,2181.82 1218.56,2184.44L1218.56,2185.82L1213.99,2185.82C1208.27,2185.82 1205.16,2188.7 1205.16,2193.05C1205.16,2196.16 1207.2,2199.4 1211.73,2199.4C1214.75,2199.4 1216.92,2198.16 1218.38,2196.78L1218.69,2196.78C1218.83,2197.85 1219.05,2198.91 1219.05,2198.91L1218.96,2199ZM1209.69,2192.65C1209.69,2190.7 1210.8,2189.15 1214.04,2189.15L1218.56,2189.15L1218.56,2193.05C1216.74,2194.96 1214.92,2195.58 1212.93,2195.58C1211.02,2195.58 1209.69,2194.43 1209.69,2192.65Z" style="fill:rgb(27,53,85);fill-rule:nonzero;"/>
        </g>
        <g transform="matrix(1.33333,0,0,1.33333,0,0)">
            <rect x="1227.35" y="2169.18" width="4.349" height="29.824" style="fill:rgb(27,53,85);fill-rule:nonzero;"/>
        </g>
        <g transform="matrix(1.33333,0,0,1.33333,0,0)">
            <path d="M693.498,1807.48L693.498,2129.78L649.755,2129.78L512.086,1936.4L512.086,2129.78L449.009,2129.78L449.009,1807.48L492.287,1807.48L630.419,2000.86L630.419,1807.48L693.498,1807.48Z" style="fill:rgb(27,53,85);fill-rule:nonzero;"/>
        </g>
        <g transform="matrix(1.33333,0,0,1.33333,0,0)">
            <path d="M1233.92,2072.85L1233.92,2129.78L1026.38,2129.78L1026.38,1808.38L1231.62,1808.38L1231.62,1865.32L1089.29,1865.32L1089.29,1980.1L1117.75,1937.4L1205.45,1937.4L1205.45,1999.4L1089.29,1999.4L1089.29,2072.85L1233.92,2072.85Z" style="fill:rgb(27,53,85);fill-rule:nonzero;"/>
        </g>
        <g transform="matrix(1.33333,0,0,1.33333,0,0)">
            <rect x="725.037" y="1807.48" width="63.079" height="322.3" style="fill:url(#_Linear1);"/>
        </g>
        <g transform="matrix(1.33333,0,0,1.33333,0,0)">
            <path d="M882.734,1999.93L882.734,1930.41L930.74,1999.93L882.734,1999.93ZM877.592,1807.48L819.655,1807.48L819.655,2129.78L882.734,2129.78L882.734,2037.24L956.5,2037.24L1020.4,2129.78L1091.25,2129.78L877.592,1807.48Z" style="fill:url(#_Linear2);"/>
        </g>
    </g>
    <defs>
        <linearGradient id="_Linear1" x1="0" y1="0" x2="1" y2="0" gradientUnits="userSpaceOnUse" gradientTransform="matrix(-105.008,-81.8242,81.8242,-105.008,864.434,2052.67)"><stop offset="0" style="stop-color:rgb(49,183,228);stop-opacity:1"/><stop offset="1" style="stop-color:rgb(53,190,183);stop-opacity:1"/></linearGradient>
        <linearGradient id="_Linear2" x1="0" y1="0" x2="1" y2="0" gradientUnits="userSpaceOnUse" gradientTransform="matrix(44.4609,77.9428,-77.9428,44.4609,871.775,1983.09)"><stop offset="0" style="stop-color:rgb(57,190,182);stop-opacity:1"/><stop offset="1" style="stop-color:rgb(49,183,228);stop-opacity:1"/></linearGradient>
    </defs>
</svg>
