<?xml version="1.0" encoding="UTF-8" standalone="no"?>
<!DOCTYPE svg PUBLIC "-//W3C//DTD SVG 1.1//EN" "http://www.w3.org/Graphics/SVG/1.1/DTD/svg11.dtd">
<svg width="100%" height="100%" viewBox="0 0 2353 378" version="1.1" xmlns="http://www.w3.org/2000/svg" xmlns:xlink="http://www.w3.org/1999/xlink" xml:space="preserve" xmlns:serif="http://www.serif.com/" style="fill-rule:evenodd;clip-rule:evenodd;stroke-linejoin:round;stroke-miterlimit:2;">
    <g transform="matrix(1,0,0,1,-602.46,-1240.16)">
        <g transform="matrix(3.07049,0,0,3.07049,1040.77,1354.67)">
            <path d="M166.582,9.495L166.516,58.895C166.516,58.895 162.566,58.48 162.01,58.035C162.605,60.122 159.038,57.966 158.54,58.906C157.649,56.417 159.219,56.46 155.254,60.3C154.277,58.392 151.411,62.603 150.113,61.14C146.089,64.074 147.643,59.786 144.847,61.42C143.593,61.602 140.197,60.932 139.764,62.12C133.134,61.198 138.378,67.074 134.601,63.967C132.402,65.071 128.635,63.386 129.484,66.341C134.884,65.436 125.935,67.169 124.354,68.443C125.489,69.191 117.465,65.148 119.151,69.471C119.732,69.502 113.579,70.382 112.575,69.786C110.33,69.299 108.752,68.717 106.261,69.522C102.335,69.967 102.551,68.333 101.513,68.068C98.459,68.095 96.534,67.58 96.836,66.219C96.732,61.863 90.979,63.38 91.557,65.507C86.034,64.849 88.395,62.694 86.756,66.182C84.712,70.123 85.729,66.337 82.675,66.637C82.878,69.061 79.066,67.752 77.957,65.589C76.174,63.257 71.628,64.028 73.229,63.286C72.555,62.804 70.361,61.425 68.699,61.362C67.701,60.294 66.054,60.731 63.203,60.953C59.382,59.565 58.897,62.513 57.281,61.768C53.335,61.547 53.888,64.686 51.333,62.785C46.992,63.186 47.71,63.686 45.38,63.882C43.053,61.025 43.559,66.371 39.442,64.936C38.445,64.405 36.091,63.797 33.252,65.03C33.586,63.466 30.015,63.831 30.015,63.831L30.017,10.113C30.017,10.113 31.834,6.229 36.748,7.567C39.273,5.579 43.854,5.904 42.493,5.499C42.023,3.449 43.644,2.345 48.481,3.72C52.401,2.066 53.314,-2.619 55.218,1.959C57.705,2.818 59.96,-0.816 61.485,1.025C65.042,-0.854 63.38,1.726 66.424,1.449C67.925,2.744 65.999,0.185 71.527,2.259C75.276,4.567 73.947,5.355 76.67,2.116C80.817,2.135 81.205,1.084 82.61,0.793C84.1,0.659 85.556,0.969 88.344,2.138C90.393,3.814 90.368,2.127 92.561,3.421C94.376,3.356 95.796,2.251 96.687,4.967C97.188,6.403 99.154,8.514 100.933,8.11C99.586,8.799 102.354,9.505 105.359,9.458C102.596,8.152 109.955,7.823 111.098,10.06C114.988,8.686 113.944,11.011 116.259,9.569C117.613,9.449 119.372,8.073 120.718,8.188C120.963,5.405 124.473,7.009 125.299,6.602C125.437,6.795 128.981,6.342 131.333,4.869C133.012,3.793 131.525,3.201 138.138,3.316C138.386,1.455 142.539,3.163 145.084,2.563C146.993,4.132 150.295,1.793 151.544,3.231C152.357,2.779 155.446,10.347 156.499,5.251C162.986,7.743 151.446,6.427 161.122,7.694C163.44,7.61 166.582,9.495 166.582,9.495ZM100.933,8.11C101.082,8.033 101.267,7.957 101.522,7.882C101.33,7.996 101.132,8.064 100.933,8.11Z" style="fill:rgb(69,183,229);"/>
        </g>
        <g transform="matrix(0.224864,0,0,0.224864,737.609,1082.92)">
            <path d="M741.413,1161L612,748.887L667.912,748.887L731.362,971.277C736.388,988.03 740.995,1003.74 745.183,1018.39C749.371,1032.63 753.559,1047.08 757.747,1061.74C761.935,1075.98 766.542,1091.27 771.568,1107.6L774.081,1107.6C778.688,1091.27 783.085,1075.98 787.274,1061.74C791.462,1047.08 795.65,1032.63 799.838,1018.39C804.026,1003.74 808.633,988.03 813.659,971.277L882.135,748.887L935.534,748.887L802.351,1161L741.413,1161Z" style="fill-rule:nonzero;"/>
            <path d="M1096.36,1168.54C1071.65,1168.54 1048.4,1162.26 1026.63,1149.69C1005.27,1137.13 987.885,1118.91 974.483,1095.04C961.5,1071.16 955.009,1042.48 955.009,1008.97C955.009,974.628 961.5,945.52 974.483,921.648C987.885,897.775 1005.27,879.557 1026.63,866.993C1048.4,854.428 1071.65,848.146 1096.36,848.146C1121.49,848.146 1144.73,854.428 1166.09,866.993C1187.45,879.557 1204.62,897.775 1217.61,921.648C1231.01,945.52 1237.71,974.628 1237.71,1008.97C1237.71,1042.48 1231.01,1071.16 1217.61,1095.04C1204.62,1118.91 1187.45,1137.13 1166.09,1149.69C1144.73,1162.26 1121.49,1168.54 1096.36,1168.54ZM1096.36,1125.82C1113.95,1125.82 1129.44,1121 1142.85,1111.37C1156.25,1101.32 1166.51,1087.5 1173.63,1069.91C1180.75,1052.32 1184.31,1032.01 1184.31,1008.97C1184.31,985.517 1180.75,964.995 1173.63,947.405C1166.51,929.396 1156.25,915.575 1142.85,905.942C1129.44,895.891 1113.95,890.865 1096.36,890.865C1078.77,890.865 1063.27,895.891 1049.87,905.942C1036.89,915.575 1026.63,929.396 1019.09,947.405C1011.97,964.995 1008.41,985.517 1008.41,1008.97C1008.41,1032.01 1011.97,1052.32 1019.09,1069.91C1026.63,1087.5 1036.89,1101.32 1049.87,1111.37C1063.27,1121 1078.77,1125.82 1096.36,1125.82Z" style="fill-rule:nonzero;"/>
            <path d="M1439.37,1168.54C1412.14,1168.54 1387.64,1162.26 1365.87,1149.69C1344.09,1137.13 1326.91,1118.91 1314.35,1095.04C1301.79,1071.16 1295.5,1042.48 1295.5,1008.97C1295.5,974.628 1302.2,945.52 1315.61,921.648C1329.43,897.775 1347.44,879.557 1369.63,866.993C1392.25,854.428 1416.54,848.146 1442.51,848.146C1462.61,848.146 1479.78,851.497 1494.02,858.198C1508.68,864.899 1521.25,873.484 1531.72,883.955L1505.96,915.994C1498.42,908.455 1489.41,902.592 1478.94,898.404C1468.89,893.797 1457.38,891.493 1444.39,891.493C1426.38,891.493 1410.05,896.519 1395.39,906.571C1381.15,916.203 1369.84,929.815 1361.47,947.405C1353.09,964.995 1348.9,985.517 1348.9,1008.97C1348.9,1032.01 1352.88,1052.32 1360.84,1069.91C1368.8,1087.5 1379.89,1101.32 1394.13,1111.37C1408.38,1121 1424.92,1125.82 1443.76,1125.82C1458,1125.82 1471.2,1123.1 1483.34,1117.65C1495.49,1112.21 1505.96,1105.3 1514.75,1096.92L1537.37,1128.33C1524.39,1140.48 1509.73,1150.32 1493.39,1157.86C1477.06,1164.98 1459.05,1168.54 1439.37,1168.54Z" style="fill-rule:nonzero;"/>
            <path d="M1715.16,1168.54C1687.93,1168.54 1663.01,1162.26 1640.4,1149.69C1618.2,1136.71 1600.61,1118.49 1587.63,1095.04C1574.64,1071.16 1568.15,1042.27 1568.15,1008.34C1568.15,975.256 1574.85,946.777 1588.26,922.904C1601.66,899.032 1618.83,880.604 1639.77,867.621C1660.71,854.638 1682.91,848.146 1706.36,848.146C1732.33,848.146 1754.32,854.219 1772.32,866.364C1790.75,878.091 1804.57,894.634 1813.79,915.994C1823,937.353 1827.61,962.482 1827.61,991.38C1827.61,996.825 1827.4,1002.06 1826.98,1007.09C1826.98,1012.11 1826.35,1017.14 1825.09,1022.16L1605.22,1022.16L1605.22,981.329L1781.12,981.329C1781.12,952.012 1774.63,929.605 1761.64,914.109C1749.08,898.194 1730.86,890.237 1706.99,890.237C1693.17,890.237 1679.56,894.216 1666.15,902.173C1652.75,909.712 1641.65,922.067 1632.86,939.238C1624.48,956.409 1620.29,979.235 1620.29,1007.71C1620.29,1033.68 1624.69,1055.46 1633.49,1073.05C1642.7,1090.64 1655.06,1104.04 1670.55,1113.26C1686.05,1122.05 1703.01,1126.45 1721.44,1126.45C1736.1,1126.45 1749.71,1124.35 1762.27,1120.17C1775.26,1115.98 1786.98,1110.32 1797.45,1103.2L1816.3,1137.13C1802.9,1146.34 1787.82,1153.88 1771.07,1159.74C1754.73,1165.61 1736.1,1168.54 1715.16,1168.54ZM1597.68,802.914L1683.12,699.258L1728.35,699.258L1813.79,802.914L1771.7,802.914L1706.99,738.207L1704.48,738.207L1639.77,802.914L1597.68,802.914Z" style="fill-rule:nonzero;"/>
            <path d="M2037.43,1161L2037.43,807.312C2037.43,786.79 2040.57,768.99 2046.86,753.913C2053.14,738.417 2062.77,726.69 2075.76,718.733C2089.16,710.356 2106.12,706.168 2126.64,706.168C2135.85,706.168 2144.86,707.215 2153.65,709.309C2162.87,710.984 2170.82,713.288 2177.53,716.22L2166.22,753.913C2154.07,750.144 2142.55,748.259 2131.67,748.259C2117.43,748.259 2106.75,753.285 2099.63,763.336C2092.51,772.969 2088.95,787.627 2088.95,807.312L2088.95,1161L2037.43,1161ZM1992.2,897.775L1992.2,858.826L2039.95,855.685L2153.65,855.685L2153.65,897.775L1992.2,897.775Z" style="fill-rule:nonzero;"/>
            <path d="M2269.88,1168.54C2253.12,1168.54 2237.84,1165.19 2224.01,1158.49C2210.61,1151.37 2199.93,1141.53 2191.97,1128.96C2184.02,1115.98 2180.04,1100.27 2180.04,1081.84C2180.04,1047.5 2195.12,1021.53 2225.27,1003.95C2255.43,986.355 2303.17,974 2368.51,966.88C2368.09,954.315 2365.99,942.17 2362.22,930.443C2358.87,918.716 2352.59,909.293 2343.38,902.173C2334.16,895.053 2321.39,891.493 2305.05,891.493C2287.47,891.493 2270.92,894.844 2255.43,901.545C2239.93,907.827 2226.11,914.947 2213.96,922.904L2193.86,887.724C2203.07,881.442 2213.96,875.369 2226.53,869.506C2239.09,863.223 2252.7,858.198 2267.36,854.428C2282.02,850.24 2297.52,848.146 2313.85,848.146C2338.56,848.146 2358.66,853.381 2374.16,863.852C2390.07,873.903 2401.59,888.352 2408.71,907.199C2416.25,926.045 2420.02,948.243 2420.02,973.79L2420.02,1161L2377.3,1161L2372.9,1124.56L2371.02,1124.56C2356.36,1136.71 2340.65,1147.18 2323.9,1155.97C2307.15,1164.35 2289.14,1168.54 2269.88,1168.54ZM2284.32,1125.82C2299.4,1125.82 2313.43,1122.47 2326.41,1115.77C2339.82,1109.07 2353.85,1099.23 2368.51,1086.24L2368.51,1003.95C2334.16,1008.13 2306.94,1013.58 2286.84,1020.28C2267.15,1026.56 2252.91,1034.52 2244.12,1044.15C2235.32,1053.78 2230.93,1065.3 2230.93,1078.7C2230.93,1095.46 2236.16,1107.6 2246.63,1115.14C2257.1,1122.26 2269.66,1125.82 2284.32,1125.82Z" style="fill-rule:nonzero;"/>
            <path d="M2484.1,1161L2484.1,1133.36L2644.92,897.775L2501.69,897.775L2501.69,855.685L2710.26,855.685L2710.26,883.326L2549.43,1118.91L2715.28,1118.91L2715.28,1161L2484.1,1161Z" style="fill-rule:nonzero;"/>
            <path d="M2908.78,1289.79L2908.78,855.685L2951.49,855.685L2955.89,890.865L2957.78,890.865C2971.6,879.138 2986.88,869.087 3003.64,860.71C3020.39,852.334 3037.56,848.146 3055.15,848.146C3081.12,848.146 3103.11,854.638 3121.11,867.621C3139.12,880.185 3152.74,898.194 3161.95,921.648C3171.16,944.683 3175.77,972.115 3175.77,1003.95C3175.77,1038.29 3169.49,1067.81 3156.92,1092.52C3144.78,1117.23 3128.65,1136.08 3108.55,1149.06C3088.45,1162.05 3066.88,1168.54 3043.84,1168.54C3030.02,1168.54 3015.99,1165.4 3001.75,1159.12C2987.51,1152.83 2973.27,1144.25 2959.03,1133.36L2960.29,1186.76L2960.29,1289.79L2908.78,1289.79ZM3035.05,1125.19C3051.8,1125.19 3066.67,1120.38 3079.65,1110.74C3093.05,1101.11 3103.52,1087.29 3111.06,1069.28C3118.6,1050.85 3122.37,1029.07 3122.37,1003.95C3122.37,981.748 3119.65,962.273 3114.2,945.52C3108.76,928.349 3100.17,915.156 3088.45,905.942C3076.72,896.31 3061.22,891.493 3041.96,891.493C3029.39,891.493 3016.41,895.053 3003.01,902.173C2989.61,908.874 2975.37,919.135 2960.29,932.956L2960.29,1093.15C2974.53,1104.88 2987.93,1113.26 3000.5,1118.28C3013.48,1122.89 3025,1125.19 3035.05,1125.19Z" style="fill-rule:nonzero;"/>
            <path d="M3319,1168.54C3302.25,1168.54 3286.96,1165.19 3273.14,1158.49C3259.74,1151.37 3249.06,1141.53 3241.1,1128.96C3233.15,1115.98 3229.17,1100.27 3229.17,1081.84C3229.17,1047.5 3244.24,1021.53 3274.4,1003.95C3304.56,986.355 3352.3,974 3417.63,966.88C3417.22,954.315 3415.12,942.17 3411.35,930.443C3408,918.716 3401.72,909.293 3392.51,902.173C3383.29,895.053 3370.52,891.493 3354.18,891.493C3336.59,891.493 3320.05,894.844 3304.56,901.545C3289.06,907.827 3275.24,914.947 3263.09,922.904L3242.99,887.724C3252.2,881.442 3263.09,875.369 3275.66,869.506C3288.22,863.223 3301.83,858.198 3316.49,854.428C3331.15,850.24 3346.64,848.146 3362.98,848.146C3387.69,848.146 3407.79,853.381 3423.29,863.852C3439.2,873.903 3450.72,888.352 3457.84,907.199C3465.38,926.045 3469.15,948.243 3469.15,973.79L3469.15,1161L3426.43,1161L3422.03,1124.56L3420.15,1124.56C3405.49,1136.71 3389.78,1147.18 3373.03,1155.97C3356.28,1164.35 3338.27,1168.54 3319,1168.54ZM3333.45,1125.82C3348.53,1125.82 3362.56,1122.47 3375.54,1115.77C3388.95,1109.07 3402.98,1099.23 3417.63,1086.24L3417.63,1003.95C3383.29,1008.13 3356.07,1013.58 3335.97,1020.28C3316.28,1026.56 3302.04,1034.52 3293.25,1044.15C3284.45,1053.78 3280.05,1065.3 3280.05,1078.7C3280.05,1095.46 3285.29,1107.6 3295.76,1115.14C3306.23,1122.26 3318.79,1125.82 3333.45,1125.82Z" style="fill-rule:nonzero;"/>
            <path d="M3565.27,1161L3565.27,855.685L3607.99,855.685L3612.38,910.968L3614.27,910.968C3624.32,891.703 3636.88,876.416 3651.96,865.108C3667.04,853.8 3683.37,848.146 3700.96,848.146C3707.66,848.146 3713.53,848.565 3718.55,849.402C3723.58,850.24 3728.6,851.915 3733.63,854.428L3722.32,898.404C3717.72,897.147 3713.32,896.31 3709.13,895.891C3705.36,895.053 3700.33,894.634 3694.05,894.634C3681.07,894.634 3667.46,899.87 3653.22,910.34C3639.4,920.81 3627.25,939.029 3616.78,964.995L3616.78,1161L3565.27,1161Z" style="fill-rule:nonzero;"/>
            <path d="M3879.38,1166.65C3847.13,1166.65 3824.51,1157.23 3811.53,1138.38C3798.55,1119.54 3792.05,1095.04 3792.05,1064.88L3792.05,897.775L3746.82,897.775L3746.82,858.826L3794.57,855.685L3800.85,757.682L3844.2,757.682L3844.2,855.685L3927.12,855.685L3927.12,897.775L3844.2,897.775L3844.2,1065.51C3844.2,1083.94 3847.55,1098.39 3854.25,1108.86C3861.37,1119.33 3873.72,1124.56 3891.31,1124.56C3896.76,1124.56 3902.41,1124.14 3908.28,1123.31C3914.14,1122.05 3920,1119.96 3925.87,1117.03L3937.17,1153.46C3929.22,1157.23 3920.21,1160.37 3910.16,1162.88C3900.11,1165.4 3889.85,1166.65 3879.38,1166.65Z" style="fill-rule:nonzero;"/>
            <path d="M4110.56,1168.54C4083.34,1168.54 4058.42,1162.26 4035.8,1149.69C4013.61,1136.71 3996.02,1118.49 3983.03,1095.04C3970.05,1071.16 3963.56,1042.27 3963.56,1008.34C3963.56,975.256 3970.26,946.777 3983.66,922.904C3997.06,899.032 4014.24,880.604 4035.18,867.621C4056.12,854.638 4078.31,848.146 4101.77,848.146C4127.73,848.146 4149.72,854.219 4167.73,866.364C4186.16,878.091 4199.98,894.634 4209.19,915.994C4218.41,937.353 4223.01,962.482 4223.01,991.38C4223.01,996.825 4222.8,1002.06 4222.39,1007.09C4222.39,1012.11 4221.76,1017.14 4220.5,1022.16L4000.62,1022.16L4000.62,981.329L4176.52,981.329C4176.52,952.012 4170.03,929.605 4157.05,914.109C4144.49,898.194 4126.27,890.237 4102.4,890.237C4088.57,890.237 4074.96,894.216 4061.56,902.173C4048.16,909.712 4037.06,922.067 4028.26,939.238C4019.89,956.409 4015.7,979.235 4015.7,1007.71C4015.7,1033.68 4020.1,1055.46 4028.89,1073.05C4038.11,1090.64 4050.46,1104.04 4065.96,1113.26C4081.45,1122.05 4098.42,1126.45 4116.84,1126.45C4131.5,1126.45 4145.11,1124.35 4157.68,1120.17C4170.66,1115.98 4182.39,1110.32 4192.86,1103.2L4211.71,1137.13C4198.3,1146.34 4183.23,1153.88 4166.47,1159.74C4150.14,1165.61 4131.5,1168.54 4110.56,1168.54Z" style="fill-rule:nonzero;"/>
            <path d="M4528.33,1168.54C4489.8,1168.54 4459.02,1154.72 4435.98,1127.08C4413.36,1099.02 4402.06,1059.65 4402.06,1008.97C4402.06,975.884 4408.13,947.405 4420.28,923.533C4432.84,899.241 4449.17,880.604 4469.28,867.621C4489.38,854.638 4511.16,848.146 4534.61,848.146C4552.62,848.146 4567.91,851.287 4580.47,857.569C4593.45,863.433 4606.65,872.018 4620.05,883.326L4617.54,831.184L4617.54,713.707L4669.68,713.707L4669.68,1161L4626.96,1161L4622.56,1125.19L4620.68,1125.19C4608.95,1136.92 4595.13,1147.18 4579.22,1155.97C4563.3,1164.35 4546.34,1168.54 4528.33,1168.54ZM4539.64,1125.19C4553.88,1125.19 4567.28,1121.63 4579.84,1114.51C4592.41,1107.39 4604.97,1096.92 4617.54,1083.1L4617.54,923.533C4604.97,911.806 4592.62,903.639 4580.47,899.032C4568.33,894.006 4555.97,891.493 4543.41,891.493C4527.07,891.493 4512.2,896.519 4498.8,906.571C4485.82,916.203 4475.35,929.815 4467.39,947.405C4459.43,964.576 4455.45,984.889 4455.45,1008.34C4455.45,1044.78 4462.78,1073.47 4477.44,1094.41C4492.1,1114.93 4512.83,1125.19 4539.64,1125.19Z" style="fill-rule:nonzero;"/>
            <path d="M4843.07,1168.54C4826.32,1168.54 4811.03,1165.19 4797.21,1158.49C4783.81,1151.37 4773.13,1141.53 4765.17,1128.96C4757.21,1115.98 4753.23,1100.27 4753.23,1081.84C4753.23,1047.5 4768.31,1021.53 4798.46,1003.95C4828.62,986.355 4876.36,974 4941.7,966.88C4941.28,954.315 4939.19,942.17 4935.42,930.443C4932.07,918.716 4925.78,909.293 4916.57,902.173C4907.36,895.053 4894.58,891.493 4878.25,891.493C4860.66,891.493 4844.11,894.844 4828.62,901.545C4813.12,907.827 4799.3,914.947 4787.16,922.904L4767.05,887.724C4776.27,881.442 4787.16,875.369 4799.72,869.506C4812.28,863.223 4825.9,858.198 4840.56,854.428C4855.21,850.24 4870.71,848.146 4887.04,848.146C4911.75,848.146 4931.86,853.381 4947.35,863.852C4963.27,873.903 4974.78,888.352 4981.9,907.199C4989.44,926.045 4993.21,948.243 4993.21,973.79L4993.21,1161L4950.49,1161L4946.1,1124.56L4944.21,1124.56C4929.55,1136.71 4913.85,1147.18 4897.09,1155.97C4880.34,1164.35 4862.33,1168.54 4843.07,1168.54ZM4857.52,1125.82C4872.59,1125.82 4886.62,1122.47 4899.61,1115.77C4913.01,1109.07 4927.04,1099.23 4941.7,1086.24L4941.7,1003.95C4907.36,1008.13 4880.13,1013.58 4860.03,1020.28C4840.35,1026.56 4826.11,1034.52 4817.31,1044.15C4808.52,1053.78 4804.12,1065.3 4804.12,1078.7C4804.12,1095.46 4809.35,1107.6 4819.82,1115.14C4830.29,1122.26 4842.86,1125.82 4857.52,1125.82Z" style="fill-rule:nonzero;"/>
            <path d="M5214.97,1161L5214.97,855.685L5257.69,855.685L5262.09,899.66L5263.98,899.66C5278.63,885.002 5294.13,872.856 5310.46,863.223C5326.8,853.172 5345.44,848.146 5366.38,848.146C5398.62,848.146 5422.08,858.407 5436.74,878.929C5451.81,899.032 5459.35,928.558 5459.35,967.508L5459.35,1161L5407.84,1161L5407.84,974.418C5407.84,945.52 5403.23,924.789 5394.02,912.225C5385.22,899.241 5370.56,892.75 5350.04,892.75C5334.55,892.75 5320.52,896.728 5307.95,904.686C5295.81,912.643 5281.98,924.37 5266.49,939.866L5266.49,1161L5214.97,1161Z" style="fill-rule:nonzero;"/>
            <path d="M5677.35,1168.54C5652.64,1168.54 5629.39,1162.26 5607.61,1149.69C5586.25,1137.13 5568.87,1118.91 5555.47,1095.04C5542.49,1071.16 5535.99,1042.48 5535.99,1008.97C5535.99,974.628 5542.49,945.52 5555.47,921.648C5568.87,897.775 5586.25,879.557 5607.61,866.993C5629.39,854.428 5652.64,848.146 5677.35,848.146C5702.47,848.146 5725.72,854.428 5747.08,866.993C5768.44,879.557 5785.61,897.775 5798.59,921.648C5811.99,945.52 5818.69,974.628 5818.69,1008.97C5818.69,1042.48 5811.99,1071.16 5798.59,1095.04C5785.61,1118.91 5768.44,1137.13 5747.08,1149.69C5725.72,1162.26 5702.47,1168.54 5677.35,1168.54ZM5677.35,1125.82C5694.94,1125.82 5710.43,1121 5723.83,1111.37C5737.23,1101.32 5747.5,1087.5 5754.62,1069.91C5761.74,1052.32 5765.3,1032.01 5765.3,1008.97C5765.3,985.517 5761.74,964.995 5754.62,947.405C5747.5,929.396 5737.23,915.575 5723.83,905.942C5710.43,895.891 5694.94,890.865 5677.35,890.865C5659.76,890.865 5644.26,895.891 5630.86,905.942C5617.87,915.575 5607.61,929.396 5600.07,947.405C5592.95,964.995 5589.39,985.517 5589.39,1008.97C5589.39,1032.01 5592.95,1052.32 5600.07,1069.91C5607.61,1087.5 5617.87,1101.32 5630.86,1111.37C5644.26,1121 5659.76,1125.82 5677.35,1125.82Z" style="fill-rule:nonzero;"/>
            <path d="M5977.63,1168.54C5955.44,1168.54 5934.29,1164.77 5914.18,1157.23C5894.5,1149.27 5877.75,1138.38 5863.93,1124.56L5887.8,1094.41C5901.2,1105.3 5915.02,1113.67 5929.26,1119.54C5943.92,1125.4 5960.67,1128.33 5979.52,1128.33C5999.62,1128.33 6014.7,1123.73 6024.75,1114.51C6034.8,1104.88 6039.83,1093.57 6039.83,1080.59C6039.83,1070.12 6036.27,1061.53 6029.15,1054.83C6022.45,1047.71 6013.86,1041.85 6003.39,1037.24C5993.34,1032.21 5982.45,1027.61 5970.72,1023.42C5955.65,1017.98 5941.2,1011.69 5927.38,1004.57C5913.56,997.034 5902.25,987.82 5893.45,976.931C5885.08,965.623 5880.89,951.593 5880.89,934.84C5880.89,910.13 5890.1,889.609 5908.53,873.275C5927.38,856.522 5953.34,848.146 5986.43,848.146C6005.28,848.146 6022.87,851.497 6039.2,858.198C6055.53,864.48 6069.56,872.647 6081.29,882.698L6057.42,912.225C6046.53,904.686 6035.43,898.822 6024.12,894.634C6012.82,890.446 6000.25,888.352 5986.43,888.352C5967.16,888.352 5952.92,892.75 5943.71,901.545C5934.91,910.34 5930.52,920.601 5930.52,932.328C5930.52,941.542 5933.24,949.29 5938.69,955.572C5944.13,961.435 5951.67,966.67 5961.3,971.277C5971.35,975.884 5982.66,980.282 5995.23,984.47C6011.14,990.333 6026.22,997.034 6040.46,1004.57C6055.11,1011.69 6066.84,1021.12 6075.64,1032.84C6084.85,1044.15 6089.46,1059.02 6089.46,1077.45C6089.46,1094.2 6085.06,1109.49 6076.27,1123.31C6067.89,1136.71 6055.32,1147.6 6038.57,1155.97C6022.24,1164.35 6001.93,1168.54 5977.63,1168.54Z" style="fill-rule:nonzero;"/>
            <path d="M6240.86,1168.54C6218.66,1168.54 6197.51,1164.77 6177.41,1157.23C6157.72,1149.27 6140.97,1138.38 6127.15,1124.56L6151.02,1094.41C6164.43,1105.3 6178.25,1113.67 6192.49,1119.54C6207.14,1125.4 6223.9,1128.33 6242.74,1128.33C6262.85,1128.33 6277.92,1123.73 6287.98,1114.51C6298.03,1104.88 6303.05,1093.57 6303.05,1080.59C6303.05,1070.12 6299.49,1061.53 6292.37,1054.83C6285.67,1047.71 6277.09,1041.85 6266.62,1037.24C6256.56,1032.21 6245.68,1027.61 6233.95,1023.42C6218.87,1017.98 6204.42,1011.69 6190.6,1004.57C6176.78,997.034 6165.47,987.82 6156.68,976.931C6148.3,965.623 6144.11,951.593 6144.11,934.84C6144.11,910.13 6153.33,889.609 6171.76,873.275C6190.6,856.522 6216.57,848.146 6249.65,848.146C6268.5,848.146 6286.09,851.497 6302.43,858.198C6318.76,864.48 6332.79,872.647 6344.52,882.698L6320.64,912.225C6309.75,904.686 6298.65,898.822 6287.35,894.634C6276.04,890.446 6263.48,888.352 6249.65,888.352C6230.39,888.352 6216.15,892.75 6206.94,901.545C6198.14,910.34 6193.74,920.601 6193.74,932.328C6193.74,941.542 6196.47,949.29 6201.91,955.572C6207.35,961.435 6214.89,966.67 6224.53,971.277C6234.58,975.884 6245.89,980.282 6258.45,984.47C6274.36,990.333 6289.44,997.034 6303.68,1004.57C6318.34,1011.69 6330.07,1021.12 6338.86,1032.84C6348.07,1044.15 6352.68,1059.02 6352.68,1077.45C6352.68,1094.2 6348.28,1109.49 6339.49,1123.31C6331.11,1136.71 6318.55,1147.6 6301.8,1155.97C6285.46,1164.35 6265.15,1168.54 6240.86,1168.54Z" style="fill-rule:nonzero;"/>
            <path d="M6494.66,1168.54C6477.91,1168.54 6462.62,1165.19 6448.8,1158.49C6435.4,1151.37 6424.72,1141.53 6416.76,1128.96C6408.8,1115.98 6404.82,1100.27 6404.82,1081.84C6404.82,1047.5 6419.9,1021.53 6450.06,1003.95C6480.21,986.355 6527.96,974 6593.29,966.88C6592.87,954.315 6590.78,942.17 6587.01,930.443C6583.66,918.716 6577.38,909.293 6568.16,902.173C6558.95,895.053 6546.17,891.493 6529.84,891.493C6512.25,891.493 6495.71,894.844 6480.21,901.545C6464.72,907.827 6450.89,914.947 6438.75,922.904L6418.65,887.724C6427.86,881.442 6438.75,875.369 6451.31,869.506C6463.88,863.223 6477.49,858.198 6492.15,854.428C6506.81,850.24 6522.3,848.146 6538.64,848.146C6563.35,848.146 6583.45,853.381 6598.94,863.852C6614.86,873.903 6626.38,888.352 6633.5,907.199C6641.04,926.045 6644.81,948.243 6644.81,973.79L6644.81,1161L6602.09,1161L6597.69,1124.56L6595.8,1124.56C6581.15,1136.71 6565.44,1147.18 6548.69,1155.97C6531.94,1164.35 6513.93,1168.54 6494.66,1168.54ZM6509.11,1125.82C6524.19,1125.82 6538.22,1122.47 6551.2,1115.77C6564.6,1109.07 6578.63,1099.23 6593.29,1086.24L6593.29,1003.95C6558.95,1008.13 6531.73,1013.58 6511.62,1020.28C6491.94,1026.56 6477.7,1034.52 6468.9,1044.15C6460.11,1053.78 6455.71,1065.3 6455.71,1078.7C6455.71,1095.46 6460.95,1107.6 6471.42,1115.14C6481.89,1122.26 6494.45,1125.82 6509.11,1125.82Z" style="fill-rule:nonzero;"/>
            <path d="M6866.57,1161L6866.57,855.685L6909.29,855.685L6913.68,910.968L6915.57,910.968C6925.62,891.703 6938.18,876.416 6953.26,865.108C6968.34,853.8 6984.67,848.146 7002.26,848.146C7008.96,848.146 7014.83,848.565 7019.85,849.402C7024.88,850.24 7029.9,851.915 7034.93,854.428L7023.62,898.404C7019.02,897.147 7014.62,896.31 7010.43,895.891C7006.66,895.053 7001.63,894.634 6995.35,894.634C6982.37,894.634 6968.76,899.87 6954.52,910.34C6940.7,920.81 6928.55,939.029 6918.08,964.995L6918.08,1161L6866.57,1161Z" style="fill-rule:nonzero;"/>
            <path d="M7202.04,1168.54C7174.81,1168.54 7149.89,1162.26 7127.28,1149.69C7105.08,1136.71 7087.49,1118.49 7074.51,1095.04C7061.53,1071.16 7055.03,1042.27 7055.03,1008.34C7055.03,975.256 7061.73,946.777 7075.14,922.904C7088.54,899.032 7105.71,880.604 7126.65,867.621C7147.59,854.638 7169.79,848.146 7193.24,848.146C7219.21,848.146 7241.2,854.219 7259.2,866.364C7277.63,878.091 7291.45,894.634 7300.67,915.994C7309.88,937.353 7314.49,962.482 7314.49,991.38C7314.49,996.825 7314.28,1002.06 7313.86,1007.09C7313.86,1012.11 7313.23,1017.14 7311.98,1022.16L7092.1,1022.16L7092.1,981.329L7268,981.329C7268,952.012 7261.51,929.605 7248.53,914.109C7235.96,898.194 7217.74,890.237 7193.87,890.237C7180.05,890.237 7166.44,894.216 7153.04,902.173C7139.63,909.712 7128.53,922.067 7119.74,939.238C7111.36,956.409 7107.18,979.235 7107.18,1007.71C7107.18,1033.68 7111.57,1055.46 7120.37,1073.05C7129.58,1090.64 7141.94,1104.04 7157.43,1113.26C7172.93,1122.05 7189.89,1126.45 7208.32,1126.45C7222.98,1126.45 7236.59,1124.35 7249.15,1120.17C7262.14,1115.98 7273.86,1110.32 7284.33,1103.2L7303.18,1137.13C7289.78,1146.34 7274.7,1153.88 7257.95,1159.74C7241.61,1165.61 7222.98,1168.54 7202.04,1168.54Z" style="fill-rule:nonzero;"/>
            <path d="M7494.16,1168.54C7455.63,1168.54 7424.85,1154.72 7401.81,1127.08C7379.19,1099.02 7367.89,1059.65 7367.89,1008.97C7367.89,975.884 7373.96,947.405 7386.11,923.533C7398.67,899.241 7415,880.604 7435.11,867.621C7455.21,854.638 7476.99,848.146 7500.44,848.146C7518.45,848.146 7533.74,851.287 7546.3,857.569C7559.28,863.433 7572.48,872.018 7585.88,883.326L7583.37,831.184L7583.37,713.707L7635.51,713.707L7635.51,1161L7592.79,1161L7588.39,1125.19L7586.51,1125.19C7574.78,1136.92 7560.96,1147.18 7545.05,1155.97C7529.13,1164.35 7512.17,1168.54 7494.16,1168.54ZM7505.47,1125.19C7519.71,1125.19 7533.11,1121.63 7545.67,1114.51C7558.24,1107.39 7570.8,1096.92 7583.37,1083.1L7583.37,923.533C7570.8,911.806 7558.45,903.639 7546.3,899.032C7534.16,894.006 7521.8,891.493 7509.24,891.493C7492.9,891.493 7478.03,896.519 7464.63,906.571C7451.65,916.203 7441.18,929.815 7433.22,947.405C7425.27,964.576 7421.29,984.889 7421.29,1008.34C7421.29,1044.78 7428.61,1073.47 7443.27,1094.41C7457.93,1114.93 7478.66,1125.19 7505.47,1125.19Z" style="fill-rule:nonzero;"/>
            <path d="M7862.3,1168.54C7835.07,1168.54 7810.15,1162.26 7787.54,1149.69C7765.34,1136.71 7747.75,1118.49 7734.77,1095.04C7721.78,1071.16 7715.29,1042.27 7715.29,1008.34C7715.29,975.256 7721.99,946.777 7735.4,922.904C7748.8,899.032 7765.97,880.604 7786.91,867.621C7807.85,854.638 7830.05,848.146 7853.5,848.146C7879.47,848.146 7901.46,854.219 7919.47,866.364C7937.89,878.091 7951.71,894.634 7960.93,915.994C7970.14,937.353 7974.75,962.482 7974.75,991.38C7974.75,996.825 7974.54,1002.06 7974.12,1007.09C7974.12,1012.11 7973.49,1017.14 7972.24,1022.16L7752.36,1022.16L7752.36,981.329L7928.26,981.329C7928.26,952.012 7921.77,929.605 7908.78,914.109C7896.22,898.194 7878,890.237 7854.13,890.237C7840.31,890.237 7826.7,894.216 7813.3,902.173C7799.89,909.712 7788.8,922.067 7780,939.238C7771.62,956.409 7767.44,979.235 7767.44,1007.71C7767.44,1033.68 7771.83,1055.46 7780.63,1073.05C7789.84,1090.64 7802.2,1104.04 7817.69,1113.26C7833.19,1122.05 7850.15,1126.45 7868.58,1126.45C7883.24,1126.45 7896.85,1124.35 7909.41,1120.17C7922.4,1115.98 7934.12,1110.32 7944.59,1103.2L7963.44,1137.13C7950.04,1146.34 7934.96,1153.88 7918.21,1159.74C7901.88,1165.61 7883.24,1168.54 7862.3,1168.54Z" style="fill-rule:nonzero;"/>
            <path d="M8280.06,1168.54C8241.53,1168.54 8210.75,1154.72 8187.72,1127.08C8165.1,1099.02 8153.79,1059.65 8153.79,1008.97C8153.79,975.884 8159.86,947.405 8172.01,923.533C8184.57,899.241 8200.91,880.604 8221.01,867.621C8241.11,854.638 8262.89,848.146 8286.35,848.146C8304.35,848.146 8319.64,851.287 8332.21,857.569C8345.19,863.433 8358.38,872.018 8371.78,883.326L8369.27,831.184L8369.27,713.707L8421.41,713.707L8421.41,1161L8378.69,1161L8374.3,1125.19L8372.41,1125.19C8360.68,1136.92 8346.86,1147.18 8330.95,1155.97C8315.03,1164.35 8298.07,1168.54 8280.06,1168.54ZM8291.37,1125.19C8305.61,1125.19 8319.01,1121.63 8331.58,1114.51C8344.14,1107.39 8356.71,1096.92 8369.27,1083.1L8369.27,923.533C8356.71,911.806 8344.35,903.639 8332.21,899.032C8320.06,894.006 8307.71,891.493 8295.14,891.493C8278.81,891.493 8263.94,896.519 8250.54,906.571C8237.55,916.203 8227.08,929.815 8219.13,947.405C8211.17,964.576 8207.19,984.889 8207.19,1008.34C8207.19,1044.78 8214.52,1073.47 8229.18,1094.41C8243.84,1114.93 8264.57,1125.19 8291.37,1125.19Z" style="fill-rule:nonzero;"/>
            <path d="M8648.2,1168.54C8620.98,1168.54 8596.06,1162.26 8573.44,1149.69C8551.25,1136.71 8533.66,1118.49 8520.67,1095.04C8507.69,1071.16 8501.2,1042.27 8501.2,1008.34C8501.2,975.256 8507.9,946.777 8521.3,922.904C8534.7,899.032 8551.87,880.604 8572.82,867.621C8593.76,854.638 8615.95,848.146 8639.41,848.146C8665.37,848.146 8687.36,854.219 8705.37,866.364C8723.8,878.091 8737.62,894.634 8746.83,915.994C8756.05,937.353 8760.65,962.482 8760.65,991.38C8760.65,996.825 8760.44,1002.06 8760.02,1007.09C8760.02,1012.11 8759.4,1017.14 8758.14,1022.16L8538.26,1022.16L8538.26,981.329L8714.16,981.329C8714.16,952.012 8707.67,929.605 8694.69,914.109C8682.12,898.194 8663.91,890.237 8640.03,890.237C8626.21,890.237 8612.6,894.216 8599.2,902.173C8585.8,909.712 8574.7,922.067 8565.9,939.238C8557.53,956.409 8553.34,979.235 8553.34,1007.71C8553.34,1033.68 8557.74,1055.46 8566.53,1073.05C8575.75,1090.64 8588.1,1104.04 8603.6,1113.26C8619.09,1122.05 8636.06,1126.45 8654.48,1126.45C8669.14,1126.45 8682.75,1124.35 8695.32,1120.17C8708.3,1115.98 8720.03,1110.32 8730.5,1103.2L8749.34,1137.13C8735.94,1146.34 8720.86,1153.88 8704.11,1159.74C8687.78,1165.61 8669.14,1168.54 8648.2,1168.54Z" style="fill-rule:nonzero;"/>
            <g transform="matrix(1,0,0,1,-306.852,0)">
                <path d="M1396.02,1872.67C1357.49,1872.67 1326.71,1858.85 1303.67,1831.2C1281.06,1803.14 1269.75,1763.78 1269.75,1713.1C1269.75,1680.01 1275.82,1651.53 1287.97,1627.66C1300.53,1603.37 1316.86,1584.73 1336.97,1571.75C1357.07,1558.77 1378.85,1552.28 1402.3,1552.28C1420.31,1552.28 1435.6,1555.42 1448.16,1561.7C1461.14,1567.56 1474.34,1576.15 1487.74,1587.45L1485.23,1535.31L1485.23,1417.84L1537.37,1417.84L1537.37,1865.13L1494.65,1865.13L1490.25,1829.32L1488.37,1829.32C1476.64,1841.05 1462.82,1851.31 1446.91,1860.1C1430.99,1868.48 1414.03,1872.67 1396.02,1872.67ZM1407.33,1829.32C1421.57,1829.32 1434.97,1825.76 1447.53,1818.64C1460.1,1811.52 1472.66,1801.05 1485.23,1787.23L1485.23,1627.66C1472.66,1615.93 1460.31,1607.77 1448.16,1603.16C1436.02,1598.13 1423.66,1595.62 1411.1,1595.62C1394.76,1595.62 1379.89,1600.65 1366.49,1610.7C1353.51,1620.33 1343.04,1633.94 1335.08,1651.53C1327.12,1668.7 1323.15,1689.02 1323.15,1712.47C1323.15,1748.91 1330.48,1777.6 1345.13,1798.54C1359.79,1819.06 1380.52,1829.32 1407.33,1829.32Z" style="fill-rule:nonzero;"/>
            </g>
            <g transform="matrix(1,0,0,1,-306.852,0)">
                <path d="M1764.16,1872.67C1736.93,1872.67 1712.02,1866.38 1689.4,1853.82C1667.2,1840.84 1649.61,1822.62 1636.63,1799.17C1623.64,1775.29 1617.15,1746.39 1617.15,1712.47C1617.15,1679.38 1623.85,1650.91 1637.26,1627.03C1650.66,1603.16 1667.83,1584.73 1688.77,1571.75C1709.71,1558.77 1731.91,1552.28 1755.36,1552.28C1781.33,1552.28 1803.32,1558.35 1821.33,1570.49C1839.75,1582.22 1853.57,1598.76 1862.79,1620.12C1872,1641.48 1876.61,1666.61 1876.61,1695.51C1876.61,1700.95 1876.4,1706.19 1875.98,1711.22C1875.98,1716.24 1875.35,1721.27 1874.1,1726.29L1654.22,1726.29L1654.22,1685.46L1830.12,1685.46C1830.12,1656.14 1823.63,1633.73 1810.64,1618.24C1798.08,1602.32 1779.86,1594.37 1755.99,1594.37C1742.17,1594.37 1728.56,1598.34 1715.16,1606.3C1701.75,1613.84 1690.65,1626.2 1681.86,1643.37C1673.48,1660.54 1669.3,1683.36 1669.3,1711.84C1669.3,1737.81 1673.69,1759.59 1682.49,1777.18C1691.7,1794.77 1704.06,1808.17 1719.55,1817.38C1735.05,1826.18 1752.01,1830.58 1770.44,1830.58C1785.1,1830.58 1798.71,1828.48 1811.27,1824.3C1824.26,1820.11 1835.98,1814.45 1846.45,1807.33L1865.3,1841.26C1851.9,1850.47 1836.82,1858.01 1820.07,1863.87C1803.74,1869.74 1785.1,1872.67 1764.16,1872.67Z" style="fill-rule:nonzero;"/>
            </g>
            <g transform="matrix(2.17606,0,0,2.17606,-555.438,-2119.24)">
                <g transform="matrix(276.504,0,0,276.504,1108,1831)">
                    <path d="M0.037,-0L0.037,-0.091C0.095,-0.14 0.144,-0.185 0.185,-0.228C0.226,-0.271 0.258,-0.311 0.28,-0.348C0.302,-0.385 0.313,-0.42 0.313,-0.451C0.313,-0.472 0.309,-0.49 0.302,-0.504C0.295,-0.519 0.284,-0.53 0.271,-0.537C0.258,-0.544 0.242,-0.548 0.223,-0.548C0.2,-0.548 0.18,-0.541 0.161,-0.528C0.143,-0.515 0.126,-0.501 0.11,-0.484L0.033,-0.56C0.065,-0.593 0.097,-0.619 0.128,-0.637C0.16,-0.655 0.198,-0.664 0.243,-0.664C0.284,-0.664 0.321,-0.656 0.352,-0.639C0.384,-0.622 0.409,-0.598 0.426,-0.567C0.444,-0.536 0.453,-0.501 0.453,-0.46C0.453,-0.421 0.443,-0.381 0.422,-0.342C0.402,-0.303 0.376,-0.264 0.343,-0.226C0.31,-0.188 0.276,-0.151 0.239,-0.116C0.256,-0.118 0.274,-0.12 0.293,-0.121C0.313,-0.123 0.33,-0.124 0.345,-0.124L0.484,-0.124L0.484,-0L0.037,-0Z" style="fill:white;fill-rule:nonzero;"/>
                </g>
            </g>
            <g transform="matrix(1,0,0,1,-173.438,0)">
                <path d="M2523.68,1872.67C2480.96,1872.67 2446.41,1854.87 2420.02,1819.27C2394.05,1783.67 2381.07,1731.95 2381.07,1664.1C2381.07,1595.83 2394.05,1544.53 2420.02,1510.18C2446.41,1475.84 2480.96,1458.67 2523.68,1458.67C2566.39,1458.67 2600.74,1476.05 2626.7,1510.81C2653.09,1545.15 2666.28,1596.25 2666.28,1664.1C2666.28,1731.95 2653.09,1783.67 2626.7,1819.27C2600.74,1854.87 2566.39,1872.67 2523.68,1872.67ZM2523.68,1801.05C2534.15,1801.05 2543.57,1797.28 2551.95,1789.74C2560.32,1781.79 2566.81,1767.96 2571.42,1748.28C2576.45,1728.18 2578.96,1700.12 2578.96,1664.1C2578.96,1627.66 2576.45,1599.81 2571.42,1580.55C2566.81,1561.28 2560.32,1548.09 2551.95,1540.97C2543.57,1533.85 2534.15,1530.29 2523.68,1530.29C2513.21,1530.29 2503.78,1533.85 2495.41,1540.97C2487.03,1548.09 2480.33,1561.28 2475.3,1580.55C2470.7,1599.81 2468.39,1627.66 2468.39,1664.1C2468.39,1700.12 2470.7,1728.18 2475.3,1748.28C2480.33,1767.96 2487.03,1781.79 2495.41,1789.74C2503.78,1797.28 2513.21,1801.05 2523.68,1801.05Z" style="fill:white;fill-rule:nonzero;"/>
            </g>
            <g transform="matrix(1,0,0,1,-173.438,0)">
                <path d="M2856.01,1865.13L2856.01,1553.53L2931.39,1553.53L2937.67,1593.74L2940.19,1593.74C2952.75,1580.75 2966.36,1569.66 2981.02,1560.44C2996.1,1550.81 3013.9,1545.99 3034.42,1545.99C3056.62,1545.99 3074.63,1550.6 3088.45,1559.81C3102.27,1568.61 3112.95,1581.38 3120.49,1598.13C3134.31,1583.89 3148.97,1571.75 3164.46,1561.7C3179.96,1551.23 3197.97,1545.99 3218.49,1545.99C3252.41,1545.99 3277.12,1557.3 3292.62,1579.92C3308.12,1602.11 3315.86,1632.69 3315.86,1671.64L3315.86,1865.13L3223.51,1865.13L3223.51,1683.57C3223.51,1660.96 3220.37,1645.46 3214.09,1637.09C3208.23,1628.71 3198.6,1624.52 3185.19,1624.52C3177.24,1624.52 3168.86,1627.03 3160.06,1632.06C3151.27,1636.67 3141.85,1644.2 3131.79,1654.67L3131.79,1865.13L3039.45,1865.13L3039.45,1683.57C3039.45,1660.96 3036.3,1645.46 3030.02,1637.09C3024.16,1628.71 3014.53,1624.52 3001.12,1624.52C2985.21,1624.52 2967.62,1634.57 2948.35,1654.67L2948.35,1865.13L2856.01,1865.13Z" style="fill:white;fill-rule:nonzero;"/>
            </g>
            <g transform="matrix(1,0,0,1,-173.438,0)">
                <path d="M3394.39,1865.13L3394.39,1553.53L3486.74,1553.53L3486.74,1865.13L3394.39,1865.13ZM3440.25,1507.67C3424.75,1507.67 3412.19,1503.27 3402.56,1494.48C3392.92,1485.68 3388.11,1473.96 3388.11,1459.3C3388.11,1444.64 3392.92,1432.91 3402.56,1424.12C3412.19,1415.32 3424.75,1410.92 3440.25,1410.92C3455.75,1410.92 3468.31,1415.32 3477.94,1424.12C3487.58,1432.91 3492.39,1444.64 3492.39,1459.3C3492.39,1473.96 3487.58,1485.68 3477.94,1494.48C3468.31,1503.27 3455.75,1507.67 3440.25,1507.67Z" style="fill:white;fill-rule:nonzero;"/>
            </g>
            <g transform="matrix(1,0,0,1,-173.438,0)">
                <path d="M3652.59,1872.04C3631.65,1872.04 3614.9,1867.85 3602.33,1859.48C3590.19,1850.68 3581.39,1838.53 3575.95,1823.04C3570.5,1807.12 3567.78,1788.69 3567.78,1767.76L3567.78,1425.37L3660.13,1425.37L3660.13,1771.52C3660.13,1781.58 3661.8,1788.49 3665.15,1792.26C3668.92,1795.61 3672.9,1797.28 3677.09,1797.28L3681.49,1797.28C3683.16,1796.86 3685.26,1796.44 3687.77,1796.03L3699.08,1864.5C3694.05,1866.6 3687.56,1868.27 3679.6,1869.53C3672.06,1871.2 3663.06,1872.04 3652.59,1872.04Z" style="fill:white;fill-rule:nonzero;"/>
            </g>
            <g transform="matrix(1,0,0,1,-84.4955,0)">
                <path d="M3883.77,1993.91L3883.77,1559.81L3926.49,1559.81L3930.89,1594.99L3932.78,1594.99C3946.6,1583.27 3961.88,1573.22 3978.64,1564.84C3995.39,1556.46 4012.56,1552.28 4030.15,1552.28C4056.12,1552.28 4078.1,1558.77 4096.11,1571.75C4114.12,1584.31 4127.73,1602.32 4136.95,1625.78C4146.16,1648.81 4150.77,1676.24 4150.77,1708.07C4150.77,1742.42 4144.49,1771.94 4131.92,1796.65C4119.78,1821.36 4103.65,1840.21 4083.55,1853.19C4063.45,1866.18 4041.88,1872.67 4018.84,1872.67C4005.02,1872.67 3990.99,1869.53 3976.75,1863.24C3962.51,1856.96 3948.27,1848.38 3934.03,1837.49L3935.29,1890.89L3935.29,1993.91L3883.77,1993.91ZM4010.05,1829.32C4026.8,1829.32 4041.67,1824.5 4054.65,1814.87C4068.05,1805.24 4078.52,1791.42 4086.06,1773.41C4093.6,1754.98 4097.37,1733.2 4097.37,1708.07C4097.37,1685.88 4094.65,1666.4 4089.2,1649.65C4083.76,1632.48 4075.17,1619.29 4063.45,1610.07C4051.72,1600.44 4036.22,1595.62 4016.96,1595.62C4004.39,1595.62 3991.41,1599.18 3978.01,1606.3C3964.61,1613 3950.37,1623.26 3935.29,1637.09L3935.29,1797.28C3949.53,1809.01 3962.93,1817.38 3975.49,1822.41C3988.48,1827.02 3999.99,1829.32 4010.05,1829.32Z" style="fill-rule:nonzero;"/>
            </g>
            <g transform="matrix(1,0,0,1,-84.4955,0)">
                <path d="M4232.44,1865.13L4232.44,1559.81L4275.16,1559.81L4279.55,1615.1L4281.44,1615.1C4291.49,1595.83 4304.05,1580.55 4319.13,1569.24C4334.21,1557.93 4350.54,1552.28 4368.13,1552.28C4374.83,1552.28 4380.7,1552.69 4385.72,1553.53C4390.75,1554.37 4395.77,1556.04 4400.8,1558.56L4389.49,1602.53C4384.89,1601.28 4380.49,1600.44 4376.3,1600.02C4372.53,1599.18 4367.5,1598.76 4361.22,1598.76C4348.24,1598.76 4334.63,1604 4320.39,1614.47C4306.57,1624.94 4294.42,1643.16 4283.95,1669.12L4283.95,1865.13L4232.44,1865.13Z" style="fill-rule:nonzero;"/>
            </g>
            <g transform="matrix(1,0,0,1,-84.4955,0)">
                <path d="M4562.88,1872.67C4538.17,1872.67 4514.93,1866.38 4493.15,1853.82C4471.79,1841.26 4454.41,1823.04 4441.01,1799.17C4428.02,1775.29 4421.53,1746.61 4421.53,1713.1C4421.53,1678.76 4428.02,1649.65 4441.01,1625.78C4454.41,1601.9 4471.79,1583.69 4493.15,1571.12C4514.93,1558.56 4538.17,1552.28 4562.88,1552.28C4588.01,1552.28 4611.25,1558.56 4632.61,1571.12C4653.97,1583.69 4671.14,1601.9 4684.13,1625.78C4697.53,1649.65 4704.23,1678.76 4704.23,1713.1C4704.23,1746.61 4697.53,1775.29 4684.13,1799.17C4671.14,1823.04 4653.97,1841.26 4632.61,1853.82C4611.25,1866.38 4588.01,1872.67 4562.88,1872.67ZM4562.88,1829.95C4580.47,1829.95 4595.97,1825.13 4609.37,1815.5C4622.77,1805.45 4633.03,1791.63 4640.15,1774.04C4647.27,1756.45 4650.83,1736.13 4650.83,1713.1C4650.83,1689.65 4647.27,1669.12 4640.15,1651.53C4633.03,1633.53 4622.77,1619.7 4609.37,1610.07C4595.97,1600.02 4580.47,1594.99 4562.88,1594.99C4545.29,1594.99 4529.8,1600.02 4516.39,1610.07C4503.41,1619.7 4493.15,1633.53 4485.61,1651.53C4478.49,1669.12 4474.93,1689.65 4474.93,1713.1C4474.93,1736.13 4478.49,1756.45 4485.61,1774.04C4493.15,1791.63 4503.41,1805.45 4516.39,1815.5C4529.8,1825.13 4545.29,1829.95 4562.88,1829.95Z" style="fill-rule:nonzero;"/>
            </g>
            <g transform="matrix(1,0,0,1,-84.4955,0)">
                <path d="M4792.18,1865.13L4792.18,1511.44C4792.18,1490.92 4795.32,1473.12 4801.61,1458.04C4807.89,1442.55 4817.52,1430.82 4830.5,1422.86C4843.9,1414.49 4860.87,1410.3 4881.39,1410.3C4890.6,1410.3 4899.61,1411.34 4908.4,1413.44C4917.62,1415.11 4925.57,1417.42 4932.28,1420.35L4920.97,1458.04C4908.82,1454.27 4897.3,1452.39 4886.41,1452.39C4872.18,1452.39 4861.49,1457.41 4854.38,1467.46C4847.26,1477.1 4843.7,1491.76 4843.7,1511.44L4843.7,1865.13L4792.18,1865.13ZM4746.95,1601.9L4746.95,1562.95L4794.69,1559.81L4908.4,1559.81L4908.4,1601.9L4746.95,1601.9Z" style="fill-rule:nonzero;"/>
            </g>
            <g transform="matrix(1,0,0,1,-84.4955,0)">
                <path d="M4966.83,1865.13L4966.83,1559.81L5018.34,1559.81L5018.34,1865.13L4966.83,1865.13ZM4992.58,1496.99C4982.53,1496.99 4974.16,1493.85 4967.45,1487.57C4961.17,1481.29 4958.03,1473.12 4958.03,1463.07C4958.03,1453.02 4961.17,1444.85 4967.45,1438.57C4974.16,1432.29 4982.53,1429.14 4992.58,1429.14C5002.64,1429.14 5010.8,1432.29 5017.09,1438.57C5023.79,1444.85 5027.14,1453.02 5027.14,1463.07C5027.14,1473.12 5023.79,1481.29 5017.09,1487.57C5010.8,1493.85 5002.64,1496.99 4992.58,1496.99Z" style="fill-rule:nonzero;"/>
            </g>
            <g transform="matrix(1,0,0,1,-84.4955,0)">
                <path d="M5201.15,1872.67C5178.96,1872.67 5157.81,1868.9 5137.7,1861.36C5118.02,1853.4 5101.27,1842.51 5087.44,1828.69L5111.32,1798.54C5124.72,1809.43 5138.54,1817.8 5152.78,1823.67C5167.44,1829.53 5184.19,1832.46 5203.04,1832.46C5223.14,1832.46 5238.22,1827.85 5248.27,1818.64C5258.32,1809.01 5263.35,1797.7 5263.35,1784.72C5263.35,1774.25 5259.79,1765.66 5252.67,1758.96C5245.97,1751.84 5237.38,1745.98 5226.91,1741.37C5216.86,1736.34 5205.97,1731.74 5194.24,1727.55C5179.17,1722.1 5164.72,1715.82 5150.9,1708.7C5137.07,1701.16 5125.77,1691.95 5116.97,1681.06C5108.6,1669.75 5104.41,1655.72 5104.41,1638.97C5104.41,1614.26 5113.62,1593.74 5132.05,1577.4C5150.9,1560.65 5176.86,1552.28 5209.95,1552.28C5228.8,1552.28 5246.39,1555.62 5262.72,1562.33C5279.05,1568.61 5293.08,1576.78 5304.81,1586.83L5280.94,1616.35C5270.05,1608.82 5258.95,1602.95 5247.64,1598.76C5236.33,1594.58 5223.77,1592.48 5209.95,1592.48C5190.68,1592.48 5176.44,1596.88 5167.23,1605.67C5158.43,1614.47 5154.04,1624.73 5154.04,1636.46C5154.04,1645.67 5156.76,1653.42 5162.2,1659.7C5167.65,1665.56 5175.19,1670.8 5184.82,1675.41C5194.87,1680.01 5206.18,1684.41 5218.74,1688.6C5234.66,1694.46 5249.74,1701.16 5263.98,1708.7C5278.63,1715.82 5290.36,1725.25 5299.16,1736.97C5308.37,1748.28 5312.98,1763.15 5312.98,1781.58C5312.98,1798.33 5308.58,1813.62 5299.78,1827.44C5291.41,1840.84 5278.84,1851.73 5262.09,1860.1C5245.76,1868.48 5225.44,1872.67 5201.15,1872.67Z" style="fill-rule:nonzero;"/>
            </g>
            <g transform="matrix(1,0,0,1,-84.4955,0)">
                <path d="M5464.38,1872.67C5442.18,1872.67 5421.03,1868.9 5400.93,1861.36C5381.24,1853.4 5364.49,1842.51 5350.67,1828.69L5374.54,1798.54C5387.94,1809.43 5401.77,1817.8 5416.01,1823.67C5430.66,1829.53 5447.42,1832.46 5466.26,1832.46C5486.37,1832.46 5501.44,1827.85 5511.49,1818.64C5521.55,1809.01 5526.57,1797.7 5526.57,1784.72C5526.57,1774.25 5523.01,1765.66 5515.89,1758.96C5509.19,1751.84 5500.61,1745.98 5490.14,1741.37C5480.08,1736.34 5469.19,1731.74 5457.47,1727.55C5442.39,1722.1 5427.94,1715.82 5414.12,1708.7C5400.3,1701.16 5388.99,1691.95 5380.2,1681.06C5371.82,1669.75 5367.63,1655.72 5367.63,1638.97C5367.63,1614.26 5376.85,1593.74 5395.27,1577.4C5414.12,1560.65 5440.09,1552.28 5473.17,1552.28C5492.02,1552.28 5509.61,1555.62 5525.94,1562.33C5542.28,1568.61 5556.31,1576.78 5568.03,1586.83L5544.16,1616.35C5533.27,1608.82 5522.17,1602.95 5510.87,1598.76C5499.56,1594.58 5486.99,1592.48 5473.17,1592.48C5453.91,1592.48 5439.67,1596.88 5430.45,1605.67C5421.66,1614.47 5417.26,1624.73 5417.26,1636.46C5417.26,1645.67 5419.98,1653.42 5425.43,1659.7C5430.87,1665.56 5438.41,1670.8 5448.04,1675.41C5458.1,1680.01 5469.4,1684.41 5481.97,1688.6C5497.88,1694.46 5512.96,1701.16 5527.2,1708.7C5541.86,1715.82 5553.59,1725.25 5562.38,1736.97C5571.59,1748.28 5576.2,1763.15 5576.2,1781.58C5576.2,1798.33 5571.8,1813.62 5563.01,1827.44C5554.63,1840.84 5542.07,1851.73 5525.32,1860.1C5508.98,1868.48 5488.67,1872.67 5464.38,1872.67Z" style="fill-rule:nonzero;"/>
            </g>
            <g transform="matrix(1,0,0,1,-84.4955,0)">
                <path d="M5647.82,1865.13L5647.82,1559.81L5699.33,1559.81L5699.33,1865.13L5647.82,1865.13ZM5673.57,1496.99C5663.52,1496.99 5655.15,1493.85 5648.45,1487.57C5642.16,1481.29 5639.02,1473.12 5639.02,1463.07C5639.02,1453.02 5642.16,1444.85 5648.45,1438.57C5655.15,1432.29 5663.52,1429.14 5673.57,1429.14C5683.63,1429.14 5691.79,1432.29 5698.08,1438.57C5704.78,1444.85 5708.13,1453.02 5708.13,1463.07C5708.13,1473.12 5704.78,1481.29 5698.08,1487.57C5691.79,1493.85 5683.63,1496.99 5673.57,1496.99Z" style="fill-rule:nonzero;"/>
            </g>
            <g transform="matrix(1,0,0,1,-84.4955,0)">
                <path d="M5921.09,1872.67C5896.38,1872.67 5873.14,1866.38 5851.36,1853.82C5830,1841.26 5812.62,1823.04 5799.22,1799.17C5786.24,1775.29 5779.74,1746.61 5779.74,1713.1C5779.74,1678.76 5786.24,1649.65 5799.22,1625.78C5812.62,1601.9 5830,1583.69 5851.36,1571.12C5873.14,1558.56 5896.38,1552.28 5921.09,1552.28C5946.22,1552.28 5969.47,1558.56 5990.83,1571.12C6012.19,1583.69 6029.36,1601.9 6042.34,1625.78C6055.74,1649.65 6062.44,1678.76 6062.44,1713.1C6062.44,1746.61 6055.74,1775.29 6042.34,1799.17C6029.36,1823.04 6012.19,1841.26 5990.83,1853.82C5969.47,1866.38 5946.22,1872.67 5921.09,1872.67ZM5921.09,1829.95C5938.69,1829.95 5954.18,1825.13 5967.58,1815.5C5980.98,1805.45 5991.25,1791.63 5998.37,1774.04C6005.48,1756.45 6009.05,1736.13 6009.05,1713.1C6009.05,1689.65 6005.48,1669.12 5998.37,1651.53C5991.25,1633.53 5980.98,1619.7 5967.58,1610.07C5954.18,1600.02 5938.69,1594.99 5921.09,1594.99C5903.5,1594.99 5888.01,1600.02 5874.61,1610.07C5861.62,1619.7 5851.36,1633.53 5843.82,1651.53C5836.7,1669.12 5833.14,1689.65 5833.14,1713.1C5833.14,1736.13 5836.7,1756.45 5843.82,1774.04C5851.36,1791.63 5861.62,1805.45 5874.61,1815.5C5888.01,1825.13 5903.5,1829.95 5921.09,1829.95Z" style="fill-rule:nonzero;"/>
            </g>
            <g transform="matrix(1,0,0,1,-84.4955,0)">
                <path d="M6142.86,1865.13L6142.86,1559.81L6185.57,1559.81L6189.97,1603.79L6191.86,1603.79C6206.52,1589.13 6222.01,1576.99 6238.35,1567.35C6254.68,1557.3 6273.32,1552.28 6294.26,1552.28C6326.51,1552.28 6349.96,1562.54 6364.62,1583.06C6379.7,1603.16 6387.23,1632.69 6387.23,1671.64L6387.23,1865.13L6335.72,1865.13L6335.72,1678.55C6335.72,1649.65 6331.11,1628.92 6321.9,1616.35C6313.1,1603.37 6298.45,1596.88 6277.92,1596.88C6262.43,1596.88 6248.4,1600.86 6235.83,1608.82C6223.69,1616.77 6209.87,1628.5 6194.37,1644L6194.37,1865.13L6142.86,1865.13Z" style="fill-rule:nonzero;"/>
            </g>
            <g transform="matrix(1,0,0,1,-84.4955,0)">
                <path d="M6556.85,1872.67C6540.1,1872.67 6524.82,1869.32 6510.99,1862.62C6497.59,1855.5 6486.91,1845.65 6478.95,1833.09C6471,1820.11 6467.02,1804.4 6467.02,1785.97C6467.02,1751.63 6482.1,1725.66 6512.25,1708.07C6542.4,1690.48 6590.15,1678.13 6655.49,1671.01C6655.07,1658.44 6652.97,1646.3 6649.2,1634.57C6645.85,1622.85 6639.57,1613.42 6630.36,1606.3C6621.14,1599.18 6608.37,1595.62 6592.03,1595.62C6574.44,1595.62 6557.9,1598.97 6542.4,1605.67C6526.91,1611.96 6513.09,1619.08 6500.94,1627.03L6480.84,1591.85C6490.05,1585.57 6500.94,1579.5 6513.51,1573.63C6526.07,1567.35 6539.68,1562.33 6554.34,1558.56C6569,1554.37 6584.5,1552.28 6600.83,1552.28C6625.54,1552.28 6645.64,1557.51 6661.14,1567.98C6677.05,1578.03 6688.57,1592.48 6695.69,1611.33C6703.23,1630.17 6707,1652.37 6707,1677.92L6707,1865.13L6664.28,1865.13L6659.88,1828.69L6658,1828.69C6643.34,1840.84 6627.63,1851.31 6610.88,1860.1C6594.13,1868.48 6576.12,1872.67 6556.85,1872.67ZM6571.3,1829.95C6586.38,1829.95 6600.41,1826.6 6613.39,1819.9C6626.8,1813.2 6640.83,1803.35 6655.49,1790.37L6655.49,1708.07C6621.14,1712.26 6593.92,1717.71 6573.82,1724.41C6554.13,1730.69 6539.89,1738.65 6531.1,1748.28C6522.3,1757.91 6517.9,1769.43 6517.9,1782.83C6517.9,1799.59 6523.14,1811.73 6533.61,1819.27C6544.08,1826.39 6556.65,1829.95 6571.3,1829.95Z" style="fill-rule:nonzero;"/>
            </g>
            <g transform="matrix(1,0,0,1,-84.4955,0)">
                <path d="M6803.12,1865.13L6803.12,1559.81L6854.63,1559.81L6854.63,1865.13L6803.12,1865.13ZM6828.87,1496.99C6818.82,1496.99 6810.45,1493.85 6803.74,1487.57C6797.46,1481.29 6794.32,1473.12 6794.32,1463.07C6794.32,1453.02 6797.46,1444.85 6803.74,1438.57C6810.45,1432.29 6818.82,1429.14 6828.87,1429.14C6838.93,1429.14 6847.09,1432.29 6853.37,1438.57C6860.07,1444.85 6863.43,1453.02 6863.43,1463.07C6863.43,1473.12 6860.07,1481.29 6853.37,1487.57C6847.09,1493.85 6838.93,1496.99 6828.87,1496.99Z" style="fill-rule:nonzero;"/>
            </g>
            <g transform="matrix(1,0,0,1,-84.4955,0)">
                <path d="M7037.44,1872.67C7015.25,1872.67 6994.1,1868.9 6973.99,1861.36C6954.31,1853.4 6937.56,1842.51 6923.74,1828.69L6947.61,1798.54C6961.01,1809.43 6974.83,1817.8 6989.07,1823.67C7003.73,1829.53 7020.48,1832.46 7039.33,1832.46C7059.43,1832.46 7074.51,1827.85 7084.56,1818.64C7094.61,1809.01 7099.64,1797.7 7099.64,1784.72C7099.64,1774.25 7096.08,1765.66 7088.96,1758.96C7082.26,1751.84 7073.67,1745.98 7063.2,1741.37C7053.15,1736.34 7042.26,1731.74 7030.53,1727.55C7015.45,1722.1 7001.01,1715.82 6987.19,1708.7C6973.36,1701.16 6962.06,1691.95 6953.26,1681.06C6944.89,1669.75 6940.7,1655.72 6940.7,1638.97C6940.7,1614.26 6949.91,1593.74 6968.34,1577.4C6987.19,1560.65 7013.15,1552.28 7046.24,1552.28C7065.09,1552.28 7082.68,1555.62 7099.01,1562.33C7115.34,1568.61 7129.37,1576.78 7141.1,1586.83L7117.23,1616.35C7106.34,1608.82 7095.24,1602.95 7083.93,1598.76C7072.62,1594.58 7060.06,1592.48 7046.24,1592.48C7026.97,1592.48 7012.73,1596.88 7003.52,1605.67C6994.72,1614.47 6990.33,1624.73 6990.33,1636.46C6990.33,1645.67 6993.05,1653.42 6998.49,1659.7C7003.94,1665.56 7011.48,1670.8 7021.11,1675.41C7031.16,1680.01 7042.47,1684.41 7055.03,1688.6C7070.95,1694.46 7086.03,1701.16 7100.27,1708.7C7114.92,1715.82 7126.65,1725.25 7135.44,1736.97C7144.66,1748.28 7149.27,1763.15 7149.27,1781.58C7149.27,1798.33 7144.87,1813.62 7136.07,1827.44C7127.7,1840.84 7115.13,1851.73 7098.38,1860.1C7082.05,1868.48 7061.73,1872.67 7037.44,1872.67Z" style="fill-rule:nonzero;"/>
            </g>
            <g transform="matrix(1,0,0,1,-84.4955,0)">
                <path d="M7355.32,1865.13L7355.32,1511.44C7355.32,1490.92 7358.46,1473.12 7364.75,1458.04C7371.03,1442.55 7380.66,1430.82 7393.64,1422.86C7407.05,1414.49 7424.01,1410.3 7444.53,1410.3C7453.74,1410.3 7462.75,1411.34 7471.54,1413.44C7480.76,1415.11 7488.72,1417.42 7495.42,1420.35L7484.11,1458.04C7471.96,1454.27 7460.44,1452.39 7449.56,1452.39C7435.32,1452.39 7424.64,1457.41 7417.52,1467.46C7410.4,1477.1 7406.84,1491.76 7406.84,1511.44L7406.84,1865.13L7355.32,1865.13ZM7310.09,1601.9L7310.09,1562.95L7357.84,1559.81L7471.54,1559.81L7471.54,1601.9L7310.09,1601.9Z" style="fill-rule:nonzero;"/>
            </g>
            <g transform="matrix(1,0,0,1,-84.4955,0)">
                <path d="M7642.42,1872.67C7617.71,1872.67 7594.47,1866.38 7572.69,1853.82C7551.33,1841.26 7533.95,1823.04 7520.55,1799.17C7507.56,1775.29 7501.07,1746.61 7501.07,1713.1C7501.07,1678.76 7507.56,1649.65 7520.55,1625.78C7533.95,1601.9 7551.33,1583.69 7572.69,1571.12C7594.47,1558.56 7617.71,1552.28 7642.42,1552.28C7667.55,1552.28 7690.79,1558.56 7712.15,1571.12C7733.51,1583.69 7750.68,1601.9 7763.67,1625.78C7777.07,1649.65 7783.77,1678.76 7783.77,1713.1C7783.77,1746.61 7777.07,1775.29 7763.67,1799.17C7750.68,1823.04 7733.51,1841.26 7712.15,1853.82C7690.79,1866.38 7667.55,1872.67 7642.42,1872.67ZM7642.42,1829.95C7660.01,1829.95 7675.51,1825.13 7688.91,1815.5C7702.31,1805.45 7712.57,1791.63 7719.69,1774.04C7726.81,1756.45 7730.37,1736.13 7730.37,1713.1C7730.37,1689.65 7726.81,1669.12 7719.69,1651.53C7712.57,1633.53 7702.31,1619.7 7688.91,1610.07C7675.51,1600.02 7660.01,1594.99 7642.42,1594.99C7624.83,1594.99 7609.33,1600.02 7595.93,1610.07C7582.95,1619.7 7572.69,1633.53 7565.15,1651.53C7558.03,1669.12 7554.47,1689.65 7554.47,1713.1C7554.47,1736.13 7558.03,1756.45 7565.15,1774.04C7572.69,1791.63 7582.95,1805.45 7595.93,1815.5C7609.33,1825.13 7624.83,1829.95 7642.42,1829.95Z" style="fill-rule:nonzero;"/>
            </g>
            <g transform="matrix(1,0,0,1,-84.4955,0)">
                <path d="M7864.18,1865.13L7864.18,1559.81L7906.9,1559.81L7911.3,1615.1L7913.18,1615.1C7923.23,1595.83 7935.8,1580.55 7950.88,1569.24C7965.95,1557.93 7982.29,1552.28 7999.88,1552.28C8006.58,1552.28 8012.44,1552.69 8017.47,1553.53C8022.49,1554.37 8027.52,1556.04 8032.55,1558.56L8021.24,1602.53C8016.63,1601.28 8012.23,1600.44 8008.04,1600.02C8004.28,1599.18 7999.25,1598.76 7992.97,1598.76C7979.98,1598.76 7966.37,1604 7952.13,1614.47C7938.31,1624.94 7926.17,1643.16 7915.7,1669.12L7915.7,1865.13L7864.18,1865.13Z" style="fill-rule:nonzero;"/>
            </g>
            <g transform="matrix(1,0,0,1,-84.4955,0)">
                <path d="M8082.17,1865.13L8082.17,1559.81L8124.89,1559.81L8129.29,1603.79L8131.18,1603.79C8144.58,1589.55 8159.03,1577.4 8174.52,1567.35C8190.44,1557.3 8207.61,1552.28 8226.04,1552.28C8249.49,1552.28 8267.71,1557.51 8280.69,1567.98C8294.09,1578.45 8303.94,1592.69 8310.22,1610.7C8326.13,1593.11 8342.26,1579.08 8358.59,1568.61C8374.92,1557.72 8392.31,1552.28 8410.73,1552.28C8442.56,1552.28 8466.02,1562.54 8481.09,1583.06C8496.17,1603.16 8503.71,1632.69 8503.71,1671.64L8503.71,1865.13L8452.2,1865.13L8452.2,1678.55C8452.2,1649.65 8447.59,1628.92 8438.38,1616.35C8429.16,1603.37 8414.92,1596.88 8395.66,1596.88C8383.51,1596.88 8371.16,1600.86 8358.59,1608.82C8346.45,1616.35 8333.25,1628.08 8319.01,1644L8319.01,1865.13L8267.5,1865.13L8267.5,1678.55C8267.5,1649.65 8262.89,1628.92 8253.68,1616.35C8244.47,1603.37 8230.02,1596.88 8210.33,1596.88C8187.3,1596.88 8161.75,1612.58 8133.69,1644L8133.69,1865.13L8082.17,1865.13Z" style="fill-rule:nonzero;"/>
            </g>
            <g transform="matrix(1,0,0,1,-84.4955,0)">
                <path d="M8673.33,1872.67C8656.58,1872.67 8641.29,1869.32 8627.47,1862.62C8614.07,1855.5 8603.39,1845.65 8595.43,1833.09C8587.47,1820.11 8583.49,1804.4 8583.49,1785.97C8583.49,1751.63 8598.57,1725.66 8628.73,1708.07C8658.88,1690.48 8706.63,1678.13 8771.96,1671.01C8771.54,1658.44 8769.45,1646.3 8765.68,1634.57C8762.33,1622.85 8756.05,1613.42 8746.83,1606.3C8737.62,1599.18 8724.84,1595.62 8708.51,1595.62C8690.92,1595.62 8674.38,1598.97 8658.88,1605.67C8643.39,1611.96 8629.56,1619.08 8617.42,1627.03L8597.32,1591.85C8606.53,1585.57 8617.42,1579.5 8629.98,1573.63C8642.55,1567.35 8656.16,1562.33 8670.82,1558.56C8685.48,1554.37 8700.97,1552.28 8717.31,1552.28C8742.02,1552.28 8762.12,1557.51 8777.61,1567.98C8793.53,1578.03 8805.05,1592.48 8812.17,1611.33C8819.71,1630.17 8823.48,1652.37 8823.48,1677.92L8823.48,1865.13L8780.76,1865.13L8776.36,1828.69L8774.47,1828.69C8759.82,1840.84 8744.11,1851.31 8727.36,1860.1C8710.6,1868.48 8692.6,1872.67 8673.33,1872.67ZM8687.78,1829.95C8702.86,1829.95 8716.89,1826.6 8729.87,1819.9C8743.27,1813.2 8757.3,1803.35 8771.96,1790.37L8771.96,1708.07C8737.62,1712.26 8710.4,1717.71 8690.29,1724.41C8670.61,1730.69 8656.37,1738.65 8647.57,1748.28C8638.78,1757.91 8634.38,1769.43 8634.38,1782.83C8634.38,1799.59 8639.62,1811.73 8650.09,1819.27C8660.56,1826.39 8673.12,1829.95 8687.78,1829.95Z" style="fill-rule:nonzero;"/>
            </g>
            <g transform="matrix(1,0,0,1,-84.4955,0)">
                <path d="M9023.88,1872.67C8985.35,1872.67 8954.56,1858.85 8931.53,1831.2C8908.91,1803.14 8897.6,1763.78 8897.6,1713.1C8897.6,1680.01 8903.68,1651.53 8915.82,1627.66C8928.39,1603.37 8944.72,1584.73 8964.83,1571.75C8984.93,1558.77 9006.71,1552.28 9030.16,1552.28C9048.17,1552.28 9063.45,1555.42 9076.02,1561.7C9089,1567.56 9102.2,1576.15 9115.6,1587.45L9113.09,1535.31L9113.09,1417.84L9165.23,1417.84L9165.23,1865.13L9122.51,1865.13L9118.11,1829.32L9116.23,1829.32C9104.5,1841.05 9090.68,1851.31 9074.76,1860.1C9058.85,1868.48 9041.89,1872.67 9023.88,1872.67ZM9035.18,1829.32C9049.43,1829.32 9062.83,1825.76 9075.39,1818.64C9087.96,1811.52 9100.52,1801.05 9113.09,1787.23L9113.09,1627.66C9100.52,1615.93 9088.17,1607.77 9076.02,1603.16C9063.87,1598.13 9051.52,1595.62 9038.95,1595.62C9022.62,1595.62 9007.75,1600.65 8994.35,1610.7C8981.37,1620.33 8970.9,1633.94 8962.94,1651.53C8954.98,1668.7 8951,1689.02 8951,1712.47C8951,1748.91 8958.33,1777.6 8972.99,1798.54C8987.65,1819.06 9008.38,1829.32 9035.18,1829.32Z" style="fill-rule:nonzero;"/>
            </g>
            <g transform="matrix(1,0,0,1,-84.4955,0)">
                <path d="M9386.99,1872.67C9362.28,1872.67 9339.03,1866.38 9317.26,1853.82C9295.9,1841.26 9278.52,1823.04 9265.11,1799.17C9252.13,1775.29 9245.64,1746.61 9245.64,1713.1C9245.64,1678.76 9252.13,1649.65 9265.11,1625.78C9278.52,1601.9 9295.9,1583.69 9317.26,1571.12C9339.03,1558.56 9362.28,1552.28 9386.99,1552.28C9412.12,1552.28 9435.36,1558.56 9456.72,1571.12C9478.08,1583.69 9495.25,1601.9 9508.24,1625.78C9521.64,1649.65 9528.34,1678.76 9528.34,1713.1C9528.34,1746.61 9521.64,1775.29 9508.24,1799.17C9495.25,1823.04 9478.08,1841.26 9456.72,1853.82C9435.36,1866.38 9412.12,1872.67 9386.99,1872.67ZM9386.99,1829.95C9404.58,1829.95 9420.08,1825.13 9433.48,1815.5C9446.88,1805.45 9457.14,1791.63 9464.26,1774.04C9471.38,1756.45 9474.94,1736.13 9474.94,1713.1C9474.94,1689.65 9471.38,1669.12 9464.26,1651.53C9457.14,1633.53 9446.88,1619.7 9433.48,1610.07C9420.08,1600.02 9404.58,1594.99 9386.99,1594.99C9369.4,1594.99 9353.9,1600.02 9340.5,1610.07C9327.52,1619.7 9317.26,1633.53 9309.72,1651.53C9302.6,1669.12 9299.04,1689.65 9299.04,1713.1C9299.04,1736.13 9302.6,1756.45 9309.72,1774.04C9317.26,1791.63 9327.52,1805.45 9340.5,1815.5C9353.9,1825.13 9369.4,1829.95 9386.99,1829.95Z" style="fill-rule:nonzero;"/>
            </g>
            <g transform="matrix(1,0,0,1,-84.4955,0)">
                <path d="M9687.28,1872.67C9665.08,1872.67 9643.93,1868.9 9623.83,1861.36C9604.14,1853.4 9587.39,1842.51 9573.57,1828.69L9597.44,1798.54C9610.84,1809.43 9624.67,1817.8 9638.91,1823.67C9653.56,1829.53 9670.32,1832.46 9689.16,1832.46C9709.27,1832.46 9724.34,1827.85 9734.4,1818.64C9744.45,1809.01 9749.47,1797.7 9749.47,1784.72C9749.47,1774.25 9745.91,1765.66 9738.79,1758.96C9732.09,1751.84 9723.51,1745.98 9713.04,1741.37C9702.98,1736.34 9692.09,1731.74 9680.37,1727.55C9665.29,1722.1 9650.84,1715.82 9637.02,1708.7C9623.2,1701.16 9611.89,1691.95 9603.1,1681.06C9594.72,1669.75 9590.53,1655.72 9590.53,1638.97C9590.53,1614.26 9599.75,1593.74 9618.17,1577.4C9637.02,1560.65 9662.99,1552.28 9696.07,1552.28C9714.92,1552.28 9732.51,1555.62 9748.84,1562.33C9765.18,1568.61 9779.21,1576.78 9790.93,1586.83L9767.06,1616.35C9756.17,1608.82 9745.08,1602.95 9733.77,1598.76C9722.46,1594.58 9709.89,1592.48 9696.07,1592.48C9676.81,1592.48 9662.57,1596.88 9653.35,1605.67C9644.56,1614.47 9640.16,1624.73 9640.16,1636.46C9640.16,1645.67 9642.88,1653.42 9648.33,1659.7C9653.77,1665.56 9661.31,1670.8 9670.94,1675.41C9681,1680.01 9692.3,1684.41 9704.87,1688.6C9720.78,1694.46 9735.86,1701.16 9750.1,1708.7C9764.76,1715.82 9776.49,1725.25 9785.28,1736.97C9794.5,1748.28 9799.1,1763.15 9799.1,1781.58C9799.1,1798.33 9794.7,1813.62 9785.91,1827.44C9777.53,1840.84 9764.97,1851.73 9748.22,1860.1C9731.88,1868.48 9711.57,1872.67 9687.28,1872.67Z" style="fill-rule:nonzero;"/>
            </g>
            <g transform="matrix(1,0,0,1,-84.4955,0)">
                <path d="M9892.08,1740.74L9885.17,1503.27L9883.91,1444.22L9936.05,1444.22L9934.8,1503.27L9927.89,1740.74L9892.08,1740.74ZM9910.3,1872.67C9900.25,1872.67 9891.45,1869.11 9883.91,1861.99C9876.37,1854.45 9872.6,1845.03 9872.6,1833.72C9872.6,1821.57 9876.37,1811.94 9883.91,1804.82C9891.45,1797.28 9900.25,1793.51 9910.3,1793.51C9920.77,1793.51 9929.56,1797.28 9936.68,1804.82C9943.8,1811.94 9947.36,1821.57 9947.36,1833.72C9947.36,1845.03 9943.8,1854.45 9936.68,1861.99C9929.56,1869.11 9920.77,1872.67 9910.3,1872.67Z" style="fill-rule:nonzero;"/>
            </g>
        </g>
        <g transform="matrix(2.94579,0,0,2.94579,-1192.26,-3990.88)">
            <path d="M715.167,1834.34L680.09,1834.34C681.961,1826.39 683.364,1818.43 684.767,1810.49C678.687,1802.53 669.333,1797.39 657.173,1795.05C654.834,1808.15 652.028,1821.71 649.69,1834.34L620.692,1834.34C613.677,1841.35 608.065,1853.05 609.468,1863.8C621.16,1863.8 632.385,1863.8 644.077,1864.27C642.674,1872.22 640.803,1880.17 639.4,1887.65C645.013,1895.61 655.77,1903.09 666.527,1904.02C668.865,1890.93 671.671,1877.37 674.01,1864.27L704.878,1864.27C711.426,1856.79 715.167,1846.5 715.167,1834.34Z" style="fill:rgb(4,68,136);fill-rule:nonzero;"/>
        </g>
    </g>
</svg>
