<?xml version="1.0" encoding="UTF-8" standalone="no"?>
<!DOCTYPE svg PUBLIC "-//W3C//DTD SVG 1.1//EN" "http://www.w3.org/Graphics/SVG/1.1/DTD/svg11.dtd">
<svg width="100%" height="100%" viewBox="0 0 1222 119" version="1.1" xmlns="http://www.w3.org/2000/svg" xmlns:xlink="http://www.w3.org/1999/xlink" xml:space="preserve" xmlns:serif="http://www.serif.com/" style="fill-rule:evenodd;clip-rule:evenodd;stroke-linejoin:round;stroke-miterlimit:2;">
    <g transform="matrix(1,0,0,1,-1183.44,-424.699)">
        <g transform="matrix(1.27372,0,0,1.27372,-207.295,-885.288)">
            <g transform="matrix(0.194916,0,0,0.194916,1014.78,947.256)">
                <g transform="matrix(709.386,0,0,709.386,343,887)">
                    <path d="M0.074,-0L0.074,-0.651L0.489,-0.651L0.489,-0.517L0.234,-0.517L0.234,-0.401L0.451,-0.401L0.451,-0.267L0.234,-0.267L0.234,-0.134L0.499,-0.134L0.499,-0L0.074,-0Z" style="fill:rgb(27,53,86);fill-rule:nonzero;"/>
                </g>
                <g transform="matrix(709.386,0,0,709.386,805.519,887)">
                    <path d="M0.369,0.012C0.308,0.012 0.253,-0 0.204,-0.025C0.155,-0.05 0.117,-0.087 0.088,-0.136C0.059,-0.186 0.045,-0.248 0.045,-0.321C0.045,-0.376 0.053,-0.424 0.07,-0.466C0.087,-0.509 0.111,-0.545 0.14,-0.574C0.17,-0.603 0.204,-0.625 0.243,-0.64C0.282,-0.655 0.323,-0.663 0.366,-0.663C0.413,-0.663 0.454,-0.655 0.489,-0.638C0.524,-0.621 0.553,-0.601 0.575,-0.578L0.491,-0.481C0.475,-0.496 0.458,-0.507 0.439,-0.514C0.421,-0.521 0.398,-0.525 0.371,-0.525C0.34,-0.525 0.312,-0.517 0.287,-0.501C0.262,-0.486 0.243,-0.463 0.229,-0.433C0.216,-0.404 0.209,-0.368 0.209,-0.327C0.209,-0.284 0.215,-0.248 0.228,-0.218C0.241,-0.188 0.26,-0.165 0.286,-0.149C0.313,-0.134 0.346,-0.126 0.385,-0.126C0.396,-0.126 0.407,-0.127 0.418,-0.13C0.429,-0.133 0.438,-0.136 0.445,-0.141L0.445,-0.243L0.343,-0.243L0.343,-0.373L0.586,-0.373L0.586,-0.067C0.564,-0.045 0.534,-0.026 0.495,-0.011C0.456,0.004 0.414,0.012 0.369,0.012Z" style="fill:rgb(27,53,86);fill-rule:nonzero;"/>
                </g>
                <g transform="matrix(709.386,0,0,709.386,1331.88,887)">
                    <path d="M0.074,-0L0.074,-0.651L0.315,-0.651C0.361,-0.651 0.403,-0.645 0.442,-0.632C0.481,-0.62 0.512,-0.599 0.535,-0.569C0.559,-0.539 0.571,-0.497 0.571,-0.444C0.571,-0.393 0.559,-0.352 0.535,-0.32C0.512,-0.288 0.481,-0.264 0.442,-0.249C0.403,-0.234 0.361,-0.226 0.315,-0.226L0.234,-0.226L0.234,-0L0.074,-0ZM0.234,-0.353L0.303,-0.353C0.339,-0.353 0.366,-0.361 0.385,-0.376C0.404,-0.391 0.414,-0.414 0.414,-0.444C0.414,-0.475 0.404,-0.496 0.385,-0.507C0.366,-0.518 0.339,-0.524 0.303,-0.524L0.234,-0.524L0.234,-0.353ZM0.426,-0L0.286,-0.268L0.395,-0.372L0.604,-0L0.426,-0Z" style="fill:rgb(27,53,86);fill-rule:nonzero;"/>
                </g>
                <g transform="matrix(709.386,0,0,709.386,1844.06,887)">
                    <path d="M0.074,-0L0.074,-0.651L0.489,-0.651L0.489,-0.517L0.234,-0.517L0.234,-0.401L0.451,-0.401L0.451,-0.267L0.234,-0.267L0.234,-0.134L0.499,-0.134L0.499,-0L0.074,-0Z" style="fill:rgb(27,53,86);fill-rule:nonzero;"/>
                </g>
                <g transform="matrix(709.386,0,0,709.386,2306.58,887)">
                    <path d="M0.277,0.012C0.234,0.012 0.191,0.004 0.148,-0.011C0.106,-0.026 0.068,-0.05 0.033,-0.083L0.117,-0.186C0.14,-0.167 0.167,-0.152 0.196,-0.141C0.225,-0.131 0.254,-0.126 0.281,-0.126C0.309,-0.126 0.33,-0.131 0.343,-0.14C0.357,-0.149 0.364,-0.163 0.364,-0.18C0.364,-0.193 0.36,-0.203 0.352,-0.21C0.345,-0.217 0.334,-0.224 0.321,-0.23C0.308,-0.236 0.292,-0.243 0.273,-0.25L0.19,-0.285C0.167,-0.294 0.145,-0.307 0.125,-0.323C0.105,-0.339 0.089,-0.359 0.076,-0.382C0.064,-0.406 0.058,-0.434 0.058,-0.465C0.058,-0.502 0.068,-0.535 0.088,-0.564C0.109,-0.594 0.137,-0.618 0.172,-0.636C0.208,-0.654 0.249,-0.663 0.296,-0.663C0.335,-0.663 0.373,-0.656 0.41,-0.642C0.447,-0.628 0.48,-0.608 0.508,-0.581L0.425,-0.477C0.403,-0.493 0.381,-0.505 0.359,-0.513C0.338,-0.521 0.317,-0.525 0.296,-0.525C0.273,-0.525 0.254,-0.521 0.24,-0.512C0.227,-0.503 0.22,-0.491 0.22,-0.474C0.22,-0.463 0.224,-0.453 0.232,-0.445C0.24,-0.437 0.251,-0.43 0.266,-0.424C0.281,-0.418 0.299,-0.411 0.318,-0.403L0.399,-0.371C0.426,-0.36 0.448,-0.347 0.467,-0.33C0.486,-0.314 0.501,-0.295 0.511,-0.272C0.522,-0.25 0.527,-0.224 0.527,-0.193C0.527,-0.156 0.517,-0.122 0.498,-0.091C0.479,-0.06 0.45,-0.035 0.413,-0.016C0.376,0.003 0.33,0.012 0.277,0.012Z" style="fill:rgb(27,53,86);fill-rule:nonzero;"/>
                </g>
                <g transform="matrix(709.386,0,0,709.386,2761.3,887)">
                    <path d="M0.277,0.012C0.234,0.012 0.191,0.004 0.148,-0.011C0.106,-0.026 0.068,-0.05 0.033,-0.083L0.117,-0.186C0.14,-0.167 0.167,-0.152 0.196,-0.141C0.225,-0.131 0.254,-0.126 0.281,-0.126C0.309,-0.126 0.33,-0.131 0.343,-0.14C0.357,-0.149 0.364,-0.163 0.364,-0.18C0.364,-0.193 0.36,-0.203 0.352,-0.21C0.345,-0.217 0.334,-0.224 0.321,-0.23C0.308,-0.236 0.292,-0.243 0.273,-0.25L0.19,-0.285C0.167,-0.294 0.145,-0.307 0.125,-0.323C0.105,-0.339 0.089,-0.359 0.076,-0.382C0.064,-0.406 0.058,-0.434 0.058,-0.465C0.058,-0.502 0.068,-0.535 0.088,-0.564C0.109,-0.594 0.137,-0.618 0.172,-0.636C0.208,-0.654 0.249,-0.663 0.296,-0.663C0.335,-0.663 0.373,-0.656 0.41,-0.642C0.447,-0.628 0.48,-0.608 0.508,-0.581L0.425,-0.477C0.403,-0.493 0.381,-0.505 0.359,-0.513C0.338,-0.521 0.317,-0.525 0.296,-0.525C0.273,-0.525 0.254,-0.521 0.24,-0.512C0.227,-0.503 0.22,-0.491 0.22,-0.474C0.22,-0.463 0.224,-0.453 0.232,-0.445C0.24,-0.437 0.251,-0.43 0.266,-0.424C0.281,-0.418 0.299,-0.411 0.318,-0.403L0.399,-0.371C0.426,-0.36 0.448,-0.347 0.467,-0.33C0.486,-0.314 0.501,-0.295 0.511,-0.272C0.522,-0.25 0.527,-0.224 0.527,-0.193C0.527,-0.156 0.517,-0.122 0.498,-0.091C0.479,-0.06 0.45,-0.035 0.413,-0.016C0.376,0.003 0.33,0.012 0.277,0.012Z" style="fill:rgb(27,53,86);fill-rule:nonzero;"/>
                </g>
                <g transform="matrix(709.386,0,0,709.386,3229.49,887)">
                    <path d="M0.344,0.012C0.285,0.012 0.232,-0.001 0.187,-0.028C0.142,-0.055 0.107,-0.094 0.082,-0.145C0.057,-0.196 0.045,-0.257 0.045,-0.328C0.045,-0.399 0.057,-0.46 0.082,-0.509C0.107,-0.559 0.142,-0.597 0.187,-0.623C0.232,-0.65 0.285,-0.663 0.344,-0.663C0.403,-0.663 0.455,-0.65 0.5,-0.623C0.545,-0.597 0.58,-0.559 0.605,-0.509C0.63,-0.46 0.643,-0.399 0.643,-0.328C0.643,-0.257 0.63,-0.196 0.605,-0.145C0.58,-0.094 0.545,-0.055 0.5,-0.028C0.455,-0.001 0.403,0.012 0.344,0.012ZM0.344,-0.126C0.372,-0.126 0.396,-0.134 0.416,-0.15C0.437,-0.167 0.452,-0.19 0.463,-0.22C0.474,-0.251 0.479,-0.287 0.479,-0.328C0.479,-0.37 0.474,-0.405 0.463,-0.434C0.452,-0.463 0.437,-0.486 0.416,-0.501C0.396,-0.517 0.372,-0.525 0.344,-0.525C0.316,-0.525 0.292,-0.517 0.271,-0.501C0.251,-0.486 0.236,-0.463 0.225,-0.434C0.214,-0.405 0.209,-0.37 0.209,-0.328C0.209,-0.287 0.214,-0.251 0.225,-0.22C0.236,-0.19 0.251,-0.167 0.271,-0.15C0.292,-0.134 0.316,-0.126 0.344,-0.126Z" style="fill:rgb(27,53,86);fill-rule:nonzero;"/>
                </g>
            </g>
        </g>
        <g transform="matrix(1.27372,0,0,1.27372,-207.295,-885.288)">
            <g transform="matrix(1,0,0,1,-135.837,15.1947)">
                <g transform="matrix(0.746289,0,0,0.746289,1947.15,1016.18)">
                    <path d="M0,117.376L13.353,71.153L69.433,71.148C71.739,71.12 73.708,69.574 74.36,67.472L80.786,46.226L22.315,46.313C22.315,46.313 21.185,46.175 20.685,47.074C20.528,47.362 19.763,48.732 19.763,48.732C19.763,48.732 26.146,26.754 35.333,26.754L82.753,26.754C85.067,26.754 87.024,25.235 87.7,23.148L95.626,-3.706L37.733,-3.795C18.96,-2.432 5.255,13.157 -3.385,42.964L-26.385,121.171L-5.012,121.171C-2.633,121.171 -0.617,119.559 0,117.376" style="fill:rgb(69,183,229);fill-rule:nonzero;"/>
                </g>
                <g transform="matrix(0.746289,0,0,0.746289,2049.72,1049.55)">
                    <path d="M0,28.035L-20.056,28.035C-20.056,28.035 -20.936,28.07 -21.165,28.07C-22.056,28.07 -23.056,29.68 -23.056,29.68L-5.72,-9.962L2.748,25.795C2.768,25.889 3.187,28.035 0,28.035M36.773,73.434L7.647,-48.421C6.703,-48.411 -7.748,-48.421 -9.586,-48.421C-13.234,-48.421 -14.533,-46.692 -15.318,-45.121L-68.78,76.456L-47.821,76.456C-43.665,76.456 -42.949,74.633 -42.312,73.223L-30.082,45.598L2.933,45.455C6.871,45.455 7.963,48.184 7.963,48.184L14.642,76.456L32.273,76.456C32.273,76.456 37.501,76.456 36.773,73.434" style="fill:rgb(69,183,229);fill-rule:nonzero;"/>
                </g>
                <g transform="matrix(0.746289,0,0,0.746289,2170.99,1106.61)">
                    <path d="M0,-124.877C-5.266,-124.877 -8.051,-124.877 -11.184,-119.077L-51.64,-44.433C-51.64,-44.433 -52.172,-43.488 -52.323,-43.184C-53.132,-41.564 -53.035,-39.334 -53.035,-39.334L-67.016,-124.877L-87.344,-124.877C-92.836,-124.877 -96.846,-124.877 -97.914,-118.404L-120.419,0C-117.789,-0.092 -106.592,0 -106.592,0C-97.118,0 -97.118,0 -95.945,-6.388L-82.649,-76.666L-70.47,-1.695C-62.729,-1.681 -69.767,-1.681 -62.729,-1.681L-58.862,-1.681C-51.289,-1.695 -51.289,-1.695 -48.501,-6.726L-10.987,-76.162L-25.456,0L-10.926,0C-2.293,0 -2.293,0 -0.943,-6.473L21.574,-124.877L0,-124.877Z" style="fill:rgb(69,183,229);fill-rule:nonzero;"/>
                </g>
            </g>
        </g>
    </g>
</svg>
