<?xml version="1.0" encoding="UTF-8" standalone="no"?>
<!DOCTYPE svg PUBLIC "-//W3C//DTD SVG 1.1//EN" "http://www.w3.org/Graphics/SVG/1.1/DTD/svg11.dtd">
<svg width="100%" height="100%" viewBox="0 0 1571 981" version="1.1" xmlns="http://www.w3.org/2000/svg" xmlns:xlink="http://www.w3.org/1999/xlink" xml:space="preserve" xmlns:serif="http://www.serif.com/" style="fill-rule:evenodd;clip-rule:evenodd;stroke-linejoin:round;stroke-miterlimit:2;">
    <g transform="matrix(1,0,0,1,-5226.55,-2323.05)">
        <g transform="matrix(1,0,0,1,6902,4080)">
            <g transform="matrix(1,0,0,1,-1675.45,-902.472)">
                <path d="M9.614,-0.033L83.532,-0.033L83.532,-154.39L92.615,-154.39C147.428,-154.39 175.081,-182.569 175.081,-237.372L175.081,-284.246C175.081,-339.049 147.428,-367.228 92.615,-367.228L9.614,-367.228L9.614,-0.033ZM83.532,-215.001L83.532,-306.617L86.203,-306.617C98.492,-306.617 101.163,-302.356 101.163,-284.779L101.163,-237.372C101.163,-219.795 98.492,-215.001 86.203,-215.001L83.532,-215.001Z" style="fill:rgb(251,226,0);"/>
                <path d="M265.603,5.289C317.755,5.289 347.535,-26.612 347.535,-78.742L347.535,-127.178C347.535,-164.968 333.708,-188.92 302.333,-210.211L271.48,-230.969C261.329,-237.356 257.056,-245.872 257.056,-256.518L257.056,-298.097C257.056,-307.148 258.658,-310.875 264.535,-310.875C269.35,-310.875 271.487,-307.148 271.487,-298.097L271.487,-245.407L343.809,-245.407L343.809,-290.625C343.809,-341.164 312.966,-372.551 262.401,-372.551C213.443,-372.551 183.132,-341.147 183.132,-290.582L183.132,-254.388C183.132,-216.598 196.958,-192.646 228.864,-171.355L259.193,-150.597C269.343,-144.21 273.616,-135.694 273.616,-125.049L273.616,-71.822C273.616,-60.645 271.48,-56.387 265.069,-56.387C258.124,-56.387 255.453,-60.645 255.453,-71.822L255.453,-137.291L183.132,-137.291L183.132,-78.768C183.132,-26.612 213.975,5.289 265.603,5.289Z" style="fill:rgb(251,226,0);"/>
                <rect x="359.843" y="-367.228" width="73.918" height="367.195" style="fill:rgb(251,226,0);"/>
                <path d="M530.101,5.289C581.227,5.289 612.069,-26.08 612.069,-76.618L612.069,-153.816L539.748,-153.816L539.748,-70.229C539.748,-60.113 537.61,-56.387 532.264,-56.387C525.843,-56.387 524.246,-60.113 524.246,-70.229L524.246,-297.032C524.246,-307.148 525.843,-310.875 532.23,-310.875C537.61,-310.875 539.748,-307.148 539.748,-297.032L539.748,-228.906L612.069,-228.906L612.069,-290.621C612.069,-341.181 581.227,-372.551 530.126,-372.551C480.64,-372.551 450.328,-341.181 450.328,-290.643L450.328,-76.618C450.328,-26.08 480.64,5.289 530.101,5.289Z" style="fill:rgb(251,226,0);"/>
                <path d="M705.782,5.289C756.873,5.289 788.248,-27.144 788.248,-79.812L788.248,-287.449C788.248,-340.118 756.873,-372.551 705.782,-372.551C655.22,-372.551 622.781,-340.118 622.781,-287.449L622.781,-79.812C622.781,-27.144 655.22,5.289 705.782,5.289ZM705.782,-56.387C698.836,-56.387 696.699,-60.646 696.699,-71.826L696.699,-295.435C696.699,-306.615 698.836,-310.875 705.782,-310.875C712.193,-310.875 714.33,-306.615 714.33,-295.435L714.33,-71.826C714.33,-60.646 712.193,-56.387 705.782,-56.387Z" style="fill:rgb(251,226,0);"/>
                <path d="M804.815,-0.033L942.072,-0.033L942.072,-60.645L878.733,-60.645L878.733,-367.228L804.815,-367.228L804.815,-0.033Z" style="fill:rgb(251,226,0);"/>
                <path d="M1031.53,5.289C1082.62,5.289 1113.99,-27.144 1113.99,-79.812L1113.99,-287.449C1113.99,-340.118 1082.62,-372.551 1031.53,-372.551C980.965,-372.551 948.526,-340.118 948.526,-287.449L948.526,-79.812C948.526,-27.144 980.965,5.289 1031.53,5.289ZM1031.53,-56.387C1024.58,-56.387 1022.44,-60.646 1022.44,-71.826L1022.44,-295.435C1022.44,-306.615 1024.58,-310.875 1031.53,-310.875C1037.94,-310.875 1040.08,-306.615 1040.08,-295.435L1040.08,-71.826C1040.08,-60.646 1037.94,-56.387 1031.53,-56.387Z" style="fill:rgb(251,226,0);"/>
                <path d="M1180.55,5.289C1204.49,5.289 1219.98,-5.344 1227.96,-27.144L1230.09,-27.144L1230.09,-0.033L1293.37,-0.033L1293.37,-212.34L1211.96,-212.34L1211.96,-151.196L1221.05,-151.196L1221.05,-80.937C1221.05,-62.778 1218.91,-56.387 1210.36,-56.387C1203.95,-56.387 1202.35,-60.648 1202.35,-66.507L1202.35,-295.429C1202.35,-306.614 1204.49,-310.875 1211.43,-310.875C1217.84,-310.875 1219.98,-306.614 1219.98,-295.429L1219.98,-247.493L1292.3,-247.493L1292.3,-287.972C1292.3,-340.118 1260.93,-372.551 1210.9,-372.551C1160.87,-372.551 1128.43,-340.118 1128.43,-287.972L1128.43,-62.246C1128.43,-20.232 1147.58,5.289 1180.55,5.289Z" style="fill:rgb(251,226,0);"/>
                <rect x="1310.46" y="-367.228" width="73.918" height="367.195" style="fill:rgb(251,226,0);"/>
                <path d="M1393.5,-0.033L1464.26,-0.033L1467.99,-67.098L1491.4,-67.098L1495.12,-0.033L1570.14,-0.033L1533.96,-367.228L1429.68,-367.228L1393.5,-0.033ZM1470.12,-127.71L1479.16,-306.617L1480.22,-306.617L1489.27,-127.71L1470.12,-127.71Z" style="fill:rgb(251,226,0);"/>
            </g>
        </g>
        <g transform="matrix(1,0,0,1,6902,4080)">
            <path d="M-460.19,-1345.6L-445.2,-1397.49L-382.24,-1397.5C-379.65,-1397.53 -377.44,-1399.27 -376.71,-1401.63L-369.5,-1425.48L-435.14,-1425.38C-435.14,-1425.38 -436.41,-1425.53 -436.97,-1424.52C-437.15,-1424.2 -438,-1422.66 -438,-1422.66C-438,-1422.66 -430.83,-1447.33 -420.52,-1447.33L-367.29,-1447.33C-364.69,-1447.33 -362.49,-1449.03 -361.74,-1451.38L-352.84,-1481.53L-417.83,-1481.63C-438.9,-1480.1 -454.29,-1462.6 -463.99,-1429.14L-489.81,-1341.34L-465.82,-1341.34C-463.15,-1341.34 -460.89,-1343.15 -460.19,-1345.6Z" style="fill:white;"/>
            <path d="M-264.62,-1344.73L-297.32,-1481.52C-298.38,-1481.51 -314.6,-1481.52 -316.67,-1481.52C-320.77,-1481.52 -322.22,-1479.58 -323.11,-1477.82L-383.13,-1341.34L-359.6,-1341.34C-354.93,-1341.34 -354.13,-1343.39 -353.41,-1344.97L-339.68,-1375.98L-302.62,-1376.14C-298.2,-1376.14 -296.97,-1373.08 -296.97,-1373.08L-289.47,-1341.34L-269.67,-1341.34C-269.67,-1341.34 -263.8,-1341.34 -264.62,-1344.73ZM-305.9,-1395.69L-328.41,-1395.69C-328.41,-1395.69 -329.4,-1395.65 -329.66,-1395.65C-330.66,-1395.65 -331.78,-1393.84 -331.78,-1393.84L-312.32,-1438.34L-302.81,-1398.2C-302.8,-1398.1 -302.33,-1395.69 -305.9,-1395.69Z" style="fill:white;"/>
            <path d="M-129.62,-1481.52C-135.53,-1481.52 -138.66,-1481.52 -141.6,-1475.01L-179.69,-1391.21C-179.69,-1391.21 -180.19,-1390.15 -180.33,-1389.81C-181.08,-1387.99 -180.75,-1385.49 -180.75,-1385.49L-204.85,-1481.52L-227.67,-1481.52C-233.84,-1481.52 -238.34,-1481.52 -238.9,-1474.25L-252.53,-1341.33C-249.59,-1341.43 -237.01,-1341.33 -237.01,-1341.33C-226.37,-1341.33 -226.37,-1341.33 -225.69,-1348.5L-217.67,-1427.39L-196.63,-1343.23C-187.94,-1343.21 -195.84,-1343.21 -187.94,-1343.21L-183.6,-1343.21C-175.1,-1343.23 -175.1,-1343.23 -172.46,-1348.87L-137.17,-1426.82L-145.93,-1341.32L-129.62,-1341.32C-119.93,-1341.32 -119.93,-1341.32 -119.05,-1348.59L-105.4,-1481.51C-115.93,-1481.52 -129.62,-1481.52 -129.62,-1481.52Z" style="fill:white;"/>
            <path d="M-1661.91,-1521.42L-1661.91,-1698.7L-1584.92,-1698.7C-1540.1,-1698.7 -1513.76,-1675.15 -1513.76,-1636.65C-1513.76,-1598.66 -1540.1,-1575.87 -1584.92,-1575.87L-1611.26,-1575.87L-1611.26,-1521.42L-1661.91,-1521.42ZM-1611.26,-1615.13L-1589.23,-1615.13C-1574.54,-1615.13 -1564.41,-1622.47 -1564.41,-1636.66C-1564.41,-1650.84 -1574.54,-1658.19 -1589.23,-1658.19L-1611.26,-1658.19L-1611.26,-1615.13Z" style="fill:rgb(251,226,0);"/>
            <path d="M-1499.07,-1610.07C-1499.07,-1664.27 -1465.89,-1701.24 -1410.43,-1701.24C-1354.97,-1701.24 -1321.79,-1664.52 -1321.79,-1610.07C-1321.79,-1555.62 -1354.97,-1518.9 -1410.43,-1518.9C-1465.89,-1518.9 -1499.07,-1555.87 -1499.07,-1610.07ZM-1372.44,-1610.07C-1372.44,-1641.22 -1387.38,-1659.45 -1410.43,-1659.45C-1433.48,-1659.45 -1448.42,-1641.22 -1448.42,-1610.07C-1448.42,-1578.92 -1433.48,-1560.69 -1410.43,-1560.69C-1387.39,-1560.69 -1372.44,-1578.92 -1372.44,-1610.07ZM-1428.92,-1713.9L-1410.69,-1756.95L-1355.73,-1756.95L-1391.69,-1713.9L-1428.92,-1713.9Z" style="fill:rgb(251,226,0);"/>
            <path d="M-1304.57,-1567.02L-1256.45,-1576.64C-1250.88,-1561.7 -1238.47,-1556.13 -1224.54,-1556.13C-1210.1,-1556.13 -1201.75,-1561.95 -1201.75,-1571.33C-1201.75,-1600.96 -1300.52,-1577.15 -1300.52,-1650.09C-1300.52,-1678.96 -1274.94,-1701.25 -1229.61,-1701.25C-1190.86,-1701.25 -1163.26,-1686.81 -1154.65,-1655.67L-1203.78,-1646.05C-1207.33,-1658.46 -1216.44,-1664.03 -1229.36,-1664.03C-1240.76,-1664.03 -1248.86,-1658.21 -1248.86,-1650.1C-1248.86,-1620.22 -1150.09,-1644.78 -1150.09,-1570.33C-1150.09,-1540.95 -1175.67,-1518.92 -1224.55,-1518.92C-1262.03,-1518.9 -1296.22,-1533.59 -1304.57,-1567.02Z" style="fill:rgb(251,226,0);"/>
            <rect x="-1135.66" y="-1610.06" width="89.9" height="35.45" style="fill:rgb(251,226,0);"/>
            <path d="M-1675.45,-1411.28C-1675.45,-1452.81 -1650.53,-1480.82 -1614.6,-1480.82C-1590.26,-1480.82 -1570.17,-1469.62 -1560.32,-1444.7L-1576.55,-1438.71C-1584.08,-1457.64 -1597.03,-1465.95 -1614.6,-1465.95C-1640.48,-1465.95 -1658.06,-1445.28 -1658.06,-1411.29C-1658.06,-1377.3 -1641.06,-1356.63 -1612.28,-1356.63C-1598.76,-1356.63 -1586.59,-1362.42 -1578.86,-1370.92L-1578.86,-1399.12L-1611.31,-1400.67L-1611.31,-1414.58L-1561.47,-1414.58L-1561.47,-1365.52C-1573.06,-1349.68 -1591.6,-1341.76 -1612.27,-1341.76C-1650.54,-1341.75 -1675.45,-1369.76 -1675.45,-1411.28Z" style="fill:white;"/>
            <path d="M-1532.9,-1343.68L-1532.9,-1478.89L-1480.75,-1478.89C-1453.71,-1478.89 -1436.32,-1463.63 -1436.32,-1437.75C-1436.32,-1417.85 -1447.14,-1404.33 -1464.91,-1399.5L-1434.39,-1343.68L-1454.09,-1343.68L-1482.1,-1397.57L-1515.52,-1397.57L-1515.52,-1343.68L-1532.9,-1343.68ZM-1515.52,-1412.25L-1481.52,-1412.25C-1464.52,-1412.25 -1453.71,-1421.52 -1453.71,-1437.75C-1453.71,-1453.78 -1464.53,-1463.44 -1481.52,-1463.44L-1515.52,-1463.44L-1515.52,-1412.25Z" style="fill:white;"/>
            <path d="M-1319.46,-1343.68L-1330.28,-1374.59L-1393.44,-1374.59L-1404.26,-1343.68L-1422.03,-1343.68L-1373.55,-1478.89L-1349.6,-1478.89L-1300.92,-1343.68L-1319.46,-1343.68ZM-1388.42,-1389.07L-1335.3,-1389.07L-1361.38,-1463.82L-1362.35,-1463.82L-1388.42,-1389.07Z" style="fill:white;"/>
            <path d="M-1282.76,-1343.67L-1282.76,-1478.89L-1239.49,-1478.89C-1201.05,-1478.89 -1175.55,-1451.85 -1175.55,-1411.28C-1175.55,-1370.71 -1201.05,-1343.67 -1239.49,-1343.67L-1282.76,-1343.67ZM-1265.38,-1359.13L-1239.5,-1359.13C-1211.3,-1359.13 -1192.95,-1378.83 -1192.95,-1411.28C-1192.95,-1443.73 -1211.3,-1463.43 -1239.5,-1463.43L-1265.38,-1463.43L-1265.38,-1359.13Z" style="fill:white;"/>
            <path d="M-1151.03,-1397.96L-1151.03,-1478.89L-1133.65,-1478.89L-1133.65,-1397.96C-1133.65,-1368.02 -1116.85,-1357.2 -1098.3,-1357.2C-1079.76,-1357.2 -1063.14,-1368.02 -1063.14,-1397.96L-1063.14,-1478.89L-1045.76,-1478.89L-1045.76,-1397.96C-1045.76,-1359.52 -1069.52,-1341.75 -1098.3,-1341.75C-1127.07,-1341.75 -1151.03,-1359.52 -1151.03,-1397.96Z" style="fill:white;"/>
            <path d="M-925.99,-1343.68L-936.81,-1374.59L-999.97,-1374.59L-1010.79,-1343.68L-1028.56,-1343.68L-980.08,-1478.89L-956.13,-1478.89L-907.45,-1343.68L-925.99,-1343.68ZM-994.95,-1389.07L-941.83,-1389.07L-967.91,-1463.82L-968.88,-1463.82L-994.95,-1389.07Z" style="fill:white;"/>
            <path d="M-781.31,-1381.15C-789.81,-1355.07 -808.74,-1343.29 -831.34,-1341.94L-833.66,-1334.99L-832.5,-1334.99C-821.88,-1334.99 -813.18,-1329 -813.18,-1317.8C-813.18,-1307.18 -821.49,-1299.26 -836.94,-1299.26C-845.83,-1299.26 -852.78,-1301.58 -858.38,-1305.83L-852.01,-1315.87C-847.37,-1312.59 -842.16,-1310.85 -836.94,-1310.85C-830.95,-1310.85 -826.7,-1313.55 -826.7,-1318.19C-826.7,-1323.21 -830.76,-1325.34 -835.78,-1325.34C-838.68,-1325.34 -840.61,-1324.95 -843.31,-1324.18L-846.21,-1328.43L-841.57,-1341.95C-873.83,-1344.85 -896.43,-1371.89 -896.43,-1411.29C-896.43,-1452.82 -871.32,-1480.83 -835.97,-1480.83C-811.83,-1480.83 -790.96,-1468.85 -782.27,-1441.43L-798.69,-1435.44C-805.84,-1456.3 -818.59,-1465.38 -835.97,-1465.38C-861.85,-1465.38 -879.05,-1445.1 -879.05,-1411.3C-879.05,-1377.5 -861.86,-1357.22 -835.97,-1357.22C-818.2,-1357.22 -805.26,-1365.91 -797.72,-1387.16L-781.31,-1381.15Z" style="fill:white;"/>
            <path d="M-667.35,-1343.68L-678.17,-1374.59L-741.33,-1374.59L-752.15,-1343.68L-769.92,-1343.68L-721.44,-1478.89L-697.49,-1478.89L-648.81,-1343.68L-667.35,-1343.68ZM-726.26,-1491.45L-738.43,-1491.45L-738.43,-1497.05C-738.43,-1513.28 -730.12,-1518.49 -722.78,-1518.49C-711,-1518.49 -704.82,-1505.93 -698.25,-1505.93C-694.39,-1505.93 -692.65,-1510.57 -692.65,-1518.49L-680.48,-1518.49L-680.48,-1512.5C-680.48,-1495.7 -688.79,-1491.45 -696.13,-1491.45C-708.11,-1491.45 -714.09,-1504.01 -720.66,-1504.01C-723.94,-1504 -726.26,-1501.1 -726.26,-1491.45ZM-736.31,-1389.07L-683.19,-1389.07L-709.27,-1463.82L-710.24,-1463.82L-736.31,-1389.07Z" style="fill:white;"/>
            <path d="M-637.79,-1411.28C-637.79,-1452.81 -612.68,-1480.82 -577.33,-1480.82C-541.98,-1480.82 -517.06,-1453.01 -517.06,-1411.28C-517.06,-1369.56 -541.98,-1341.74 -577.33,-1341.74C-612.68,-1341.74 -637.79,-1369.76 -637.79,-1411.28ZM-534.45,-1411.28C-534.45,-1445.08 -551.45,-1465.36 -577.33,-1465.36C-603.21,-1465.36 -620.41,-1445.08 -620.41,-1411.28C-620.41,-1377.48 -603.22,-1357.2 -577.33,-1357.2C-551.45,-1357.2 -534.45,-1377.48 -534.45,-1411.28Z" style="fill:white;"/>
        </g>
        <g transform="matrix(1,0,0,1,6902,4080)">
            <g transform="matrix(1,0,0,1,-1675.45,-777.938)">
                <path d="M64.203,-0.007L64.203,-9.47L19.777,-9.47L19.777,-37.918L59.464,-37.918L59.464,-47.38L19.777,-47.38L19.777,-73.458L64.203,-73.458L64.203,-82.921L9.13,-82.921L9.13,-0.007L64.203,-0.007Z" style="fill:white;"/>
                <path d="M100.936,1.177C114.328,1.177 123.201,-5.563 123.201,-15.87C123.201,-40.52 87.541,-30.684 87.541,-45.142C87.541,-49.645 91.335,-53.319 98.921,-53.319C104.966,-53.319 110.538,-50.711 112.79,-44.075L121.781,-47.275C118.824,-56.985 109.708,-61.597 98.921,-61.597C85.53,-61.597 77.249,-54.738 77.249,-45.142C77.249,-20.255 112.909,-30.091 112.909,-15.87C112.909,-10.774 108.76,-7.101 100.936,-7.101C94.417,-7.101 87.187,-10.063 84.821,-17.529L75.828,-14.33C79.26,-3.08 90.149,1.177 100.936,1.177Z" style="fill:white;"/>
                <path d="M162.651,1.177C174.261,1.177 184.805,-4.737 188.833,-17.055L178.644,-20.729C175.327,-12.078 169.641,-8.285 162.651,-8.285C151.633,-8.285 144.288,-16.937 144.288,-30.21C144.288,-43.483 151.633,-52.134 162.651,-52.134C169.641,-52.134 174.972,-48.342 178.052,-39.69L188.24,-43.364C184.331,-55.801 174.616,-61.597 162.651,-61.597C144.644,-61.597 133.641,-47.867 133.641,-30.21C133.641,-12.552 144.644,1.177 162.651,1.177Z" style="fill:white;"/>
                <path d="M227.461,1.177C245.475,1.177 256.479,-12.552 256.479,-30.21C256.479,-47.867 245.475,-61.597 227.461,-61.597C209.446,-61.597 198.443,-47.867 198.443,-30.21C198.443,-12.552 209.446,1.177 227.461,1.177ZM227.461,-8.285C216.439,-8.285 209.091,-16.937 209.091,-30.21C209.091,-43.483 216.439,-52.134 227.461,-52.134C238.483,-52.134 245.831,-43.483 245.831,-30.21C245.831,-16.937 238.483,-8.285 227.461,-8.285Z" style="fill:white;"/>
                <rect x="270.117" y="-82.921" width="10.647" height="82.914" style="fill:white;"/>
                <path d="M345.449,-40.439C345.449,-53.909 336.222,-61.597 320.934,-61.597C308.488,-61.597 298.19,-55.683 295.469,-44.456L304.696,-41.148C307.184,-48.709 312.518,-52.726 320.934,-52.726C328.875,-52.726 335.157,-48.828 335.157,-40.085L335.157,-37.013L320.222,-36.186C303.158,-35.24 294.877,-28.262 294.877,-16.61C294.877,-5.919 302.685,1.177 314.533,1.177C324.252,1.177 331.364,-3.317 335.156,-10.903L335.986,-10.903L337.17,-0.007L346.041,-0.007C345.449,-10.811 345.449,-21.496 345.449,-32.283L345.449,-40.439ZM316.311,-7.93C309.436,-7.93 305.17,-11.378 305.17,-16.967C305.17,-24.101 311.57,-26.955 321.882,-27.669L335.157,-28.499C334.801,-16.61 326.741,-7.93 316.311,-7.93Z" style="fill:white;"/>
                <path d="M391.889,-61.597C383.478,-61.597 376.843,-57.101 373.289,-48.58L372.579,-48.58L371.158,-60.412L361.102,-60.412C361.694,-49.634 361.694,-38.974 361.694,-28.196L361.694,-0.007L372.342,-0.007L372.342,-27.722C372.342,-45.737 382.648,-51.542 392.126,-51.542C393.785,-51.542 394.732,-51.542 396.628,-51.423L396.628,-61.478C394.614,-61.597 393.548,-61.597 391.889,-61.597Z" style="fill:white;"/>
                <path d="M489.034,-31.748C489.034,-50.592 478.149,-61.597 462.267,-61.597C444.252,-61.597 433.368,-47.865 433.368,-30.211C433.368,-12.554 444.371,1.177 462.386,1.177C474.238,1.177 483.119,-4.027 487.378,-14.333L477.912,-17.771C474.357,-10.657 469.26,-7.693 462.386,-7.693C452.193,-7.693 445.319,-15.044 444.252,-26.545L488.679,-26.545C488.916,-28.082 489.034,-29.974 489.034,-31.748ZM462.267,-52.726C471.394,-52.726 477.912,-46.324 478.86,-35.06L444.371,-35.06C445.793,-45.968 452.43,-52.726 462.267,-52.726Z" style="fill:white;"/>
                <path d="M587.6,-0.007L587.6,-9.47L543.174,-9.47L543.174,-37.918L582.862,-37.918L582.862,-47.38L543.174,-47.38L543.174,-73.458L587.6,-73.458L587.6,-82.921L532.527,-82.921L532.527,-0.007L587.6,-0.007Z" style="fill:white;"/>
                <path d="M624.45,1.177C633.458,1.177 640.095,-2.963 644.243,-10.063L645.073,-10.063L646.256,-0.007L656.313,-0.007C655.72,-10.788 655.72,-21.45 655.72,-32.231L655.72,-82.921L645.073,-82.921L645.073,-50.357L644.243,-50.357C640.095,-57.457 633.458,-61.597 624.45,-61.597C608.926,-61.597 598.87,-48.935 598.87,-30.099C598.87,-11.367 608.926,1.177 624.45,1.177ZM627.295,-8.285C616.51,-8.285 609.517,-16.818 609.517,-30.091C609.517,-43.364 616.51,-52.134 627.295,-52.134C638.08,-52.134 645.073,-43.364 645.073,-30.091C645.073,-16.818 638.08,-8.285 627.295,-8.285Z" style="fill:white;"/>
                <path d="M694.11,1.177C702.406,1.177 709.873,-2.844 714.14,-10.062L714.97,-10.062L716.153,-0.007L726.209,-0.007C725.617,-10.785 725.617,-21.445 725.617,-32.223L725.617,-60.412L714.97,-60.412L714.97,-27.249C714.97,-16.697 707.74,-8.285 696.954,-8.285C687.709,-8.285 682.376,-13.972 682.376,-25.463L682.376,-60.412L671.728,-60.412L671.728,-24.871C671.728,-7.103 680.246,1.177 694.11,1.177Z" style="fill:white;"/>
                <path d="M768.266,1.177C779.876,1.177 790.42,-4.737 794.448,-17.055L784.259,-20.729C780.942,-12.078 775.256,-8.285 768.266,-8.285C757.248,-8.285 749.903,-16.937 749.903,-30.21C749.903,-43.483 757.248,-52.134 768.266,-52.134C775.256,-52.134 780.587,-48.342 783.667,-39.69L793.855,-43.364C789.946,-55.801 780.231,-61.597 768.266,-61.597C750.259,-61.597 739.256,-47.867 739.256,-30.21C739.256,-12.552 750.259,1.177 768.266,1.177Z" style="fill:white;"/>
                <path d="M854.986,-40.439C854.986,-53.909 845.758,-61.597 830.47,-61.597C818.025,-61.597 807.726,-55.683 805.005,-44.456L814.233,-41.148C816.721,-48.709 822.055,-52.726 830.47,-52.726C838.411,-52.726 844.694,-48.828 844.694,-40.085L844.694,-37.013L829.759,-36.186C812.695,-35.24 804.414,-28.262 804.414,-16.61C804.414,-5.919 812.222,1.177 824.07,1.177C833.789,1.177 840.9,-3.317 844.693,-10.903L845.523,-10.903L846.707,-0.007L855.578,-0.007C854.986,-10.811 854.986,-21.496 854.986,-32.283L854.986,-40.439ZM825.848,-7.93C818.973,-7.93 814.706,-11.378 814.706,-16.967C814.706,-24.101 821.106,-26.955 831.418,-27.669L844.694,-28.499C844.338,-16.61 836.278,-7.93 825.848,-7.93Z" style="fill:white;"/>
                <path d="M897.279,1.177C908.889,1.177 919.433,-4.737 923.461,-17.055L913.272,-20.729C909.955,-12.078 904.269,-8.285 897.279,-8.285C886.261,-8.285 878.916,-16.937 878.916,-30.21C878.916,-43.483 886.261,-52.134 897.279,-52.134C904.269,-52.134 909.6,-48.342 912.68,-39.69L922.868,-43.364C918.959,-55.801 909.244,-61.597 897.279,-61.597C879.272,-61.597 868.269,-47.867 868.269,-30.21C868.269,-12.552 879.272,1.177 897.279,1.177Z" style="fill:white;"/>
                <path d="M941.831,-68.72C946.328,-68.72 949.761,-72.034 949.761,-76.413C949.761,-80.792 946.328,-84.106 941.831,-84.106C937.333,-84.106 933.782,-80.792 933.782,-76.413C933.782,-72.034 937.333,-68.72 941.831,-68.72ZM947.155,-0.007L947.155,-60.412L936.507,-60.412L936.507,-0.007L947.155,-0.007Z" style="fill:white;"/>
                <path d="M989.811,1.177C1007.83,1.177 1018.83,-12.552 1018.83,-30.21C1018.83,-47.867 1007.83,-61.597 989.811,-61.597C971.796,-61.597 960.793,-47.867 960.793,-30.21C960.793,-12.552 971.796,1.177 989.811,1.177ZM989.811,-8.285C978.789,-8.285 971.441,-16.937 971.441,-30.21C971.441,-43.483 978.789,-52.134 989.811,-52.134C1000.83,-52.134 1008.18,-43.483 1008.18,-30.21C1008.18,-16.937 1000.83,-8.285 989.811,-8.285Z" style="fill:white;"/>
                <path d="M1043.12,-0.007L1043.12,-33.179C1043.12,-43.723 1050.35,-52.134 1061.13,-52.134C1070.38,-52.134 1075.71,-46.447 1075.71,-34.956L1075.71,-0.007L1086.36,-0.007L1086.36,-35.548C1086.36,-53.317 1077.84,-61.597 1063.97,-61.597C1055.68,-61.597 1048.21,-57.575 1043.94,-50.357L1043.12,-50.357L1041.93,-60.412L1031.88,-60.412C1032.47,-49.634 1032.47,-38.974 1032.47,-28.196L1032.47,-0.007L1043.12,-0.007Z" style="fill:white;"/>
                <path d="M1150.45,-40.439C1150.45,-53.909 1141.22,-61.597 1125.93,-61.597C1113.49,-61.597 1103.19,-55.683 1100.47,-44.456L1109.69,-41.148C1112.18,-48.709 1117.52,-52.726 1125.93,-52.726C1133.87,-52.726 1140.16,-48.828 1140.16,-40.085L1140.16,-37.013L1125.22,-36.186C1108.16,-35.24 1099.88,-28.262 1099.88,-16.61C1099.88,-5.919 1107.68,1.177 1119.53,1.177C1129.25,1.177 1136.36,-3.317 1140.15,-10.903L1140.99,-10.903L1142.17,-0.007L1151.04,-0.007C1150.45,-10.811 1150.45,-21.496 1150.45,-32.283L1150.45,-40.439ZM1121.31,-7.93C1114.43,-7.93 1110.17,-11.378 1110.17,-16.967C1110.17,-24.101 1116.57,-26.955 1126.88,-27.669L1140.16,-28.499C1139.8,-16.61 1131.74,-7.93 1121.31,-7.93Z" style="fill:white;"/>
                <rect x="1166.69" y="-82.921" width="10.647" height="82.914" style="fill:white;"/>
            </g>
        </g>
    </g>
</svg>
