<?xml version="1.0" encoding="UTF-8" standalone="no"?>
<!DOCTYPE svg PUBLIC "-//W3C//DTD SVG 1.1//EN" "http://www.w3.org/Graphics/SVG/1.1/DTD/svg11.dtd">
<svg width="100%" height="100%" viewBox="0 0 50 50" version="1.1" xmlns="http://www.w3.org/2000/svg" xmlns:xlink="http://www.w3.org/1999/xlink" xml:space="preserve" xmlns:serif="http://www.serif.com/" style="fill-rule:evenodd;clip-rule:evenodd;stroke-linejoin:round;stroke-miterlimit:2;">
    <g transform="matrix(1,0,0,1,-79.5,-358.5)">
        <g transform="matrix(1,0,0,1.63871,25,-139.877)">
            <g transform="matrix(1.06383,0,0,0.649187,-1.88293,245.701)">
                <path d="M81.409,136.486C79.826,136.823 78.184,137 76.5,137C73.689,137 70.993,136.506 68.494,135.601L68.494,125.243C68.494,124.938 68.32,124.591 68.103,124.417C64.32,121.547 62.015,116.894 62.015,112.241C62.015,104.805 68.06,98.761 75.495,98.761C82.54,98.761 88.279,104.023 88.888,111.024C88.932,111.589 89.106,112.111 89.367,112.589L92.715,117.677C92.976,118.155 92.802,118.546 92.715,118.677C92.628,118.807 92.41,119.155 91.889,119.155L90.454,119.155C89.627,119.155 88.932,119.851 88.932,120.677L88.932,126.504C88.932,127.287 88.323,127.895 87.54,127.895L83.148,127.895C82.192,127.895 81.409,128.678 81.409,129.635L81.409,136.486ZM83.453,106.936C81.322,106.936 79.583,108.675 79.583,110.806L79.583,114.285C79.583,115.807 78.365,117.024 76.843,117.024L76.365,117.024L76.365,107.893C76.365,107.371 75.93,106.936 75.408,106.936C74.887,106.936 74.452,107.371 74.452,107.893L74.452,117.024L73.973,117.024C72.451,117.024 71.234,115.807 71.234,114.285L71.234,110.806C71.234,108.675 69.495,106.936 67.364,106.936C66.842,106.936 66.407,107.371 66.407,107.893C66.407,108.415 66.842,108.849 67.364,108.849C68.451,108.849 69.321,109.719 69.321,110.806L69.321,114.285C69.321,116.85 71.408,118.894 73.93,118.894L74.408,118.894L74.408,122.025L73.582,122.025C73.06,122.025 72.625,122.46 72.625,122.982C72.625,123.503 73.06,123.938 73.582,123.938L77.148,123.938C77.669,123.938 78.104,123.503 78.104,122.982C78.104,122.46 77.669,122.025 77.148,122.025L76.321,122.025L76.321,118.894L76.8,118.894C79.365,118.894 81.409,116.807 81.409,114.285L81.409,110.806C81.409,109.719 82.279,108.849 83.366,108.849C83.888,108.849 84.322,108.415 84.322,107.893C84.322,107.371 83.975,106.936 83.453,106.936ZM66.407,134.728C58.479,130.952 53,122.866 53,113.5C53,100.521 63.521,90 76.5,90C89.479,90 100,100.521 100,113.5C100,124.042 93.058,132.963 83.496,135.941L83.496,130.026L87.54,130.026C89.454,130.026 91.019,128.461 91.019,126.547L91.019,121.242L91.932,121.242C93.063,121.242 94.063,120.634 94.585,119.677C95.106,118.677 95.063,117.503 94.454,116.59L91.149,111.545C91.062,111.371 90.975,111.111 90.932,110.85C90.236,102.762 83.583,96.674 75.452,96.674C66.886,96.674 59.885,103.675 59.885,112.241C59.885,117.372 62.363,122.503 66.407,125.765L66.407,134.728Z" style="fill:rgb(93,55,141);"/>
            </g>
        </g>
    </g>
</svg>
