<?xml version="1.0" encoding="UTF-8" standalone="no"?>
<!DOCTYPE svg PUBLIC "-//W3C//DTD SVG 1.1//EN" "http://www.w3.org/Graphics/SVG/1.1/DTD/svg11.dtd">
<svg width="100%" height="100%" viewBox="0 0 449 125" version="1.1" xmlns="http://www.w3.org/2000/svg" xmlns:xlink="http://www.w3.org/1999/xlink" xml:space="preserve" xmlns:serif="http://www.serif.com/" style="fill-rule:evenodd;clip-rule:evenodd;">
    <g id="Artboard1" transform="matrix(1.23691,0,0,0.384615,121.218,53.4615)">
        <rect x="-98" y="-139" width="363" height="325" style="fill:none;"/>
        <clipPath id="_clip1">
            <rect x="-98" y="-139" width="363" height="325"/>
        </clipPath>
        <g clip-path="url(#_clip1)">
            <g transform="matrix(0.808463,0,0,2.6,216.751,261.572)">
                <g transform="matrix(1,0,0,1,5.46859,-0.601401)">
                    <g transform="matrix(1,0,0,1,-18.647,-79)">
                        <path d="M-285.8,-35.136C-278.044,-29.538 -242.302,5.838 -234.546,11.435" style="fill:none;fill-rule:nonzero;stroke:url(#_Linear2);stroke-width:26.59px;"/>
                    </g>
                    <g transform="matrix(1,0,0,1,-18.647,-79)">
                        <path d="M-309.45,-47.06C-302.513,-45.301 -294.284,-41.304 -285.451,-34.929" style="fill:none;fill-rule:nonzero;stroke:url(#_Linear3);stroke-width:26.59px;"/>
                    </g>
                    <g transform="matrix(1,0,0,1,-18.647,-79)">
                        <path d="M-324.21,-47.682C-319.89,-48.574 -314.611,-48.321 -309.09,-46.92" style="fill:none;fill-rule:nonzero;stroke:url(#_Linear4);stroke-width:26.59px;"/>
                    </g>
                    <g transform="matrix(1,0,0,1,-18.647,-79)">
                        <path d="M-337.3,-40.446C-333.818,-44.017 -329.132,-46.787 -323.867,-47.874" style="fill:none;fill-rule:nonzero;stroke:url(#_Linear5);stroke-width:26.59px;"/>
                    </g>
                    <g transform="matrix(1,0,0,1,-18.647,-79)">
                        <path d="M-347.53,-11.988C-347.53,-22.728 -343.768,-33.738 -336.97,-40.71" style="fill:none;fill-rule:nonzero;stroke:url(#_Linear6);stroke-width:26.59px;"/>
                    </g>
                    <g transform="matrix(1,0,0,1,-18.647,-79)">
                        <path d="M-337.33,16.464C-344.128,9.492 -347.523,-1.663 -347.523,-12.403" style="fill:none;fill-rule:nonzero;stroke:url(#_Linear7);stroke-width:26.59px;"/>
                    </g>
                    <g transform="matrix(1,0,0,1,-18.647,-79)">
                        <path d="M-324.21,23.705C-329.475,22.617 -333.97,19.881 -337.451,16.31" style="fill:none;fill-rule:nonzero;stroke:url(#_Linear8);stroke-width:26.59px;"/>
                    </g>
                    <g transform="matrix(1,0,0,1,-18.647,-79)">
                        <path d="M-309.45,23.084C-314.971,24.484 -320.272,24.526 -324.592,23.633" style="fill:none;fill-rule:nonzero;stroke:url(#_Linear9);stroke-width:26.59px;"/>
                    </g>
                    <g transform="matrix(1,0,0,1,-18.647,-79)">
                        <path d="M-285.8,11.16C-294.633,17.535 -303.138,21.462 -310.075,23.221" style="fill:none;fill-rule:nonzero;stroke:url(#_Linear10);stroke-width:26.59px;"/>
                    </g>
                    <g transform="matrix(1,0,0,1,-18.647,-79)">
                        <path d="M-234.88,-35.136C-242.636,-29.538 -278.423,5.806 -286.179,11.404" style="fill:none;fill-rule:nonzero;stroke:url(#_Linear11);stroke-width:26.59px;"/>
                    </g>
                    <g transform="matrix(1,0,0,1,-18.647,-79)">
                        <path d="M-211.22,-47.06C-218.157,-45.301 -226.373,-41.242 -235.205,-34.867" style="fill:none;fill-rule:nonzero;stroke:url(#_Linear12);stroke-width:26.59px;"/>
                    </g>
                    <g transform="matrix(1,0,0,1,-18.647,-79)">
                        <path d="M-196.46,-47.682C-200.78,-48.574 -206.175,-48.321 -211.696,-46.92" style="fill:none;fill-rule:nonzero;stroke:url(#_Linear13);stroke-width:26.59px;"/>
                    </g>
                    <g transform="matrix(1,0,0,1,-18.647,-79)">
                        <path d="M-183.34,-40.441C-186.822,-44.012 -191.62,-46.667 -196.885,-47.754" style="fill:none;fill-rule:nonzero;stroke:url(#_Linear14);stroke-width:26.59px;"/>
                    </g>
                    <g transform="matrix(1,0,0,1,-18.647,-79)">
                        <path d="M-173.14,-11.988C-173.14,-22.728 -176.946,-33.82 -183.744,-40.792" style="fill:none;fill-rule:nonzero;stroke:url(#_Linear15);stroke-width:26.59px;"/>
                    </g>
                    <g transform="matrix(1,0,0,1,-18.647,-79)">
                        <path d="M-183.34,16.464C-176.542,9.492 -173.076,-1.61 -173.076,-12.35" style="fill:none;fill-rule:nonzero;stroke:url(#_Linear16);stroke-width:26.59px;"/>
                    </g>
                    <g transform="matrix(1,0,0,1,-18.647,-79)">
                        <path d="M-196.59,23.83C-191.325,22.742 -186.674,19.818 -183.192,16.247" style="fill:none;fill-rule:nonzero;stroke:url(#_Linear17);stroke-width:26.59px;"/>
                    </g>
                    <g transform="matrix(1,0,0,1,-18.647,-79)">
                        <path d="M-211.47,23.084C-205.949,24.484 -200.434,24.593 -196.114,23.701" style="fill:none;fill-rule:nonzero;stroke:url(#_Linear18);stroke-width:26.59px;"/>
                    </g>
                    <g transform="matrix(1,0,0,1,-18.647,-79)">
                        <path d="M-234.88,11.16C-226.047,17.535 -217.751,21.517 -210.814,23.276" style="fill:none;fill-rule:nonzero;stroke:url(#_Linear19);stroke-width:26.59px;"/>
                    </g>
                </g>
                <g transform="matrix(1,0,0,1,5.46859,-2.40017)">
                    <g transform="matrix(0.48741,0,0,0.48741,-178.923,-211.089)">
                        <g transform="matrix(97.7232,0,0,97.7232,55.6841,245)">
                            <path d="M0.256,-0.283L0.305,-0.512L0.309,-0.512L0.355,-0.283L0.256,-0.283ZM0.214,-0.708C0.185,-0.708 0.175,-0.695 0.17,-0.674L0.013,-0.039C0.007,-0.015 0.018,-0 0.041,-0L0.178,-0C0.202,-0 0.212,-0.011 0.217,-0.032L0.234,-0.114L0.379,-0.114L0.397,-0.032C0.401,-0.011 0.411,-0 0.435,-0L0.573,-0C0.596,-0 0.606,-0.015 0.6,-0.039L0.444,-0.674C0.439,-0.695 0.428,-0.708 0.399,-0.708L0.214,-0.708Z" style="fill:rgb(3,83,164);fill-rule:nonzero;"/>
                        </g>
                        <g transform="matrix(97.7232,0,0,97.7232,117.054,245)">
                            <path d="M0.302,0.01C0.476,0.01 0.562,-0.062 0.562,-0.233L0.562,-0.674C0.562,-0.697 0.551,-0.708 0.528,-0.708L0.395,-0.708C0.372,-0.708 0.361,-0.697 0.361,-0.674L0.361,-0.256C0.361,-0.194 0.346,-0.169 0.302,-0.169C0.257,-0.169 0.242,-0.194 0.242,-0.256L0.242,-0.674C0.242,-0.697 0.231,-0.708 0.208,-0.708L0.075,-0.708C0.052,-0.708 0.041,-0.697 0.041,-0.674L0.041,-0.233C0.041,-0.062 0.127,0.01 0.302,0.01Z" style="fill:rgb(3,83,164);fill-rule:nonzero;"/>
                        </g>
                        <g transform="matrix(97.7232,0,0,97.7232,177.936,245)">
                            <path d="M0.019,-0.562C0.019,-0.539 0.03,-0.528 0.053,-0.528L0.151,-0.528L0.151,-0.034C0.151,-0.011 0.162,-0 0.185,-0L0.318,-0C0.341,-0 0.352,-0.011 0.352,-0.034L0.352,-0.528L0.45,-0.528C0.473,-0.528 0.484,-0.539 0.484,-0.562L0.484,-0.674C0.484,-0.697 0.473,-0.708 0.45,-0.708L0.053,-0.708C0.03,-0.708 0.019,-0.697 0.019,-0.674L0.019,-0.562Z" style="fill:rgb(3,83,164);fill-rule:nonzero;"/>
                        </g>
                        <g transform="matrix(97.7232,0,0,97.7232,229.045,245)">
                            <path d="M0.048,-0.034C0.048,-0.011 0.059,-0 0.082,-0L0.215,-0C0.238,-0 0.249,-0.011 0.249,-0.034L0.249,-0.674C0.249,-0.697 0.238,-0.708 0.215,-0.708L0.082,-0.708C0.059,-0.708 0.048,-0.697 0.048,-0.674L0.048,-0.034Z" style="fill:rgb(3,83,164);fill-rule:nonzero;"/>
                        </g>
                        <g transform="matrix(97.7232,0,0,97.7232,259.926,245)">
                            <path d="M0.499,-0.201C0.499,-0.328 0.428,-0.371 0.326,-0.426C0.275,-0.452 0.239,-0.477 0.239,-0.509C0.239,-0.54 0.263,-0.547 0.305,-0.547C0.34,-0.547 0.384,-0.54 0.409,-0.532C0.434,-0.525 0.448,-0.532 0.452,-0.555L0.469,-0.649C0.473,-0.673 0.464,-0.682 0.443,-0.691C0.411,-0.704 0.35,-0.718 0.279,-0.718C0.115,-0.718 0.034,-0.66 0.034,-0.515C0.034,-0.375 0.118,-0.322 0.205,-0.281C0.272,-0.245 0.294,-0.23 0.294,-0.204C0.294,-0.169 0.255,-0.161 0.204,-0.161C0.159,-0.161 0.118,-0.171 0.092,-0.181C0.065,-0.191 0.052,-0.181 0.048,-0.159L0.031,-0.064C0.026,-0.039 0.036,-0.031 0.058,-0.022C0.098,-0.006 0.172,0.01 0.25,0.01C0.381,0.01 0.499,-0.047 0.499,-0.201Z" style="fill:rgb(3,83,164);fill-rule:nonzero;"/>
                        </g>
                        <g transform="matrix(97.7232,0,0,97.7232,312.989,245)">
                            <path d="M0.366,-0.15C0.382,-0.15 0.389,-0.158 0.396,-0.172L0.492,-0.358L0.492,-0.034C0.492,-0.011 0.503,-0 0.526,-0L0.653,-0C0.676,-0 0.687,-0.011 0.687,-0.034L0.687,-0.674C0.687,-0.697 0.676,-0.708 0.653,-0.708L0.533,-0.708C0.511,-0.708 0.499,-0.701 0.491,-0.685L0.366,-0.438L0.24,-0.685C0.232,-0.701 0.22,-0.708 0.198,-0.708L0.078,-0.708C0.055,-0.708 0.044,-0.697 0.044,-0.674L0.044,-0.034C0.044,-0.011 0.055,-0 0.078,-0L0.205,-0C0.228,-0 0.239,-0.011 0.239,-0.034L0.239,-0.358L0.335,-0.172C0.342,-0.158 0.349,-0.15 0.366,-0.15Z" style="fill:rgb(3,83,164);fill-rule:nonzero;"/>
                        </g>
                        <g transform="matrix(97.7232,0,0,97.7232,386.38,245)">
                            <path d="M0.312,-0.719C0.135,-0.719 0.032,-0.634 0.032,-0.354C0.032,-0.074 0.135,0.011 0.312,0.011C0.489,0.011 0.592,-0.074 0.592,-0.354C0.592,-0.634 0.489,-0.719 0.312,-0.719ZM0.312,-0.164C0.258,-0.164 0.236,-0.2 0.236,-0.354C0.236,-0.508 0.258,-0.544 0.312,-0.544C0.366,-0.544 0.389,-0.508 0.389,-0.354C0.389,-0.2 0.366,-0.164 0.312,-0.164Z" style="fill:rgb(3,83,164);fill-rule:nonzero;"/>
                        </g>
                    </g>
                    <g transform="matrix(0.426765,0,0,0.426765,-178.507,-157.469)">
                        <g transform="matrix(97.7232,0,0,97.7232,55.4886,245)">
                            <path d="M0.514,-0.667L0.168,-0.667L0.086,-0L0.432,-0L0.441,-0.07L0.169,-0.07L0.2,-0.329L0.464,-0.329L0.473,-0.399L0.209,-0.399L0.233,-0.597L0.505,-0.597L0.514,-0.667Z" style="fill-rule:nonzero;"/>
                        </g>
                        <g transform="matrix(97.7232,0,0,97.7232,126.338,245)">
                            <path d="M0.086,-0L0.215,-0C0.342,-0 0.448,-0.018 0.53,-0.102C0.609,-0.183 0.627,-0.291 0.627,-0.368C0.627,-0.478 0.587,-0.544 0.546,-0.584C0.47,-0.656 0.364,-0.667 0.289,-0.667L0.168,-0.667L0.086,-0ZM0.233,-0.597L0.298,-0.597C0.345,-0.597 0.427,-0.592 0.489,-0.528C0.538,-0.478 0.549,-0.415 0.549,-0.362C0.549,-0.31 0.539,-0.216 0.472,-0.149C0.411,-0.088 0.327,-0.07 0.218,-0.07L0.169,-0.07L0.233,-0.597Z" style="fill-rule:nonzero;"/>
                        </g>
                        <g transform="matrix(97.7232,0,0,97.7232,189.467,245)">
                            <path d="M0.168,-0.667L0.086,-0L0.16,-0L0.242,-0.667L0.168,-0.667Z" style="fill-rule:nonzero;"/>
                        </g>
                        <g transform="matrix(97.7232,0,0,97.7232,214.484,245)">
                            <path d="M0.168,-0.667L0.086,-0L0.16,-0L0.196,-0.292L0.215,-0.292L0.382,-0L0.472,-0L0.297,-0.298C0.346,-0.302 0.401,-0.322 0.437,-0.357C0.478,-0.396 0.49,-0.446 0.49,-0.499C0.49,-0.538 0.481,-0.582 0.442,-0.618C0.393,-0.664 0.33,-0.667 0.275,-0.667L0.168,-0.667ZM0.233,-0.597L0.275,-0.597C0.305,-0.597 0.349,-0.59 0.369,-0.578C0.389,-0.566 0.414,-0.539 0.414,-0.488C0.414,-0.444 0.395,-0.411 0.375,-0.393C0.338,-0.36 0.282,-0.358 0.251,-0.358L0.204,-0.358L0.233,-0.597Z" style="fill-rule:nonzero;"/>
                        </g>
                        <g transform="matrix(97.7232,0,0,97.7232,264.812,245)">
                            <path d="M0.514,-0.667L0.168,-0.667L0.086,-0L0.432,-0L0.441,-0.07L0.169,-0.07L0.2,-0.329L0.464,-0.329L0.473,-0.399L0.209,-0.399L0.233,-0.597L0.505,-0.597L0.514,-0.667Z" style="fill-rule:nonzero;"/>
                        </g>
                        <g transform="matrix(97.7232,0,0,97.7232,312.892,245)">
                            <path d="M0.168,-0.667L0.086,-0L0.16,-0L0.242,-0.667L0.168,-0.667Z" style="fill-rule:nonzero;"/>
                        </g>
                        <g transform="matrix(97.7232,0,0,97.7232,337.909,245)">
                            <path d="M0.485,-0.597L0.494,-0.667L0.096,-0.667L0.087,-0.597L0.249,-0.597L0.176,-0L0.25,-0L0.323,-0.597L0.485,-0.597Z" style="fill-rule:nonzero;"/>
                        </g>
                        <g transform="matrix(97.7232,0,0,97.7232,377.096,245)">
                            <path d="M0.399,0.012C0.526,0.012 0.621,-0.037 0.679,-0.093C0.754,-0.166 0.791,-0.273 0.791,-0.376C0.791,-0.482 0.746,-0.552 0.703,-0.594C0.634,-0.662 0.552,-0.678 0.479,-0.678C0.368,-0.678 0.278,-0.643 0.205,-0.573C0.151,-0.522 0.091,-0.433 0.091,-0.296C0.091,-0.189 0.136,-0.117 0.177,-0.075C0.243,-0.007 0.326,0.012 0.399,0.012ZM0.471,-0.608C0.556,-0.608 0.611,-0.573 0.644,-0.54C0.685,-0.499 0.714,-0.437 0.714,-0.362C0.714,-0.283 0.682,-0.195 0.623,-0.138C0.574,-0.09 0.497,-0.058 0.407,-0.058C0.326,-0.058 0.272,-0.09 0.237,-0.126C0.198,-0.166 0.168,-0.228 0.168,-0.31C0.168,-0.412 0.213,-0.485 0.26,-0.529C0.312,-0.577 0.386,-0.608 0.471,-0.608Z" style="fill-rule:nonzero;"/>
                        </g>
                        <g transform="matrix(97.7232,0,0,97.7232,456.252,245)">
                            <path d="M0.513,-0.574C0.501,-0.605 0.479,-0.633 0.453,-0.65C0.417,-0.674 0.372,-0.678 0.343,-0.678C0.287,-0.678 0.238,-0.663 0.196,-0.622C0.158,-0.585 0.144,-0.543 0.144,-0.496C0.144,-0.444 0.164,-0.412 0.182,-0.393C0.204,-0.37 0.243,-0.35 0.261,-0.342L0.314,-0.317C0.335,-0.307 0.366,-0.289 0.379,-0.277C0.397,-0.261 0.415,-0.232 0.415,-0.192C0.415,-0.16 0.404,-0.121 0.379,-0.095C0.348,-0.063 0.307,-0.058 0.275,-0.058C0.242,-0.058 0.209,-0.063 0.18,-0.093C0.159,-0.115 0.146,-0.146 0.144,-0.18L0.07,-0.16C0.075,-0.112 0.097,-0.068 0.126,-0.038C0.166,0.002 0.21,0.012 0.264,0.012C0.311,0.012 0.381,0.006 0.437,-0.052C0.486,-0.103 0.493,-0.164 0.493,-0.203C0.493,-0.246 0.486,-0.281 0.448,-0.32C0.424,-0.345 0.394,-0.363 0.363,-0.377L0.303,-0.405C0.289,-0.412 0.26,-0.428 0.247,-0.44C0.227,-0.458 0.219,-0.48 0.219,-0.501C0.219,-0.532 0.234,-0.562 0.254,-0.58C0.281,-0.604 0.313,-0.608 0.338,-0.608C0.361,-0.608 0.388,-0.606 0.413,-0.587C0.428,-0.575 0.442,-0.558 0.45,-0.535L0.513,-0.574Z" style="fill-rule:nonzero;"/>
                        </g>
                    </g>
                </g>
            </g>
        </g>
    </g>
    <defs>
        <linearGradient id="_Linear2" x1="0" y1="0" x2="1" y2="0" gradientUnits="userSpaceOnUse" gradientTransform="matrix(50.5487,46.0485,-46.0485,50.5487,-285.8,-35.138)"><stop offset="0" style="stop-color:rgb(241,131,101);stop-opacity:1"/><stop offset="1" style="stop-color:rgb(247,164,63);stop-opacity:1"/></linearGradient>
        <linearGradient id="_Linear3" x1="0" y1="0" x2="1" y2="0" gradientUnits="userSpaceOnUse" gradientTransform="matrix(23.4078,11.7367,-11.7367,23.4078,-309.455,-47.0606)"><stop offset="0" style="stop-color:rgb(240,117,131);stop-opacity:1"/><stop offset="1" style="stop-color:rgb(241,131,101);stop-opacity:1"/></linearGradient>
        <linearGradient id="_Linear4" x1="0" y1="0" x2="1" y2="0" gradientUnits="userSpaceOnUse" gradientTransform="matrix(14.3337,0.440926,-0.440926,14.3337,-324.217,-47.6824)"><stop offset="0" style="stop-color:rgb(239,112,144);stop-opacity:1"/><stop offset="1" style="stop-color:rgb(240,117,131);stop-opacity:1"/></linearGradient>
        <linearGradient id="_Linear5" x1="0" y1="0" x2="1" y2="0" gradientUnits="userSpaceOnUse" gradientTransform="matrix(12.9025,-7.1616,7.1616,12.9025,-337.338,-40.4417)"><stop offset="0" style="stop-color:rgb(234,104,162);stop-opacity:1"/><stop offset="1" style="stop-color:rgb(239,112,144);stop-opacity:1"/></linearGradient>
        <linearGradient id="_Linear6" x1="0" y1="0" x2="1" y2="0" gradientUnits="userSpaceOnUse" gradientTransform="matrix(9.92163,-28.2155,28.2155,9.92163,-347.535,-11.99)"><stop offset="0" style="stop-color:rgb(213,102,166);stop-opacity:1"/><stop offset="1" style="stop-color:rgb(234,104,162);stop-opacity:1"/></linearGradient>
        <linearGradient id="_Linear7" x1="0" y1="0" x2="1" y2="0" gradientUnits="userSpaceOnUse" gradientTransform="matrix(10.1879,27.963,-27.963,10.1879,-347.526,-11.5001)"><stop offset="0" style="stop-color:rgb(213,102,166);stop-opacity:1"/><stop offset="1" style="stop-color:rgb(174,100,173);stop-opacity:1"/></linearGradient>
        <linearGradient id="_Linear8" x1="0" y1="0" x2="1" y2="0" gradientUnits="userSpaceOnUse" gradientTransform="matrix(13.1874,7.42414,-7.42414,13.1874,-337.435,16.3373)"><stop offset="0" style="stop-color:rgb(174,100,173);stop-opacity:1"/><stop offset="1" style="stop-color:rgb(153,102,177);stop-opacity:1"/></linearGradient>
        <linearGradient id="_Linear9" x1="0" y1="0" x2="1" y2="0" gradientUnits="userSpaceOnUse" gradientTransform="matrix(15.3568,-0.615538,0.615538,15.3568,-324.592,23.6358)"><stop offset="0" style="stop-color:rgb(153,102,177);stop-opacity:1"/><stop offset="1" style="stop-color:rgb(122,117,193);stop-opacity:1"/></linearGradient>
        <linearGradient id="_Linear10" x1="0" y1="0" x2="1" y2="0" gradientUnits="userSpaceOnUse" gradientTransform="matrix(24.0112,-12.0595,12.0595,24.0112,-309.717,23.1836)"><stop offset="0" style="stop-color:rgb(122,117,193);stop-opacity:1"/><stop offset="1" style="stop-color:rgb(51,156,220);stop-opacity:1"/></linearGradient>
        <linearGradient id="_Linear11" x1="0" y1="0" x2="1" y2="0" gradientUnits="userSpaceOnUse" gradientTransform="matrix(-51.2021,46.5133,-46.5133,-51.2021,-234.879,-35.138)"><stop offset="0" style="stop-color:rgb(3,183,222);stop-opacity:1"/><stop offset="1" style="stop-color:rgb(51,156,220);stop-opacity:1"/></linearGradient>
        <linearGradient id="_Linear12" x1="0" y1="0" x2="1" y2="0" gradientUnits="userSpaceOnUse" gradientTransform="matrix(23.2753,-11.6161,11.6161,23.2753,-234.495,-35.4445)"><stop offset="0" style="stop-color:rgb(3,183,222);stop-opacity:1"/><stop offset="1" style="stop-color:rgb(4,183,216);stop-opacity:1"/></linearGradient>
        <linearGradient id="_Linear13" x1="0" y1="0" x2="1" y2="0" gradientUnits="userSpaceOnUse" gradientTransform="matrix(14.0442,-0.506249,0.506249,14.0442,-210.511,-47.1762)"><stop offset="0" style="stop-color:rgb(4,183,216);stop-opacity:1"/><stop offset="1" style="stop-color:rgb(9,182,196);stop-opacity:1"/></linearGradient>
        <linearGradient id="_Linear14" x1="0" y1="0" x2="1" y2="0" gradientUnits="userSpaceOnUse" gradientTransform="matrix(12.7653,7.17793,-7.17793,12.7653,-196.106,-47.6196)"><stop offset="0" style="stop-color:rgb(9,182,196);stop-opacity:1"/><stop offset="1" style="stop-color:rgb(18,180,177);stop-opacity:1"/></linearGradient>
        <linearGradient id="_Linear15" x1="0" y1="0" x2="1" y2="0" gradientUnits="userSpaceOnUse" gradientTransform="matrix(-9.8821,-28.0811,28.0811,-9.8821,-173.145,-11.99)"><stop offset="0" style="stop-color:rgb(58,187,153);stop-opacity:1"/><stop offset="1" style="stop-color:rgb(18,180,177);stop-opacity:1"/></linearGradient>
        <linearGradient id="_Linear16" x1="0" y1="0" x2="1" y2="0" gradientUnits="userSpaceOnUse" gradientTransform="matrix(10.7657,-28.4027,28.4027,10.7657,-183.783,16.8398)"><stop offset="0" style="stop-color:rgb(195,198,76);stop-opacity:1"/><stop offset="1" style="stop-color:rgb(58,187,153);stop-opacity:1"/></linearGradient>
        <linearGradient id="_Linear17" x1="0" y1="0" x2="1" y2="0" gradientUnits="userSpaceOnUse" gradientTransform="matrix(13.3815,-7.48695,7.48695,13.3815,-196.467,23.8243)"><stop offset="0" style="stop-color:rgb(232,198,56);stop-opacity:1"/><stop offset="1" style="stop-color:rgb(195,198,76);stop-opacity:1"/></linearGradient>
        <linearGradient id="_Linear18" x1="0" y1="0" x2="1" y2="0" gradientUnits="userSpaceOnUse" gradientTransform="matrix(15.2417,0.6281,-0.6281,15.2417,-211.348,23.0831)"><stop offset="0" style="stop-color:rgb(249,189,51);stop-opacity:1"/><stop offset="1" style="stop-color:rgb(232,198,56);stop-opacity:1"/></linearGradient>
        <linearGradient id="_Linear19" x1="0" y1="0" x2="1" y2="0" gradientUnits="userSpaceOnUse" gradientTransform="matrix(24.4146,12.2982,-12.2982,24.4146,-234.879,11.1618)"><stop offset="0" style="stop-color:rgb(247,164,63);stop-opacity:1"/><stop offset="1" style="stop-color:rgb(249,189,51);stop-opacity:1"/></linearGradient>
    </defs>
</svg>
