<?xml version="1.0" encoding="UTF-8" standalone="no"?>
<!DOCTYPE svg PUBLIC "-//W3C//DTD SVG 1.1//EN" "http://www.w3.org/Graphics/SVG/1.1/DTD/svg11.dtd">
<svg width="100%" height="100%" viewBox="0 0 72 72" version="1.1" xmlns="http://www.w3.org/2000/svg" xmlns:xlink="http://www.w3.org/1999/xlink" xml:space="preserve" xmlns:serif="http://www.serif.com/" style="fill-rule:evenodd;clip-rule:evenodd;stroke-linejoin:round;stroke-miterlimit:2;">
    <g transform="matrix(1,0,0,1,-184,-11)">
        <g transform="matrix(1,0,0,1,-89,5)">
            <g transform="matrix(1,0,0,1,168.795,-35.201)">
                <path d="M139.708,41.201C159.303,41.201 175.211,57.11 175.211,76.705C175.211,96.299 159.303,112.208 139.708,112.208C120.113,112.208 104.205,96.299 104.205,76.705C104.205,57.11 120.113,41.201 139.708,41.201ZM161.618,82.144C161.968,80.538 162.148,78.887 162.148,77.231C162.148,71.778 160.205,66.495 156.675,62.349C153.185,58.251 148.358,55.497 143.081,54.595C142.687,54.527 142.306,54.769 142.202,55.154L140.052,63.022C139.593,64.703 137.943,66.627 136.213,67.499C134.321,68.453 132.983,70.136 132.227,72.509C129.857,73.264 128.173,74.603 127.22,76.495C126.348,78.225 124.424,79.874 122.743,80.334L118.22,81.57C117.925,80.151 117.771,78.697 117.771,77.229C117.771,67.978 123.843,59.676 132.602,56.848C133.138,57.857 134.198,58.546 135.42,58.546C137.177,58.546 138.608,57.116 138.608,55.359C138.608,53.601 137.177,52.171 135.42,52.171C133.662,52.171 132.245,53.588 132.234,55.335C127.756,56.759 123.741,59.591 120.885,63.354C117.833,67.372 116.222,72.171 116.222,77.229C116.222,80.485 116.891,83.632 118.208,86.582C119.48,89.431 121.291,91.955 123.592,94.084C123.737,94.218 123.926,94.29 124.12,94.29C124.192,94.29 124.264,94.279 124.337,94.258L127.071,93.46C129.442,92.777 130.946,92.545 133.026,92.224C133.868,92.094 134.822,91.947 135.948,91.751C140.253,91 144.396,89.606 145.977,89.04L148.039,88.304C149.148,87.997 149.927,87.293 150.174,86.369C150.372,85.627 150.206,84.833 149.737,84.229C150.189,84.003 150.567,83.648 150.825,83.199C151.174,82.594 151.268,81.89 151.087,81.219C150.972,80.79 150.753,80.407 150.452,80.092C150.744,79.872 150.993,79.594 151.182,79.268C151.548,78.636 151.646,77.9 151.457,77.197C151.327,76.712 151.074,76.295 150.74,75.965C151.029,75.746 151.276,75.472 151.463,75.146C151.829,74.514 151.927,73.778 151.738,73.075C151.614,72.614 151.365,72.192 151.027,71.854L154.992,62.746C158.499,66.576 160.599,71.677 160.599,77.225C160.599,78.738 160.439,80.247 160.127,81.713C158.986,81.673 157.86,82.247 157.249,83.303C156.824,84.039 156.711,84.899 156.93,85.72C157.149,86.542 157.677,87.229 158.416,87.655C158.916,87.944 159.463,88.08 160.003,88.08C161.106,88.08 162.178,87.508 162.768,86.486C163.642,84.97 163.128,83.027 161.618,82.144ZM135.415,53.722C136.317,53.722 137.052,54.456 137.052,55.358C137.052,56.26 136.317,56.995 135.415,56.995C134.513,56.995 133.779,56.26 133.779,55.358C133.779,54.456 134.513,53.722 135.415,53.722ZM149.647,71.131C149.343,71.07 148.969,71.053 148.468,71.133C148.443,71.138 148.417,71.144 148.392,71.15L141.682,72.949C140.246,73.332 138.76,73.73 137.522,74.983C136.415,76.103 135.932,77.509 135.507,78.75C134.83,80.718 134.396,81.755 132.67,81.916C132.355,81.946 132.038,81.842 131.876,81.659C131.834,81.608 131.7,81.457 131.783,81.095L133.453,73.889C134.03,71.403 135.16,69.765 136.909,68.884C139.058,67.801 140.965,65.558 141.546,63.429L143.508,56.251C147.484,57.064 151.01,58.943 153.812,61.561L149.648,71.128L149.647,71.131ZM161.422,85.719C161.203,86.098 160.852,86.368 160.428,86.481C160.007,86.594 159.564,86.536 159.187,86.317C158.809,86.098 158.538,85.747 158.426,85.323C158.313,84.902 158.37,84.459 158.59,84.083C158.892,83.559 159.443,83.265 160.009,83.265C160.286,83.265 160.566,83.336 160.824,83.485C161.605,83.936 161.873,84.938 161.422,85.719ZM150.116,74.374C149.958,74.649 149.705,74.843 149.403,74.926L148.111,75.273L148.109,75.273L143.68,76.46C143.265,76.571 143.021,76.996 143.131,77.409C143.242,77.824 143.668,78.069 144.08,77.958L148.511,76.771C149.139,76.603 149.786,76.977 149.954,77.603C150.035,77.905 149.992,78.222 149.835,78.494C149.677,78.769 149.424,78.963 149.122,79.046L147.888,79.375L143.329,80.597C142.914,80.708 142.67,81.133 142.78,81.546C142.874,81.893 143.187,82.121 143.529,82.121C143.595,82.121 143.663,82.112 143.729,82.093L148.29,80.871C148.56,80.799 148.845,80.837 149.09,80.98C149.337,81.123 149.511,81.35 149.584,81.621C149.656,81.891 149.618,82.176 149.475,82.423C149.333,82.67 149.105,82.844 148.835,82.917L147.09,83.385L147.087,83.385L143.059,84.464C142.644,84.574 142.399,85 142.51,85.413C142.604,85.76 142.916,85.987 143.259,85.987C143.325,85.987 143.393,85.979 143.459,85.96L147.488,84.881C147.964,84.753 148.258,84.921 148.422,85.085C148.652,85.315 148.745,85.66 148.664,85.964C148.56,86.353 148.181,86.653 147.596,86.809L147.536,86.828L145.445,87.575C143.9,88.126 139.856,89.488 135.671,90.218C134.56,90.412 133.613,90.556 132.779,90.686C130.721,91.003 129.097,91.252 126.628,91.965L124.317,92.638C121.579,89.997 119.612,86.677 118.585,83.068L123.145,81.821C125.273,81.24 127.514,79.333 128.599,77.184C129.24,75.913 130.281,74.973 131.753,74.33L130.268,80.738C130.098,81.47 130.253,82.157 130.704,82.674C131.142,83.175 131.836,83.466 132.56,83.466C132.643,83.466 132.728,83.462 132.811,83.453C135.613,83.189 136.335,81.095 136.969,79.246C137.361,78.11 137.765,76.933 138.62,76.065C139.565,75.109 140.785,74.783 142.079,74.439L148.752,72.651C149.229,72.579 149.408,72.645 149.714,72.779C149.969,72.938 150.159,73.19 150.233,73.473C150.314,73.775 150.272,74.092 150.114,74.364L150.116,74.374ZM157.452,89.849C157.107,89.593 156.622,89.663 156.366,90.006C152.278,95.494 146.015,98.642 139.182,98.642C137.669,98.642 136.162,98.482 134.696,98.17C134.707,97.857 134.671,97.54 134.588,97.227C134.369,96.405 133.841,95.718 133.102,95.292C132.366,94.867 131.506,94.754 130.685,94.973C129.863,95.192 129.176,95.72 128.75,96.459C128.325,97.195 128.212,98.055 128.431,98.876C128.65,99.698 129.178,100.385 129.917,100.811C130.408,101.094 130.953,101.238 131.504,101.238C131.781,101.238 132.06,101.202 132.334,101.128C133.149,100.908 133.834,100.387 134.26,99.659C135.869,100.01 137.522,100.191 139.182,100.191C142.872,100.191 146.396,99.342 149.657,97.667C152.766,96.071 155.518,93.741 157.61,90.93C157.865,90.585 157.795,90.1 157.452,89.845L157.452,89.849ZM132.925,98.871C132.706,99.25 132.355,99.52 131.932,99.633C131.51,99.746 131.068,99.688 130.691,99.469C130.312,99.25 130.042,98.899 129.929,98.475C129.816,98.054 129.874,97.612 130.093,97.235C130.312,96.856 130.663,96.586 131.087,96.473C131.227,96.435 131.37,96.416 131.512,96.416C131.796,96.416 132.076,96.49 132.328,96.635C132.706,96.854 132.977,97.205 133.089,97.629C133.202,98.05 133.145,98.493 132.925,98.869L132.925,98.871Z" style="fill:rgb(3,83,164);"/>
            </g>
        </g>
    </g>
</svg>
