<?xml version="1.0" encoding="UTF-8" standalone="no"?>
<!DOCTYPE svg PUBLIC "-//W3C//DTD SVG 1.1//EN" "http://www.w3.org/Graphics/SVG/1.1/DTD/svg11.dtd">
<svg width="100%" height="100%" viewBox="0 0 72 72" version="1.1" xmlns="http://www.w3.org/2000/svg" xmlns:xlink="http://www.w3.org/1999/xlink" xml:space="preserve" xmlns:serif="http://www.serif.com/" style="fill-rule:evenodd;clip-rule:evenodd;stroke-linejoin:round;stroke-miterlimit:2;">
    <g transform="matrix(1,0,0,1,-114,-6)">
        <g transform="matrix(1,0,0,1,94.795,-35.201)">
            <path d="M54.708,41.201C74.303,41.201 90.211,57.11 90.211,76.705C90.211,96.299 74.303,112.208 54.708,112.208C35.113,112.208 19.205,96.299 19.205,76.705C19.205,57.11 35.113,41.201 54.708,41.201ZM76.213,80.564L71.157,69.734L73.34,70.36C73.421,70.383 73.504,70.395 73.589,70.395C74.084,70.395 74.492,69.987 74.492,69.492C74.492,69.09 74.224,68.735 73.838,68.624L58.662,64.269C58.665,64.204 58.667,64.139 58.667,64.073C58.667,61.902 56.88,60.115 54.709,60.115C53.277,60.115 51.952,60.893 51.254,62.143L36.077,57.788C35.996,57.765 35.912,57.753 35.828,57.753C35.332,57.753 34.925,58.161 34.925,58.656C34.925,59.058 35.193,59.414 35.579,59.524L38.574,60.384L33.149,72.002C32.788,72.129 32.545,72.471 32.544,72.854L32.544,72.856C32.544,76.828 35.813,80.096 39.784,80.096C41.709,80.096 43.556,79.329 44.914,77.965C46.291,76.622 47.071,74.778 47.074,72.854C47.074,72.451 46.804,72.095 46.416,71.986L41.375,61.188L50.755,63.879C50.752,63.944 50.75,64.009 50.75,64.074C50.752,65.905 52.023,67.508 53.805,67.928L53.805,85.813L51.313,85.813C49.322,85.813 47.665,87.412 47.665,89.403L47.665,89.927C45.995,90.279 44.786,91.76 44.776,93.466L44.776,94.731C44.791,95.237 45.208,95.648 45.715,95.656L63.702,95.656C64.209,95.648 64.626,95.237 64.641,94.731L64.641,93.466C64.63,91.76 63.421,90.279 61.751,89.927L61.751,89.403C61.751,87.412 60.095,85.813 58.103,85.813L55.611,85.813L55.611,67.928C56.693,67.672 57.619,66.974 58.162,66.004L68.383,68.937L62.947,80.58C62.586,80.707 62.342,81.049 62.342,81.432L62.342,81.434C62.342,85.406 65.61,88.674 69.581,88.674C71.506,88.674 73.353,87.906 74.711,86.543C76.089,85.199 76.868,83.356 76.872,81.432C76.871,81.029 76.601,80.673 76.213,80.564ZM39.787,78.247C37.139,78.262 34.85,76.327 34.425,73.714L45.189,73.714C44.731,76.326 42.439,78.25 39.787,78.247ZM62.835,93.466L62.835,93.85L46.582,93.85L46.582,93.466C46.582,92.471 47.428,91.683 48.424,91.683L60.993,91.683C61.988,91.683 62.835,92.471 62.835,93.466ZM39.787,62.011L44.407,71.908L35.167,71.908L39.787,62.011ZM54.708,66.227L54.707,66.227C53.525,66.227 52.553,65.254 52.553,64.073C52.553,62.891 53.525,61.919 54.707,61.919C55.888,61.919 56.861,62.891 56.861,64.073C56.861,64.243 56.841,64.413 56.801,64.578C56.789,64.607 56.779,64.636 56.771,64.666C56.762,64.695 56.755,64.725 56.75,64.755C56.457,65.631 55.632,66.225 54.708,66.227ZM59.945,89.403L59.945,89.877L49.471,89.877L49.471,89.403C49.471,88.407 50.317,87.619 51.313,87.619L58.103,87.619C59.099,87.619 59.945,88.407 59.945,89.403ZM74.204,80.486L64.964,80.486L69.584,70.59L74.204,80.486ZM69.584,86.825C66.936,86.84 64.648,84.906 64.223,82.292L74.986,82.292C74.529,84.904 72.236,86.828 69.584,86.825Z" style="fill:rgb(3,83,164);"/>
        </g>
    </g>
</svg>
