<?xml version="1.0" encoding="UTF-8" standalone="no"?>
<!DOCTYPE svg PUBLIC "-//W3C//DTD SVG 1.1//EN" "http://www.w3.org/Graphics/SVG/1.1/DTD/svg11.dtd">
<svg width="100%" height="100%" viewBox="0 0 72 72" version="1.1" xmlns="http://www.w3.org/2000/svg" xmlns:xlink="http://www.w3.org/1999/xlink" xml:space="preserve" xmlns:serif="http://www.serif.com/" style="fill-rule:evenodd;clip-rule:evenodd;stroke-linejoin:round;stroke-miterlimit:2;">
    <g transform="matrix(1,0,0,1,-99,-11)">
        <g transform="matrix(1,0,0,1,-89,5)">
            <g transform="matrix(1,0,0,1,168.795,-35.201)">
                <path d="M54.708,41.201C74.303,41.201 90.211,57.11 90.211,76.705C90.211,96.299 74.303,112.208 54.708,112.208C35.113,112.208 19.205,96.299 19.205,76.705C19.205,57.11 35.113,41.201 54.708,41.201ZM44.892,57.205C41.242,57.205 38.245,60.198 38.245,63.838C38.245,63.952 38.253,64.058 38.258,64.171L38.258,64.226L38.272,89.349C38.253,89.426 38.243,89.505 38.245,89.585C38.245,93.152 41.081,96.104 44.643,96.205L66.124,96.205C68.894,96.205 71.04,93.649 71.04,90.679L71.04,69.572C71.04,69.108 70.618,68.686 70.154,68.686L44.837,68.686C42.175,68.656 40.017,66.49 40.017,63.838C40.017,61.169 42.205,58.977 44.892,58.977L70.154,58.977C70.622,58.984 71.054,58.559 71.054,58.091C71.054,57.623 70.622,57.198 70.154,57.205L44.892,57.205ZM40.031,68.326C41.044,69.411 42.416,70.155 43.951,70.375L43.951,94.363C41.758,93.958 40.106,92.069 40.017,89.778C40.034,89.715 40.043,89.65 40.045,89.585L40.031,68.326ZM50.155,70.458L53.701,70.458L53.701,77.951L52.468,76.428C52.125,76.013 51.386,76.035 51.069,76.469L50.155,77.716L50.155,70.458ZM46.234,62.966L46.222,62.966C45.736,62.966 45.335,63.366 45.335,63.852C45.335,64.339 45.736,64.739 46.222,64.739L46.234,64.739L70.273,64.739L70.285,64.739C70.771,64.739 71.172,64.339 71.172,63.852C71.172,63.366 70.771,62.966 70.285,62.966L70.273,62.966L46.234,62.966ZM46.234,66.068L46.222,66.068C45.736,66.068 45.335,66.468 45.335,66.955C45.335,67.441 45.736,67.841 46.222,67.841L46.234,67.841L70.273,67.841L70.285,67.841C70.771,67.841 71.172,67.441 71.172,66.955C71.172,66.468 70.771,66.068 70.285,66.068L70.273,66.068L46.234,66.068ZM46.234,60.307L46.222,60.307C45.736,60.307 45.335,60.707 45.335,61.193C45.335,61.679 45.736,62.08 46.222,62.08L46.234,62.08L70.273,62.08L70.285,62.08C70.771,62.08 71.172,61.679 71.172,61.193C71.172,60.707 70.771,60.307 70.285,60.307L70.273,60.307L46.234,60.307Z" style="fill:rgb(3,83,164);"/>
            </g>
        </g>
    </g>
</svg>
