<?xml version="1.0" encoding="UTF-8" standalone="no"?>
<!DOCTYPE svg PUBLIC "-//W3C//DTD SVG 1.1//EN" "http://www.w3.org/Graphics/SVG/1.1/DTD/svg11.dtd">
<svg width="100%" height="100%" viewBox="0 0 72 72" version="1.1" xmlns="http://www.w3.org/2000/svg" xmlns:xlink="http://www.w3.org/1999/xlink" xml:space="preserve" xmlns:serif="http://www.serif.com/" style="fill-rule:evenodd;clip-rule:evenodd;stroke-linejoin:round;stroke-miterlimit:2;">
    <g transform="matrix(1,0,0,1,-0.000408,0.00035)">
        <g transform="matrix(1,0,0,1,-19.4968,-31.9968)">
            <g transform="matrix(1,0,0,1,0.292208,-9.20455)">
                <path d="M54.708,41.201C74.303,41.201 90.211,57.11 90.211,76.705C90.211,96.299 74.303,112.208 54.708,112.208C35.113,112.208 19.205,96.299 19.205,76.705C19.205,57.11 35.113,41.201 54.708,41.201ZM35.191,78.089C35.354,78.669 35.599,79.221 35.922,79.728C35.524,80.612 34.739,82.782 35.394,84.977C35.84,86.413 36.812,87.63 38.114,88.38C38.08,90.707 39.021,94.455 42.865,95.542L42.865,95.544C43.856,97.629 45.978,98.94 48.288,98.889C48.375,98.889 48.467,98.887 48.556,98.883C51.722,98.767 53.679,97.169 54.708,95.291C55.736,97.169 57.693,98.769 60.862,98.885C60.953,98.889 61.04,98.891 61.13,98.891L61.13,98.889C63.438,98.94 65.559,97.629 66.551,95.544C70.397,94.457 71.336,90.709 71.301,88.382L71.301,88.38C72.604,87.63 73.575,86.415 74.021,84.977C74.677,82.782 73.892,80.612 73.494,79.728C73.817,79.221 74.064,78.669 74.224,78.089C75.113,74.979 73.847,72.872 72.709,71.87C73.176,70.393 73.074,68.795 72.423,67.389C71.255,64.974 68.695,64.036 68.464,63.955C68.604,62.318 68.208,59.947 65.945,58.994C65.458,58.787 64.955,58.623 64.438,58.505C64.389,57.834 63.896,55.181 59.158,54.591C57.868,54.355 56.539,54.7 55.527,55.536C55.207,55.818 54.929,56.148 54.708,56.515C54.487,56.148 54.209,55.818 53.888,55.536C52.876,54.7 51.548,54.355 50.258,54.591C45.522,55.183 45.027,57.834 44.978,58.505C44.461,58.623 43.958,58.787 43.471,58.994C41.207,59.947 40.814,62.318 40.954,63.957C40.723,64.038 38.163,64.975 36.995,67.391L36.993,67.389C36.343,68.795 36.24,70.393 36.707,71.87C35.569,72.872 34.303,74.979 35.191,78.089ZM61.892,90.984C62.135,90.895 62.367,90.784 62.59,90.652C64.494,89.5 64.912,87.194 64.928,87.096C65.007,86.6 64.675,86.133 64.18,86.046C63.685,85.961 63.212,86.287 63.119,86.78C62.933,87.709 62.399,88.535 61.628,89.086C60.884,89.532 59.892,89.561 58.685,89.171L58.687,89.173C58.205,89.017 57.687,89.283 57.531,89.766C57.377,90.248 57.641,90.764 58.123,90.92C58.754,91.131 59.409,91.25 60.075,91.277C60.521,93.441 62.235,95.122 64.407,95.528C63.577,96.589 62.269,97.159 60.927,97.047C56.708,96.895 55.86,93.656 55.696,92.565L55.695,78.405C55.819,77.714 56.063,77.046 56.411,76.436C56.945,75.371 58.111,74.781 59.286,74.977C59.789,75.04 60.249,74.683 60.312,74.18C60.375,73.677 60.018,73.217 59.515,73.154C58.117,72.929 56.697,73.383 55.695,74.381L55.695,66.55C55.833,66.448 55.939,66.312 56.004,66.156C56.03,66.091 56.643,64.586 58.123,64.517L58.123,64.515C58.628,64.489 59.018,64.059 58.993,63.554C58.969,63.049 58.541,62.659 58.036,62.68C57.178,62.716 56.355,63.035 55.695,63.586L55.695,59.43C55.695,59.414 55.744,57.773 56.74,56.915C57.361,56.436 58.162,56.252 58.931,56.412C61.718,56.761 62.389,57.864 62.553,58.359C62.109,58.398 61.671,58.501 61.257,58.668C60.312,59.049 59.549,59.775 59.119,60.7C58.931,61.162 59.15,61.694 59.61,61.887C60.075,62.083 60.61,61.87 60.815,61.41C60.914,61.187 61.878,59.274 65.233,60.686C66.622,61.27 66.709,62.846 66.636,63.745C65.216,63.678 63.823,64.138 62.724,65.037C60.427,66.986 60.47,70.385 60.474,70.529C60.484,71.028 60.892,71.428 61.391,71.426L61.407,71.426C61.914,71.418 62.318,71 62.31,70.493C62.31,70.466 62.289,67.805 63.918,66.43C64.847,65.645 66.188,65.404 67.906,65.708L67.906,65.71C69.119,66.178 70.131,67.057 70.768,68.191C71.145,69.006 71.249,69.921 71.066,70.801C69.861,70.172 68.46,70.034 67.155,70.418C66.92,70.491 66.723,70.653 66.61,70.872C66.494,71.089 66.474,71.345 66.549,71.58C66.624,71.813 66.79,72.008 67.011,72.117C67.232,72.229 67.486,72.245 67.719,72.166C68.677,71.919 69.693,72.073 70.533,72.592L70.522,72.62L71.167,73.008C71.257,73.063 73.372,74.377 72.455,77.584C71.556,80.734 68.289,80.494 68.101,80.478L68.097,80.478C67.595,80.434 67.151,80.8 67.101,81.299C67.048,81.803 67.413,82.251 67.914,82.306C68.088,82.324 68.263,82.332 68.437,82.332C69.744,82.332 71.017,81.936 72.092,81.196C72.472,82.243 72.53,83.381 72.257,84.462C71.869,85.61 71.025,86.547 69.926,87.054L69.381,87.342L69.441,87.954L69.441,87.956C69.492,88.864 69.386,89.772 69.129,90.646C68.715,92.273 67.401,93.518 65.754,93.847C65.147,93.841 62.543,93.656 61.892,90.984ZM48.027,71.428C48.525,71.427 48.931,71.027 48.943,70.529C48.945,70.385 48.988,66.986 46.694,65.036L46.692,65.036C45.593,64.138 44.199,63.677 42.781,63.744C42.708,62.844 42.798,61.27 44.185,60.686C47.532,59.276 48.499,61.177 48.603,61.408L48.601,61.408C48.799,61.872 49.335,62.087 49.799,61.895C50.266,61.7 50.487,61.166 50.296,60.7C49.866,59.775 49.104,59.049 48.158,58.668C47.745,58.501 47.311,58.398 46.866,58.361C47.037,57.848 47.72,56.759 50.485,56.414L50.485,56.412C51.254,56.252 52.055,56.436 52.678,56.917C53.671,57.775 53.722,59.414 53.722,59.414L53.722,63.408L53.72,63.408C53.105,62.965 52.373,62.712 51.615,62.682C51.11,62.659 50.682,63.051 50.659,63.554C50.635,64.059 51.022,64.489 51.527,64.515C53.004,64.586 53.619,66.081 53.647,66.154C53.667,66.199 53.694,66.241 53.72,66.282L53.72,74.379C52.716,73.383 51.298,72.929 49.903,73.156C49.398,73.219 49.041,73.677 49.104,74.18C49.166,74.683 49.627,75.04 50.13,74.977C53.006,74.616 53.633,77.839 53.72,78.403L53.72,92.565C53.556,93.656 52.706,96.895 48.489,97.047C47.148,97.159 45.84,96.587 45.013,95.526C47.185,95.118 48.895,93.441 49.343,91.277C50.006,91.25 50.664,91.131 51.292,90.92C51.775,90.765 52.041,90.248 51.885,89.765C51.73,89.283 51.213,89.017 50.73,89.173C49.524,89.563 48.534,89.534 47.787,89.088L47.787,89.086C47.017,88.534 46.485,87.709 46.297,86.78C46.205,86.283 45.733,85.954 45.236,86.039C44.739,86.127 44.404,86.599 44.487,87.096C44.503,87.194 44.921,89.5 46.826,90.652C47.049,90.784 47.282,90.895 47.526,90.985C46.873,93.66 44.264,93.849 43.662,93.849C39.567,92.926 39.958,88.157 39.976,87.954L40.037,87.339L39.492,87.051L39.492,87.053C38.39,86.546 37.546,85.609 37.159,84.463C36.885,83.382 36.944,82.244 37.323,81.196C38.398,81.936 39.674,82.332 40.978,82.332C41.153,82.332 41.327,82.323 41.502,82.305C42.007,82.254 42.376,81.806 42.325,81.301C42.274,80.796 41.824,80.427 41.321,80.478C41.177,80.488 37.865,80.76 36.958,77.583C36.041,74.376 38.157,73.062 38.24,73.012L38.907,72.628L38.893,72.586C39.73,72.07 40.744,71.919 41.696,72.166C41.927,72.243 42.181,72.223 42.4,72.113C42.617,72.002 42.783,71.809 42.858,71.576C42.933,71.342 42.913,71.089 42.8,70.872C42.688,70.655 42.493,70.491 42.26,70.418C40.956,70.034 39.554,70.17 38.349,70.799C38.169,69.925 38.27,69.016 38.642,68.203C39.274,67.061 40.291,66.178 41.51,65.708C43.228,65.404 44.568,65.645 45.497,66.43C47.122,67.801 47.108,70.446 47.106,70.493C47.098,71 47.499,71.417 48.006,71.428L48.027,71.428Z" style="fill:rgb(141,82,161);"/>
            </g>
        </g>
    </g>
</svg>
