<?xml version="1.0" encoding="UTF-8" standalone="no"?>
<!DOCTYPE svg PUBLIC "-//W3C//DTD SVG 1.1//EN" "http://www.w3.org/Graphics/SVG/1.1/DTD/svg11.dtd">
<svg width="100%" height="100%" viewBox="0 0 72 72" version="1.1" xmlns="http://www.w3.org/2000/svg" xmlns:xlink="http://www.w3.org/1999/xlink" xml:space="preserve" xmlns:serif="http://www.serif.com/" style="fill-rule:evenodd;clip-rule:evenodd;stroke-linejoin:round;stroke-miterlimit:2;">
    <g transform="matrix(1,0,0,1,-201,-6)">
        <g transform="matrix(1,0,0,1,2.5032,-24.9968)">
            <g transform="matrix(1,0,0,1,179.292,-10.2042)">
                <path d="M54.708,41.201C74.303,41.201 90.211,57.11 90.211,76.705C90.211,96.299 74.303,112.208 54.708,112.208C35.113,112.208 19.205,96.299 19.205,76.705C19.205,57.11 35.113,41.201 54.708,41.201ZM66.501,74.387L66.499,74.385C66.074,74.385 65.654,74.411 65.241,74.46L64.549,70.762C65.348,70.469 66.066,70.006 66.656,69.417C67.698,68.373 68.345,66.93 68.345,65.337C68.345,63.744 67.698,62.3 66.656,61.257C65.612,60.215 64.169,59.568 62.576,59.568C60.983,59.568 59.539,60.215 58.496,61.257C57.454,62.302 56.807,63.744 56.807,65.337C56.807,66.93 57.454,68.375 58.496,69.417C59.54,70.46 60.983,71.106 62.576,71.106L62.699,71.104L63.401,74.853C61.78,75.359 60.331,76.251 59.159,77.422C58.629,77.953 58.155,78.54 57.75,79.174L51.297,74.764C52.552,73.047 53.292,70.933 53.292,68.645C53.292,65.779 52.132,63.186 50.253,61.307C48.376,59.43 45.781,58.268 42.915,58.268C40.051,58.268 37.456,59.428 35.577,61.307C33.7,63.184 32.538,65.779 32.538,68.645C32.538,71.509 33.698,74.104 35.577,75.983C37.454,77.86 40.049,79.022 42.915,79.022C45.676,79.022 48.185,77.945 50.045,76.186L56.881,80.857C56.391,82.063 56.122,83.38 56.122,84.762L56.122,84.782L46.798,84.272C46.654,83.673 46.347,83.139 45.927,82.719C45.332,82.126 44.512,81.758 43.606,81.758C42.7,81.758 41.878,82.126 41.285,82.719C40.692,83.312 40.323,84.134 40.323,85.04C40.323,85.946 40.692,86.768 41.285,87.361C41.878,87.954 42.7,88.322 43.606,88.322C44.512,88.322 45.334,87.954 45.927,87.361C46.264,87.022 46.529,86.609 46.695,86.151L56.299,86.676C56.691,88.776 57.713,90.653 59.163,92.102C61.04,93.979 63.635,95.141 66.501,95.141C69.367,95.141 71.96,93.981 73.839,92.102C75.716,90.225 76.878,87.63 76.878,84.764C76.878,81.898 75.718,79.305 73.839,77.426C71.962,75.549 69.367,74.387 66.501,74.387ZM66.504,80.673L66.501,80.673C65.596,80.674 64.775,81.042 64.183,81.635C63.59,82.228 63.221,83.049 63.221,83.956C63.221,84.862 63.59,85.683 64.183,86.277C64.251,86.345 64.321,86.409 64.395,86.47C63.65,86.763 62.98,87.207 62.425,87.761C61.558,88.629 60.965,89.773 60.79,91.049C60.69,90.959 60.593,90.865 60.499,90.771C58.963,89.235 58.012,87.111 58.012,84.766C58.012,82.422 58.963,80.298 60.499,78.762C62.035,77.226 64.159,76.275 66.503,76.275C68.848,76.275 70.972,77.226 72.508,78.762C74.044,80.298 74.995,82.422 74.995,84.766C74.995,87.111 74.044,89.235 72.508,90.771C72.412,90.867 72.316,90.959 72.217,91.049C72.042,89.773 71.449,88.629 70.581,87.761C70.025,87.205 69.356,86.763 68.612,86.47C68.684,86.409 68.754,86.345 68.822,86.277C69.415,85.682 69.784,84.862 69.784,83.956C69.784,83.049 69.415,82.228 68.822,81.635C68.228,81.042 67.409,80.674 66.504,80.673ZM44.593,84.053C44.845,84.306 45.002,84.656 45.002,85.041C45.002,85.426 44.845,85.776 44.593,86.028C44.34,86.28 43.99,86.437 43.605,86.437C43.22,86.437 42.87,86.28 42.618,86.028C42.366,85.776 42.209,85.426 42.209,85.041C42.209,84.656 42.366,84.306 42.618,84.053C42.87,83.801 43.22,83.644 43.605,83.644C43.99,83.644 44.34,83.801 44.593,84.053ZM70.355,92.334C69.198,92.924 67.888,93.257 66.501,93.257C65.114,93.257 63.805,92.924 62.648,92.334C62.629,92.169 62.618,92.007 62.618,91.839C62.618,90.767 63.053,89.794 63.755,89.093C64.459,88.391 65.429,87.956 66.501,87.956C67.573,87.956 68.546,88.391 69.248,89.093C69.949,89.796 70.384,90.767 70.384,91.839C70.384,92.001 70.377,92.174 70.355,92.334ZM67.489,82.968C67.741,83.221 67.897,83.571 67.897,83.956C67.897,84.341 67.741,84.691 67.489,84.943C67.236,85.195 66.886,85.352 66.501,85.352C66.116,85.352 65.766,85.195 65.514,84.943C65.262,84.69 65.105,84.341 65.105,83.956C65.105,83.571 65.262,83.221 65.514,82.968C65.766,82.716 66.116,82.559 66.501,82.559C66.886,82.559 67.236,82.716 67.489,82.968ZM65.324,62.594C66.026,63.298 66.46,64.269 66.46,65.341C66.46,66.413 66.026,67.385 65.324,68.087C64.62,68.789 63.65,69.224 62.578,69.224C61.506,69.224 60.533,68.789 59.831,68.087C59.129,67.383 58.695,66.413 58.695,65.341C58.695,64.269 59.129,63.296 59.831,62.594C60.535,61.893 61.506,61.458 62.578,61.458C63.65,61.458 64.622,61.893 65.324,62.594ZM43.904,66.851C44.156,67.104 44.313,67.454 44.313,67.839C44.313,68.224 44.156,68.574 43.904,68.826C43.652,69.078 43.302,69.235 42.917,69.235C42.532,69.235 42.182,69.078 41.929,68.826C41.677,68.574 41.521,68.224 41.521,67.839C41.521,67.454 41.677,67.104 41.929,66.851C42.182,66.599 42.532,66.443 42.917,66.443C43.302,66.443 43.652,66.599 43.904,66.851ZM48.921,62.643L48.924,62.643C50.46,64.179 51.41,66.302 51.41,68.647C51.41,70.992 50.46,73.116 48.924,74.652C48.828,74.747 48.732,74.84 48.633,74.93C48.458,73.653 47.864,72.509 46.997,71.642C46.441,71.086 45.772,70.644 45.028,70.351C45.1,70.29 45.17,70.225 45.238,70.157C45.831,69.562 46.199,68.743 46.199,67.836C46.199,66.93 45.831,66.109 45.238,65.516C44.643,64.922 43.823,64.554 42.917,64.554C42.011,64.554 41.189,64.922 40.596,65.516C40.003,66.109 39.635,66.93 39.635,67.836C39.635,68.743 40.003,69.564 40.596,70.157C40.664,70.225 40.734,70.29 40.808,70.351C40.064,70.644 39.393,71.087 38.839,71.642C37.971,72.51 37.378,73.653 37.203,74.93C37.104,74.84 37.006,74.746 36.912,74.652C35.376,73.116 34.426,70.992 34.426,68.647C34.426,66.302 35.376,64.179 36.912,62.643C38.448,61.106 40.572,60.156 42.917,60.156C45.261,60.156 47.385,61.106 48.921,62.643ZM39.063,76.218C39.045,76.052 39.034,75.89 39.034,75.722C39.034,74.65 39.469,73.678 40.17,72.976C40.874,72.274 41.845,71.839 42.917,71.839C43.989,71.839 44.961,72.274 45.663,72.976C46.365,73.679 46.8,74.65 46.8,75.722C46.8,75.884 46.792,76.057 46.77,76.218C45.613,76.807 44.304,77.14 42.917,77.14C41.53,77.14 40.22,76.807 39.063,76.218Z" style="fill:rgb(141,82,161);"/>
            </g>
        </g>
    </g>
</svg>
