<?xml version="1.0" encoding="UTF-8" standalone="no"?>
<!DOCTYPE svg PUBLIC "-//W3C//DTD SVG 1.1//EN" "http://www.w3.org/Graphics/SVG/1.1/DTD/svg11.dtd">
<svg width="100%" height="100%" viewBox="0 0 1636 416" version="1.1" xmlns="http://www.w3.org/2000/svg" xmlns:xlink="http://www.w3.org/1999/xlink" xml:space="preserve" xmlns:serif="http://www.serif.com/" style="fill-rule:evenodd;clip-rule:evenodd;stroke-linejoin:round;stroke-miterlimit:2;">
    <g transform="matrix(1,0,0,1,-335.759,-2113.06)">
        <g transform="matrix(1,0,0,1,60,1599.66)">
            <path d="M312.5,562C313.567,563.333 314.9,565.1 316.5,567.3C318.167,569.433 319.867,571.833 321.6,574.5C323.333,577.1 325.033,579.833 326.7,582.7C328.433,585.567 329.9,588.333 331.1,591L320.5,591C319.167,588.467 317.7,585.9 316.1,583.3C314.567,580.7 313,578.233 311.4,575.9C309.8,573.5 308.2,571.267 306.6,569.2C305.067,567.133 303.667,565.333 302.4,563.8C301.533,563.867 300.633,563.9 299.7,563.9L288.3,563.9L288.3,591L278.6,591L278.6,522.7C281.333,522.033 284.367,521.6 287.7,521.4C291.1,521.133 294.2,521 297,521C306.733,521 314.133,522.833 319.2,526.5C324.333,530.167 326.9,535.633 326.9,542.9C326.9,547.5 325.667,551.433 323.2,554.7C320.8,557.967 317.233,560.4 312.5,562ZM297.8,529.5C293.667,529.5 290.5,529.6 288.3,529.8L288.3,555.9L295.2,555.9C298.533,555.9 301.533,555.733 304.2,555.4C306.867,555.067 309.1,554.433 310.9,553.5C312.767,552.567 314.2,551.267 315.2,549.6C316.2,547.867 316.7,545.6 316.7,542.8C316.7,540.2 316.2,538.033 315.2,536.3C314.2,534.567 312.833,533.2 311.1,532.2C309.433,531.2 307.433,530.5 305.1,530.1C302.833,529.7 300.4,529.5 297.8,529.5Z" style="fill:white;fill-rule:nonzero;"/>
            <path d="M338,565.1C338,560.5 338.667,556.5 340,553.1C341.333,549.633 343.1,546.767 345.3,544.5C347.5,542.233 350.033,540.533 352.9,539.4C355.767,538.267 358.7,537.7 361.7,537.7C368.7,537.7 374.067,539.9 377.8,544.3C381.533,548.633 383.4,555.267 383.4,564.2L383.4,565.8C383.4,566.4 383.367,566.967 383.3,567.5L347.7,567.5C348.1,572.9 349.667,577 352.4,579.8C355.133,582.6 359.4,584 365.2,584C368.467,584 371.2,583.733 373.4,583.2C375.667,582.6 377.367,582.033 378.5,581.5L379.8,589.3C378.667,589.9 376.667,590.533 373.8,591.2C371,591.867 367.8,592.2 364.2,592.2C359.667,592.2 355.733,591.533 352.4,590.2C349.133,588.8 346.433,586.9 344.3,584.5C342.167,582.1 340.567,579.267 339.5,576C338.5,572.667 338,569.033 338,565.1ZM373.7,560C373.767,555.8 372.7,552.367 370.5,549.7C368.367,546.967 365.4,545.6 361.6,545.6C359.467,545.6 357.567,546.033 355.9,546.9C354.3,547.7 352.933,548.767 351.8,550.1C350.667,551.433 349.767,552.967 349.1,554.7C348.5,556.433 348.1,558.2 347.9,560L373.7,560Z" style="fill:white;fill-rule:nonzero;"/>
            <path d="M419.4,592.2C415.2,592.2 411.5,591.533 408.3,590.2C405.167,588.867 402.5,587 400.3,584.6C398.167,582.2 396.567,579.367 395.5,576.1C394.433,572.767 393.9,569.1 393.9,565.1C393.9,561.1 394.467,557.433 395.6,554.1C396.8,550.767 398.467,547.9 400.6,545.5C402.733,543.033 405.333,541.133 408.4,539.8C411.533,538.4 415,537.7 418.8,537.7C421.133,537.7 423.467,537.9 425.8,538.3C428.133,538.7 430.367,539.333 432.5,540.2L430.4,548.1C429,547.433 427.367,546.9 425.5,546.5C423.7,546.1 421.767,545.9 419.7,545.9C414.5,545.9 410.5,547.533 407.7,550.8C404.967,554.067 403.6,558.833 403.6,565.1C403.6,567.9 403.9,570.467 404.5,572.8C405.167,575.133 406.167,577.133 407.5,578.8C408.9,580.467 410.667,581.767 412.8,582.7C414.933,583.567 417.533,584 420.6,584C423.067,584 425.3,583.767 427.3,583.3C429.3,582.833 430.867,582.333 432,581.8L433.3,589.6C432.767,589.933 432,590.267 431,590.6C430,590.867 428.867,591.1 427.6,591.3C426.333,591.567 424.967,591.767 423.5,591.9C422.1,592.1 420.733,592.2 419.4,592.2Z" style="fill:white;fill-rule:nonzero;"/>
            <path d="M440.4,565.1C440.4,560.5 441.067,556.5 442.4,553.1C443.733,549.633 445.5,546.767 447.7,544.5C449.9,542.233 452.433,540.533 455.3,539.4C458.167,538.267 461.1,537.7 464.1,537.7C471.1,537.7 476.467,539.9 480.2,544.3C483.933,548.633 485.8,555.267 485.8,564.2L485.8,565.8C485.8,566.4 485.767,566.967 485.7,567.5L450.1,567.5C450.5,572.9 452.067,577 454.8,579.8C457.533,582.6 461.8,584 467.6,584C470.867,584 473.6,583.733 475.8,583.2C478.067,582.6 479.767,582.033 480.9,581.5L482.2,589.3C481.067,589.9 479.067,590.533 476.2,591.2C473.4,591.867 470.2,592.2 466.6,592.2C462.067,592.2 458.133,591.533 454.8,590.2C451.533,588.8 448.833,586.9 446.7,584.5C444.567,582.1 442.967,579.267 441.9,576C440.9,572.667 440.4,569.033 440.4,565.1ZM476.1,560C476.167,555.8 475.1,552.367 472.9,549.7C470.767,546.967 467.8,545.6 464,545.6C461.867,545.6 459.967,546.033 458.3,546.9C456.7,547.7 455.333,548.767 454.2,550.1C453.067,551.433 452.167,552.967 451.5,554.7C450.9,556.433 450.5,558.2 450.3,560L476.1,560Z" style="fill:white;fill-rule:nonzero;"/>
            <path d="M535.3,565.1C535.3,559.033 533.8,554.367 530.8,551.1C527.8,547.833 523.8,546.2 518.8,546.2C516,546.2 513.8,546.3 512.2,546.5C510.667,546.7 509.433,546.933 508.5,547.2L508.5,580C509.633,580.933 511.267,581.833 513.4,582.7C515.533,583.567 517.867,584 520.4,584C523.067,584 525.333,583.533 527.2,582.6C529.133,581.6 530.7,580.267 531.9,578.6C533.1,576.867 533.967,574.867 534.5,572.6C535.033,570.267 535.3,567.767 535.3,565.1ZM545,565.1C545,569.033 544.467,572.667 543.4,576C542.4,579.333 540.9,582.2 538.9,584.6C536.9,587 534.433,588.867 531.5,590.2C528.633,591.533 525.333,592.2 521.6,592.2C518.6,592.2 515.933,591.8 513.6,591C511.333,590.2 509.633,589.433 508.5,588.7L508.5,609.5L499.2,609.5L499.2,540.6C501.4,540.067 504.133,539.5 507.4,538.9C510.733,538.233 514.567,537.9 518.9,537.9C522.9,537.9 526.5,538.533 529.7,539.8C532.9,541.067 535.633,542.867 537.9,545.2C540.167,547.533 541.9,550.4 543.1,553.8C544.367,557.133 545,560.9 545,565.1Z" style="fill:white;fill-rule:nonzero;"/>
            <path d="M581.9,592.2L580.8,594.7C582.733,595.633 584.133,596.633 585,597.7C585.867,598.833 586.3,600.467 586.3,602.6C586.3,603.333 586.133,604.133 585.8,605C585.467,605.867 584.9,606.667 584.1,607.4C583.3,608.133 582.233,608.733 580.9,609.2C579.567,609.667 577.933,609.9 576,609.9C574.267,609.9 572.667,609.767 571.2,609.5C569.8,609.233 568.667,608.933 567.8,608.6L568.9,602.9C569.7,603.167 570.533,603.4 571.4,603.6C572.333,603.8 573.367,603.9 574.5,603.9C576.9,603.9 578.1,603.133 578.1,601.6C578.1,600.867 577.733,600.233 577,599.7C576.267,599.233 575.233,598.733 573.9,598.2L573.2,597.9C573.467,597.1 573.833,596.133 574.3,595C574.767,593.867 575.267,592.8 575.8,591.8C572.4,591.333 569.4,590.367 566.8,588.9C564.267,587.367 562.133,585.433 560.4,583.1C558.667,580.767 557.367,578.1 556.5,575.1C555.633,572.033 555.2,568.7 555.2,565.1C555.2,561.1 555.767,557.433 556.9,554.1C558.1,550.767 559.767,547.9 561.9,545.5C564.033,543.033 566.633,541.133 569.7,539.8C572.833,538.4 576.3,537.7 580.1,537.7C582.433,537.7 584.767,537.9 587.1,538.3C589.433,538.7 591.667,539.333 593.8,540.2L591.7,548.1C590.3,547.433 588.667,546.9 586.8,546.5C585,546.1 583.067,545.9 581,545.9C575.8,545.9 571.8,547.533 569,550.8C566.267,554.067 564.9,558.833 564.9,565.1C564.9,567.9 565.2,570.467 565.8,572.8C566.467,575.133 567.467,577.133 568.8,578.8C570.2,580.467 571.967,581.767 574.1,582.7C576.233,583.567 578.833,584 581.9,584C584.367,584 586.6,583.767 588.6,583.3C590.6,582.833 592.167,582.333 593.3,581.8L594.6,589.6C594.067,589.867 593.333,590.167 592.4,590.5C591.533,590.767 590.533,591 589.4,591.2C588.267,591.467 587.033,591.667 585.7,591.8C584.433,592 583.167,592.133 581.9,592.2Z" style="fill:white;fill-rule:nonzero;"/>
            <path d="M622.2,584.3C624.4,584.3 626.333,584.267 628,584.2C629.733,584.067 631.167,583.867 632.3,583.6L632.3,568.1C631.633,567.767 630.533,567.5 629,567.3C627.533,567.033 625.733,566.9 623.6,566.9C622.2,566.9 620.7,567 619.1,567.2C617.567,567.4 616.133,567.833 614.8,568.5C613.533,569.1 612.467,569.967 611.6,571.1C610.733,572.167 610.3,573.6 610.3,575.4C610.3,578.733 611.367,581.067 613.5,582.4C615.633,583.667 618.533,584.3 622.2,584.3ZM621.4,537.7C625.133,537.7 628.267,538.2 630.8,539.2C633.4,540.133 635.467,541.5 637,543.3C638.6,545.033 639.733,547.133 640.4,549.6C641.067,552 641.4,554.667 641.4,557.6L641.4,590.1C640.6,590.233 639.467,590.433 638,590.7C636.6,590.9 635,591.1 633.2,591.3C631.4,591.5 629.433,591.667 627.3,591.8C625.233,592 623.167,592.1 621.1,592.1C618.167,592.1 615.467,591.8 613,591.2C610.533,590.6 608.4,589.667 606.6,588.4C604.8,587.067 603.4,585.333 602.4,583.2C601.4,581.067 600.9,578.5 600.9,575.5C600.9,572.633 601.467,570.167 602.6,568.1C603.8,566.033 605.4,564.367 607.4,563.1C609.4,561.833 611.733,560.9 614.4,560.3C617.067,559.7 619.867,559.4 622.8,559.4C623.733,559.4 624.7,559.467 625.7,559.6C626.7,559.667 627.633,559.8 628.5,560C629.433,560.133 630.233,560.267 630.9,560.4C631.567,560.533 632.033,560.633 632.3,560.7L632.3,558.1C632.3,556.567 632.133,555.067 631.8,553.6C631.467,552.067 630.867,550.733 630,549.6C629.133,548.4 627.933,547.467 626.4,546.8C624.933,546.067 623,545.7 620.6,545.7C617.533,545.7 614.833,545.933 612.5,546.4C610.233,546.8 608.533,547.233 607.4,547.7L606.3,540C607.5,539.467 609.5,538.967 612.3,538.5C615.1,537.967 618.133,537.7 621.4,537.7ZM639.4,519.9C639.067,520.7 638.6,521.633 638,522.7C637.467,523.767 636.767,524.767 635.9,525.7C635.033,526.567 634,527.333 632.8,528C631.667,528.6 630.4,528.9 629,528.9C627.667,528.9 626.4,528.667 625.2,528.2C624.067,527.733 622.967,527.233 621.9,526.7C620.767,526.167 619.8,525.767 619,525.5C618.2,525.233 617.433,525.1 616.7,525.1C615.567,525.1 614.5,525.567 613.5,526.5C612.567,527.433 611.833,528.433 611.3,529.5L606.5,527.1C606.767,526.3 607.2,525.367 607.8,524.3C608.4,523.233 609.133,522.267 610,521.4C610.867,520.467 611.867,519.7 613,519.1C614.2,518.433 615.5,518.1 616.9,518.1C618.233,518.1 619.467,518.333 620.6,518.8C621.8,519.267 622.933,519.767 624,520.3C625.133,520.833 626.1,521.233 626.9,521.5C627.7,521.767 628.467,521.9 629.2,521.9C630.333,521.9 631.367,521.433 632.3,520.5C633.3,519.567 634.067,518.567 634.6,517.5L639.4,519.9Z" style="fill:white;fill-rule:nonzero;"/>
            <path d="M702.7,565C702.7,569.133 702.1,572.867 700.9,576.2C699.7,579.533 698,582.4 695.8,584.8C693.667,587.2 691.1,589.067 688.1,590.4C685.1,591.667 681.833,592.3 678.3,592.3C674.767,592.3 671.5,591.667 668.5,590.4C665.5,589.067 662.9,587.2 660.7,584.8C658.567,582.4 656.9,579.533 655.7,576.2C654.5,572.867 653.9,569.133 653.9,565C653.9,560.933 654.5,557.233 655.7,553.9C656.9,550.5 658.567,547.6 660.7,545.2C662.9,542.8 665.5,540.967 668.5,539.7C671.5,538.367 674.767,537.7 678.3,537.7C681.833,537.7 685.1,538.367 688.1,539.7C691.1,540.967 693.667,542.8 695.8,545.2C698,547.6 699.7,550.5 700.9,553.9C702.1,557.233 702.7,560.933 702.7,565ZM693,565C693,559.133 691.667,554.5 689,551.1C686.4,547.633 682.833,545.9 678.3,545.9C673.767,545.9 670.167,547.633 667.5,551.1C664.9,554.5 663.6,559.133 663.6,565C663.6,570.867 664.9,575.533 667.5,579C670.167,582.4 673.767,584.1 678.3,584.1C682.833,584.1 686.4,582.4 689,579C691.667,575.533 693,570.867 693,565Z" style="fill:white;fill-rule:nonzero;"/>
            <path d="M772.5,550C771.367,549.067 769.733,548.167 767.6,547.3C765.467,546.433 763.133,546 760.6,546C757.933,546 755.633,546.5 753.7,547.5C751.833,548.433 750.3,549.767 749.1,551.5C747.9,553.167 747.033,555.167 746.5,557.5C745.967,559.833 745.7,562.333 745.7,565C745.7,571.067 747.2,575.767 750.2,579.1C753.2,582.367 757.2,584 762.2,584C764.733,584 766.833,583.9 768.5,583.7C770.233,583.433 771.567,583.167 772.5,582.9L772.5,550ZM772.5,515L781.8,513.4L781.8,589.5C779.667,590.1 776.933,590.7 773.6,591.3C770.267,591.9 766.433,592.2 762.1,592.2C758.1,592.2 754.5,591.567 751.3,590.3C748.1,589.033 745.367,587.233 743.1,584.9C740.833,582.567 739.067,579.733 737.8,576.4C736.6,573 736,569.2 736,565C736,561 736.5,557.333 737.5,554C738.567,550.667 740.1,547.8 742.1,545.4C744.1,543 746.533,541.133 749.4,539.8C752.333,538.467 755.667,537.8 759.4,537.8C762.4,537.8 765.033,538.2 767.3,539C769.633,539.8 771.367,540.567 772.5,541.3L772.5,515Z" style="fill:white;fill-rule:nonzero;"/>
            <path d="M794.9,565.1C794.9,560.5 795.567,556.5 796.9,553.1C798.233,549.633 800,546.767 802.2,544.5C804.4,542.233 806.933,540.533 809.8,539.4C812.667,538.267 815.6,537.7 818.6,537.7C825.6,537.7 830.967,539.9 834.7,544.3C838.433,548.633 840.3,555.267 840.3,564.2L840.3,565.8C840.3,566.4 840.267,566.967 840.2,567.5L804.6,567.5C805,572.9 806.567,577 809.3,579.8C812.033,582.6 816.3,584 822.1,584C825.367,584 828.1,583.733 830.3,583.2C832.567,582.6 834.267,582.033 835.4,581.5L836.7,589.3C835.567,589.9 833.567,590.533 830.7,591.2C827.9,591.867 824.7,592.2 821.1,592.2C816.567,592.2 812.633,591.533 809.3,590.2C806.033,588.8 803.333,586.9 801.2,584.5C799.067,582.1 797.467,579.267 796.4,576C795.4,572.667 794.9,569.033 794.9,565.1ZM830.6,560C830.667,555.8 829.6,552.367 827.4,549.7C825.267,546.967 822.3,545.6 818.5,545.6C816.367,545.6 814.467,546.033 812.8,546.9C811.2,547.7 809.833,548.767 808.7,550.1C807.567,551.433 806.667,552.967 806,554.7C805.4,556.433 805,558.2 804.8,560L830.6,560Z" style="fill:white;fill-rule:nonzero;"/>
            <path d="M383.638,882.103C339.488,882.103 325.667,837.953 325.667,793.035C325.667,746.198 340.64,698.593 383.638,698.593C410.128,698.593 438.538,711.262 454.278,740.055L472.706,677.861C450.055,661.353 422.029,652.523 381.719,652.523C306.088,652.523 275.759,725.083 275.759,795.723C275.759,862.907 306.088,928.172 381.719,928.172C418.19,928.172 450.055,919.342 472.706,902.834L454.278,840.64C438.538,869.434 410.128,882.103 383.638,882.103Z" style="fill:rgb(27,53,86);fill-rule:nonzero;"/>
            <path d="M536.819,924.333C531.061,889.013 534.516,856.765 542.578,825.284L627.423,825.284C635.101,856.765 638.94,889.013 633.181,924.333L681.938,924.333C697.295,828.739 643.163,750.037 620.512,655.594L548.721,655.594C527.605,748.885 472.706,827.587 486.911,924.333L536.819,924.333ZM556.783,779.214C565.613,753.876 575.978,728.154 585.192,701.28C594.406,728.154 604.772,753.876 613.602,779.214L556.783,779.214Z" style="fill:rgb(27,53,86);fill-rule:nonzero;"/>
            <path d="M735.686,924.333C750.659,925.101 763.328,925.101 775.229,925.101C798.648,925.101 818.995,924.333 848.557,924.333L848.557,865.211C816.308,880.951 792.505,884.79 755.266,882.487C741.445,804.553 744.132,737.752 764.096,655.594L714.571,655.594C696.143,750.421 695.375,829.123 714.571,924.333L735.686,924.333Z" style="fill:rgb(27,53,86);fill-rule:nonzero;"/>
            <path d="M971.793,928.94C1128.05,928.94 1121.52,651.755 971.793,651.755C821.299,651.755 815.156,928.94 971.793,928.94ZM971.793,701.664C1055.1,701.664 1061.24,879.032 971.793,879.032C881.573,879.032 887.716,701.664 971.793,701.664Z" style="fill:rgb(27,53,86);fill-rule:nonzero;"/>
            <path d="M1117.3,655.594C1101.17,737.368 1064.32,924.333 1197.15,924.333C1329.98,924.333 1291.21,737.368 1275.08,655.594L1225.56,655.594C1235.54,697.057 1276.24,878.264 1196,878.264C1116.53,878.264 1155.69,701.664 1166.82,655.594L1117.3,655.594Z" style="fill:rgb(27,53,86);fill-rule:nonzero;"/>
            <path d="M1374.52,924.333C1364.15,884.79 1358.39,847.935 1356.86,810.311L1376.44,810.311C1420.2,840.256 1425.19,885.174 1428.65,924.333L1488.15,924.333C1473.95,880.951 1464.74,847.551 1430.95,803.017C1501.98,772.688 1494.3,655.594 1394.1,655.594L1324.22,655.594C1305.8,756.947 1305.8,835.649 1324.99,924.333L1374.52,924.333ZM1387.95,701.664C1438.25,701.664 1444.01,764.242 1391.03,764.242L1357.24,764.242C1358.39,744.278 1361.08,723.547 1364.54,701.664L1387.95,701.664Z" style="fill:rgb(27,53,86);fill-rule:nonzero;"/>
            <path d="M1601.41,928.94C1757.66,928.94 1751.13,651.755 1601.41,651.755C1450.92,651.755 1444.77,928.94 1601.41,928.94ZM1601.41,701.664C1684.72,701.664 1690.86,879.032 1601.41,879.032C1511.19,879.032 1517.33,701.664 1601.41,701.664Z" style="fill:rgb(27,53,86);fill-rule:nonzero;"/>
            <path d="M1730.02,729.306C1730.02,826.819 1867.08,804.553 1867.08,857.533C1867.08,871.353 1854.41,885.558 1830.61,885.558C1799.12,885.558 1759.97,867.13 1744.61,839.105L1726.18,899.763C1749.22,916.655 1786.84,928.172 1822.16,928.172C1880.9,928.172 1911.61,895.156 1911.61,859.068C1911.61,768.081 1774.55,785.357 1774.55,731.225C1774.55,709.726 1793.37,695.137 1816.02,695.137C1844.81,695.137 1873.99,711.262 1887.81,736.6L1906.24,677.861C1884.74,662.121 1852.49,653.291 1821.39,653.291C1776.86,653.291 1730.02,679.013 1730.02,729.306Z" style="fill:rgb(27,53,86);fill-rule:nonzero;"/>
        </g>
    </g>
</svg>
