<?xml version="1.0" encoding="UTF-8" standalone="no"?>
<!DOCTYPE svg PUBLIC "-//W3C//DTD SVG 1.1//EN" "http://www.w3.org/Graphics/SVG/1.1/DTD/svg11.dtd">
<svg width="100%" height="100%" viewBox="0 0 563 337" version="1.1" xmlns="http://www.w3.org/2000/svg" xmlns:xlink="http://www.w3.org/1999/xlink" xml:space="preserve" xmlns:serif="http://www.serif.com/" style="fill-rule:evenodd;clip-rule:evenodd;stroke-linejoin:round;stroke-miterlimit:2;">
    <g transform="matrix(1,0,0,1,-2133.51,-3551.43)">
        <g transform="matrix(1,0,0,1,373.678,2436)">
            <g transform="matrix(0.255134,0,0,0.255134,1573.48,984.296)">
                <path d="M797.598,1094.23L797.598,1049.61C797.598,1031.76 812.204,1017.24 830.155,1017.24L1143.05,1017.24L1143.05,954.542L830.155,954.542C777.433,954.542 734.545,997.186 734.545,1049.61L734.545,1220.08C734.545,1272.5 777.436,1315.14 830.155,1315.14L1143.05,1315.14L1143.05,1252.45L837.326,1252.45C820.455,1253.81 798.007,1260.02 797.281,1284.86L797.281,1252.44L797.35,1252.44L797.589,1218.94L797.598,1218.95L797.598,1157.01L1132.33,1157.01L1132.33,1094.31L836.779,1094.31C820.002,1095.8 798.2,1102.17 797.483,1126.65L797.483,1094.23L797.598,1094.23Z"/>
                <path d="M1605.1,954.542L1516.62,954.542L1393.39,1079.74L1270.17,954.542L1181.69,954.542L1360,1135.7L1183.62,1314.89L1272.11,1314.89L1393.39,1191.66L1514.68,1314.89L1603.17,1314.89L1426.79,1135.7L1605.1,954.542Z"/>
                <path d="M1623.16,954.542L1623.16,1017.5L1796,1017.5L1796,1017.52L1836.1,1017.52C1819.26,1018.88 1796.82,1025.08 1796,1049.92L1796,1315.14L1859.06,1315.14L1859.06,1017.5L2031.9,1017.5L2031.9,954.542L1623.16,954.542Z"/>
                <path d="M2138.51,1094.23L2138.51,1049.61C2138.51,1031.76 2153.12,1017.24 2171.07,1017.24L2483.96,1017.24L2483.96,954.542L2171.07,954.542C2118.35,954.542 2075.46,997.186 2075.46,1049.61L2075.46,1220.08C2075.46,1272.5 2118.35,1315.14 2171.07,1315.14L2483.96,1315.14L2483.96,1252.45L2178.24,1252.45C2161.37,1253.81 2138.92,1260.02 2138.19,1284.86L2138.19,1252.44L2138.26,1252.44L2138.5,1218.94L2138.51,1218.95L2138.51,1157.01L2473.24,1157.01L2473.24,1094.31L2177.69,1094.31C2160.91,1095.8 2139.11,1102.17 2138.4,1126.65L2138.4,1094.23L2138.51,1094.23Z"/>
                <path d="M2865.87,956.387L2865.87,1229.95L2641.35,971.516C2627.81,955.931 2606.5,950.489 2587.06,957.658C2567.62,964.823 2555.05,982.747 2555.05,1003.32L2555.05,1314.15L2618.11,1314.15L2618.11,1040.59L2841.74,1297.99C2851.42,1309.13 2865.02,1315.14 2879.11,1315.14C2884.94,1315.14 2890.85,1314.11 2896.59,1312C2916.24,1304.76 2928.93,1286.65 2928.93,1265.86L2928.93,956.387L2865.87,956.387Z"/>
                <path d="M1139.14,1566.16C1139.14,1512.96 1096.25,1469.68 1043.53,1469.68L826.037,1469.68C773.315,1469.68 730.424,1512.96 730.424,1566.16L730.424,1584.92C730.424,1638.11 773.315,1681.39 826.031,1681.39L1043.53,1681.43C1061.48,1681.43 1076.09,1696.42 1076.09,1714.85L1076.09,1733.6C1076.09,1752.03 1061.48,1767.02 1043.53,1767.02L826.037,1767.02C808.086,1767.02 793.48,1752.03 793.48,1733.6L793.48,1708.08L730.424,1708.08L730.424,1733.6C730.424,1786.8 773.315,1830.08 826.037,1830.08L1043.53,1830.08C1096.25,1830.08 1139.14,1786.8 1139.14,1733.6L1139.14,1714.84C1139.14,1661.65 1096.25,1618.37 1043.54,1618.37L826.037,1618.33C808.086,1618.33 793.48,1603.34 793.48,1584.91L793.48,1566.15C793.48,1547.73 808.086,1532.74 826.037,1532.74L1043.53,1532.74C1061.48,1532.74 1076.09,1547.73 1076.09,1566.15L1076.09,1591.68L1139.14,1591.68L1139.14,1566.16Z"/>
                <path d="M1514.66,1470.15L1315.57,1469.23C1257.15,1468.95 1209.41,1516.26 1209.14,1574.67L1207.96,1829.16L1271.02,1829.45L1271.58,1708.49L1556.44,1709.81L1555.88,1830.78L1618.94,1831.07L1620.12,1576.58C1620.39,1518.16 1573.08,1470.42 1514.66,1470.15L1514.66,1470.15ZM1556.73,1646.75C1551.9,1646.73 1326.11,1645.19 1312.75,1645.67C1293.68,1646.36 1273.27,1655.17 1271.79,1676.61C1271.75,1677.08 1271.73,1677.56 1271.71,1678.04L1271.87,1645.43L1272.19,1574.97C1272.31,1551.32 1291.63,1532.17 1315.28,1532.28L1514.37,1533.2C1538.02,1533.31 1557.17,1552.64 1557.06,1576.29L1556.73,1646.75ZM1375.25,1420.62C1384.1,1417.28 1393.46,1418.69 1400.95,1424.46L1413.14,1433.86C1422.7,1441.23 1434.11,1445.07 1445.71,1445.12C1452.2,1445.15 1458.75,1444 1465.06,1441.62C1482.67,1434.99 1495.34,1420 1498.95,1401.53L1472.24,1396.31C1470.42,1405.58 1464.31,1412.81 1455.46,1416.15C1446.62,1419.48 1437.25,1418.08 1429.76,1412.31L1417.58,1402.91C1402.68,1391.41 1383.27,1388.51 1365.66,1395.15C1348.04,1401.78 1335.37,1416.77 1331.76,1435.23L1358.47,1440.46C1360.29,1431.18 1366.4,1423.95 1375.25,1420.62L1375.25,1420.62Z"/>
                <path d="M2839.25,1469.68L1788.84,1469.68C1736.11,1469.68 1693.22,1512.44 1693.22,1565.03L1693.22,1734.92C1693.22,1787.5 1736.11,1830.28 1788.84,1830.28L2839.25,1830.28C2891.98,1830.28 2934.87,1787.5 2934.87,1734.92L2934.87,1565.03C2934.87,1512.44 2891.98,1469.68 2839.25,1469.68ZM2871.81,1734.92C2871.81,1752.82 2857.2,1767.4 2839.25,1767.4L1796.39,1767.4C1779.51,1768.75 1757.01,1774.97 1756.28,1799.91L1756.28,1565.03C1756.28,1547.13 1770.89,1532.57 1788.84,1532.57L2839.25,1532.57C2857.2,1532.57 2871.81,1547.13 2871.81,1565.03L2871.81,1734.92L2871.81,1734.92Z"/>
            </g>
        </g>
        <g transform="matrix(1,0,0,1,373.678,2436)">
            <g transform="matrix(0.769391,0,0,0.69798,1532.65,650.653)">
                <path d="M963.37,665.895C998.114,665.895 1026.28,696.942 1026.28,735.241L1026.28,778.718L295.276,778.718L295.276,735.845C295.276,697.213 323.687,665.895 358.734,665.895L963.37,665.895ZM418.219,758.653L418.219,733.611L429.761,733.611C435.586,733.611 440.599,731.347 444.799,726.818C449.061,722.222 451.191,716.713 451.191,710.292L451.191,709.329C451.191,702.908 449.061,697.4 444.799,692.804C440.63,688.241 435.617,685.96 429.761,685.96L405.618,685.96L405.618,758.653L418.219,758.653ZM428.52,720.076L418.219,720.076L418.219,699.495L428.52,699.495C431.126,699.495 433.302,700.509 435.05,702.537C436.797,704.598 437.671,707.082 437.671,709.988C437.671,712.895 436.797,715.294 435.05,717.187C433.333,719.113 431.156,720.076 428.52,720.076ZM864.064,702.891C860.907,696.876 857.028,692.584 852.43,690.016C847.8,687.312 840.749,685.96 831.275,685.96L814.03,685.96L814.03,758.653L831.275,758.653C840.749,758.653 847.8,757.301 852.43,754.597C857.028,752.029 860.907,747.737 864.064,741.722C865.444,739.052 866.471,736.095 867.145,732.85C867.82,729.606 868.188,726.092 868.249,722.307C868.188,718.521 867.82,715.007 867.145,711.763C866.471,708.518 865.444,705.561 864.064,702.891ZM833.115,745.118L826.585,745.118L826.585,699.495L833.115,699.495C847.923,699.495 855.465,707.099 855.741,722.307C855.465,737.514 847.923,745.118 833.115,745.118ZM591.728,758.653C595.07,758.653 597.967,757.774 600.42,756.017C602.78,754.462 604.574,752.029 605.8,748.717C606.321,747.196 606.705,745.152 606.95,742.583C607.195,740.015 607.318,736.889 607.318,733.205L607.318,685.96L595.039,685.96L595.039,735.537C595.039,739.897 594.748,742.617 594.166,743.699C593.522,744.848 592.602,745.422 591.406,745.422L573.471,745.422L573.471,758.653L591.728,758.653ZM655.972,685.96L616.377,685.96L616.377,758.653L655.972,758.653L655.972,745.118L628.656,745.118L628.656,728.896L655.972,728.896L655.972,715.717L628.656,715.717L628.656,699.495L655.972,699.495L655.972,685.96ZM745.601,758.653C754.676,758.653 762.387,755.206 768.733,748.312C775.018,741.384 778.16,732.783 778.16,722.509C778.16,712.472 774.911,703.838 768.411,696.606C761.973,689.509 754.37,685.96 745.601,685.96C739.715,685.96 734.212,687.582 729.092,690.827C723.941,694.105 719.956,698.515 717.135,704.057C714.192,709.532 712.721,715.683 712.721,722.509C712.721,732.141 715.848,740.64 722.102,748.007C728.417,755.104 736.251,758.653 745.601,758.653ZM745.601,746.081C740.635,746.081 736.235,744.358 732.403,740.911C727.314,736.348 724.769,730.214 724.769,722.509C724.769,715.649 726.731,710.039 730.656,705.679C734.488,701.151 739.362,698.887 745.279,698.887C751.135,698.887 756.025,701.151 759.949,705.679C764.027,710.377 766.066,715.987 766.066,722.509C766.066,729.302 764.027,734.895 759.949,739.288C757.926,741.519 755.726,743.209 753.35,744.358C750.974,745.507 748.391,746.081 745.601,746.081ZM915.938,685.96L876.343,685.96L876.343,758.653L915.938,758.653L915.938,745.118L888.621,745.118L888.621,728.896L915.938,728.896L915.938,715.717L888.621,715.717L888.621,699.495L915.938,699.495L915.938,685.96ZM714.1,685.96L665.446,685.96L665.446,699.546L683.151,699.546L683.151,758.653L696.073,758.653L696.073,699.546L714.1,699.546L714.1,685.96ZM504.261,758.653L491.384,731.837C499.968,727.173 504.261,719.924 504.261,710.09L504.261,709.38C504.261,702.891 502.191,697.366 498.052,692.804C493.913,688.241 488.901,685.96 483.015,685.96L458.825,685.96L458.825,758.653L471.426,758.653L471.426,733.814L478.738,733.814L490.74,758.653L504.261,758.653ZM481.773,720.279L471.426,720.279L471.426,699.546L481.773,699.546C484.317,699.546 486.494,700.526 488.303,702.486C490.143,704.412 491.062,706.812 491.062,709.684C491.062,712.624 490.143,715.108 488.303,717.136C486.464,719.231 484.287,720.279 481.773,720.279ZM540.912,758.653C549.987,758.653 557.698,755.206 564.044,748.312C570.329,741.384 573.471,732.783 573.471,722.509C573.471,712.472 570.222,703.838 563.722,696.606C557.284,689.509 549.681,685.96 540.912,685.96C535.026,685.96 529.523,687.582 524.403,690.827C519.252,694.105 515.267,698.515 512.446,704.057C509.503,709.532 508.032,715.683 508.032,722.509C508.032,732.141 511.159,740.64 517.413,748.007C523.729,755.104 531.562,758.653 540.912,758.653ZM540.912,746.081C535.946,746.081 531.546,744.358 527.714,740.911C522.625,736.348 520.08,730.214 520.08,722.509C520.08,715.649 522.042,710.039 525.967,705.679C529.799,701.151 534.673,698.887 540.59,698.887C546.446,698.887 551.336,701.151 555.26,705.679C559.338,710.377 561.377,715.987 561.377,722.509C561.377,729.302 559.338,734.895 555.26,739.288C553.237,741.519 551.037,743.209 548.661,744.358C546.285,745.507 543.702,746.081 540.912,746.081Z" style="fill:rgb(69,183,229);"/>
            </g>
        </g>
    </g>
</svg>
