<?xml version="1.0" encoding="UTF-8" standalone="no"?>
<!DOCTYPE svg PUBLIC "-//W3C//DTD SVG 1.1//EN" "http://www.w3.org/Graphics/SVG/1.1/DTD/svg11.dtd">
<svg width="100%" height="100%" viewBox="0 0 50 50" version="1.1" xmlns="http://www.w3.org/2000/svg" xmlns:xlink="http://www.w3.org/1999/xlink" xml:space="preserve" xmlns:serif="http://www.serif.com/" style="fill-rule:evenodd;clip-rule:evenodd;stroke-linejoin:round;stroke-miterlimit:2;">
    <g transform="matrix(1,0,0,1,-193.07,-503.274)">
        <g transform="matrix(1,0,0,2.3871,25,-303.774)">
            <g transform="matrix(1.06383,0,0,0.445658,111.688,297.978)">
                <path d="M76.5,90C89.479,90 100,100.521 100,113.5L100,113.5C100,126.479 89.479,137 76.5,137L76.5,137C63.521,137 53,126.479 53,113.5L53,113.5C53,100.521 63.521,90 76.5,90L76.5,90Z" style="fill:rgb(69,183,229);"/>
            </g>
        </g>
        <g transform="matrix(1,0,0,2.3871,25,-303.774)">
            <g transform="matrix(0.364653,0,0,0.15276,174.837,340.923)">
                <path d="M72.961,22.805L72.031,22.805L72.031,18.805C72.031,17.25 70.774,15.993 69.219,15.993C67.664,15.993 66.406,17.25 66.406,18.805L66.406,22.805L52.812,22.805L52.812,18.805C52.812,17.25 51.555,15.993 50,15.993C48.445,15.993 47.187,17.25 47.187,18.805L47.187,22.805L33.589,22.805L33.589,18.805C33.589,17.25 32.332,15.993 30.777,15.993C29.222,15.993 27.964,17.25 27.964,18.805L27.964,22.805L27.039,22.805C20.914,22.805 15.937,27.782 15.937,33.903L15.937,72.911C15.937,79.028 20.913,84.009 27.039,84.009L72.965,84.009C79.082,84.009 84.067,79.032 84.067,72.911L84.063,33.903C84.063,27.782 79.086,22.805 72.961,22.805L72.961,22.805ZM78.438,72.914C78.438,75.934 75.981,78.387 72.961,78.387L27.039,78.383C24.02,78.383 21.562,75.926 21.562,72.91L21.562,33.902C21.562,30.883 24.019,28.425 27.039,28.425L27.969,28.425L27.969,31.672C27.969,33.226 29.226,34.484 30.781,34.484C32.336,34.484 33.594,33.226 33.594,31.672L33.59,28.429L47.188,28.429L47.188,31.675C47.188,33.23 48.446,34.488 50,34.488C51.555,34.488 52.813,33.23 52.813,31.675L52.813,28.429L66.411,28.429L66.411,31.675C66.411,33.23 67.669,34.488 69.223,34.488C70.778,34.488 72.036,33.23 72.036,31.675L72.036,28.429L72.965,28.429C75.985,28.429 78.442,30.886 78.442,33.906L78.438,72.914Z" style="fill:white;fill-rule:nonzero;"/>
                <path d="M58.094,46.836L48.051,56.145L43.758,52.109C42.625,51.047 40.848,51.102 39.781,52.234C38.719,53.367 38.774,55.148 39.906,56.211L46.113,62.043C46.652,62.551 47.348,62.805 48.039,62.805C48.727,62.805 49.41,62.555 49.953,62.055L61.922,50.961C63.063,49.906 63.129,48.125 62.071,46.984C61.012,45.844 59.231,45.777 58.094,46.836L58.094,46.836Z" style="fill:white;fill-rule:nonzero;"/>
            </g>
        </g>
    </g>
</svg>
