<?xml version="1.0" encoding="UTF-8" standalone="no"?>
<!DOCTYPE svg PUBLIC "-//W3C//DTD SVG 1.1//EN" "http://www.w3.org/Graphics/SVG/1.1/DTD/svg11.dtd">
<svg width="100%" height="100%" viewBox="0 0 50 50" version="1.1" xmlns="http://www.w3.org/2000/svg" xmlns:xlink="http://www.w3.org/1999/xlink" xml:space="preserve" xmlns:serif="http://www.serif.com/" style="fill-rule:evenodd;clip-rule:evenodd;stroke-linejoin:round;stroke-miterlimit:2;">
    <g transform="matrix(1,0,0,1,-99.75,-256.493)">
        <g transform="matrix(1,0,0,2.3871,25,-303.774)">
            <g transform="matrix(1.06383,0,0,0.445658,18.3671,194.597)">
                <path d="M76.5,90C89.479,90 100,100.521 100,113.5L100,113.5C100,126.479 89.479,137 76.5,137L76.5,137C63.521,137 53,126.479 53,113.5L53,113.5C53,100.521 63.521,90 76.5,90L76.5,90Z" style="fill:rgb(27,53,86);"/>
            </g>
        </g>
        <g transform="matrix(1,0,0,2.3871,25,-303.774)">
            <g transform="matrix(0.907934,0,0,0.380351,-81.3427,157.061)">
                <g transform="matrix(1,0,0,1,177,204)">
                    <path d="M48.279,37.254C48.037,37.907 47.771,38.548 47.481,39.177C34.347,39.363 29.594,29.828 26.12,22.84C25.64,21.86 25.18,20.94 24.72,20.09C21.39,13.92 12.48,15.48 12.39,15.48L12.18,15.48C12.104,15.489 12.026,15.489 11.95,15.48L11.83,15.48C11.755,15.449 11.685,15.408 11.62,15.36L11.52,15.27C11.466,15.212 11.419,15.149 11.38,15.08C11.359,15.058 11.339,15.034 11.32,15.01L11.32,14.9C11.24,14.7 10.53,13.06 8,13.29C9.77,16.15 9.23,18.24 8.67,20.43C8.321,21.6 8.119,22.81 8.07,24.03C7.856,27.934 7.321,31.814 6.47,35.63L6.47,35.74C6.38,36.01 6.24,36.5 6.38,36.74C6.68,37.27 8.23,37.52 9.61,37.74C10.35,37.91 11.128,37.749 11.74,37.3C12.685,36.331 13.204,35.023 13.18,33.67C13.453,31.074 15.429,28.959 18,28.51C19.131,28.314 20.24,29.014 20.55,30.12C21.143,32.983 21.173,35.935 20.64,38.81C20.101,43.045 19.537,47.4 22.871,55.208C22.733,55.21 22.594,55.211 22.456,55.211C21.878,55.211 21.305,55.193 20.736,55.158C20.032,53.403 19.452,51.599 19,49.76C17.198,49.974 12.885,50.517 9.206,51.819C8.463,51.411 7.741,50.969 7.042,50.496C11.149,48.753 16.322,48.033 18.53,47.79C18.086,44.723 18.12,41.606 18.63,38.55C19.134,35.931 19.134,33.239 18.63,30.62C18.61,30.58 18.57,30.5 18.19,30.5C16.595,30.865 15.392,32.196 15.19,33.82C15.197,35.734 14.402,37.567 13,38.87C11.956,39.674 10.611,39.984 9.32,39.72C7.2,39.38 5.42,39.1 4.64,37.8C4.216,36.986 4.179,36.024 4.54,35.18C5.354,31.501 5.869,27.762 6.08,24C6.132,22.631 6.353,21.274 6.74,19.96C7.34,17.6 7.75,16.04 5.51,13.26C5.366,13.082 5.287,12.86 5.287,12.631C5.287,12.187 5.583,11.793 6.01,11.67C9.61,10.61 11.69,11.97 12.69,13.31C15.79,12.07 26.47,8.68 34.08,17.01C42.71,26.45 43.86,26.48 46.19,25.15C46.341,25.063 46.513,25.018 46.687,25.018C47.235,25.018 47.687,25.469 47.687,26.018C47.687,26.131 47.668,26.243 47.63,26.35C47.439,26.99 47.288,27.641 47.18,28.3C46.65,31.08 45.82,35.33 41.38,36.42C43.56,37.078 45.835,37.362 48.11,37.26C48.166,37.258 48.223,37.256 48.279,37.254ZM32.61,18.37C28.22,13.57 22.73,13.13 18.67,13.74C22.007,14.267 24.925,16.295 26.58,19.24C27.01,20.11 27.51,21.05 28.01,22.05C30.2,26.46 32.72,31.57 37.4,34.57C43.8,35.42 44.58,31.45 45.26,27.93L45.26,27.71C42.42,28.37 39.68,26.11 32.61,18.37Z" style="fill:white;fill-rule:nonzero;"/>
                </g>
                <g transform="matrix(1,0,0,1,177,204)">
                    <circle cx="11.88" cy="23.15" r="1.09" style="fill:white;"/>
                </g>
            </g>
        </g>
    </g>
</svg>
