<?xml version="1.0" encoding="UTF-8" standalone="no"?>
<!DOCTYPE svg PUBLIC "-//W3C//DTD SVG 1.1//EN" "http://www.w3.org/Graphics/SVG/1.1/DTD/svg11.dtd">
<svg width="100%" height="100%" viewBox="0 0 50 50" version="1.1" xmlns="http://www.w3.org/2000/svg" xmlns:xlink="http://www.w3.org/1999/xlink" xml:space="preserve" xmlns:serif="http://www.serif.com/" style="fill-rule:evenodd;clip-rule:evenodd;stroke-linejoin:round;stroke-miterlimit:2;">
    <g transform="matrix(1,0,0,1,-62.2684,-503.274)">
        <g transform="matrix(1,0,0,2.3871,25,-303.774)">
            <g transform="matrix(1.06383,0,0,0.445658,-19.1145,297.978)">
                <path d="M76.5,90C89.479,90 100,100.521 100,113.5L100,113.5C100,126.479 89.479,137 76.5,137L76.5,137C63.521,137 53,126.479 53,113.5L53,113.5C53,100.521 63.521,90 76.5,90L76.5,90Z" style="fill:rgb(69,183,229);"/>
            </g>
        </g>
        <g transform="matrix(1,0,0,2.3871,25,-303.774)">
            <g transform="matrix(0.983834,0,0,0.983834,-242.838,21.975)">
                <g transform="matrix(0.326982,0,0,0.136979,293.771,325.103)">
                    <path d="M50,94.793C25.293,94.793 5.207,74.711 5.207,50C5.207,25.293 25.293,5.207 50,5.207C74.707,5.207 94.793,25.289 94.793,50C94.793,74.707 74.711,94.793 50,94.793ZM50,11.457C28.75,11.457 11.457,28.75 11.457,50C11.457,71.25 28.75,88.543 50,88.543C71.25,88.543 88.543,71.25 88.543,50C88.543,28.75 71.25,11.457 50,11.457Z" style="fill:white;fill-rule:nonzero;"/>
                </g>
                <g transform="matrix(0.326982,0,0,0.136979,293.771,325.103)">
                    <path d="M66.668,65.625C66,65.625 65.375,65.418 64.793,65L48.125,52.5C47.332,51.918 46.875,51 46.875,50L46.875,25C46.875,23.293 48.293,21.875 50,21.875C51.707,21.875 53.125,23.293 53.125,25L53.125,48.418L68.543,59.961C69.918,61.004 70.211,62.961 69.168,64.336C68.543,65.168 67.625,65.586 66.668,65.586L66.668,65.625Z" style="fill:white;fill-rule:nonzero;"/>
                </g>
            </g>
        </g>
    </g>
</svg>
