<?xml version="1.0" encoding="UTF-8" standalone="no"?>
<!DOCTYPE svg PUBLIC "-//W3C//DTD SVG 1.1//EN" "http://www.w3.org/Graphics/SVG/1.1/DTD/svg11.dtd">
<svg width="100%" height="100%" viewBox="0 0 50 50" version="1.1" xmlns="http://www.w3.org/2000/svg" xmlns:xlink="http://www.w3.org/1999/xlink" xml:space="preserve" xmlns:serif="http://www.serif.com/" style="fill-rule:evenodd;clip-rule:evenodd;stroke-linejoin:round;stroke-miterlimit:2;">
    <g transform="matrix(1,0,0,1,-127.797,-503.274)">
        <g transform="matrix(1,0,0,2.3871,25,-303.774)">
            <g transform="matrix(1.06383,0,0,0.445658,46.4145,297.978)">
                <path d="M76.5,90C89.479,90 100,100.521 100,113.5L100,113.5C100,126.479 89.479,137 76.5,137L76.5,137C63.521,137 53,126.479 53,113.5L53,113.5C53,100.521 63.521,90 76.5,90L76.5,90Z" style="fill:rgb(27,53,86);"/>
            </g>
        </g>
        <g transform="matrix(1,0,0,2.3871,25,-303.774)">
            <g transform="matrix(1,0,0,0.418919,111.798,341.858)">
                <path d="M21.561,21.9L19.686,21.9L19.686,23.67L17.916,23.67L17.916,25.545L19.686,25.545L19.686,27.316L21.561,27.316L21.561,25.545L23.33,25.545L23.33,23.67L21.561,23.67L21.561,21.9Z" style="fill:white;fill-rule:nonzero;"/>
            </g>
            <g transform="matrix(1,0,0,0.418919,111.798,341.858)">
                <path d="M21.352,17.179L10.646,17.179C7.048,17.179 4.123,20.106 4.123,23.703L4.123,28.052C4.123,29.724 5.482,31.084 7.154,31.084L24.843,31.084C26.515,31.084 27.876,29.724 27.876,28.052L27.876,23.703C27.877,20.106 24.949,17.179 21.352,17.179ZM26.002,28.053C26.002,28.691 25.482,29.21 24.844,29.21L7.154,29.21C6.515,29.21 5.998,28.691 5.998,28.053L5.998,23.704C5.998,22.412 6.527,21.245 7.381,20.401C7.934,21.953 8.848,23.31 10.08,24.419C10.074,24.482 10.06,24.543 10.06,24.608C10.06,25.591 10.855,26.387 11.837,26.387C12.819,26.387 13.614,25.591 13.614,24.608C13.614,23.626 12.819,22.83 11.837,22.83C11.624,22.83 11.423,22.873 11.233,22.942C10.169,21.962 9.42,20.768 9.004,19.368C9.516,19.173 10.065,19.054 10.645,19.054L21.35,19.054C23.914,19.054 26,21.139 26,23.703L26,28.053L26.002,28.053Z" style="fill:white;fill-rule:nonzero;"/>
            </g>
            <g transform="matrix(1,0,0,0.418919,111.798,341.858)">
                <path d="M16,15.833C20.111,15.833 23.459,12.486 23.459,8.373C23.459,4.261 20.111,0.915 16,0.915C11.887,0.915 8.541,4.261 8.541,8.373C8.541,12.486 11.887,15.833 16,15.833ZM16,2.79C19.078,2.79 21.584,5.294 21.584,8.373C21.584,11.453 19.078,13.958 16,13.958C12.92,13.958 10.416,11.453 10.416,8.373C10.416,5.294 12.92,2.79 16,2.79Z" style="fill:white;fill-rule:nonzero;"/>
            </g>
        </g>
    </g>
</svg>
