<?xml version="1.0" encoding="UTF-8" standalone="no"?>
<!DOCTYPE svg PUBLIC "-//W3C//DTD SVG 1.1//EN" "http://www.w3.org/Graphics/SVG/1.1/DTD/svg11.dtd">
<svg width="100%" height="100%" viewBox="0 0 50 50" version="1.1" xmlns="http://www.w3.org/2000/svg" xmlns:xlink="http://www.w3.org/1999/xlink" xml:space="preserve" xmlns:serif="http://www.serif.com/" style="fill-rule:evenodd;clip-rule:evenodd;stroke-linejoin:round;stroke-miterlimit:2;">
    <g transform="matrix(1,0,0,1,-90.4778,-510.484)">
        <g transform="matrix(1,0,0,2.3871,25,-303.774)">
            <g transform="matrix(1.06383,0,0,0.445658,9.09485,300.999)">
                <path d="M76.5,90C82.733,90 88.71,92.476 93.117,96.883C97.524,101.29 100,107.267 100,113.5L100,113.5C100,126.479 89.479,137 76.5,137L76.498,137C63.52,137 53,126.48 53,113.502L53,113.498C53,100.52 63.52,90 76.498,90L76.5,90Z" style="fill:rgb(93,55,141);"/>
            </g>
        </g>
        <g transform="matrix(1,0,0,2.3871,25,-303.774)">
            <g transform="matrix(0.510743,0,0,0.21396,49.7601,344.627)">
                <path d="M68.213,33.567C67.348,35.898 65.44,37.693 63.423,39.594C60.98,41.896 58.454,44.275 57.344,47.895C56.322,51.227 55.902,56.482 58.082,60.326C59.283,62.49 61.344,64.05 63.753,64.618C64.853,64.873 65.981,64.997 67.11,64.987C69.139,65.037 71.15,64.605 72.978,63.727C75.011,62.823 77.227,62.406 79.449,62.51C81.998,62.464 84.533,62.88 86.934,63.738C88.612,64.52 90.433,64.951 92.284,65.004C93.283,64.997 94.278,64.867 95.245,64.618C97.655,64.05 99.717,62.49 100.918,60.325C103.097,56.48 102.676,51.226 101.655,47.895C100.544,44.275 98.019,41.895 95.576,39.593C93.559,37.693 91.652,35.896 90.784,33.566C89.449,29.66 86.354,26.599 82.434,25.307C80.502,24.903 78.508,24.902 76.576,25.305C72.65,26.594 69.549,29.657 68.213,33.567ZM79.497,28.876C80.096,28.874 80.692,28.96 81.266,29.133C83.94,30.032 86.051,32.123 86.976,34.788C86.988,34.826 87.001,34.865 87.015,34.902C88.198,38.14 90.554,40.359 92.833,42.505C94.992,44.539 97.031,46.46 97.831,49.067C98.683,51.842 98.891,55.789 97.437,58.352C95.568,61.649 91.457,61.294 88.477,60.047C85.588,58.982 82.527,58.46 79.449,58.51C77.02,58.51 73.589,58.809 71.034,60.231C69.801,60.778 68.459,61.036 67.11,60.987C64.875,60.987 62.728,60.411 61.561,58.353C60.108,55.791 60.317,51.843 61.168,49.067C61.968,46.46 64.007,44.54 66.166,42.506C68.444,40.359 70.801,38.14 71.984,34.902C71.996,34.872 72.01,34.829 72.019,34.798C72.943,32.126 75.059,30.03 77.739,29.132C78.31,28.961 78.902,28.875 79.497,28.876Z" style="fill:white;fill-rule:nonzero;"/>
                <path d="M86.59,23.797C87.152,23.932 87.728,24 88.307,24C92.82,24 97.12,19.872 98.528,14.184C99.49,10.747 99.058,7.066 97.326,3.946C96.264,2.082 94.487,0.73 92.408,0.203C91.846,0.068 91.27,0 90.691,-0C86.178,0 81.88,4.129 80.471,9.817C79.51,13.254 79.942,16.935 81.674,20.055C82.735,21.918 84.511,23.271 86.59,23.797ZM84.353,10.78C85.31,6.915 88.035,4 90.691,4C92.043,4.061 93.268,4.831 93.908,6.023C95.072,8.237 95.336,10.817 94.646,13.221C93.689,17.086 90.964,20 88.307,20C86.955,19.939 85.732,19.169 85.092,17.978C83.928,15.764 83.663,13.184 84.353,10.78Z" style="fill:white;fill-rule:nonzero;"/>
                <path d="M69.87,24C70.58,24 71.284,23.885 71.957,23.66C76.566,22.11 78.706,15.8 76.828,9.294C75.248,3.822 71.262,0 67.133,0C66.423,-0.001 65.718,0.114 65.045,0.34C60.435,1.888 58.295,8.198 60.172,14.706C61.752,20.178 65.739,24 69.87,24ZM66.318,4.132C66.581,4.044 66.856,4 67.133,4C69.073,4 71.784,6.244 72.984,10.404C74.332,15.072 72.853,19.139 70.684,19.868C67.306,21.003 64.725,16.052 64.016,13.596C62.668,8.927 64.147,4.861 66.318,4.132Z" style="fill:white;fill-rule:nonzero;"/>
                <path d="M95.664,30.698C95.952,32.44 96.942,33.991 98.401,34.986C99.446,35.663 100.667,36.017 101.912,36.004C105.176,36.004 108.68,33.846 111.054,30.372C112.96,27.763 113.779,24.511 113.335,21.31C113.047,19.568 112.057,18.018 110.599,17.022C109.553,16.346 108.331,15.991 107.086,16.004C103.82,16.004 100.318,18.162 97.945,21.636C96.038,24.245 95.22,27.497 95.664,30.698ZM101.247,23.892C103.083,21.206 105.502,20.004 107.086,20.004C107.547,19.991 108.003,20.115 108.394,20.36C108.953,20.77 109.321,21.392 109.41,22.08C109.639,24.229 109.045,26.386 107.75,28.115C105.915,30.802 103.495,32.004 101.912,32.004C100.725,32.012 99.714,31.108 99.59,29.928C99.36,27.779 99.952,25.622 101.247,23.892Z" style="fill:white;fill-rule:nonzero;"/>
                <path d="M47.891,31.157C49.996,34.764 53.308,37.004 56.532,37.004C57.717,37.01 58.879,36.675 59.878,36.039C63.517,33.692 64.057,27.899 61.107,22.853C59.036,19.3 55.645,17.004 52.469,17.004C51.284,16.997 50.122,17.332 49.124,17.97C45.483,20.315 44.942,26.108 47.891,31.157ZM51.29,21.332C51.643,21.11 52.052,20.996 52.469,21.004C53.928,21.004 56.097,22.199 57.654,24.869C59.615,28.227 59.258,31.679 57.711,32.676C57.358,32.898 56.949,33.012 56.532,33.004C55.073,33.004 52.903,31.809 51.346,29.141C49.384,25.782 49.742,22.33 51.29,21.332Z" style="fill:white;fill-rule:nonzero;"/>
            </g>
        </g>
    </g>
</svg>
