<?xml version="1.0" encoding="UTF-8" standalone="no"?>
<!DOCTYPE svg PUBLIC "-//W3C//DTD SVG 1.1//EN" "http://www.w3.org/Graphics/SVG/1.1/DTD/svg11.dtd">
<svg width="100%" height="100%" viewBox="0 0 245 88" version="1.1" xmlns="http://www.w3.org/2000/svg" xmlns:xlink="http://www.w3.org/1999/xlink" xml:space="preserve" xmlns:serif="http://www.serif.com/" style="fill-rule:evenodd;clip-rule:evenodd;stroke-linejoin:round;stroke-miterlimit:2;">
    <g transform="matrix(1,0,0,1,-442.972,-1648.91)">
        <g transform="matrix(0.642078,0,0,0.642078,-337.892,-260.367)">
            <g transform="matrix(1.71004,0,0,1.7563,767.712,2249.32)">
                <g transform="matrix(0.641122,0,0,0.624232,35.759,340.239)">
                    <path d="M379.642,236.752L392.995,190.529L449.075,190.524C451.381,190.496 453.35,188.95 454.002,186.848L460.428,165.602L401.957,165.689C401.957,165.689 400.827,165.551 400.327,166.45C400.17,166.738 399.405,168.108 399.405,168.108C399.405,168.108 405.788,146.13 414.975,146.13L462.395,146.13C464.709,146.13 466.666,144.611 467.342,142.524L475.268,115.67L417.375,115.581C398.602,116.944 384.897,132.533 376.257,162.34L353.257,240.547L374.63,240.547C377.009,240.547 379.025,238.935 379.642,236.752" style="fill:white;fill-rule:nonzero;"/>
                </g>
                <g transform="matrix(0.641122,0,0,0.624232,35.759,340.294)">
                    <path d="M517.084,192.037L497.028,192.037C497.028,192.037 496.148,192.072 495.919,192.072C495.028,192.072 494.028,193.682 494.028,193.682L511.364,154.04L519.832,189.797C519.852,189.891 520.271,192.037 517.084,192.037M553.857,237.436L524.731,115.581C523.787,115.591 509.336,115.581 507.498,115.581C503.85,115.581 502.551,117.31 501.766,118.881L448.304,240.458L469.263,240.458C473.419,240.458 474.135,238.635 474.772,237.225L487.002,209.6L520.017,209.457C523.955,209.457 525.047,212.186 525.047,212.186L531.726,240.458L549.357,240.458C549.357,240.458 554.585,240.458 553.857,237.436" style="fill:white;fill-rule:nonzero;"/>
                </g>
                <g transform="matrix(0.641122,0,0,0.624232,35.759,340.294)">
                    <path d="M679.579,115.581C674.313,115.581 671.528,115.581 668.395,121.381L627.939,196.025C627.939,196.025 627.407,196.97 627.256,197.274C626.447,198.894 626.544,201.124 626.544,201.124L612.563,115.581L592.235,115.581C586.743,115.581 582.733,115.581 581.665,122.054L559.16,240.458C561.79,240.366 572.987,240.458 572.987,240.458C582.461,240.458 582.461,240.458 583.634,234.07L596.93,163.792L609.109,238.763C616.85,238.777 609.812,238.777 616.85,238.777L620.717,238.777C628.29,238.763 628.29,238.763 631.078,233.732L668.592,164.296L654.123,240.458L668.653,240.458C677.286,240.458 677.286,240.458 678.636,233.985L701.153,115.581L679.579,115.581Z" style="fill:white;fill-rule:nonzero;"/>
                </g>
            </g>
        </g>
    </g>
</svg>
