<?xml version="1.0" encoding="UTF-8" standalone="no"?><!DOCTYPE svg PUBLIC "-//W3C//DTD SVG 1.1//EN" "http://www.w3.org/Graphics/SVG/1.1/DTD/svg11.dtd"><svg width="100%" height="100%" viewBox="0 0 231 182" version="1.1" xmlns="http://www.w3.org/2000/svg" xmlns:xlink="http://www.w3.org/1999/xlink" xml:space="preserve" xmlns:serif="http://www.serif.com/" style="fill-rule:evenodd;clip-rule:evenodd;stroke-linejoin:round;stroke-miterlimit:2;"><g><path d="M80.024,106.843c-0.547,0.791 -1.167,1.546 -1.87,2.249l-17.953,17.952c3.908,2.677 8.635,4.247 13.73,4.247l4.17,0l11.542,-11.542c3.172,-3.171 3.172,-8.333 -0,-11.504c-1.585,-1.586 -3.667,-2.378 -5.748,-2.378c-1.334,0 -2.668,0.325 -3.871,0.976Z" style="fill:url(#_Linear1);fill-rule:nonzero;"/><path d="M73.931,0c-13.433,-0 -24.322,10.889 -24.322,24.321l-0,39.453c4.213,-0.056 8.443,1.516 11.65,4.723c3.554,3.555 5.105,8.367 4.652,13.018c4.406,-0.219 8.885,1.35 12.243,4.708c3.206,3.205 4.778,7.434 4.723,11.646c4.472,-0.278 9.038,1.284 12.447,4.694c3.555,3.554 5.105,8.366 4.652,13.017c4.406,-0.219 8.885,1.35 12.242,4.708c3.044,3.042 4.614,7.007 4.719,11.003l25.583,0l-30.079,-30.079c-1.973,-1.973 -1.973,-5.171 -0,-7.143c1.973,-1.973 5.171,-1.973 7.144,-0l37.217,37.217c4.89,-0.045 9.435,-1.53 13.23,-4.056l-41.805,-41.804c-1.972,-1.973 -1.972,-5.171 -0,-7.144c1.973,-1.973 5.172,-1.973 7.145,0l41.73,41.731c2.401,-3.77 3.798,-8.242 3.798,-13.044l-0,-0.443l-36.886,-36.887c-1.973,-1.973 -1.973,-5.17 -0,-7.143c1.973,-1.973 5.171,-1.973 7.144,-0l29.742,29.742l-0,-17.008l-52.7,-52.701l-22.332,22.331c-7.927,7.929 -20.826,7.929 -28.754,0c-3.84,-3.84 -5.956,-8.946 -5.956,-14.377c-0,-5.431 2.116,-10.536 5.956,-14.377l16.106,-16.106l-19.289,0Z" style="fill:url(#_Linear2);fill-rule:nonzero;"/><path d="M60.966,91.904l-11.357,11.357l-0,3.708c-0,5.214 1.646,10.042 4.44,14.001l18.406,-18.407c0.506,-0.506 1.039,-0.967 1.592,-1.39c1.447,-3.026 0.928,-6.766 -1.575,-9.269c-1.587,-1.586 -3.67,-2.379 -5.754,-2.379c-2.083,0 -4.166,0.793 -5.752,2.379Z" style="fill:url(#_Linear3);fill-rule:nonzero;"/><path d="M107.508,0l-23.25,23.251c-1.932,1.931 -2.996,4.5 -2.996,7.232c-0,2.732 1.064,5.301 2.996,7.233c1.932,1.933 4.501,2.996 7.233,2.996c2.733,0 5.301,-1.063 7.233,-2.996l25.903,-25.903c0.947,-0.947 2.232,-1.479 3.573,-1.479c1.339,0 2.624,0.532 3.571,1.479l49.129,49.129l-0,-36.621c-0,-13.432 -10.889,-24.321 -24.322,-24.321l-49.07,0Z" style="fill:url(#_Linear4);fill-rule:nonzero;"/><path d="M49.609,71.81l-0,19.843l5.969,-5.969c3.171,-3.172 3.171,-8.333 -0,-11.505c-1.587,-1.586 -3.669,-2.372 -5.751,-2.372c-0.073,0 -0.146,0.001 -0.218,0.003Z" style="fill:url(#_Linear5);fill-rule:nonzero;"/><path d="M95.032,125.969l-5.322,5.322l19.185,0c-0.101,-1.938 -0.882,-3.845 -2.358,-5.322c-1.586,-1.585 -3.669,-2.378 -5.752,-2.378c-2.084,-0 -4.167,0.793 -5.753,2.378Z" style="fill:url(#_Linear6);fill-rule:nonzero;"/><path d="M17.008,173.255c-1.584,0.167 -5.669,0.209 -8.129,0.209c-5.836,-0 -8.879,-2.209 -8.879,-7.754l0,-16.049c0,-5.545 3.043,-7.754 8.879,-7.754c2.46,-0 6.378,0.083 8.129,0.25c0.25,0.041 0.417,0.333 0.417,0.583l0,2.085c0,0.291 -0.167,0.5 -0.459,0.5l-8.045,-0c-4.419,-0 -5.128,1.167 -5.128,4.336l0,5.794l12.798,-0c0.459,-0 0.834,0.375 0.834,0.834l0,1.584c0,0.458 -0.375,0.834 -0.834,0.834l-12.798,-0l0,7.003c0,3.168 0.709,4.336 5.128,4.336l8.045,-0c0.292,-0 0.459,0.208 0.459,0.5l0,2.126c0,0.25 -0.167,0.541 -0.417,0.583" style="fill:#0089cf;fill-rule:nonzero;"/><path d="M48.063,173.172l-2.001,-0c-0.459,-0 -0.834,-0.375 -0.834,-0.834l-0,-14.757c-0,-3.502 -1.625,-4.461 -3.793,-4.461c-1.501,0 -3.252,0.501 -4.878,1.126c0.251,0.917 0.376,2.001 0.376,3.252l-0,14.84c-0,0.417 -0.292,0.834 -0.751,0.834l-2.209,-0c-0.417,-0 -0.709,-0.375 -0.709,-0.834l-0,-14.84c-0,-3.627 -1.042,-4.378 -3.21,-4.378c-1.501,-0 -3.335,0.751 -5.086,1.626l-0,17.592c-0,0.417 -0.291,0.834 -0.75,0.834l-2.209,-0c-0.417,-0 -0.709,-0.375 -0.709,-0.834l-0,-21.26c-0,-0.459 0.333,-0.834 0.792,-0.834l2.084,-0c0.459,-0 0.792,0.375 0.792,0.834l-0,0.792c1.668,-1.042 3.794,-1.959 6.087,-1.959c1.792,-0 3.126,0.5 4.168,1.709c2.293,-1.084 4.753,-1.709 6.92,-1.709c3.752,-0 6.753,1.875 6.753,7.67l-0,14.757c-0,0.459 -0.375,0.834 -0.833,0.834" style="fill:#0089cf;fill-rule:nonzero;"/><path d="M67.278,160.249c-0,-4.377 -1.292,-7.212 -5.419,-7.212c-1.751,0 -3.71,0.208 -4.878,0.417l-0,16.508c1.376,0.25 3.544,0.417 4.878,0.417c4.085,0 5.419,-2.668 5.419,-7.129l-0,-3.001Zm-5.419,13.215c-1.292,0 -3.252,-0.167 -4.878,-0.459l-0,7.545c-0,0.417 -0.333,0.792 -0.792,0.792l-2.126,0c-0.417,0 -0.75,-0.333 -0.75,-0.792l-0,-28.68c-0,-0.542 0.125,-0.792 0.875,-0.959c2.21,-0.542 5.128,-0.959 7.671,-0.959c6.211,0 9.087,4.044 9.087,10.297l-0,3.001c-0,6.545 -3.001,10.214 -9.087,10.214" style="fill:#0089cf;fill-rule:nonzero;"/><path d="M84.033,153.12c-1.917,0 -3.668,0.5 -5.753,1.751l-0,17.467c-0,0.417 -0.375,0.834 -0.833,0.834l-2.043,0c-0.417,0 -0.792,-0.376 -0.792,-0.834l-0,-21.26c-0,-0.459 0.334,-0.834 0.792,-0.834l1.96,0c0.458,0 0.791,0.375 0.791,0.834l-0,0.875c2.085,-1.459 4.002,-2.001 5.878,-2.001c0.584,0 0.875,0.25 0.875,0.751l-0,1.709c-0,0.458 -0.291,0.708 -0.875,0.708" style="fill:#0089cf;fill-rule:nonzero;"/><path d="M100.582,159.707c0,-4.711 -1.792,-6.545 -5.461,-6.545c-3.585,0 -5.586,2.043 -5.586,6.545l0,0.375l11.047,0l0,-0.375Zm2.918,3.168l-13.965,0l0,0.583c0,4.961 1.959,6.795 5.795,6.795c2.417,0 5.502,-0.166 7.42,-0.458l0.208,0c0.333,0 0.667,0.167 0.667,0.584l0,1.417c0,0.542 -0.167,0.833 -0.834,0.959c-2.376,0.458 -4.668,0.709 -7.461,0.709c-4.795,0 -9.463,-2.252 -9.463,-10.006l0,-3.751c0,-5.961 3.293,-9.755 9.254,-9.755c6.086,0 9.171,3.836 9.171,9.755l0,2.251c0,0.542 -0.292,0.917 -0.792,0.917" style="fill:#0089cf;fill-rule:nonzero;"/><path d="M122.549,157.623c-0,-2.501 -1.125,-4.46 -5.627,-4.46c-4.669,-0 -5.628,2.126 -5.628,4.46l-0,0.333c-0,1.834 0.834,4.252 5.628,4.252c4.502,-0 5.627,-1.75 5.627,-4.252l-0,-0.333Zm0.333,17.091c-0,-1.625 -1.333,-2.292 -5.085,-3.251l-4.711,-1.209c-1.208,1.042 -2.042,2.084 -2.042,4.252l-0,0.375c-0,2.335 1.376,3.794 6.003,3.794c4.752,-0 5.835,-1.334 5.835,-3.627l-0,-0.334Zm3.377,-21.676l-1.501,0.292c0.751,0.791 1.418,2.042 1.418,4.293l-0,0.333c-0,4.586 -2.835,7.129 -9.254,7.129c-2.21,-0 -3.627,-0.334 -4.836,-0.834c-0.709,0.334 -1.042,0.792 -1.042,1.417c-0,0.709 0.333,1.084 1.292,1.334l6.212,1.585c4.084,1.042 8.003,2.209 8.003,6.127l-0,0.334c-0,4.002 -2.668,6.461 -9.504,6.461c-6.587,-0 -9.588,-2.542 -9.588,-6.628l-0,-0.375c-0,-2.334 1.25,-4.252 2.626,-5.294l-0.292,-0.125c-1.334,-0.584 -1.917,-1.96 -1.917,-3.252l-0,-0.042c-0,-1.125 0.542,-2.334 1.709,-3.001c-1.292,-1.209 -1.918,-2.71 -1.918,-4.836l-0,-0.333c-0,-3.71 2.085,-7.378 9.255,-7.378l9.129,-0c0.5,-0 0.958,0.417 0.958,0.917l-0,1.084c-0,0.541 -0.291,0.708 -0.75,0.792" style="fill:#0089cf;fill-rule:nonzero;"/><path d="M142.39,162.083l-3.084,0c-5.045,0 -6.379,1.125 -6.379,4.085l-0,0.5c-0,3.002 1.418,3.794 3.836,3.794c1.917,0 3.627,-0.584 5.627,-1.668l-0,-6.711Zm2.835,11.089l-1.918,0c-0.459,0 -0.834,-0.376 -0.834,-0.834l-0,-0.917c-2,1.167 -4.085,2.043 -6.419,2.043c-3.543,0 -6.795,-1.543 -6.795,-6.754l-0,-0.5c-0,-4.502 2.626,-6.753 10.047,-6.753l3.084,0l-0,-1.667c-0,-3.502 -1.209,-4.711 -4.46,-4.711c-2.71,0 -4.711,0.166 -6.378,0.333l-0.209,0c-0.375,0 -0.75,-0.125 -0.75,-0.667l-0,-1.459c-0,-0.458 0.292,-0.709 0.875,-0.792c1.71,-0.292 3.627,-0.542 6.462,-0.542c5.794,0 8.128,2.918 8.128,7.838l-0,14.548c-0,0.458 -0.375,0.834 -0.833,0.834" style="fill:#0089cf;fill-rule:nonzero;"/><path d="M168.776,149.077l-8.421,-0c-1.5,-0 -2,0.458 -2,2.084l-0,3.002l10.254,-0c0.459,-0 0.834,0.375 0.834,0.833l-0,4.919c-0,0.459 -0.375,0.834 -0.834,0.834l-10.254,-0l-0,11.589c-0,0.459 -0.376,0.834 -0.834,0.834l-6.795,-0c-0.459,-0 -0.834,-0.375 -0.834,-0.834l-0,-21.177c-0,-8.045 5.336,-9.337 10.672,-9.337c4.044,-0 6.628,0.292 8.212,0.5c0.542,0.083 0.834,0.334 0.834,0.834l-0,5.086c-0,0.458 -0.376,0.833 -0.834,0.833" style="fill:#01377b;fill-rule:nonzero;"/><path d="M185.448,149.327c-0.083,-0.375 -0.083,-0.584 -0.458,-0.584c-0.375,0 -0.375,0.209 -0.459,0.584l-2.042,10.588l5.001,0l-2.042,-10.588Zm4.419,23.053l-1.168,-5.795l-7.419,0l-1.168,5.795c-0.083,0.416 -0.25,0.792 -0.833,0.792l-7.212,0c-0.626,0 -0.751,-0.417 -0.667,-0.876l5.586,-25.512c0.917,-4.127 4.044,-4.961 8.004,-4.961c3.959,0 7.086,0.834 8.003,4.961l5.586,25.512c0.125,0.5 0,0.876 -0.625,0.876l-7.254,0c-0.583,0 -0.75,-0.376 -0.833,-0.792" style="fill:#01377b;fill-rule:nonzero;"/><path d="M218.337,162.792c-0.333,0.542 -0.709,0.792 -1.209,0.792l-2.876,0c-0.501,0 -0.875,-0.25 -1.209,-0.792l-3.419,-5.711c-0.249,-0.375 -0.291,-0.459 -0.458,-0.459c-0.167,0 -0.167,0.125 -0.167,0.417l-0,15.424c-0,0.333 -0.25,0.709 -0.583,0.709l-6.879,0c-0.333,0 -0.667,-0.042 -0.667,-0.709l-0,-28.722c-0,-0.834 0.709,-1.543 1.543,-1.543l4.627,0c1.042,0 1.667,0.459 2.126,1.251l6.045,10.547c0.166,0.292 0.291,0.5 0.458,0.5c0.167,0 0.334,-0.208 0.501,-0.5l6.044,-10.547c0.458,-0.792 1.084,-1.251 2.126,-1.251l4.627,0c0.834,0 1.542,0.709 1.542,1.543l-0,28.722c-0,0.458 -0.375,0.709 -0.708,0.709l-6.837,0c-0.334,0 -0.625,-0.125 -0.625,-0.709l-0,-15.424c-0,-0.292 -0,-0.417 -0.167,-0.417c-0.167,0 -0.167,0.084 -0.417,0.459l-3.418,5.711Z" style="fill:#01377b;fill-rule:nonzero;"/></g><defs><linearGradient id="_Linear1" x1="0" y1="0" x2="1" y2="0" gradientUnits="userSpaceOnUse" gradientTransform="matrix(117.151,123.798,-123.798,117.151,-7.90856,30.1121)"><stop offset="0" style="stop-color:#00aeef;stop-opacity:1"/><stop offset="0.03" style="stop-color:#00aeef;stop-opacity:1"/><stop offset="1" style="stop-color:#2b3594;stop-opacity:1"/><stop offset="1" style="stop-color:#2b3594;stop-opacity:1"/></linearGradient><linearGradient id="_Linear2" x1="0" y1="0" x2="1" y2="0" gradientUnits="userSpaceOnUse" gradientTransform="matrix(117.151,123.798,-123.798,117.151,37.2745,-12.6451)"><stop offset="0" style="stop-color:#00aeef;stop-opacity:1"/><stop offset="0.03" style="stop-color:#00aeef;stop-opacity:1"/><stop offset="1" style="stop-color:#2b3594;stop-opacity:1"/><stop offset="1" style="stop-color:#2b3594;stop-opacity:1"/></linearGradient><linearGradient id="_Linear3" x1="0" y1="0" x2="1" y2="0" gradientUnits="userSpaceOnUse" gradientTransform="matrix(117.151,123.798,-123.798,117.151,-8.46579,30.6394)"><stop offset="0" style="stop-color:#00aeef;stop-opacity:1"/><stop offset="0.03" style="stop-color:#00aeef;stop-opacity:1"/><stop offset="1" style="stop-color:#2b3594;stop-opacity:1"/><stop offset="1" style="stop-color:#2b3594;stop-opacity:1"/></linearGradient><linearGradient id="_Linear4" x1="0" y1="0" x2="1" y2="0" gradientUnits="userSpaceOnUse" gradientTransform="matrix(117.151,123.798,-123.798,117.151,68.1708,-41.8825)"><stop offset="0" style="stop-color:#00aeef;stop-opacity:1"/><stop offset="0.03" style="stop-color:#00aeef;stop-opacity:1"/><stop offset="1" style="stop-color:#2b3594;stop-opacity:1"/><stop offset="1" style="stop-color:#2b3594;stop-opacity:1"/></linearGradient><linearGradient id="_Linear5" x1="0" y1="0" x2="1" y2="0" gradientUnits="userSpaceOnUse" gradientTransform="matrix(117.151,123.798,-123.798,117.151,-2.35073,24.8526)"><stop offset="0" style="stop-color:#00aeef;stop-opacity:1"/><stop offset="0.03" style="stop-color:#00aeef;stop-opacity:1"/><stop offset="1" style="stop-color:#2b3594;stop-opacity:1"/><stop offset="1" style="stop-color:#2b3594;stop-opacity:1"/></linearGradient><linearGradient id="_Linear6" x1="0" y1="0" x2="1" y2="0" gradientUnits="userSpaceOnUse" gradientTransform="matrix(117.151,123.798,-123.798,117.151,-1.1529,23.7191)"><stop offset="0" style="stop-color:#00aeef;stop-opacity:1"/><stop offset="0.03" style="stop-color:#00aeef;stop-opacity:1"/><stop offset="1" style="stop-color:#2b3594;stop-opacity:1"/><stop offset="1" style="stop-color:#2b3594;stop-opacity:1"/></linearGradient></defs></svg>