<?xml version="1.0" encoding="UTF-8" standalone="no"?>
<!DOCTYPE svg PUBLIC "-//W3C//DTD SVG 1.1//EN" "http://www.w3.org/Graphics/SVG/1.1/DTD/svg11.dtd">
<svg width="100%" height="100%" viewBox="0 0 10027 3418" version="1.1" xmlns="http://www.w3.org/2000/svg" xmlns:xlink="http://www.w3.org/1999/xlink" xml:space="preserve" xmlns:serif="http://www.serif.com/" style="fill-rule:evenodd;clip-rule:evenodd;stroke-linejoin:round;stroke-miterlimit:2;">
    <g transform="matrix(1,0,0,1,-122048,-80126.9)">
        <g transform="matrix(1,0,0,1,114159,78580.7)">
            <g transform="matrix(1.50741,0,0,1.50741,-28289.4,-1933.98)">
                <g transform="matrix(17.6136,0,0,17.6136,23890.3,-442.51)">
                    <path d="M134.827,256.062L150.79,213.493L162.184,213.493L178.085,255.562L166.879,256.688L163.811,247.674L149.1,247.674L146.158,256.062L134.827,256.062ZM152.23,238.722L160.556,238.722L156.299,227.14L152.23,238.722Z" style="fill:rgb(0,163,230);fill-rule:nonzero;"/>
                </g>
                <g transform="matrix(17.6136,0,0,17.6136,23890.3,-453.536)">
                    <path d="M217.837,243.98C217.837,248.487 216.136,251.732 212.735,253.715C209.334,255.697 205.025,256.688 199.808,256.688L183.719,256.688L183.719,214.119L198.556,214.119C203.606,214.119 207.789,215.141 211.107,217.186C214.425,219.231 216.084,222.299 216.084,226.389C216.084,227.891 215.729,229.248 215.02,230.458C214.311,231.668 213.351,232.879 212.14,234.089C213.893,235.299 215.281,236.76 216.303,238.471C217.326,240.182 217.837,242.019 217.837,243.98ZM204.315,226.952C204.315,225.7 203.772,224.74 202.687,224.073C201.602,223.405 200.1,223.071 198.18,223.071L195.112,223.071L195.112,230.27L197.679,230.27C199.557,230.27 201.133,229.989 202.406,229.425C203.679,228.862 204.315,228.037 204.315,226.952ZM206.068,243.73C206.068,242.311 205.525,241.205 204.44,240.412C203.355,239.619 201.853,239.222 199.933,239.222L195.112,239.222L195.112,247.736L200.058,247.736C201.894,247.736 203.355,247.392 204.44,246.703C205.525,246.015 206.068,245.023 206.068,243.73Z" style="fill:rgb(0,163,230);fill-rule:nonzero;"/>
                </g>
                <g transform="matrix(17.6136,0,0,17.6136,23890.3,-453.536)">
                    <path d="M254.209,247.736L255.273,256.688L224.097,256.688L224.097,214.119L254.209,214.119L255.273,223.071L235.491,223.071L235.491,230.834L248.575,230.834L249.639,239.786L235.491,239.786L235.491,247.736L254.209,247.736Z" style="fill:rgb(0,163,230);fill-rule:nonzero;"/>
                </g>
                <g transform="matrix(17.6136,0,0,17.6136,23890.3,-453.536)">
                    <path d="M261.532,256.688L261.532,214.119L279.438,214.119C284.529,214.119 288.724,215.329 292.021,217.75C295.318,220.17 296.966,223.801 296.966,228.643C296.966,231.147 296.455,233.348 295.433,235.247C294.41,237.146 293.002,238.701 291.207,239.911L300.597,256.688L287.388,256.688L280.502,243.291L272.927,243.291L272.927,256.688L261.532,256.688ZM285.197,228.643C285.197,226.806 284.665,225.419 283.601,224.48C282.537,223.54 281.024,223.071 279.062,223.071L272.927,223.071L272.927,234.339L279.187,234.339C280.94,234.339 282.38,233.807 283.507,232.743C284.634,231.679 285.197,230.312 285.197,228.643Z" style="fill:rgb(0,163,230);fill-rule:nonzero;"/>
                </g>
                <g transform="matrix(17.6136,0,0,17.6136,23890.3,-453.536)">
                    <path d="M301.849,214.119L338.284,214.119L339.348,223.071L325.763,223.071L325.763,256.688L314.37,256.688L314.37,223.071L301.849,223.071L301.849,214.119Z" style="fill:rgb(0,163,230);fill-rule:nonzero;"/>
                </g>
                <g transform="matrix(17.6136,0,0,17.6136,23890.3,-442.51)">
                    <path d="M340.6,256.062L356.564,213.493L367.957,213.493L383.858,255.562L372.652,256.688L369.585,247.674L354.873,247.674L351.931,256.062L340.6,256.062ZM358.004,238.722L366.33,238.722L362.073,227.14L358.004,238.722Z" style="fill:rgb(0,163,230);fill-rule:nonzero;"/>
                </g>
                <g transform="matrix(17.6136,0,0,17.6136,23890.3,-1873.47)">
                    <path d="M155.781,275.001L160.623,275.001L160.817,276.271L155.781,276.271L155.781,283.028L154.081,283.028L154.081,268.395L161.785,268.395L162.001,269.664L155.781,269.664L155.781,275.001Z" style="fill:rgb(8,6,5);fill-rule:nonzero;"/>
                </g>
                <g transform="matrix(17.6136,0,0,17.6136,23890.3,-1870.81)">
                    <path d="M175.02,282.877L180.443,268.244L182.078,268.244L187.695,282.748L186.016,283.028L184.381,278.724L178.205,278.724L176.677,282.877L175.02,282.877ZM178.678,277.346L183.886,277.346L181.239,270.482L178.678,277.346Z" style="fill:rgb(8,6,5);fill-rule:nonzero;"/>
                </g>
                <g transform="matrix(17.6136,0,0,17.6136,23890.3,-1873.49)">
                    <path d="M208.095,268.094C208.626,268.094 209.265,268.17 210.011,268.32C210.757,268.471 211.338,268.675 211.754,268.934L211.216,270.16C210.642,269.945 210.147,269.791 209.731,269.698C209.315,269.604 208.77,269.558 208.095,269.558C207.148,269.558 206.284,269.823 205.502,270.354C204.72,270.885 204.107,271.624 203.662,272.57C203.218,273.517 202.995,274.586 202.995,275.777C202.995,276.896 203.189,277.918 203.576,278.843C203.964,279.769 204.53,280.5 205.276,281.038C206.022,281.576 206.897,281.845 207.902,281.845C208.59,281.845 209.189,281.788 209.699,281.673C210.208,281.558 210.685,281.401 211.13,281.2L211.775,282.491C211.33,282.72 210.739,282.918 210,283.083C209.261,283.248 208.583,283.33 207.966,283.33C206.532,283.33 205.305,282.993 204.286,282.319C203.268,281.644 202.5,280.733 201.984,279.586C201.467,278.438 201.209,277.176 201.209,275.798C201.209,274.349 201.489,273.04 202.048,271.871C202.608,270.702 203.411,269.78 204.459,269.106C205.506,268.431 206.718,268.094 208.095,268.094Z" style="fill:rgb(8,6,5);fill-rule:nonzero;"/>
                </g>
                <g transform="matrix(17.6136,0,0,17.6136,23890.3,-1868.93)">
                    <path d="M226.43,268.137L228.13,268.137L228.13,277.39C228.13,278.638 228.481,279.65 229.184,280.424C229.887,281.199 230.82,281.586 231.982,281.586C233.158,281.586 234.091,281.199 234.78,280.424C235.468,279.65 235.812,278.638 235.812,277.39L235.812,268.137L237.534,268.137L237.534,277.584C237.534,278.617 237.308,279.549 236.856,280.381C236.404,281.213 235.759,281.862 234.919,282.329C234.08,282.795 233.101,283.028 231.982,283.028C230.863,283.028 229.884,282.791 229.045,282.318C228.205,281.845 227.56,281.199 227.108,280.381C226.656,279.563 226.43,278.631 226.43,277.584L226.43,268.137Z" style="fill:rgb(8,6,5);fill-rule:nonzero;"/>
                </g>
                <g transform="matrix(17.6136,0,0,17.6136,23890.3,-1873.47)">
                    <path d="M255.395,281.672L262.195,281.672L262.368,283.028L253.695,283.028L253.695,268.395L255.395,268.395L255.395,281.672Z" style="fill:rgb(8,6,5);fill-rule:nonzero;"/>
                </g>
                <g transform="matrix(17.6136,0,0,17.6136,23890.3,-1873.47)">
                    <path d="M288.492,275.625C288.492,277.045 288.241,278.312 287.739,279.423C287.237,280.535 286.495,281.414 285.512,282.059C284.529,282.705 283.342,283.028 281.95,283.028L276.958,283.028L276.958,268.395L282.079,268.395C284.231,268.395 285.838,269.062 286.9,270.396C287.961,271.73 288.492,273.473 288.492,275.625ZM286.792,275.647C286.792,273.896 286.401,272.49 285.619,271.429C284.838,270.367 283.686,269.836 282.166,269.836L278.658,269.836L278.658,281.608L281.972,281.608C282.933,281.608 283.776,281.367 284.5,280.887C285.225,280.406 285.788,279.717 286.19,278.821C286.591,277.924 286.792,276.866 286.792,275.647Z" style="fill:rgb(8,6,5);fill-rule:nonzero;"/>
                </g>
                <g transform="matrix(17.6136,0,0,17.6136,23890.3,-1870.81)">
                    <path d="M301.985,282.877L307.408,268.244L309.043,268.244L314.66,282.748L312.981,283.028L311.346,278.724L305.17,278.724L303.642,282.877L301.985,282.877ZM305.643,277.346L310.851,277.346L308.204,270.482L305.643,277.346Z" style="fill:rgb(8,6,5);fill-rule:nonzero;"/>
                </g>
                <g transform="matrix(17.6136,0,0,17.6136,23890.3,-1873.47)">
                    <path d="M340.785,275.625C340.785,277.045 340.534,278.312 340.032,279.423C339.529,280.535 338.787,281.414 337.804,282.059C336.822,282.705 335.634,283.028 334.243,283.028L329.25,283.028L329.25,268.395L334.372,268.395C336.524,268.395 338.131,269.062 339.192,270.396C340.254,271.73 340.785,273.473 340.785,275.625ZM339.085,275.647C339.085,273.896 338.694,272.49 337.912,271.429C337.13,270.367 335.979,269.836 334.458,269.836L330.95,269.836L330.95,281.608L334.264,281.608C335.225,281.608 336.068,281.367 336.793,280.887C337.517,280.406 338.08,279.717 338.482,278.821C338.884,277.924 339.085,276.866 339.085,275.647Z" style="fill:rgb(8,6,5);fill-rule:nonzero;"/>
                </g>
                <g transform="matrix(17.6136,0,0,17.6136,23890.3,-1873.47)">
                    <path d="M364.671,281.672L364.887,283.028L356.064,283.028L356.064,268.395L364.693,268.395L364.887,269.664L357.764,269.664L357.764,274.915L362.821,274.915L363.014,276.185L357.764,276.185L357.764,281.672L364.671,281.672Z" style="fill:rgb(8,6,5);fill-rule:nonzero;"/>
                </g>
                <g transform="matrix(17.6136,0,0,17.6136,23890.3,-954.677)">
                    <rect x="115.278" y="185.279" width="4.151" height="128.701" style="fill:rgb(16,87,154);"/>
                </g>
                <g transform="matrix(17.6136,0,0,17.6136,23890.3,-954.677)">
                    <rect x="106.67" y="185.279" width="1.548" height="128.701" style="fill:rgb(0,163,230);"/>
                </g>
                <g transform="matrix(17.6136,0,0,17.6136,23890.3,-954.677)">
                    <rect x="109.386" y="185.279" width="1.548" height="128.701" style="fill:rgb(0,163,230);"/>
                </g>
                <g transform="matrix(17.6136,0,0,17.6136,23890.3,-954.677)">
                    <rect x="112.102" y="185.279" width="1.548" height="128.701" style="fill:rgb(0,163,230);"/>
                </g>
                <g transform="matrix(17.6136,0,0,17.6136,23890.3,-952.053)">
                    <path d="M90.325,308.212L90.325,200.25L25.427,200.25L25.427,308.212L6.225,308.212L6.225,306.533L17.681,306.533L17.681,192.834L94.073,192.834L104.876,185.279L105.03,313.831" style="fill:rgb(0,163,230);"/>
                </g>
            </g>
        </g>
    </g>
</svg>
