<?xml version="1.0" encoding="UTF-8" standalone="no"?>
<!DOCTYPE svg PUBLIC "-//W3C//DTD SVG 1.1//EN" "http://www.w3.org/Graphics/SVG/1.1/DTD/svg11.dtd">
<svg width="100%" height="100%" viewBox="0 0 84 94" version="1.1" xmlns="http://www.w3.org/2000/svg" xmlns:xlink="http://www.w3.org/1999/xlink" xml:space="preserve" xmlns:serif="http://www.serif.com/" style="fill-rule:evenodd;clip-rule:evenodd;stroke-linecap:round;stroke-linejoin:round;stroke-miterlimit:1.5;">
    <g transform="matrix(1,0,0,1,-14.4343,-30.9649)">
        <path d="M55,61C55,61 53.366,69.772 45,78.515C36.634,87.257 26.316,95.593 31,112C31,112 31.093,100.274 45,92C58.907,83.726 54.254,78.855 57.149,74C60.043,69.145 64,64 64,64C64,64 65.994,67.311 67,69C67,69 70.755,70.246 74,75L77,77C77,77 77.826,82.037 73.393,85C68.959,87.963 68.101,86.498 68,89C67.899,91.502 71.266,95.998 69,106C66.734,116.002 66,118 66,118C66,118 71.268,118.699 72,123L66,123" style="fill:none;stroke:rgb(69,183,229);stroke-width:3px;"/>
        <path d="M70,42C70,42 72.047,47.972 69,54C65.953,60.028 58.687,63.508 53.42,59C48.152,54.492 53.01,42.352 58,38C62.99,33.648 68.941,31.352 75,33C82.937,35.159 82.041,40.296 87,43C89.436,44.328 91.65,44.834 93.273,45.005C94.017,45.037 94.713,45.385 95.186,45.961C95.658,46.538 95.862,47.288 95.747,48.025C95.535,49.89 95.036,52.244 94,54C92.002,57.386 87.166,61.257 77.012,58" style="fill:none;stroke:rgb(69,183,229);stroke-width:3px;"/>
        <path d="M80.206,58.826C80.206,58.826 78.72,61.499 80,66C81.28,70.501 83.069,72.113 84,77C84.931,81.887 82.021,86.472 78,97C73.979,107.528 74.285,113.087 78,117C78,117 84.461,117.438 85,123L77.012,123" style="fill:none;stroke:rgb(69,183,229);stroke-width:3px;"/>
        <path d="M20,91C20,91 15.33,96.172 16,106C16.67,115.828 24.735,122.871 36,123C47.265,123.129 58,123 58,123C58,123 58.779,118.998 53,117C53,117 59.828,114.471 60,108C60.172,101.529 56.038,97.294 50,97" style="fill:none;stroke:rgb(69,183,229);stroke-width:3px;"/>
    </g>
</svg>
