<?xml version="1.0" encoding="UTF-8" standalone="no"?>
<!DOCTYPE svg PUBLIC "-//W3C//DTD SVG 1.1//EN" "http://www.w3.org/Graphics/SVG/1.1/DTD/svg11.dtd">
<svg width="100%" height="100%" viewBox="0 0 973 230" version="1.1" xmlns="http://www.w3.org/2000/svg" xmlns:xlink="http://www.w3.org/1999/xlink" xml:space="preserve" xmlns:serif="http://www.serif.com/" style="fill-rule:evenodd;clip-rule:evenodd;stroke-linejoin:round;stroke-miterlimit:2;">
    <g transform="matrix(1,0,0,1,-190.788,-456.249)">
        <g transform="matrix(0.474993,0,0,0.474998,-205.397,357.254)">
            <g>
                <path d="M1075.73,208.391C1209.08,208.391 1317.34,316.652 1317.34,450C1317.34,583.348 1209.08,691.609 1075.73,691.609C942.383,691.609 834.122,583.348 834.122,450C834.122,316.652 942.383,208.391 1075.73,208.391ZM1075.73,226.419C1199.13,226.419 1299.31,326.603 1299.31,450C1299.31,573.397 1199.13,673.581 1075.73,673.581C952.334,673.581 852.151,573.397 852.151,450C852.151,326.603 952.334,226.419 1075.73,226.419Z" style="fill:white;"/>
            </g>
        </g>
        <g id="f" transform="matrix(0.428331,0,0,0.428334,-150.883,376.43)">
            <g>
                <path d="M1308.04,264.741L1237.44,264.741C1204.95,264.741 1176.86,287.365 1169.92,319.1C1159.18,368.286 1145.04,433.066 1145.04,433.066L1081.84,432.79C1057.22,434.052 1033.22,435.589 1008.81,449.038L1051.05,264.741L980.422,264.741C948.07,264.741 920.048,287.186 912.985,318.758C891.84,413.274 850.355,598.709 850.355,598.709L834.919,666.025L871.11,666.025C871.501,663.444 873.117,649.976 877.21,629.614C881.961,611.11 890.711,589.212 907.427,572.082C925.125,553.948 949.121,545.17 986.255,542.615L1119.87,543.198L1091.72,666.025L1217.67,666.025C1222.53,643.381 1308.04,264.741 1308.04,264.741ZM890.55,663.537C890.446,664.455 890.351,665.227 890.268,665.811L961.274,665.811L984.767,556.748C984.651,556.761 983.319,556.863 981.835,557.005C954.915,560.176 936.49,568.004 922.564,582.279C904.517,600.766 896.903,625.511 893.429,643.508L890.55,663.537Z" style="fill:white;fill-rule:nonzero;"/>
            </g>
        </g>
        <g transform="matrix(0.234137,0,0,0.234138,261.026,512.872)">
            <g>
                <path d="M990.836,687.155C987.726,687.156 984.878,685.413 983.464,682.644C973.778,657.69 933.631,542.609 922.053,507.763C921.449,505.359 921.954,502.811 923.431,500.821C924.907,498.831 927.199,497.608 929.674,497.489C933.515,497.298 937.717,497.097 941.058,496.937C945.062,496.746 948.628,499.453 949.519,503.362C960.058,534.394 1005.02,660.404 1005.02,660.404C1005.02,660.404 1049.36,534.179 1059.69,503.255C1060.63,499.402 1064.16,496.753 1068.12,496.942C1071.49,497.098 1075.72,497.299 1079.59,497.483C1082.06,497.601 1084.36,498.821 1085.83,500.808C1087.31,502.795 1087.82,505.34 1087.23,507.744C1075.68,542.461 1035.73,657.621 1025.95,682.655C1024.54,685.414 1021.7,687.149 1018.6,687.149C1011.24,687.155 998.207,687.155 990.836,687.155Z" style="fill:white;fill-rule:nonzero;"/>
                <path d="M1247.03,559.81C1247.03,555.639 1250.04,552.077 1254.16,551.386C1258.49,550.658 1263.19,549.868 1263.19,549.868C1263.19,549.868 1264.73,534.046 1265.68,524.179C1266.11,519.802 1269.79,516.463 1274.18,516.463L1280.72,516.463C1282.99,516.463 1285.16,517.362 1286.76,518.964C1288.36,520.566 1289.26,522.739 1289.26,525.005L1289.26,549.868L1312.77,549.868C1315.03,549.868 1317.21,550.768 1318.81,552.37C1320.41,553.972 1321.31,556.144 1321.31,558.41L1321.31,561.695C1321.31,563.96 1320.41,566.133 1318.81,567.735C1317.21,569.337 1315.03,570.237 1312.77,570.237L1289.26,570.237L1289.26,645.195C1289.26,648.545 1289.51,651.6 1290.01,654.361C1290.51,657.122 1291.37,659.499 1292.59,661.49C1293.81,663.482 1295.42,665.021 1297.41,666.107C1299.4,667.194 1301.85,667.737 1304.74,667.737C1307.1,667.737 1309.25,667.578 1311.19,667.261C1313.14,666.945 1314.93,666.537 1316.56,666.039C1318.19,665.541 1319.73,664.976 1321.17,664.342C1321.17,664.342 1321.17,664.341 1321.18,664.341C1322.3,663.85 1323.57,663.84 1324.7,664.312C1325.83,664.785 1326.72,665.699 1327.15,666.842C1327.9,668.788 1328.81,671.148 1329.65,673.361C1331.3,677.635 1329.3,682.445 1325.12,684.305C1325.12,684.302 1325.11,684.303 1325.11,684.304C1322.67,685.39 1320.11,686.318 1317.44,687.087C1314.77,687.857 1311.89,688.468 1308.82,688.921C1305.74,689.373 1302.34,689.6 1298.63,689.6C1293.29,689.6 1288.46,688.74 1284.13,687.019C1279.81,685.299 1276.09,682.697 1272.98,679.211C1269.88,675.726 1267.47,671.335 1265.76,666.039C1264.05,660.743 1263.19,654.519 1263.19,647.368L1263.19,570.237L1255.57,570.237C1250.86,570.237 1247.03,566.412 1247.03,561.695L1247.03,559.81Z" style="fill:white;fill-rule:nonzero;"/>
                <g transform="matrix(1,0,0,1,-11.4076,0)">
                    <path d="M2153.32,617.086C2153.32,606.313 2154.79,596.603 2157.73,587.958C2160.67,579.312 2164.93,571.934 2170.5,565.824C2176.06,559.713 2182.9,555.028 2191,551.769C2199.1,548.51 2208.31,546.88 2218.64,546.88C2226.87,546.88 2234.91,548.102 2242.74,550.547C2250.57,552.991 2257.52,556.997 2263.58,562.564C2269.65,568.132 2274.54,575.397 2278.25,584.359C2281.96,593.322 2283.82,604.276 2283.82,617.221C2283.82,628.9 2282.32,639.243 2279.33,648.25C2276.35,657.258 2272.07,664.817 2266.5,670.928C2260.93,677.039 2254.1,681.678 2246,684.847C2237.89,688.015 2228.77,689.6 2218.64,689.6C2208.49,689.6 2199.4,688.061 2191.34,684.983C2183.28,681.905 2176.43,677.31 2170.77,671.199C2165.11,665.089 2160.79,657.53 2157.8,648.522C2154.81,639.514 2153.32,629.036 2153.32,617.086ZM2178.85,617.221C2178.85,626.365 2179.82,634.15 2181.77,640.578C2183.71,647.006 2186.45,652.234 2189.98,656.262C2193.51,660.291 2197.72,663.21 2202.61,665.021C2207.5,666.831 2212.89,667.737 2218.77,667.737C2224.74,667.737 2230.16,666.786 2235,664.885C2239.84,662.984 2244.01,659.997 2247.49,655.923C2250.98,651.849 2253.65,646.621 2255.5,640.239C2257.36,633.856 2258.29,626.184 2258.29,617.221C2258.29,608.893 2257.31,601.673 2255.37,595.562C2253.42,589.452 2250.68,584.405 2247.15,580.421C2243.62,576.438 2239.43,573.473 2234.59,571.527C2229.75,569.581 2224.47,568.607 2218.77,568.607C2212.8,568.607 2207.36,569.603 2202.47,571.595C2197.59,573.586 2193.4,576.597 2189.91,580.625C2186.43,584.654 2183.71,589.701 2181.77,595.766C2179.82,601.832 2178.85,608.983 2178.85,617.221Z" style="fill:white;fill-rule:nonzero;"/>
                </g>
            </g>
        </g>
        <g id="Layer-15" serif:id="Layer 15" transform="matrix(3.36714,0,0,3.36716,-4950.86,-4648.04)">
            <g>
                <path d="M1632.78,1578.38L1631.71,1577.88C1631.62,1577.85 1631.55,1577.83 1631.48,1577.83C1631.38,1577.83 1631.31,1577.87 1631.27,1577.95C1630.83,1578.69 1630.12,1579.06 1629.13,1579.06C1627.67,1579.06 1626.82,1578.18 1626.56,1576.42C1627.11,1576.49 1627.66,1576.52 1628.19,1576.52C1631.01,1576.39 1632.45,1575.32 1632.51,1573.31C1632.3,1571.64 1631.2,1570.78 1629.22,1570.75C1626.41,1570.81 1624.9,1572.44 1624.71,1575.65C1624.72,1578.94 1626.19,1580.61 1629.13,1580.67C1630.93,1580.63 1632.18,1580 1632.88,1578.76C1632.91,1578.7 1632.93,1578.65 1632.93,1578.59C1632.93,1578.51 1632.88,1578.44 1632.78,1578.38ZM1629.13,1572.27C1630.17,1572.27 1630.77,1572.65 1630.9,1573.39L1630.9,1573.44C1630.9,1574.13 1630.43,1574.6 1629.49,1574.86C1629.09,1574.97 1628.69,1575.02 1628.29,1575.02C1627.72,1575.02 1627.13,1574.94 1626.53,1574.79C1626.81,1573.23 1627.68,1572.4 1629.13,1572.27Z" style="fill:white;"/>
            </g>
        </g>
        <g id="Layer-151" serif:id="Layer 15" transform="matrix(3.36714,0,0,3.36716,-4892.22,-4648.04)">
            <g>
                <path d="M1632.78,1578.38L1631.71,1577.88C1631.62,1577.85 1631.55,1577.83 1631.48,1577.83C1631.38,1577.83 1631.31,1577.87 1631.27,1577.95C1630.83,1578.69 1630.12,1579.06 1629.13,1579.06C1627.67,1579.06 1626.82,1578.18 1626.56,1576.42C1627.11,1576.49 1627.66,1576.52 1628.19,1576.52C1631.01,1576.39 1632.45,1575.32 1632.51,1573.31C1632.3,1571.64 1631.2,1570.78 1629.22,1570.75C1626.41,1570.81 1624.9,1572.44 1624.71,1575.65C1624.72,1578.94 1626.19,1580.61 1629.13,1580.67C1630.93,1580.63 1632.18,1580 1632.88,1578.76C1632.91,1578.7 1632.93,1578.65 1632.93,1578.59C1632.93,1578.51 1632.88,1578.44 1632.78,1578.38ZM1629.13,1572.27C1630.17,1572.27 1630.77,1572.65 1630.9,1573.39L1630.9,1573.44C1630.9,1574.13 1630.43,1574.6 1629.49,1574.86C1629.09,1574.97 1628.69,1575.02 1628.29,1575.02C1627.72,1575.02 1627.13,1574.94 1626.53,1574.79C1626.81,1573.23 1627.68,1572.4 1629.13,1572.27Z" style="fill:white;"/>
            </g>
        </g>
        <g id="Layer-20" serif:id="Layer 20" transform="matrix(3.22734,0,0,3.22736,-4799.04,-4427.81)">
            <g>
                <path d="M1685.56,1570.77L1684.99,1570.77C1684.57,1570.77 1684.35,1570.91 1684.34,1571.19L1684.34,1580.3C1684.35,1580.59 1684.57,1580.73 1684.99,1580.73L1685.56,1580.73C1685.98,1580.73 1686.2,1580.59 1686.22,1580.3L1686.22,1571.19C1686.2,1570.91 1685.98,1570.77 1685.56,1570.77" style="fill:white;"/>
            </g>
        </g>
        <g id="Layer-21" serif:id="Layer 21" transform="matrix(3.22734,0,0,3.22736,-4799.04,-4427.81)">
            <g>
                <path d="M1685.59,1567.16L1684.97,1567.16C1684.55,1567.16 1684.34,1567.31 1684.34,1567.62L1684.34,1568.53C1684.34,1568.83 1684.55,1568.98 1684.97,1568.98L1685.59,1568.98C1686.02,1568.98 1686.23,1568.83 1686.23,1568.53L1686.23,1567.62C1686.23,1567.31 1686.02,1567.16 1685.59,1567.16" style="fill:white;"/>
            </g>
        </g>
        <g id="Layer-201" serif:id="Layer 20" transform="matrix(3.22734,0,0,3.22736,-4687.24,-4427.81)">
            <g>
                <path d="M1685.56,1570.77L1684.99,1570.77C1684.57,1570.77 1684.35,1570.91 1684.34,1571.19L1684.34,1580.3C1684.35,1580.59 1684.57,1580.73 1684.99,1580.73L1685.56,1580.73C1685.98,1580.73 1686.2,1580.59 1686.22,1580.3L1686.22,1571.19C1686.2,1570.91 1685.98,1570.77 1685.56,1570.77" style="fill:white;"/>
            </g>
        </g>
        <g id="Layer-211" serif:id="Layer 21" transform="matrix(3.22734,0,0,3.22736,-4687.24,-4427.81)">
            <g>
                <path d="M1685.59,1567.16L1684.97,1567.16C1684.55,1567.16 1684.34,1567.31 1684.34,1567.62L1684.34,1568.53C1684.34,1568.83 1684.55,1568.98 1684.97,1568.98L1685.59,1568.98C1686.02,1568.98 1686.23,1568.83 1686.23,1568.53L1686.23,1567.62C1686.23,1567.31 1686.02,1567.16 1685.59,1567.16" style="fill:white;"/>
            </g>
        </g>
        <g id="Layer-212" serif:id="Layer 21" transform="matrix(2.61438,1.89229,-3.80532,5.25749,2271.55,-10803.1)">
            <g>
                <path d="M1685.59,1567.16L1684.97,1567.16C1684.55,1567.16 1684.34,1567.31 1684.34,1567.62L1684.34,1568.53C1684.34,1568.83 1684.55,1568.98 1684.97,1568.98L1685.59,1568.98C1686.02,1568.98 1686.23,1568.83 1686.23,1568.53L1686.23,1567.62C1686.23,1567.31 1686.02,1567.16 1685.59,1567.16" style="fill:white;"/>
            </g>
        </g>
        <g id="Layer-23" serif:id="Layer 23" transform="matrix(3.35153,0,0,3.35154,-5008.16,-4623.55)">
            <g>
                <path d="M1703.91,1570.76C1701.13,1570.88 1699.6,1572.56 1699.32,1575.79C1699.32,1579.08 1700.63,1580.73 1703.27,1580.73C1704.44,1580.61 1705.28,1580.13 1705.8,1579.31L1705.8,1580.3C1705.81,1580.58 1706.03,1580.73 1706.45,1580.73L1707.02,1580.73C1707.44,1580.73 1707.66,1580.58 1707.68,1580.3L1707.68,1572.32C1707.12,1571.28 1705.86,1570.76 1703.91,1570.76ZM1705.8,1576.34C1705.39,1578.02 1704.51,1578.87 1703.15,1578.87C1701.78,1578.87 1701.1,1577.84 1701.1,1575.77C1701.27,1573.63 1702.19,1572.53 1703.85,1572.47C1704.78,1572.47 1705.43,1572.67 1705.8,1573.09L1705.8,1576.34Z" style="fill:white;"/>
            </g>
        </g>
        <g id="Layer-19" serif:id="Layer 19" transform="matrix(3.28309,0,0,3.28311,-4894.18,-4515.93)">
            <g>
                <path d="M1682.06,1570.75C1680.71,1570.78 1679.82,1571.27 1679.4,1572.24L1679.4,1571.19C1679.38,1570.91 1679.16,1570.77 1678.74,1570.77L1678.14,1570.77C1677.72,1570.77 1677.51,1570.91 1677.49,1571.19L1677.49,1580.3C1677.52,1580.59 1677.75,1580.73 1678.17,1580.73L1678.74,1580.73C1679.16,1580.73 1679.38,1580.59 1679.4,1580.3L1679.4,1574.97C1679.41,1573.5 1680.06,1572.74 1681.35,1572.67C1681.73,1572.64 1681.98,1572.49 1682.11,1572.22L1682.51,1571.25C1682.54,1571.18 1682.55,1571.12 1682.55,1571.07C1682.55,1570.85 1682.39,1570.75 1682.06,1570.75" style="fill:white;"/>
            </g>
        </g>
        <g id="Layer-191" serif:id="Layer 19" transform="matrix(3.28309,0,0,3.28311,-4782.4,-4515.93)">
            <g>
                <path d="M1682.06,1570.75C1680.71,1570.78 1679.82,1571.27 1679.4,1572.24L1679.4,1571.19C1679.38,1570.91 1679.16,1570.77 1678.74,1570.77L1678.14,1570.77C1677.72,1570.77 1677.51,1570.91 1677.49,1571.19L1677.49,1580.3C1677.52,1580.59 1677.75,1580.73 1678.17,1580.73L1678.74,1580.73C1679.16,1580.73 1679.38,1580.59 1679.4,1580.3L1679.4,1574.97C1679.41,1573.5 1680.06,1572.74 1681.35,1572.67C1681.73,1572.64 1681.98,1572.49 1682.11,1572.22L1682.51,1571.25C1682.54,1571.18 1682.55,1571.12 1682.55,1571.07C1682.55,1570.85 1682.39,1570.75 1682.06,1570.75" style="fill:white;"/>
            </g>
        </g>
        <g id="Layer-24" serif:id="Layer 24" transform="matrix(3.29413,0,0,3.29415,-4981.23,-4533.39)">
            <g>
                <path d="M1714.62,1570.76C1713.44,1570.88 1712.6,1571.35 1712.09,1572.17L1712.09,1571.19C1712.07,1570.91 1711.88,1570.77 1711.52,1570.77L1710.78,1570.77C1710.41,1570.77 1710.23,1570.91 1710.21,1571.19L1710.21,1580.3C1710.23,1580.58 1710.44,1580.73 1710.87,1580.73L1711.43,1580.73C1711.85,1580.73 1712.07,1580.58 1712.09,1580.3L1712.09,1575.14C1712.49,1573.46 1713.38,1572.62 1714.73,1572.61C1716.05,1572.61 1716.7,1573.56 1716.7,1575.45L1716.7,1580.3C1716.72,1580.58 1716.94,1580.73 1717.36,1580.73L1717.93,1580.73C1718.35,1580.73 1718.57,1580.58 1718.59,1580.3L1718.59,1575.48L1718.57,1575.48C1718.51,1572.33 1717.2,1570.76 1714.62,1570.76" style="fill:white;"/>
            </g>
        </g>
        <g id="Layer-26" serif:id="Layer 26" transform="matrix(0.46536,0,0,0.465363,108.252,-52.5306)">
            <g>
                <path d="M1535.48,1555.34L1544.03,1525.68L1579.94,1525.67C1581.42,1525.66 1582.68,1524.66 1583.1,1523.32L1587.21,1509.68L1549.77,1509.74C1549.77,1509.74 1549.05,1509.65 1548.73,1510.23C1548.62,1510.41 1548.13,1511.29 1548.13,1511.29C1548.13,1511.29 1552.22,1497.19 1558.11,1497.19L1588.47,1497.19C1589.95,1497.19 1591.21,1496.21 1591.64,1494.87L1596.72,1477.64L1559.64,1477.59C1547.62,1478.46 1538.85,1488.46 1533.31,1507.59L1518.58,1557.77L1532.27,1557.77C1533.79,1557.77 1535.08,1556.74 1535.48,1555.34" style="fill:white;"/>
            </g>
        </g>
        <g id="Layer-27" serif:id="Layer 27" transform="matrix(0.46536,0,0,0.465363,108.252,-52.5306)">
            <g>
                <path d="M1647.04,1555.83L1628.39,1477.64C1627.78,1477.65 1618.53,1477.64 1617.35,1477.64C1615.02,1477.64 1614.19,1478.75 1613.68,1479.76L1579.45,1557.77L1592.87,1557.77C1595.53,1557.77 1595.99,1556.6 1596.4,1555.7L1604.23,1537.97L1625.37,1537.88C1627.89,1537.88 1628.59,1539.63 1628.59,1539.63L1632.87,1557.77L1644.16,1557.77C1644.16,1557.77 1647.51,1557.77 1647.04,1555.83ZM1623.49,1526.7L1610.65,1526.7C1610.65,1526.7 1610.09,1526.73 1609.94,1526.73C1609.37,1526.73 1608.73,1527.76 1608.73,1527.76L1619.83,1502.32L1625.25,1525.27C1625.27,1525.33 1625.53,1526.7 1623.49,1526.7Z" style="fill:white;"/>
            </g>
        </g>
        <g id="Layer-28" serif:id="Layer 28" transform="matrix(0.46536,0,0,0.465363,108.252,-52.5306)">
            <g>
                <path d="M1727.55,1477.64C1724.18,1477.64 1722.39,1477.64 1720.39,1481.36L1694.48,1529.26C1694.48,1529.26 1694.14,1529.87 1694.04,1530.06C1693.52,1531.1 1693.59,1532.53 1693.59,1532.53L1684.63,1477.64L1671.62,1477.64C1668.1,1477.64 1665.53,1477.64 1664.85,1481.8L1650.44,1557.77C1652.12,1557.71 1659.29,1557.77 1659.29,1557.77C1665.36,1557.77 1665.36,1557.77 1666.11,1553.67L1674.62,1508.58L1682.42,1556.68C1687.38,1556.69 1682.87,1556.69 1687.38,1556.69L1689.86,1556.69C1694.7,1556.68 1694.7,1556.68 1696.49,1553.46L1720.51,1508.9L1711.25,1557.77L1720.55,1557.77C1726.08,1557.77 1726.08,1557.77 1726.94,1553.62L1741.36,1477.64L1727.55,1477.64Z" style="fill:white;"/>
            </g>
        </g>
        <g transform="matrix(1.2779,0,-0.148816,1.22782,-781.625,308.312)">
            <g transform="matrix(1,0,0,1,1006.4,241.039)">
                <path d="M50.851,-59.177L50.851,-98.812L71.288,-98.812L71.288,0.138L50.851,0.138L50.851,-39.566L27.731,-39.566L27.731,0.138L7.156,0.138L8.601,-98.812L27.731,-98.812L27.731,-59.177L50.851,-59.177Z" style="fill:white;"/>
            </g>
            <g transform="matrix(1,0,0,1,1006.4,241.039)">
                <path d="M116.083,-100.188C122.001,-100.188 127.552,-98.835 132.736,-96.128C137.965,-93.468 142.163,-89.775 145.328,-85.05C148.539,-80.371 150.145,-75.279 150.145,-69.774L150.145,-27.593C150.145,-22.134 148.562,-17.042 145.397,-12.317C142.231,-7.638 138.034,-3.945 132.804,-1.239C127.575,1.468 122.001,2.821 116.083,2.821C110.166,2.821 104.569,1.468 99.294,-1.239C94.064,-3.945 89.867,-7.638 86.701,-12.317C83.536,-17.042 81.953,-22.134 81.953,-27.593L81.953,-69.774C81.953,-75.279 83.536,-80.371 86.701,-85.05C89.867,-89.775 94.064,-93.468 99.294,-96.128C104.523,-98.835 110.12,-100.188 116.083,-100.188ZM129.57,-27.593L129.57,-69.774C129.57,-72.068 128.125,-74.27 125.235,-76.38C122.391,-78.536 119.34,-79.614 116.083,-79.614C112.735,-79.614 109.615,-78.536 106.725,-76.38C103.835,-74.27 102.39,-72.068 102.39,-69.774L102.39,-27.593C102.39,-25.391 103.835,-23.212 106.725,-21.056C109.661,-18.946 112.78,-17.891 116.083,-17.891C119.34,-17.891 122.391,-18.946 125.235,-21.056C128.125,-23.212 129.57,-25.391 129.57,-27.593Z" style="fill:white;"/>
            </g>
            <g transform="matrix(1,0,0,1,1006.4,241.039)">
                <path d="M189.435,-79.751C186.041,-79.751 183.013,-78.65 180.352,-76.449C177.692,-74.292 176.361,-71.976 176.361,-69.499C176.361,-67.113 177.623,-65.026 180.146,-63.237C182.669,-61.494 186.339,-60.278 191.156,-59.59C201.34,-58.122 209.138,-54.613 214.551,-49.062C220.01,-43.511 222.74,-36.47 222.74,-27.937C222.74,-22.386 221.249,-17.226 218.267,-12.455C215.285,-7.73 211.225,-3.968 206.088,-1.17C200.996,1.583 195.445,2.959 189.435,2.959C181.132,2.959 173.747,-0.161 167.278,-6.399C160.856,-12.684 157.072,-20.414 155.925,-29.589L175.605,-29.589C176.568,-26.561 178.403,-23.808 181.109,-21.331C183.816,-18.854 186.591,-17.616 189.435,-17.616C192.83,-17.616 195.881,-18.716 198.587,-20.918C201.34,-23.166 202.716,-25.506 202.716,-27.937C202.716,-30.506 201.477,-32.8 199,-34.818C196.569,-36.882 193.059,-38.236 188.472,-38.878C178.105,-40.3 170.146,-43.626 164.595,-48.855C159.09,-54.085 156.338,-60.966 156.338,-69.499C156.338,-77.939 159.572,-85.187 166.04,-91.243C172.554,-97.298 180.352,-100.326 189.435,-100.326C197.83,-100.326 205.262,-97.183 211.73,-90.899C218.198,-84.66 222.006,-76.953 223.153,-67.778L203.404,-67.778C202.441,-70.806 200.606,-73.536 197.899,-75.967C195.193,-78.444 192.371,-79.706 189.435,-79.751Z" style="fill:white;"/>
            </g>
            <g transform="matrix(1,0,0,1,1006.4,241.039)">
                <path d="M267.329,-98.812C276.045,-98.812 283.499,-95.578 289.692,-89.11C295.931,-82.641 299.051,-74.866 299.051,-65.783C299.051,-59.819 297.629,-54.314 294.784,-49.268C291.94,-44.222 288.087,-40.231 283.224,-37.295C278.362,-34.405 273.063,-32.96 267.329,-32.96L252.81,-32.96L252.81,0.138L232.373,0.138L232.373,-98.812L267.329,-98.812ZM264.508,-52.571C268.499,-52.571 271.893,-53.856 274.692,-56.425C277.49,-59.039 278.889,-62.159 278.889,-65.783C278.889,-69.453 277.49,-72.572 274.692,-75.141C271.893,-77.756 268.499,-79.063 264.508,-79.063L252.81,-79.063L252.81,-52.571L264.508,-52.571Z" style="fill:white;"/>
            </g>
            <g transform="matrix(1,0,0,1,1006.4,241.039)">
                <rect x="307.583" y="-98.812" width="20.574" height="98.95" style="fill:white;"/>
            </g>
            <g transform="matrix(1,0,0,1,1006.4,241.039)">
                <path d="M356.851,0.138L356.851,-79.063L336.552,-79.063L336.552,-98.812L397.725,-98.812L397.725,-79.063L377.426,-79.063L377.426,0.138L356.851,0.138Z" style="fill:white;"/>
            </g>
            <g transform="matrix(1,0,0,1,1401.31,241.039)">
                <path d="M29.589,-98.812L49.475,-98.812L78.926,0L57.526,-0.138L51.264,-20.437L27.455,-20.437L21.4,0L0.138,0L29.589,-98.812ZM33.235,-40.185L45.69,-40.185L39.428,-64.544L33.235,-40.185Z" style="fill:white;"/>
            </g>
            <g transform="matrix(1,0,0,1,1401.31,241.039)">
                <path d="M106.45,-98.812L106.45,-19.611L137.071,-19.611L137.071,0.138L86.013,0.138L86.013,-98.812L106.45,-98.812Z" style="fill:white;"/>
            </g>
        </g>
    </g>
</svg>
