<?xml version="1.0" encoding="UTF-8" standalone="no"?>
<!DOCTYPE svg PUBLIC "-//W3C//DTD SVG 1.1//EN" "http://www.w3.org/Graphics/SVG/1.1/DTD/svg11.dtd">
<svg width="100%" height="100%" viewBox="0 0 397 390" version="1.1" xmlns="http://www.w3.org/2000/svg" xmlns:xlink="http://www.w3.org/1999/xlink" xml:space="preserve" xmlns:serif="http://www.serif.com/" style="fill-rule:evenodd;clip-rule:evenodd;stroke-linecap:round;stroke-linejoin:round;stroke-miterlimit:1.5;">
    <g transform="matrix(1,0,0,1,-1930.52,-3921.85)">
        <g transform="matrix(1,0,0,1,-115.946,803)">
            <g transform="matrix(4.16667,0,0,4.16667,831.82,2779.75)">
                <path d="M385.243,118.078L339.129,96.732L293.015,118.078L293.683,129.369L339.382,108.302L385.08,129.369L385.243,118.078Z" style="fill:none;stroke:black;stroke-width:3px;"/>
            </g>
        </g>
        <g transform="matrix(1,0,0,1,-115.946,803)">
            <g transform="matrix(1,0,0,0.577736,-217.777,883.868)">
                <path d="M2462.64,3979.22L2462.64,3919" style="fill:none;stroke:black;stroke-width:15.31px;"/>
            </g>
        </g>
        <g transform="matrix(1,0,0,1,-115.946,803)">
            <g transform="matrix(1.21501,0,0,1,-750.734,-774.768)">
                <path d="M2437.88,3940L2505,3940L2490.91,3925.91L2505,3940L2490.55,3954.45" style="fill:none;stroke:black;stroke-width:11.23px;"/>
            </g>
        </g>
        <g transform="matrix(1,0,0,1,-115.946,803)">
            <g transform="matrix(0.929674,-0.0703259,-0.0703259,0.929674,231.14,-326.933)">
                <path d="M2428,3940L2411.6,3923.6" style="fill:none;stroke:black;stroke-width:14.55px;"/>
            </g>
        </g>
        <g transform="matrix(1,0,0,1,-115.946,803)">
            <g transform="matrix(1,0,0,1,-216.695,-774.768)">
                <path d="M2428,3940L2413.55,3954.45" style="fill:none;stroke:black;stroke-width:12.5px;"/>
            </g>
        </g>
        <g transform="matrix(1,0,0,1,-115.946,803)">
            <g transform="matrix(0.486399,0,0,0.486399,1209.05,1237.39)">
                <circle cx="2129.55" cy="3904.55" r="23.552" style="fill:none;stroke:black;stroke-width:25.7px;"/>
            </g>
        </g>
        <g transform="matrix(1,0,0,1,-115.946,803)">
            <g transform="matrix(0.910257,0,0,0.860386,1821.77,3352.63)">
                <path d="M304,125.463L304,174" style="fill:none;stroke:black;stroke-width:14.11px;"/>
            </g>
        </g>
        <g transform="matrix(1,0,0,1,-115.946,803)">
            <g transform="matrix(2.50564,0,0,2.50564,1336.77,2988.15)">
                <path d="M304,125.463L304,174" style="fill:none;stroke:black;stroke-width:4.99px;"/>
            </g>
        </g>
        <g transform="matrix(1,0,0,1,-115.946,803)">
            <g transform="matrix(0.884309,0.111017,0.111017,0.893469,-262.354,-599.142)">
                <path d="M2481.75,4161.94L2296.5,4305.16" style="fill:none;stroke:black;stroke-width:12.5px;"/>
            </g>
        </g>
        <g transform="matrix(1,0,0,1,-115.946,803)">
            <g transform="matrix(-0.884309,0.111017,-0.111017,0.893469,4914.06,-599.142)">
                <path d="M2494.37,4160.37L2309.12,4303.59" style="fill:none;stroke:black;stroke-width:12.5px;"/>
            </g>
        </g>
        <g transform="matrix(1,0,0,1,-115.946,803)">
            <g transform="matrix(0.884309,0.111017,0.111017,0.893469,-422.811,-599.142)">
                <path d="M2496.15,4160.15L2310.9,4303.37" style="fill:none;stroke:black;stroke-width:12.5px;"/>
            </g>
        </g>
        <g transform="matrix(1,0,0,1,-115.946,803)">
            <g transform="matrix(-0.884309,0.111017,-0.111017,0.893469,4753.61,-599.142)">
                <path d="M2479.96,4162.16L2294.71,4305.38" style="fill:none;stroke:black;stroke-width:12.5px;"/>
            </g>
        </g>
        <g transform="matrix(1,0,0,1,-115.946,803)">
            <g transform="matrix(2.50564,0,0,5.45546,1470.59,2553.08)">
                <path d="M314.857,174L368.658,174L250.591,174L304,174" style="fill:none;stroke:black;stroke-width:2.94px;"/>
            </g>
        </g>
        <g transform="matrix(1,0,0,1,-115.946,803)">
            <g transform="matrix(4.16667,0,0,4.1168,1127.65,2786.01)">
                <path d="M304,125.463L304,174" style="fill:none;stroke:black;stroke-width:3.02px;"/>
            </g>
        </g>
        <g transform="matrix(1,0,0,1,-115.946,803)">
            <g transform="matrix(1,0,0,1,-217.777,-796.413)">
                <path d="M2316.26,4166.35L2611.12,4166.35" style="fill:none;stroke:black;stroke-width:12.5px;"/>
            </g>
        </g>
        <g transform="matrix(1,0,0,1,-115.946,803)">
            <g transform="matrix(1,0,0,1,-217.777,-771.413)">
                <path d="M2316.26,4166.35L2612.1,4166.35" style="fill:none;stroke:black;stroke-width:12.5px;"/>
            </g>
        </g>
        <g transform="matrix(1,0,0,1,-115.946,803)">
            <g transform="matrix(1,0,0,1,-732.054,-796.413)">
                <path d="M2978.46,4105L2978.46,4298.75" style="fill:none;stroke:black;stroke-width:12.5px;"/>
            </g>
        </g>
    </g>
</svg>
