<?xml version="1.0" encoding="UTF-8" standalone="no"?>
<!DOCTYPE svg PUBLIC "-//W3C//DTD SVG 1.1//EN" "http://www.w3.org/Graphics/SVG/1.1/DTD/svg11.dtd">
<svg width="100%" height="100%" viewBox="0 0 95 102" version="1.1" xmlns="http://www.w3.org/2000/svg" xmlns:xlink="http://www.w3.org/1999/xlink" xml:space="preserve" xmlns:serif="http://www.serif.com/" style="fill-rule:evenodd;clip-rule:evenodd;stroke-linejoin:round;stroke-miterlimit:2;">
    <g transform="matrix(1,0,0,1,-292.051,-73.8683)">
        <g transform="matrix(1,0,0,1,114,52)">
            <g transform="matrix(12.337,0,0,12.337,2872.63,-1706.58)">
                <rect x="-214.313" y="145.395" width="2.381" height="0.264" style="fill:rgb(69,183,229);fill-rule:nonzero;"/>
                <rect x="-217.223" y="145.924" width="2.381" height="0.264" style="fill:rgb(69,183,229);fill-rule:nonzero;"/>
                <rect x="-217.223" y="147.51" width="2.381" height="0.266" style="fill:rgb(69,183,229);fill-rule:nonzero;"/>
                <path d="M-215.307,145.942L-217.291,147.133L-217.155,147.36L-215.171,146.168L-215.307,145.942Z" style="fill:rgb(69,183,229);fill-rule:nonzero;"/>
                <path d="M-214.911,146.338L-216.895,147.529L-216.758,147.756L-214.774,146.567L-214.911,146.338Z" style="fill:rgb(69,183,229);fill-rule:nonzero;"/>
                <rect x="-216.827" y="146.055" width="0.266" height="0.861" style="fill:rgb(69,183,229);fill-rule:nonzero;"/>
                <rect x="-215.503" y="146.783" width="0.264" height="0.859" style="fill:rgb(69,183,229);fill-rule:nonzero;"/>
                <rect x="-217.356" y="143.948" width="0.266" height="4.224" style="fill:rgb(69,183,229);fill-rule:nonzero;"/>
                <rect x="-214.975" y="142.882" width="0.266" height="5.29" style="fill:rgb(69,183,229);fill-rule:nonzero;"/>
                <rect x="-214.313" y="145.924" width="2.381" height="0.264" style="fill:rgb(69,183,229);fill-rule:nonzero;"/>
                <rect x="-214.313" y="147.51" width="2.381" height="0.266" style="fill:rgb(69,183,229);fill-rule:nonzero;"/>
                <rect x="-214.313" y="148.039" width="2.381" height="0.266" style="fill:rgb(69,183,229);fill-rule:nonzero;"/>
                <path d="M-212.397,145.942L-214.382,147.133L-214.245,147.36L-212.261,146.168L-212.397,145.942Z" style="fill:rgb(69,183,229);fill-rule:nonzero;"/>
                <path d="M-212.001,146.338L-213.985,147.529L-213.848,147.756L-211.864,146.567L-212.001,146.338Z" style="fill:rgb(69,183,229);fill-rule:nonzero;"/>
                <rect x="-213.917" y="146.055" width="0.266" height="0.861" style="fill:rgb(69,183,229);fill-rule:nonzero;"/>
                <rect x="-212.593" y="146.783" width="0.264" height="0.859" style="fill:rgb(69,183,229);fill-rule:nonzero;"/>
                <rect x="-214.446" y="142.882" width="0.266" height="5.29" style="fill:rgb(69,183,229);fill-rule:nonzero;"/>
                <rect x="-212.064" y="144.014" width="0.264" height="4.158" style="fill:rgb(69,183,229);fill-rule:nonzero;"/>
                <path d="M-217.885,144.147L-217.885,148.305L-211.271,148.305L-211.271,144.147L-211.534,144.147L-211.534,148.039L-217.62,148.039L-217.62,144.147L-217.885,144.147Z" style="fill:rgb(69,183,229);fill-rule:nonzero;"/>
                <path d="M-214.598,141.956C-214.611,141.958 -214.622,141.962 -214.634,141.968L-218.336,143.686C-218.384,143.707 -218.415,143.755 -218.414,143.807L-218.414,144.467C-218.414,144.468 -218.414,144.468 -218.414,144.469C-218.414,144.542 -218.355,144.601 -218.282,144.601C-218.262,144.601 -218.243,144.597 -218.225,144.588L-214.577,142.893L-210.929,144.588C-210.912,144.596 -210.893,144.6 -210.874,144.6C-210.801,144.6 -210.741,144.541 -210.741,144.468C-210.741,144.468 -210.741,143.807 -210.741,143.807C-210.741,143.755 -210.771,143.708 -210.818,143.686L-214.522,141.968C-214.546,141.956 -214.573,141.952 -214.599,141.956L-214.598,141.956ZM-214.577,142.233L-211.007,143.891L-211.007,144.26L-214.522,142.628C-214.557,142.611 -214.598,142.611 -214.634,142.628L-218.149,144.26L-218.149,143.891L-214.577,142.233Z" style="fill:rgb(69,183,229);fill-rule:nonzero;"/>
                <rect x="-217.223" y="145.395" width="2.381" height="0.264" style="fill:rgb(69,183,229);fill-rule:nonzero;"/>
                <path d="M-215.505,140.763C-215.505,140.763 -215.505,140.763 -215.506,140.763C-215.578,140.763 -215.638,140.822 -215.638,140.895C-215.638,140.931 -215.623,140.966 -215.596,140.991L-215.426,141.161L-215.596,141.333C-215.629,141.358 -215.648,141.397 -215.648,141.438C-215.648,141.51 -215.588,141.57 -215.516,141.57C-215.475,141.57 -215.436,141.551 -215.411,141.518L-215.145,141.255C-215.12,141.23 -215.106,141.196 -215.106,141.161C-215.106,141.126 -215.12,141.092 -215.145,141.067L-215.411,140.804C-215.435,140.778 -215.469,140.763 -215.504,140.763L-215.505,140.763Z" style="fill:rgb(69,183,229);fill-rule:nonzero;"/>
                <path d="M-213.852,140.763C-213.853,140.763 -213.853,140.763 -213.853,140.763C-213.926,140.763 -213.986,140.822 -213.986,140.895C-213.986,140.931 -213.971,140.966 -213.944,140.991L-213.772,141.161L-213.944,141.333C-213.973,141.358 -213.99,141.395 -213.99,141.433C-213.99,141.506 -213.93,141.565 -213.858,141.565C-213.819,141.565 -213.782,141.548 -213.757,141.518L-213.491,141.255C-213.466,141.23 -213.452,141.196 -213.452,141.161C-213.452,141.126 -213.466,141.092 -213.491,141.067L-213.757,140.804C-213.782,140.778 -213.816,140.763 -213.852,140.763L-213.852,140.763Z" style="fill:rgb(69,183,229);fill-rule:nonzero;"/>
                <rect x="-215.372" y="141.028" width="1.654" height="0.266" style="fill:rgb(69,183,229);fill-rule:nonzero;"/>
                <rect x="-214.71" y="140.765" width="0.264" height="1.322" style="fill:rgb(69,183,229);fill-rule:nonzero;"/>
                <path d="M-214.577,140.103C-214.794,140.103 -214.975,140.281 -214.975,140.499C-214.975,140.717 -214.794,140.897 -214.577,140.897C-214.359,140.897 -214.18,140.717 -214.18,140.499C-214.18,140.281 -214.359,140.103 -214.577,140.103ZM-214.577,140.368C-214.502,140.368 -214.446,140.424 -214.446,140.499C-214.446,140.574 -214.502,140.632 -214.577,140.632C-214.652,140.632 -214.71,140.574 -214.71,140.499C-214.71,140.424 -214.651,140.368 -214.577,140.368Z" style="fill:rgb(69,183,229);fill-rule:nonzero;"/>
                <path d="M-214.776,141.491C-214.849,141.491 -214.909,141.551 -214.909,141.624C-214.909,141.697 -214.849,141.757 -214.776,141.757L-214.38,141.757C-214.307,141.757 -214.247,141.697 -214.247,141.624C-214.247,141.551 -214.307,141.491 -214.38,141.491L-214.776,141.491Z" style="fill:rgb(69,183,229);fill-rule:nonzero;"/>
            </g>
        </g>
    </g>
</svg>
