<?xml version="1.0" encoding="UTF-8" standalone="no"?>
<!DOCTYPE svg PUBLIC "-//W3C//DTD SVG 1.1//EN" "http://www.w3.org/Graphics/SVG/1.1/DTD/svg11.dtd">
<svg width="100%" height="100%" viewBox="0 0 1255 723" version="1.1" xmlns="http://www.w3.org/2000/svg" xmlns:xlink="http://www.w3.org/1999/xlink" xml:space="preserve" xmlns:serif="http://www.serif.com/" style="fill-rule:evenodd;clip-rule:evenodd;stroke-linejoin:round;stroke-miterlimit:2;">
    <g transform="matrix(1,0,0,1,-625.713,-1608.16)">
        <g transform="matrix(0.471618,0,0,0.471618,411.602,1064.62)">
            <g transform="matrix(739.905,0,0,739.905,430,1690.43)">
                <path d="M0.035,-0.362C0.035,-0.152 0.193,0.012 0.409,0.012C0.487,0.012 0.557,-0.009 0.615,-0.047L0.688,0.022L0.787,-0.089L0.712,-0.15C0.754,-0.21 0.783,-0.28 0.783,-0.362C0.783,-0.567 0.625,-0.727 0.409,-0.727C0.193,-0.727 0.035,-0.567 0.035,-0.362ZM0.216,-0.362C0.216,-0.479 0.302,-0.567 0.409,-0.567C0.516,-0.567 0.602,-0.479 0.602,-0.362C0.602,-0.329 0.595,-0.298 0.583,-0.27L0.512,-0.339L0.414,-0.228L0.487,-0.164C0.465,-0.153 0.435,-0.148 0.409,-0.148C0.302,-0.148 0.216,-0.24 0.216,-0.362Z" style="fill:white;fill-rule:nonzero;"/>
            </g>
            <g transform="matrix(739.905,0,0,739.905,1042.64,1690.43)">
                <path d="M0.074,-0.263C0.074,-0.102 0.192,0.012 0.374,0.012C0.554,0.012 0.672,-0.102 0.672,-0.263L0.672,-0.715L0.497,-0.715L0.497,-0.263C0.497,-0.188 0.448,-0.148 0.373,-0.148C0.298,-0.148 0.249,-0.188 0.249,-0.263L0.249,-0.715L0.074,-0.715L0.074,-0.263Z" style="fill:white;fill-rule:nonzero;"/>
            </g>
            <g transform="matrix(739.905,0,0,739.905,1594.61,1690.43)">
                <path d="M0.084,-0L0.546,-0L0.546,-0.15L0.259,-0.15L0.259,-0.285L0.477,-0.285L0.477,-0.435L0.259,-0.435L0.259,-0.565L0.532,-0.565L0.532,-0.715L0.084,-0.715L0.084,-0Z" style="fill:white;fill-rule:nonzero;"/>
            </g>
            <g transform="matrix(739.905,0,0,739.905,2029.67,1690.43)">
                <path d="M0.084,-0L0.259,-0L0.259,-0.241L0.341,-0.241L0.468,-0L0.663,-0L0.524,-0.25C0.507,-0.28 0.497,-0.293 0.497,-0.293L0.497,-0.295C0.568,-0.331 0.604,-0.414 0.604,-0.49C0.604,-0.594 0.553,-0.667 0.472,-0.698C0.441,-0.71 0.406,-0.715 0.333,-0.715L0.084,-0.715L0.084,-0ZM0.259,-0.391L0.259,-0.565L0.318,-0.565C0.406,-0.565 0.426,-0.533 0.426,-0.479C0.426,-0.422 0.391,-0.391 0.335,-0.391L0.259,-0.391Z" style="fill:white;fill-rule:nonzero;"/>
            </g>
            <g transform="matrix(739.905,0,0,739.905,2532.81,1690.43)">
                <path d="M0.035,-0.362C0.035,-0.152 0.193,0.012 0.409,0.012C0.625,0.012 0.783,-0.152 0.783,-0.362C0.783,-0.567 0.625,-0.727 0.409,-0.727C0.193,-0.727 0.035,-0.567 0.035,-0.362ZM0.216,-0.362C0.216,-0.479 0.302,-0.567 0.409,-0.567C0.516,-0.567 0.602,-0.479 0.602,-0.362C0.602,-0.24 0.516,-0.148 0.409,-0.148C0.302,-0.148 0.216,-0.24 0.216,-0.362Z" style="fill:white;fill-rule:nonzero;"/>
            </g>
        </g>
        <g transform="matrix(0.270204,0,0,0.270204,508.326,1590.15)">
            <g transform="matrix(739.905,0,0,739.905,430,1690.43)">
                <path d="M0.594,-0.75L0.006,-0.75L0.006,-0.558L0.18,-0.558L0.18,-0L0.42,-0L0.42,-0.558L0.594,-0.558L0.594,-0.75Z" style="fill:rgb(229,56,136);fill-rule:nonzero;"/>
            </g>
            <g transform="matrix(739.905,0,0,739.905,873.943,1690.43)">
                <path d="M0.584,-0.25L0.714,-0L0.45,-0L0.352,-0.223L0.3,-0.223L0.3,-0L0.06,-0L0.06,-0.75L0.438,-0.75C0.61,-0.75 0.696,-0.662 0.696,-0.487C0.696,-0.367 0.659,-0.288 0.584,-0.25ZM0.355,-0.558L0.3,-0.558L0.3,-0.408L0.355,-0.408C0.384,-0.408 0.405,-0.411 0.419,-0.417C0.432,-0.423 0.438,-0.437 0.438,-0.458L0.438,-0.508C0.438,-0.529 0.432,-0.543 0.419,-0.549C0.405,-0.555 0.384,-0.558 0.355,-0.558Z" style="fill:rgb(229,56,136);fill-rule:nonzero;"/>
            </g>
            <g transform="matrix(739.905,0,0,739.905,1419.99,1690.43)">
                <path d="M0.266,-0.119L0.464,-0.119L0.492,-0L0.745,-0L0.551,-0.75L0.18,-0.75L-0.014,-0L0.239,-0L0.266,-0.119ZM0.372,-0.52L0.42,-0.31L0.31,-0.31L0.359,-0.52L0.372,-0.52Z" style="fill:rgb(229,56,136);fill-rule:nonzero;"/>
            </g>
            <g transform="matrix(739.905,0,0,739.905,1960.86,1690.43)">
                <path d="M0.491,-0L0.06,-0L0.06,-0.75L0.449,-0.75C0.521,-0.75 0.572,-0.736 0.603,-0.708C0.634,-0.68 0.649,-0.639 0.649,-0.586C0.649,-0.532 0.639,-0.491 0.62,-0.462C0.601,-0.432 0.574,-0.413 0.541,-0.404L0.541,-0.397C0.638,-0.38 0.686,-0.314 0.686,-0.199C0.686,-0.139 0.67,-0.091 0.639,-0.055C0.607,-0.018 0.558,-0 0.491,-0ZM0.394,-0.299L0.3,-0.299L0.3,-0.176L0.392,-0.176C0.426,-0.176 0.443,-0.197 0.443,-0.238C0.443,-0.279 0.427,-0.299 0.394,-0.299ZM0.376,-0.586L0.3,-0.586L0.3,-0.474L0.374,-0.474C0.405,-0.474 0.42,-0.493 0.42,-0.53C0.42,-0.567 0.405,-0.586 0.376,-0.586Z" style="fill:rgb(229,56,136);fill-rule:nonzero;"/>
            </g>
            <g transform="matrix(739.905,0,0,739.905,2486.19,1690.43)">
                <path d="M0.266,-0.119L0.464,-0.119L0.492,-0L0.745,-0L0.551,-0.75L0.18,-0.75L-0.014,-0L0.239,-0L0.266,-0.119ZM0.372,-0.52L0.42,-0.31L0.31,-0.31L0.359,-0.52L0.372,-0.52Z" style="fill:rgb(229,56,136);fill-rule:nonzero;"/>
            </g>
            <g transform="matrix(739.905,0,0,739.905,3027.07,1690.43)">
                <path d="M0.54,-0.192L0.3,-0.192L0.3,-0.75L0.06,-0.75L0.06,-0L0.54,-0L0.54,-0.192Z" style="fill:rgb(229,56,136);fill-rule:nonzero;"/>
            </g>
            <g transform="matrix(739.905,0,0,739.905,3431.05,1690.43)">
                <path d="M0.72,-0L0.72,-0.75L0.48,-0.75L0.48,-0.485L0.3,-0.485L0.3,-0.75L0.06,-0.75L0.06,-0L0.3,-0L0.3,-0.265L0.48,-0.265L0.48,-0L0.72,-0Z" style="fill:rgb(229,56,136);fill-rule:nonzero;"/>
            </g>
            <g transform="matrix(739.905,0,0,739.905,4008.18,1690.43)">
                <path d="M0.266,-0.119L0.464,-0.119L0.492,-0L0.745,-0L0.551,-0.75L0.18,-0.75L-0.014,-0L0.239,-0L0.266,-0.119ZM0.372,-0.52L0.42,-0.31L0.31,-0.31L0.359,-0.52L0.372,-0.52Z" style="fill:rgb(229,56,136);fill-rule:nonzero;"/>
            </g>
            <g transform="matrix(739.905,0,0,739.905,4549.05,1690.43)">
                <path d="M0.584,-0.25L0.714,-0L0.45,-0L0.352,-0.223L0.3,-0.223L0.3,-0L0.06,-0L0.06,-0.75L0.438,-0.75C0.61,-0.75 0.696,-0.662 0.696,-0.487C0.696,-0.367 0.659,-0.288 0.584,-0.25ZM0.355,-0.558L0.3,-0.558L0.3,-0.408L0.355,-0.408C0.384,-0.408 0.405,-0.411 0.419,-0.417C0.432,-0.423 0.438,-0.437 0.438,-0.458L0.438,-0.508C0.438,-0.529 0.432,-0.543 0.419,-0.549C0.405,-0.555 0.384,-0.558 0.355,-0.558Z" style="fill:rgb(229,56,136);fill-rule:nonzero;"/>
            </g>
        </g>
        <g transform="matrix(1,0,0,1,-0.897387,-97)">
            <g transform="matrix(0.471618,0,0,0.471618,415.64,1630.62)">
                <g transform="matrix(739.905,0,0,739.905,430,1690.43)">
                    <path d="M0.084,-0L0.259,-0L0.259,-0.333C0.259,-0.378 0.251,-0.455 0.251,-0.455L0.253,-0.455C0.253,-0.455 0.285,-0.38 0.313,-0.333L0.512,-0L0.688,-0L0.688,-0.715L0.513,-0.715L0.513,-0.381C0.513,-0.336 0.521,-0.259 0.521,-0.259L0.519,-0.259C0.519,-0.259 0.487,-0.334 0.459,-0.381L0.261,-0.715L0.084,-0.715L0.084,-0Z" style="fill:white;fill-rule:nonzero;"/>
                </g>
                <g transform="matrix(739.905,0,0,739.905,1001.21,1690.43)">
                    <path d="M0.486,-0L0.666,-0L0.423,-0.715L0.239,-0.715L-0.004,-0L0.176,-0L0.219,-0.15L0.442,-0.15L0.486,-0ZM0.332,-0.552C0.332,-0.552 0.348,-0.474 0.361,-0.429L0.401,-0.29L0.26,-0.29L0.301,-0.429C0.314,-0.474 0.33,-0.552 0.33,-0.552L0.332,-0.552Z" style="fill:white;fill-rule:nonzero;"/>
                </g>
            </g>
            <g transform="matrix(0.966932,0,0,0.966932,-134.171,979.203)">
                <g transform="matrix(4.16667,0,0,4.16667,547.601,-230.63)">
                    <path d="M206.931,413.036L213.547,390.131L241.338,390.128C242.482,390.114 243.454,389.348 243.781,388.306L246.962,377.777L217.987,377.821C217.987,377.821 217.427,377.752 217.179,378.198C217.1,378.341 216.724,379.02 216.724,379.02C216.724,379.02 219.885,368.128 224.439,368.128L247.938,368.128C249.083,368.128 250.055,367.376 250.391,366.342L254.316,353.033L225.629,352.989C216.327,353.665 209.533,361.39 205.252,376.161L193.854,414.917L204.444,414.917C205.623,414.917 206.624,414.118 206.931,413.036Z" style="fill:rgb(69,183,229);fill-rule:nonzero;"/>
                </g>
                <g transform="matrix(4.16667,0,0,4.16667,547.601,-230.447)">
                    <path d="M275.04,390.878L265.099,390.878C265.099,390.878 264.663,390.895 264.549,390.895C264.108,390.895 263.613,391.693 263.613,391.693L272.206,372.048L276.403,389.767C276.413,389.814 276.616,390.878 275.04,390.878ZM293.262,413.376L278.826,352.989C278.36,352.994 271.2,352.989 270.288,352.989C268.479,352.989 267.835,353.847 267.449,354.625L240.956,414.873L251.343,414.873C253.399,414.873 253.756,413.969 254.073,413.271L260.134,399.581L276.492,399.51C278.445,399.51 278.985,400.863 278.985,400.863L282.295,414.873L291.032,414.873C291.032,414.873 293.624,414.873 293.262,413.376Z" style="fill:rgb(69,183,229);fill-rule:nonzero;"/>
                </g>
                <g transform="matrix(4.16667,0,0,4.16667,547.601,-230.447)">
                    <path d="M352.857,352.989C350.246,352.989 348.868,352.989 347.565,355.864L330.756,392.854C330.756,392.854 330.532,393.322 330.468,393.473C330.141,394.276 330.285,395.381 330.285,395.381L319.645,352.989L309.575,352.989C306.85,352.989 304.863,352.989 304.615,356.197L298.599,414.873C299.897,414.827 305.448,414.873 305.448,414.873C310.145,414.873 310.145,414.873 310.448,411.708L313.991,376.881L323.278,414.033C327.113,414.04 323.624,414.04 327.113,414.04L329.031,414.04C332.782,414.033 332.782,414.033 333.947,411.54L349.527,377.13L345.657,414.873L352.857,414.873C357.134,414.873 357.134,414.873 357.525,411.666L363.546,352.989L352.857,352.989Z" style="fill:rgb(69,183,229);fill-rule:nonzero;"/>
                </g>
            </g>
        </g>
    </g>
</svg>
