<?xml version="1.0" encoding="UTF-8" standalone="no"?>
<!DOCTYPE svg PUBLIC "-//W3C//DTD SVG 1.1//EN" "http://www.w3.org/Graphics/SVG/1.1/DTD/svg11.dtd">
<svg width="100%" height="100%" viewBox="0 0 693 69" version="1.1" xmlns="http://www.w3.org/2000/svg" xmlns:xlink="http://www.w3.org/1999/xlink" xml:space="preserve" xmlns:serif="http://www.serif.com/" style="fill-rule:evenodd;clip-rule:evenodd;stroke-linejoin:round;stroke-miterlimit:2;">
    <g transform="matrix(1,0,0,1,-62.3538,-348.682)">
        <g transform="matrix(0.49925,0,0,0.49925,-131.761,312.84)">
            <path d="M388.814,206L388.814,74.22L477.274,74.22L477.274,101.345L421.202,101.345L421.202,124.827L468.975,124.827L468.975,151.952L421.202,151.952L421.202,178.875L479.298,178.875L479.298,206L388.814,206Z" style="fill:rgb(0,76,153);fill-rule:nonzero;"/>
            <path d="M548.528,208.429C539.756,208.429 530.951,206.843 522.112,203.672C513.272,200.501 505.209,195.744 497.922,189.401L516.342,167.336C521.471,171.25 526.97,174.421 532.84,176.851C538.711,179.28 544.682,180.494 550.755,180.494C556.558,180.494 560.775,179.583 563.407,177.761C566.038,175.94 567.354,173.679 567.354,170.98C567.354,168.146 566.578,165.886 565.026,164.199C563.474,162.512 561.214,161.028 558.245,159.745C555.276,158.463 551.767,157.013 547.719,155.393L530.917,148.308C525.924,146.419 521.302,143.855 517.051,140.616C512.8,137.377 509.392,133.363 506.828,128.572C504.264,123.781 502.982,118.214 502.982,111.872C502.982,104.449 505.04,97.735 509.156,91.73C513.272,85.725 519.041,80.9 526.464,77.257C533.886,73.613 542.523,71.791 552.374,71.791C560.202,71.791 567.995,73.242 575.755,76.143C583.514,79.045 590.498,83.397 596.706,89.2L580.512,109.645C575.788,106.406 571.2,103.943 566.747,102.256C562.293,100.569 556.895,99.726 550.553,99.726C546.234,99.726 542.692,100.569 539.925,102.256C537.159,103.943 535.775,106.541 535.775,110.05C535.775,112.344 536.619,114.267 538.306,115.819C539.993,117.371 542.422,118.788 545.593,120.07C548.764,121.352 552.509,122.803 556.828,124.422L572.415,130.9C578.352,133.059 583.379,135.792 587.495,139.098C591.611,142.404 594.783,146.318 597.009,150.839C599.236,155.36 600.349,160.724 600.349,166.932C600.349,174.354 598.359,181.203 594.378,187.478C590.397,193.753 584.56,198.814 576.868,202.66C569.176,206.506 559.729,208.429 548.528,208.429Z" style="fill:rgb(0,76,153);fill-rule:nonzero;"/>
            <path d="M650.349,206L650.349,101.345L611.685,101.345L611.685,74.22L721.401,74.22L721.401,101.345L682.737,101.345L682.737,206L650.349,206Z" style="fill:rgb(0,76,153);fill-rule:nonzero;"/>
            <path d="M784.355,208.429C775.988,208.429 768.769,207.215 762.696,204.785C756.623,202.356 751.596,198.848 747.615,194.259C743.634,189.671 740.631,184.104 738.607,177.559C736.583,171.014 735.571,163.558 735.571,155.191L735.571,74.22L767.959,74.22L767.959,158.632C767.959,163.22 768.499,167.134 769.578,170.373C770.658,173.612 772.412,176.108 774.841,177.863C777.27,179.617 780.442,180.494 784.355,180.494C788.269,180.494 791.474,179.617 793.971,177.863C796.467,176.108 798.289,173.612 799.436,170.373C800.583,167.134 801.157,163.22 801.157,158.632L801.157,74.22L832.33,74.22L832.33,155.191C832.33,163.558 831.386,171.014 829.497,177.559C827.607,184.104 824.706,189.671 820.792,194.259C816.879,198.848 811.919,202.356 805.914,204.785C799.908,207.215 792.722,208.429 784.355,208.429Z" style="fill:rgb(0,76,153);fill-rule:nonzero;"/>
            <path d="M854.193,206L854.193,74.22L891.439,74.22C904.125,74.22 915.224,76.481 924.738,81.001C934.252,85.522 941.708,92.574 947.106,102.155C952.504,111.737 955.204,124.22 955.204,139.604C955.204,154.854 952.538,167.404 947.208,177.255C941.877,187.107 934.556,194.36 925.244,199.016C915.933,203.672 905.272,206 893.261,206L854.193,206ZM886.581,180.089L889.617,180.089C895.96,180.089 901.56,178.841 906.419,176.344C911.277,173.848 915.089,169.698 917.856,163.895C920.622,158.092 922.006,149.995 922.006,139.604C922.006,129.213 920.622,121.183 917.856,115.515C915.089,109.847 911.277,105.866 906.419,103.572C901.56,101.278 895.96,100.131 889.617,100.131L886.581,100.131L886.581,180.089Z" style="fill:rgb(0,76,153);fill-rule:nonzero;"/>
            <path d="M975.851,206L975.851,74.22L1064.31,74.22L1064.31,101.345L1008.24,101.345L1008.24,124.827L1056.01,124.827L1056.01,151.952L1008.24,151.952L1008.24,178.875L1066.34,178.875L1066.34,206L975.851,206Z" style="fill:rgb(0,76,153);fill-rule:nonzero;"/>
            <g transform="matrix(1,0,0,1,46.0691,0)">
                <path d="M1088.2,206L1088.2,74.22L1121.19,74.22L1146.09,136.365L1157.02,165.717L1157.83,165.717C1157.02,158.565 1156.08,150.569 1155,141.73C1153.92,132.89 1153.38,124.49 1153.38,116.527L1153.38,74.22L1184.15,74.22L1184.15,206L1151.15,206L1126.25,143.653L1115.32,114.503L1114.51,114.503C1115.32,121.925 1116.27,129.989 1117.35,138.693C1118.43,147.397 1118.97,155.663 1118.97,163.49L1118.97,206L1088.2,206Z" style="fill:rgb(0,76,153);fill-rule:nonzero;"/>
            </g>
            <g transform="matrix(1,0,0,1,46.0691,0)">
                <path d="M1193.66,206L1234.15,74.22L1273.01,74.22L1313.5,206L1279.29,206L1263.3,140.616C1261.81,134.139 1260.16,127.189 1258.34,119.766C1256.52,112.344 1254.8,105.259 1253.18,98.511L1252.37,98.511C1251.02,105.259 1249.5,112.344 1247.81,119.766C1246.12,127.189 1244.47,134.139 1242.85,140.616L1226.86,206L1193.66,206ZM1221.6,176.243L1221.6,151.345L1285.16,151.345L1285.16,176.243L1221.6,176.243Z" style="fill:rgb(0,76,153);fill-rule:nonzero;"/>
            </g>
        </g>
        <g transform="matrix(0.963744,0,0,0.963744,0.608384,12.7121)">
            <g transform="matrix(0.65638,0,0,0.65638,610.413,351.94)">
                <path d="M0,97.686L11.112,59.218L57.785,59.214C59.705,59.19 61.342,57.904 61.886,56.154L67.233,38.472L18.572,38.544C18.572,38.544 17.63,38.43 17.215,39.177C17.085,39.417 16.447,40.557 16.447,40.557C16.447,40.557 21.759,22.265 29.406,22.265L68.871,22.265C70.798,22.265 72.426,21.002 72.989,19.265L79.585,-3.085L31.404,-3.159C15.781,-2.024 4.374,10.95 -2.815,35.756L-21.958,100.845L-4.171,100.845C-2.191,100.845 -0.514,99.503 0,97.686" style="fill:rgb(0,76,153);fill-rule:nonzero;"/>
            </g>
            <g transform="matrix(0.65638,0,0,0.65638,685.492,376.367)">
                <path d="M0,23.332L-16.691,23.332C-16.691,23.332 -17.423,23.362 -17.614,23.362C-18.355,23.362 -19.187,24.701 -19.187,24.701L-4.759,-8.291L2.288,21.467C2.304,21.546 2.652,23.332 0,23.332M30.605,61.115L6.365,-40.298C5.579,-40.29 -6.448,-40.298 -7.977,-40.298C-11.014,-40.298 -12.095,-38.859 -12.747,-37.552L-57.241,63.629L-39.798,63.629C-36.339,63.629 -35.743,62.112 -35.213,60.938L-25.035,37.948L2.441,37.829C5.719,37.829 6.628,40.1 6.628,40.1L12.186,63.629L26.86,63.629C26.86,63.63 31.211,63.63 30.605,61.115" style="fill:rgb(0,76,153);fill-rule:nonzero;"/>
            </g>
            <g transform="matrix(0.65638,0,0,0.65638,771.274,418.131)">
                <path d="M0,-103.926C-4.382,-103.926 -6.701,-103.926 -8.884,-99.099L-37.119,-36.977C-37.119,-36.977 -37.493,-36.191 -37.597,-35.937C-38.152,-34.589 -37.909,-32.734 -37.909,-32.734L-55.772,-103.926L-72.69,-103.926C-77.26,-103.926 -80.598,-103.926 -81.016,-98.539L-91.124,0.001C-88.942,-0.075 -79.617,0.001 -79.617,0.001C-71.732,0.001 -71.732,0.001 -71.221,-5.315L-65.274,-63.803L-49.679,-1.409C-43.236,-1.397 -49.093,-1.397 -43.236,-1.397L-40.018,-1.397C-33.715,-1.409 -33.715,-1.409 -31.762,-5.596L-5.597,-63.385L-12.093,0.001L0,0.001C7.185,0.001 7.185,0.001 7.837,-5.386L17.955,-103.927C10.146,-103.926 0,-103.926 0,-103.926" style="fill:rgb(0,76,153);fill-rule:nonzero;"/>
            </g>
        </g>
    </g>
</svg>
