<?xml version="1.0" encoding="UTF-8" standalone="no"?>
<!DOCTYPE svg PUBLIC "-//W3C//DTD SVG 1.1//EN" "http://www.w3.org/Graphics/SVG/1.1/DTD/svg11.dtd">
<svg width="100%" height="100%" viewBox="0 0 1753 567" version="1.1" xmlns="http://www.w3.org/2000/svg" xmlns:xlink="http://www.w3.org/1999/xlink" xml:space="preserve" xmlns:serif="http://www.serif.com/" style="fill-rule:evenodd;clip-rule:evenodd;stroke-linejoin:round;stroke-miterlimit:2;">
    <g transform="matrix(1,0,0,1,-772.869,-593.781)">
        <g transform="matrix(0.916616,0,0,0.916616,399.592,-81.9105)">
            <g transform="matrix(1023.3,0,0,1013.07,397,1345)">
                <path d="M0.198,-0.166L0.2,-0.166L0.279,-0.59L0.384,-0.59L0.248,-0L0.146,-0L0.01,-0.59L0.119,-0.59L0.198,-0.166Z" style="fill:rgb(69,183,229);fill-rule:nonzero;"/>
            </g>
            <g transform="matrix(1023.3,0,0,1013.07,743.899,1345)">
                <path d="M0.264,-0.59L0.398,-0L0.288,-0L0.267,-0.11L0.141,-0.11L0.12,-0L0.01,-0L0.144,-0.59L0.264,-0.59ZM0.25,-0.198L0.205,-0.433L0.203,-0.433L0.158,-0.198L0.25,-0.198Z" style="fill:rgb(69,183,229);fill-rule:nonzero;"/>
            </g>
            <g transform="matrix(1023.3,0,0,1013.07,1151.17,1345)">
                <path d="M0.2,-0.209L0.2,-0.305L0.366,-0.305L0.366,-0.158C0.366,-0.133 0.362,-0.11 0.354,-0.089C0.346,-0.068 0.335,-0.051 0.321,-0.036C0.306,-0.021 0.289,-0.01 0.269,-0.002C0.248,0.006 0.225,0.01 0.2,0.01C0.175,0.01 0.152,0.006 0.131,-0.002C0.11,-0.01 0.092,-0.022 0.077,-0.037C0.062,-0.051 0.05,-0.069 0.042,-0.09C0.034,-0.111 0.03,-0.133 0.03,-0.158L0.03,-0.432C0.03,-0.457 0.034,-0.48 0.042,-0.501C0.05,-0.521 0.062,-0.539 0.077,-0.554C0.092,-0.569 0.11,-0.58 0.131,-0.588C0.152,-0.596 0.175,-0.6 0.2,-0.6C0.225,-0.6 0.248,-0.596 0.269,-0.588C0.289,-0.58 0.306,-0.569 0.321,-0.554C0.335,-0.539 0.346,-0.522 0.354,-0.501C0.362,-0.48 0.366,-0.457 0.366,-0.432L0.366,-0.387L0.26,-0.387L0.26,-0.445C0.26,-0.463 0.255,-0.477 0.244,-0.488C0.233,-0.499 0.219,-0.504 0.2,-0.504C0.181,-0.504 0.167,-0.499 0.156,-0.488C0.145,-0.477 0.14,-0.463 0.14,-0.445L0.14,-0.145C0.14,-0.127 0.145,-0.113 0.156,-0.102C0.167,-0.091 0.181,-0.086 0.2,-0.086C0.219,-0.086 0.233,-0.091 0.244,-0.102C0.255,-0.113 0.26,-0.127 0.26,-0.145L0.26,-0.209L0.2,-0.209Z" style="fill:rgb(69,183,229);fill-rule:nonzero;"/>
            </g>
            <g transform="matrix(1023.3,0,0,1013.07,1546.17,1345)">
                <path d="M0.264,-0.59L0.398,-0L0.288,-0L0.267,-0.11L0.141,-0.11L0.12,-0L0.01,-0L0.144,-0.59L0.264,-0.59ZM0.25,-0.198L0.205,-0.433L0.203,-0.433L0.158,-0.198L0.25,-0.198Z" style="fill:rgb(69,183,229);fill-rule:nonzero;"/>
            </g>
            <g transform="matrix(1023.3,0,0,1013.07,1956.51,1345)">
                <path d="M0.242,-0.448C0.242,-0.465 0.237,-0.479 0.228,-0.489C0.219,-0.499 0.206,-0.504 0.189,-0.504C0.172,-0.504 0.158,-0.499 0.149,-0.489C0.14,-0.479 0.135,-0.465 0.135,-0.448C0.135,-0.432 0.14,-0.418 0.15,-0.405C0.16,-0.392 0.179,-0.375 0.207,-0.356L0.244,-0.33C0.283,-0.303 0.312,-0.275 0.329,-0.248C0.345,-0.221 0.354,-0.19 0.354,-0.156C0.354,-0.131 0.35,-0.109 0.342,-0.088C0.334,-0.067 0.323,-0.05 0.308,-0.036C0.293,-0.021 0.276,-0.01 0.256,-0.002C0.235,0.006 0.213,0.01 0.188,0.01C0.136,0.01 0.095,-0.005 0.065,-0.034C0.035,-0.063 0.02,-0.103 0.02,-0.153L0.02,-0.188L0.128,-0.188L0.128,-0.146C0.128,-0.128 0.133,-0.114 0.144,-0.103C0.155,-0.092 0.169,-0.086 0.187,-0.086C0.204,-0.086 0.218,-0.091 0.229,-0.102C0.239,-0.113 0.244,-0.127 0.244,-0.146C0.244,-0.156 0.243,-0.165 0.24,-0.173C0.237,-0.181 0.233,-0.189 0.227,-0.198C0.22,-0.206 0.212,-0.215 0.201,-0.224C0.19,-0.233 0.177,-0.243 0.161,-0.254L0.124,-0.28C0.089,-0.305 0.064,-0.33 0.049,-0.355C0.033,-0.38 0.025,-0.409 0.025,-0.441C0.025,-0.465 0.029,-0.487 0.037,-0.507C0.044,-0.526 0.055,-0.543 0.07,-0.557C0.084,-0.57 0.101,-0.581 0.121,-0.589C0.141,-0.596 0.163,-0.6 0.188,-0.6C0.238,-0.6 0.278,-0.586 0.307,-0.559C0.335,-0.532 0.35,-0.494 0.35,-0.447L0.35,-0.418L0.242,-0.418L0.242,-0.448Z" style="fill:rgb(249,226,15);fill-rule:nonzero;"/>
            </g>
        </g>
    </g>
</svg>
