<?xml version="1.0" encoding="UTF-8" standalone="no"?>
<!DOCTYPE svg PUBLIC "-//W3C//DTD SVG 1.1//EN" "http://www.w3.org/Graphics/SVG/1.1/DTD/svg11.dtd">
<svg width="100%" height="100%" viewBox="0 0 301 240" version="1.1" xmlns="http://www.w3.org/2000/svg" xmlns:xlink="http://www.w3.org/1999/xlink" xml:space="preserve" xmlns:serif="http://www.serif.com/" style="fill-rule:evenodd;clip-rule:evenodd;stroke-linejoin:round;stroke-miterlimit:2;">
    <g transform="matrix(1,0,0,1,-1446.11,-393.345)">
        <g transform="matrix(1,0,0,1,-3,-2625)">
            <g transform="matrix(3.78793,0,0,3.78793,1409.83,2948.76)">
                <path d="M84,29.19L83.25,25C82.586,21.184 79.242,18.371 75.368,18.371C74.889,18.371 74.411,18.414 73.94,18.5L17.85,28.43C16.695,28.636 15.599,29.093 14.64,29.77C12.02,31.151 10.373,33.878 10.37,36.84L10.37,73.56C10.37,77.949 13.981,81.56 18.37,81.56L81.58,81.56C85.969,81.56 89.58,77.949 89.58,73.56L89.58,36.84C89.591,33.354 87.322,30.244 84,29.19ZM84.63,61L79.33,61C78.134,61.035 76.976,60.567 76.14,59.71C75.345,58.917 74.907,57.833 74.93,56.71C75.084,54.398 77.085,52.608 79.4,52.71L84.64,52.71L84.63,61ZM74.82,23.46C75.002,23.426 75.187,23.409 75.372,23.409C76.83,23.409 78.088,24.472 78.33,25.91L78.84,28.82L44.46,28.82L74.82,23.46ZM81.59,76.59L18.4,76.59C16.754,76.59 15.4,75.236 15.4,73.59L15.4,36.84C15.396,35.681 16.063,34.618 17.11,34.12C17.521,33.917 17.972,33.811 18.43,33.81L81.72,33.81C83.332,33.858 84.631,35.198 84.63,36.81L84.63,47.74L79.46,47.74C79.318,47.733 79.176,47.73 79.033,47.73C74.036,47.73 69.923,51.842 69.923,56.84C69.923,59.249 70.879,61.563 72.58,63.27C74.326,65.013 76.693,65.995 79.16,66L84.63,66L84.63,73.52C84.631,73.543 84.631,73.567 84.631,73.59C84.631,75.236 83.277,76.59 81.631,76.59C81.614,76.59 81.597,76.59 81.58,76.59L81.59,76.59Z" style="fill-rule:nonzero;"/>
            </g>
        </g>
    </g>
</svg>
