<?xml version="1.0" encoding="UTF-8" standalone="no"?>
<!DOCTYPE svg PUBLIC "-//W3C//DTD SVG 1.1//EN" "http://www.w3.org/Graphics/SVG/1.1/DTD/svg11.dtd">
<svg width="100%" height="100%" viewBox="0 0 445 445" version="1.1" xmlns="http://www.w3.org/2000/svg" xmlns:xlink="http://www.w3.org/1999/xlink" xml:space="preserve" xmlns:serif="http://www.serif.com/" style="fill-rule:evenodd;clip-rule:evenodd;stroke-linejoin:round;stroke-miterlimit:2;">
    <g transform="matrix(1,0,0,1,-1788.64,-321.09)">
        <g transform="matrix(1,0,0,1,-3,-2625)">
            <g transform="matrix(1,0,0,1,869.636,2491.82)">
                <circle cx="1144.36" cy="676.636" r="233.143" style="fill:none;"/>
            </g>
        </g>
        <g transform="matrix(1,0,0,1,-3,-2625)">
            <g transform="matrix(1.15569,0,0,1.15569,-338.849,-476.562)">
                <g transform="matrix(1.18762,0,0,1.18762,-969.983,2432.36)">
                    <path d="M2478.61,559.608C2475.79,559.608 2473.1,558.491 2471.11,556.502C2469.12,554.512 2468,551.814 2468,549.001C2468,549 2468,549 2468,548.999C2468,546.186 2469.12,543.488 2471.11,541.498C2473.1,539.509 2475.79,538.392 2478.61,538.392C2502.37,538.392 2559.63,538.392 2583.39,538.392C2586.21,538.392 2588.9,539.509 2590.89,541.498C2592.88,543.488 2594,546.186 2594,548.999C2594,549 2594,549 2594,549.001C2594,551.814 2592.88,554.512 2590.89,556.502C2588.9,558.491 2586.21,559.608 2583.39,559.608C2559.63,559.608 2502.37,559.608 2478.61,559.608Z"/>
                </g>
                <g transform="matrix(0.702481,0,0,1.18762,227.341,2494.57)">
                    <path d="M2485.93,559.608C2476.03,559.608 2468,554.859 2468,549.001C2468,549 2468,549 2468,548.999C2468,543.141 2476.03,538.392 2485.93,538.392L2576.07,538.392C2585.97,538.392 2594,543.141 2594,548.999C2594,549 2594,549 2594,549.001C2594,554.859 2585.97,559.608 2576.07,559.608L2485.93,559.608Z"/>
                </g>
                <g transform="matrix(-4.30146e-17,0.702481,1.18762,7.27208e-17,1487.03,1496.49)">
                    <path d="M2450.16,559.608C2445.4,559.608 2440.84,558.491 2437.48,556.502C2434.12,554.512 2432.23,551.814 2432.23,549.001C2432.23,549 2432.23,549 2432.23,548.999C2432.23,546.186 2434.12,543.488 2437.48,541.498C2440.84,539.509 2445.4,538.392 2450.16,538.392C2481.28,538.392 2544.95,538.392 2576.07,538.392C2580.82,538.392 2585.39,539.509 2588.75,541.498C2592.11,543.488 2594,546.186 2594,548.999C2594,549 2594,549 2594,549.001C2594,551.814 2592.11,554.512 2588.75,556.502C2585.39,558.491 2580.82,559.608 2576.07,559.608C2544.95,559.608 2481.28,559.608 2450.16,559.608Z"/>
                </g>
                <g transform="matrix(-0.702481,0,0,1.18762,3904.45,2609.9)">
                    <path d="M2450.16,559.608C2445.4,559.608 2440.84,558.491 2437.48,556.502C2434.12,554.512 2432.23,551.814 2432.23,549.001C2432.23,549 2432.23,549 2432.23,548.999C2432.23,546.186 2434.12,543.488 2437.48,541.498C2440.84,539.509 2445.4,538.392 2450.16,538.392C2481.28,538.392 2544.95,538.392 2576.07,538.392C2580.82,538.392 2585.39,539.509 2588.75,541.498C2592.11,543.488 2594,546.186 2594,548.999C2594,549 2594,549 2594,549.001C2594,551.814 2592.11,554.512 2588.75,556.502C2585.39,558.491 2580.82,559.608 2576.07,559.608C2544.95,559.608 2481.28,559.608 2450.16,559.608Z"/>
                </g>
                <g transform="matrix(1.33976,0,0,1.33976,-1802.53,2352.22)">
                    <path d="M2874.24,702.596C2879.43,702.596 2883.64,706.806 2883.64,711.999C2883.64,712 2883.64,712 2883.64,712.001C2883.64,717.194 2879.43,721.404 2874.24,721.404C2849.6,721.404 2785.05,721.404 2785.05,721.404C2774.58,721.404 2764.55,717.247 2757.15,709.849C2749.75,702.451 2745.6,692.417 2745.6,681.955L2745.6,514.911C2745.6,504.449 2749.75,494.415 2757.15,487.017C2764.55,479.619 2774.58,475.462 2785.05,475.462L2944.95,475.462C2955.42,475.462 2965.45,479.619 2972.85,487.017C2980.25,494.415 2984.4,504.449 2984.4,514.911L2984.4,612.268C2984.4,614.762 2983.41,617.153 2981.65,618.916C2979.89,620.68 2977.49,621.67 2975,621.67C2975,621.67 2975,621.67 2975,621.67C2972.51,621.67 2970.11,620.68 2968.35,618.916C2966.59,617.153 2965.6,614.762 2965.6,612.268C2965.6,586.199 2965.6,514.911 2965.6,514.911C2965.6,509.436 2963.42,504.186 2959.55,500.315C2955.68,496.444 2950.43,494.269 2944.95,494.269L2785.05,494.269C2779.57,494.269 2774.32,496.444 2770.45,500.315C2766.58,504.186 2764.4,509.436 2764.4,514.911L2764.4,681.955C2764.4,687.429 2766.58,692.68 2770.45,696.551C2774.32,700.422 2779.57,702.596 2785.05,702.596L2874.24,702.596Z"/>
                </g>
            </g>
        </g>
    </g>
</svg>
