<?xml version="1.0" encoding="UTF-8" standalone="no"?>
<!DOCTYPE svg PUBLIC "-//W3C//DTD SVG 1.1//EN" "http://www.w3.org/Graphics/SVG/1.1/DTD/svg11.dtd">
<svg width="100%" height="100%" viewBox="0 0 2157 1011" version="1.1" xmlns="http://www.w3.org/2000/svg" xmlns:xlink="http://www.w3.org/1999/xlink" xml:space="preserve" xmlns:serif="http://www.serif.com/" style="fill-rule:evenodd;clip-rule:evenodd;stroke-linejoin:round;stroke-miterlimit:2;">
    <g transform="matrix(1,0,0,1,-675.491,-382.593)">
        <g transform="matrix(1,0,0,1,259.412,-53)">
            <path d="M858.928,939.174L583.823,939.174L583.823,444.918L416.079,444.918L416.079,1078.94L849.603,1078.94L858.928,939.174Z" style="fill:white;fill-rule:nonzero;"/>
            <path d="M1188.22,570.697C1258.15,570.697 1318.72,589.363 1383.96,622.028L1383.96,482.18C1304.75,444.909 1248.83,435.593 1188.22,435.593C983.016,435.593 894.482,542.744 894.482,761.954C894.482,981.115 983.016,1088.27 1188.22,1088.27C1248.83,1088.27 1304.75,1078.95 1383.96,1041.68L1383.96,720.023L1160.22,720.023L1160.22,859.79L1216.21,859.79L1216.21,952.229C1206.88,953.163 1197.55,953.163 1188.22,953.163C1085.56,953.163 1066.89,873.796 1066.89,761.954C1066.89,650.027 1085.56,570.697 1188.22,570.697Z" style="fill:white;fill-rule:nonzero;"/>
            <path d="M1482.93,444.918L1706.67,444.918C1884.8,444.918 1963.08,514.802 1963.08,659.346C1963.08,803.899 1884.8,878.442 1706.67,878.442L1650.67,878.442L1650.67,1078.94L1482.93,1078.94L1482.93,444.918ZM1802.6,637.722L1802.6,595.118C1802.6,588.564 1797.92,582.478 1791.36,581.073L1708.03,562.347L1705.69,562.347L1622.82,580.605C1616.27,582.01 1611.59,588.096 1611.59,594.65L1611.59,637.722C1611.59,685.475 1634.53,730.887 1672.91,758.978L1698.66,777.704C1703.81,781.45 1710.84,781.45 1715.52,777.704L1741.27,758.978C1780.13,730.419 1802.6,685.475 1802.6,637.722Z" style="fill:white;fill-rule:nonzero;"/>
            <path d="M2036.87,444.918L2036.87,1078.94L2288.59,1078.94C2494.69,1078.94 2572.97,967.129 2572.97,757.264C2572.97,547.414 2494.69,444.918 2288.59,444.918L2036.87,444.918ZM2204.61,939.174L2204.61,584.685L2288.59,584.685C2371.64,584.685 2400.57,612.669 2400.57,757.264C2400.57,901.86 2371.64,939.174 2288.59,939.174L2204.61,939.174Z" style="fill:white;fill-rule:nonzero;"/>
        </g>
        <g>
            <path d="M1932.33,650.734C1929.52,650.734 1927.64,648.393 1927.64,646.052L1927.64,599.703C1927.64,596.894 1929.99,595.022 1932.33,595.022L1939.35,595.022L1939.35,581.445C1939.35,566.463 1951.52,554.291 1966.5,554.291C1981.48,554.291 1993.66,566.463 1993.66,581.445L1993.66,595.022L2000.68,595.022C2003.49,595.022 2005.36,597.362 2005.36,599.703L2005.36,646.052C2005.36,648.861 2003.02,650.734 2000.68,650.734L1932.33,650.734ZM1966.5,567.4C1959.01,567.4 1952.93,573.486 1952.93,580.976L1952.93,594.553L1980.08,594.553L1980.08,580.976C1980.08,573.486 1973.99,567.4 1966.5,567.4ZM1974.93,617.494C1974.93,612.812 1971.18,609.067 1966.5,609.067C1961.82,609.067 1958.08,612.812 1958.08,617.494C1958.08,620.771 1959.95,623.58 1962.76,624.984L1960.42,633.411C1959.95,634.816 1961.35,636.22 1962.76,636.22L1969.78,636.22C1971.18,636.22 1972.59,634.816 1972.12,633.411L1969.78,624.984C1973.06,623.112 1974.93,620.771 1974.93,617.494Z" style="fill:white;"/>
        </g>
        <g transform="matrix(1.33813,0,0,1.33813,178.533,-86.7914)">
            <path d="M371.5,1079L371.5,992.625L381.5,992.625L381.5,1070L419.25,1070L419.25,1079L371.5,1079Z" style="fill:white;fill-rule:nonzero;"/>
            <path d="M451.25,1080.25C445,1080.25 440.063,1079.04 436.438,1076.62C432.813,1074.21 430.208,1070.62 428.625,1065.88C427.042,1061.12 426.25,1055.21 426.25,1048.12C426.25,1040.21 427.333,1033.85 429.5,1029.06C431.667,1024.27 434.708,1020.77 438.625,1018.56C442.542,1016.35 447.167,1015.25 452.5,1015.25C460.833,1015.25 467.125,1017.56 471.375,1022.19C475.625,1026.81 477.75,1034.25 477.75,1044.5L477.25,1051.88L436.125,1051.88C436.208,1058.38 437.417,1063.29 439.75,1066.62C442.083,1069.96 446.292,1071.62 452.375,1071.62C454.708,1071.62 457.271,1071.56 460.063,1071.44C462.854,1071.31 465.625,1071.17 468.375,1071C471.125,1070.83 473.458,1070.67 475.375,1070.5L475.625,1078.12C473.625,1078.46 471.188,1078.79 468.313,1079.12C465.438,1079.46 462.5,1079.73 459.5,1079.94C456.5,1080.15 453.75,1080.25 451.25,1080.25ZM436.125,1044L468,1044C468,1036.33 466.771,1030.98 464.313,1027.94C461.854,1024.9 457.917,1023.38 452.5,1023.38C447.25,1023.38 443.208,1024.96 440.375,1028.12C437.542,1031.29 436.125,1036.58 436.125,1044Z" style="fill:white;fill-rule:nonzero;"/>
            <path d="M492.25,1079L492.25,1016.5L501.875,1016.5L501.875,1079L492.25,1079ZM492.25,1002.75L492.25,991.5L501.875,991.5L501.875,1002.75L492.25,1002.75Z" style="fill:white;fill-rule:nonzero;"/>
            <path d="M579,1080.25C572.333,1080.25 566.833,1079.27 562.5,1077.31C558.167,1075.35 554.75,1072.48 552.25,1068.69C549.75,1064.9 547.979,1060.25 546.938,1054.75C545.896,1049.25 545.375,1043 545.375,1036C545.375,1028.75 545.896,1022.35 546.938,1016.81C547.979,1011.27 549.771,1006.6 552.313,1002.81C554.854,999.021 558.271,996.146 562.563,994.187C566.854,992.229 572.25,991.25 578.75,991.25C582,991.25 585.396,991.417 588.938,991.75C592.479,992.083 595.854,992.521 599.063,993.062C602.271,993.604 604.958,994.125 607.125,994.625L606.75,1002.88C604.583,1002.46 601.917,1002.06 598.75,1001.69C595.583,1001.31 592.354,1000.98 589.063,1000.69C585.771,1000.4 582.75,1000.25 580,1000.25C575.083,1000.25 571.042,1000.96 567.875,1002.38C564.708,1003.79 562.25,1005.98 560.5,1008.94C558.75,1011.9 557.521,1015.6 556.813,1020.06C556.104,1024.52 555.75,1029.83 555.75,1036C555.75,1044 556.375,1050.62 557.625,1055.88C558.875,1061.12 561.229,1065.02 564.688,1067.56C568.146,1070.1 573.167,1071.38 579.75,1071.38C581.667,1071.38 583.708,1071.29 585.875,1071.12C588.042,1070.96 590.146,1070.75 592.188,1070.5C594.229,1070.25 595.917,1070 597.25,1069.75L597.25,1043.62L583.25,1043.62L583.25,1034.75L607.125,1034.75L607.125,1077.25C605.708,1077.5 603.833,1077.79 601.5,1078.12C599.167,1078.46 596.667,1078.79 594,1079.12C591.333,1079.46 588.688,1079.73 586.063,1079.94C583.438,1080.15 581.083,1080.25 579,1080.25Z" style="fill:white;fill-rule:nonzero;"/>
            <path d="M646.5,1080.25C640.25,1080.25 635.313,1079.04 631.688,1076.62C628.063,1074.21 625.458,1070.62 623.875,1065.88C622.292,1061.12 621.5,1055.21 621.5,1048.12C621.5,1040.21 622.583,1033.85 624.75,1029.06C626.917,1024.27 629.958,1020.77 633.875,1018.56C637.792,1016.35 642.417,1015.25 647.75,1015.25C656.083,1015.25 662.375,1017.56 666.625,1022.19C670.875,1026.81 673,1034.25 673,1044.5L672.5,1051.88L631.375,1051.88C631.458,1058.38 632.667,1063.29 635,1066.62C637.333,1069.96 641.542,1071.62 647.625,1071.62C649.958,1071.62 652.521,1071.56 655.313,1071.44C658.104,1071.31 660.875,1071.17 663.625,1071C666.375,1070.83 668.708,1070.67 670.625,1070.5L670.875,1078.12C668.875,1078.46 666.438,1078.79 663.563,1079.12C660.688,1079.46 657.75,1079.73 654.75,1079.94C651.75,1080.15 649,1080.25 646.5,1080.25ZM631.375,1044L663.25,1044C663.25,1036.33 662.021,1030.98 659.563,1027.94C657.104,1024.9 653.167,1023.38 647.75,1023.38C642.5,1023.38 638.458,1024.96 635.625,1028.12C632.792,1031.29 631.375,1036.58 631.375,1044Z" style="fill:white;fill-rule:nonzero;"/>
            <path d="M687.5,1079L687.5,1016.5L697.125,1016.5L697.125,1024.88C698.708,1023.79 700.708,1022.6 703.125,1021.31C705.542,1020.02 708.208,1018.79 711.125,1017.62C714.042,1016.46 716.958,1015.62 719.875,1015.12L719.875,1025C717.042,1025.58 714.167,1026.35 711.25,1027.31C708.333,1028.27 705.646,1029.29 703.188,1030.38C700.729,1031.46 698.708,1032.42 697.125,1033.25L697.125,1079L687.5,1079Z" style="fill:white;fill-rule:nonzero;"/>
            <path d="M744.5,1080.25C738.75,1080.25 734.375,1078.62 731.375,1075.38C728.375,1072.12 726.875,1067.38 726.875,1061.12C726.875,1057.04 727.583,1053.71 729,1051.12C730.417,1048.54 732.563,1046.56 735.438,1045.19C738.313,1043.81 741.875,1042.96 746.125,1042.62L765.375,1040.75L765.375,1035.38C765.375,1031.12 764.438,1028.12 762.563,1026.38C760.688,1024.62 757.917,1023.75 754.25,1023.75C752.167,1023.75 749.688,1023.83 746.813,1024C743.938,1024.17 741.083,1024.38 738.25,1024.62C735.417,1024.88 732.917,1025.12 730.75,1025.38L730.25,1018C732.25,1017.58 734.667,1017.17 737.5,1016.75C740.333,1016.33 743.292,1015.98 746.375,1015.69C749.458,1015.4 752.292,1015.25 754.875,1015.25C759.625,1015.25 763.5,1015.98 766.5,1017.44C769.5,1018.9 771.688,1021.1 773.063,1024.06C774.438,1027.02 775.125,1030.79 775.125,1035.38L775.125,1067C775.292,1068.83 776.021,1070.17 777.313,1071C778.604,1071.83 780.25,1072.38 782.25,1072.62L781.875,1080.25C780.042,1080.25 778.375,1080.15 776.875,1079.94C775.375,1079.73 773.958,1079.42 772.625,1079C771.542,1078.58 770.521,1078.08 769.563,1077.5C768.604,1076.92 767.667,1076.21 766.75,1075.38C765.167,1076.04 763.146,1076.75 760.688,1077.5C758.229,1078.25 755.604,1078.9 752.813,1079.44C750.021,1079.98 747.25,1080.25 744.5,1080.25ZM746.125,1072.12C748.375,1072.12 750.708,1071.92 753.125,1071.5C755.542,1071.08 757.833,1070.58 760,1070C762.167,1069.42 763.958,1068.88 765.375,1068.38L765.375,1048L747.25,1049.75C743.5,1050.08 740.813,1051.17 739.188,1053C737.563,1054.83 736.75,1057.46 736.75,1060.88C736.75,1064.38 737.542,1067.12 739.125,1069.12C740.708,1071.12 743.042,1072.12 746.125,1072.12Z" style="fill:white;fill-rule:nonzero;"/>
            <rect x="794.375" y="989.375" width="9.625" height="89.625" style="fill:white;fill-rule:nonzero;"/>
            <path d="M870,1080.25C867.5,1080.25 865.125,1079.98 862.875,1079.44C860.625,1078.9 858.563,1077.96 856.688,1076.62C854.813,1075.29 853.167,1073.44 851.75,1071.06C850.333,1068.69 849.25,1065.62 848.5,1061.88C847.75,1058.12 847.375,1053.58 847.375,1048.25C847.375,1040.83 848.25,1034.69 850,1029.81C851.75,1024.94 854.542,1021.29 858.375,1018.88C862.208,1016.46 867.292,1015.25 873.625,1015.25C876.042,1015.25 878.75,1015.44 881.75,1015.81C884.75,1016.19 887.083,1016.54 888.75,1016.88L888.75,989.375L898.5,989.375L898.5,1079L888.875,1079L888.875,1074.88C887.542,1075.62 885.813,1076.42 883.688,1077.25C881.563,1078.08 879.313,1078.79 876.938,1079.38C874.563,1079.96 872.25,1080.25 870,1080.25ZM871.25,1071.5C873.417,1071.5 875.604,1071.25 877.813,1070.75C880.021,1070.25 882.083,1069.65 884,1068.94C885.917,1068.23 887.5,1067.58 888.75,1067L888.75,1025.12C887.75,1024.96 886.375,1024.77 884.625,1024.56C882.875,1024.35 881.063,1024.17 879.188,1024C877.313,1023.83 875.625,1023.75 874.125,1023.75C869.875,1023.75 866.542,1024.67 864.125,1026.5C861.708,1028.33 859.979,1031.06 858.938,1034.69C857.896,1038.31 857.375,1042.83 857.375,1048.25C857.375,1053.25 857.75,1057.27 858.5,1060.31C859.25,1063.35 860.271,1065.69 861.563,1067.31C862.854,1068.94 864.333,1070.04 866,1070.62C867.667,1071.21 869.417,1071.5 871.25,1071.5Z" style="fill:white;fill-rule:nonzero;"/>
            <path d="M938.625,1080.25C932.375,1080.25 927.438,1079.04 923.813,1076.62C920.188,1074.21 917.583,1070.62 916,1065.88C914.417,1061.12 913.625,1055.21 913.625,1048.12C913.625,1040.21 914.708,1033.85 916.875,1029.06C919.042,1024.27 922.083,1020.77 926,1018.56C929.917,1016.35 934.542,1015.25 939.875,1015.25C948.208,1015.25 954.5,1017.56 958.75,1022.19C963,1026.81 965.125,1034.25 965.125,1044.5L964.625,1051.88L923.5,1051.88C923.583,1058.38 924.792,1063.29 927.125,1066.62C929.458,1069.96 933.667,1071.62 939.75,1071.62C942.083,1071.62 944.646,1071.56 947.438,1071.44C950.229,1071.31 953,1071.17 955.75,1071C958.5,1070.83 960.833,1070.67 962.75,1070.5L963,1078.12C961,1078.46 958.563,1078.79 955.688,1079.12C952.813,1079.46 949.875,1079.73 946.875,1079.94C943.875,1080.15 941.125,1080.25 938.625,1080.25ZM923.5,1044L955.375,1044C955.375,1036.33 954.146,1030.98 951.688,1027.94C949.229,1024.9 945.292,1023.38 939.875,1023.38C934.625,1023.38 930.583,1024.96 927.75,1028.12C924.917,1031.29 923.5,1036.58 923.5,1044Z" style="fill:white;fill-rule:nonzero;"/>
            <path d="M1008.62,1079L1008.62,992.625L1040.25,992.625C1046.58,992.625 1051.79,993.646 1055.88,995.687C1059.96,997.729 1063,1000.81 1065,1004.94C1067,1009.06 1068,1014.29 1068,1020.62C1068,1026.88 1067,1032.19 1065,1036.56C1063,1040.94 1059.96,1044.27 1055.88,1046.56C1051.79,1048.85 1046.58,1050 1040.25,1050L1018.62,1050L1018.62,1079L1008.62,1079ZM1018.62,1041.25L1040.25,1041.25C1046.42,1041.25 1050.88,1039.46 1053.62,1035.88C1056.38,1032.29 1057.75,1027.21 1057.75,1020.62C1057.75,1013.96 1056.38,1009.08 1053.62,1006C1050.88,1002.92 1046.42,1001.38 1040.25,1001.38L1018.62,1001.38L1018.62,1041.25Z" style="fill:white;fill-rule:nonzero;"/>
            <path d="M1081.12,1079L1081.12,1016.5L1090.75,1016.5L1090.75,1024.88C1092.33,1023.79 1094.33,1022.6 1096.75,1021.31C1099.17,1020.02 1101.83,1018.79 1104.75,1017.62C1107.67,1016.46 1110.58,1015.62 1113.5,1015.12L1113.5,1025C1110.67,1025.58 1107.79,1026.35 1104.88,1027.31C1101.96,1028.27 1099.27,1029.29 1096.81,1030.38C1094.35,1031.46 1092.33,1032.42 1090.75,1033.25L1090.75,1079L1081.12,1079Z" style="fill:white;fill-rule:nonzero;"/>
            <path d="M1147.25,1080.25C1140.25,1080.25 1134.81,1079.04 1130.94,1076.62C1127.06,1074.21 1124.35,1070.54 1122.81,1065.62C1121.27,1060.71 1120.5,1054.5 1120.5,1047C1120.5,1039.83 1121.35,1033.92 1123.06,1029.25C1124.77,1024.58 1127.58,1021.08 1131.5,1018.75C1135.42,1016.42 1140.67,1015.25 1147.25,1015.25C1153.92,1015.25 1159.21,1016.42 1163.12,1018.75C1167.04,1021.08 1169.85,1024.58 1171.56,1029.25C1173.27,1033.92 1174.12,1039.83 1174.12,1047C1174.12,1054.5 1173.35,1060.71 1171.81,1065.62C1170.27,1070.54 1167.56,1074.21 1163.69,1076.62C1159.81,1079.04 1154.33,1080.25 1147.25,1080.25ZM1147.25,1071.88C1152.08,1071.88 1155.71,1071.02 1158.12,1069.31C1160.54,1067.6 1162.15,1064.92 1162.94,1061.25C1163.73,1057.58 1164.12,1052.83 1164.12,1047C1164.12,1041.25 1163.62,1036.67 1162.62,1033.25C1161.62,1029.83 1159.92,1027.38 1157.5,1025.88C1155.08,1024.38 1151.67,1023.62 1147.25,1023.62C1142.92,1023.62 1139.52,1024.38 1137.06,1025.88C1134.6,1027.38 1132.88,1029.83 1131.88,1033.25C1130.88,1036.67 1130.38,1041.25 1130.38,1047C1130.38,1052.83 1130.77,1057.58 1131.56,1061.25C1132.35,1064.92 1133.96,1067.6 1136.38,1069.31C1138.79,1071.02 1142.42,1071.88 1147.25,1071.88Z" style="fill:white;fill-rule:nonzero;"/>
            <path d="M1209.5,1080.38C1205.17,1080.38 1201.73,1079.71 1199.19,1078.38C1196.65,1077.04 1194.83,1074.73 1193.75,1071.44C1192.67,1068.15 1192.12,1063.5 1192.12,1057.5L1192.12,1024.88L1183.25,1024.88L1183.25,1016.5L1192.12,1016.5L1192.12,997.375L1201.75,997.375L1201.75,1016.5L1221.38,1016.5L1221.38,1024.88L1201.75,1024.88L1201.75,1054.62C1201.75,1059.04 1201.94,1062.48 1202.31,1064.94C1202.69,1067.4 1203.5,1069.12 1204.75,1070.12C1206,1071.12 1207.96,1071.62 1210.62,1071.62C1211.46,1071.62 1212.54,1071.58 1213.88,1071.5C1215.21,1071.42 1216.56,1071.31 1217.94,1071.19C1219.31,1071.06 1220.54,1070.96 1221.62,1070.88L1222.25,1079C1220.42,1079.25 1218.25,1079.54 1215.75,1079.88C1213.25,1080.21 1211.17,1080.38 1209.5,1080.38Z" style="fill:white;fill-rule:nonzero;"/>
            <path d="M1255,1080.25C1248.75,1080.25 1243.81,1079.04 1240.19,1076.62C1236.56,1074.21 1233.96,1070.62 1232.38,1065.88C1230.79,1061.12 1230,1055.21 1230,1048.12C1230,1040.21 1231.08,1033.85 1233.25,1029.06C1235.42,1024.27 1238.46,1020.77 1242.38,1018.56C1246.29,1016.35 1250.92,1015.25 1256.25,1015.25C1264.58,1015.25 1270.88,1017.56 1275.12,1022.19C1279.38,1026.81 1281.5,1034.25 1281.5,1044.5L1281,1051.88L1239.88,1051.88C1239.96,1058.38 1241.17,1063.29 1243.5,1066.62C1245.83,1069.96 1250.04,1071.62 1256.12,1071.62C1258.46,1071.62 1261.02,1071.56 1263.81,1071.44C1266.6,1071.31 1269.38,1071.17 1272.12,1071C1274.88,1070.83 1277.21,1070.67 1279.12,1070.5L1279.38,1078.12C1277.38,1078.46 1274.94,1078.79 1272.06,1079.12C1269.19,1079.46 1266.25,1079.73 1263.25,1079.94C1260.25,1080.15 1257.5,1080.25 1255,1080.25ZM1239.88,1044L1271.75,1044C1271.75,1036.33 1270.52,1030.98 1268.06,1027.94C1265.6,1024.9 1261.67,1023.38 1256.25,1023.38C1251,1023.38 1246.96,1024.96 1244.12,1028.12C1241.29,1031.29 1239.88,1036.58 1239.88,1044Z" style="fill:white;fill-rule:nonzero;"/>
            <path d="M1319.12,1080.25C1312.54,1080.25 1307.38,1079.15 1303.62,1076.94C1299.88,1074.73 1297.23,1071.17 1295.69,1066.25C1294.15,1061.33 1293.38,1054.83 1293.38,1046.75C1293.38,1039.17 1294.23,1033.06 1295.94,1028.44C1297.65,1023.81 1300.42,1020.46 1304.25,1018.38C1308.08,1016.29 1313.08,1015.25 1319.25,1015.25C1320.67,1015.25 1322.4,1015.35 1324.44,1015.56C1326.48,1015.77 1328.58,1016.02 1330.75,1016.31C1332.92,1016.6 1334.79,1016.88 1336.38,1017.12L1336,1025.12C1334.58,1024.96 1332.96,1024.79 1331.12,1024.62C1329.29,1024.46 1327.5,1024.31 1325.75,1024.19C1324,1024.06 1322.54,1024 1321.38,1024C1316.62,1024 1312.94,1024.75 1310.31,1026.25C1307.69,1027.75 1305.85,1030.15 1304.81,1033.44C1303.77,1036.73 1303.25,1041.17 1303.25,1046.75C1303.25,1052.83 1303.71,1057.69 1304.62,1061.31C1305.54,1064.94 1307.29,1067.54 1309.88,1069.12C1312.46,1070.71 1316.29,1071.5 1321.38,1071.5C1322.54,1071.5 1324.02,1071.44 1325.81,1071.31C1327.6,1071.19 1329.44,1071.04 1331.31,1070.88C1333.19,1070.71 1334.83,1070.58 1336.25,1070.5L1336.5,1078.5C1334.83,1078.75 1332.92,1079 1330.75,1079.25C1328.58,1079.5 1326.46,1079.73 1324.38,1079.94C1322.29,1080.15 1320.54,1080.25 1319.12,1080.25ZM1320.38,1106.25C1318.38,1106.25 1316.35,1106.17 1314.31,1106C1312.27,1105.83 1310.67,1105.62 1309.5,1105.38L1309.88,1099.25C1310.62,1099.33 1311.92,1099.4 1313.75,1099.44C1315.58,1099.48 1317,1099.5 1318,1099.5C1319.75,1099.5 1321.1,1099.15 1322.06,1098.44C1323.02,1097.73 1323.5,1096.54 1323.5,1094.88C1323.5,1093.29 1323.02,1092.21 1322.06,1091.62C1321.1,1091.04 1319.75,1090.75 1318,1090.75L1312.88,1090.75L1312.88,1078.88L1318.12,1078.88L1318.12,1085C1322.79,1085.08 1326.29,1085.75 1328.62,1087C1330.96,1088.25 1332.12,1090.88 1332.12,1094.88C1332.12,1098.88 1331.04,1101.77 1328.88,1103.56C1326.71,1105.35 1323.88,1106.25 1320.38,1106.25Z" style="fill:white;fill-rule:nonzero;"/>
            <path d="M1364.12,1080.25C1358.38,1080.25 1354,1078.62 1351,1075.38C1348,1072.12 1346.5,1067.38 1346.5,1061.12C1346.5,1057.04 1347.21,1053.71 1348.62,1051.12C1350.04,1048.54 1352.19,1046.56 1355.06,1045.19C1357.94,1043.81 1361.5,1042.96 1365.75,1042.62L1385,1040.75L1385,1035.38C1385,1031.12 1384.06,1028.12 1382.19,1026.38C1380.31,1024.62 1377.54,1023.75 1373.88,1023.75C1371.79,1023.75 1369.31,1023.83 1366.44,1024C1363.56,1024.17 1360.71,1024.38 1357.88,1024.62C1355.04,1024.88 1352.54,1025.12 1350.38,1025.38L1349.88,1018C1351.88,1017.58 1354.29,1017.17 1357.12,1016.75C1359.96,1016.33 1362.92,1015.98 1366,1015.69C1369.08,1015.4 1371.92,1015.25 1374.5,1015.25C1379.25,1015.25 1383.12,1015.98 1386.12,1017.44C1389.12,1018.9 1391.31,1021.1 1392.69,1024.06C1394.06,1027.02 1394.75,1030.79 1394.75,1035.38L1394.75,1067C1394.92,1068.83 1395.65,1070.17 1396.94,1071C1398.23,1071.83 1399.88,1072.38 1401.88,1072.62L1401.5,1080.25C1399.67,1080.25 1398,1080.15 1396.5,1079.94C1395,1079.73 1393.58,1079.42 1392.25,1079C1391.17,1078.58 1390.15,1078.08 1389.19,1077.5C1388.23,1076.92 1387.29,1076.21 1386.38,1075.38C1384.79,1076.04 1382.77,1076.75 1380.31,1077.5C1377.85,1078.25 1375.23,1078.9 1372.44,1079.44C1369.65,1079.98 1366.88,1080.25 1364.12,1080.25ZM1365.75,1072.12C1368,1072.12 1370.33,1071.92 1372.75,1071.5C1375.17,1071.08 1377.46,1070.58 1379.62,1070C1381.79,1069.42 1383.58,1068.88 1385,1068.38L1385,1048L1366.88,1049.75C1363.12,1050.08 1360.44,1051.17 1358.81,1053C1357.19,1054.83 1356.38,1057.46 1356.38,1060.88C1356.38,1064.38 1357.17,1067.12 1358.75,1069.12C1360.33,1071.12 1362.67,1072.12 1365.75,1072.12ZM1379.75,1002.62C1378.5,1002.62 1377.08,1002.33 1375.5,1001.75C1373.92,1001.17 1372.31,1000.5 1370.69,999.75C1369.06,999 1367.52,998.333 1366.06,997.75C1364.6,997.167 1363.38,996.875 1362.38,996.875C1361.29,996.875 1359.83,997.437 1358,998.562C1356.17,999.687 1354.58,1000.75 1353.25,1001.75L1351,995.625C1352.33,994.208 1354.1,992.771 1356.31,991.312C1358.52,989.854 1360.54,989.125 1362.38,989.125C1363.71,989.125 1365.17,989.417 1366.75,990C1368.33,990.583 1369.94,991.229 1371.56,991.937C1373.19,992.646 1374.71,993.292 1376.12,993.875C1377.54,994.458 1378.71,994.75 1379.62,994.75C1380.62,994.75 1382.02,994.229 1383.81,993.187C1385.6,992.146 1387.12,991.083 1388.38,990L1390.62,996.25C1389.38,997.583 1387.73,998.979 1385.69,1000.44C1383.65,1001.9 1381.67,1002.62 1379.75,1002.62Z" style="fill:white;fill-rule:nonzero;"/>
            <path d="M1437.25,1080.25C1430.25,1080.25 1424.81,1079.04 1420.94,1076.62C1417.06,1074.21 1414.35,1070.54 1412.81,1065.62C1411.27,1060.71 1410.5,1054.5 1410.5,1047C1410.5,1039.83 1411.35,1033.92 1413.06,1029.25C1414.77,1024.58 1417.58,1021.08 1421.5,1018.75C1425.42,1016.42 1430.67,1015.25 1437.25,1015.25C1443.92,1015.25 1449.21,1016.42 1453.12,1018.75C1457.04,1021.08 1459.85,1024.58 1461.56,1029.25C1463.27,1033.92 1464.12,1039.83 1464.12,1047C1464.12,1054.5 1463.35,1060.71 1461.81,1065.62C1460.27,1070.54 1457.56,1074.21 1453.69,1076.62C1449.81,1079.04 1444.33,1080.25 1437.25,1080.25ZM1437.25,1071.88C1442.08,1071.88 1445.71,1071.02 1448.12,1069.31C1450.54,1067.6 1452.15,1064.92 1452.94,1061.25C1453.73,1057.58 1454.12,1052.83 1454.12,1047C1454.12,1041.25 1453.62,1036.67 1452.62,1033.25C1451.62,1029.83 1449.92,1027.38 1447.5,1025.88C1445.08,1024.38 1441.67,1023.62 1437.25,1023.62C1432.92,1023.62 1429.52,1024.38 1427.06,1025.88C1424.6,1027.38 1422.88,1029.83 1421.88,1033.25C1420.88,1036.67 1420.38,1041.25 1420.38,1047C1420.38,1052.83 1420.77,1057.58 1421.56,1061.25C1422.35,1064.92 1423.96,1067.6 1426.38,1069.31C1428.79,1071.02 1432.42,1071.88 1437.25,1071.88Z" style="fill:white;fill-rule:nonzero;"/>
            <path d="M1526.62,1080.25C1524.12,1080.25 1521.75,1079.98 1519.5,1079.44C1517.25,1078.9 1515.19,1077.96 1513.31,1076.62C1511.44,1075.29 1509.79,1073.44 1508.38,1071.06C1506.96,1068.69 1505.88,1065.62 1505.12,1061.88C1504.38,1058.12 1504,1053.58 1504,1048.25C1504,1040.83 1504.88,1034.69 1506.62,1029.81C1508.38,1024.94 1511.17,1021.29 1515,1018.88C1518.83,1016.46 1523.92,1015.25 1530.25,1015.25C1532.67,1015.25 1535.38,1015.44 1538.38,1015.81C1541.38,1016.19 1543.71,1016.54 1545.38,1016.88L1545.38,989.375L1555.12,989.375L1555.12,1079L1545.5,1079L1545.5,1074.88C1544.17,1075.62 1542.44,1076.42 1540.31,1077.25C1538.19,1078.08 1535.94,1078.79 1533.56,1079.38C1531.19,1079.96 1528.88,1080.25 1526.62,1080.25ZM1527.88,1071.5C1530.04,1071.5 1532.23,1071.25 1534.44,1070.75C1536.65,1070.25 1538.71,1069.65 1540.62,1068.94C1542.54,1068.23 1544.12,1067.58 1545.38,1067L1545.38,1025.12C1544.38,1024.96 1543,1024.77 1541.25,1024.56C1539.5,1024.35 1537.69,1024.17 1535.81,1024C1533.94,1023.83 1532.25,1023.75 1530.75,1023.75C1526.5,1023.75 1523.17,1024.67 1520.75,1026.5C1518.33,1028.33 1516.6,1031.06 1515.56,1034.69C1514.52,1038.31 1514,1042.83 1514,1048.25C1514,1053.25 1514.38,1057.27 1515.12,1060.31C1515.88,1063.35 1516.9,1065.69 1518.19,1067.31C1519.48,1068.94 1520.96,1070.04 1522.62,1070.62C1524.29,1071.21 1526.04,1071.5 1527.88,1071.5Z" style="fill:white;fill-rule:nonzero;"/>
            <path d="M1595.25,1080.25C1589,1080.25 1584.06,1079.04 1580.44,1076.62C1576.81,1074.21 1574.21,1070.62 1572.62,1065.88C1571.04,1061.12 1570.25,1055.21 1570.25,1048.12C1570.25,1040.21 1571.33,1033.85 1573.5,1029.06C1575.67,1024.27 1578.71,1020.77 1582.62,1018.56C1586.54,1016.35 1591.17,1015.25 1596.5,1015.25C1604.83,1015.25 1611.12,1017.56 1615.38,1022.19C1619.62,1026.81 1621.75,1034.25 1621.75,1044.5L1621.25,1051.88L1580.12,1051.88C1580.21,1058.38 1581.42,1063.29 1583.75,1066.62C1586.08,1069.96 1590.29,1071.62 1596.38,1071.62C1598.71,1071.62 1601.27,1071.56 1604.06,1071.44C1606.85,1071.31 1609.62,1071.17 1612.38,1071C1615.12,1070.83 1617.46,1070.67 1619.38,1070.5L1619.62,1078.12C1617.62,1078.46 1615.19,1078.79 1612.31,1079.12C1609.44,1079.46 1606.5,1079.73 1603.5,1079.94C1600.5,1080.15 1597.75,1080.25 1595.25,1080.25ZM1580.12,1044L1612,1044C1612,1036.33 1610.77,1030.98 1608.31,1027.94C1605.85,1024.9 1601.92,1023.38 1596.5,1023.38C1591.25,1023.38 1587.21,1024.96 1584.38,1028.12C1581.54,1031.29 1580.12,1036.58 1580.12,1044Z" style="fill:white;fill-rule:nonzero;"/>
            <path d="M1665.25,1079L1665.25,992.625L1696.12,992.625C1702.46,992.625 1707.71,993.646 1711.88,995.687C1716.04,997.729 1719.33,1000.6 1721.75,1004.31C1724.17,1008.02 1725.88,1012.44 1726.88,1017.56C1727.88,1022.69 1728.38,1028.33 1728.38,1034.5C1728.38,1040.75 1727.9,1046.56 1726.94,1051.94C1725.98,1057.31 1724.29,1062.04 1721.88,1066.12C1719.46,1070.21 1716.17,1073.38 1712,1075.62C1707.83,1077.88 1702.54,1079 1696.12,1079L1665.25,1079ZM1675.25,1070.12L1696.12,1070.12C1700.62,1070.12 1704.29,1069.17 1707.12,1067.25C1709.96,1065.33 1712.17,1062.71 1713.75,1059.38C1715.33,1056.04 1716.44,1052.25 1717.06,1048C1717.69,1043.75 1718,1039.25 1718,1034.5C1718,1029.83 1717.69,1025.5 1717.06,1021.5C1716.44,1017.5 1715.33,1014 1713.75,1011C1712.17,1008 1709.96,1005.67 1707.12,1004C1704.29,1002.33 1700.62,1001.5 1696.12,1001.5L1675.25,1001.5L1675.25,1070.12Z" style="fill:white;fill-rule:nonzero;"/>
            <path d="M1757.88,1080.25C1752.12,1080.25 1747.75,1078.62 1744.75,1075.38C1741.75,1072.12 1740.25,1067.38 1740.25,1061.12C1740.25,1057.04 1740.96,1053.71 1742.38,1051.12C1743.79,1048.54 1745.94,1046.56 1748.81,1045.19C1751.69,1043.81 1755.25,1042.96 1759.5,1042.62L1778.75,1040.75L1778.75,1035.38C1778.75,1031.12 1777.81,1028.12 1775.94,1026.38C1774.06,1024.62 1771.29,1023.75 1767.62,1023.75C1765.54,1023.75 1763.06,1023.83 1760.19,1024C1757.31,1024.17 1754.46,1024.38 1751.62,1024.62C1748.79,1024.88 1746.29,1025.12 1744.12,1025.38L1743.62,1018C1745.62,1017.58 1748.04,1017.17 1750.88,1016.75C1753.71,1016.33 1756.67,1015.98 1759.75,1015.69C1762.83,1015.4 1765.67,1015.25 1768.25,1015.25C1773,1015.25 1776.88,1015.98 1779.88,1017.44C1782.88,1018.9 1785.06,1021.1 1786.44,1024.06C1787.81,1027.02 1788.5,1030.79 1788.5,1035.38L1788.5,1067C1788.67,1068.83 1789.4,1070.17 1790.69,1071C1791.98,1071.83 1793.62,1072.38 1795.62,1072.62L1795.25,1080.25C1793.42,1080.25 1791.75,1080.15 1790.25,1079.94C1788.75,1079.73 1787.33,1079.42 1786,1079C1784.92,1078.58 1783.9,1078.08 1782.94,1077.5C1781.98,1076.92 1781.04,1076.21 1780.12,1075.38C1778.54,1076.04 1776.52,1076.75 1774.06,1077.5C1771.6,1078.25 1768.98,1078.9 1766.19,1079.44C1763.4,1079.98 1760.62,1080.25 1757.88,1080.25ZM1759.5,1072.12C1761.75,1072.12 1764.08,1071.92 1766.5,1071.5C1768.92,1071.08 1771.21,1070.58 1773.38,1070C1775.54,1069.42 1777.33,1068.88 1778.75,1068.38L1778.75,1048L1760.62,1049.75C1756.88,1050.08 1754.19,1051.17 1752.56,1053C1750.94,1054.83 1750.12,1057.46 1750.12,1060.88C1750.12,1064.38 1750.92,1067.12 1752.5,1069.12C1754.08,1071.12 1756.42,1072.12 1759.5,1072.12Z" style="fill:white;fill-rule:nonzero;"/>
            <path d="M1826.75,1080.25C1824.25,1080.25 1821.88,1079.98 1819.62,1079.44C1817.38,1078.9 1815.31,1077.96 1813.44,1076.62C1811.56,1075.29 1809.92,1073.44 1808.5,1071.06C1807.08,1068.69 1806,1065.62 1805.25,1061.88C1804.5,1058.12 1804.12,1053.58 1804.12,1048.25C1804.12,1040.83 1805,1034.69 1806.75,1029.81C1808.5,1024.94 1811.29,1021.29 1815.12,1018.88C1818.96,1016.46 1824.04,1015.25 1830.38,1015.25C1832.79,1015.25 1835.5,1015.44 1838.5,1015.81C1841.5,1016.19 1843.83,1016.54 1845.5,1016.88L1845.5,989.375L1855.25,989.375L1855.25,1079L1845.62,1079L1845.62,1074.88C1844.29,1075.62 1842.56,1076.42 1840.44,1077.25C1838.31,1078.08 1836.06,1078.79 1833.69,1079.38C1831.31,1079.96 1829,1080.25 1826.75,1080.25ZM1828,1071.5C1830.17,1071.5 1832.35,1071.25 1834.56,1070.75C1836.77,1070.25 1838.83,1069.65 1840.75,1068.94C1842.67,1068.23 1844.25,1067.58 1845.5,1067L1845.5,1025.12C1844.5,1024.96 1843.12,1024.77 1841.38,1024.56C1839.62,1024.35 1837.81,1024.17 1835.94,1024C1834.06,1023.83 1832.38,1023.75 1830.88,1023.75C1826.62,1023.75 1823.29,1024.67 1820.88,1026.5C1818.46,1028.33 1816.73,1031.06 1815.69,1034.69C1814.65,1038.31 1814.12,1042.83 1814.12,1048.25C1814.12,1053.25 1814.5,1057.27 1815.25,1060.31C1816,1063.35 1817.02,1065.69 1818.31,1067.31C1819.6,1068.94 1821.08,1070.04 1822.75,1070.62C1824.42,1071.21 1826.17,1071.5 1828,1071.5Z" style="fill:white;fill-rule:nonzero;"/>
            <path d="M1897.25,1080.25C1890.25,1080.25 1884.81,1079.04 1880.94,1076.62C1877.06,1074.21 1874.35,1070.54 1872.81,1065.62C1871.27,1060.71 1870.5,1054.5 1870.5,1047C1870.5,1039.83 1871.35,1033.92 1873.06,1029.25C1874.77,1024.58 1877.58,1021.08 1881.5,1018.75C1885.42,1016.42 1890.67,1015.25 1897.25,1015.25C1903.92,1015.25 1909.21,1016.42 1913.12,1018.75C1917.04,1021.08 1919.85,1024.58 1921.56,1029.25C1923.27,1033.92 1924.12,1039.83 1924.12,1047C1924.12,1054.5 1923.35,1060.71 1921.81,1065.62C1920.27,1070.54 1917.56,1074.21 1913.69,1076.62C1909.81,1079.04 1904.33,1080.25 1897.25,1080.25ZM1897.25,1071.88C1902.08,1071.88 1905.71,1071.02 1908.12,1069.31C1910.54,1067.6 1912.15,1064.92 1912.94,1061.25C1913.73,1057.58 1914.12,1052.83 1914.12,1047C1914.12,1041.25 1913.62,1036.67 1912.62,1033.25C1911.62,1029.83 1909.92,1027.38 1907.5,1025.88C1905.08,1024.38 1901.67,1023.62 1897.25,1023.62C1892.92,1023.62 1889.52,1024.38 1887.06,1025.88C1884.6,1027.38 1882.88,1029.83 1881.88,1033.25C1880.88,1036.67 1880.38,1041.25 1880.38,1047C1880.38,1052.83 1880.77,1057.58 1881.56,1061.25C1882.35,1064.92 1883.96,1067.6 1886.38,1069.31C1888.79,1071.02 1892.42,1071.88 1897.25,1071.88Z" style="fill:white;fill-rule:nonzero;"/>
            <path d="M1958.88,1080.25C1956.96,1080.25 1954.65,1080.12 1951.94,1079.88C1949.23,1079.62 1946.54,1079.31 1943.88,1078.94C1941.21,1078.56 1938.83,1078.21 1936.75,1077.88L1937.25,1069.5C1939.33,1069.75 1941.69,1070.04 1944.31,1070.38C1946.94,1070.71 1949.5,1070.98 1952,1071.19C1954.5,1071.4 1956.5,1071.5 1958,1071.5C1961.42,1071.5 1964.25,1071.19 1966.5,1070.56C1968.75,1069.94 1970.46,1068.88 1971.62,1067.38C1972.79,1065.88 1973.38,1063.75 1973.38,1061C1973.38,1058.92 1972.94,1057.29 1972.06,1056.12C1971.19,1054.96 1969.56,1054 1967.19,1053.25C1964.81,1052.5 1961.38,1051.79 1956.88,1051.12C1952.21,1050.38 1948.31,1049.44 1945.19,1048.31C1942.06,1047.19 1939.75,1045.5 1938.25,1043.25C1936.75,1041 1936,1037.79 1936,1033.62C1936,1028.96 1937.08,1025.29 1939.25,1022.62C1941.42,1019.96 1944.23,1018.06 1947.69,1016.94C1951.15,1015.81 1954.75,1015.25 1958.5,1015.25C1960.83,1015.25 1963.4,1015.38 1966.19,1015.62C1968.98,1015.88 1971.71,1016.19 1974.38,1016.56C1977.04,1016.94 1979.33,1017.29 1981.25,1017.62L1981,1026C1979,1025.67 1976.67,1025.35 1974,1025.06C1971.33,1024.77 1968.67,1024.52 1966,1024.31C1963.33,1024.1 1961,1024 1959,1024C1956.5,1024 1954.25,1024.27 1952.25,1024.81C1950.25,1025.35 1948.67,1026.29 1947.5,1027.62C1946.33,1028.96 1945.75,1030.83 1945.75,1033.25C1945.75,1035.08 1946.17,1036.56 1947,1037.69C1947.83,1038.81 1949.42,1039.75 1951.75,1040.5C1954.08,1041.25 1957.46,1042 1961.88,1042.75C1967.04,1043.58 1971.19,1044.62 1974.31,1045.88C1977.44,1047.12 1979.71,1048.88 1981.12,1051.12C1982.54,1053.38 1983.25,1056.54 1983.25,1060.62C1983.25,1067.96 1981.08,1073.06 1976.75,1075.94C1972.42,1078.81 1966.46,1080.25 1958.88,1080.25Z" style="fill:white;fill-rule:nonzero;"/>
        </g>
        <g transform="matrix(1,0,0,0.529412,1.15463e-13,551.118)">
            <rect x="675.491" y="1118" width="2156.89" height="17" style="fill:rgb(249,226,15);"/>
        </g>
    </g>
</svg>
