<?xml version="1.0" encoding="UTF-8" standalone="no"?>
<!DOCTYPE svg PUBLIC "-//W3C//DTD SVG 1.1//EN" "http://www.w3.org/Graphics/SVG/1.1/DTD/svg11.dtd">
<svg width="100%" height="100%" viewBox="0 0 445 445" version="1.1" xmlns="http://www.w3.org/2000/svg" xmlns:xlink="http://www.w3.org/1999/xlink" xml:space="preserve" xmlns:serif="http://www.serif.com/" style="fill-rule:evenodd;clip-rule:evenodd;stroke-linejoin:round;stroke-miterlimit:2;">
    <g transform="matrix(1,0,0,1,-813,-301.843)">
        <g transform="matrix(1,0,0,1,-3,-2625)">
            <g transform="matrix(1,0,0,1,-106,2472.57)">
                <circle cx="1144.36" cy="676.636" r="222.364" style="fill:none;"/>
            </g>
        </g>
        <g transform="matrix(1,0,0,1,-3,-2625)">
            <g transform="matrix(1.45848,0,0,1.45848,-476.073,-1434.28)">
                <g transform="matrix(9.23333,0,0,9.23333,890.631,2994.91)">
                    <path d="M28.316,5.051L16.316,1.051C16.11,0.983 15.889,0.983 15.683,1.051L3.683,5.051C3.275,5.188 3,5.569 3,6L3,16C3,26.99 15.583,30.919 15.711,30.958C15.805,30.986 15.902,31 16,31C16.098,31 16.195,30.986 16.289,30.958C16.417,30.919 29,26.99 29,16L29,6C29,5.569 28.725,5.188 28.316,5.051ZM27,16C27,24.63 17.769,28.318 16,28.945C14.231,28.318 5,24.63 5,16L5,6.721L16,3.054L27,6.721L27,16Z" style="fill-rule:nonzero;"/>
                </g>
                <g transform="matrix(9.23333,0,0,9.23333,890.631,2994.91)">
                    <path d="M11.707,14.293C11.316,13.902 10.684,13.902 10.293,14.293C9.902,14.684 9.902,15.316 10.293,15.707L14.293,19.707C14.488,19.902 14.744,20 15,20C15.256,20 15.512,19.902 15.707,19.707L22.707,12.707C23.098,12.316 23.098,11.684 22.707,11.293C22.316,10.902 21.684,10.902 21.293,11.293L15,17.586L11.707,14.293Z" style="fill-rule:nonzero;"/>
                </g>
            </g>
        </g>
    </g>
</svg>
