<?xml version="1.0" encoding="UTF-8" standalone="no"?>
<!DOCTYPE svg PUBLIC "-//W3C//DTD SVG 1.1//EN" "http://www.w3.org/Graphics/SVG/1.1/DTD/svg11.dtd">
<svg width="100%" height="100%" viewBox="0 0 515 109" version="1.1" xmlns="http://www.w3.org/2000/svg" xmlns:xlink="http://www.w3.org/1999/xlink" xml:space="preserve" xmlns:serif="http://www.serif.com/" style="fill-rule:evenodd;clip-rule:evenodd;stroke-linejoin:round;stroke-miterlimit:2;">
    <g transform="matrix(1,0,0,1,-144.07,-43.68)">
        <g>
            <circle cx="228.09" cy="50.51" r="6.83" style="fill:rgb(34,51,83);"/>
            <g>
                <path d="M220.33,107.14C218.24,107.14 216.54,105.44 216.54,103.35L216.54,69.61C216.54,66.28 213.83,63.57 210.5,63.57L182.76,63.57C180.67,63.57 178.97,61.87 178.97,59.78C178.97,57.69 180.66,55.99 182.76,55.99L210.5,55.99C218.01,55.99 224.11,62.1 224.11,69.6L224.11,103.34C224.12,105.44 222.42,107.14 220.33,107.14Z" style="fill:rgb(69,182,229);fill-rule:nonzero;"/>
            </g>
            <circle cx="243.33" cy="127.91" r="6.83" style="fill:rgb(69,182,229);"/>
            <g>
                <path d="M224.24,123.94L190.5,123.94C188.41,123.94 186.71,122.24 186.71,120.15C186.71,118.06 188.4,116.36 190.5,116.36L224.24,116.36C227.57,116.36 230.28,113.65 230.28,110.32L230.28,82.58C230.28,80.49 231.97,78.79 234.07,78.79C236.16,78.79 237.86,80.49 237.86,82.58L237.86,110.32C237.85,117.83 231.74,123.94 224.24,123.94Z" style="fill:rgb(34,51,83);fill-rule:nonzero;"/>
            </g>
            <circle cx="166.14" cy="142.05" r="6.83" style="fill:rgb(34,51,83);"/>
            <g>
                <path d="M183.72,152.67C183.14,152.67 182.56,152.54 182.03,152.27C180.75,151.63 179.94,150.32 179.94,148.88L179.94,136.03C174.27,134.38 170.11,129.15 170.11,122.95L170.11,89.21C170.11,87.12 171.8,85.42 173.9,85.42C175.99,85.42 177.69,87.12 177.69,89.21L177.69,122.95C177.69,126.28 180.4,128.99 183.73,128.99C185.82,128.99 187.52,130.68 187.52,132.78L187.52,141.31L201.47,130.86C203.15,129.61 205.52,129.95 206.78,131.62C208.03,133.3 207.69,135.67 206.02,136.93L186.01,151.92C185.32,152.42 184.53,152.67 183.72,152.67Z" style="fill:rgb(69,182,229);fill-rule:nonzero;"/>
            </g>
            <circle cx="150.9" cy="64.65" r="6.83" style="fill:rgb(69,182,229);"/>
            <g>
                <path d="M160.17,113.77C158.08,113.77 156.38,112.07 156.38,109.98L156.38,82.24C156.38,74.73 162.49,68.63 169.99,68.63L203.73,68.63C205.82,68.63 207.52,70.33 207.52,72.42C207.52,74.51 205.83,76.21 203.73,76.21L169.99,76.21C166.66,76.21 163.95,78.92 163.95,82.25L163.95,109.99C163.96,112.08 162.26,113.77 160.17,113.77Z" style="fill:rgb(34,51,83);fill-rule:nonzero;"/>
            </g>
        </g>
        <g>
            <g>
                <path d="M271.12,73.21C271.12,72 271.72,71.4 272.93,71.4L279.98,71.4C281.23,71.4 281.85,72 281.85,73.21L281.85,113.66C281.85,114.87 281.23,115.47 279.98,115.47L272.93,115.47C271.72,115.47 271.12,114.87 271.12,113.66L271.12,73.21Z" style="fill:rgb(34,51,83);fill-rule:nonzero;"/>
                <path d="M326.43,113.66C326.43,114.87 325.81,115.47 324.56,115.47L317.76,115.47C316.72,115.47 315.97,115.07 315.51,114.28L300.65,89.37L300.65,113.65C300.65,114.86 300.05,115.46 298.84,115.46L292.1,115.46C290.89,115.46 290.29,114.86 290.29,113.65L290.29,73.21C290.29,72 290.89,71.4 292.1,71.4L298.9,71.4C299.98,71.4 300.75,71.8 301.21,72.59L316.07,97.5L316.07,73.21C316.07,72 316.67,71.4 317.88,71.4L324.56,71.4C325.81,71.4 326.43,72 326.43,73.21L326.43,113.66Z" style="fill:rgb(34,51,83);fill-rule:nonzero;"/>
                <path d="M332.05,73.21C332.05,72 332.65,71.4 333.86,71.4L363.01,71.4C364.26,71.4 364.88,72 364.88,73.21L364.88,79.08C364.88,80.33 364.26,80.95 363.01,80.95L353.83,80.95L353.83,113.66C353.83,114.87 353.21,115.47 351.96,115.47L344.97,115.47C343.72,115.47 343.1,114.87 343.1,113.66L343.1,80.95L333.86,80.95C332.65,80.95 332.05,80.33 332.05,79.08L332.05,73.21Z" style="fill:rgb(34,51,83);fill-rule:nonzero;"/>
                <path d="M381.05,97.36L381.05,106.47L397.78,106.47C399.03,106.47 399.65,107.07 399.65,108.28L399.65,113.59C399.65,114.84 399.03,115.46 397.78,115.46L372.31,115.46C371.1,115.46 370.5,114.86 370.5,113.65L370.5,73.21C370.5,72 371.1,71.4 372.31,71.4L397.53,71.4C398.74,71.4 399.34,72 399.34,73.21L399.34,78.58C399.34,79.83 398.74,80.45 397.53,80.45L381.05,80.45L381.05,88.75L396.66,88.75C397.83,88.75 398.41,89.35 398.41,90.56L398.41,95.55C398.41,96.76 397.83,97.36 396.66,97.36L381.05,97.36Z" style="fill:rgb(34,51,83);fill-rule:nonzero;"/>
                <path d="M440.04,88.88C441.25,88.88 441.85,89.48 441.85,90.69L441.85,110.73C441.85,111.69 441.37,112.44 440.41,112.98C436.91,115.1 432,116.16 425.68,116.16C411.32,116.16 404.14,108.59 404.14,93.44C404.14,78.25 411.53,70.66 426.3,70.66C431.71,70.66 436.08,71.72 439.41,73.84C440.45,74.51 440.78,75.3 440.41,76.21L438.6,80.77C438.22,81.81 437.37,82.1 436.04,81.64C433.38,80.56 430.67,80.02 427.92,80.02C423.34,80.02 420.05,81.05 418.06,83.11C416.07,85.17 415.06,88.61 415.06,93.44C415.06,98.23 416.03,101.66 417.96,103.74C419.9,105.82 422.92,106.86 427.04,106.86C429.04,106.86 430.79,106.55 432.28,105.92L432.28,96.87L426.85,96.87C425.64,96.87 425.04,96.29 425.04,95.12L425.04,90.69C425.04,89.48 425.64,88.88 426.85,88.88L440.04,88.88Z" style="fill:rgb(34,51,83);fill-rule:nonzero;"/>
                <path d="M466,71.4C472.2,71.4 476.84,72.6 479.92,74.99C483,77.38 484.54,81.26 484.54,86.63C484.54,93.54 481.31,97.97 474.86,99.93L484.22,113.16C484.64,113.7 484.73,114.22 484.5,114.72C484.27,115.22 483.82,115.47 483.16,115.47L475.92,115.47C474.84,115.47 473.98,114.99 473.36,114.03L464.75,101.42L460.01,101.42L460.01,113.66C460.01,114.87 459.41,115.47 458.2,115.47L451.21,115.47C450,115.47 449.4,114.87 449.4,113.66L449.4,73.21C449.4,72 450,71.4 451.21,71.4L466,71.4ZM465.82,92.81C468.69,92.81 470.74,92.32 471.97,91.34C473.2,90.36 473.81,88.79 473.81,86.63C473.81,84.34 473.21,82.74 472,81.82C470.79,80.9 468.75,80.45 465.88,80.45L460.01,80.45L460.01,92.81L465.82,92.81Z" style="fill:rgb(34,51,83);fill-rule:nonzero;"/>
                <path d="M513.44,71.4C514.52,71.4 515.25,71.96 515.63,73.09L529.55,113.35C529.76,113.97 529.73,114.48 529.46,114.88C529.19,115.28 528.76,115.47 528.18,115.47L520.75,115.47C519.67,115.47 518.94,114.91 518.57,113.78L516.26,107.04L501.78,107.04L499.53,113.78C499.15,114.9 498.45,115.47 497.41,115.47L489.92,115.47C489.34,115.47 488.91,115.27 488.64,114.88C488.37,114.48 488.34,113.98 488.55,113.35L502.47,73.09C502.85,71.97 503.57,71.4 504.65,71.4L513.44,71.4ZM514.19,98.11L509.13,81.94L509.01,81.94L503.77,98.11L514.19,98.11Z" style="fill:rgb(34,51,83);fill-rule:nonzero;"/>
            </g>
            <g>
                <path d="M544.68,113.98L549.51,97.27L569.78,97.27C570.61,97.26 571.33,96.7 571.56,95.94L573.88,88.26L552.74,88.29C552.74,88.29 552.33,88.24 552.15,88.57C552.09,88.67 551.82,89.17 551.82,89.17C551.82,89.17 554.13,81.22 557.45,81.22L574.59,81.22C575.43,81.22 576.13,80.67 576.38,79.92L579.25,70.21L558.32,70.18C551.53,70.67 546.58,76.31 543.46,87.08L535.15,115.35L542.88,115.35C543.73,115.35 544.46,114.76 544.68,113.98Z" style="fill:rgb(69,182,229);fill-rule:nonzero;"/>
                <path d="M544.68,113.98L549.51,97.27L569.78,97.27C570.61,97.26 571.33,96.7 571.56,95.94L573.88,88.26L552.74,88.29C552.74,88.29 552.33,88.24 552.15,88.57C552.09,88.67 551.82,89.17 551.82,89.17C551.82,89.17 554.13,81.22 557.45,81.22L574.59,81.22C575.43,81.22 576.13,80.67 576.38,79.92L579.25,70.21L558.32,70.18C551.53,70.67 546.58,76.31 543.46,87.08L535.15,115.35L542.88,115.35C543.73,115.35 544.46,114.76 544.68,113.98Z" style="fill:rgb(69,182,229);fill-rule:nonzero;"/>
            </g>
            <g>
                <path d="M607.66,114.25L597.13,70.2L590.9,70.2C589.58,70.2 589.11,70.83 588.83,71.39L569.5,115.34L577.08,115.34C578.58,115.34 578.84,114.68 579.07,114.17L583.49,104.18L595.42,104.13C596.84,104.13 597.24,105.12 597.24,105.12L599.65,115.34L606.02,115.34C606.03,115.35 607.92,115.35 607.66,114.25ZM594.37,97.84L587.12,97.84C587.12,97.84 586.8,97.85 586.72,97.85C586.4,97.85 586.04,98.43 586.04,98.43L592.31,84.1L595.37,97.03C595.37,97.07 595.52,97.84 594.37,97.84Z" style="fill:rgb(69,182,229);fill-rule:nonzero;"/>
                <path d="M607.66,114.25L597.13,70.2L590.9,70.2C589.58,70.2 589.11,70.83 588.83,71.39L569.5,115.34L577.08,115.34C578.58,115.34 578.84,114.68 579.07,114.17L583.49,104.18L595.42,104.13C596.84,104.13 597.24,105.12 597.24,105.12L599.65,115.34L606.02,115.34C606.03,115.35 607.92,115.35 607.66,114.25ZM594.37,97.84L587.12,97.84C587.12,97.84 586.8,97.85 586.72,97.85C586.4,97.85 586.04,98.43 586.04,98.43L592.31,84.1L595.37,97.03C595.37,97.07 595.52,97.84 594.37,97.84Z" style="fill:rgb(69,182,229);fill-rule:nonzero;"/>
            </g>
            <g>
                <path d="M651.13,70.2C649.23,70.2 648.22,70.2 647.27,72.3L635.01,99.28C635.01,99.28 634.85,99.62 634.8,99.73C634.56,100.32 634.66,101.12 634.66,101.12L626.9,70.2L619.55,70.2C617.56,70.2 616.12,70.2 615.93,72.54L611.54,115.34C612.49,115.31 616.54,115.34 616.54,115.34C619.96,115.34 619.96,115.34 620.19,113.03L622.77,87.62L629.54,114.72C632.34,114.73 629.79,114.73 632.34,114.73L633.74,114.73C636.48,114.72 636.48,114.72 637.33,112.91L648.7,87.81L645.88,115.34L651.13,115.34C654.25,115.34 654.25,115.34 654.53,113L658.93,70.2L651.13,70.2Z" style="fill:rgb(69,182,229);fill-rule:nonzero;"/>
                <path d="M651.13,70.2C649.23,70.2 648.22,70.2 647.27,72.3L635.01,99.28C635.01,99.28 634.85,99.62 634.8,99.73C634.56,100.32 634.66,101.12 634.66,101.12L626.9,70.2L619.55,70.2C617.56,70.2 616.12,70.2 615.93,72.54L611.54,115.34C612.49,115.31 616.54,115.34 616.54,115.34C619.96,115.34 619.96,115.34 620.19,113.03L622.77,87.62L629.54,114.72C632.34,114.73 629.79,114.73 632.34,114.73L633.74,114.73C636.48,114.72 636.48,114.72 637.33,112.91L648.7,87.81L645.88,115.34L651.13,115.34C654.25,115.34 654.25,115.34 654.53,113L658.93,70.2L651.13,70.2Z" style="fill:rgb(69,182,229);fill-rule:nonzero;"/>
            </g>
        </g>
    </g>
</svg>
