<?xml version="1.0" encoding="UTF-8" standalone="no"?>
<!DOCTYPE svg PUBLIC "-//W3C//DTD SVG 1.1//EN" "http://www.w3.org/Graphics/SVG/1.1/DTD/svg11.dtd">
<svg width="100%" height="100%" viewBox="0 0 862 147" version="1.1" xmlns="http://www.w3.org/2000/svg" xmlns:xlink="http://www.w3.org/1999/xlink" xml:space="preserve" xmlns:serif="http://www.serif.com/" style="fill-rule:evenodd;clip-rule:evenodd;stroke-linejoin:round;stroke-miterlimit:2;">
    <g transform="matrix(1,0,0,1,-19581.9,-1941.41)">
        <g transform="matrix(0.972222,0,0,4.04346,19312.6,4.98969)">
            <g transform="matrix(0.345967,0,0,0.0831853,-3623.26,535.374)">
                <g transform="matrix(1,0,0,1,0,-1577.23)">
                    <path d="M11888.8,1266.85C11888.8,1301.76 11860.5,1330.06 11825.6,1330.06C11805.9,1330.06 11789.2,1330.06 11789.2,1330.06C11789.2,1330.06 11789.2,1085.09 11789.2,966.228C11789.2,931.323 11817.5,903.028 11852.4,903.028C11872.1,903.028 11888.8,903.028 11888.8,903.028C11888.8,903.028 11888.8,1148 11888.8,1266.85Z" style="fill:white;fill-rule:nonzero;"/>
                </g>
                <g transform="matrix(1,0,0,1,0,-1577.23)">
                    <path d="M12067,1075.95L12082.8,1075.95C12097.5,1075.95 12108,1071.36 12114.5,1062.17L12210.6,922.664C12215.9,915.044 12221.9,909.866 12228.7,907.131C12235.4,904.395 12243.6,903.028 12253.4,903.028L12339.6,903.028L12213,1075.65C12208.5,1081.91 12203.8,1087.09 12198.9,1091.19C12194,1095.29 12189,1098.71 12184,1101.45C12191.4,1104.18 12198.2,1107.94 12204.3,1112.73C12210.5,1117.52 12216.1,1123.92 12221.2,1131.93L12350.1,1330.06L12261.6,1330.06C12256,1330.06 12251.1,1329.66 12247.1,1328.88C12243.1,1328.1 12239.6,1326.93 12236.7,1325.37C12233.8,1323.8 12231.2,1321.9 12229.1,1319.65C12226.9,1317.4 12224.9,1314.81 12222.9,1311.88L12126.2,1163.29C12122.7,1157.82 12118.3,1153.96 12112.9,1151.71C12107.5,1149.46 12100.2,1148.34 12091,1148.34L12067,1148.34L12067,1330.06L11968,1330.06L11968,903.028L12067,903.028L12067,1075.95Z" style="fill:white;fill-rule:nonzero;"/>
                </g>
                <g transform="matrix(1,0,0,1,0,-1577.23)">
                    <path d="M12485.5,1075.95L12501.4,1075.95C12516,1075.95 12526.6,1071.36 12533,1062.17L12629.2,922.664C12634.4,915.044 12640.4,909.866 12647.2,907.131C12653.9,904.395 12662.2,903.028 12671.9,903.028L12758.1,903.028L12631.5,1075.65C12627,1081.91 12622.3,1087.09 12617.4,1091.19C12612.5,1095.29 12607.6,1098.71 12602.5,1101.45C12609.9,1104.18 12616.7,1107.94 12622.9,1112.73C12629,1117.52 12634.6,1123.92 12639.7,1131.93L12768.7,1330.06L12680.1,1330.06C12674.5,1330.06 12669.6,1329.66 12665.6,1328.88C12661.6,1328.1 12658.2,1326.93 12655.2,1325.37C12652.3,1323.8 12649.8,1321.9 12647.6,1319.65C12645.5,1317.4 12643.4,1314.81 12641.5,1311.88L12544.7,1163.29C12541.2,1157.82 12536.8,1153.96 12531.4,1151.71C12526,1149.46 12518.8,1148.34 12509.6,1148.34L12485.5,1148.34L12485.5,1330.06L12386.5,1330.06L12386.5,903.028L12485.5,903.028L12485.5,1075.95Z" style="fill:white;fill-rule:nonzero;"/>
                </g>
                <g transform="matrix(1,0,0,1,0,-1577.23)">
                    <path d="M13226.5,1116.39C13226.5,1147.27 13221.1,1175.99 13210.5,1202.56C13199.8,1229.13 13184.8,1252.24 13165.5,1271.88C13146.2,1291.51 13122.9,1306.9 13095.6,1318.04C13068.3,1329.17 13038.1,1334.74 13004.9,1334.74C12971.7,1334.74 12941.4,1329.17 12914,1318.04C12886.7,1306.9 12863.3,1291.51 12843.8,1271.88C12824.4,1252.24 12809.4,1229.13 12798.7,1202.56C12788.1,1175.99 12782.7,1147.27 12782.7,1116.39C12782.7,1085.52 12788.1,1056.8 12798.7,1030.23C12809.4,1003.65 12824.4,980.598 12843.8,961.059C12863.3,941.52 12886.7,926.181 12914,915.044C12941.4,903.907 12971.7,898.338 13004.9,898.338C13038.1,898.338 13068.3,903.956 13095.6,915.191C13122.9,926.426 13146.2,941.813 13165.5,961.352C13184.8,980.891 13199.8,1003.95 13210.5,1030.52C13221.1,1057.09 13226.5,1085.72 13226.5,1116.39ZM13125.1,1116.39C13125.1,1095.29 13122.3,1076.29 13116.8,1059.39C13111.4,1042.49 13103.5,1028.17 13093.3,1016.45C13083,1004.73 13070.4,995.741 13055.6,989.488C13040.7,983.236 13023.8,980.109 13004.9,980.109C12985.7,980.109 12968.7,983.236 12953.7,989.488C12938.8,995.741 12926.2,1004.73 12915.9,1016.45C12905.7,1028.17 12897.8,1042.49 12892.3,1059.39C12886.9,1076.29 12884.1,1095.29 12884.1,1116.39C12884.1,1137.69 12886.9,1156.79 12892.3,1173.69C12897.8,1190.59 12905.7,1204.91 12915.9,1216.63C12926.2,1228.35 12938.8,1237.29 12953.7,1243.45C12968.7,1249.6 12985.7,1252.68 13004.9,1252.68C13023.8,1252.68 13040.7,1249.6 13055.6,1243.45C13070.4,1237.29 13083,1228.35 13093.3,1216.63C13103.5,1204.91 13111.4,1190.59 13116.8,1173.69C13122.3,1156.79 13125.1,1137.69 13125.1,1116.39Z" style="fill:white;fill-rule:nonzero;"/>
                </g>
                <g transform="matrix(1,0,0,1,0,-1577.23)">
                    <path d="M13382.4,1266.85C13382.4,1301.76 13354.1,1330.06 13319.2,1330.06C13299.4,1330.06 13282.7,1330.06 13282.7,1330.06C13282.7,1330.06 13282.7,1085.09 13282.7,966.228C13282.7,931.323 13311,903.028 13345.9,903.028C13365.7,903.028 13382.4,903.028 13382.4,903.028C13382.4,903.028 13382.4,1148 13382.4,1266.85Z" style="fill:white;fill-rule:nonzero;"/>
                </g>
                <g transform="matrix(1,0,0,1,0,-1577.23)">
                    <path d="M13513.7,903.028C13518,903.028 13521.6,903.223 13524.5,903.614C13527.5,904.004 13530.1,904.737 13532.4,905.812C13534.8,906.887 13537,908.401 13539.2,910.355C13541.3,912.309 13543.8,914.946 13546.5,918.268L13749.3,1174.72C13748.5,1166.51 13748,1158.55 13747.6,1150.83C13747.2,1143.11 13747,1135.84 13747,1129C13747,1129 13747,1025.32 13747,958.421C13747,927.828 13771.8,903.028 13802.4,903.028C13819.7,903.028 13834.3,903.028 13834.3,903.028L13834.3,1330.06L13782.7,1330.06C13775.1,1330.06 13768.7,1328.88 13763.4,1326.54C13758.1,1324.19 13753,1319.89 13748.2,1313.64L13546.8,1059.24C13547.4,1066.67 13547.9,1073.95 13548.3,1081.08C13548.7,1088.21 13548.9,1094.9 13548.9,1101.15C13548.9,1101.15 13548.9,1206.92 13548.9,1274.66C13548.9,1305.25 13524.1,1330.05 13493.5,1330.06C13476.2,1330.06 13461.5,1330.06 13461.5,1330.06L13461.5,903.028L13513.7,903.028Z" style="fill:white;fill-rule:nonzero;"/>
                </g>
                <g transform="matrix(4.68728,0,0,4.68728,-94529.5,-5417.53)">
                    <path d="M22604.8,1069.35L22604.8,1057.53C22604.8,1054.04 22606.1,1050.68 22608.6,1048.21C22611.1,1045.74 22614.4,1044.35 22617.9,1044.35L22629.8,1044.35C22630.5,1044.35 22631.1,1044.94 22631.1,1045.67L22631.1,1057.49C22631.1,1060.98 22629.7,1064.34 22627.3,1066.81C22624.8,1069.28 22621.4,1070.67 22617.9,1070.67L22606.1,1070.67C22605.3,1070.67 22604.8,1070.08 22604.8,1069.35ZM22598.7,1041.4L22598.7,1077.09C22598.7,1091.43 22587.1,1103.06 22572.7,1103.06L22572.4,1103.06L22572.4,1011.96L22598.2,1011.96C22598.5,1011.96 22598.9,1012.1 22599.1,1012.35C22600.9,1014.13 22608.5,1021.73 22612.8,1026.03C22613.2,1026.43 22613.3,1027.03 22613.1,1027.55C22612.9,1028.07 22612.4,1028.41 22611.8,1028.41L22611.8,1028.41C22604.6,1028.41 22598.8,1034.22 22598.7,1041.4ZM22637.2,1073.62L22637.2,1037.93C22637.2,1023.59 22648.8,1011.97 22663.1,1011.97L22663.5,1011.97L22663.5,1103.06L22637.7,1103.06C22637.4,1103.06 22637,1102.92 22636.8,1102.67C22635,1100.89 22627.4,1093.3 22623.1,1088.99C22622.7,1088.6 22622.6,1088 22622.8,1087.47C22623,1086.95 22623.5,1086.62 22624.1,1086.62L22624.1,1086.62C22631.3,1086.62 22637.1,1080.8 22637.2,1073.62Z" style="fill:white;"/>
                </g>
            </g>
        </g>
    </g>
</svg>
