<?xml version="1.0" encoding="UTF-8" standalone="no"?>
<!DOCTYPE svg PUBLIC "-//W3C//DTD SVG 1.1//EN" "http://www.w3.org/Graphics/SVG/1.1/DTD/svg11.dtd">
<svg width="100%" height="100%" viewBox="0 0 2694 1068" version="1.1" xmlns="http://www.w3.org/2000/svg" xmlns:xlink="http://www.w3.org/1999/xlink" xml:space="preserve" xmlns:serif="http://www.serif.com/" style="fill-rule:evenodd;clip-rule:evenodd;stroke-linejoin:round;stroke-miterlimit:2;">
    <g transform="matrix(1,0,0,1,-7188.58,-708.417)">
        <g transform="matrix(4.16667,0,0,4.16667,0,0)">
            <path d="M2041.23,367.185L2029.33,367.185L2029.33,386.698C2029.36,387.137 2029.7,387.358 2030.36,387.358L2031.24,387.358C2031.9,387.358 2032.24,387.137 2032.27,386.698L2032.27,378.032L2037.95,378.032C2038.34,378.032 2038.55,377.771 2038.58,377.243L2038.58,376.654C2038.55,376.128 2038.34,375.864 2037.95,375.864L2032.27,375.864L2032.27,369.566L2041.23,369.566C2041.58,369.537 2041.75,369.243 2041.75,368.681L2041.75,367.932C2041.75,367.462 2041.58,367.214 2041.23,367.185Z" style="fill:white;fill-rule:nonzero;"/>
        </g>
        <g transform="matrix(4.16667,0,0,4.16667,0,0)">
            <path d="M2054.56,380.527C2053.93,383.147 2052.55,384.459 2050.43,384.468C2048.29,384.468 2047.22,382.859 2047.22,379.641C2047.49,376.297 2048.92,374.579 2051.52,374.485C2052.98,374.485 2053.99,374.809 2054.56,375.455L2054.56,380.527ZM2051.62,371.82C2047.28,372.007 2044.88,374.624 2044.44,379.668C2044.44,384.795 2046.5,387.358 2050.61,387.358C2052.45,387.168 2053.76,386.432 2054.56,385.149L2054.56,386.698C2054.59,387.137 2054.93,387.358 2055.59,387.358L2056.47,387.358C2057.13,387.358 2057.47,387.137 2057.5,386.698L2057.5,374.258C2056.63,372.632 2054.67,371.82 2051.62,371.82Z" style="fill:white;fill-rule:nonzero;"/>
        </g>
        <g transform="matrix(4.16667,0,0,4.16667,0,0)">
            <path d="M2068.28,374.41C2069.82,374.41 2070.93,374.942 2071.62,376.004C2071.68,376.128 2071.79,376.189 2071.95,376.189C2072.06,376.189 2072.17,376.163 2072.31,376.117L2073.98,375.344C2074.13,375.247 2074.21,375.138 2074.21,375.005C2074.21,374.921 2074.18,374.832 2074.14,374.75C2073.05,372.817 2071.09,371.82 2068.28,371.764C2063.7,371.859 2061.4,374.454 2061.38,379.555C2061.4,384.597 2063.7,387.166 2068.28,387.261C2071.09,387.203 2073.05,386.208 2074.14,384.274C2074.18,384.188 2074.21,384.105 2074.21,384.019C2074.21,383.888 2074.13,383.777 2073.98,383.678L2072.31,382.907C2072.17,382.859 2072.06,382.836 2071.95,382.836C2071.79,382.836 2071.68,382.898 2071.62,383.02C2070.93,384.078 2069.82,384.609 2068.28,384.609C2065.78,384.609 2064.49,382.927 2064.42,379.555C2064.49,376.128 2065.78,374.41 2068.28,374.41Z" style="fill:white;fill-rule:nonzero;"/>
        </g>
        <g transform="matrix(4.16667,0,0,4.16667,0,0)">
            <path d="M2089.29,371.835L2088.41,371.835C2087.75,371.835 2087.41,372.057 2087.38,372.497L2087.38,381.144C2086.68,383.56 2085.36,384.789 2083.42,384.837C2081.64,384.837 2080.74,383.254 2080.74,380.089L2080.74,372.497C2080.72,372.057 2080.37,371.835 2079.72,371.835L2078.83,371.835C2078.17,371.835 2077.83,372.057 2077.8,372.497L2077.8,380.145C2077.8,384.923 2079.68,387.314 2083.44,387.314C2085.2,387.314 2086.51,386.673 2087.38,385.385L2087.38,386.698C2087.41,387.137 2087.75,387.358 2088.41,387.358L2089.29,387.358C2089.95,387.358 2090.29,387.137 2090.32,386.698L2090.32,372.497C2090.29,372.057 2089.95,371.835 2089.29,371.835Z" style="fill:white;fill-rule:nonzero;"/>
        </g>
        <g transform="matrix(4.16667,0,0,4.16667,0,0)">
            <path d="M2100.7,384.357C2100.69,384.357 2100.68,384.364 2100.66,384.369C2100.43,384.465 2100.06,384.513 2099.55,384.513C2098.41,384.513 2097.85,383.874 2097.85,382.596L2097.85,366.341C2097.82,365.898 2097.47,365.679 2096.82,365.679L2095.93,365.679C2095.27,365.679 2094.93,365.898 2094.9,366.341L2094.9,382.751C2094.98,385.794 2096.53,387.314 2099.53,387.314C2100.03,387.314 2100.48,387.269 2100.87,387.174C2101.23,387.092 2101.42,386.523 2101.45,385.47L2101.45,385.402C2101.45,384.704 2101.2,384.357 2100.7,384.357Z" style="fill:white;fill-rule:nonzero;"/>
        </g>
        <g transform="matrix(4.16667,0,0,4.16667,0,0)">
            <path d="M2113.83,380.527C2113.21,383.147 2111.83,384.459 2109.71,384.468C2107.56,384.468 2106.5,382.859 2106.5,379.641C2106.77,376.297 2108.2,374.579 2110.79,374.485C2112.26,374.485 2113.27,374.809 2113.83,375.455L2113.83,380.527ZM2115.75,365.679L2114.86,365.679C2114.2,365.679 2113.86,365.898 2113.83,366.341L2113.83,372.16C2113,371.932 2112.02,371.82 2110.89,371.82C2106.55,372.007 2104.16,374.624 2103.72,379.668C2103.72,384.795 2105.78,387.358 2109.89,387.358C2111.72,387.168 2113.04,386.432 2113.83,385.149L2113.83,386.698C2113.86,387.137 2114.2,387.358 2114.86,387.358L2115.75,387.358C2116.41,387.358 2116.75,387.137 2116.78,386.698L2116.78,366.341C2116.75,365.898 2116.41,365.679 2115.75,365.679Z" style="fill:white;fill-rule:nonzero;"/>
        </g>
        <g transform="matrix(4.16667,0,0,4.16667,0,0)">
            <path d="M2131.09,380.527C2130.46,383.147 2129.08,384.459 2126.96,384.468C2124.82,384.468 2123.75,382.859 2123.75,379.641C2124.02,376.297 2125.46,374.579 2128.05,374.485C2129.51,374.485 2130.53,374.809 2131.09,375.455L2131.09,380.527ZM2128.15,371.82C2123.81,372.007 2121.42,374.624 2120.98,379.668C2120.98,384.795 2123.03,387.358 2127.15,387.358C2128.98,387.168 2130.29,386.432 2131.09,385.149L2131.09,386.698C2131.12,387.137 2131.46,387.358 2132.12,387.358L2133.01,387.358C2133.66,387.358 2134.01,387.137 2134.03,386.698L2134.03,374.258C2133.16,372.632 2131.2,371.82 2128.15,371.82Z" style="fill:white;fill-rule:nonzero;"/>
        </g>
        <g transform="matrix(4.16667,0,0,4.16667,0,0)">
            <path d="M2147.77,380.527C2147.14,383.147 2145.77,384.459 2143.64,384.468C2141.5,384.468 2140.43,382.859 2140.43,379.641C2140.7,376.297 2142.14,374.579 2144.73,374.485C2146.19,374.485 2147.21,374.809 2147.77,375.455L2147.77,380.527ZM2149.69,365.679L2148.8,365.679C2148.14,365.679 2147.8,365.898 2147.77,366.341L2147.77,372.16C2146.93,371.932 2145.95,371.82 2144.83,371.82C2140.49,372.007 2138.09,374.624 2137.66,379.668C2137.66,384.795 2139.71,387.358 2143.83,387.358C2145.66,387.168 2146.97,386.432 2147.77,385.149L2147.77,386.698C2147.8,387.137 2148.14,387.358 2148.8,387.358L2149.69,387.358C2150.34,387.358 2150.69,387.137 2150.71,386.698L2150.71,366.341C2150.69,365.898 2150.34,365.679 2149.69,365.679Z" style="fill:white;fill-rule:nonzero;"/>
        </g>
        <g transform="matrix(4.16667,0,0,4.16667,0,0)">
            <path d="M2161.83,374.184C2163.46,374.184 2164.39,374.766 2164.6,375.92L2164.6,376.004C2164.6,377.075 2163.86,377.813 2162.39,378.213C2161.77,378.384 2161.15,378.469 2160.52,378.469C2159.62,378.469 2158.71,378.347 2157.77,378.105C2158.21,375.68 2159.56,374.375 2161.83,374.184ZM2167.53,383.694L2165.86,382.92C2165.72,382.874 2165.6,382.85 2165.5,382.85C2165.34,382.85 2165.23,382.91 2165.17,383.033C2164.48,384.188 2163.37,384.768 2161.83,384.768C2159.56,384.768 2158.22,383.396 2157.81,380.655C2158.68,380.757 2159.53,380.809 2160.36,380.809C2164.77,380.603 2167.01,378.934 2167.11,375.806C2166.78,373.197 2165.07,371.863 2161.97,371.807C2157.57,371.9 2155.23,374.445 2154.92,379.441C2154.95,384.571 2157.25,387.181 2161.83,387.273C2164.65,387.216 2166.6,386.222 2167.69,384.288C2167.73,384.203 2167.76,384.118 2167.76,384.032C2167.76,383.903 2167.68,383.79 2167.53,383.694Z" style="fill:white;fill-rule:nonzero;"/>
        </g>
        <g transform="matrix(4.16667,0,0,4.16667,0,0)">
            <path d="M2187.93,380.527C2187.3,383.147 2185.92,384.459 2183.8,384.468C2181.66,384.468 2180.59,382.859 2180.59,379.641C2180.87,376.297 2182.29,374.579 2184.89,374.485C2186.35,374.485 2187.37,374.809 2187.93,375.455L2187.93,380.527ZM2189.85,365.679L2188.96,365.679C2188.3,365.679 2187.96,365.898 2187.93,366.341L2187.93,372.16C2187.09,371.932 2186.11,371.82 2184.99,371.82C2180.65,372.007 2178.26,374.624 2177.82,379.668C2177.82,384.795 2179.87,387.358 2183.99,387.358C2185.82,387.168 2187.13,386.432 2187.93,385.149L2187.93,386.698C2187.96,387.137 2188.3,387.358 2188.96,387.358L2189.85,387.358C2190.5,387.358 2190.85,387.137 2190.87,386.698L2190.87,366.341C2190.85,365.898 2190.5,365.679 2189.85,365.679Z" style="fill:white;fill-rule:nonzero;"/>
        </g>
        <g transform="matrix(4.16667,0,0,4.16667,0,0)">
            <path d="M2201.99,374.184C2203.62,374.184 2204.55,374.766 2204.76,375.92L2204.76,376.004C2204.76,377.075 2204.03,377.813 2202.55,378.213C2201.93,378.384 2201.31,378.469 2200.68,378.469C2199.79,378.469 2198.87,378.347 2197.93,378.105C2198.37,375.68 2199.73,374.375 2201.99,374.184ZM2207.7,383.694L2206.02,382.92C2205.89,382.874 2205.77,382.85 2205.66,382.85C2205.5,382.85 2205.39,382.91 2205.33,383.033C2204.64,384.188 2203.53,384.768 2201.99,384.768C2199.72,384.768 2198.38,383.396 2197.97,380.655C2198.84,380.757 2199.69,380.809 2200.53,380.809C2204.93,380.603 2207.17,378.934 2207.27,375.806C2206.94,373.197 2205.23,371.863 2202.13,371.807C2197.74,371.9 2195.39,374.445 2195.08,379.441C2195.11,384.571 2197.41,387.181 2201.99,387.273C2204.81,387.216 2206.76,386.222 2207.85,384.288C2207.9,384.203 2207.92,384.118 2207.92,384.032C2207.92,383.903 2207.84,383.79 2207.7,383.694Z" style="fill:white;fill-rule:nonzero;"/>
        </g>
        <g transform="matrix(4.16667,0,0,4.16667,0,0)">
            <path d="M2222.58,380.089L2225.47,371.623L2228.36,380.089L2222.58,380.089ZM2226.95,367.749C2226.87,367.533 2226.73,367.364 2226.56,367.243C2226.4,367.137 2226.17,367.086 2225.87,367.086L2224.67,367.086C2224.4,367.086 2224.16,367.153 2223.97,367.285C2223.78,367.416 2223.65,367.572 2223.57,367.749L2217.1,386.698C2217.09,386.789 2217.07,386.857 2217.07,386.894C2217.07,387.203 2217.35,387.358 2217.91,387.358L2219.08,387.358C2219.73,387.358 2220.14,387.137 2220.33,386.698L2221.9,382.118L2229.05,382.118L2230.61,386.698C2230.8,387.137 2231.22,387.358 2231.88,387.358L2232.63,387.358C2233.17,387.358 2233.45,387.203 2233.45,386.894C2233.45,386.857 2233.44,386.789 2233.42,386.698L2226.95,367.749Z" style="fill:white;fill-rule:nonzero;"/>
        </g>
        <g transform="matrix(4.16667,0,0,4.16667,0,0)">
            <path d="M2251.86,371.835C2249.92,371.835 2248.45,372.674 2247.45,374.355C2246.64,372.674 2245.25,371.835 2243.26,371.835C2241.3,371.835 2239.88,372.695 2238.99,374.41L2238.99,372.497C2238.97,372.057 2238.62,371.835 2237.97,371.835L2237.08,371.835C2236.42,371.835 2236.08,372.057 2236.05,372.497L2236.05,386.698C2236.08,387.137 2236.42,387.358 2237.08,387.358L2237.97,387.358C2238.62,387.358 2238.97,387.137 2238.99,386.698L2238.99,379.172C2239.52,376.074 2240.68,374.516 2242.49,374.495C2244.38,374.495 2245.33,376.213 2245.33,379.641L2245.33,386.698C2245.36,387.137 2245.7,387.358 2246.36,387.358L2247.25,387.358C2247.91,387.358 2248.25,387.137 2248.28,386.698L2248.28,379.555C2248.56,376.194 2249.59,374.507 2251.36,374.495C2253.07,374.495 2253.93,376.213 2253.93,379.641L2253.93,386.698C2253.95,387.137 2254.3,387.358 2254.95,387.358L2255.84,387.358C2256.5,387.358 2256.84,387.137 2256.87,386.698L2256.87,379.043C2256.87,374.24 2255.2,371.835 2251.86,371.835Z" style="fill:white;fill-rule:nonzero;"/>
        </g>
        <g transform="matrix(4.16667,0,0,4.16667,0,0)">
            <path d="M2267.68,374.184C2269.31,374.184 2270.24,374.766 2270.45,375.92L2270.45,376.004C2270.45,377.075 2269.71,377.813 2268.24,378.213C2267.62,378.384 2266.99,378.469 2266.37,378.469C2265.47,378.469 2264.56,378.347 2263.62,378.105C2264.06,375.68 2265.41,374.375 2267.68,374.184ZM2273.38,383.694L2271.71,382.92C2271.57,382.874 2271.46,382.85 2271.35,382.85C2271.19,382.85 2271.08,382.91 2271.01,383.033C2270.33,384.188 2269.22,384.768 2267.68,384.768C2265.41,384.768 2264.06,383.396 2263.66,380.655C2264.53,380.757 2265.38,380.809 2266.21,380.809C2270.62,380.603 2272.86,378.934 2272.96,375.806C2272.63,373.197 2270.92,371.863 2267.81,371.807C2263.42,371.9 2261.07,374.445 2260.77,379.441C2260.79,384.571 2263.09,387.181 2267.68,387.273C2270.49,387.216 2272.45,386.222 2273.54,384.288C2273.58,384.203 2273.61,384.118 2273.61,384.032C2273.61,383.903 2273.53,383.79 2273.38,383.694Z" style="fill:white;fill-rule:nonzero;"/>
        </g>
        <g transform="matrix(4.16667,0,0,4.16667,0,0)">
            <path d="M2284.65,371.807C2282.54,371.853 2281.15,372.627 2280.49,374.13L2280.49,372.497C2280.47,372.057 2280.12,371.835 2279.47,371.835L2278.53,371.835C2277.88,371.835 2277.54,372.057 2277.51,372.497L2277.51,386.698C2277.56,387.137 2277.92,387.358 2278.58,387.358L2279.47,387.358C2280.12,387.358 2280.47,387.137 2280.49,386.698L2280.49,378.384C2280.5,376.102 2281.52,374.91 2283.53,374.809C2284.13,374.75 2284.53,374.516 2284.73,374.103L2285.35,372.596C2285.39,372.48 2285.41,372.383 2285.41,372.301C2285.41,371.972 2285.16,371.807 2284.65,371.807Z" style="fill:white;fill-rule:nonzero;"/>
        </g>
        <g transform="matrix(4.16667,0,0,4.16667,0,0)">
            <path d="M2290.12,371.835L2289.23,371.835C2288.57,371.835 2288.23,372.057 2288.2,372.497L2288.2,386.698C2288.23,387.137 2288.57,387.358 2289.23,387.358L2290.12,387.358C2290.77,387.358 2291.12,387.137 2291.14,386.698L2291.14,372.497C2291.12,372.057 2290.77,371.835 2290.12,371.835Z" style="fill:white;fill-rule:nonzero;"/>
        </g>
        <g transform="matrix(4.16667,0,0,4.16667,0,0)">
            <path d="M2290.16,366.216L2289.19,366.216C2288.53,366.216 2288.2,366.454 2288.2,366.933L2288.2,368.356C2288.2,368.825 2288.53,369.058 2289.19,369.058L2290.16,369.058C2290.83,369.058 2291.16,368.825 2291.16,368.356L2291.16,366.933C2291.16,366.454 2290.83,366.216 2290.16,366.216Z" style="fill:white;fill-rule:nonzero;"/>
        </g>
        <g transform="matrix(4.16667,0,0,4.16667,0,0)">
            <path d="M2302.41,374.41C2303.95,374.41 2305.07,374.942 2305.75,376.004C2305.81,376.128 2305.93,376.189 2306.09,376.189C2306.19,376.189 2306.31,376.163 2306.44,376.117L2308.12,375.344C2308.27,375.247 2308.34,375.138 2308.34,375.005C2308.34,374.921 2308.32,374.832 2308.27,374.75C2307.18,372.817 2305.23,371.82 2302.41,371.764C2297.83,371.859 2295.53,374.454 2295.51,379.555C2295.53,384.597 2297.83,387.166 2302.41,387.261C2305.23,387.203 2307.18,386.208 2308.27,384.274C2308.32,384.188 2308.34,384.105 2308.34,384.019C2308.34,383.888 2308.27,383.777 2308.12,383.678L2306.44,382.907C2306.31,382.859 2306.19,382.836 2306.09,382.836C2305.93,382.836 2305.81,382.898 2305.75,383.02C2305.07,384.078 2303.95,384.609 2302.41,384.609C2299.91,384.609 2298.63,382.927 2298.55,379.555C2298.63,376.128 2299.91,374.41 2302.41,374.41Z" style="fill:white;fill-rule:nonzero;"/>
        </g>
        <g transform="matrix(4.16667,0,0,4.16667,0,0)">
            <path d="M2321.71,380.527C2321.08,383.147 2319.71,384.459 2317.58,384.468C2315.44,384.468 2314.38,382.859 2314.38,379.641C2314.64,376.297 2316.08,374.579 2318.67,374.485C2320.13,374.485 2321.15,374.809 2321.71,375.455L2321.71,380.527ZM2318.77,371.82C2314.43,372.007 2312.04,374.624 2311.6,379.668C2311.6,384.795 2313.65,387.358 2317.77,387.358C2319.6,387.168 2320.91,386.432 2321.71,385.149L2321.71,386.698C2321.74,387.137 2322.08,387.358 2322.74,387.358L2323.63,387.358C2324.28,387.358 2324.63,387.137 2324.66,386.698L2324.66,374.258C2323.78,372.632 2321.82,371.82 2318.77,371.82Z" style="fill:white;fill-rule:nonzero;"/>
        </g>
        <g transform="matrix(4.16667,0,0,4.16667,0,0)">
            <path d="M2335.49,371.82C2333.66,372.007 2332.34,372.747 2331.54,374.031L2331.54,372.497C2331.52,372.057 2331.22,371.835 2330.66,371.835L2329.49,371.835C2328.92,371.835 2328.63,372.057 2328.6,372.497L2328.6,386.698C2328.63,387.137 2328.97,387.358 2329.63,387.358L2330.52,387.358C2331.17,387.358 2331.52,387.137 2331.54,386.698L2331.54,378.652C2332.17,376.033 2333.55,374.717 2335.67,374.707C2337.72,374.707 2338.75,376.184 2338.75,379.13L2338.75,386.698C2338.77,387.137 2339.12,387.358 2339.77,387.358L2340.66,387.358C2341.32,387.358 2341.66,387.137 2341.69,386.698L2341.69,379.188L2341.66,379.188C2341.57,374.276 2339.52,371.82 2335.49,371.82Z" style="fill:white;fill-rule:nonzero;"/>
        </g>
        <g transform="matrix(4.16667,0,0,4.16667,0,0)">
            <path d="M2355.55,380.527C2354.92,383.147 2353.54,384.459 2351.42,384.468C2349.28,384.468 2348.21,382.859 2348.21,379.641C2348.48,376.297 2349.91,374.579 2352.51,374.485C2353.97,374.485 2354.98,374.809 2355.55,375.455L2355.55,380.527ZM2352.61,371.82C2348.26,372.007 2345.87,374.624 2345.43,379.668C2345.43,384.795 2347.49,387.358 2351.61,387.358C2353.44,387.168 2354.75,386.432 2355.55,385.149L2355.55,386.698C2355.58,387.137 2355.92,387.358 2356.58,387.358L2357.47,387.358C2358.12,387.358 2358.46,387.137 2358.49,386.698L2358.49,374.258C2357.62,372.632 2355.66,371.82 2352.61,371.82Z" style="fill:white;fill-rule:nonzero;"/>
        </g>
        <g transform="matrix(4.16667,0,0,4.16667,0,0)">
            <path d="M2055.75,347.791L2069.1,301.569L2125.18,301.564C2127.49,301.535 2129.45,299.99 2130.11,297.887L2136.53,276.641L2078.06,276.728C2078.06,276.728 2076.93,276.59 2076.43,277.49C2076.27,277.778 2075.51,279.148 2075.51,279.148C2075.51,279.148 2081.89,257.169 2091.08,257.169L2138.5,257.169C2140.81,257.169 2142.77,255.651 2143.45,253.564L2151.37,226.709L2093.48,226.62C2074.71,227.984 2061,243.573 2052.36,273.379L2029.36,351.586L2050.73,351.586C2053.11,351.586 2055.13,349.974 2055.75,347.791Z" style="fill:white;fill-rule:nonzero;"/>
        </g>
        <g transform="matrix(4.16667,0,0,4.16667,0,0)">
            <path d="M2193.19,303.165L2173.13,303.165C2173.13,303.165 2172.25,303.2 2172.02,303.2C2171.13,303.2 2170.13,304.81 2170.13,304.81L2187.47,265.168L2195.94,300.925C2195.96,301.019 2196.37,303.165 2193.19,303.165ZM2229.96,348.565L2200.83,226.709C2199.89,226.719 2185.44,226.709 2183.6,226.709C2179.95,226.709 2178.65,228.439 2177.87,230.009L2124.41,351.586L2145.37,351.586C2149.52,351.586 2150.24,349.763 2150.88,348.353L2163.11,320.729L2196.12,320.585C2200.06,320.585 2201.15,323.315 2201.15,323.315L2207.83,351.586L2225.46,351.586C2225.46,351.586 2230.69,351.586 2229.96,348.565Z" style="fill:white;fill-rule:nonzero;"/>
        </g>
        <g transform="matrix(4.16667,0,0,4.16667,0,0)">
            <path d="M2350.22,226.709C2344.95,226.709 2342.17,226.709 2339.54,232.509L2305.62,307.154C2305.62,307.154 2305.17,308.098 2305.04,308.403C2304.38,310.023 2304.67,312.252 2304.67,312.252L2283.2,226.709L2262.88,226.709C2257.38,226.709 2253.37,226.709 2252.87,233.182L2240.73,351.586C2243.35,351.494 2254.55,351.586 2254.55,351.586C2264.03,351.586 2264.03,351.586 2264.64,345.199L2271.79,274.92L2290.53,349.891C2298.27,349.906 2291.23,349.906 2298.27,349.906L2302.14,349.906C2309.71,349.891 2309.71,349.891 2312.06,344.861L2343.5,275.424L2335.69,351.586L2350.22,351.586C2358.85,351.586 2358.85,351.586 2359.64,345.114L2371.79,226.709L2350.22,226.709Z" style="fill:white;fill-rule:nonzero;"/>
        </g>
        <g transform="matrix(4.16667,0,0,4.16667,0,0)">
            <path d="M1855.24,416.156C1835.55,416.156 1816.96,411.473 1800.57,403.179L1818.67,403.179L1828.79,355.455L1831.82,341.388C1831.75,341.395 1831,341.454 1830.18,341.532C1815.12,343.328 1804.81,347.765 1797.01,355.852C1786.92,366.328 1782.66,380.348 1780.71,390.543C1777.56,388.07 1774.53,385.441 1771.64,382.67C1774.3,372.188 1779.2,359.782 1788.55,350.075C1800.6,337.568 1817.87,332.917 1847.27,332.917C1847.27,332.917 1907.3,332.921 1907.35,332.921C1913.72,332.921 1915.97,332.921 1920.37,326.74L1962.49,271.492L1886.12,271.155C1864.11,272.298 1842.97,273.838 1820.4,302.701L1801.47,326.943L1819.38,261.857C1789.01,267.857 1777.88,275.97 1769.25,309.34L1756.62,365.16C1743.25,346.111 1735.41,323.002 1735.41,298.087C1735.41,232.881 1789.06,180.02 1855.24,180.02C1875.07,180.02 1893.77,184.769 1910.24,193.168L1862.9,193.004C1849.02,192.836 1833.94,192.996 1820,211.959C1820,211.959 1791.9,249.436 1778.93,272.103C1786.61,261.157 1803.94,254.546 1821.15,253.883L1908.99,253.867L1909,253.865C1912.1,253.865 1914.63,253.865 1917.65,249.927C1917.65,249.924 1930.58,232.23 1941.99,216.631C1962.49,237.818 1975.07,266.504 1975.07,298.087C1975.07,363.295 1921.42,416.156 1855.24,416.156ZM1948.01,208.393C1954.27,199.82 1959.01,193.338 1959.01,193.338L1929.88,193.237C1908.76,178.612 1883.02,170.02 1855.24,170.02C1783.45,170.02 1725.26,227.358 1725.26,298.087C1725.26,328.334 1735.91,356.127 1753.7,378.039L1747.99,403.301L1768.23,403.301C1768.45,401.839 1768.71,398.567 1769.36,394.208C1772.48,396.918 1775.73,399.482 1779.11,401.89C1779.05,402.411 1779,402.851 1778.95,403.179L1780.95,403.179C1802.01,417.657 1827.61,426.156 1855.24,426.156C1927.03,426.156 1985.22,368.818 1985.22,298.087C1985.22,263.157 1971.02,231.498 1948.01,208.393Z" style="fill:white;fill-rule:nonzero;"/>
        </g>
    </g>
</svg>
