<?xml version="1.0" encoding="UTF-8" standalone="no"?>
<!DOCTYPE svg PUBLIC "-//W3C//DTD SVG 1.1//EN" "http://www.w3.org/Graphics/SVG/1.1/DTD/svg11.dtd">
<svg width="100%" height="100%" viewBox="0 0 1060 280" version="1.1" xmlns="http://www.w3.org/2000/svg" xmlns:xlink="http://www.w3.org/1999/xlink" xml:space="preserve" xmlns:serif="http://www.serif.com/" style="fill-rule:evenodd;clip-rule:evenodd;stroke-linejoin:round;stroke-miterlimit:2;">
    <g transform="matrix(1,0,0,1,1.9916e-06,-57.4703)">
        <g transform="matrix(1,0,0,1,-7,0)">
            <g transform="matrix(-0.99517,-0.0981696,0.0981696,-0.99517,765.937,385.997)">
                <path d="M769.03,64.97L763.107,4.93C743.975,1.115 721.394,-1.876 711.154,-2.414C653.687,-2.414 601.607,26.319 549.528,53.257C497.448,80.194 456.144,125.09 395.085,132.274C366.735,135.609 336.971,125.847 309.838,118.636C-41.431,25.281 -159.531,134.197 -206.522,148.437C-240.508,162.616 -266.768,158.813 -286.815,149.061L-280.831,209.722C-276.764,208.135 -271.816,206.279 -265.785,204.108C-175.993,171.783 -87.997,218.474 0,223.862C39.429,226.276 79.253,212.438 114.28,195.706C147.823,179.682 180.352,151.883 217.826,146.428C285.366,136.595 344.912,193.87 413.044,178.966C470.511,166.395 511.815,128.682 567.486,116.111C654.643,96.43 724.669,105.007 773.879,114.125L769.03,64.97Z" style="fill:rgb(0,53,92);"/>
            </g>
        </g>
        <g transform="matrix(1,0,0,1,-7,0)">
            <g transform="matrix(1,0,0,-1,7,476.794)">
                <path d="M-0,170.618L-0,139.794L1059,139.794L1059,210.982C1040.01,222.655 1014.25,229.018 979.033,218.243C930.871,208.685 802.65,111.89 462.242,239.277C435.948,249.117 407.286,261.755 378.746,261.218C317.276,260.064 271.764,219.439 217.292,197.744C162.82,176.05 108.17,152.567 50.981,158.209C40.844,159.75 18.665,164.943 -0,170.618Z" style="fill:rgb(255,160,0);"/>
            </g>
        </g>
        <g transform="matrix(1,0,0,1,-7,0)">
            <g transform="matrix(1,0,0,-1,7,476.794)">
                <path d="M1059,271.938L1059,308.633C1015.68,292.574 968.162,344.041 935.218,377.757C820.165,491.967 682.242,337.749 558.447,308.456C521.47,299.472 482.857,310.499 458.517,338.164C395.518,412.952 273.157,403.95 181.907,357.01C131.927,331.723 59.813,315.413 -0,325.225L-0,280.343C48.078,266.438 116.923,251.028 205.591,262.058C262.227,269.103 307.034,302.579 365.458,309.448C434.724,317.591 488.359,254.748 556.538,257.902C594.367,259.653 629.468,284.124 664.422,296.777C700.922,309.99 741.912,319.852 780.914,313.578C867.957,299.578 950.944,244.474 1043.48,267.828C1049.69,269.396 1054.8,270.757 1059,271.938Z" style="fill:white;"/>
            </g>
        </g>
    </g>
</svg>
