<?xml version="1.0" encoding="UTF-8" standalone="no"?>
<!DOCTYPE svg PUBLIC "-//W3C//DTD SVG 1.1//EN" "http://www.w3.org/Graphics/SVG/1.1/DTD/svg11.dtd">
<svg width="100%" height="100%" viewBox="0 0 573 370" version="1.1" xmlns="http://www.w3.org/2000/svg" xmlns:xlink="http://www.w3.org/1999/xlink" xml:space="preserve" xmlns:serif="http://www.serif.com/" style="fill-rule:evenodd;clip-rule:evenodd;stroke-linejoin:round;stroke-miterlimit:2;">
    <g transform="matrix(1,0,0,1,-1472.76,-497.473)">
        <path d="M1543.41,604.69L1545.38,595.421C1545.74,593.706 1544.57,592.651 1542.86,592.651L1531.25,592.651C1529.54,592.651 1527.8,594.041 1527.44,595.752L1527.11,597.281L1527.16,597.281L1524.4,610.251C1524.12,611.561 1524.7,612.735 1525.85,613.171L1540.43,618.767L1564.22,627.889C1573.08,631.285 1577.56,640.351 1575.4,650.518L1575.39,650.537L1575,652.379C1570.63,672.97 1553.85,686.808 1533.26,686.808L1500.83,686.808C1480.24,686.808 1469.34,672.97 1473.72,652.379L1474.12,650.518L1475.71,643.012L1517.45,643.012L1515.85,650.518L1515.52,652.047C1515.16,653.759 1516.26,655.148 1517.97,655.148L1529.58,655.148C1531.29,655.148 1533.03,653.759 1533.4,652.047L1533.72,650.518L1536.46,637.563C1536.74,636.253 1536.16,635.085 1535.02,634.643L1520.42,629.042L1496.61,619.912C1487.75,616.515 1483.27,607.449 1485.44,597.281L1485.83,595.421C1490.21,574.829 1506.98,560.992 1527.57,560.992L1560,560.992C1580.6,560.992 1591.49,574.829 1587.11,595.421L1585.15,604.69L1543.41,604.69Z" style="fill:rgb(30,160,172);fill-rule:nonzero;"/>
        <path d="M1649.99,641.3L1648.16,611.202L1633.54,641.3L1649.99,641.3ZM1650.94,656.947L1625.94,656.947L1611.43,686.803L1569.7,686.803L1639.03,560.71L1678.76,560.71L1694.49,686.803L1652.76,686.803L1650.94,656.947Z" style="fill:rgb(30,160,172);fill-rule:nonzero;"/>
        <path d="M1780.47,547.2L1755.31,545.401L1786.44,513.201L1814.55,523.994L1780.47,547.2ZM1823.77,561.005L1804.74,650.53L1804.74,650.548L1804.35,652.391C1799.97,672.983 1783.2,686.818 1762.6,686.818L1730.17,686.818C1709.58,686.818 1698.69,672.983 1703.07,652.391L1703.46,650.53L1722.49,561.005L1764.22,561.005L1745.19,650.53L1745.14,650.53L1744.82,652.059C1744.45,653.771 1745.6,655.16 1747.32,655.16L1758.92,655.16C1760.63,655.16 1762.38,653.771 1762.74,652.059L1763.06,650.548L1782.04,561.005L1823.77,561.005Z" style="fill:rgb(30,160,172);fill-rule:nonzero;"/>
        <path d="M1892.06,597.278L1892.38,595.75C1892.75,594.038 1891.6,592.648 1889.89,592.648L1875.17,592.648L1861.89,655.147L1876.6,655.147C1878.32,655.147 1880.06,653.756 1880.42,652.043L1880.74,650.535L1880.69,650.535L1892.01,597.278L1892.06,597.278ZM1934.13,595.418L1933.74,597.278L1922.42,650.515L1922.42,650.535L1922.03,652.377C1917.65,672.966 1900.87,686.803 1880.28,686.803L1813.42,686.803L1820.16,655.147L1833.44,592.648L1840.17,560.991L1907.03,560.991C1927.62,560.991 1938.51,574.826 1934.13,595.418Z" style="fill:rgb(30,160,172);fill-rule:nonzero;"/>
        <path d="M1991.45,592.648L1986.47,616.071L2027.41,616.071L2024.09,631.719L1983.14,631.719L1979.8,647.457L1978.82,652.047C1978.46,653.759 1979.5,655.148 1981.22,655.148L2025.31,655.148L2018.59,686.803L1962.13,686.803C1957.2,686.803 1952.88,684.843 1950.13,681.354L1939.25,667.54C1936.51,664.05 1935.55,659.315 1936.6,654.38L1938.07,647.457L1941.41,631.719L1944.74,616.071L1949.72,592.648L1956.45,560.991L2045.32,560.991L2038.59,592.648L1991.45,592.648Z" style="fill:rgb(30,160,172);fill-rule:nonzero;"/>
        <path d="M1501.88,502.893L1501.88,516.551L1510.87,516.551L1510.87,521.971L1501.88,521.971L1501.88,533.115C1501.88,533.458 1502.05,533.781 1502.32,533.983L1504.02,535.214C1504.38,535.482 1504.83,535.626 1505.28,535.626L1513.02,535.626L1513.02,541.045L1507.56,541.045C1506.2,541.045 1504.87,540.614 1503.77,539.811L1498.46,535.946C1496.85,534.777 1495.9,532.91 1495.9,530.922L1495.9,497.474L1513.02,497.474L1513.02,502.893L1501.88,502.893Z" style="fill:rgb(27,53,85);fill-rule:nonzero;"/>
        <path d="M1553.36,509.467L1553.36,505.852C1553.36,503.975 1552.84,502.894 1550.96,502.894L1546.3,502.894C1544.43,502.894 1543.91,503.974 1543.91,505.852L1543.91,511.111C1543.91,511.805 1544.24,512.458 1544.81,512.86L1555.28,520.33C1557.83,522.145 1559.34,525.077 1559.34,528.201L1559.34,532.667C1559.34,537.835 1556.13,541.046 1550.96,541.046L1546.3,541.046C1541.14,541.046 1537.93,537.835 1537.93,532.667L1537.93,529.05L1543.91,529.05L1543.91,532.667C1543.91,534.545 1544.43,535.626 1546.3,535.626L1550.96,535.626C1552.84,535.626 1553.36,534.545 1553.36,532.667L1553.36,527.409C1553.36,526.715 1553.02,526.063 1552.46,525.66L1541.98,518.19C1539.44,516.375 1537.93,513.443 1537.93,510.318L1537.93,505.852C1537.93,500.685 1541.14,497.474 1546.3,497.474L1550.96,497.474C1556.13,497.474 1559.34,500.685 1559.34,505.852L1559.34,509.467L1553.36,509.467Z" style="fill:rgb(27,53,85);fill-rule:nonzero;"/>
        <path d="M1601.42,516.08L1601.42,505.851C1601.42,503.974 1600.9,502.893 1599.02,502.893L1591.97,502.893L1591.97,519.257L1598.24,519.257C1598.53,519.257 1598.8,519.145 1599,518.942L1601.1,516.839C1601.3,516.64 1601.42,516.364 1601.42,516.08ZM1607.4,505.852L1607.4,513.338C1607.4,515.047 1606.72,516.687 1605.51,517.895L1600.62,522.788C1599.41,523.997 1597.77,524.677 1596.06,524.677L1591.97,524.677L1591.97,541.044L1585.99,541.044L1585.99,497.474L1599.02,497.474C1604.19,497.474 1607.4,500.685 1607.4,505.852Z" style="fill:rgb(27,53,85);fill-rule:nonzero;"/>
        <path d="M1645.79,525.286L1641.12,507.515L1636.44,525.286L1645.79,525.286ZM1647.22,530.706L1635.02,530.706L1632.3,541.045L1626.14,541.045L1637.6,497.474L1644.62,497.474L1656.09,541.045L1649.93,541.045L1647.22,530.706Z" style="fill:rgb(27,53,85);fill-rule:nonzero;"/>
        <path d="M1694.81,511.803L1694.81,505.851C1694.81,503.975 1694.29,502.893 1692.41,502.893L1687.75,502.893C1685.88,502.893 1685.36,503.974 1685.36,505.851L1685.36,532.666C1685.36,534.543 1685.88,535.624 1687.75,535.624L1692.41,535.624C1694.29,535.624 1694.81,534.544 1694.81,532.666L1694.81,526.714L1700.79,526.714L1700.79,532.666C1700.79,537.834 1697.58,541.044 1692.41,541.044L1692.26,541.044L1691.33,543.739C1692.99,543.988 1694.25,544.559 1695.1,545.453C1695.95,546.345 1696.37,547.394 1696.37,548.598C1696.37,550.259 1695.73,551.577 1694.44,552.555C1693.15,553.53 1691.51,554.018 1689.52,554.018C1687.57,554.018 1685.66,553.583 1683.79,552.711L1685.04,549.159C1686.37,549.698 1687.63,549.969 1688.84,549.969C1689.75,549.969 1690.47,549.772 1690.99,549.378C1691.5,548.982 1691.76,548.537 1691.76,548.038C1691.76,547.497 1691.48,547.051 1690.92,546.698C1690.36,546.345 1689.58,546.169 1688.59,546.169L1686.59,546.169L1688.2,541.044L1687.75,541.044C1682.59,541.044 1679.38,537.834 1679.38,532.666L1679.38,505.851C1679.38,500.684 1682.59,497.473 1687.75,497.473L1692.41,497.473C1697.58,497.473 1700.79,500.684 1700.79,505.851L1700.79,511.803L1694.81,511.803Z" style="fill:rgb(27,53,85);fill-rule:nonzero;"/>
        <path d="M1742.5,505.852C1742.5,503.975 1741.97,502.894 1740.1,502.894L1735.44,502.894C1733.57,502.894 1733.04,503.974 1733.04,505.852L1733.04,532.666C1733.04,534.544 1733.57,535.625 1735.44,535.625L1740.1,535.625C1741.97,535.625 1742.5,534.545 1742.5,532.666L1742.5,505.852ZM1748.48,505.852L1748.48,532.666C1748.48,537.834 1745.27,541.045 1740.1,541.045L1735.44,541.045C1730.28,541.045 1727.06,537.834 1727.06,532.666L1727.06,505.852C1727.06,500.685 1730.28,497.474 1735.44,497.474L1740.1,497.474C1745.27,497.474 1748.48,500.685 1748.48,505.852Z" style="fill:rgb(27,53,85);fill-rule:nonzero;"/>
        <path d="M1621.19,862.592L1637.95,804.573L1708.34,804.567C1711.24,804.531 1713.71,802.591 1714.53,799.952L1722.59,773.284L1649.2,773.393C1649.2,773.393 1647.78,773.22 1647.15,774.349C1646.96,774.711 1646,776.431 1646,776.431C1646,776.431 1654.01,748.843 1665.54,748.843L1725.06,748.843C1727.97,748.843 1730.42,746.937 1731.27,744.318L1741.22,710.61L1668.55,710.499C1644.99,712.21 1627.79,731.777 1616.94,769.19L1588.07,867.355L1614.9,867.355C1617.89,867.355 1620.42,865.331 1621.19,862.592Z" style="fill:rgb(52,186,144);fill-rule:nonzero;"/>
        <path d="M1793.71,806.577L1768.53,806.577C1768.53,806.577 1767.43,806.622 1767.14,806.622C1766.02,806.622 1764.77,808.642 1764.77,808.642L1786.53,758.884L1797.16,803.765C1797.18,803.883 1797.71,806.577 1793.71,806.577ZM1839.86,863.562L1803.31,710.61C1802.12,710.622 1783.98,710.61 1781.67,710.61C1777.09,710.61 1775.46,712.781 1774.48,714.752L1707.37,867.355L1733.68,867.355C1738.9,867.355 1739.8,865.066 1740.6,863.296L1755.95,828.623L1797.39,828.443C1802.33,828.443 1803.7,831.869 1803.7,831.869L1812.08,867.355L1834.22,867.355C1834.22,867.355 1840.78,867.355 1839.86,863.562Z" style="fill:rgb(52,186,144);fill-rule:nonzero;"/>
        <path d="M1990.81,710.61C1984.2,710.61 1980.71,710.61 1977.41,717.89L1934.83,811.583C1934.83,811.583 1934.26,812.769 1934.11,813.151C1933.27,815.185 1933.64,817.983 1933.64,817.983L1906.69,710.61L1881.18,710.61C1874.29,710.61 1869.25,710.61 1868.62,718.735L1853.38,867.355C1856.67,867.24 1870.73,867.355 1870.73,867.355C1882.62,867.355 1882.62,867.355 1883.4,859.337L1892.37,771.124L1915.89,865.227C1925.6,865.245 1916.77,865.245 1925.6,865.245L1930.46,865.245C1939.96,865.227 1939.96,865.227 1942.91,858.913L1982.37,771.757L1972.57,867.355L1990.81,867.355C2001.65,867.355 2001.65,867.355 2002.63,859.231L2017.89,710.61L1990.81,710.61Z" style="fill:rgb(52,186,144);fill-rule:nonzero;"/>
    </g>
</svg>
