<?xml version="1.0" encoding="UTF-8" standalone="no"?>
<!DOCTYPE svg PUBLIC "-//W3C//DTD SVG 1.1//EN" "http://www.w3.org/Graphics/SVG/1.1/DTD/svg11.dtd">
<svg width="100%" height="100%" viewBox="0 0 916 240" version="1.1" xmlns="http://www.w3.org/2000/svg" xmlns:xlink="http://www.w3.org/1999/xlink" xml:space="preserve" xmlns:serif="http://www.serif.com/" style="fill-rule:evenodd;clip-rule:evenodd;stroke-linejoin:round;stroke-miterlimit:2;">
    <g transform="matrix(1,0,0,1,-117.486,-0.989014)">
        <path d="M403.382,10.3L403.382,33.761L418.818,33.761L418.818,43.07L403.382,43.07L403.382,62.216C403.382,62.806 403.665,63.361 404.14,63.708L407.047,65.822C407.678,66.282 408.438,66.529 409.219,66.529L422.509,66.529L422.509,75.838L413.135,75.838C410.793,75.838 408.513,75.097 406.62,73.718L397.5,67.079C394.741,65.07 393.108,61.862 393.108,58.449L393.108,0.991L422.509,0.991L422.509,10.3L403.382,10.3Z" style="fill:rgb(27,53,85);fill-rule:nonzero;"/>
        <path d="M477.893,21.592L477.893,15.383C477.893,12.16 477,10.301 473.775,10.301L465.777,10.301C462.555,10.301 461.66,12.158 461.66,15.383L461.66,24.417C461.66,25.609 462.237,26.73 463.207,27.422L481.203,40.255C485.573,43.371 488.167,48.408 488.167,53.775L488.167,61.448C488.167,70.325 482.651,75.84 473.775,75.84L465.777,75.84C456.901,75.84 451.385,70.325 451.385,61.448L451.385,55.233L461.657,55.233L461.657,61.448C461.657,64.672 462.552,66.529 465.777,66.529L473.775,66.529C476.998,66.529 477.893,64.673 477.893,61.448L477.893,52.414C477.893,51.222 477.315,50.102 476.345,49.41L458.349,36.577C453.979,33.46 451.385,28.424 451.385,23.055L451.385,15.383C451.385,6.507 456.901,0.991 465.777,0.991L473.775,0.991C482.651,0.991 488.167,6.507 488.167,15.383L488.167,21.592L477.893,21.592Z" style="fill:rgb(27,53,85);fill-rule:nonzero;"/>
        <path d="M546.541,32.953L546.541,15.382C546.541,12.158 545.648,10.3 542.423,10.3L530.305,10.3L530.305,38.407L541.087,38.407C541.576,38.407 542.044,38.216 542.391,37.869L546.002,34.258C546.35,33.912 546.543,33.442 546.543,32.953L546.541,32.953ZM556.817,15.383L556.817,28.242C556.817,31.178 555.65,33.994 553.575,36.069L545.168,44.476C543.092,46.554 540.274,47.719 537.339,47.719L530.307,47.719L530.307,75.837L520.034,75.837L520.034,0.991L542.425,0.991C551.301,0.991 556.815,6.507 556.817,15.383Z" style="fill:rgb(27,53,85);fill-rule:nonzero;"/>
        <path d="M608.856,48.768L600.826,18.239L592.794,48.768L608.856,48.768ZM611.305,58.077L590.346,58.077L585.674,75.838L575.106,75.838L594.794,0.991L606.854,0.991L626.544,75.838L615.977,75.838L611.305,58.077Z" style="fill:rgb(27,53,85);fill-rule:nonzero;"/>
        <path d="M679.144,25.606L679.144,15.382C679.144,12.159 678.249,10.301 675.024,10.301L667.027,10.301C663.804,10.301 662.908,12.157 662.908,15.382L662.908,61.445C662.908,64.669 663.803,66.526 667.027,66.526L675.024,66.526C678.248,66.526 679.144,64.67 679.144,61.445L679.144,51.22L689.415,51.22L689.415,61.445C689.415,70.322 683.899,75.837 675.023,75.837L674.773,75.837L673.162,80.467C676.016,80.895 678.175,81.874 679.638,83.41C681.099,84.943 681.831,86.744 681.831,88.814C681.831,91.667 680.724,93.932 678.514,95.61C676.301,97.285 673.483,98.125 670.06,98.125C666.707,98.125 663.426,97.375 660.215,95.877L662.355,89.778C664.638,90.704 666.813,91.169 668.884,91.169C670.45,91.169 671.682,90.829 672.574,90.152C673.465,89.473 673.912,88.707 673.912,87.851C673.912,86.923 673.43,86.155 672.468,85.55C671.504,84.943 670.166,84.641 668.454,84.641L665.031,84.641L667.796,75.837L667.025,75.837C658.149,75.837 652.634,70.322 652.634,61.445L652.634,15.382C652.634,6.505 658.149,0.989 667.025,0.989L675.023,0.989C683.899,0.989 689.415,6.505 689.415,15.382L689.415,25.606L679.144,25.606Z" style="fill:rgb(27,53,85);fill-rule:nonzero;"/>
        <path d="M747.149,15.383C747.149,12.16 746.255,10.301 743.029,10.301L735.034,10.301C731.81,10.301 730.914,12.158 730.914,15.383L730.914,61.446C730.914,64.67 731.81,66.527 735.034,66.527L743.029,66.527C746.255,66.527 747.149,64.672 747.149,61.446L747.149,15.383ZM757.422,15.383L757.422,61.446C757.422,70.323 751.908,75.838 743.029,75.838L735.034,75.838C726.158,75.838 720.642,70.323 720.642,61.446L720.642,15.383C720.642,6.507 726.158,0.991 735.034,0.991L743.029,0.991C751.908,0.991 757.424,6.507 757.422,15.383Z" style="fill:rgb(27,53,85);fill-rule:nonzero;"/>
        <path d="M188.617,157.515L190.601,148.184C190.966,146.457 189.788,145.395 188.065,145.395L176.379,145.395C174.654,145.395 172.899,146.794 172.535,148.517L172.206,150.057L172.26,150.057L169.483,163.115C169.199,164.435 169.782,165.616 170.935,166.056L185.622,171.69L209.572,180.875C218.494,184.294 223.004,193.423 220.827,203.659L220.823,203.677L220.431,205.532C216.024,226.266 199.132,240.198 178.399,240.198L145.746,240.198C125.012,240.198 114.044,226.266 118.451,205.532L118.852,203.659L120.458,196.101L162.478,196.101L160.871,203.659L160.541,205.199C160.177,206.923 161.281,208.322 163.006,208.322L174.692,208.322C176.416,208.322 178.171,206.923 178.537,205.199L178.864,203.659L181.626,190.616C181.903,189.297 181.322,188.12 180.169,187.677L165.468,182.035L141.498,172.843C132.579,169.423 128.069,160.294 130.246,150.057L130.643,148.184C135.049,127.45 151.941,113.518 172.674,113.518L205.328,113.518C226.065,113.518 237.032,127.45 232.625,148.184L230.642,157.515L188.617,157.515Z" style="fill:rgb(30,160,172);fill-rule:nonzero;"/>
        <path d="M295.944,194.379L294.101,164.072L279.376,194.379L295.944,194.379ZM296.903,210.133L271.723,210.133L257.117,240.195L215.098,240.195L284.905,113.234L324.912,113.234L340.748,240.195L298.731,240.195L296.903,210.133Z" style="fill:rgb(30,160,172);fill-rule:nonzero;"/>
        <path d="M427.329,99.632L401.998,97.82L433.337,65.399L461.638,76.267L427.329,99.632ZM470.928,113.531L451.765,203.672L451.763,203.69L451.369,205.545C446.961,226.279 430.074,240.209 409.337,240.209L376.687,240.209C355.954,240.209 344.986,226.279 349.393,205.545L349.789,203.672L368.948,113.531L410.967,113.531L391.809,203.672L391.756,203.672L391.43,205.21C391.064,206.935 392.223,208.334 393.948,208.334L405.634,208.334C407.355,208.334 409.109,206.935 409.474,205.21L409.8,203.69L428.912,113.531L470.928,113.531Z" style="fill:rgb(30,160,172);fill-rule:nonzero;"/>
        <path d="M539.696,150.053L540.023,148.515C540.389,146.79 539.23,145.391 537.507,145.391L522.692,145.391L509.315,208.32L524.13,208.32C525.857,208.32 527.609,206.919 527.975,205.196L528.297,203.676L528.245,203.676L539.643,150.053L539.696,150.053ZM582.055,148.18L581.658,150.053L570.266,203.656L570.264,203.676L569.869,205.531C565.46,226.262 548.571,240.195 527.835,240.195L460.521,240.195L467.296,208.32L480.673,145.391L487.449,113.516L554.764,113.516C575.498,113.516 586.467,127.447 582.055,148.18Z" style="fill:rgb(30,160,172);fill-rule:nonzero;"/>
        <path d="M639.777,145.391L634.766,168.975L675.988,168.975L672.641,184.732L631.418,184.732L628.051,200.577L627.066,205.199C626.701,206.923 627.751,208.322 629.476,208.322L673.873,208.322L667.101,240.195L610.261,240.195C605.291,240.195 600.943,238.22 598.176,234.707L587.225,220.799C584.457,217.284 583.496,212.517 584.552,207.547L586.032,200.577L589.398,184.732L592.746,168.975L597.758,145.391L604.536,113.516L694.023,113.516L687.246,145.391L639.777,145.391Z" style="fill:rgb(30,160,172);fill-rule:nonzero;"/>
        <path d="M711.03,236.343L724.64,189.232L781.798,189.227C784.149,189.198 786.155,187.623 786.82,185.48L793.369,163.825L733.775,163.914C733.775,163.914 732.622,163.773 732.113,164.69C731.953,164.984 731.173,166.38 731.173,166.38C731.173,166.38 737.678,143.979 747.043,143.979L795.374,143.979C797.733,143.979 799.728,142.431 800.416,140.304L808.495,112.934L749.489,112.843C730.355,114.233 716.386,130.121 707.581,160.501L684.138,240.211L705.922,240.211C708.347,240.211 710.401,238.568 711.03,236.343Z" style="fill:rgb(52,186,144);fill-rule:nonzero;"/>
        <path d="M851.114,190.859L830.673,190.859C830.673,190.859 829.776,190.895 829.542,190.895C828.634,190.895 827.615,192.536 827.615,192.536L845.284,152.132L853.915,188.576C853.935,188.672 854.362,190.859 851.114,190.859ZM888.594,237.131L858.908,112.934C857.946,112.944 843.217,112.934 841.344,112.934C837.625,112.934 836.301,114.696 835.501,116.297L781.011,240.211L802.373,240.211C806.609,240.211 807.339,238.353 807.989,236.915L820.453,208.76L854.103,208.614C858.117,208.614 859.23,211.396 859.23,211.396L866.037,240.211L884.008,240.211C884.008,240.211 889.336,240.211 888.594,237.131Z" style="fill:rgb(52,186,144);fill-rule:nonzero;"/>
        <path d="M1011.16,112.934C1005.8,112.934 1002.96,112.934 1000.28,118.845L965.706,194.924C965.706,194.924 965.248,195.887 965.12,196.197C964.44,197.849 964.738,200.121 964.738,200.121L942.861,112.934L922.142,112.934C916.544,112.934 912.457,112.934 911.946,119.531L899.567,240.211C902.239,240.117 913.66,240.211 913.66,240.211C923.315,240.211 923.315,240.211 923.941,233.7L931.225,162.071L950.325,238.483C958.215,238.498 951.042,238.498 958.215,238.498L962.156,238.498C969.874,238.483 969.874,238.483 972.267,233.356L1004.31,162.585L996.355,240.211L1011.16,240.211C1019.96,240.211 1019.96,240.211 1020.76,233.614L1033.15,112.934L1011.16,112.934Z" style="fill:rgb(52,186,144);fill-rule:nonzero;"/>
    </g>
</svg>
