<?xml version="1.0" encoding="UTF-8" standalone="no"?>
<!DOCTYPE svg PUBLIC "-//W3C//DTD SVG 1.1//EN" "http://www.w3.org/Graphics/SVG/1.1/DTD/svg11.dtd">
<svg width="100%" height="100%" viewBox="0 0 8534 3353" version="1.1" xmlns="http://www.w3.org/2000/svg" xmlns:xlink="http://www.w3.org/1999/xlink" xml:space="preserve" xmlns:serif="http://www.serif.com/" style="fill-rule:evenodd;clip-rule:evenodd;stroke-linejoin:round;stroke-miterlimit:2;">
    <g transform="matrix(4.16667,0,0,4.16667,0,2113.41)">
        <path d="M957.706,189.579C956.336,189.579 955.225,188.469 955.225,187.098L955.225,110.24C955.225,108.87 956.336,107.759 957.706,107.759L964.55,107.759C965.208,107.759 965.84,108.02 966.305,108.486C966.77,108.951 967.031,109.582 967.031,110.24L967.031,142.884L1007.56,142.884L1007.56,110.24C1007.56,109.582 1007.82,108.951 1008.29,108.486C1008.75,108.02 1009.38,107.759 1010.04,107.759L1016.94,107.759C1018.31,107.759 1019.42,108.87 1019.42,110.24L1019.42,187.098C1019.42,188.469 1018.31,189.579 1016.94,189.579L1010.04,189.579C1009.38,189.579 1008.75,189.318 1008.29,188.853C1007.82,188.387 1007.56,187.756 1007.56,187.098L1007.56,152.81L967.031,152.81L967.031,187.098C967.031,187.756 966.77,188.387 966.305,188.853C965.84,189.318 965.208,189.579 964.55,189.579L957.706,189.579Z" style="fill:white;fill-rule:nonzero;"/>
    </g>
    <g transform="matrix(4.16667,0,0,4.16667,0,2106.8)">
        <path d="M1348.51,110.699C1348.59,109.013 1349.89,108.171 1352.39,108.171L1355.78,108.171C1358.29,108.171 1359.61,109.013 1359.75,110.699L1359.75,172.744C1359.75,177.615 1361.91,180.055 1366.25,180.055C1368.19,180.055 1369.6,179.873 1370.5,179.515C1370.6,179.482 1370.67,179.461 1370.71,179.461C1372.61,179.461 1373.55,180.788 1373.54,183.442L1373.51,183.712C1373.42,187.723 1372.7,189.893 1371.33,190.217C1369.82,190.575 1368.12,190.752 1366.23,190.752C1354.75,190.752 1348.86,184.946 1348.52,173.334L1348.51,110.699Z" style="fill:white;fill-rule:nonzero;"/>
    </g>
    <g transform="matrix(4.16667,0,0,4.16667,0,2148.05)">
        <path d="M1246.39,128.788L1239.21,128.788C1238.15,128.715 1237.62,127.863 1237.64,126.23L1237.63,124.055C1237.61,122.388 1238.13,121.514 1239.21,121.442L1246.4,121.442L1246.38,110.723C1246.49,109.022 1247.82,108.169 1250.36,108.169L1253.79,108.169C1256.32,108.169 1257.64,109.022 1257.75,110.723L1257.76,121.442L1267.51,121.442C1268.52,121.514 1269.05,122.388 1269.08,124.055L1269.09,126.23C1269.07,127.863 1268.54,128.715 1267.5,128.788L1257.76,128.788L1257.77,162.628C1257.76,167.561 1259.96,170.025 1264.35,170.025C1266.31,170.025 1267.74,169.846 1268.65,169.483C1268.71,169.445 1268.77,169.428 1268.8,169.428C1270.73,169.428 1271.7,170.771 1271.72,173.453L1271.7,173.726C1271.6,177.789 1270.87,179.98 1269.49,180.309C1267.97,180.671 1266.24,180.854 1264.32,180.854C1252.72,180.854 1246.74,174.975 1246.4,163.225L1246.39,128.788Z" style="fill:white;fill-rule:nonzero;"/>
    </g>
    <g transform="matrix(4.16667,0,0,4.16667,0,2148.05)">
        <path d="M1552.09,128.788L1544.91,128.788C1543.85,128.715 1543.33,127.863 1543.34,126.23L1543.33,124.055C1543.31,122.388 1543.84,121.514 1544.91,121.442L1552.1,121.442L1552.08,110.723C1552.19,109.022 1553.52,108.169 1556.06,108.169L1559.49,108.169C1562.03,108.169 1563.35,109.022 1563.45,110.723L1563.47,121.442L1573.21,121.442C1574.23,121.514 1574.76,122.388 1574.78,124.055L1574.79,126.23C1574.77,127.863 1574.24,128.715 1573.2,128.788L1563.46,128.788L1563.47,162.628C1563.46,167.561 1565.67,170.025 1570.05,170.025C1572.01,170.025 1573.44,169.846 1574.35,169.483C1574.42,169.445 1574.47,169.428 1574.5,169.428C1576.43,169.428 1577.4,170.771 1577.42,173.453L1577.4,173.726C1577.31,177.789 1576.57,179.98 1575.19,180.309C1573.67,180.671 1571.94,180.854 1570.02,180.854C1558.42,180.854 1552.44,174.975 1552.1,163.225L1552.09,128.788Z" style="fill:white;fill-rule:nonzero;"/>
    </g>
    <g transform="matrix(4.16667,0,0,4.16667,0,2203.29)">
        <path d="M1292.13,138.072C1292.15,150.46 1296.27,156.654 1304.51,156.654C1312.66,156.615 1317.96,151.559 1320.39,141.485L1320.38,121.983C1318.21,119.491 1314.31,118.247 1308.67,118.247C1298.71,118.608 1293.2,125.213 1292.13,138.072M1331.66,117.377L1331.71,165.212C1331.6,166.91 1330.28,167.759 1327.75,167.759L1324.34,167.759C1321.81,167.759 1320.49,166.91 1320.39,165.212L1320.38,159.252C1317.31,164.202 1312.26,167.038 1305.22,167.759C1289.4,167.759 1281.48,157.898 1281.47,138.178C1283.16,118.786 1292.35,108.729 1309.03,108.007C1320.77,108.007 1328.31,111.132 1331.66,117.377" style="fill:white;fill-rule:nonzero;"/>
    </g>
    <g transform="matrix(4.16667,0,0,4.16667,0,2112.38)">
        <path d="M1223.66,110.78L1223.63,116.269C1223.63,118.079 1222.35,118.986 1219.78,118.986L1216.03,118.986C1213.5,118.986 1212.22,118.079 1212.22,116.269L1212.25,110.78C1212.24,108.931 1213.51,108.007 1216.04,108.007L1219.79,108.007C1222.36,108.007 1223.66,108.931 1223.66,110.78M1223.64,187.024C1223.53,188.727 1222.2,189.579 1219.66,189.579L1216.24,189.579C1213.71,189.579 1212.38,188.727 1212.28,187.024L1212.24,132.248C1212.35,130.544 1213.68,129.693 1216.21,129.693L1219.63,129.693C1222.17,129.693 1223.49,130.544 1223.59,132.248L1223.64,187.024Z" style="fill:white;fill-rule:nonzero;"/>
    </g>
    <g transform="matrix(4.16667,0,0,4.16667,0,2115.02)">
        <path d="M1435.5,188.576C1434.33,188.576 1433.26,187.924 1432.72,186.886C1431.22,183.946 1429.68,180.66 1428.12,177.029C1426.25,172.684 1424.41,168.092 1422.58,163.252C1420.75,158.413 1418.98,153.468 1417.26,148.419C1415.55,143.369 1413.95,138.453 1412.49,133.67C1411.02,128.888 1409.7,124.372 1408.51,120.123C1407.63,116.938 1406.79,113.726 1406.12,110.969C1405.97,110.343 1406.12,109.682 1406.52,109.177C1406.91,108.671 1407.52,108.376 1408.17,108.376L1415.9,108.376C1416.89,108.376 1417.75,109.063 1417.96,110.028C1418.36,111.801 1418.89,113.918 1419.55,116.379C1420.42,119.656 1421.44,123.286 1422.61,127.268C1423.77,131.251 1425.07,135.462 1426.52,139.901C1427.97,144.341 1429.47,148.771 1431.01,153.192C1432.55,157.612 1434.14,161.89 1435.78,166.025C1437.26,169.745 1438.7,173.164 1440.11,176.282C1440.4,176.911 1441.03,177.315 1441.72,177.315L1441.76,177.315C1442.44,177.315 1443.06,176.925 1443.35,176.312C1444.37,174.152 1445.5,171.504 1446.73,168.369C1448.16,164.729 1449.63,160.756 1451.16,156.45C1452.68,152.144 1454.21,147.666 1455.73,143.017C1457.26,138.367 1458.68,133.88 1459.99,129.555C1461.31,125.229 1462.47,121.218 1463.48,117.522C1464.27,114.615 1464.92,112.108 1465.42,110.002C1465.64,109.05 1466.49,108.376 1467.47,108.376L1475.29,108.376C1475.93,108.376 1476.54,108.67 1476.94,109.175C1477.34,109.68 1477.49,110.339 1477.34,110.965C1476.76,113.35 1476.03,116.181 1475.25,119.037C1474.17,123.019 1472.91,127.363 1471.48,132.07C1470.05,136.776 1468.49,141.683 1466.79,146.789C1465.1,151.896 1463.32,156.936 1461.48,161.909C1459.63,166.882 1457.72,171.665 1455.76,176.257C1454.1,180.152 1452.44,183.697 1450.79,186.892C1450.25,187.927 1449.18,188.575 1448.01,188.575C1444.88,188.576 1438.64,188.576 1435.5,188.576Z" style="fill:white;fill-rule:nonzero;"/>
    </g>
    <g transform="matrix(4.16667,0,0,4.16667,0,2198.52)">
        <path d="M1533,154.614L1526.48,151.603C1525.97,151.424 1525.52,151.33 1525.11,151.33C1524.5,151.33 1524.06,151.568 1523.82,152.046C1521.14,156.535 1516.83,158.791 1510.85,158.791C1502.03,158.791 1496.84,153.455 1495.27,142.793C1498.62,143.19 1501.93,143.391 1505.17,143.391C1522.27,142.591 1530.98,136.099 1531.35,123.932C1530.08,113.783 1523.42,108.594 1511.39,108.376C1494.35,108.738 1485.22,118.637 1484.05,138.071C1484.13,158.026 1493.06,168.178 1510.85,168.535C1521.79,168.313 1529.37,164.447 1533.59,156.924C1533.78,156.598 1533.88,156.267 1533.88,155.933C1533.88,155.427 1533.57,154.987 1533,154.614ZM1510.85,117.622C1517.19,117.622 1520.8,119.886 1521.62,124.375L1521.62,124.702C1521.62,128.872 1518.76,131.738 1513.04,133.294C1510.63,133.959 1508.2,134.29 1505.76,134.29C1502.3,134.29 1498.75,133.815 1495.09,132.874C1496.81,123.441 1502.06,118.365 1510.85,117.622Z" style="fill:white;"/>
    </g>
    <g transform="matrix(4.16667,0,0,4.16667,0,2198.52)">
        <path d="M1638.57,154.614L1632.04,151.603C1631.54,151.424 1631.08,151.33 1630.67,151.33C1630.06,151.33 1629.62,151.568 1629.38,152.046C1626.7,156.535 1622.39,158.791 1616.41,158.791C1607.59,158.791 1602.4,153.455 1600.83,142.793C1604.18,143.19 1607.49,143.391 1610.73,143.391C1627.83,142.591 1636.54,136.099 1636.92,123.932C1635.64,113.783 1628.99,108.594 1616.95,108.376C1599.91,108.738 1590.78,118.637 1589.61,138.071C1589.69,158.026 1598.62,168.178 1616.41,168.535C1627.35,168.313 1634.93,164.447 1639.16,156.924C1639.34,156.598 1639.44,156.267 1639.44,155.933C1639.44,155.427 1639.14,154.987 1638.57,154.614ZM1616.41,117.622C1622.75,117.622 1626.36,119.886 1627.18,124.375L1627.18,124.702C1627.18,128.872 1624.32,131.738 1618.6,133.294C1616.19,133.959 1613.76,134.29 1611.32,134.29C1607.86,134.29 1604.31,133.815 1600.65,132.874C1602.38,123.441 1607.62,118.365 1616.41,117.622Z" style="fill:white;"/>
    </g>
    <g transform="matrix(4.16667,0,0,4.16667,0,2208.06)">
        <path d="M1702.04,108.376L1698.73,108.376C1696.28,108.376 1695.02,109.204 1694.92,110.844L1694.92,163.786C1695.02,165.426 1696.28,166.246 1698.73,166.246L1702.04,166.246C1704.49,166.246 1705.77,165.426 1705.86,163.786L1705.86,110.844C1705.77,109.204 1704.49,108.376 1702.04,108.376" style="fill:white;"/>
    </g>
    <g transform="matrix(4.16667,0,0,4.16667,0,1836.51)">
        <path d="M1702.2,176.599L1698.58,176.599C1696.13,176.599 1694.92,177.486 1694.92,179.272L1694.92,184.577C1694.92,186.326 1696.13,187.195 1698.58,187.195L1702.2,187.195C1704.68,187.195 1705.92,186.326 1705.92,184.577L1705.92,179.272C1705.92,177.486 1704.68,176.599 1702.2,176.599" style="fill:white;"/>
    </g>
    <g transform="matrix(4.16667,0,0,4.16667,0,2208.06)">
        <path d="M1903.29,108.376L1899.98,108.376C1897.54,108.376 1896.27,109.204 1896.17,110.844L1896.17,163.786C1896.27,165.426 1897.54,166.246 1899.98,166.246L1903.29,166.246C1905.74,166.246 1907.02,165.426 1907.12,163.786L1907.12,110.844C1907.02,109.204 1905.74,108.376 1903.29,108.376" style="fill:white;"/>
    </g>
    <g transform="matrix(4.16667,0,0,4.16667,0,1836.51)">
        <path d="M1903.45,176.599L1899.83,176.599C1897.39,176.599 1896.17,177.486 1896.17,179.272L1896.17,184.577C1896.17,186.326 1897.39,187.195 1899.83,187.195L1903.45,187.195C1905.93,187.195 1907.18,186.326 1907.18,184.577L1907.18,179.272C1907.18,177.486 1905.93,176.599 1903.45,176.599" style="fill:white;"/>
    </g>
    <g transform="matrix(4.16667,0,0,4.16667,0,1793.81)">
        <path d="M1835.14,179.443L1832.21,177.321C1830.23,175.885 1828.2,176.616 1826.09,179.527L1819.84,188.168C1817.77,191.017 1817.73,193.146 1819.72,194.581L1822.65,196.704C1824.66,198.157 1826.69,197.47 1828.75,194.621L1835.01,185.979C1837.11,183.069 1837.15,180.896 1835.14,179.443" style="fill:white;"/>
    </g>
    <g transform="matrix(4.16667,0,0,4.16667,0,2198.52)">
        <path d="M1813.13,108.376C1796.36,109.101 1787.12,119.237 1785.42,138.765C1785.42,158.615 1793.36,168.535 1809.26,168.535C1816.34,167.803 1821.42,164.95 1824.5,159.982L1824.5,165.979C1824.61,167.679 1825.93,168.535 1828.47,168.535L1831.89,168.535C1834.44,168.535 1835.77,167.679 1835.88,165.979L1835.88,117.816C1832.5,111.519 1824.92,108.376 1813.13,108.376ZM1824.5,142.088C1822.07,152.23 1816.75,157.315 1808.55,157.346C1800.27,157.346 1796.15,151.116 1796.15,138.656C1797.19,125.714 1802.74,119.062 1812.74,118.694C1818.4,118.694 1822.32,119.949 1824.5,122.454L1824.5,142.088Z" style="fill:white;"/>
    </g>
    <g transform="matrix(4.16667,0,0,4.16667,0,2203.44)">
        <path d="M1679.22,108.376C1671.23,108.551 1665.98,111.485 1663.5,117.186L1663.5,110.992C1663.4,109.324 1662.1,108.482 1659.62,108.482L1656.09,108.482C1653.6,108.482 1652.31,109.324 1652.2,110.992L1652.2,164.852C1652.41,166.517 1653.77,167.355 1656.25,167.355L1659.62,167.355C1662.1,167.355 1663.4,166.517 1663.5,164.852L1663.5,133.32C1663.54,124.665 1667.37,120.145 1675.01,119.761C1677.26,119.537 1678.77,118.65 1679.55,117.083L1681.9,111.368C1682.03,110.929 1682.11,110.56 1682.11,110.25C1682.11,109.001 1681.15,108.376 1679.22,108.376" style="fill:white;"/>
    </g>
    <g transform="matrix(4.16667,0,0,4.16667,0,2203.44)">
        <path d="M1880.48,108.376C1872.48,108.551 1867.23,111.485 1864.75,117.186L1864.75,110.992C1864.65,109.324 1863.35,108.482 1860.87,108.482L1857.34,108.482C1854.85,108.482 1853.57,109.324 1853.45,110.992L1853.45,164.852C1853.66,166.517 1855.02,167.355 1857.5,167.355L1860.87,167.355C1863.35,167.355 1864.65,166.517 1864.75,164.852L1864.75,133.32C1864.79,124.665 1868.63,120.145 1876.26,119.761C1878.51,119.537 1880.02,118.65 1880.8,117.083L1883.15,111.368C1883.29,110.929 1883.36,110.56 1883.36,110.25C1883.36,109.001 1882.41,108.376 1880.48,108.376" style="fill:white;"/>
    </g>
    <g transform="matrix(4.16667,0,0,4.16667,0,2202.82)">
        <path d="M1749.02,108.376C1742.08,109.091 1737.08,111.907 1734.05,116.789L1734.05,110.955C1733.94,109.278 1732.82,108.437 1730.67,108.437L1726.25,108.437C1724.1,108.437 1722.99,109.278 1722.87,110.955L1722.87,164.992C1722.99,166.663 1724.29,167.504 1726.78,167.504L1730.15,167.504C1732.64,167.504 1733.94,166.663 1734.05,164.992L1734.05,134.374C1736.43,124.411 1741.67,119.399 1749.72,119.365C1757.5,119.365 1761.4,124.982 1761.4,136.197L1761.4,164.992C1761.48,166.663 1762.8,167.504 1765.3,167.504L1768.66,167.504C1771.16,167.504 1772.46,166.663 1772.57,164.992L1772.57,136.413L1772.46,136.413C1772.14,117.722 1764.34,108.376 1749.02,108.376" style="fill:white;"/>
    </g>
    <g transform="matrix(4.16667,0,0,4.16667,0,2198.52)">
        <path d="M1921.11,137.969C1921.11,133.428 1921.73,129.335 1922.97,125.691C1924.21,122.047 1926,118.937 1928.35,116.361C1930.69,113.785 1933.57,111.811 1936.99,110.437C1940.4,109.063 1944.29,108.376 1948.64,108.376C1952.11,108.376 1955.5,108.891 1958.8,109.922C1962.1,110.952 1965.03,112.641 1967.58,114.987C1970.14,117.334 1972.2,120.397 1973.77,124.174C1975.33,127.952 1976.11,132.569 1976.11,138.026C1976.11,142.949 1975.48,147.309 1974.22,151.105C1972.96,154.902 1971.16,158.089 1968.81,160.664C1966.47,163.24 1963.59,165.196 1960.17,166.531C1956.76,167.867 1952.91,168.535 1948.64,168.535C1944.36,168.535 1940.53,167.886 1937.13,166.589C1933.74,165.291 1930.85,163.355 1928.46,160.779C1926.08,158.203 1924.25,155.017 1922.99,151.22C1921.73,147.423 1921.11,143.006 1921.11,137.969ZM1931.87,138.026C1931.87,141.88 1932.28,145.162 1933.1,147.871C1933.92,150.581 1935.07,152.784 1936.56,154.483C1938.05,156.181 1939.82,157.411 1941.88,158.174C1943.94,158.938 1946.21,159.319 1948.69,159.319C1951.21,159.319 1953.49,158.919 1955.53,158.117C1957.58,157.316 1959.33,156.057 1960.8,154.339C1962.27,152.622 1963.4,150.419 1964.18,147.728C1964.96,145.038 1965.35,141.804 1965.35,138.026C1965.35,134.516 1964.94,131.472 1964.12,128.897C1963.3,126.321 1962.15,124.193 1960.66,122.514C1959.17,120.835 1957.4,119.586 1955.36,118.765C1953.32,117.945 1951.1,117.535 1948.69,117.535C1946.18,117.535 1943.89,117.954 1941.83,118.794C1939.77,119.633 1938,120.902 1936.53,122.6C1935.06,124.298 1933.92,126.426 1933.1,128.982C1932.28,131.539 1931.87,134.554 1931.87,138.026Z" style="fill:white;fill-rule:nonzero;"/>
    </g>
    <g transform="matrix(4.16667,0,0,4.16667,0,2203.29)">
        <path d="M1132.64,149.721C1132.38,161.171 1126.44,167.182 1114.84,167.759C1107.94,167.759 1102.52,165.772 1098.57,161.799C1097.45,160.789 1096.9,159.812 1096.91,158.874C1096.89,157.613 1097.81,156.531 1099.67,155.626C1102.29,154.472 1104.15,153.89 1105.23,153.89C1106.17,153.89 1106.92,154.183 1107.49,154.76C1108.98,156.964 1111.42,158.063 1114.82,158.063C1119.11,157.63 1121.25,155.117 1121.24,150.532C1121.19,146.491 1117.29,142.525 1109.56,138.641C1101.83,134.761 1097.88,129.73 1097.72,123.553C1097.97,114.057 1103.08,108.873 1113.07,108.007C1120.33,108.007 1125.68,110.177 1129.12,114.511C1129.59,115.156 1129.82,115.81 1129.81,116.46C1129.83,117.648 1129.08,118.841 1127.58,120.034C1125.53,121.189 1124.04,121.77 1123.1,121.77C1122.34,121.77 1121.72,121.499 1121.23,120.955C1119.78,118.752 1117.6,117.648 1114.71,117.648C1111.38,117.869 1109.66,119.584 1109.56,122.798C1109.58,125.833 1113.4,129.225 1121.01,132.982C1128.62,136.735 1132.5,142.317 1132.64,149.721" style="fill:white;fill-rule:nonzero;"/>
    </g>
    <g transform="matrix(4.16667,0,0,4.16667,0,2203.29)">
        <path d="M1074.62,137.883C1074.32,124.401 1069.5,117.657 1060.18,117.657C1050.85,117.657 1046.06,124.401 1045.78,137.883C1046.09,151.366 1050.9,158.109 1060.23,158.109C1069.55,158.109 1074.35,151.366 1074.62,137.883M1034.07,137.883C1034.27,118.184 1042.97,108.224 1060.16,108.007C1077.39,108.224 1086.11,118.184 1086.34,137.883C1086.13,157.587 1077.41,167.543 1060.19,167.759C1043,167.543 1034.29,157.587 1034.07,137.883" style="fill:white;fill-rule:nonzero;"/>
    </g>
    <g transform="matrix(4.16667,0,0,4.16667,0,2300.71)">
        <path d="M1157.73,110.715L1157.72,130.505C1159.88,132.961 1163.77,134.189 1169.37,134.189C1179.34,133.828 1184.86,127.213 1185.92,114.348C1185.91,101.95 1181.78,95.752 1173.54,95.752C1165.45,95.79 1160.18,100.778 1157.73,110.715M1146.36,88.814L1146.37,87.242C1146.48,85.542 1147.8,84.692 1150.34,84.692L1153.75,84.692C1156.28,84.692 1157.59,85.542 1157.7,87.242L1157.7,93.041C1160.78,88.159 1165.82,85.36 1172.83,84.637C1188.66,84.637 1196.58,94.507 1196.59,114.242C1194.9,133.645 1185.71,143.714 1169.02,144.436C1164.67,144.436 1160.91,144.02 1157.72,143.192L1157.77,165.255C1157.61,166.916 1156.29,167.749 1153.8,167.749L1150.38,167.749C1147.89,167.749 1146.57,166.916 1146.44,165.255L1146.43,135.166C1146.39,135.132 1146.36,135.094 1146.36,135.055L1146.32,88.814L1146.36,88.814Z" style="fill:white;fill-rule:nonzero;"/>
    </g>
    <g transform="matrix(4.16667,0,0,4.16667,0,-235.175)">
        <path d="M1038.1,614.846L1080.05,469.654L1256.2,469.638C1263.45,469.55 1269.63,464.694 1271.68,458.091L1291.86,391.355L1108.2,391.628C1108.2,391.628 1104.65,391.194 1103.08,394.018C1102.59,394.923 1100.18,399.226 1100.18,399.226C1100.18,399.226 1120.23,330.191 1149.09,330.191L1298.04,330.191C1305.31,330.191 1311.46,325.419 1313.58,318.864L1338.48,234.512L1156.63,234.232C1097.66,238.514 1054.61,287.481 1027.47,381.108L955.225,626.766L1022.36,626.766C1029.83,626.766 1036.17,621.703 1038.1,614.846" style="fill:white;fill-rule:nonzero;"/>
    </g>
    <g transform="matrix(4.16667,0,0,4.16667,0,-234.004)">
        <path d="M1469.82,474.389L1406.83,474.389C1406.83,474.389 1404.06,474.499 1403.34,474.499C1400.54,474.499 1397.4,479.556 1397.4,479.556L1451.86,355.036L1478.46,467.353C1478.52,467.648 1479.84,474.389 1469.82,474.389M1585.33,616.993L1493.84,234.231C1490.88,234.263 1445.49,234.231 1439.71,234.231C1428.26,234.231 1424.17,239.662 1421.71,244.597L1253.78,626.486L1319.61,626.486C1332.67,626.486 1334.92,620.759 1336.92,616.33L1375.33,529.557L1479.04,529.108C1491.41,529.108 1494.84,537.68 1494.84,537.68L1515.82,626.486L1571.2,626.486C1571.2,626.486 1587.62,626.486 1585.33,616.993" style="fill:white;fill-rule:nonzero;"/>
    </g>
    <g transform="matrix(4.16667,0,0,4.16667,0,-234.008)">
        <path d="M1980.24,234.232C1963.7,234.232 1954.95,234.232 1945.11,252.45L1818.04,486.917C1818.04,486.917 1816.36,489.885 1815.89,490.84C1813.35,495.929 1813.65,502.933 1813.65,502.933L1769.74,234.232L1705.88,234.232C1688.63,234.232 1676.04,234.232 1672.68,254.564L1601.99,626.486C1610.25,626.197 1645.42,626.486 1645.42,626.486C1675.18,626.486 1675.18,626.486 1678.87,606.421L1720.63,385.669L1758.89,621.162C1783.2,621.206 1761.1,621.206 1783.2,621.206L1795.35,621.206C1819.14,621.162 1819.14,621.162 1827.9,605.359L1945.73,387.252L1900.28,626.486L1945.92,626.486C1973.04,626.486 1973.04,626.486 1977.28,606.154L2048.01,234.232L1980.24,234.232Z" style="fill:white;fill-rule:nonzero;"/>
    </g>
    <g transform="matrix(4.16667,0,0,4.16667,0,0)">
        <path d="M408.29,773.145C346.429,773.145 288.051,758.435 236.565,732.382L293.413,732.382L325.191,582.478L334.712,538.289C334.508,538.311 332.165,538.499 329.564,538.744C282.258,544.386 249.87,558.32 225.392,583.722C193.682,616.632 180.307,660.667 174.197,692.694C164.275,684.923 154.773,676.665 145.704,667.964C154.053,635.036 169.423,596.07 198.805,565.579C236.662,526.29 290.915,511.684 383.261,511.684C383.261,511.684 571.82,511.696 571.968,511.696C591.992,511.696 599.06,511.696 612.881,492.278L745.176,318.737L505.285,317.678C436.161,321.272 369.751,326.109 298.84,416.771L239.398,492.915L295.652,288.472C200.247,307.319 165.308,332.803 138.172,437.625L98.503,612.963C56.503,553.125 31.876,480.539 31.876,402.278C31.876,197.458 200.401,31.412 408.29,31.412C470.572,31.412 529.308,46.329 581.052,72.714L432.345,72.199C388.749,71.672 341.374,72.174 297.59,131.739C297.59,131.739 209.315,249.456 168.587,320.656C192.699,286.273 247.147,265.51 301.199,263.428L577.122,263.374C577.122,263.374 577.169,263.371 577.173,263.371C586.888,263.371 594.841,263.371 604.328,250.998C604.334,250.992 644.958,195.41 680.77,146.415C745.163,212.963 784.701,303.072 784.701,402.278C784.701,607.105 616.176,773.145 408.29,773.145M699.683,120.535C719.365,93.606 734.245,73.248 734.245,73.248L642.753,72.928C576.403,26.989 495.547,0 408.29,0C182.798,0 0,180.106 0,402.278C0,497.288 33.447,584.589 89.352,653.418L71.401,732.769L134.984,732.769C135.668,728.176 136.495,717.896 138.514,704.206C148.318,712.719 158.539,720.77 169.147,728.333C168.964,729.973 168.798,731.352 168.644,732.382L174.929,732.382C241.075,777.863 321.513,804.556 408.29,804.556C633.779,804.556 816.58,624.45 816.58,402.278C816.58,292.556 771.973,193.114 699.683,120.535" style="fill:white;fill-rule:nonzero;"/>
    </g>
</svg>
