<?xml version="1.0" encoding="UTF-8" standalone="no"?>
<!DOCTYPE svg PUBLIC "-//W3C//DTD SVG 1.1//EN" "http://www.w3.org/Graphics/SVG/1.1/DTD/svg11.dtd">
<svg width="100%" height="100%" viewBox="0 0 1960 232" version="1.1" xmlns="http://www.w3.org/2000/svg" xmlns:xlink="http://www.w3.org/1999/xlink" xml:space="preserve" xmlns:serif="http://www.serif.com/" style="fill-rule:evenodd;clip-rule:evenodd;stroke-linejoin:round;stroke-miterlimit:2;">
    <g transform="matrix(1,0,0,1,-2847.79,-1277.86)">
        <g transform="matrix(1,0,0,1,2771,894)">
            <g id="Camada_3">
                <g>
                    <path d="M707.36,386.09L761.53,386.09C771.77,386.09 780.98,388.32 789.17,392.79C797.36,397.26 803.83,403.4 808.58,411.22C813.33,419.04 815.7,427.79 815.7,437.47L815.7,457.57C815.7,465.39 813.47,472.47 809,478.79C804.53,485.12 798.85,489.03 791.97,490.52C799.04,492.38 804.77,496.76 809.14,503.64C813.51,510.53 815.7,519.18 815.7,529.61L815.7,558.09C815.7,567.77 813.33,576.52 808.58,584.34C803.83,592.16 797.36,598.3 789.17,602.77C780.98,607.24 771.76,609.47 761.53,609.47L707.36,609.47L707.36,386.09ZM761.53,478.24C767.49,478.24 772.42,476.24 776.33,472.24C780.24,468.24 782.19,463.35 782.19,457.58L782.19,437.48C782.19,431.52 780.23,426.59 776.33,422.68C772.43,418.77 767.49,416.82 761.53,416.82L740.87,416.82L740.87,478.25L761.53,478.25L761.53,478.24ZM761.53,578.76C767.49,578.76 772.42,576.76 776.33,572.76C780.24,568.76 782.19,563.87 782.19,558.1L782.19,529.62C782.19,523.66 780.23,518.73 776.33,514.82C772.43,510.91 767.49,508.96 761.53,508.96L740.87,508.96L740.87,578.77L761.53,578.77L761.53,578.76Z" style="fill:rgb(251,226,0);fill-rule:nonzero;"/>
                    <path d="M850.04,605.29C841.85,601.01 835.38,595.19 830.63,587.84C825.88,580.49 823.51,572.25 823.51,563.13L823.51,432.44C823.51,423.32 825.88,415.08 830.63,407.73C835.38,400.38 841.84,394.56 850.04,390.28C858.23,386 867.44,383.86 877.68,383.86C887.92,383.86 897.13,386 905.32,390.28C913.51,394.56 919.98,400.38 924.73,407.73C929.48,415.09 931.85,423.32 931.85,432.44L931.85,563.12C931.85,572.24 929.48,580.48 924.73,587.83C919.98,595.19 913.51,601 905.32,605.28C897.13,609.56 887.91,611.7 877.68,611.7C867.45,611.71 858.23,609.57 850.04,605.29ZM862.89,575.97C866.8,579.32 871.73,581 877.69,581C883.65,581 888.58,579.32 892.49,575.97C896.4,572.62 898.35,568.34 898.35,563.13L898.35,432.44C898.35,427.23 896.39,422.95 892.49,419.6C888.59,416.25 883.65,414.57 877.69,414.57C871.73,414.57 866.8,416.25 862.89,419.6C858.98,422.95 857.03,427.23 857.03,432.44L857.03,563.12C857.03,568.34 858.98,572.62 862.89,575.97Z" style="fill:rgb(251,226,0);fill-rule:nonzero;"/>
                    <path d="M939.67,386.09L973.18,386.09L973.18,578.76L1026.23,578.76L1026.23,609.48L939.67,609.48L939.67,386.09Z" style="fill:rgb(251,226,0);fill-rule:nonzero;"/>
                    <path d="M1058.07,605.01C1049.88,600.54 1043.41,594.4 1038.66,586.58C1033.91,578.76 1031.54,570.01 1031.54,560.33L1031.54,519.84L1065.05,519.84L1065.05,560.33C1065.05,566.1 1067.05,570.99 1071.05,574.99C1075.05,579 1079.94,580.99 1085.71,580.99C1091.67,580.99 1096.6,578.99 1100.51,574.99C1104.42,570.99 1106.37,566.1 1106.37,560.33L1106.37,539.39C1106.37,533.43 1103.72,528.22 1098.41,523.75C1093.1,519.28 1084.77,513.79 1073.42,507.28C1064.67,502.44 1057.46,498.02 1051.78,494.02C1046.1,490.02 1041.31,485.32 1037.4,479.92C1033.49,474.52 1031.54,468.47 1031.54,461.77L1031.54,435.24C1031.54,425.56 1033.91,416.81 1038.66,408.99C1043.41,401.17 1049.87,395.03 1058.07,390.56C1066.26,386.09 1075.47,383.86 1085.71,383.86C1095.95,383.86 1105.16,386.09 1113.35,390.56C1121.54,395.03 1128.01,401.17 1132.76,408.99C1137.51,416.81 1139.88,425.56 1139.88,435.24L1139.88,470.42L1106.37,470.42L1106.37,435.24C1106.37,429.28 1104.41,424.35 1100.51,420.44C1096.61,416.53 1091.67,414.58 1085.71,414.58C1079.94,414.58 1075.05,416.54 1071.05,420.44C1067.05,424.35 1065.05,429.28 1065.05,435.24L1065.05,450.6C1065.05,456.74 1067.84,462.28 1073.43,467.21C1079.01,472.14 1087.58,477.96 1099.12,484.66C1107.87,489.69 1114.99,494.11 1120.48,497.92C1125.97,501.74 1130.58,506.21 1134.3,511.32C1138.02,516.44 1139.88,522.07 1139.88,528.21L1139.88,560.32C1139.88,570 1137.51,578.75 1132.76,586.57C1128.01,594.39 1121.54,600.53 1113.35,605C1105.16,609.47 1095.94,611.7 1085.71,611.7C1075.47,611.71 1066.26,609.48 1058.07,605.01Z" style="fill:rgb(251,226,0);fill-rule:nonzero;"/>
                    <path d="M1184,386.09L1217.51,386.09L1256.32,609.48L1222.81,609.48L1217.78,571.5L1183.71,571.5L1178.68,609.48L1145.17,609.48L1184,386.09ZM1213.6,540.79L1200.76,446.13L1187.92,540.79L1213.6,540.79Z" style="fill:rgb(251,226,0);fill-rule:nonzero;"/>
                    <path d="M1288.15,605.01C1279.96,600.54 1273.49,594.4 1268.74,586.58C1263.99,578.76 1261.62,570.01 1261.62,560.33L1261.62,519.84L1295.13,519.84L1295.13,560.33C1295.13,566.1 1297.13,570.99 1301.13,574.99C1305.13,579 1310.02,580.99 1315.79,580.99C1321.75,580.99 1326.68,578.99 1330.59,574.99C1334.5,570.99 1336.45,566.1 1336.45,560.33L1336.45,539.39C1336.45,533.43 1333.8,528.22 1328.49,523.75C1323.18,519.28 1314.85,513.79 1303.5,507.28C1294.75,502.44 1287.54,498.02 1281.86,494.02C1276.18,490.02 1271.39,485.32 1267.48,479.92C1263.57,474.52 1261.62,468.47 1261.62,461.77L1261.62,435.24C1261.62,425.56 1263.99,416.81 1268.74,408.99C1273.49,401.17 1279.95,395.03 1288.15,390.56C1296.34,386.09 1305.55,383.86 1315.79,383.86C1326.03,383.86 1335.24,386.09 1343.43,390.56C1351.62,395.03 1358.09,401.17 1362.84,408.99C1367.59,416.81 1369.96,425.56 1369.96,435.24L1369.96,470.42L1336.45,470.42L1336.45,435.24C1336.45,429.28 1334.49,424.35 1330.59,420.44C1326.69,416.53 1321.75,414.58 1315.79,414.58C1310.02,414.58 1305.13,416.54 1301.13,420.44C1297.13,424.35 1295.13,429.28 1295.13,435.24L1295.13,450.6C1295.13,456.74 1297.92,462.28 1303.51,467.21C1309.09,472.14 1317.66,477.96 1329.2,484.66C1337.95,489.69 1345.07,494.11 1350.56,497.92C1356.05,501.74 1360.66,506.21 1364.38,511.32C1368.1,516.44 1369.96,522.07 1369.96,528.21L1369.96,560.32C1369.96,570 1367.59,578.75 1362.84,586.57C1358.09,594.39 1351.62,600.53 1343.43,605C1335.24,609.47 1326.02,611.7 1315.79,611.7C1305.55,611.71 1296.34,609.48 1288.15,605.01Z" style="fill:rgb(251,226,0);fill-rule:nonzero;"/>
                </g>
                <g>
                    <path d="M76.79,388.25L120.12,388.25C128.37,388.25 135.83,390.04 142.49,393.6C149.15,397.17 154.35,402.04 158.11,408.23C161.86,414.42 163.74,421.27 163.74,428.77L163.74,502.49C163.74,509.99 161.86,516.84 158.11,523.03C154.36,529.22 149.15,534.1 142.49,537.66C135.83,541.22 128.37,543.01 120.12,543.01L91.98,543.01L91.98,613.35L76.79,613.35L76.79,388.25ZM120.12,529.22C128.18,529.22 134.94,526.69 140.38,521.62C145.82,516.56 148.54,510.18 148.54,502.49L148.54,428.77C148.54,421.08 145.82,414.7 140.38,409.64C134.94,404.58 128.18,402.04 120.12,402.04L91.98,402.04L91.98,529.22L120.12,529.22Z" style="fill:white;fill-rule:nonzero;"/>
                    <path d="M170.48,388.25L213.81,388.25C222.06,388.25 229.52,390.04 236.18,393.6C242.84,397.17 248.04,402.04 251.8,408.23C255.55,414.42 257.43,421.27 257.43,428.77L257.43,475.19C257.43,485.13 254.48,493.53 248.57,500.37C242.66,507.22 235.21,511.58 226.2,513.45L262.5,613.33L245.62,613.33L211,515.99L185.68,515.99L185.68,613.34L170.49,613.34L170.49,388.25L170.48,388.25ZM213.81,502.21C221.87,502.21 228.63,499.63 234.07,494.47C239.51,489.31 242.23,482.89 242.23,475.2L242.23,428.78C242.23,421.09 239.51,414.71 234.07,409.65C228.63,404.59 221.87,402.05 213.81,402.05L185.67,402.05L185.67,502.21L213.81,502.21Z" style="fill:white;fill-rule:nonzero;"/>
                    <path d="M287.1,610.39C280.44,606.92 275.23,602.19 271.48,596.18C267.73,590.18 265.85,583.43 265.85,575.92L265.85,425.68C265.85,418.18 267.72,411.43 271.48,405.42C275.23,399.42 280.44,394.68 287.1,391.21C293.76,387.74 301.12,386 309.19,386C317.44,386 324.9,387.74 331.56,391.21C338.22,394.68 343.42,399.42 347.18,405.42C350.93,411.43 352.81,418.18 352.81,425.68L352.81,575.93C352.81,583.43 350.93,590.19 347.18,596.19C343.43,602.2 338.22,606.93 331.56,610.4C324.9,613.87 317.44,615.61 309.19,615.61C301.12,615.59 293.76,613.86 287.1,610.39ZM289.07,594.49C294.42,599.37 301.12,601.81 309.19,601.81C317.44,601.81 324.24,599.37 329.59,594.49C334.94,589.61 337.61,583.42 337.61,575.92L337.61,425.68C337.61,418.18 334.94,411.99 329.59,407.11C324.24,402.23 317.44,399.79 309.19,399.79C301.12,399.79 294.42,402.23 289.07,407.11C283.72,411.99 281.05,418.18 281.05,425.68L281.05,575.93C281.05,583.43 283.73,589.62 289.07,594.49Z" style="fill:white;fill-rule:nonzero;"/>
                    <path d="M358.14,388.25L373.9,388.25L403.44,583.52L433.26,388.25L449.02,388.25L411.04,613.34L395.85,613.34L358.14,388.25Z" style="fill:white;fill-rule:nonzero;"/>
                    <path d="M462.81,388.25L478,388.25L515.42,613.34L500.23,613.34L491.79,557.91L449.3,557.91L440.86,613.34L425.67,613.34L462.81,388.25ZM489.82,544.13L470.41,416.95L451.28,544.13L489.82,544.13Z" style="fill:white;fill-rule:nonzero;"/>
                </g>
                <g>
                    <path d="M565.02,444.32L589.77,444.32C594.48,444.32 598.72,445.34 602.47,447.37C606.22,449.41 609.17,452.17 611.31,455.65C613.45,459.13 614.52,463.07 614.52,467.46L614.68,549.75C614.68,554.04 613.61,557.95 611.47,561.48C609.32,565.02 606.35,567.8 602.55,569.84C598.75,571.88 594.49,572.89 589.77,572.89L565.02,572.89L565.02,444.32ZM589.77,565.03C594.38,565.03 598.23,563.58 601.34,560.69C604.45,557.8 606,554.16 606,549.76L605.84,467.47C605.62,463.08 603.99,459.43 600.94,456.54C597.89,453.65 594.11,452.2 589.61,452.2L573.7,452.2L573.7,565.03L589.77,565.03Z" style="fill:white;fill-rule:nonzero;"/>
                    <path d="M619.18,444.32L659.52,444.32L659.52,452.2L627.86,452.2L627.86,502.19L659.52,502.19L659.52,510.23L627.86,510.23L627.86,565.04L659.52,565.04L659.52,572.92L619.18,572.92L619.18,444.32Z" style="fill:white;fill-rule:nonzero;"/>
                </g>
                <g>
                    <path d="M1465.56,602.63L1489.66,519.22L1590.86,519.21C1595.02,519.16 1598.57,516.37 1599.75,512.58L1611.35,474.24L1505.84,474.4C1505.84,474.4 1503.8,474.15 1502.9,475.77C1502.62,476.29 1501.24,478.76 1501.24,478.76C1501.24,478.76 1512.76,439.1 1529.34,439.1L1614.91,439.1C1619.09,439.1 1622.62,436.36 1623.84,432.59L1638.14,384.13L1533.67,383.97C1499.79,386.43 1475.06,414.56 1459.47,468.35L1417.97,609.48L1456.54,609.48C1460.81,609.48 1464.44,606.57 1465.56,602.63Z" style="fill:white;fill-rule:nonzero;"/>
                    <path d="M1779.93,604.03L1727.37,384.14C1725.67,384.16 1699.59,384.14 1696.27,384.14C1689.69,384.14 1687.34,387.26 1685.93,390.09L1589.46,609.48L1627.28,609.48C1634.78,609.48 1636.07,606.19 1637.22,603.65L1659.29,553.8L1718.87,553.54C1725.98,553.54 1727.95,558.47 1727.95,558.47L1740,609.49L1771.82,609.49C1771.81,609.48 1781.24,609.48 1779.93,604.03ZM1713.57,522.1L1677.38,522.1C1677.38,522.1 1675.79,522.16 1675.38,522.16C1673.77,522.16 1671.97,525.06 1671.97,525.06L1703.25,453.53L1718.53,518.05C1718.57,518.23 1719.32,522.1 1713.57,522.1Z" style="fill:white;fill-rule:nonzero;"/>
                    <path d="M1996.94,384.14C1987.44,384.14 1982.41,384.14 1977.68,394.61L1916.46,529.31C1916.46,529.31 1915.65,531.01 1915.42,531.56C1914.22,534.48 1914.74,538.51 1914.74,538.51L1876.01,384.15L1839.33,384.15C1829.42,384.15 1822.18,384.15 1821.28,395.83L1799.36,609.49C1804.09,609.32 1824.31,609.49 1824.31,609.49C1841.41,609.49 1841.41,609.49 1842.51,597.96L1855.41,471.14L1889.23,606.43C1903.2,606.46 1890.5,606.46 1903.2,606.46L1910.18,606.46C1923.84,606.43 1923.84,606.43 1928.08,597.36L1984.81,472.06L1970.72,609.5L1996.94,609.5C2012.52,609.5 2012.52,609.5 2013.93,597.82L2035.87,384.16C2018.94,384.14 1996.94,384.14 1996.94,384.14Z" style="fill:white;fill-rule:nonzero;"/>
                </g>
            </g>
        </g>
    </g>
</svg>
