<?xml version="1.0" encoding="UTF-8" standalone="no"?>
<!DOCTYPE svg PUBLIC "-//W3C//DTD SVG 1.1//EN" "http://www.w3.org/Graphics/SVG/1.1/DTD/svg11.dtd">
<svg width="100%" height="100%" viewBox="0 0 854 726" version="1.1" xmlns="http://www.w3.org/2000/svg" xmlns:xlink="http://www.w3.org/1999/xlink" xml:space="preserve" xmlns:serif="http://www.serif.com/" style="fill-rule:evenodd;clip-rule:evenodd;stroke-linejoin:round;stroke-miterlimit:2;">
    <g transform="matrix(1,0,0,1,-1091.03,-3799.05)">
        <g transform="matrix(1,0,0,1,2771,894)">
            <g id="Camada_4">
                <g>
                    <path d="M-1397.01,3623.66L-1372.91,3540.25L-1271.71,3540.24C-1267.55,3540.19 -1264,3537.4 -1262.82,3533.6L-1251.22,3495.26L-1356.73,3495.42C-1356.73,3495.42 -1358.77,3495.17 -1359.67,3496.79C-1359.95,3497.31 -1361.33,3499.78 -1361.33,3499.78C-1361.33,3499.78 -1349.81,3460.12 -1333.23,3460.12L-1247.66,3460.12C-1243.48,3460.12 -1239.95,3457.38 -1238.73,3453.61L-1224.43,3405.15L-1328.9,3404.99C-1362.78,3407.45 -1387.51,3435.58 -1403.1,3489.37L-1444.6,3630.5L-1406.03,3630.5C-1401.76,3630.51 -1398.12,3627.6 -1397.01,3623.66Z" style="fill:white;fill-rule:nonzero;"/>
                    <path d="M-1082.64,3625.05L-1135.2,3405.16C-1136.9,3405.18 -1162.98,3405.16 -1166.3,3405.16C-1172.88,3405.16 -1175.23,3408.28 -1176.64,3411.11L-1273.11,3630.5L-1235.29,3630.5C-1227.79,3630.5 -1226.5,3627.21 -1225.35,3624.67L-1203.28,3574.82L-1143.7,3574.56C-1136.59,3574.56 -1134.62,3579.49 -1134.62,3579.49L-1122.57,3630.51L-1090.75,3630.51C-1090.76,3630.51 -1081.32,3630.51 -1082.64,3625.05ZM-1148.99,3543.13L-1185.18,3543.13C-1185.18,3543.13 -1186.77,3543.19 -1187.18,3543.19C-1188.79,3543.19 -1190.59,3546.09 -1190.59,3546.09L-1159.31,3474.56L-1144.03,3539.08C-1144,3539.26 -1143.24,3543.13 -1148.99,3543.13Z" style="fill:white;fill-rule:nonzero;"/>
                    <path d="M-865.63,3405.16C-875.13,3405.16 -880.16,3405.16 -884.89,3415.63L-946.11,3550.33C-946.11,3550.33 -946.92,3552.03 -947.15,3552.58C-948.35,3555.5 -947.83,3559.53 -947.83,3559.53L-986.56,3405.17L-1023.24,3405.17C-1033.15,3405.17 -1040.39,3405.17 -1041.29,3416.85L-1063.21,3630.51C-1058.48,3630.34 -1038.26,3630.51 -1038.26,3630.51C-1021.16,3630.51 -1021.16,3630.51 -1020.06,3618.98L-1007.16,3492.16L-973.34,3627.45C-959.37,3627.48 -972.07,3627.48 -959.37,3627.48L-952.39,3627.48C-938.73,3627.45 -938.73,3627.45 -934.49,3618.38L-877.76,3493.08L-891.85,3630.52L-865.63,3630.52C-850.05,3630.52 -850.05,3630.52 -848.64,3618.84L-826.7,3405.18C-843.63,3405.16 -865.63,3405.16 -865.63,3405.16Z" style="fill:white;fill-rule:nonzero;"/>
                </g>
                <g>
                    <path d="M-1493.21,3157.15L-1439.04,3157.15C-1428.8,3157.15 -1419.59,3159.38 -1411.4,3163.85C-1403.21,3168.32 -1396.74,3174.46 -1391.99,3182.28C-1387.24,3190.1 -1384.87,3198.85 -1384.87,3208.53L-1384.87,3228.63C-1384.87,3236.45 -1387.1,3243.53 -1391.57,3249.85C-1396.04,3256.18 -1401.72,3260.09 -1408.6,3261.58C-1401.53,3263.44 -1395.8,3267.82 -1391.43,3274.7C-1387.06,3281.59 -1384.87,3290.25 -1384.87,3300.67L-1384.87,3329.15C-1384.87,3338.83 -1387.24,3347.58 -1391.99,3355.4C-1396.74,3363.22 -1403.21,3369.36 -1411.4,3373.83C-1419.59,3378.3 -1428.81,3380.53 -1439.04,3380.53L-1493.21,3380.53L-1493.21,3157.15ZM-1439.03,3249.3C-1433.07,3249.3 -1428.14,3247.3 -1424.23,3243.3C-1420.32,3239.3 -1418.37,3234.41 -1418.37,3228.64L-1418.37,3208.54C-1418.37,3202.58 -1420.33,3197.65 -1424.23,3193.74C-1428.13,3189.83 -1433.07,3187.88 -1439.03,3187.88L-1459.69,3187.88L-1459.69,3249.31L-1439.03,3249.31L-1439.03,3249.3ZM-1439.03,3349.82C-1433.07,3349.82 -1428.14,3347.82 -1424.23,3343.82C-1420.32,3339.82 -1418.37,3334.93 -1418.37,3329.16L-1418.37,3300.68C-1418.37,3294.72 -1420.33,3289.79 -1424.23,3285.88C-1428.14,3281.97 -1433.07,3280.02 -1439.03,3280.02L-1459.69,3280.02L-1459.69,3349.83L-1439.03,3349.83L-1439.03,3349.82Z" style="fill:rgb(251,226,0);fill-rule:nonzero;"/>
                    <path d="M-1350.52,3376.35C-1358.71,3372.07 -1365.18,3366.25 -1369.93,3358.9C-1374.68,3351.55 -1377.05,3343.31 -1377.05,3334.19L-1377.05,3203.5C-1377.05,3194.38 -1374.68,3186.14 -1369.93,3178.79C-1365.18,3171.44 -1358.72,3165.62 -1350.52,3161.34C-1342.33,3157.06 -1333.12,3154.92 -1322.88,3154.92C-1312.64,3154.92 -1303.43,3157.06 -1295.24,3161.34C-1287.05,3165.62 -1280.58,3171.44 -1275.83,3178.79C-1271.08,3186.15 -1268.71,3194.38 -1268.71,3203.5L-1268.71,3334.18C-1268.71,3343.3 -1271.08,3351.54 -1275.83,3358.89C-1280.58,3366.25 -1287.05,3372.06 -1295.24,3376.34C-1303.43,3380.62 -1312.65,3382.76 -1322.88,3382.76C-1333.12,3382.77 -1342.33,3380.63 -1350.52,3376.35ZM-1337.68,3347.03C-1333.77,3350.38 -1328.84,3352.06 -1322.88,3352.06C-1316.92,3352.06 -1311.99,3350.38 -1308.08,3347.03C-1304.17,3343.68 -1302.22,3339.4 -1302.22,3334.19L-1302.22,3203.5C-1302.22,3198.29 -1304.18,3194.01 -1308.08,3190.66C-1311.99,3187.31 -1316.92,3185.63 -1322.88,3185.63C-1328.84,3185.63 -1333.77,3187.31 -1337.68,3190.66C-1341.59,3194.01 -1343.54,3198.3 -1343.54,3203.5L-1343.54,3334.18C-1343.54,3339.4 -1341.59,3343.68 -1337.68,3347.03Z" style="fill:rgb(251,226,0);fill-rule:nonzero;"/>
                    <path d="M-1260.89,3157.15L-1227.38,3157.15L-1227.38,3349.82L-1174.33,3349.82L-1174.33,3380.54L-1260.89,3380.54L-1260.89,3157.15Z" style="fill:rgb(251,226,0);fill-rule:nonzero;"/>
                    <path d="M-1142.5,3376.07C-1150.69,3371.6 -1157.16,3365.46 -1161.91,3357.64C-1166.66,3349.82 -1169.03,3341.07 -1169.03,3331.39L-1169.03,3290.9L-1135.52,3290.9L-1135.52,3331.39C-1135.52,3337.16 -1133.52,3342.05 -1129.52,3346.05C-1125.52,3350.06 -1120.63,3352.05 -1114.86,3352.05C-1108.9,3352.05 -1103.97,3350.05 -1100.06,3346.05C-1096.15,3342.05 -1094.2,3337.16 -1094.2,3331.39L-1094.2,3310.45C-1094.2,3304.49 -1096.85,3299.28 -1102.16,3294.81C-1107.47,3290.34 -1115.8,3284.85 -1127.15,3278.34C-1135.9,3273.5 -1143.11,3269.08 -1148.79,3265.08C-1154.47,3261.08 -1159.26,3256.38 -1163.17,3250.98C-1167.08,3245.58 -1169.03,3239.53 -1169.03,3232.83L-1169.03,3206.3C-1169.03,3196.62 -1166.66,3187.87 -1161.91,3180.05C-1157.16,3172.23 -1150.7,3166.09 -1142.5,3161.62C-1134.31,3157.15 -1125.1,3154.92 -1114.86,3154.92C-1104.62,3154.92 -1095.41,3157.15 -1087.22,3161.62C-1079.03,3166.09 -1072.56,3172.23 -1067.81,3180.05C-1063.06,3187.87 -1060.69,3196.62 -1060.69,3206.3L-1060.69,3241.48L-1094.2,3241.48L-1094.2,3206.3C-1094.2,3200.34 -1096.16,3195.41 -1100.06,3191.5C-1103.96,3187.59 -1108.9,3185.64 -1114.86,3185.64C-1120.63,3185.64 -1125.52,3187.59 -1129.52,3191.5C-1133.52,3195.41 -1135.52,3200.34 -1135.52,3206.3L-1135.52,3221.66C-1135.52,3227.8 -1132.73,3233.34 -1127.14,3238.27C-1121.56,3243.2 -1112.99,3249.02 -1101.45,3255.72C-1092.7,3260.75 -1085.58,3265.17 -1080.09,3268.98C-1074.6,3272.8 -1069.99,3277.27 -1066.27,3282.38C-1062.55,3287.5 -1060.69,3293.13 -1060.69,3299.27L-1060.69,3331.38C-1060.69,3341.06 -1063.06,3349.81 -1067.81,3357.63C-1072.56,3365.45 -1079.03,3371.59 -1087.22,3376.06C-1095.41,3380.53 -1104.63,3382.76 -1114.86,3382.76C-1125.09,3382.77 -1134.31,3380.54 -1142.5,3376.07Z" style="fill:rgb(251,226,0);fill-rule:nonzero;"/>
                    <path d="M-1016.57,3157.15L-983.06,3157.15L-944.25,3380.54L-977.76,3380.54L-982.79,3342.56L-1016.86,3342.56L-1021.89,3380.54L-1055.4,3380.54L-1016.57,3157.15ZM-986.97,3311.85L-999.81,3217.19L-1012.65,3311.85L-986.97,3311.85Z" style="fill:rgb(251,226,0);fill-rule:nonzero;"/>
                    <path d="M-912.42,3376.07C-920.61,3371.6 -927.08,3365.46 -931.83,3357.64C-936.58,3349.82 -938.95,3341.07 -938.95,3331.39L-938.95,3290.9L-905.44,3290.9L-905.44,3331.39C-905.44,3337.16 -903.44,3342.05 -899.44,3346.05C-895.44,3350.06 -890.55,3352.05 -884.78,3352.05C-878.82,3352.05 -873.89,3350.05 -869.98,3346.05C-866.07,3342.05 -864.12,3337.16 -864.12,3331.39L-864.12,3310.45C-864.12,3304.49 -866.77,3299.28 -872.08,3294.81C-877.39,3290.34 -885.72,3284.85 -897.07,3278.34C-905.82,3273.5 -913.03,3269.08 -918.71,3265.08C-924.39,3261.08 -929.18,3256.38 -933.09,3250.98C-937,3245.58 -938.95,3239.53 -938.95,3232.83L-938.95,3206.3C-938.95,3196.62 -936.58,3187.87 -931.83,3180.05C-927.08,3172.23 -920.62,3166.09 -912.42,3161.62C-904.23,3157.15 -895.02,3154.92 -884.78,3154.92C-874.54,3154.92 -865.33,3157.15 -857.14,3161.62C-848.95,3166.09 -842.48,3172.23 -837.73,3180.05C-832.98,3187.87 -830.61,3196.62 -830.61,3206.3L-830.61,3241.48L-864.12,3241.48L-864.12,3206.3C-864.12,3200.34 -866.08,3195.41 -869.98,3191.5C-873.88,3187.59 -878.82,3185.64 -884.78,3185.64C-890.55,3185.64 -895.44,3187.59 -899.44,3191.5C-903.44,3195.41 -905.44,3200.34 -905.44,3206.3L-905.44,3221.66C-905.44,3227.8 -902.65,3233.34 -897.06,3238.27C-891.48,3243.2 -882.91,3249.02 -871.37,3255.72C-862.62,3260.75 -855.5,3265.17 -850.01,3268.98C-844.52,3272.8 -839.91,3277.27 -836.19,3282.38C-832.47,3287.5 -830.61,3293.13 -830.61,3299.27L-830.61,3331.38C-830.61,3341.06 -832.98,3349.81 -837.73,3357.63C-842.48,3365.45 -848.95,3371.59 -857.14,3376.06C-865.33,3380.53 -874.55,3382.76 -884.78,3382.76C-895.01,3382.77 -904.23,3380.54 -912.42,3376.07Z" style="fill:rgb(251,226,0);fill-rule:nonzero;"/>
                </g>
                <g>
                    <path d="M-1679.97,2907.31L-1636.64,2907.31C-1628.39,2907.31 -1620.93,2909.1 -1614.27,2912.66C-1607.61,2916.23 -1602.41,2921.1 -1598.65,2927.29C-1594.9,2933.48 -1593.02,2940.33 -1593.02,2947.83L-1593.02,3021.55C-1593.02,3029.05 -1594.9,3035.9 -1598.65,3042.09C-1602.4,3048.28 -1607.61,3053.16 -1614.27,3056.72C-1620.93,3060.28 -1628.39,3062.07 -1636.64,3062.07L-1664.77,3062.07L-1664.77,3132.41L-1679.96,3132.41L-1679.96,2907.31L-1679.97,2907.31ZM-1636.65,3048.28C-1628.59,3048.28 -1621.83,3045.75 -1616.39,3040.68C-1610.95,3035.62 -1608.23,3029.24 -1608.23,3021.55L-1608.23,2947.83C-1608.23,2940.14 -1610.95,2933.76 -1616.39,2928.7C-1621.83,2923.64 -1628.59,2921.1 -1636.65,2921.1L-1664.78,2921.1L-1664.78,3048.28L-1636.65,3048.28Z" style="fill:white;fill-rule:nonzero;"/>
                    <path d="M-1586.28,2907.31L-1542.95,2907.31C-1534.7,2907.31 -1527.24,2909.1 -1520.58,2912.66C-1513.92,2916.23 -1508.72,2921.1 -1504.96,2927.29C-1501.21,2933.48 -1499.33,2940.33 -1499.33,2947.83L-1499.33,2994.25C-1499.33,3004.19 -1502.28,3012.59 -1508.19,3019.43C-1514.1,3026.28 -1521.55,3030.64 -1530.56,3032.51L-1494.27,3132.39L-1511.15,3132.39L-1545.76,3035.04L-1571.08,3035.04L-1571.08,3132.39L-1586.27,3132.39L-1586.27,2907.31L-1586.28,2907.31ZM-1542.96,3021.26C-1534.9,3021.26 -1528.14,3018.68 -1522.7,3013.52C-1517.26,3008.36 -1514.54,3001.94 -1514.54,2994.25L-1514.54,2947.83C-1514.54,2940.14 -1517.26,2933.76 -1522.7,2928.7C-1528.14,2923.64 -1534.9,2921.1 -1542.96,2921.1L-1571.09,2921.1L-1571.09,3021.26L-1542.96,3021.26Z" style="fill:white;fill-rule:nonzero;"/>
                    <path d="M-1469.66,3129.45C-1476.32,3125.98 -1481.53,3121.25 -1485.28,3115.24C-1489.03,3109.24 -1490.91,3102.49 -1490.91,3094.98L-1490.91,2944.73C-1490.91,2937.23 -1489.04,2930.48 -1485.28,2924.47C-1481.53,2918.47 -1476.32,2913.73 -1469.66,2910.26C-1463,2906.79 -1455.64,2905.05 -1447.57,2905.05C-1439.32,2905.05 -1431.86,2906.79 -1425.2,2910.26C-1418.54,2913.73 -1413.34,2918.47 -1409.58,2924.47C-1405.83,2930.48 -1403.95,2937.23 -1403.95,2944.73L-1403.95,3094.98C-1403.95,3102.48 -1405.83,3109.24 -1409.58,3115.24C-1413.34,3121.25 -1418.54,3125.98 -1425.2,3129.45C-1431.86,3132.92 -1439.32,3134.66 -1447.57,3134.66C-1455.64,3134.65 -1463.01,3132.92 -1469.66,3129.45ZM-1467.69,3113.55C-1462.34,3118.43 -1455.64,3120.87 -1447.57,3120.87C-1439.32,3120.87 -1432.52,3118.43 -1427.17,3113.55C-1421.82,3108.67 -1419.15,3102.48 -1419.15,3094.98L-1419.15,2944.73C-1419.15,2937.23 -1421.82,2931.04 -1427.17,2926.16C-1432.52,2921.28 -1439.32,2918.84 -1447.57,2918.84C-1455.64,2918.84 -1462.34,2921.28 -1467.69,2926.16C-1473.04,2931.04 -1475.71,2937.23 -1475.71,2944.73L-1475.71,3094.98C-1475.71,3102.49 -1473.04,3108.68 -1467.69,3113.55Z" style="fill:white;fill-rule:nonzero;"/>
                    <path d="M-1398.62,2907.31L-1382.86,2907.31L-1353.32,3102.58L-1323.5,2907.31L-1307.74,2907.31L-1345.72,3132.4L-1360.91,3132.4L-1398.62,2907.31Z" style="fill:white;fill-rule:nonzero;"/>
                    <path d="M-1293.95,2907.31L-1278.76,2907.31L-1241.34,3132.4L-1256.53,3132.4L-1264.97,3076.97L-1307.45,3076.97L-1315.89,3132.4L-1331.08,3132.4L-1293.95,2907.31ZM-1266.94,3063.19L-1286.35,2936.01L-1305.48,3063.19L-1266.94,3063.19Z" style="fill:white;fill-rule:nonzero;"/>
                </g>
                <g>
                    <path d="M-1216.75,2963.38L-1192,2963.38C-1187.29,2963.38 -1183.05,2964.4 -1179.3,2966.43C-1175.55,2968.47 -1172.6,2971.23 -1170.46,2974.71C-1168.32,2978.19 -1167.25,2982.13 -1167.25,2986.52L-1167.09,3068.81C-1167.09,3073.1 -1168.16,3077.01 -1170.3,3080.54C-1172.45,3084.08 -1175.42,3086.86 -1179.22,3088.9C-1183.02,3090.94 -1187.28,3091.95 -1192,3091.95L-1216.75,3091.95L-1216.75,2963.38ZM-1192,3084.09C-1187.39,3084.09 -1183.54,3082.64 -1180.43,3079.75C-1177.32,3076.86 -1175.77,3073.22 -1175.77,3068.82L-1175.93,2986.53C-1176.15,2982.14 -1177.78,2978.49 -1180.83,2975.6C-1183.88,2972.71 -1187.66,2971.26 -1192.16,2971.26L-1208.07,2971.26L-1208.07,3084.09L-1192,3084.09Z" style="fill:white;fill-rule:nonzero;"/>
                    <path d="M-1162.59,2963.38L-1122.25,2963.38L-1122.25,2971.26L-1153.91,2971.26L-1153.91,3021.25L-1122.25,3021.25L-1122.25,3029.29L-1153.91,3029.29L-1153.91,3084.1L-1122.25,3084.1L-1122.25,3091.98L-1162.59,3091.98L-1162.59,2963.38Z" style="fill:white;fill-rule:nonzero;"/>
                </g>
            </g>
        </g>
    </g>
</svg>
