<?xml version="1.0" encoding="UTF-8" standalone="no"?>
<!DOCTYPE svg PUBLIC "-//W3C//DTD SVG 1.1//EN" "http://www.w3.org/Graphics/SVG/1.1/DTD/svg11.dtd">
<svg width="100%" height="100%" viewBox="0 0 914 521" version="1.1" xmlns="http://www.w3.org/2000/svg" xmlns:xlink="http://www.w3.org/1999/xlink" xml:space="preserve" xmlns:serif="http://www.serif.com/" style="fill-rule:evenodd;clip-rule:evenodd;stroke-linejoin:round;stroke-miterlimit:2;">
    <g transform="matrix(1,0,0,1,-1169.67,-2509.59)">
        <g transform="matrix(1,0,0,1,2771,894)">
            <g id="Camada_5">
                <g>
                    <path d="M-1350.71,1617.82L-1296.54,1617.82C-1286.3,1617.82 -1277.09,1620.05 -1268.9,1624.52C-1260.71,1628.99 -1254.24,1635.13 -1249.49,1642.95C-1244.74,1650.77 -1242.37,1659.52 -1242.37,1669.2L-1242.37,1689.3C-1242.37,1697.12 -1244.6,1704.2 -1249.07,1710.52C-1253.54,1716.85 -1259.22,1720.76 -1266.1,1722.25C-1259.03,1724.11 -1253.3,1728.49 -1248.93,1735.37C-1244.56,1742.26 -1242.37,1750.92 -1242.37,1761.34L-1242.37,1789.82C-1242.37,1799.5 -1244.74,1808.25 -1249.49,1816.07C-1254.24,1823.89 -1260.71,1830.03 -1268.9,1834.5C-1277.09,1838.97 -1286.31,1841.2 -1296.54,1841.2L-1350.71,1841.2L-1350.71,1617.82ZM-1296.53,1709.96C-1290.57,1709.96 -1285.64,1707.96 -1281.73,1703.96C-1277.82,1699.96 -1275.87,1695.07 -1275.87,1689.3L-1275.87,1669.2C-1275.87,1663.24 -1277.83,1658.31 -1281.73,1654.4C-1285.63,1650.49 -1290.57,1648.54 -1296.53,1648.54L-1317.19,1648.54L-1317.19,1709.97L-1296.53,1709.97L-1296.53,1709.96ZM-1296.53,1810.49C-1290.57,1810.49 -1285.64,1808.49 -1281.73,1804.49C-1277.82,1800.49 -1275.87,1795.6 -1275.87,1789.83L-1275.87,1761.35C-1275.87,1755.39 -1277.83,1750.46 -1281.73,1746.55C-1285.64,1742.64 -1290.57,1740.69 -1296.53,1740.69L-1317.19,1740.69L-1317.19,1810.5L-1296.53,1810.5L-1296.53,1810.49Z" style="fill:rgb(251,226,0);fill-rule:nonzero;"/>
                    <path d="M-1208.02,1837.02C-1216.21,1832.74 -1222.68,1826.92 -1227.43,1819.57C-1232.18,1812.22 -1234.55,1803.98 -1234.55,1794.86L-1234.55,1664.18C-1234.55,1655.06 -1232.18,1646.82 -1227.43,1639.47C-1222.68,1632.12 -1216.22,1626.3 -1208.02,1622.02C-1199.83,1617.74 -1190.62,1615.6 -1180.38,1615.6C-1170.14,1615.6 -1160.93,1617.74 -1152.74,1622.02C-1144.55,1626.3 -1138.08,1632.12 -1133.33,1639.47C-1128.58,1646.83 -1126.21,1655.06 -1126.21,1664.18L-1126.21,1794.86C-1126.21,1803.98 -1128.58,1812.22 -1133.33,1819.57C-1138.08,1826.93 -1144.55,1832.74 -1152.74,1837.02C-1160.93,1841.3 -1170.15,1843.44 -1180.38,1843.44C-1190.62,1843.44 -1199.83,1841.3 -1208.02,1837.02ZM-1195.18,1807.7C-1191.27,1811.05 -1186.34,1812.73 -1180.38,1812.73C-1174.42,1812.73 -1169.49,1811.05 -1165.58,1807.7C-1161.67,1804.35 -1159.72,1800.07 -1159.72,1794.86L-1159.72,1664.18C-1159.72,1658.97 -1161.68,1654.69 -1165.58,1651.34C-1169.49,1647.99 -1174.42,1646.31 -1180.38,1646.31C-1186.34,1646.31 -1191.27,1647.99 -1195.18,1651.34C-1199.09,1654.69 -1201.04,1658.98 -1201.04,1664.18L-1201.04,1794.86C-1201.04,1800.06 -1199.09,1804.35 -1195.18,1807.7Z" style="fill:rgb(251,226,0);fill-rule:nonzero;"/>
                    <path d="M-1118.39,1617.82L-1084.88,1617.82L-1084.88,1810.49L-1031.83,1810.49L-1031.83,1841.21L-1118.39,1841.21L-1118.39,1617.82Z" style="fill:rgb(251,226,0);fill-rule:nonzero;"/>
                    <path d="M-1000,1836.74C-1008.19,1832.27 -1014.66,1826.13 -1019.41,1818.31C-1024.16,1810.49 -1026.53,1801.74 -1026.53,1792.06L-1026.53,1751.57L-993.02,1751.57L-993.02,1792.06C-993.02,1797.83 -991.02,1802.72 -987.02,1806.72C-983.02,1810.73 -978.13,1812.72 -972.36,1812.72C-966.4,1812.72 -961.47,1810.72 -957.56,1806.72C-953.65,1802.72 -951.7,1797.83 -951.7,1792.06L-951.7,1771.12C-951.7,1765.16 -954.35,1759.95 -959.66,1755.48C-964.97,1751.01 -973.3,1745.52 -984.65,1739.01C-993.4,1734.17 -1000.61,1729.75 -1006.29,1725.75C-1011.97,1721.75 -1016.76,1717.05 -1020.67,1711.65C-1024.58,1706.25 -1026.53,1700.2 -1026.53,1693.5L-1026.53,1666.97C-1026.53,1657.29 -1024.16,1648.54 -1019.41,1640.72C-1014.66,1632.9 -1008.2,1626.76 -1000,1622.29C-991.81,1617.82 -982.6,1615.59 -972.36,1615.59C-962.12,1615.59 -952.91,1617.82 -944.72,1622.29C-936.53,1626.76 -930.06,1632.9 -925.31,1640.72C-920.56,1648.54 -918.19,1657.29 -918.19,1666.97L-918.19,1702.15L-951.7,1702.15L-951.7,1666.97C-951.7,1661.01 -953.66,1656.08 -957.56,1652.17C-961.46,1648.26 -966.4,1646.31 -972.36,1646.31C-978.13,1646.31 -983.02,1648.26 -987.02,1652.17C-991.02,1656.08 -993.02,1661.01 -993.02,1666.97L-993.02,1682.33C-993.02,1688.47 -990.23,1694.01 -984.64,1698.94C-979.06,1703.87 -970.49,1709.69 -958.95,1716.39C-950.2,1721.42 -943.08,1725.84 -937.59,1729.65C-932.1,1733.47 -927.49,1737.94 -923.77,1743.05C-920.05,1748.17 -918.18,1753.8 -918.18,1759.94L-918.18,1792.05C-918.18,1801.73 -920.55,1810.48 -925.3,1818.3C-930.05,1826.12 -936.52,1832.26 -944.71,1836.73C-952.9,1841.2 -962.12,1843.43 -972.35,1843.43C-982.59,1843.44 -991.81,1841.2 -1000,1836.74Z" style="fill:rgb(251,226,0);fill-rule:nonzero;"/>
                    <path d="M-874.07,1617.82L-840.56,1617.82L-801.75,1841.21L-835.26,1841.21L-840.29,1803.23L-874.36,1803.23L-879.39,1841.21L-912.9,1841.21L-874.07,1617.82ZM-844.47,1772.51L-857.31,1677.85L-870.16,1772.51L-844.47,1772.51Z" style="fill:rgb(251,226,0);fill-rule:nonzero;"/>
                    <path d="M-769.92,1836.74C-778.11,1832.27 -784.58,1826.13 -789.33,1818.31C-794.08,1810.49 -796.45,1801.74 -796.45,1792.06L-796.45,1751.57L-762.94,1751.57L-762.94,1792.06C-762.94,1797.83 -760.94,1802.72 -756.94,1806.72C-752.94,1810.73 -748.05,1812.72 -742.28,1812.72C-736.32,1812.72 -731.39,1810.72 -727.48,1806.72C-723.57,1802.72 -721.62,1797.83 -721.62,1792.06L-721.62,1771.12C-721.62,1765.16 -724.27,1759.95 -729.58,1755.48C-734.89,1751.01 -743.22,1745.52 -754.57,1739.01C-763.32,1734.17 -770.53,1729.75 -776.21,1725.75C-781.89,1721.75 -786.68,1717.05 -790.59,1711.65C-794.5,1706.25 -796.45,1700.2 -796.45,1693.5L-796.45,1666.97C-796.45,1657.29 -794.08,1648.54 -789.33,1640.72C-784.58,1632.9 -778.12,1626.76 -769.92,1622.29C-761.73,1617.82 -752.52,1615.59 -742.28,1615.59C-732.05,1615.59 -722.83,1617.82 -714.64,1622.29C-706.45,1626.76 -699.98,1632.9 -695.23,1640.72C-690.48,1648.54 -688.11,1657.29 -688.11,1666.97L-688.11,1702.15L-721.62,1702.15L-721.62,1666.97C-721.62,1661.01 -723.58,1656.08 -727.48,1652.17C-731.39,1648.26 -736.32,1646.31 -742.28,1646.31C-748.05,1646.31 -752.94,1648.26 -756.94,1652.17C-760.95,1656.08 -762.94,1661.01 -762.94,1666.97L-762.94,1682.33C-762.94,1688.47 -760.15,1694.01 -754.56,1698.94C-748.98,1703.87 -740.42,1709.69 -728.87,1716.39C-720.12,1721.42 -713,1725.84 -707.51,1729.65C-702.02,1733.47 -697.41,1737.94 -693.69,1743.05C-689.97,1748.17 -688.11,1753.8 -688.11,1759.94L-688.11,1792.05C-688.11,1801.73 -690.48,1810.48 -695.23,1818.3C-699.98,1826.12 -706.45,1832.26 -714.64,1836.73C-722.83,1841.2 -732.05,1843.43 -742.28,1843.43C-752.51,1843.44 -761.73,1841.2 -769.92,1836.74Z" style="fill:rgb(251,226,0);fill-rule:nonzero;"/>
                </g>
                <g>
                    <path d="M-1599.23,2136.1L-1599.23,2095.98C-1599.23,2088.34 -1597.58,2081.44 -1594.28,2075.27C-1590.98,2069.11 -1586.46,2064.29 -1580.73,2060.81C-1575,2057.34 -1568.66,2055.6 -1561.71,2055.6L-1493.46,2055.6C-1486.51,2055.6 -1480.17,2057.34 -1474.44,2060.81C-1468.71,2064.29 -1464.19,2069.11 -1460.89,2075.27C-1457.59,2081.44 -1455.94,2088.34 -1455.94,2095.98L-1455.94,2122.03L-1390.81,2122.03L-1390.81,2136.1L-1599.23,2136.1ZM-1468.72,2095.98C-1468.72,2088.51 -1471.06,2082.26 -1475.75,2077.22C-1480.44,2072.18 -1486.34,2069.67 -1493.46,2069.67L-1561.71,2069.67C-1568.83,2069.67 -1574.74,2072.19 -1579.42,2077.22C-1584.11,2082.26 -1586.45,2088.51 -1586.45,2095.98L-1586.45,2122.03L-1468.7,2122.03L-1468.7,2095.98L-1468.72,2095.98Z" style="fill:white;fill-rule:nonzero;"/>
                    <path d="M-1599.23,2049.35L-1599.23,2009.23C-1599.23,2001.59 -1597.58,1994.69 -1594.28,1988.52C-1590.98,1982.36 -1586.46,1977.54 -1580.73,1974.06C-1575,1970.59 -1568.66,1968.85 -1561.71,1968.85L-1518.73,1968.85C-1509.52,1968.85 -1501.75,1971.59 -1495.41,1977.06C-1489.07,1982.53 -1485.03,1989.43 -1483.3,1997.77L-1390.82,1964.16L-1390.82,1979.79L-1480.96,2011.83L-1480.96,2035.28L-1390.82,2035.28L-1390.82,2049.35L-1599.23,2049.35ZM-1493.73,2009.23C-1493.73,2001.76 -1496.11,1995.51 -1500.89,1990.47C-1505.66,1985.43 -1511.61,1982.92 -1518.73,1982.92L-1561.71,1982.92C-1568.83,1982.92 -1574.74,1985.44 -1579.42,1990.47C-1584.11,1995.51 -1586.45,2001.76 -1586.45,2009.23L-1586.45,2035.28L-1493.71,2035.28L-1493.71,2009.23L-1493.73,2009.23Z" style="fill:white;fill-rule:nonzero;"/>
                    <path d="M-1393.56,1941.37C-1396.77,1947.54 -1401.16,1952.36 -1406.72,1955.83C-1412.28,1959.31 -1418.53,1961.04 -1425.48,1961.04L-1564.59,1961.04C-1571.53,1961.04 -1577.79,1959.31 -1583.35,1955.83C-1588.91,1952.36 -1593.29,1947.54 -1596.51,1941.37C-1599.72,1935.21 -1601.33,1928.39 -1601.33,1920.92C-1601.33,1913.28 -1599.72,1906.38 -1596.51,1900.21C-1593.29,1894.05 -1588.91,1889.23 -1583.35,1885.75C-1577.79,1882.28 -1571.54,1880.54 -1564.59,1880.54L-1425.48,1880.54C-1418.53,1880.54 -1412.28,1882.28 -1406.72,1885.75C-1401.16,1889.23 -1396.78,1894.04 -1393.56,1900.21C-1390.35,1906.38 -1388.74,1913.28 -1388.74,1920.92C-1388.74,1928.39 -1390.35,1935.21 -1393.56,1941.37ZM-1408.28,1939.55C-1403.76,1934.6 -1401.51,1928.39 -1401.51,1920.92C-1401.51,1913.28 -1403.76,1906.98 -1408.28,1902.03C-1412.79,1897.08 -1418.53,1894.61 -1425.47,1894.61L-1564.58,1894.61C-1571.52,1894.61 -1577.25,1897.09 -1581.77,1902.03C-1586.28,1906.98 -1588.54,1913.28 -1588.54,1920.92C-1588.54,1928.39 -1586.28,1934.6 -1581.77,1939.55C-1577.25,1944.5 -1571.52,1946.97 -1564.58,1946.97L-1425.47,1946.97C-1418.53,1946.97 -1412.79,1944.5 -1408.28,1939.55Z" style="fill:white;fill-rule:nonzero;"/>
                    <path d="M-1599.23,1875.6L-1599.23,1861.01L-1418.44,1833.66L-1599.23,1806.05L-1599.23,1791.46L-1390.82,1826.63L-1390.82,1840.7L-1599.23,1875.6Z" style="fill:white;fill-rule:nonzero;"/>
                    <path d="M-1599.23,1778.69L-1599.23,1764.62L-1390.82,1729.97L-1390.82,1744.04L-1442.14,1751.85L-1442.14,1791.19L-1390.82,1799.01L-1390.82,1813.08L-1599.23,1778.69ZM-1454.91,1753.68L-1572.66,1771.65L-1454.91,1789.36L-1454.91,1753.68Z" style="fill:white;fill-rule:nonzero;"/>
                </g>
                <g>
                    <path d="M-1547.32,1705.53L-1547.32,1682.61C-1547.32,1678.25 -1546.38,1674.33 -1544.49,1670.85C-1542.6,1667.38 -1540.05,1664.65 -1536.83,1662.67C-1533.61,1660.69 -1529.96,1659.69 -1525.89,1659.69L-1449.7,1659.54C-1445.73,1659.54 -1442.11,1660.53 -1438.84,1662.52C-1435.57,1664.51 -1432.99,1667.26 -1431.1,1670.78C-1429.21,1674.3 -1428.27,1678.25 -1428.27,1682.61L-1428.27,1705.53L-1547.32,1705.53ZM-1435.56,1682.61C-1435.56,1678.35 -1436.9,1674.77 -1439.58,1671.9C-1442.26,1669.02 -1445.63,1667.58 -1449.7,1667.58L-1525.89,1667.73C-1529.96,1667.93 -1533.33,1669.44 -1536.01,1672.27C-1538.69,1675.1 -1540.03,1678.59 -1540.03,1682.76L-1540.03,1697.49L-1435.56,1697.49L-1435.56,1682.61Z" style="fill:white;fill-rule:nonzero;"/>
                    <path d="M-1547.32,1655.38L-1547.32,1618.03L-1540.03,1618.03L-1540.03,1647.35L-1493.75,1647.35L-1493.75,1618.03L-1486.31,1618.03L-1486.31,1647.35L-1435.56,1647.35L-1435.56,1618.03L-1428.27,1618.03L-1428.27,1655.38L-1547.32,1655.38Z" style="fill:white;fill-rule:nonzero;"/>
                </g>
                <g>
                    <path d="M-1331.16,2128.83L-1304.24,2035.63L-1191.16,2035.62C-1186.51,2035.56 -1182.54,2032.45 -1181.22,2028.21L-1168.26,1985.37L-1286.16,1985.55C-1286.16,1985.55 -1288.44,1985.27 -1289.45,1987.09C-1289.76,1987.67 -1291.31,1990.43 -1291.31,1990.43C-1291.31,1990.43 -1278.44,1946.11 -1259.91,1946.11L-1164.29,1946.11C-1159.62,1946.11 -1155.68,1943.05 -1154.31,1938.84L-1138.33,1884.69L-1255.06,1884.51C-1292.91,1887.26 -1320.55,1918.69 -1337.97,1978.79L-1384.35,2136.48L-1341.25,2136.48C-1336.47,2136.48 -1332.4,2133.23 -1331.16,2128.83Z" style="fill:white;fill-rule:nonzero;"/>
                    <path d="M-979.88,2130.39L-1038.61,1884.69C-1040.51,1884.71 -1069.65,1884.69 -1073.36,1884.69C-1080.72,1884.69 -1083.34,1888.18 -1084.92,1891.34L-1192.72,2136.48L-1150.46,2136.48C-1142.08,2136.48 -1140.64,2132.8 -1139.35,2129.96L-1114.69,2074.26L-1048.12,2073.97C-1040.18,2073.97 -1037.98,2079.47 -1037.98,2079.47L-1024.51,2136.48L-988.96,2136.48C-988.95,2136.48 -978.41,2136.48 -979.88,2130.39ZM-1054.03,2038.85L-1094.47,2038.85C-1094.47,2038.85 -1096.24,2038.92 -1096.71,2038.92C-1098.51,2038.92 -1100.52,2042.17 -1100.52,2042.17L-1065.56,1962.24L-1048.49,2034.34C-1048.44,2034.52 -1047.6,2038.85 -1054.03,2038.85Z" style="fill:white;fill-rule:nonzero;"/>
                    <path d="M-737.39,1884.69C-748.01,1884.69 -753.62,1884.69 -758.92,1896.38L-827.33,2046.89C-827.33,2046.89 -828.24,2048.79 -828.49,2049.41C-829.83,2052.68 -829.25,2057.17 -829.25,2057.17L-872.53,1884.68L-913.52,1884.68C-924.59,1884.68 -932.68,1884.68 -933.69,1897.73L-958.18,2136.48C-952.89,2136.29 -930.3,2136.48 -930.3,2136.48C-911.2,2136.48 -911.2,2136.48 -909.96,2123.6L-895.55,1981.89L-857.76,2133.06C-842.15,2133.09 -856.34,2133.09 -842.15,2133.09L-834.35,2133.09C-819.08,2133.06 -819.08,2133.06 -814.35,2122.92L-750.96,1982.91L-766.7,2136.48L-737.4,2136.48C-719.99,2136.48 -719.99,2136.48 -718.41,2123.43L-693.89,1884.68C-712.81,1884.69 -737.39,1884.69 -737.39,1884.69Z" style="fill:white;fill-rule:nonzero;"/>
                </g>
            </g>
        </g>
    </g>
</svg>
