<?xml version="1.0" encoding="UTF-8" standalone="no"?>
<!DOCTYPE svg PUBLIC "-//W3C//DTD SVG 1.1//EN" "http://www.w3.org/Graphics/SVG/1.1/DTD/svg11.dtd">
<svg width="100%" height="100%" viewBox="0 0 50 50" version="1.1" xmlns="http://www.w3.org/2000/svg" xmlns:xlink="http://www.w3.org/1999/xlink" xml:space="preserve" xmlns:serif="http://www.serif.com/" style="fill-rule:evenodd;clip-rule:evenodd;stroke-linejoin:round;stroke-miterlimit:2;">
    <g transform="matrix(1,0,0,1,-215.5,-236)">
        <g transform="matrix(1,0,0,1,25,0)">
            <g transform="matrix(1.06383,0,0,1.06383,134.117,140.255)">
                <path d="M59.289,129.502C55.387,125.306 53,119.682 53,113.5C53,100.521 63.521,90 76.5,90C89.479,90 100,100.521 100,113.5C100,126.479 89.479,137 76.5,137C72.207,137 68.183,135.849 64.72,133.839L58.237,136.27C57.897,136.397 57.513,136.312 57.259,136.052C57.004,135.792 56.927,135.407 57.062,135.069L59.289,129.502Z" style="fill:rgb(229,56,136);"/>
            </g>
        </g>
        <g transform="matrix(1,0,0,1,25,0)">
            <g transform="matrix(1,0,0,1,-25,0)">
                <path d="M246.951,274.201C245.004,275.155 242.814,275.69 240.5,275.69C232.387,275.69 225.81,269.113 225.81,261C225.81,252.887 232.387,246.31 240.5,246.31C248.613,246.31 255.19,252.887 255.19,261C255.19,264.36 254.062,267.457 252.163,269.933L252.801,271.589C253.185,272.588 252.947,273.72 252.194,274.48C251.44,275.24 250.31,275.487 249.308,275.111L246.951,274.201ZM249.911,269.227C250.084,269.029 250.251,268.826 250.412,268.617C252.035,266.508 253,263.867 253,261C253,254.096 247.404,248.5 240.5,248.5C233.596,248.5 228,254.096 228,261C228,267.904 233.596,273.5 240.5,273.5C242.522,273.5 244.433,273.02 246.123,272.167C246.196,272.13 246.269,272.092 246.342,272.054C246.62,271.908 246.947,271.887 247.241,271.997L250.077,273.06C250.272,273.133 250.492,273.085 250.638,272.938C250.785,272.79 250.831,272.57 250.756,272.376L250.045,270.526C250.045,270.526 249.907,270.167 249.795,269.877C249.71,269.655 249.755,269.405 249.911,269.227Z" style="fill:white;"/>
            </g>
        </g>
    </g>
</svg>
