<?xml version="1.0" encoding="UTF-8" standalone="no"?>
<!DOCTYPE svg PUBLIC "-//W3C//DTD SVG 1.1//EN" "http://www.w3.org/Graphics/SVG/1.1/DTD/svg11.dtd">
<svg width="100%" height="100%" viewBox="0 0 50 50" version="1.1" xmlns="http://www.w3.org/2000/svg" xmlns:xlink="http://www.w3.org/1999/xlink" xml:space="preserve" xmlns:serif="http://www.serif.com/" style="fill-rule:evenodd;clip-rule:evenodd;stroke-linejoin:round;stroke-miterlimit:2;">
    <g transform="matrix(1,0,0,1,-117.5,-90)">
        <g transform="matrix(1,0,0,1,23,27)">
            <g transform="matrix(1.06383,0,0,1.06383,38.1171,-32.7447)">
                <path d="M76.5,90C89.479,90 100,100.521 100,113.5L100,113.5C100,126.479 89.479,137 76.5,137L76.5,137C63.521,137 53,126.479 53,113.5L53,113.5C53,100.521 63.521,90 76.5,90L76.5,90Z" style="fill:rgb(229,56,136);"/>
            </g>
        </g>
        <g transform="matrix(1,0,0,1,23,27)">
            <g transform="matrix(-1.81111,-0.485286,0.485286,-1.81111,123.705,102.358)">
                <path d="M8,6C8,4.903 7.097,4 6,4C4.903,4 4,4.903 4,6C4,7.097 4.903,8 6,8C7.097,8 8,7.097 8,6ZM5,6C5,5.451 5.451,5 6,5C6.549,5 7,5.451 7,6C7,6.549 6.549,7 6,7C5.451,7 5,6.549 5,6Z" style="fill:white;fill-rule:nonzero;"/>
            </g>
        </g>
        <g transform="matrix(1,0,0,1,23,27)">
            <g transform="matrix(1.875,0,0,1.875,104.5,77.3297)">
                <path d="M9,18.987C8.67,19.012 8.336,19.024 8,19.024L8,11.5C8,11.226 8.226,11 8.5,11L10.183,11C11.179,10.999 11.999,10.179 12,9.183L12,6.5C12,6.226 12.226,6 12.5,6C12.774,6 13,6.226 13,6.5L13,9.183C12.998,10.728 11.728,11.998 10.183,12L9,12L9,18.987ZM4,18.414C3.661,18.307 3.327,18.187 3,18.055L3,11.449C3.002,10.106 4.106,9.002 5.449,9L9.5,9C9.774,9 10,8.774 10,8.5L10,6.5C10,6.226 10.226,6 10.5,6C10.774,6 11,6.226 11,6.5L11,8.5C11,9.323 10.323,10 9.5,10L5.449,10C4.655,10.001 4.001,10.655 4,11.449L4,18.414Z" style="fill:white;fill-rule:nonzero;"/>
            </g>
        </g>
        <g transform="matrix(1,0,0,1,23,27)">
            <g transform="matrix(1.875,0,0,1.875,104.5,77.3297)">
                <path d="M15.5,0L0.5,0C0.226,0 -0,0.226 0,0.5L0,9.5C0,9.774 0.226,10 0.5,10L2,10C2.274,10 2.5,9.774 2.5,9.5C2.5,9.226 2.274,9 2,9L1,9L1,1L15,1L15,9L14,9C13.726,9 13.5,9.226 13.5,9.5C13.5,9.774 13.726,10 14,10L15.5,10C15.774,10 16,9.774 16,9.5L16,0.5C16,0.226 15.774,0 15.5,0Z" style="fill:white;fill-rule:nonzero;"/>
            </g>
        </g>
    </g>
</svg>
