<?xml version="1.0" encoding="UTF-8" standalone="no"?>
<!DOCTYPE svg PUBLIC "-//W3C//DTD SVG 1.1//EN" "http://www.w3.org/Graphics/SVG/1.1/DTD/svg11.dtd">
<svg width="100%" height="100%" viewBox="0 0 570 140" version="1.1" xmlns="http://www.w3.org/2000/svg" xmlns:xlink="http://www.w3.org/1999/xlink" xml:space="preserve" xmlns:serif="http://www.serif.com/" style="fill-rule:evenodd;clip-rule:evenodd;stroke-linejoin:round;stroke-miterlimit:2;">
    <g id="Artboard1" transform="matrix(1,0,0,0.79096,0,0)">
        <rect x="0" y="0" width="570" height="177" style="fill:none;"/>
        <g transform="matrix(0.161232,0,0,0.203843,-89.9069,-261.005)">
            <g>
                <g transform="matrix(300,0,0,300,547,1537)">
                    <path d="M0.041,-0L0.137,-0L0.137,-0.53L0.219,-0L0.311,-0L0.393,-0.53L0.393,-0L0.497,-0L0.497,-0.7L0.342,-0.7L0.269,-0.192L0.196,-0.7L0.041,-0.7L0.041,-0Z" style="fill:rgb(27,130,179);fill-rule:nonzero;"/>
                </g>
                <g transform="matrix(300,0,0,300,708.4,1537)">
                    <path d="M0.188,-0.52C0.086,-0.52 0.031,-0.46 0.031,-0.354L0.031,-0.156C0.031,-0.05 0.086,0.01 0.188,0.01C0.29,0.01 0.345,-0.05 0.345,-0.156L0.345,-0.165L0.243,-0.165L0.243,-0.146C0.243,-0.101 0.224,-0.084 0.19,-0.084C0.155,-0.084 0.137,-0.101 0.137,-0.146L0.137,-0.232L0.345,-0.232L0.345,-0.354C0.345,-0.46 0.29,-0.52 0.188,-0.52ZM0.137,-0.316L0.137,-0.364C0.137,-0.409 0.156,-0.426 0.189,-0.426C0.222,-0.426 0.241,-0.409 0.241,-0.364L0.241,-0.316L0.137,-0.316Z" style="fill:rgb(27,130,179);fill-rule:nonzero;"/>
                </g>
                <g transform="matrix(300,0,0,300,821.2,1537)">
                    <path d="M0.358,-0C0.351,-0.029 0.346,-0.075 0.346,-0.147L0.346,-0.7L0.24,-0.7L0.24,-0.473C0.219,-0.503 0.187,-0.52 0.149,-0.52C0.079,-0.52 0.034,-0.476 0.034,-0.371L0.034,-0.139C0.034,-0.034 0.079,0.01 0.149,0.01C0.196,0.01 0.234,-0.016 0.252,-0.06C0.254,-0.028 0.258,-0.006 0.261,-0L0.358,-0ZM0.185,-0.084C0.15,-0.084 0.14,-0.111 0.14,-0.146L0.14,-0.364C0.14,-0.399 0.15,-0.426 0.185,-0.426C0.215,-0.426 0.24,-0.404 0.24,-0.344L0.24,-0.166C0.24,-0.106 0.215,-0.084 0.185,-0.084Z" style="fill:rgb(27,130,179);fill-rule:nonzero;"/>
                </g>
                <g transform="matrix(300,0,0,300,937.3,1537)">
                    <path d="M0.041,-0.573L0.147,-0.573L0.147,-0.689L0.041,-0.689L0.041,-0.573ZM0.041,-0L0.147,-0L0.147,-0.51L0.041,-0.51L0.041,-0Z" style="fill:rgb(27,130,179);fill-rule:nonzero;"/>
                </g>
                <g transform="matrix(300,0,0,300,993.7,1537)">
                    <path d="M0.344,-0C0.337,-0.029 0.332,-0.075 0.332,-0.147L0.332,-0.352C0.332,-0.464 0.29,-0.52 0.184,-0.52C0.086,-0.52 0.035,-0.463 0.035,-0.364L0.035,-0.351L0.135,-0.351L0.135,-0.37C0.135,-0.408 0.15,-0.429 0.183,-0.429C0.213,-0.429 0.226,-0.412 0.226,-0.371L0.226,-0.361C0.226,-0.333 0.216,-0.324 0.143,-0.288C0.053,-0.244 0.02,-0.198 0.02,-0.118C0.02,-0.039 0.063,0.01 0.131,0.01C0.182,0.01 0.22,-0.015 0.239,-0.06C0.24,-0.028 0.244,-0.006 0.247,-0L0.344,-0ZM0.171,-0.081C0.141,-0.081 0.126,-0.1 0.126,-0.136C0.126,-0.169 0.142,-0.195 0.174,-0.215C0.202,-0.233 0.218,-0.243 0.226,-0.253L0.226,-0.166C0.226,-0.11 0.207,-0.081 0.171,-0.081Z" style="fill:rgb(27,130,179);fill-rule:nonzero;"/>
                </g>
                <g transform="matrix(300,0,0,300,1105.3,1537)">
                    <path d="M0.337,-0.325L0.337,-0.356C0.337,-0.456 0.288,-0.52 0.186,-0.52C0.085,-0.52 0.031,-0.46 0.031,-0.356L0.031,-0.154C0.031,-0.059 0.076,-0 0.162,0.009L0.162,0.057L0.167,0.057C0.192,0.057 0.204,0.064 0.204,0.087C0.204,0.108 0.196,0.115 0.178,0.115C0.167,0.115 0.156,0.11 0.156,0.091L0.156,0.083L0.082,0.083L0.082,0.093C0.082,0.143 0.123,0.155 0.178,0.155C0.238,0.155 0.28,0.148 0.28,0.09C0.28,0.051 0.255,0.039 0.211,0.039L0.211,0.009C0.296,-0.001 0.337,-0.063 0.337,-0.154L0.337,-0.195L0.235,-0.195L0.235,-0.144C0.235,-0.106 0.222,-0.084 0.186,-0.084C0.15,-0.084 0.137,-0.106 0.137,-0.144L0.137,-0.366C0.137,-0.404 0.15,-0.426 0.186,-0.426C0.222,-0.426 0.235,-0.404 0.235,-0.366L0.235,-0.325L0.337,-0.325Z" style="fill:rgb(27,130,179);fill-rule:nonzero;"/>
                </g>
                <g transform="matrix(300,0,0,300,1213.9,1537)">
                    <path d="M0.138,-0.611C0.149,-0.611 0.159,-0.604 0.17,-0.596C0.185,-0.585 0.201,-0.574 0.224,-0.574C0.262,-0.574 0.29,-0.602 0.315,-0.658L0.261,-0.69C0.248,-0.662 0.237,-0.651 0.224,-0.651C0.213,-0.651 0.203,-0.658 0.192,-0.666C0.177,-0.677 0.161,-0.688 0.138,-0.688C0.1,-0.688 0.072,-0.66 0.047,-0.604L0.101,-0.572C0.11,-0.593 0.122,-0.611 0.138,-0.611ZM0.344,-0C0.337,-0.029 0.332,-0.075 0.332,-0.147L0.332,-0.352C0.332,-0.464 0.29,-0.52 0.184,-0.52C0.086,-0.52 0.035,-0.463 0.035,-0.364L0.035,-0.351L0.135,-0.351L0.135,-0.37C0.135,-0.408 0.15,-0.429 0.183,-0.429C0.213,-0.429 0.226,-0.412 0.226,-0.371L0.226,-0.361C0.226,-0.333 0.216,-0.324 0.143,-0.288C0.053,-0.244 0.02,-0.198 0.02,-0.118C0.02,-0.039 0.063,0.01 0.131,0.01C0.182,0.01 0.22,-0.015 0.239,-0.06C0.24,-0.028 0.244,-0.006 0.247,-0L0.344,-0ZM0.171,-0.081C0.141,-0.081 0.126,-0.1 0.126,-0.136C0.126,-0.169 0.142,-0.195 0.174,-0.215C0.202,-0.233 0.218,-0.243 0.226,-0.253L0.226,-0.166C0.226,-0.11 0.207,-0.081 0.171,-0.081Z" style="fill:rgb(27,130,179);fill-rule:nonzero;"/>
                </g>
                <g transform="matrix(300,0,0,300,1325.5,1537)">
                    <path d="M0.187,0.01C0.287,0.01 0.343,-0.05 0.343,-0.156L0.343,-0.354C0.343,-0.46 0.287,-0.52 0.187,-0.52C0.087,-0.52 0.031,-0.46 0.031,-0.354L0.031,-0.156C0.031,-0.05 0.087,0.01 0.187,0.01ZM0.187,-0.084C0.149,-0.084 0.137,-0.11 0.137,-0.146L0.137,-0.364C0.137,-0.399 0.148,-0.426 0.187,-0.426C0.226,-0.426 0.237,-0.399 0.237,-0.364L0.237,-0.146C0.237,-0.11 0.225,-0.084 0.187,-0.084Z" style="fill:rgb(27,130,179);fill-rule:nonzero;"/>
                </g>
                <g transform="matrix(300,0,0,300,1485.7,1537)">
                    <path d="M0.358,-0C0.351,-0.029 0.346,-0.075 0.346,-0.147L0.346,-0.7L0.24,-0.7L0.24,-0.473C0.219,-0.503 0.187,-0.52 0.149,-0.52C0.079,-0.52 0.034,-0.476 0.034,-0.371L0.034,-0.139C0.034,-0.034 0.079,0.01 0.149,0.01C0.196,0.01 0.234,-0.016 0.252,-0.06C0.254,-0.028 0.258,-0.006 0.261,-0L0.358,-0ZM0.185,-0.084C0.15,-0.084 0.14,-0.111 0.14,-0.146L0.14,-0.364C0.14,-0.399 0.15,-0.426 0.185,-0.426C0.215,-0.426 0.24,-0.404 0.24,-0.344L0.24,-0.166C0.24,-0.106 0.215,-0.084 0.185,-0.084Z" style="fill:rgb(27,130,179);fill-rule:nonzero;"/>
                </g>
                <g transform="matrix(300,0,0,300,1601.8,1537)">
                    <path d="M0.188,-0.52C0.086,-0.52 0.031,-0.46 0.031,-0.354L0.031,-0.156C0.031,-0.05 0.086,0.01 0.188,0.01C0.29,0.01 0.345,-0.05 0.345,-0.156L0.345,-0.165L0.243,-0.165L0.243,-0.146C0.243,-0.101 0.224,-0.084 0.19,-0.084C0.155,-0.084 0.137,-0.101 0.137,-0.146L0.137,-0.232L0.345,-0.232L0.345,-0.354C0.345,-0.46 0.29,-0.52 0.188,-0.52ZM0.137,-0.316L0.137,-0.364C0.137,-0.409 0.156,-0.426 0.189,-0.426C0.222,-0.426 0.241,-0.409 0.241,-0.364L0.241,-0.316L0.137,-0.316Z" style="fill:rgb(27,130,179);fill-rule:nonzero;"/>
                </g>
                <g transform="matrix(585.714,0,0,585.714,547,2122.71)">
                    <path d="M0.041,-0L0.209,-0C0.319,-0 0.373,-0.061 0.373,-0.173L0.373,-0.527C0.373,-0.639 0.319,-0.7 0.209,-0.7L0.041,-0.7L0.041,-0ZM0.151,-0.1L0.151,-0.6L0.207,-0.6C0.242,-0.6 0.263,-0.582 0.263,-0.532L0.263,-0.168C0.263,-0.118 0.242,-0.1 0.207,-0.1L0.151,-0.1Z" style="fill:rgb(27,130,179);fill-rule:nonzero;"/>
                </g>
                <g transform="matrix(585.714,0,0,585.714,784.8,2122.71)">
                    <path d="M0.234,-0.52C0.182,-0.52 0.149,-0.488 0.135,-0.424L0.133,-0.51L0.041,-0.51L0.041,-0L0.147,-0L0.147,-0.294C0.147,-0.373 0.178,-0.414 0.237,-0.414C0.246,-0.414 0.256,-0.413 0.264,-0.411L0.264,-0.514C0.256,-0.518 0.247,-0.52 0.234,-0.52Z" style="fill:rgb(27,130,179);fill-rule:nonzero;"/>
                </g>
                <g transform="matrix(585.714,0,0,585.714,940.6,2122.71)">
                    <path d="M0.344,-0C0.337,-0.029 0.332,-0.075 0.332,-0.147L0.332,-0.352C0.332,-0.464 0.29,-0.52 0.184,-0.52C0.086,-0.52 0.035,-0.463 0.035,-0.364L0.035,-0.351L0.135,-0.351L0.135,-0.37C0.135,-0.408 0.15,-0.429 0.183,-0.429C0.213,-0.429 0.226,-0.412 0.226,-0.371L0.226,-0.361C0.226,-0.333 0.216,-0.324 0.143,-0.288C0.053,-0.244 0.02,-0.198 0.02,-0.118C0.02,-0.039 0.063,0.01 0.131,0.01C0.182,0.01 0.22,-0.015 0.239,-0.06C0.24,-0.028 0.244,-0.006 0.247,-0L0.344,-0ZM0.171,-0.081C0.141,-0.081 0.126,-0.1 0.126,-0.136C0.126,-0.169 0.142,-0.195 0.174,-0.215C0.202,-0.233 0.218,-0.243 0.226,-0.253L0.226,-0.166C0.226,-0.11 0.207,-0.081 0.171,-0.081Z" style="fill:rgb(27,130,179);fill-rule:nonzero;"/>
                </g>
                <g transform="matrix(585.714,0,0,585.714,1158.49,2122.71)">
                    <rect x="0.045" y="-0.11" width="0.11" height="0.11" style="fill:rgb(27,130,179);fill-rule:nonzero;"/>
                </g>
                <g transform="matrix(585.714,0,0,585.714,1369.34,2122.71)">
                    <path d="M0.041,-0L0.332,-0L0.332,-0.1L0.151,-0.1L0.151,-0.7L0.041,-0.7L0.041,-0Z" style="fill:rgb(27,130,179);fill-rule:nonzero;"/>
                </g>
                <g transform="matrix(585.714,0,0,585.714,1570.83,2122.71)">
                    <path d="M0.131,-0.743L0.214,-0.743L0.321,-0.878L0.201,-0.878L0.131,-0.743ZM0.041,-0L0.341,-0L0.341,-0.1L0.151,-0.1L0.151,-0.315L0.302,-0.315L0.302,-0.415L0.151,-0.415L0.151,-0.6L0.341,-0.6L0.341,-0.7L0.041,-0.7L0.041,-0Z" style="fill:rgb(27,130,179);fill-rule:nonzero;"/>
                </g>
                <g transform="matrix(585.714,0,0,585.714,1781.1,2122.71)">
                    <rect x="0.041" y="-0.7" width="0.11" height="0.7" style="fill:rgb(27,130,179);fill-rule:nonzero;"/>
                </g>
                <g transform="matrix(585.714,0,0,585.714,1893.56,2122.71)">
                    <path d="M0.278,-0L0.388,-0L0.274,-0.7L0.125,-0.7L0.011,-0L0.113,-0L0.132,-0.137L0.259,-0.137L0.278,-0ZM0.146,-0.232L0.195,-0.585L0.245,-0.232L0.146,-0.232Z" style="fill:rgb(27,130,179);fill-rule:nonzero;"/>
                </g>
                <g transform="matrix(585.714,0,0,585.714,2220.97,2122.71)">
                    <path d="M0.041,-0L0.151,-0L0.151,-0.3L0.189,-0.3C0.239,-0.3 0.258,-0.279 0.258,-0.214L0.258,-0.086C0.258,-0.029 0.262,-0.018 0.268,-0L0.38,-0C0.369,-0.026 0.368,-0.051 0.368,-0.085L0.368,-0.208C0.368,-0.287 0.35,-0.339 0.295,-0.356L0.295,-0.358C0.344,-0.378 0.367,-0.424 0.367,-0.496L0.367,-0.539C0.367,-0.647 0.318,-0.7 0.204,-0.7L0.041,-0.7L0.041,-0ZM0.151,-0.4L0.151,-0.6L0.201,-0.6C0.24,-0.6 0.257,-0.578 0.257,-0.528L0.257,-0.474C0.257,-0.418 0.232,-0.4 0.191,-0.4L0.151,-0.4Z" style="fill:rgb(27,130,179);fill-rule:nonzero;"/>
                </g>
                <g transform="matrix(585.714,0,0,585.714,2457.01,2122.71)">
                    <rect x="0.041" y="-0.7" width="0.11" height="0.7" style="fill:rgb(27,130,179);fill-rule:nonzero;"/>
                </g>
                <g transform="matrix(585.714,0,0,585.714,2569.47,2122.71)">
                    <path d="M0.017,-0L0.339,-0L0.339,-0.1L0.135,-0.1L0.339,-0.602L0.339,-0.7L0.027,-0.7L0.027,-0.6L0.221,-0.6L0.017,-0.098L0.017,-0Z" style="fill:rgb(27,130,179);fill-rule:nonzero;"/>
                </g>
                <g transform="matrix(585.714,0,0,585.714,2782.09,2122.71)">
                    <path d="M0.017,-0L0.339,-0L0.339,-0.1L0.135,-0.1L0.339,-0.602L0.339,-0.7L0.027,-0.7L0.027,-0.6L0.221,-0.6L0.017,-0.098L0.017,-0Z" style="fill:rgb(27,130,179);fill-rule:nonzero;"/>
                </g>
                <g transform="matrix(585.714,0,0,585.714,2991.77,2122.71)">
                    <rect x="0.041" y="-0.7" width="0.11" height="0.7" style="fill:rgb(27,130,179);fill-rule:nonzero;"/>
                </g>
            </g>
        </g>
    </g>
</svg>
