<?xml version="1.0" encoding="UTF-8" standalone="no"?>
<!DOCTYPE svg PUBLIC "-//W3C//DTD SVG 1.1//EN" "http://www.w3.org/Graphics/SVG/1.1/DTD/svg11.dtd">
<svg width="100%" height="100%" viewBox="0 0 570 177" version="1.1" xmlns="http://www.w3.org/2000/svg" xmlns:xlink="http://www.w3.org/1999/xlink" xml:space="preserve" xmlns:serif="http://www.serif.com/" style="fill-rule:evenodd;clip-rule:evenodd;stroke-linejoin:round;stroke-miterlimit:2;">
    <g transform="matrix(1,0,0,1,-0.75,-0.86)">
        <g>
            <path d="M2.02,59.45L17.94,59.45C28.37,59.45 33.49,65.23 33.49,75.85L33.49,109.4C33.49,120.02 28.37,125.8 17.94,125.8L2.02,125.8L2.02,59.45ZM17.76,116.33C21.08,116.33 23.07,114.62 23.07,109.88L23.07,75.38C23.07,70.64 21.08,68.93 17.76,68.93L12.45,68.93L12.45,116.32L17.76,116.32L17.76,116.33Z" style="fill:rgb(4,65,129);fill-rule:nonzero;"/>
            <path d="M61.64,77.08L61.64,86.84C60.88,86.65 59.93,86.56 59.08,86.56C53.49,86.56 50.55,90.45 50.55,97.94L50.55,125.81L40.5,125.81L40.5,77.47L49.22,77.47L49.41,85.62C50.74,79.55 53.87,76.52 58.79,76.52C60.02,76.52 60.88,76.71 61.63,77.09L61.64,77.08Z" style="fill:rgb(4,65,129);fill-rule:nonzero;"/>
            <rect x="66.67" y="115.38" width="10.43" height="10.43" style="fill:rgb(4,65,129);fill-rule:nonzero;"/>
            <path d="M100.41,59.45L113.3,59.45L123.82,99.17L123.82,59.45L133.11,59.45L133.11,125.8L122.59,125.8L109.7,77.36L109.7,125.8L100.41,125.8L100.41,59.45Z" style="fill:rgb(4,65,129);fill-rule:nonzero;"/>
            <path d="M140.88,59.45L169.32,59.45L169.32,68.93L151.31,68.93L151.31,86.47L165.62,86.47L165.62,95.95L151.31,95.95L151.31,116.33L169.32,116.33L169.32,125.81L140.88,125.81L140.88,59.45Z" style="fill:rgb(4,65,129);fill-rule:nonzero;"/>
            <path d="M174.91,59.45L185.34,59.45L185.34,116.32L202.5,116.32L202.5,125.8L174.92,125.8L174.92,59.45L174.91,59.45Z" style="fill:rgb(4,65,129);fill-rule:nonzero;"/>
            <path d="M205.72,110.07L205.72,106.28L215.58,106.28L215.58,110.83C215.58,115.57 217.66,117.28 220.98,117.28C224.3,117.28 226.48,115.57 226.48,110.65C226.48,105.15 224.21,101.74 217.38,95.77C208.66,88.09 205.72,82.59 205.72,75.01C205.72,64.58 211.12,58.52 221.26,58.52C231.4,58.52 236.43,64.59 236.43,75.2L236.43,77.95L226.57,77.95L226.57,74.54C226.57,69.8 224.67,68 221.36,68C218.05,68 216.05,69.8 216.05,74.35C216.05,79.18 218.42,82.6 225.24,88.57C233.96,96.25 236.8,101.65 236.8,109.9C236.8,120.71 231.3,126.77 221.07,126.77C210.84,126.77 205.71,120.7 205.71,110.09L205.72,110.07Z" style="fill:rgb(4,65,129);fill-rule:nonzero;"/>
            <path d="M241.92,110.07L241.92,75.19C241.92,64.57 247.51,58.51 257.75,58.51C267.99,58.51 273.58,64.58 273.58,75.19L273.58,110.07C273.58,120.69 267.99,126.75 257.75,126.75C247.51,126.75 241.92,120.68 241.92,110.07ZM263.16,110.73L263.16,74.52C263.16,69.78 261.07,67.98 257.76,67.98C254.45,67.98 252.36,69.78 252.36,74.52L252.36,110.73C252.36,115.47 254.45,117.27 257.76,117.27C261.07,117.27 263.16,115.47 263.16,110.73Z" style="fill:rgb(4,65,129);fill-rule:nonzero;"/>
            <path d="M280.6,59.45L293.49,59.45L304.01,99.17L304.01,59.45L313.3,59.45L313.3,125.8L302.78,125.8L289.89,77.36L289.89,125.8L280.6,125.8L280.6,59.45Z" style="fill:rgb(4,65,129);fill-rule:nonzero;"/>
            <path d="M333.76,59.45L343.82,59.45L348.56,111.39L353.58,59.45L364.95,59.45L369.97,111.39L374.71,59.45L383.71,59.45L376.98,125.8L363.99,125.8L359.16,80.21L354.33,125.8L340.49,125.8L333.76,59.45Z" style="fill:rgb(4,65,129);fill-rule:nonzero;"/>
            <rect x="389.03" y="59.45" width="10.43" height="66.35" style="fill:rgb(4,65,129);fill-rule:nonzero;"/>
            <path d="M407.23,59.45L417.66,59.45L417.66,116.32L434.82,116.32L434.82,125.8L407.24,125.8L407.24,59.45L407.23,59.45Z" style="fill:rgb(4,65,129);fill-rule:nonzero;"/>
            <rect x="439.83" y="59.45" width="10.43" height="66.35" style="fill:rgb(4,65,129);fill-rule:nonzero;"/>
            <path d="M478.7,112.82L466.66,112.82L464.86,125.81L455.19,125.81L466,59.46L480.12,59.46L490.93,125.81L480.5,125.81L478.7,112.82ZM477.37,103.81L472.63,70.35L467.99,103.81L477.37,103.81Z" style="fill:rgb(4,65,129);fill-rule:nonzero;"/>
            <path d="M495.85,59.45L508.74,59.45L519.26,99.17L519.26,59.45L528.55,59.45L528.55,125.8L518.03,125.8L505.14,77.36L505.14,125.8L495.85,125.8L495.85,59.45Z" style="fill:rgb(4,65,129);fill-rule:nonzero;"/>
            <path d="M534.52,110.07L534.52,106.28L544.38,106.28L544.38,110.83C544.38,115.57 546.46,117.28 549.78,117.28C553.1,117.28 555.28,115.57 555.28,110.65C555.28,105.15 553.01,101.74 546.18,95.77C537.46,88.09 534.52,82.59 534.52,75.01C534.52,64.58 539.92,58.52 550.07,58.52C560.22,58.52 565.24,64.59 565.24,75.2L565.24,77.95L555.38,77.95L555.38,74.54C555.38,69.8 553.48,68 550.17,68C546.86,68 544.86,69.8 544.86,74.35C544.86,79.18 547.23,82.6 554.05,88.57C562.77,96.25 565.61,101.65 565.61,109.9C565.61,120.71 560.11,126.77 549.87,126.77C539.63,126.77 534.51,120.7 534.51,110.09L534.52,110.07Z" style="fill:rgb(4,65,129);fill-rule:nonzero;"/>
        </g>
        <g>
            <path d="M0.8,30.4L0.8,10.13C0.8,4.31 3.82,0.86 9.53,0.86C15.24,0.86 18.26,4.31 18.26,10.13L18.26,14.12L12.65,14.12L12.65,9.75C12.65,7.27 11.46,6.25 9.68,6.25C7.9,6.25 6.72,7.27 6.72,9.75L6.72,30.83C6.72,33.31 7.91,34.28 9.68,34.28C11.45,34.28 12.65,33.31 12.65,30.83L12.65,25.33L18.26,25.33L18.26,30.4C18.26,36.22 15.24,39.67 9.53,39.67C3.82,39.67 0.8,36.22 0.8,30.4Z" style="fill:rgb(4,65,129);fill-rule:nonzero;"/>
            <path d="M21.23,30.72L21.23,20.05C21.23,14.34 24.25,11.1 29.64,11.1C35.03,11.1 38.05,14.33 38.05,20.05L38.05,30.72C38.05,36.43 35.03,39.67 29.64,39.67C24.25,39.67 21.23,36.44 21.23,30.72ZM32.34,31.26L32.34,19.51C32.34,17.62 31.75,16.17 29.64,16.17C27.53,16.17 26.94,17.63 26.94,19.51L26.94,31.26C26.94,33.2 27.59,34.6 29.64,34.6C31.69,34.6 32.34,33.2 32.34,31.26Z" style="fill:rgb(4,65,129);fill-rule:nonzero;"/>
            <path d="M69.43,19.13L69.43,39.13L63.72,39.13L63.72,19.51C63.72,17.62 63.23,16.17 61.4,16.17C59.78,16.17 58.54,17.36 58.54,20.59L58.54,39.13L52.83,39.13L52.83,19.51C52.83,17.62 52.34,16.17 50.51,16.17C48.89,16.17 47.65,17.36 47.65,20.59L47.65,39.13L41.94,39.13L41.94,11.64L46.9,11.64L47.01,14.82C47.98,12.45 49.92,11.1 52.4,11.1C55.04,11.1 56.93,12.23 57.9,14.77C58.87,12.45 60.86,11.1 63.29,11.1C67.12,11.1 69.44,13.53 69.44,19.13L69.43,19.13Z" style="fill:rgb(4,65,129);fill-rule:nonzero;"/>
        </g>
        <g>
            <path d="M13.66,147.45L13.31,171.8L11.12,171.8L11.22,166.41L5.03,166.41L2.87,171.8L0.75,171.8L10.7,147.45L13.66,147.45ZM11.26,164.5L11.54,150.1L5.8,164.5L11.26,164.5Z" style="fill:rgb(229,197,133);fill-rule:nonzero;"/>
            <path d="M26.53,167.6C26.08,169.65 25.94,171.18 25.97,171.81L23.95,171.81C23.92,171.43 23.98,170.63 24.16,169.72C23.19,171.29 21.72,172.15 20.05,172.15C17.68,172.15 16.26,170.9 16.26,168.53C16.26,168.01 16.36,167.42 16.5,166.76L18.2,158.62C18.83,155.52 20.46,154.06 22.72,154.06C24.7,154.06 26.09,155.07 26.65,156.77L28.63,147.45L30.82,147.45L26.51,167.59L26.53,167.6ZM24.61,166.31L25.83,160.64C25.93,160.12 25.97,159.6 25.97,159.18C25.97,157.13 24.86,155.94 23.15,155.94C21.55,155.94 20.68,157.05 20.26,158.97L18.62,166.76C18.52,167.25 18.48,167.67 18.48,168.05C18.48,169.62 19.38,170.28 20.78,170.28C22.48,170.28 24.05,168.96 24.61,166.31Z" style="fill:rgb(229,197,133);fill-rule:nonzero;"/>
            <path d="M31.71,154.41L33.8,154.41L34.08,169.02L40.55,154.41L42.67,154.41L34.88,171.81L32.13,171.81L31.71,154.41Z" style="fill:rgb(229,197,133);fill-rule:nonzero;"/>
            <path d="M41.87,167.8C41.87,167.28 41.94,166.69 42.08,166.09L43.58,159.1C44.28,155.86 46.15,154.06 48.97,154.06C51.79,154.06 53.77,155.59 53.77,158.41C53.77,158.93 53.7,159.52 53.56,160.15L52.06,167.14C51.36,170.38 49.49,172.15 46.67,172.15C43.85,172.15 41.87,170.62 41.87,167.8ZM49.9,167.07L51.5,159.73C51.6,159.28 51.67,158.86 51.67,158.48C51.67,156.71 50.56,155.94 48.89,155.94C47.22,155.94 46.14,157.12 45.69,159.14L44.12,166.48C44.02,166.93 43.95,167.35 43.95,167.73C43.95,169.5 45.03,170.27 46.73,170.27C48.43,170.27 49.48,169.09 49.9,167.07Z" style="fill:rgb(229,197,133);fill-rule:nonzero;"/>
            <path d="M67.61,154.41L63.68,173.02C63.09,175.91 61.52,177.54 58.29,177.54C55.3,177.54 53.63,176.18 53.63,173.78C53.63,173.54 53.63,173.33 53.7,173.01L55.72,173.01C55.69,173.22 55.69,173.36 55.69,173.53C55.69,174.96 56.63,175.72 58.37,175.72C60.11,175.72 61.19,174.85 61.61,172.9L62.38,169.32C61.41,170.5 60.08,171.2 58.62,171.2C56.22,171.2 54.86,169.95 54.86,167.58C54.86,167.06 54.93,166.47 55.07,165.81L56.6,158.61C57.23,155.51 58.86,154.05 61.12,154.05C63.38,154.05 64.77,155.23 65.19,157.18L65.82,154.4L67.63,154.4L67.61,154.41ZM63.08,165.79L64.3,159.98C64.33,159.7 64.33,159.42 64.33,159.18C64.33,157.13 63.22,155.94 61.51,155.94C59.91,155.94 59.04,157.05 58.62,158.97L57.16,165.86C57.09,166.35 57.02,166.76 57.02,167.15C57.02,168.65 57.96,169.38 59.35,169.38C60.95,169.38 62.41,168.09 63.07,165.8L63.08,165.79Z" style="fill:rgb(229,197,133);fill-rule:nonzero;"/>
            <path d="M79.57,157.96C79.57,158.48 79.5,159 79.4,159.6L77.7,167.6C77.25,169.65 77.14,171.18 77.18,171.81L75.16,171.81C75.13,171.43 75.2,170.66 75.33,169.76C74.36,171.33 72.93,172.16 71.16,172.16C68.83,172.16 67.44,170.66 67.44,168.51C67.44,164.93 69.7,163.29 73.11,162.25C76.21,161.31 76.87,160.96 77.18,159.99L77.35,159.09C77.42,158.78 77.45,158.46 77.45,158.15C77.45,156.76 76.55,155.92 74.95,155.92C73.35,155.92 72.24,156.86 71.89,158.6L71.75,159.36L69.73,159.36L69.9,158.53C70.53,155.64 72.4,154.08 75.01,154.08C77.76,154.08 79.57,155.37 79.57,157.98L79.57,157.96ZM75.82,166.48L76.65,162.38C76.23,162.87 75.36,163.21 73.38,163.84C71.05,164.61 69.66,165.93 69.66,168.15C69.66,169.44 70.36,170.31 71.96,170.31C73.77,170.31 75.23,168.95 75.82,166.48Z" style="fill:rgb(229,197,133);fill-rule:nonzero;"/>
            <path d="M90.84,167.6C90.39,169.65 90.25,171.18 90.28,171.81L88.26,171.81C88.23,171.43 88.29,170.63 88.47,169.72C87.5,171.29 86.03,172.15 84.36,172.15C81.99,172.15 80.57,170.9 80.57,168.53C80.57,168.01 80.67,167.42 80.81,166.76L82.51,158.62C83.14,155.52 84.77,154.06 87.03,154.06C89.01,154.06 90.4,155.07 90.96,156.77L92.94,147.45L95.13,147.45L90.82,167.59L90.84,167.6ZM88.93,166.31L90.15,160.64C90.25,160.12 90.29,159.6 90.29,159.18C90.29,157.13 89.18,155.94 87.47,155.94C85.87,155.94 85,157.05 84.58,158.97L82.94,166.76C82.84,167.25 82.8,167.67 82.8,168.05C82.8,169.62 83.7,170.28 85.1,170.28C86.8,170.28 88.37,168.96 88.93,166.31Z" style="fill:rgb(229,197,133);fill-rule:nonzero;"/>
            <path d="M93.94,167.8C93.94,167.28 94.01,166.69 94.15,166.09L95.65,159.1C96.35,155.86 98.22,154.06 101.04,154.06C103.86,154.06 105.84,155.59 105.84,158.41C105.84,158.93 105.77,159.52 105.63,160.15L104.13,167.14C103.43,170.38 101.56,172.15 98.74,172.15C95.92,172.15 93.94,170.62 93.94,167.8ZM101.97,167.07L103.57,159.73C103.67,159.28 103.74,158.86 103.74,158.48C103.74,156.71 102.63,155.94 100.96,155.94C99.29,155.94 98.21,157.12 97.76,159.14L96.19,166.48C96.09,166.93 96.02,167.35 96.02,167.73C96.02,169.5 97.1,170.27 98.8,170.27C100.5,170.27 101.55,169.09 101.97,167.07Z" style="fill:rgb(229,197,133);fill-rule:nonzero;"/>
            <path d="M107.01,171.81L106.21,171.81L106.94,168.47L109.17,168.47L108.51,171.6L106.25,175.36L105.17,175.36L107.01,171.81Z" style="fill:rgb(229,197,133);fill-rule:nonzero;"/>
            <path d="M130.42,158.38C130.42,158.94 130.35,159.53 130.21,160.19L129.51,163.36L121.44,163.36L120.78,166.42C120.68,166.87 120.61,167.32 120.61,167.74C120.61,169.37 121.55,170.28 123.39,170.28C125.09,170.28 126.21,169.2 126.66,167.01L126.8,166.28L128.89,166.28L128.75,167.04C128.05,170.35 126.14,172.15 123.32,172.15C120.15,172.15 118.52,170.52 118.52,167.8C118.52,167.24 118.59,166.65 118.73,165.99L120.19,159.1C120.85,155.86 122.69,154.06 125.55,154.06C128.65,154.06 130.42,155.59 130.42,158.37L130.42,158.38ZM121.8,161.58L127.82,161.58L128.2,159.77C128.3,159.28 128.34,158.86 128.34,158.52C128.34,156.75 127.19,155.95 125.52,155.95C123.85,155.95 122.81,156.99 122.32,159.15L121.8,161.58Z" style="fill:rgb(229,197,133);fill-rule:nonzero;"/>
            <path d="M150.88,157.61C150.88,158.17 150.81,158.79 150.67,159.49L148.03,171.81L145.91,171.81L148.48,159.6C148.62,159.01 148.65,158.59 148.65,158.21C148.65,156.78 147.99,155.95 146.53,155.95C145.07,155.95 143.61,157.17 142.98,159.46L142.98,159.5L140.34,171.82L138.22,171.82L140.79,159.61C140.93,159.02 141,158.6 141,158.22C141,156.79 140.3,155.96 138.84,155.96C137.2,155.96 135.78,157.35 135.22,159.93L132.68,171.83L130.52,171.83L134.24,154.43L136.05,154.43L135.63,156.55C136.6,154.98 137.96,154.08 139.6,154.08C141.58,154.08 142.87,155.02 143.15,156.83C144.12,155.09 145.59,154.08 147.29,154.08C149.55,154.08 150.87,155.3 150.87,157.63L150.88,157.61Z" style="fill:rgb(229,197,133);fill-rule:nonzero;"/>
            <path d="M164.2,157.68C164.2,158.2 164.13,158.79 163.99,159.45L162.29,167.63C161.63,170.73 160.03,172.15 157.77,172.15C155.79,172.15 154.4,171.14 153.84,169.47L152.2,177.19L150.04,177.19L154.91,154.4L156.72,154.4L156.3,156.56C157.27,154.96 158.77,154.06 160.44,154.06C162.81,154.06 164.2,155.31 164.2,157.68ZM162.01,158.17C162.01,156.64 161.07,155.94 159.68,155.94C157.97,155.94 156.44,157.26 155.89,159.91L154.64,165.72C154.57,166.21 154.54,166.66 154.54,167.08C154.54,169.13 155.65,170.28 157.36,170.28C158.93,170.28 159.83,169.17 160.25,167.29L161.88,159.46C161.95,158.97 162.02,158.56 162.02,158.17L162.01,158.17Z" style="fill:rgb(229,197,133);fill-rule:nonzero;"/>
            <path d="M175.09,154.45L174.67,156.47C174.22,156.23 173.59,156.12 173.1,156.12C171.05,156.12 169.62,157.83 168.89,161.2L166.63,171.81L164.47,171.81L168.19,154.41L170,154.41L169.51,156.95C170.45,155 171.81,154.06 173.48,154.06C173.97,154.06 174.73,154.23 175.08,154.44L175.09,154.45Z" style="fill:rgb(229,197,133);fill-rule:nonzero;"/>
            <path d="M185.97,158.38C185.97,158.94 185.9,159.53 185.76,160.19L185.06,163.36L176.99,163.36L176.33,166.42C176.23,166.87 176.16,167.32 176.16,167.74C176.16,169.37 177.1,170.28 178.94,170.28C180.64,170.28 181.76,169.2 182.21,167.01L182.35,166.28L184.44,166.28L184.3,167.04C183.6,170.35 181.69,172.15 178.87,172.15C175.7,172.15 174.07,170.52 174.07,167.8C174.07,167.24 174.14,166.65 174.28,165.99L175.74,159.1C176.4,155.86 178.24,154.06 181.1,154.06C184.2,154.06 185.97,155.59 185.97,158.37L185.97,158.38ZM177.35,161.58L183.37,161.58L183.75,159.77C183.85,159.28 183.89,158.86 183.89,158.52C183.89,156.75 182.74,155.95 181.07,155.95C179.4,155.95 178.36,156.99 177.87,159.15L177.35,161.58Z" style="fill:rgb(229,197,133);fill-rule:nonzero;"/>
            <path d="M198.84,158.38C198.84,158.94 198.77,159.53 198.63,160.19L197.93,163.36L189.86,163.36L189.2,166.42C189.1,166.87 189.03,167.32 189.03,167.74C189.03,169.37 189.97,170.28 191.81,170.28C193.51,170.28 194.63,169.2 195.08,167.01L195.22,166.28L197.31,166.28L197.17,167.04C196.47,170.35 194.56,172.15 191.74,172.15C188.57,172.15 186.94,170.52 186.94,167.8C186.94,167.24 187.01,166.65 187.15,165.99L188.61,159.1C189.27,155.86 191.11,154.06 193.97,154.06C197.07,154.06 198.84,155.59 198.84,158.37L198.84,158.38ZM190.21,161.58L196.23,161.58L196.61,159.77C196.71,159.28 196.75,158.86 196.75,158.52C196.75,156.75 195.6,155.95 193.93,155.95C192.26,155.95 191.22,156.99 190.73,159.15L190.21,161.58Z" style="fill:rgb(229,197,133);fill-rule:nonzero;"/>
            <path d="M211.92,157.61C211.92,158.2 211.85,158.79 211.71,159.49L209.07,171.81L206.95,171.81L209.52,159.6C209.62,159.08 209.69,158.63 209.69,158.21C209.69,156.78 208.99,155.95 207.46,155.95C205.72,155.95 204.26,157.34 203.7,159.92L201.16,171.82L199,171.82L202.72,154.42L204.53,154.42L204.11,156.54C205.08,154.97 206.51,154.07 208.18,154.07C210.51,154.07 211.9,155.29 211.9,157.62L211.92,157.61Z" style="fill:rgb(229,197,133);fill-rule:nonzero;"/>
            <path d="M223.16,167.6C222.71,169.65 222.57,171.18 222.6,171.81L220.58,171.81C220.55,171.43 220.61,170.63 220.79,169.72C219.82,171.29 218.35,172.15 216.68,172.15C214.31,172.15 212.89,170.9 212.89,168.53C212.89,168.01 212.99,167.42 213.13,166.76L214.83,158.62C215.46,155.52 217.09,154.06 219.35,154.06C221.33,154.06 222.72,155.07 223.28,156.77L225.26,147.45L227.45,147.45L223.14,167.59L223.16,167.6ZM221.24,166.31L222.46,160.64C222.56,160.12 222.6,159.6 222.6,159.18C222.6,157.13 221.49,155.94 219.78,155.94C218.18,155.94 217.31,157.05 216.89,158.97L215.25,166.76C215.15,167.25 215.11,167.67 215.11,168.05C215.11,169.62 216.01,170.28 217.41,170.28C219.11,170.28 220.68,168.96 221.24,166.31Z" style="fill:rgb(229,197,133);fill-rule:nonzero;"/>
            <path d="M238.22,158.38C238.22,158.94 238.15,159.53 238.01,160.19L237.31,163.36L229.24,163.36L228.58,166.42C228.48,166.87 228.41,167.32 228.41,167.74C228.41,169.37 229.35,170.28 231.19,170.28C232.89,170.28 234.01,169.2 234.46,167.01L234.6,166.28L236.69,166.28L236.55,167.04C235.85,170.35 233.94,172.15 231.12,172.15C227.95,172.15 226.32,170.52 226.32,167.8C226.32,167.24 226.39,166.65 226.53,165.99L227.99,159.1C228.65,155.86 230.49,154.06 233.35,154.06C236.45,154.06 238.22,155.59 238.22,158.37L238.22,158.38ZM229.59,161.58L235.61,161.58L235.99,159.77C236.09,159.28 236.13,158.86 236.13,158.52C236.13,156.75 234.98,155.95 233.31,155.95C231.64,155.95 230.6,156.99 230.11,159.15L229.59,161.58Z" style="fill:rgb(229,197,133);fill-rule:nonzero;"/>
            <path d="M249.31,167.6C248.86,169.65 248.72,171.18 248.75,171.81L246.73,171.81C246.7,171.43 246.77,170.63 246.94,169.72C245.97,171.29 244.5,172.15 242.83,172.15C240.46,172.15 239.04,170.9 239.04,168.53C239.04,168.01 239.14,167.42 239.28,166.76L240.98,158.62C241.61,155.52 243.24,154.06 245.5,154.06C247.48,154.06 248.88,155.07 249.43,156.77L251.41,147.45L253.6,147.45L249.29,167.59L249.31,167.6ZM247.4,166.31L248.62,160.64C248.72,160.12 248.76,159.6 248.76,159.18C248.76,157.13 247.65,155.94 245.94,155.94C244.34,155.94 243.47,157.05 243.05,158.97L241.41,166.76C241.31,167.25 241.27,167.67 241.27,168.05C241.27,169.62 242.17,170.28 243.57,170.28C245.28,170.28 246.84,168.96 247.4,166.31Z" style="fill:rgb(229,197,133);fill-rule:nonzero;"/>
            <path d="M252.41,167.8C252.41,167.28 252.48,166.69 252.62,166.09L254.12,159.1C254.82,155.86 256.69,154.06 259.51,154.06C262.33,154.06 264.31,155.59 264.31,158.41C264.31,158.93 264.24,159.52 264.1,160.15L262.6,167.14C261.9,170.38 260.03,172.15 257.21,172.15C254.39,172.15 252.41,170.62 252.41,167.8ZM260.44,167.07L262.04,159.73C262.14,159.28 262.21,158.86 262.21,158.48C262.21,156.71 261.1,155.94 259.43,155.94C257.76,155.94 256.68,157.12 256.23,159.14L254.66,166.48C254.56,166.93 254.49,167.35 254.49,167.73C254.49,169.5 255.57,170.27 257.27,170.27C258.97,170.27 260.02,169.09 260.44,167.07Z" style="fill:rgb(229,197,133);fill-rule:nonzero;"/>
            <path d="M275.23,154.45L274.81,156.47C274.36,156.23 273.73,156.12 273.24,156.12C271.19,156.12 269.76,157.83 269.03,161.2L266.77,171.81L264.61,171.81L268.33,154.41L270.14,154.41L269.65,156.95C270.59,155 271.95,154.06 273.62,154.06C274.11,154.06 274.87,154.23 275.22,154.44L275.23,154.45Z" style="fill:rgb(229,197,133);fill-rule:nonzero;"/>
            <path d="M272.13,171.81L271.33,171.81L272.06,168.47L274.29,168.47L273.63,171.6L271.37,175.36L270.29,175.36L272.13,171.81Z" style="fill:rgb(229,197,133);fill-rule:nonzero;"/>
            <path d="M295.19,157.96C295.19,158.48 295.12,159 295.02,159.6L293.31,167.6C292.86,169.65 292.75,171.18 292.79,171.81L290.77,171.81C290.73,171.43 290.8,170.66 290.94,169.76C289.97,171.33 288.54,172.16 286.77,172.16C284.44,172.16 283.05,170.66 283.05,168.51C283.05,164.93 285.31,163.29 288.72,162.25C291.82,161.31 292.48,160.96 292.79,159.99L292.96,159.09C293.03,158.78 293.06,158.46 293.06,158.15C293.06,156.76 292.16,155.92 290.56,155.92C288.96,155.92 287.85,156.86 287.5,158.6L287.36,159.36L285.34,159.36L285.51,158.53C286.14,155.64 288.01,154.08 290.62,154.08C293.37,154.08 295.18,155.37 295.18,157.98L295.19,157.96ZM291.43,166.48L292.27,162.38C291.85,162.87 290.98,163.21 289,163.84C286.67,164.61 285.28,165.93 285.28,168.15C285.28,169.44 285.98,170.31 287.58,170.31C289.39,170.31 290.85,168.95 291.44,166.48L291.43,166.48Z" style="fill:rgb(229,197,133);fill-rule:nonzero;"/>
            <path d="M309.24,154.41L305.55,171.81L303.71,171.81L304.09,169.79C303.15,171.29 301.72,172.16 300.05,172.16C297.72,172.16 296.36,170.94 296.36,168.61C296.36,168.05 296.43,167.43 296.57,166.77L299.18,154.42L301.34,154.42L298.73,166.63C298.63,167.15 298.59,167.6 298.59,168.02C298.59,169.48 299.29,170.28 300.78,170.28C302.41,170.28 303.81,169.06 304.47,166.77L307.08,154.42L309.24,154.42L309.24,154.41Z" style="fill:rgb(229,197,133);fill-rule:nonzero;"/>
            <path d="M313,168.22C312.93,168.5 312.9,168.71 312.9,168.95C312.9,170.03 313.63,170.27 314.5,170.27C314.99,170.27 315.44,170.2 315.93,169.99L315.72,171.83C315.02,172.11 314.47,172.14 313.77,172.14C311.93,172.14 310.74,171.17 310.74,169.32C310.74,168.97 310.78,168.62 310.84,168.24L313.38,156.2L311.15,156.2L311.53,154.39L313.83,154.39L315.19,149.24L317,149.24L315.92,154.39L319.33,154.39L318.91,156.2L315.53,156.2L312.99,168.2L313,168.22Z" style="fill:rgb(229,197,133);fill-rule:nonzero;"/>
            <path d="M318.67,167.8C318.67,167.28 318.74,166.69 318.88,166.09L320.38,159.1C321.08,155.86 322.96,154.06 325.77,154.06C328.58,154.06 330.57,155.59 330.57,158.41C330.57,158.93 330.5,159.52 330.36,160.15L328.86,167.14C328.16,170.38 326.29,172.15 323.47,172.15C320.65,172.15 318.67,170.62 318.67,167.8ZM326.7,167.07L328.3,159.73C328.4,159.28 328.47,158.86 328.47,158.48C328.47,156.71 327.36,155.94 325.69,155.94C324.02,155.94 322.94,157.12 322.49,159.14L320.92,166.48C320.82,166.93 320.75,167.35 320.75,167.73C320.75,169.5 321.83,170.27 323.53,170.27C325.23,170.27 326.28,169.09 326.7,167.07Z" style="fill:rgb(229,197,133);fill-rule:nonzero;"/>
            <path d="M341.49,154.45L341.07,156.47C340.62,156.23 339.99,156.12 339.5,156.12C337.45,156.12 336.02,157.83 335.29,161.2L333.03,171.81L330.87,171.81L334.59,154.41L336.4,154.41L335.91,156.95C336.85,155 338.21,154.06 339.88,154.06C340.37,154.06 341.13,154.23 341.48,154.44L341.49,154.45Z" style="fill:rgb(229,197,133);fill-rule:nonzero;"/>
            <path d="M358.36,158.38C358.36,158.94 358.29,159.53 358.15,160.19L357.45,163.36L349.38,163.36L348.72,166.42C348.62,166.87 348.55,167.32 348.55,167.74C348.55,169.37 349.49,170.28 351.33,170.28C353.03,170.28 354.15,169.2 354.6,167.01L354.74,166.28L356.83,166.28L356.69,167.04C355.99,170.35 354.08,172.15 351.26,172.15C348.09,172.15 346.46,170.52 346.46,167.8C346.46,167.24 346.53,166.65 346.67,165.99L348.13,159.1C348.79,155.86 350.63,154.06 353.49,154.06C356.59,154.06 358.36,155.59 358.36,158.37L358.36,158.38ZM349.73,161.58L355.75,161.58L356.13,159.77C356.23,159.28 356.27,158.86 356.27,158.52C356.27,156.75 355.12,155.95 353.45,155.95C351.78,155.95 350.74,156.99 350.25,159.15L349.73,161.58Z" style="fill:rgb(229,197,133);fill-rule:nonzero;"/>
            <path d="M364.96,167.94C364.96,167.42 365.03,166.83 365.17,166.17L366.7,159.04C367.36,155.8 369.17,154.06 371.95,154.06C374.73,154.06 376.65,155.42 376.65,158.2C376.65,158.79 376.58,159.42 376.44,160.04L376.4,160.21L374.38,160.21L374.48,159.62C374.58,159.13 374.65,158.72 374.65,158.33C374.65,156.62 373.54,155.93 371.97,155.93C370.26,155.93 369.29,156.97 368.84,159.06L367.21,166.57C367.14,167.02 367.07,167.48 367.07,167.86C367.07,169.57 368.15,170.26 369.75,170.26C371.45,170.26 372.43,169.18 372.88,167.16L373.05,166.26L375.1,166.26L374.89,167.2C374.23,170.33 372.52,172.14 369.71,172.14C366.75,172.14 364.94,170.78 364.94,167.93L364.96,167.94Z" style="fill:rgb(229,197,133);fill-rule:nonzero;"/>
            <path d="M377.42,167.8C377.42,167.28 377.49,166.69 377.63,166.09L379.13,159.1C379.83,155.86 381.71,154.06 384.52,154.06C387.33,154.06 389.32,155.59 389.32,158.41C389.32,158.93 389.25,159.52 389.11,160.15L387.61,167.14C386.91,170.38 385.04,172.15 382.22,172.15C379.4,172.15 377.42,170.62 377.42,167.8ZM385.45,167.07L387.05,159.73C387.15,159.28 387.22,158.86 387.22,158.48C387.22,156.71 386.11,155.94 384.44,155.94C382.77,155.94 381.69,157.12 381.24,159.14L379.67,166.48C379.57,166.93 379.5,167.35 379.5,167.73C379.5,169.5 380.58,170.27 382.28,170.27C383.98,170.27 385.03,169.09 385.45,167.07Z" style="fill:rgb(229,197,133);fill-rule:nonzero;"/>
            <path d="M394.91,147.45L397.03,147.45L391.85,171.8L389.69,171.8L394.91,147.45Z" style="fill:rgb(229,197,133);fill-rule:nonzero;"/>
            <path d="M408.93,154.41L405.24,171.81L403.4,171.81L403.78,169.79C402.84,171.29 401.41,172.16 399.74,172.16C397.41,172.16 396.05,170.94 396.05,168.61C396.05,168.05 396.12,167.43 396.26,166.77L398.87,154.42L401.03,154.42L398.42,166.63C398.32,167.15 398.28,167.6 398.28,168.02C398.28,169.48 398.98,170.28 400.47,170.28C402.1,170.28 403.5,169.06 404.16,166.77L406.77,154.42L408.93,154.42L408.93,154.41Z" style="fill:rgb(229,197,133);fill-rule:nonzero;"/>
            <path d="M421.49,157.61C421.49,158.2 421.42,158.79 421.28,159.49L418.64,171.81L416.52,171.81L419.1,159.6C419.2,159.08 419.27,158.63 419.27,158.21C419.27,156.78 418.57,155.95 417.04,155.95C415.3,155.95 413.84,157.34 413.28,159.92L410.74,171.82L408.58,171.82L412.3,154.42L414.11,154.42L413.69,156.54C414.66,154.97 416.09,154.07 417.76,154.07C420.09,154.07 421.48,155.29 421.48,157.62L421.49,157.61Z" style="fill:rgb(229,197,133);fill-rule:nonzero;"/>
            <path d="M425.66,154.41L427.82,154.41L424.1,171.81L421.94,171.81L425.66,154.41ZM427.01,148.15L429.11,148.15L428.34,151.77L426.25,151.77L427.01,148.15Z" style="fill:rgb(229,197,133);fill-rule:nonzero;"/>
            <path d="M427.78,168.33C427.78,167.95 427.82,167.5 427.92,167.01L427.99,166.7L430.01,166.7L429.91,167.22C429.84,167.53 429.81,167.81 429.81,168.13C429.81,169.73 430.99,170.32 432.35,170.32C434.58,170.32 435.52,168.65 435.52,167.19C435.52,165.55 434.34,164.69 433.02,163.85C431.49,162.88 429.78,161.83 429.78,159.29C429.78,156.47 431.83,154.07 435.07,154.07C437.54,154.07 439.18,155.46 439.18,157.86C439.18,158.24 439.14,158.69 439.04,159.15L437.02,159.15C437.09,158.77 437.16,158.42 437.16,158.04C437.16,156.72 436.29,155.92 434.9,155.92C433.09,155.92 431.87,157.35 431.87,158.98C431.87,160.61 433.05,161.45 434.45,162.25C435.95,163.22 437.69,164.3 437.69,166.88C437.69,169.66 435.67,172.17 432.19,172.17C429.72,172.17 427.81,170.92 427.81,168.34L427.78,168.33Z" style="fill:rgb(229,197,133);fill-rule:nonzero;"/>
            <path d="M443.23,168.22C443.16,168.5 443.13,168.71 443.13,168.95C443.13,170.03 443.86,170.27 444.73,170.27C445.22,170.27 445.67,170.2 446.16,169.99L445.95,171.83C445.25,172.11 444.7,172.14 444,172.14C442.16,172.14 440.97,171.17 440.97,169.32C440.97,168.97 441.01,168.62 441.07,168.24L443.61,156.2L441.38,156.2L441.76,154.39L444.06,154.39L445.42,149.24L447.23,149.24L446.15,154.39L449.56,154.39L449.14,156.2L445.76,156.2L443.22,168.2L443.23,168.22Z" style="fill:rgb(229,197,133);fill-rule:nonzero;"/>
            <path d="M460.55,157.96C460.55,158.48 460.48,159 460.38,159.6L458.68,167.6C458.23,169.65 458.12,171.18 458.16,171.81L456.14,171.81C456.1,171.43 456.18,170.66 456.31,169.76C455.34,171.33 453.91,172.16 452.14,172.16C449.81,172.16 448.42,170.66 448.42,168.51C448.42,164.93 450.68,163.29 454.09,162.25C457.19,161.31 457.85,160.96 458.16,159.99L458.33,159.09C458.4,158.78 458.43,158.46 458.43,158.15C458.43,156.76 457.53,155.92 455.93,155.92C454.33,155.92 453.22,156.86 452.87,158.6L452.73,159.36L450.71,159.36L450.88,158.53C451.51,155.64 453.38,154.08 455.99,154.08C458.74,154.08 460.55,155.37 460.55,157.98L460.55,157.96ZM456.79,166.48L457.62,162.38C457.2,162.87 456.33,163.21 454.35,163.84C452.02,164.61 450.63,165.93 450.63,168.15C450.63,169.44 451.33,170.31 452.93,170.31C454.74,170.31 456.2,168.95 456.79,166.48Z" style="fill:rgb(229,197,133);fill-rule:nonzero;"/>
            <path d="M477.56,167.6C477.11,169.65 476.97,171.18 477,171.81L474.98,171.81C474.94,171.43 475.01,170.63 475.19,169.72C474.22,171.29 472.76,172.15 471.09,172.15C468.72,172.15 467.3,170.9 467.3,168.53C467.3,168.01 467.4,167.42 467.54,166.76L469.24,158.62C469.87,155.52 471.5,154.06 473.76,154.06C475.74,154.06 477.13,155.07 477.69,156.77L479.67,147.45L481.86,147.45L477.55,167.59L477.56,167.6ZM475.64,166.31L476.86,160.64C476.96,160.12 477,159.6 477,159.18C477,157.13 475.89,155.94 474.18,155.94C472.58,155.94 471.71,157.05 471.29,158.97L469.66,166.76C469.56,167.25 469.52,167.67 469.52,168.05C469.52,169.62 470.42,170.28 471.82,170.28C473.52,170.28 475.09,168.96 475.65,166.31L475.64,166.31Z" style="fill:rgb(229,197,133);fill-rule:nonzero;"/>
            <path d="M492.27,157.96C492.27,158.48 492.2,159 492.1,159.6L490.4,167.6C489.95,169.65 489.84,171.18 489.88,171.81L487.86,171.81C487.83,171.43 487.9,170.66 488.03,169.76C487.06,171.33 485.63,172.16 483.86,172.16C481.53,172.16 480.14,170.66 480.14,168.51C480.14,164.93 482.4,163.29 485.81,162.25C488.91,161.31 489.57,160.96 489.88,159.99L490.05,159.09C490.12,158.78 490.15,158.46 490.15,158.15C490.15,156.76 489.25,155.92 487.65,155.92C486.05,155.92 484.94,156.86 484.59,158.6L484.45,159.36L482.43,159.36L482.6,158.53C483.23,155.64 485.1,154.08 487.71,154.08C490.46,154.08 492.27,155.37 492.27,157.98L492.27,157.96ZM488.51,166.48L489.34,162.38C488.92,162.87 488.05,163.21 486.07,163.84C483.74,164.61 482.35,165.93 482.35,168.15C482.35,169.44 483.05,170.31 484.65,170.31C486.46,170.31 487.92,168.95 488.51,166.48Z" style="fill:rgb(229,197,133);fill-rule:nonzero;"/>
            <path d="M503.71,147.45L513.14,147.45L512.72,149.4L505.48,149.4L503.57,158.45L509.45,158.45L509.03,160.4L503.15,160.4L500.71,171.81L498.48,171.81L503.7,147.46L503.71,147.45Z" style="fill:rgb(229,197,133);fill-rule:nonzero;"/>
            <path d="M510.84,167.8C510.84,167.28 510.91,166.69 511.05,166.09L512.55,159.1C513.25,155.86 515.13,154.06 517.94,154.06C520.75,154.06 522.74,155.59 522.74,158.41C522.74,158.93 522.67,159.52 522.53,160.15L521.03,167.14C520.33,170.38 518.46,172.15 515.64,172.15C512.82,172.15 510.84,170.62 510.84,167.8ZM518.88,167.07L520.48,159.73C520.58,159.28 520.65,158.86 520.65,158.48C520.65,156.71 519.54,155.94 517.87,155.94C516.2,155.94 515.12,157.12 514.67,159.14L513.1,166.48C513,166.93 512.93,167.35 512.93,167.73C512.93,169.5 514.01,170.27 515.71,170.27C517.41,170.27 518.46,169.09 518.88,167.07Z" style="fill:rgb(229,197,133);fill-rule:nonzero;"/>
            <path d="M533.66,154.45L533.24,156.47C532.79,156.23 532.16,156.12 531.67,156.12C529.62,156.12 528.19,157.83 527.46,161.2L525.2,171.81L523.04,171.81L526.76,154.41L528.57,154.41L528.08,156.95C529.02,155 530.38,154.06 532.05,154.06C532.54,154.06 533.3,154.23 533.65,154.44L533.66,154.45Z" style="fill:rgb(229,197,133);fill-rule:nonzero;"/>
            <path d="M545.21,157.68C545.21,158.2 545.14,158.79 545,159.45L543.3,167.63C542.64,170.73 541.04,172.15 538.78,172.15C536.52,172.15 535.09,170.9 534.71,168.88L533.77,171.8L532.17,171.8L537.35,147.45L539.54,147.45L537.73,155.97C538.7,154.75 539.99,154.06 541.45,154.06C543.82,154.06 545.21,155.31 545.21,157.68ZM543.02,158.17C543.02,156.64 542.08,155.94 540.69,155.94C538.98,155.94 537.45,157.26 536.9,159.91L535.61,165.93C535.57,166.38 535.54,166.73 535.54,167.08C535.54,169.13 536.65,170.28 538.36,170.28C539.93,170.28 540.83,169.17 541.25,167.29L542.88,159.46C542.95,158.97 543.02,158.56 543.02,158.17Z" style="fill:rgb(229,197,133);fill-rule:nonzero;"/>
            <path d="M558.12,158.38C558.12,158.94 558.05,159.53 557.91,160.19L557.21,163.36L549.14,163.36L548.48,166.42C548.38,166.87 548.31,167.32 548.31,167.74C548.31,169.37 549.25,170.28 551.09,170.28C552.79,170.28 553.91,169.2 554.36,167.01L554.5,166.28L556.59,166.28L556.45,167.04C555.75,170.35 553.84,172.15 551.02,172.15C547.85,172.15 546.22,170.52 546.22,167.8C546.22,167.24 546.29,166.65 546.43,165.99L547.89,159.1C548.55,155.86 550.39,154.06 553.25,154.06C556.35,154.06 558.12,155.59 558.12,158.37L558.12,158.38ZM549.49,161.58L555.51,161.58L555.89,159.77C555.99,159.28 556.03,158.86 556.03,158.52C556.03,156.75 554.88,155.95 553.21,155.95C551.54,155.95 550.5,156.99 550.01,159.15L549.49,161.58Z" style="fill:rgb(229,197,133);fill-rule:nonzero;"/>
            <path d="M558.53,168.33C558.53,167.95 558.57,167.5 558.67,167.01L558.74,166.7L560.76,166.7L560.66,167.22C560.59,167.53 560.56,167.81 560.56,168.13C560.56,169.73 561.74,170.32 563.1,170.32C565.33,170.32 566.27,168.65 566.27,167.19C566.27,165.55 565.09,164.69 563.77,163.85C562.24,162.88 560.53,161.83 560.53,159.29C560.53,156.47 562.58,154.07 565.82,154.07C568.29,154.07 569.93,155.46 569.93,157.86C569.93,158.24 569.89,158.69 569.79,159.15L567.77,159.15C567.84,158.77 567.91,158.42 567.91,158.04C567.91,156.72 567.04,155.92 565.65,155.92C563.84,155.92 562.62,157.35 562.62,158.98C562.62,160.61 563.8,161.45 565.2,162.25C566.7,163.22 568.44,164.3 568.44,166.88C568.44,169.66 566.42,172.17 562.94,172.17C560.47,172.17 558.56,170.92 558.56,168.34L558.53,168.33Z" style="fill:rgb(229,197,133);fill-rule:nonzero;"/>
        </g>
    </g>
</svg>
