<?xml version="1.0" encoding="UTF-8" standalone="no"?>
<!DOCTYPE svg PUBLIC "-//W3C//DTD SVG 1.1//EN" "http://www.w3.org/Graphics/SVG/1.1/DTD/svg11.dtd">
<svg width="100%" height="100%" viewBox="0 0 238 301" version="1.1" xmlns="http://www.w3.org/2000/svg" xmlns:xlink="http://www.w3.org/1999/xlink" xml:space="preserve" xmlns:serif="http://www.serif.com/" style="fill-rule:evenodd;clip-rule:evenodd;stroke-linejoin:round;stroke-miterlimit:2;">
    <g transform="matrix(1,0,0,1,-403.839,-15.302)">
        <path d="M640.169,36.124L640.165,35.428L620.04,15.302L620.04,231.647L545.732,231.647L545.459,290.072L487.035,231.647L403.839,231.647L423.797,252.657L503.264,252.657L566.431,315.825L566.724,252.657L641.057,252.657L640.169,36.124Z" style="fill:white;fill-rule:nonzero;"/>
        <path d="M447.34,198.599L447.34,141.936L458.201,141.936L458.201,132.493L426.092,132.493L426.092,141.936L436.953,141.936L436.953,198.599L447.34,198.599Z" style="fill:white;fill-rule:nonzero;"/>
        <path d="M474.068,144.203L479.073,177.634L469.064,177.634L474.068,144.203ZM467.741,186.605L480.489,186.605L482.284,198.599L492.766,198.599L482.19,132.493L466.985,132.493L456.408,198.599L465.945,198.599L467.741,186.605Z" style="fill:white;fill-rule:nonzero;"/>
        <path d="M497.586,132.493L497.586,198.599L525.067,198.599L525.067,189.155L507.975,189.155L507.975,132.493L497.586,132.493Z" style="fill:white;fill-rule:nonzero;"/>
        <path d="M539.991,178.295L543.202,172.251L553.306,198.599L563.978,198.599L549.529,161.958L563.978,132.493L553.589,132.493L539.991,161.296L539.991,132.493L529.602,132.493L529.602,198.599L539.991,198.599L539.991,178.295Z" style="fill:white;fill-rule:nonzero;"/>
        <path d="M566.625,178.673L566.625,182.734C566.625,193.31 571.913,199.354 582.113,199.354C592.312,199.354 597.601,193.31 597.601,182.734C597.601,163.846 577.296,161.296 577.296,147.697C577.296,142.975 579.186,141.181 582.491,141.181C585.796,141.181 587.685,142.975 587.685,147.697L587.685,150.436L597.506,150.436L597.506,148.359C597.506,137.782 592.312,131.738 582.207,131.738C572.103,131.738 566.909,137.782 566.909,148.359C566.909,167.246 587.213,169.796 587.213,183.395C587.213,188.116 585.135,189.816 581.83,189.816C578.525,189.816 576.447,188.116 576.447,183.395L576.447,178.673L566.625,178.673Z" style="fill:white;fill-rule:nonzero;"/>
        <path d="M439.307,108.49L445.995,85.34L474.083,85.338C475.237,85.323 476.224,84.549 476.55,83.496L479.769,72.855L450.483,72.898C450.483,72.898 449.917,72.829 449.667,73.28C449.588,73.424 449.205,74.111 449.205,74.111C449.205,74.111 452.402,63.103 457.003,63.103L480.754,63.103C481.913,63.103 482.893,62.341 483.232,61.297L487.201,47.846L458.205,47.802C448.803,48.485 441.939,56.292 437.611,71.221L426.092,110.391L436.796,110.391C437.988,110.391 438.998,109.584 439.307,108.49Z" style="fill:white;fill-rule:nonzero;"/>
        <path d="M508.145,86.14L498.1,86.14C498.1,86.14 497.659,86.158 497.544,86.158C497.098,86.158 496.597,86.964 496.597,86.964L505.28,67.109L509.521,85.018C509.531,85.065 509.741,86.14 508.145,86.14ZM526.563,108.877L511.975,47.846C511.502,47.851 504.264,47.846 503.344,47.846C501.517,47.846 500.866,48.713 500.473,49.5L473.696,110.391L484.193,110.391C486.275,110.391 486.634,109.478 486.953,108.772L493.078,94.936L509.614,94.865C511.586,94.865 512.133,96.231 512.133,96.231L515.478,110.391L524.309,110.391C524.309,110.391 526.927,110.391 526.563,108.877Z" style="fill:white;fill-rule:nonzero;"/>
        <path d="M586.795,47.846C584.158,47.846 582.763,47.846 581.448,50.752L564.456,88.137C564.456,88.137 564.231,88.61 564.169,88.763C563.834,89.574 563.981,90.691 563.981,90.691L553.23,47.846L543.049,47.846C540.298,47.846 538.289,47.846 538.038,51.088L531.955,110.391C533.268,110.345 538.88,110.391 538.88,110.391C543.625,110.391 543.625,110.391 543.933,107.192L547.512,71.993L556.898,109.542C560.775,109.55 557.251,109.55 560.775,109.55L562.712,109.55C566.505,109.542 566.505,109.542 567.681,107.023L583.427,72.245L579.518,110.391L586.795,110.391C591.119,110.391 591.119,110.391 591.511,107.149L597.601,47.846L586.795,47.846Z" style="fill:white;fill-rule:nonzero;"/>
    </g>
</svg>
