<?xml version="1.0" encoding="UTF-8" standalone="no"?>
<!DOCTYPE svg PUBLIC "-//W3C//DTD SVG 1.1//EN" "http://www.w3.org/Graphics/SVG/1.1/DTD/svg11.dtd">
<svg width="100%" height="100%" viewBox="0 0 533 484" version="1.1" xmlns="http://www.w3.org/2000/svg" xmlns:xlink="http://www.w3.org/1999/xlink" xml:space="preserve" xmlns:serif="http://www.serif.com/" style="fill-rule:evenodd;clip-rule:evenodd;stroke-linejoin:round;stroke-miterlimit:2;">
    <g transform="matrix(1,0,0,1,-498,-488)">
        <g transform="matrix(1,0,0,1,88.7344,259.734)">
            <path d="M428.764,228.266L430.723,228.266L409.266,247.744L409.266,245.966L428.764,228.266ZM450.966,228.266L452.925,228.266L409.266,267.898L409.266,266.12L450.966,228.266ZM473.169,228.266L475.127,228.266L409.266,288.052L409.266,286.274L473.169,228.266ZM495.371,228.266L497.33,228.266L409.266,308.207L409.266,306.429L495.371,228.266ZM517.572,228.266L519.531,228.266L409.266,328.36L409.266,326.582L517.572,228.266ZM539.774,228.266L541.733,228.266L409.266,348.514L409.266,346.736L539.774,228.266ZM561.977,228.266L563.936,228.266L409.266,368.669L409.266,366.891L561.977,228.266ZM584.179,228.266L586.138,228.266L409.266,388.823L409.266,387.045L584.179,228.266ZM606.382,228.266L608.341,228.266L409.266,408.977L409.266,407.199L606.382,228.266ZM628.584,228.266L630.542,228.266L409.266,429.131L409.266,427.353L628.584,228.266ZM650.785,228.266L652.744,228.266L409.266,449.285L409.266,447.507L650.785,228.266ZM672.987,228.266L674.947,228.266L409.266,469.439L409.266,467.66L672.987,228.266ZM695.189,228.266L697.149,228.266L409.266,489.593L409.266,487.815L695.189,228.266ZM717.392,228.266L719.351,228.266L409.266,509.748L409.266,507.97L717.392,228.266ZM739.594,228.266L741.553,228.266L409.266,529.901L409.266,528.124L739.594,228.266ZM761.797,228.266L763.756,228.266L409.266,550.057L409.266,548.279L761.797,228.266ZM783.998,228.266L785.957,228.266L409.266,570.209L409.266,568.431L783.998,228.266ZM806.2,228.266L808.159,228.266L409.266,590.364L409.266,588.586L806.2,228.266ZM828.403,228.266L830.362,228.266L409.266,610.519L409.266,608.74L828.403,228.266ZM850.605,228.266L852.564,228.266L409.266,630.672L409.266,628.895L850.605,228.266ZM872.807,228.266L874.766,228.266L409.266,650.827L409.266,649.048L872.807,228.266ZM895.01,228.266L896.969,228.266L409.266,670.979L409.266,669.203L895.01,228.266ZM917.211,228.266L919.171,228.266L409.266,691.135L409.266,689.356L917.211,228.266ZM409.266,711.288L409.266,709.51L939.413,228.266L941.373,228.266L409.266,711.288Z" style="fill:rgb(4,65,129);"/>
        </g>
    </g>
</svg>
