<?xml version="1.0" encoding="UTF-8" standalone="no"?>
<!DOCTYPE svg PUBLIC "-//W3C//DTD SVG 1.1//EN" "http://www.w3.org/Graphics/SVG/1.1/DTD/svg11.dtd">
<svg width="100%" height="100%" viewBox="0 0 1080 719" version="1.1" xmlns="http://www.w3.org/2000/svg" xmlns:xlink="http://www.w3.org/1999/xlink" xml:space="preserve" xmlns:serif="http://www.serif.com/" style="fill-rule:evenodd;clip-rule:evenodd;stroke-linejoin:round;stroke-miterlimit:2;">
    <g transform="matrix(1,0,0,1,-691.305,-1246.95)">
        <g transform="matrix(1,0,0,1,690.734,1246.73)">
            <path d="M401.006,718.786L400.12,717.812L1079.54,101.064L1080.43,102.039L401.006,718.786ZM382.749,713.427L1062.17,96.679L1063.06,97.655L383.635,714.401L382.749,713.427ZM365.377,709.043L1044.8,92.295L1045.68,93.27L366.262,710.016L365.377,709.043ZM348.005,704.658L1027.43,87.91L1028.31,88.885L348.891,705.632L348.005,704.658ZM330.634,700.273L1010.05,83.525L1010.94,84.5L331.519,701.247L330.634,700.273ZM313.262,695.888L992.683,79.14L993.568,80.115L314.148,696.862L313.262,695.888ZM295.89,691.503L975.311,74.755L976.196,75.73L296.776,692.477L295.89,691.503ZM278.518,687.118L957.939,70.37L958.824,71.345L279.404,688.092L278.518,687.118ZM261.147,682.734L940.568,65.986L941.453,66.961L262.033,683.708L261.147,682.734ZM243.775,678.349L923.195,61.601L924.081,62.576L244.66,679.322L243.775,678.349ZM226.403,673.964L905.824,57.216L906.709,58.191L227.289,674.938L226.403,673.964ZM209.031,669.579L888.452,52.831L889.337,53.806L209.917,670.553L209.031,669.579ZM191.659,665.194L871.08,48.446L871.966,49.421L192.545,666.168L191.659,665.194ZM174.288,660.809L853.708,44.061L854.594,45.036L175.173,661.783L174.288,660.809ZM156.916,656.425L836.337,39.677L837.222,40.652L157.802,657.398L156.916,656.425ZM139.544,652.04L818.966,35.292L819.851,36.267L140.43,653.014L139.544,652.04ZM122.173,647.655L801.593,30.907L802.479,31.882L123.058,648.629L122.173,647.655ZM104.801,643.27L784.222,26.522L785.107,27.497L105.687,644.244L104.801,643.27ZM87.429,638.885L766.85,22.137L767.735,23.112L88.314,639.859L87.429,638.885ZM70.058,634.5L749.478,17.752L750.363,18.727L70.943,635.474L70.058,634.5ZM52.686,630.116L732.106,13.368L732.992,14.343L53.572,631.089L52.686,630.116ZM35.314,625.731L714.735,8.983L715.62,9.958L36.199,626.704L35.314,625.731ZM17.942,621.346L697.363,4.598L698.248,5.573L18.827,622.32L17.942,621.346ZM0.571,616.961L679.991,0.213L680.876,1.188L1.456,617.935L0.571,616.961Z" style="fill:rgb(4,65,129);"/>
        </g>
    </g>
</svg>
