<?xml version="1.0" encoding="UTF-8" standalone="no"?>
<!DOCTYPE svg PUBLIC "-//W3C//DTD SVG 1.1//EN" "http://www.w3.org/Graphics/SVG/1.1/DTD/svg11.dtd">
<svg width="100%" height="100%" viewBox="0 0 392 126" version="1.1" xmlns="http://www.w3.org/2000/svg" xmlns:xlink="http://www.w3.org/1999/xlink" xml:space="preserve" xmlns:serif="http://www.serif.com/" style="fill-rule:evenodd;clip-rule:evenodd;stroke-linejoin:round;stroke-miterlimit:2;">
    <g transform="matrix(1,0,0,1,-2888.09,-2397.56)">
        <g transform="matrix(1.42024,0,0,1.42024,-1425.87,-1071.82)">
            <g>
                <g transform="matrix(0.402134,0,0,0.402134,2886.36,1807.95)">
                    <g transform="matrix(1,0,0,1,-27.3541,20.3477)">
                        <path d="M433.038,1593L442.587,1593L434.395,1559.07L424.942,1559.07L403.176,1593L413.308,1593L417.234,1586.41L431.68,1586.41L433.038,1593ZM421.452,1579.33L427.948,1568.33L430.226,1579.33L421.452,1579.33Z" style="fill:rgb(93,55,141);"/>
                    </g>
                    <g transform="matrix(1,0,0,1,-27.3541,20.3477)">
                        <path d="M490.53,1575.5C494.214,1573.95 496.59,1571.09 496.59,1567.02C496.59,1561.93 492.469,1559.07 484.81,1559.07L467.65,1559.07L460.863,1593L479.526,1593C488.252,1593 495.087,1589.61 495.087,1582.24C495.087,1579.09 493.439,1576.76 490.53,1575.5ZM482.532,1566C485.052,1566 486.555,1566.82 486.555,1568.66C486.555,1571.19 484.713,1572.54 481.32,1572.54L474.436,1572.54L475.745,1566L482.532,1566ZM480.059,1586.07L471.722,1586.07L473.079,1579.18L481.562,1579.18C483.889,1579.18 485.537,1580.01 485.537,1582.04C485.537,1584.76 483.404,1586.07 480.059,1586.07Z" style="fill:rgb(93,55,141);"/>
                    </g>
                    <g transform="matrix(1,0,0,1,-27.3541,20.3477)">
                        <path d="M548.605,1569.88C548.605,1563.09 543.612,1559.07 534.934,1559.07L520.44,1559.07L513.653,1593L523.252,1593L525.045,1583.98L529.893,1583.98L534.934,1593L544.969,1593L539.2,1582.82C545.114,1580.78 548.605,1576.13 548.605,1569.88ZM538.909,1570.8C538.909,1574.53 536.437,1576.57 532.22,1576.57L526.499,1576.57L528.535,1566.63L533.577,1566.63C536.873,1566.63 538.909,1567.94 538.909,1570.8Z" style="fill:rgb(93,55,141);"/>
                    </g>
                    <g transform="matrix(1,0,0,1,-27.3541,20.3477)">
                        <path d="M590.827,1593L600.377,1593L592.185,1559.07L582.732,1559.07L560.966,1593L571.097,1593L575.024,1586.41L589.47,1586.41L590.827,1593ZM579.241,1579.33L585.737,1568.33L588.016,1579.33L579.241,1579.33Z" style="fill:rgb(93,55,141);"/>
                    </g>
                    <g transform="matrix(1,0,0,1,-27.3541,20.3477)">
                        <path d="M636.686,1593.68C642.745,1593.68 647.738,1591.98 651.568,1587.38L645.896,1581.8C643.472,1584.57 640.661,1585.73 637.607,1585.73C632.42,1585.73 629.317,1582.67 629.317,1578.12C629.317,1571.43 633.68,1566.34 640.273,1566.34C643.666,1566.34 646.138,1567.74 647.738,1570.31L654.67,1564.79C652.246,1560.67 647.156,1558.39 640.903,1558.39C628.299,1558.39 619.622,1566.97 619.622,1578.75C619.622,1587.62 626.263,1593.68 636.686,1593.68Z" style="fill:rgb(93,55,141);"/>
                    </g>
                    <g transform="matrix(1,0,0,1,-27.3541,20.3477)">
                        <path d="M701.304,1566.48L702.807,1559.07L676.242,1559.07L669.455,1593L696.65,1593L698.202,1585.58L680.411,1585.58L681.623,1579.38L696.747,1579.38L698.153,1572.2L683.077,1572.2L684.192,1566.48L701.304,1566.48Z" style="fill:rgb(93,55,141);"/>
                    </g>
                    <g transform="matrix(1,0,0,1,-27.3541,20.3477)">
                        <path d="M763.693,1593.68C773.679,1593.68 779.641,1588.44 781.677,1578.31L785.507,1559.07L776.054,1559.07L772.322,1577.73C771.158,1583.45 768.88,1585.73 764.856,1585.73C761.221,1585.73 759.233,1584.03 759.233,1580.4C759.233,1579.57 759.33,1578.7 759.524,1577.73L763.257,1559.07L753.658,1559.07L749.877,1577.88C749.635,1579.14 749.489,1580.35 749.489,1581.46C749.489,1588.98 754.822,1593.68 763.693,1593.68Z" style="fill:rgb(93,55,141);"/>
                    </g>
                    <g transform="matrix(1,0,0,1,-27.3541,20.3477)">
                        <path d="M838.734,1559.07L823.318,1578.7L815.368,1559.07L807.564,1559.07L800.777,1593L809.6,1593L813.187,1575.11L819.343,1589.65L823.561,1589.65L834.856,1575.11L831.365,1593L840.237,1593L846.926,1559.07L838.734,1559.07Z" style="fill:rgb(93,55,141);"/>
                    </g>
                    <g transform="matrix(1,0,0,1,-27.3541,20.3477)">
                        <path d="M888.325,1593L897.875,1593L889.682,1559.07L880.229,1559.07L858.464,1593L868.595,1593L872.522,1586.41L886.968,1586.41L888.325,1593ZM876.739,1579.33L883.235,1568.33L885.513,1579.33L876.739,1579.33Z" style="fill:rgb(93,55,141);"/>
                    </g>
                </g>
                <g transform="matrix(0.429765,0,0,0.429765,2852.94,1846.88)">
                    <path d="M504.302,1497.7C508.659,1497.7 511.109,1495.25 511.109,1490.89L511.109,1477.28C511.109,1455.22 499.129,1443.24 477.073,1443.24L470.266,1443.24C443.582,1443.24 429.422,1457.94 429.422,1484.36L429.422,1551.88C429.422,1578.3 443.582,1593 470.266,1593L477.073,1593C499.129,1593 511.109,1581.02 511.109,1558.96L511.109,1545.35C511.109,1540.99 508.659,1538.54 504.302,1538.54L490.688,1538.54C486.331,1538.54 483.88,1540.99 483.88,1545.35L483.88,1551.88C483.88,1560.6 479.251,1565.5 470.266,1565.5C461.28,1565.5 456.651,1560.6 456.651,1551.88L456.651,1484.36C456.651,1475.64 461.28,1470.74 470.266,1470.74C479.251,1470.74 483.88,1475.37 483.88,1484.36L483.88,1490.89C483.88,1495.25 486.331,1497.7 490.688,1497.7L504.302,1497.7Z" style="fill:rgb(229,40,136);fill-rule:nonzero;"/>
                    <path d="M551.953,1443.24C534.254,1443.24 524.724,1452.77 524.724,1470.47L524.724,1586.19C524.724,1590.55 527.174,1593 531.531,1593L545.145,1593C549.502,1593 551.953,1590.55 551.953,1586.19L551.953,1545.35C551.953,1540.99 554.403,1538.54 558.76,1538.54L572.374,1538.54C576.731,1538.54 579.182,1540.99 579.182,1545.35L579.182,1586.19C579.182,1590.55 581.632,1593 585.989,1593L599.603,1593C603.96,1593 606.41,1590.55 606.41,1586.19L606.41,1470.47C606.41,1452.77 596.88,1443.24 579.182,1443.24L551.953,1443.24ZM572.374,1470.47C576.731,1470.47 579.182,1472.92 579.182,1477.28L579.182,1504.51C579.182,1508.86 576.731,1511.31 572.374,1511.31L558.76,1511.31C554.403,1511.31 551.953,1508.86 551.953,1504.51L551.953,1477.28C551.953,1472.92 554.403,1470.47 558.76,1470.47L572.374,1470.47Z" style="fill:rgb(229,40,136);fill-rule:nonzero;"/>
                    <path d="M681.29,1443.24C676.933,1443.24 674.483,1445.69 674.483,1450.05L674.483,1558.96C674.483,1563.32 672.032,1565.77 667.675,1565.77L654.061,1565.77C649.704,1565.77 647.254,1563.32 647.254,1558.96L647.254,1450.05C647.254,1445.69 644.803,1443.24 640.447,1443.24L626.832,1443.24C622.475,1443.24 620.025,1445.69 620.025,1450.05L620.025,1565.77C620.025,1583.47 629.555,1593 647.254,1593L674.483,1593C692.182,1593 701.712,1583.47 701.712,1565.77L701.712,1450.05C701.712,1445.69 699.261,1443.24 694.904,1443.24L681.29,1443.24Z" style="fill:rgb(229,40,136);fill-rule:nonzero;"/>
                    <path d="M790.206,1493.07C794.562,1493.07 797.013,1490.62 797.013,1486.26L797.013,1484.36C797.013,1457.94 782.854,1443.51 756.169,1443.51C729.485,1443.51 715.326,1457.94 715.326,1484.36L715.326,1496.61C715.326,1518.66 727.307,1530.65 749.362,1530.65C762.704,1530.65 770.329,1532.82 769.784,1550.52C769.512,1559.24 765.155,1565.5 756.169,1565.5C747.184,1565.5 742.555,1560.6 742.555,1551.88L742.555,1549.98C742.555,1545.62 740.104,1543.17 735.748,1543.17L722.133,1543.17C717.777,1543.17 715.326,1545.62 715.326,1549.98L715.326,1551.88C715.326,1578.3 729.485,1592.73 756.169,1592.73C782.854,1592.73 797.013,1578.3 797.013,1551.88L797.013,1537.45C797.013,1515.4 785.032,1503.42 762.977,1503.42C749.635,1503.42 742.01,1500.69 742.555,1484.36C742.827,1475.64 747.184,1470.74 756.169,1470.74C765.155,1470.74 769.784,1475.64 769.784,1484.36L769.784,1486.26C769.784,1490.62 772.235,1493.07 776.591,1493.07L790.206,1493.07Z" style="fill:rgb(229,40,136);fill-rule:nonzero;"/>
                    <path d="M837.856,1443.24C820.157,1443.24 810.627,1452.77 810.627,1470.47L810.627,1586.19C810.627,1590.55 813.078,1593 817.435,1593L831.049,1593C835.406,1593 837.856,1590.55 837.856,1586.19L837.856,1545.35C837.856,1540.99 840.307,1538.54 844.663,1538.54L858.278,1538.54C862.635,1538.54 865.085,1540.99 865.085,1545.35L865.085,1586.19C865.085,1590.55 867.536,1593 871.892,1593L885.507,1593C889.863,1593 892.314,1590.55 892.314,1586.19L892.314,1470.47C892.314,1452.77 882.784,1443.24 865.085,1443.24L837.856,1443.24ZM858.278,1470.47C862.635,1470.47 865.085,1472.92 865.085,1477.28L865.085,1504.51C865.085,1508.86 862.635,1511.31 858.278,1511.31L844.663,1511.31C840.307,1511.31 837.856,1508.86 837.856,1504.51L837.856,1477.28C837.856,1472.92 840.307,1470.47 844.663,1470.47L858.278,1470.47Z" style="fill:rgb(229,40,136);fill-rule:nonzero;"/>
                </g>
                <g transform="matrix(-0.498459,0,0,0.498459,3800.07,1762.37)">
                    <path d="M1106.06,1473.15C1106.05,1473.2 1106.04,1473.23 1106.04,1473.23L1105.87,1473.81C1105.94,1473.58 1106,1473.37 1106.06,1473.15ZM1112,1450C1112,1450 1118.31,1417.17 1081,1414C1064.71,1412.61 1052.5,1423.42 1045.41,1434.9C1037.9,1447.07 1036,1460 1036,1460C1036,1460 1015.56,1432.96 991.534,1445C977.984,1451.79 969.549,1471.44 983.767,1494.14C993.717,1510.02 1013.78,1525.27 1048.6,1538.81C1055.61,1541.55 1063.56,1538.79 1067.37,1532.32C1071.43,1525.21 1076.26,1514.64 1079.26,1500.77C1080.7,1494.11 1080.96,1487.24 1080.03,1480.49C1079.6,1476.15 1078.65,1471.44 1077.16,1467.57C1073.32,1457.6 1073.81,1456.13 1073.48,1451.65C1073.28,1448.86 1075.93,1446.23 1079.77,1449.74C1081.31,1451.15 1082.4,1452.72 1083.15,1454.1C1084.33,1434.52 1085.97,1432.87 1092,1432.01C1092,1432.01 1095.64,1426.71 1100,1429C1100.72,1429.38 1104.8,1431.87 1106.84,1436.96C1108.31,1440.63 1109.15,1444.23 1109.55,1447.03C1110.97,1457.02 1108.26,1465.95 1106.83,1470.75C1107.87,1467.74 1108.9,1465.42 1109.76,1462.33C1111.04,1457.75 1111.96,1452 1112,1450ZM1106.83,1470.75C1106.58,1471.5 1106.32,1472.29 1106.06,1473.15C1106.15,1472.9 1106.44,1472.05 1106.83,1470.75Z" style="fill:rgb(93,55,141);"/>
                </g>
            </g>
        </g>
    </g>
</svg>
