<?xml version="1.0" encoding="UTF-8" standalone="no"?>
<!DOCTYPE svg PUBLIC "-//W3C//DTD SVG 1.1//EN" "http://www.w3.org/Graphics/SVG/1.1/DTD/svg11.dtd">
<svg width="100%" height="100%" viewBox="0 0 1219 205" version="1.1" xmlns="http://www.w3.org/2000/svg" xmlns:xlink="http://www.w3.org/1999/xlink" xml:space="preserve" xmlns:serif="http://www.serif.com/" style="fill-rule:evenodd;clip-rule:evenodd;stroke-linejoin:round;stroke-miterlimit:2;">
    <g transform="matrix(1,0,0,1,-2133.51,-3239.48)">
        <g transform="matrix(1,0,0,1,373.678,2436)">
            <g transform="matrix(0.255134,0,0,0.255134,1572.42,671.792)">
                <path d="M797.598,1094.23L797.598,1049.61C797.598,1031.76 812.201,1017.24 830.155,1017.24L2280.05,1017.24L2280.05,954.542L830.155,954.542C777.433,954.542 734.545,997.185 734.545,1049.61L734.545,1220.07C734.545,1272.49 777.436,1315.14 830.155,1315.14L2280.05,1315.14L2280.05,1252.45L837.323,1252.45C820.455,1253.81 798.004,1260.02 797.281,1284.86L797.281,1252.44L797.35,1252.44L797.589,1218.94L797.598,1218.95L797.598,1157.01L2269.34,1157.01L2269.34,1094.31L836.779,1094.31C819.999,1095.8 798.197,1102.17 797.483,1126.65L797.483,1094.23L797.598,1094.23Z" style="fill-rule:nonzero;"/>
                <path d="M2742.53,954.542L2654.05,954.542L2530.83,1079.74L2407.6,954.542L2319.12,954.542L2497.43,1135.7L2321.05,1314.89L2409.54,1314.89L2530.83,1191.66L2652.11,1314.89L2740.6,1314.89L2564.22,1135.7L2742.53,954.542Z" style="fill-rule:nonzero;"/>
                <path d="M2760.6,954.542L2760.6,1017.5L2933.43,1017.5L2933.43,1017.52L2973.53,1017.52C2956.69,1018.88 2934.26,1025.08 2933.43,1049.92L2933.43,1315.14L2996.49,1315.14L2996.49,1017.5L3169.33,1017.5L3169.33,954.542L2760.6,954.542Z" style="fill-rule:nonzero;"/>
                <path d="M3275.94,1094.23L3275.94,1049.61C3275.94,1031.76 3290.55,1017.24 3308.5,1017.24L3621.39,1017.24L3621.39,954.542L3308.5,954.542C3255.78,954.542 3212.89,997.186 3212.89,1049.61L3212.89,1220.08C3212.89,1272.5 3255.78,1315.14 3308.5,1315.14L3621.39,1315.14L3621.39,1252.45L3315.67,1252.45C3298.8,1253.81 3276.35,1260.02 3275.62,1284.86L3275.62,1252.44L3275.69,1252.44L3275.93,1218.94L3275.94,1218.95L3275.94,1157.01L3610.67,1157.01L3610.67,1094.31L3315.12,1094.31C3298.35,1095.8 3276.54,1102.17 3275.83,1126.65L3275.83,1094.23L3275.94,1094.23Z" style="fill-rule:nonzero;"/>
                <path d="M4003.3,956.387L4003.3,1229.95L3778.78,971.516C3765.24,955.931 3743.93,950.489 3724.49,957.658C3705.05,964.823 3692.49,982.747 3692.49,1003.32L3692.49,1314.15L3755.54,1314.15L3755.54,1040.59L3979.17,1297.99C3988.85,1309.13 4002.46,1315.14 4016.54,1315.14C4022.37,1315.14 4028.28,1314.11 4034.02,1312C4053.67,1304.76 4066.36,1286.65 4066.36,1265.86L4066.36,956.387L4003.3,956.387Z" style="fill-rule:nonzero;"/>
                <path d="M4546.8,1051.02C4546.8,997.821 4503.91,954.542 4451.19,954.542L4233.69,954.542C4180.97,954.542 4138.08,997.821 4138.08,1051.02L4138.08,1069.78C4138.08,1122.97 4180.97,1166.25 4233.69,1166.25L4451.19,1166.29C4469.14,1166.29 4483.74,1181.28 4483.74,1199.7L4483.74,1218.46C4483.74,1236.89 4469.14,1251.88 4451.19,1251.88L4233.69,1251.88C4215.74,1251.88 4201.14,1236.88 4201.14,1218.46L4201.14,1192.94L4138.08,1192.94L4138.08,1218.46C4138.08,1271.66 4180.97,1314.93 4233.69,1314.93L4451.19,1314.93C4503.91,1314.93 4546.8,1271.66 4546.8,1218.46L4546.8,1199.7C4546.8,1146.51 4503.91,1103.23 4451.19,1103.23L4233.69,1103.19C4215.74,1103.19 4201.14,1088.2 4201.14,1069.77L4201.14,1051.01C4201.14,1032.59 4215.74,1017.6 4233.69,1017.6L4451.19,1017.6C4469.14,1017.6 4483.74,1032.59 4483.74,1051.01L4483.74,1076.54L4546.8,1076.54L4546.8,1051.02Z" style="fill-rule:nonzero;"/>
                <path d="M4922.32,955.006L4723.23,954.084C4664.81,953.811 4617.07,1001.12 4616.8,1059.53L4615.62,1314.02L4678.68,1314.31L4679.23,1193.34L4964.1,1194.67L4963.54,1315.63L5026.6,1315.93L5027.78,1061.44C5028.05,1003.02 4980.74,955.275 4922.32,955.006L4922.32,955.006ZM4964.39,1131.61C4959.56,1131.59 4733.77,1130.05 4720.4,1130.53C4701.34,1131.22 4680.93,1140.03 4679.45,1161.47C4679.41,1161.94 4679.39,1162.42 4679.37,1162.89L4679.52,1130.29L4679.85,1059.83C4679.96,1036.18 4699.29,1017.03 4722.94,1017.14L4922.03,1018.06C4945.68,1018.17 4964.83,1037.5 4964.72,1061.14L4964.39,1131.61ZM4782.91,905.475C4791.76,902.142 4801.12,903.546 4808.61,909.317L4820.8,918.717C4830.36,926.088 4841.77,929.926 4853.37,929.978C4859.86,930.008 4866.4,928.856 4872.72,926.478C4890.33,919.845 4903,904.861 4906.61,886.393L4879.9,881.164C4878.08,890.44 4871.97,897.672 4863.12,901.005C4854.27,904.341 4844.91,902.941 4837.42,897.164L4825.23,887.766C4810.34,876.27 4790.92,873.372 4773.31,880.005C4755.7,886.638 4743.03,901.625 4739.41,920.09L4766.13,925.32C4767.94,916.04 4774.06,908.809 4782.91,905.475L4782.91,905.475Z" style="fill-rule:nonzero;"/>
                <path d="M5413.25,954.542L5196.5,954.542C5143.77,954.542 5100.88,997.304 5100.88,1049.89L5100.88,1219.78C5100.88,1272.36 5143.77,1315.14 5196.5,1315.14L5413.25,1315.14C5465.97,1315.14 5508.86,1272.36 5508.86,1219.78L5508.86,1049.89C5508.86,997.304 5465.97,954.542 5413.25,954.542ZM5445.81,1219.78C5445.81,1237.68 5431.2,1252.25 5413.25,1252.25L5204.04,1252.25C5187.17,1253.61 5164.66,1259.82 5163.94,1284.77L5163.94,1049.89C5163.94,1031.99 5178.55,1017.43 5196.5,1017.43L5413.25,1017.43C5431.2,1017.43 5445.81,1031.99 5445.81,1049.89L5445.81,1219.78Z" style="fill-rule:nonzero;"/>
            </g>
        </g>
        <g transform="matrix(1,0,0,1,373.678,2436)">
            <g transform="matrix(1.66633,0,0,0.69798,1267.81,338.699)">
                <path d="M997.233,665.895C1004.94,665.895 1012.33,673.201 1017.77,686.206C1023.22,699.211 1026.28,716.849 1026.28,735.241L1026.28,778.718L295.276,778.718L295.276,665.895L997.233,665.895ZM311.196,757.048L311.196,733.112L316.29,733.112C318.861,733.112 321.073,730.947 322.927,726.619C324.808,722.226 325.748,716.96 325.748,710.823L325.748,709.902C325.748,703.765 324.808,698.499 322.927,694.106C321.087,689.745 318.874,687.565 316.29,687.565L305.634,687.565L305.634,757.048L311.196,757.048ZM315.742,720.175L311.196,720.175L311.196,700.502L315.742,700.502C316.892,700.502 317.853,701.471 318.624,703.409C319.395,705.38 319.781,707.754 319.781,710.532C319.781,713.31 319.395,715.604 318.624,717.413C317.866,719.254 316.906,720.175 315.742,720.175ZM349.17,757.048L343.487,731.416C347.275,726.958 349.17,720.029 349.17,710.629L349.17,709.951C349.17,703.749 348.256,698.467 346.43,694.106C344.603,689.745 342.391,687.565 339.793,687.565L329.117,687.565L329.117,757.048L334.678,757.048L334.678,733.306L337.905,733.306L343.203,757.048L349.17,757.048ZM339.245,720.368L334.678,720.368L334.678,700.551L339.245,700.551C340.368,700.551 341.329,701.487 342.127,703.361C342.939,705.202 343.345,707.496 343.345,710.241C343.345,713.052 342.939,715.426 342.127,717.364C341.315,719.367 340.354,720.368 339.245,720.368ZM387.773,757.048C389.248,757.048 390.526,756.208 391.609,754.528C392.651,753.043 393.442,750.717 393.984,747.551C394.214,746.097 394.383,744.143 394.491,741.688C394.599,739.233 394.653,736.245 394.653,732.724L394.653,687.565L389.234,687.565L389.234,734.953C389.234,739.12 389.106,741.72 388.849,742.754C388.564,743.852 388.159,744.402 387.631,744.402L379.715,744.402L379.715,757.048L387.773,757.048ZM441.781,687.565L420.308,687.565L420.308,700.551L428.122,700.551L428.122,757.048L433.825,757.048L433.825,700.551L441.781,700.551L441.781,687.565ZM455.684,757.048C459.689,757.048 463.092,753.753 465.893,747.163C468.667,740.541 470.053,732.32 470.053,722.5C470.053,712.906 468.619,704.653 465.751,697.74C462.909,690.957 459.554,687.565 455.684,687.565C453.086,687.565 450.657,689.115 448.397,692.217C446.124,695.35 444.365,699.565 443.12,704.863C441.822,710.096 441.172,715.975 441.172,722.5C441.172,731.707 442.552,739.831 445.312,746.873C448.1,753.656 451.557,757.048 455.684,757.048ZM455.684,745.031C453.492,745.031 451.55,743.384 449.859,740.089C447.613,735.728 446.49,729.865 446.49,722.5C446.49,715.943 447.356,710.581 449.088,706.414C450.779,702.085 452.93,699.921 455.542,699.921C458.126,699.921 460.284,702.085 462.016,706.414C463.816,710.904 464.716,716.266 464.716,722.5C464.716,728.993 463.816,734.339 462.016,738.539C461.123,740.671 460.152,742.286 459.104,743.384C458.055,744.482 456.915,745.031 455.684,745.031ZM507.967,703.749C506.573,697.999 504.861,693.896 502.832,691.441C500.789,688.857 497.676,687.565 493.495,687.565L485.884,687.565L485.884,757.048L493.495,757.048C497.676,757.048 500.789,755.756 502.832,753.172C504.861,750.717 506.573,746.614 507.967,740.864C508.576,738.313 509.029,735.486 509.326,732.385C509.624,729.284 509.787,725.924 509.814,722.307C509.787,718.689 509.624,715.329 509.326,712.228C509.029,709.127 508.576,706.301 507.967,703.749ZM494.307,744.111L491.425,744.111L491.425,700.502L494.307,700.502C500.843,700.502 504.171,707.77 504.293,722.307C504.171,736.843 500.843,744.111 494.307,744.111ZM530.861,687.565L513.386,687.565L513.386,757.048L530.861,757.048L530.861,744.111L518.805,744.111L518.805,728.606L530.861,728.606L530.861,716.007L518.805,716.007L518.805,700.502L530.861,700.502L530.861,687.565ZM416.127,687.565L398.652,687.565L398.652,757.048L416.127,757.048L416.127,744.111L404.071,744.111L404.071,728.606L416.127,728.606L416.127,716.007L404.071,716.007L404.071,700.502L416.127,700.502L416.127,687.565ZM365.346,757.048C369.351,757.048 372.754,753.753 375.555,747.163C378.328,740.541 379.715,732.32 379.715,722.5C379.715,712.906 378.281,704.653 375.413,697.74C372.571,690.957 369.215,687.565 365.346,687.565C362.748,687.565 360.319,689.115 358.059,692.217C355.786,695.35 354.027,699.565 352.782,704.863C351.483,710.096 350.834,715.975 350.834,722.5C350.834,731.707 352.214,739.831 354.974,746.873C357.762,753.656 361.219,757.048 365.346,757.048ZM365.346,745.031C363.154,745.031 361.212,743.384 359.521,740.089C357.275,735.728 356.152,729.865 356.152,722.5C356.152,715.943 357.017,710.581 358.749,706.414C360.441,702.085 362.592,699.921 365.204,699.921C367.788,699.921 369.946,702.085 371.678,706.414C373.478,710.904 374.377,716.266 374.377,722.5C374.377,728.993 373.478,734.339 371.678,738.539C370.785,740.671 369.814,742.286 368.766,743.384C367.717,744.482 366.577,745.031 365.346,745.031Z" style="fill:rgb(27,53,86);"/>
            </g>
        </g>
    </g>
</svg>
