<?xml version="1.0" encoding="UTF-8" standalone="no"?>
<!DOCTYPE svg PUBLIC "-//W3C//DTD SVG 1.1//EN" "http://www.w3.org/Graphics/SVG/1.1/DTD/svg11.dtd">
<svg width="100%" height="100%" viewBox="0 0 445 445" version="1.1" xmlns="http://www.w3.org/2000/svg" xmlns:xlink="http://www.w3.org/1999/xlink" xml:space="preserve" xmlns:serif="http://www.serif.com/" style="fill-rule:evenodd;clip-rule:evenodd;stroke-linejoin:round;stroke-miterlimit:2;">
    <g transform="matrix(1,0,0,1,-2624.28,-718.841)">
        <g transform="matrix(1,0,0,1,-3,-2625)">
            <g transform="matrix(1,0,0,1,1705.28,2889.57)">
                <circle cx="1144.36" cy="676.636" r="233.143" style="fill:none;"/>
            </g>
        </g>
        <g transform="matrix(1,0,0,1,-3,-2625)">
            <g transform="matrix(1.21939,0,0,1.21939,2646.41,3362.98)">
                <path d="M166.69,-0.272C189.046,-0.267 209.287,8.793 223.937,23.454C238.591,38.108 247.662,58.356 247.662,80.72C247.662,103.424 238.071,128.938 222.707,147.967C208.207,165.918 188.514,178.282 166.68,178.282C144.846,178.282 125.153,165.918 110.653,147.967C95.289,128.938 85.698,103.414 85.698,80.72C85.698,58.356 94.759,38.108 109.424,23.453C124.072,8.805 144.31,-0.265 166.663,-0.272C166.663,-0.272 166.68,-0.272 166.686,-0.272C166.687,-0.272 166.689,-0.272 166.69,-0.272C167.189,-0.27 167.592,0.135 167.592,0.634C167.592,0.636 167.592,0.638 167.592,0.639C167.593,0.639 167.595,0.639 167.596,0.639C167.596,0.638 167.596,0.636 167.596,0.634C167.596,0.134 167.191,-0.272 166.69,-0.272ZM207.923,39.467C197.368,28.911 182.786,22.382 166.67,22.382C150.554,22.382 135.972,28.911 125.417,39.467C114.861,50.022 108.332,64.604 108.332,80.72C108.332,98.531 116.024,118.656 128.246,133.782C138.56,146.55 152.017,155.638 166.67,155.638C181.314,155.638 194.78,146.55 205.094,133.782C217.316,118.656 225.008,98.521 225.008,80.72C225.008,64.614 218.479,50.022 207.923,39.467ZM30.695,320.178L30.694,320.177C22.398,311.881 17.268,300.432 17.268,287.82L17.268,274.29C17.268,254.042 27.365,237.482 44.107,224.695C60.266,212.355 82.706,203.542 107.927,198.334C126.553,194.485 146.657,192.558 166.67,192.558C186.683,192.558 206.787,194.485 225.413,198.334C250.634,203.542 273.074,212.355 289.233,224.695C305.975,237.482 316.072,254.042 316.072,274.29L316.072,287.82C316.072,300.431 310.932,311.88 302.648,320.175L302.646,320.176L302.007,320.441C302.247,320.441 302.477,320.345 302.646,320.176C294.351,328.472 282.913,333.602 270.29,333.602L63.05,333.602C50.439,333.602 38.99,328.462 30.695,320.178C30.865,320.347 31.095,320.443 31.336,320.443C31.584,320.443 31.816,320.342 31.983,320.171C31.877,320.069 31.771,319.967 31.666,319.864C31.5,320.177 31.336,320.443 31.336,320.443L31.334,320.442L30.695,320.178ZM301.74,319.799L302.005,320.44C301.998,320.411 301.914,320.083 301.805,319.735C301.783,319.757 301.762,319.778 301.74,319.799ZM63.051,310.948C63.056,310.948 63.07,310.948 63.07,310.948L270.29,310.948C276.658,310.948 282.438,308.348 286.632,304.155C290.817,299.96 293.428,294.179 293.428,287.81L293.428,274.28C293.428,260.732 285.631,249.64 273.136,240.82C259.918,231.489 241.521,224.727 220.887,220.466C203.88,216.954 185.324,215.202 166.68,215.202C148.026,215.202 129.47,216.954 112.473,220.466C91.839,224.727 73.442,231.489 60.224,240.82C47.729,249.64 39.932,260.732 39.932,274.28L39.932,287.81C39.932,294.178 42.532,299.958 46.725,304.152C50.916,308.333 56.689,310.943 63.051,310.948Z" style="fill-rule:nonzero;"/>
            </g>
        </g>
    </g>
</svg>
