<?xml version="1.0" encoding="UTF-8" standalone="no"?>
<!DOCTYPE svg PUBLIC "-//W3C//DTD SVG 1.1//EN" "http://www.w3.org/Graphics/SVG/1.1/DTD/svg11.dtd">
<svg width="100%" height="100%" viewBox="0 0 359 307" version="1.1" xmlns="http://www.w3.org/2000/svg" xmlns:xlink="http://www.w3.org/1999/xlink" xml:space="preserve" xmlns:serif="http://www.serif.com/" style="fill-rule:evenodd;clip-rule:evenodd;stroke-linejoin:round;stroke-miterlimit:2;">
    <g transform="matrix(1,0,0,1,-1405.3,-704.289)">
        <g transform="matrix(1,0,0,1,-3,-2625)">
            <g transform="matrix(11.6361,6.8409,-6.8409,11.6361,1475.88,3046.15)">
                <path d="M29.827,30.364L19.046,36.702C17.701,37.493 15.97,37.044 15.179,35.698L7.746,23.055C6.955,21.71 7.405,19.979 8.75,19.189L26.757,8.602C28.102,7.811 29.833,8.261 30.624,9.606L37.493,21.29C39.254,24.285 38.252,28.147 35.256,29.908C33.545,30.915 31.55,31.019 29.827,30.364ZM33.918,18.465L29.202,10.442C29.177,10.399 29.15,10.359 29.12,10.321L22.718,21.826C22.696,21.865 22.672,21.901 22.646,21.935C22.5,22.169 22.24,22.325 21.944,22.325L9.231,22.325L16.601,34.862C16.931,35.422 17.651,35.608 18.21,35.28L28.167,29.426C27.569,28.955 27.047,28.367 26.638,27.672C24.877,24.676 25.879,20.815 28.875,19.053C30.46,18.122 32.288,17.963 33.918,18.465ZM27.302,10.195L9.586,20.611C9.552,20.631 9.519,20.652 9.488,20.675L21.227,20.675C21.377,20.675 21.515,20.594 21.588,20.463C22.415,18.978 27.302,10.195 27.302,10.195ZM31.689,29.111C32.61,29.187 33.563,28.99 34.42,28.486C36.631,27.186 37.371,24.337 36.071,22.126L36.071,22.126C35.708,21.51 35.226,21.008 34.671,20.633C33.233,19.662 31.306,19.538 29.711,20.476C27.5,21.775 26.761,24.625 28.06,26.836C28.49,27.565 29.087,28.135 29.776,28.524C30.364,28.856 31.018,29.056 31.689,29.111ZM31.558,21.99L32.82,24.136C32.93,24.324 32.962,24.547 32.906,24.757C32.853,24.967 32.716,25.147 32.529,25.257L32.519,25.263C32.331,25.374 32.108,25.405 31.898,25.35C31.688,25.296 31.508,25.16 31.398,24.972L30.136,22.826C30.026,22.639 29.994,22.416 30.049,22.205C30.103,21.995 30.239,21.816 30.427,21.706L30.437,21.699C30.624,21.59 30.848,21.558 31.058,21.612C31.269,21.667 31.448,21.803 31.558,21.99ZM32.863,25.837C33.255,25.606 33.761,25.737 33.992,26.13C34.223,26.522 34.092,27.028 33.699,27.259C33.307,27.49 32.801,27.359 32.57,26.966C32.339,26.574 32.47,26.068 32.863,25.837Z"/>
            </g>
        </g>
    </g>
</svg>
