<?xml version="1.0" encoding="UTF-8" standalone="no"?>
<!DOCTYPE svg PUBLIC "-//W3C//DTD SVG 1.1//EN" "http://www.w3.org/Graphics/SVG/1.1/DTD/svg11.dtd">
<svg width="100%" height="100%" viewBox="0 0 1890 370" version="1.1" xmlns="http://www.w3.org/2000/svg" xmlns:xlink="http://www.w3.org/1999/xlink" xml:space="preserve" xmlns:serif="http://www.serif.com/" style="fill-rule:evenodd;clip-rule:evenodd;stroke-linejoin:round;stroke-miterlimit:2;">
    <g transform="matrix(1,0,0,1,-295.276,-295.276)">
        <g transform="matrix(1.01772,0,0,1.01772,-133.202,-227.005)">
            <rect x="421.016" y="515.184" width="62.91" height="56.413" style="fill:rgb(249,226,15);"/>
            <rect x="421.016" y="615.141" width="63.41" height="254.828" style="fill:white;"/>
            <path d="M554.459,869.969L617.869,869.969L617.869,753.019C617.869,741.024 618.869,729.529 622.369,719.034C631.87,688.547 656.873,667.056 690.877,667.056C723.381,667.056 731.382,688.047 731.382,719.034L731.382,869.969L794.293,869.969L794.293,706.039C794.293,638.599 762.338,609.144 705.879,609.144C654.373,609.144 626.37,640.596 615.372,662.064L614.373,662.064C614.373,662.058 615.372,654.072 615.372,644.589L615.372,615.141L554.459,615.141L554.459,869.969Z" style="fill:white;fill-rule:nonzero;"/>
            <path d="M873.821,869.969L937.231,869.969L937.231,669.555L991.708,669.555L991.708,619.139L937.231,619.139L937.231,609.131C937.231,572.102 968.218,567.599 986.21,567.599C993.707,567.599 999.204,568.6 999.204,568.6L999.204,515.184C999.204,514.683 990.708,513.185 977.714,513.185C942.229,513.185 873.821,524.168 873.821,607.63L873.821,619.139L842.335,619.139L842.335,669.555L873.821,669.555L873.821,869.969Z" style="fill:white;fill-rule:nonzero;"/>
            <path d="M1015.26,742.555C1015.26,821.052 1077.67,875.966 1155.67,875.966C1233.16,875.966 1295.58,821.052 1295.58,742.555C1295.58,664.557 1233.16,609.144 1155.17,609.144C1077.67,609.144 1015.26,664.557 1015.26,742.555ZM1079.67,742.555C1079.67,695.556 1114.17,663.058 1155.67,663.058C1196.67,663.058 1231.17,695.556 1231.17,742.555C1231.17,790.053 1196.67,822.052 1155.67,822.052C1114.17,822.052 1079.67,790.053 1079.67,742.555Z" style="fill:white;fill-rule:nonzero;"/>
            <rect x="1344.12" y="806.559" width="63.41" height="63.41" style="fill:rgb(249,226,15);fill-rule:nonzero;"/>
        </g>
        <g transform="matrix(2.40371,0,0,2.40371,617.828,184.752)">
            <path d="M330.488,195.74L343.841,149.517L399.921,149.512C402.227,149.484 404.196,147.938 404.848,145.836L411.274,124.59L352.803,124.677C352.803,124.677 351.673,124.539 351.173,125.438C351.016,125.726 350.251,127.096 350.251,127.096C350.251,127.096 356.634,105.118 365.821,105.118L413.241,105.118C415.555,105.118 417.512,103.599 418.188,101.512L426.114,74.658L368.221,74.569C349.448,75.932 335.743,91.521 327.103,121.328L304.103,199.535L325.476,199.535C327.855,199.535 329.871,197.923 330.488,195.74" style="fill:rgb(249,226,15);fill-rule:nonzero;"/>
        </g>
        <g transform="matrix(2.40371,0,0,2.40371,617.828,184.966)">
            <path d="M467.929,151.025L447.873,151.025C447.873,151.025 446.993,151.06 446.764,151.06C445.873,151.06 444.873,152.67 444.873,152.67L462.209,113.028L470.677,148.785C470.697,148.879 471.116,151.025 467.929,151.025M504.702,196.424L475.576,74.569C474.632,74.579 460.181,74.569 458.343,74.569C454.695,74.569 453.396,76.298 452.611,77.869L399.149,199.446L420.108,199.446C424.264,199.446 424.98,197.623 425.617,196.213L437.847,168.588L470.862,168.445C474.8,168.445 475.892,171.174 475.892,171.174L482.571,199.446L500.202,199.446C500.202,199.446 505.43,199.446 504.702,196.424" style="fill:rgb(249,226,15);fill-rule:nonzero;"/>
        </g>
        <g transform="matrix(2.40371,0,0,2.40371,617.828,184.965)">
            <path d="M630.424,74.569C625.158,74.569 622.373,74.569 619.24,80.369L578.784,155.013C578.784,155.013 578.252,155.958 578.101,156.262C577.292,157.882 577.389,160.112 577.389,160.112L563.408,74.569L543.08,74.569C537.588,74.569 533.578,74.569 532.51,81.042L510.005,199.446C512.635,199.354 523.832,199.446 523.832,199.446C533.306,199.446 533.306,199.446 534.479,193.058L547.775,122.78L559.954,197.751C567.695,197.765 560.657,197.765 567.695,197.765L571.562,197.765C579.135,197.751 579.135,197.751 581.923,192.72L619.437,123.284L604.968,199.446L619.498,199.446C628.131,199.446 628.131,199.446 629.481,192.973L651.998,74.569L630.424,74.569Z" style="fill:rgb(249,226,15);fill-rule:nonzero;"/>
        </g>
    </g>
</svg>
