<?xml version="1.0" encoding="UTF-8" standalone="no"?>
<!DOCTYPE svg PUBLIC "-//W3C//DTD SVG 1.1//EN" "http://www.w3.org/Graphics/SVG/1.1/DTD/svg11.dtd">
<svg width="100%" height="100%" viewBox="0 0 470 470" version="1.1" xmlns="http://www.w3.org/2000/svg" xmlns:xlink="http://www.w3.org/1999/xlink" xml:space="preserve" xmlns:serif="http://www.serif.com/" style="fill-rule:evenodd;clip-rule:evenodd;stroke-linejoin:round;stroke-miterlimit:2;">
    <g transform="matrix(1,0,0,1,-685,-611)">
        <g transform="matrix(1,0,0,1,448,37)">
            <circle cx="472" cy="809" r="235" style="fill:white;fill-opacity:0.58;"/>
        </g>
        <g transform="matrix(3.2225,0,0,3.2225,765.32,691.32)">
            <path d="M83.099,25.084C81.079,25.084 79.305,26.145 78.298,27.737L60.911,21.534C60.911,18.318 58.37,15.796 55.235,15.796C52.427,15.796 50.09,17.846 49.637,20.527L31.094,23.241L28.917,21.064C28.539,20.686 27.96,20.594 27.483,20.837L25.664,21.764C25.143,21.499 24.605,21.275 24.051,21.095L23.42,19.154C23.254,18.645 22.78,18.3 22.245,18.3L18.973,18.3C18.438,18.3 17.963,18.645 17.797,19.154L17.167,21.095C16.613,21.275 16.074,21.499 15.554,21.764L13.735,20.837C13.259,20.594 12.679,20.686 12.301,21.064L9.987,23.378C9.608,23.756 9.516,24.336 9.759,24.813L10.687,26.632C10.421,27.152 10.197,27.69 10.018,28.244L8.077,28.875C7.568,29.041 7.223,29.515 7.223,30.05L7.223,33.323C7.223,33.858 7.568,34.332 8.077,34.498L10.018,35.129C10.198,35.682 10.421,36.221 10.687,36.741L9.759,38.56C9.516,39.037 9.608,39.616 9.987,39.995L12.301,42.309C12.679,42.687 13.259,42.779 13.735,42.536L15.554,41.609C16.074,41.874 16.613,42.098 17.167,42.278L17.797,44.219C17.963,44.728 18.438,45.072 18.973,45.072L19.448,45.072L19.675,48.385C17.325,49.079 15.603,51.256 15.603,53.829C15.603,56.96 18.151,59.507 21.282,59.507C24.026,59.507 26.321,57.55 26.846,54.958L42.304,54.944L41.292,56.928C41.051,57.405 41.142,57.985 41.52,58.363L44.287,61.13C44.665,61.508 45.245,61.6 45.721,61.357L48.008,60.192C48.688,60.548 49.397,60.842 50.126,61.071L50.919,63.51C51.085,64.019 51.558,64.364 52.093,64.364L53.461,64.364L58.821,70.996C55.877,74.69 58.512,80.204 63.262,80.204C66.393,80.204 68.94,77.656 68.94,74.526C68.94,73.114 68.42,71.822 67.564,70.827L73.597,62.745C77.138,63.545 80.524,60.845 80.524,57.208C80.524,55.366 79.642,53.728 78.28,52.69L82.804,36.432C86.051,36.599 88.777,34.006 88.777,30.762C88.777,27.631 86.229,25.084 83.099,25.084ZM56.501,27.008C58.193,26.621 59.598,25.478 60.341,23.954L77.466,30.064C77.336,31.125 77.499,32.162 77.93,33.109L65.801,42.248L66.808,40.27C67.052,39.793 66.959,39.214 66.581,38.835L63.814,36.069C63.436,35.69 62.857,35.599 62.38,35.842L60.094,37.007C59.414,36.651 58.705,36.357 57.975,36.127L57.183,33.689C57.016,33.179 56.542,32.835 56.006,32.835L55.776,32.835L56.501,27.008ZM20.609,36.606C17.896,36.606 15.69,34.399 15.69,31.687C15.69,28.974 17.896,26.767 20.609,26.767C23.322,26.767 25.528,28.974 25.528,31.687C25.528,34.399 23.322,36.606 20.609,36.606ZM41.579,44.675L39.141,45.468C38.631,45.633 38.285,46.107 38.285,46.643L38.285,50.556C38.285,51.091 38.631,51.565 39.141,51.731L41.424,52.473L26.798,52.487C26.259,50.275 24.422,48.565 22.141,48.217L21.925,45.072L22.245,45.072C22.78,45.072 23.254,44.728 23.42,44.219L24.051,42.277C24.605,42.098 25.143,41.874 25.663,41.609L27.483,42.536C27.959,42.779 28.539,42.687 28.917,42.309L30.879,40.347L42.121,41.896L42.457,42.556C42.103,43.236 41.808,43.945 41.579,44.675ZM44.287,36.069L41.52,38.835C41.391,38.964 41.299,39.117 41.238,39.28L31.114,37.885L30.531,36.741C30.796,36.221 31.021,35.682 31.2,35.128L33.14,34.498C33.65,34.332 33.995,33.858 33.995,33.323L33.995,30.05C33.995,29.515 33.65,29.041 33.14,28.875L31.199,28.244C31.02,27.69 30.796,27.152 30.531,26.632L30.978,25.756L49.769,23.006C50.331,25.008 51.965,26.566 54.009,27.017L53.287,32.835L52.093,32.835C51.558,32.835 51.085,33.179 50.919,33.689L50.126,36.127C49.397,36.357 48.688,36.651 48.008,37.006L45.721,35.842C45.245,35.599 44.665,35.69 44.287,36.069ZM47.927,48.6C47.927,45.222 50.673,42.475 54.051,42.475C57.429,42.475 60.175,45.222 60.175,48.6C60.175,51.976 57.429,54.723 54.051,54.723C50.673,54.723 47.927,51.976 47.927,48.6ZM65.585,69.348C64.036,68.649 62.258,68.685 60.741,69.44L56.539,64.241C56.836,64.098 57.076,63.84 57.183,63.51L57.975,61.071C58.705,60.841 59.414,60.547 60.094,60.192L62.38,61.357C62.857,61.6 63.436,61.508 63.814,61.13L66.581,58.363C66.959,57.985 67.052,57.405 66.808,56.928L65.731,54.813L69.233,56.361C68.915,58.42 69.771,60.423 71.325,61.657L65.585,69.348ZM76.005,51.649C73.693,51.169 71.395,52.164 70.128,54.055L66.604,52.497L68.962,51.731C69.47,51.565 69.815,51.091 69.815,50.556L69.815,46.643C69.815,46.107 69.47,45.633 68.962,45.468L66.637,44.712L79.419,35.081C79.728,35.344 80.064,35.575 80.423,35.768L76.005,51.649Z" style="fill:rgb(69,183,229);"/>
        </g>
    </g>
</svg>
