<?xml version="1.0" encoding="UTF-8" standalone="no"?>
<!DOCTYPE svg PUBLIC "-//W3C//DTD SVG 1.1//EN" "http://www.w3.org/Graphics/SVG/1.1/DTD/svg11.dtd">
<svg width="100%" height="100%" viewBox="0 0 783 182" version="1.1" xmlns="http://www.w3.org/2000/svg" xmlns:xlink="http://www.w3.org/1999/xlink" xml:space="preserve" xmlns:serif="http://www.serif.com/" style="fill-rule:evenodd;clip-rule:evenodd;stroke-linejoin:round;stroke-miterlimit:2;">
    <g id="Artboard1" transform="matrix(1,0,0,1,0,39)">
        <rect x="0" y="-39" width="783" height="182" style="fill:none;"/>
        <g transform="matrix(1,0,0,1,-666.93,-506.57)">
            <g transform="matrix(1,0,0,1,0.46,2.315)">
                <g transform="matrix(1,0,0,1,550,200)">
                    <g>
                        <path d="M116.93,307.95L158.33,307.95L158.33,321.75L132.11,321.75L132.11,347.28L152.95,347.28L152.95,361.08L132.11,361.08L132.11,390.75L158.33,390.75L158.33,404.55L116.93,404.55L116.93,307.95Z" style="fill-rule:nonzero;"/>
                    </g>
                </g>
                <g transform="matrix(1,0,0,1,550,200)">
                    <g>
                        <path d="M167.02,307.95L188.69,307.95L198.35,377.09L198.63,377.09L208.29,307.95L229.96,307.95L229.96,404.55L215.61,404.55L215.61,331.41L215.33,331.41L204.29,404.55L191.59,404.55L180.55,331.41L180.27,331.41L180.27,404.55L167.02,404.55L167.02,307.95Z" style="fill-rule:nonzero;"/>
                    </g>
                </g>
                <g transform="matrix(1,0,0,1,550,200)">
                    <g>
                        <path d="M241.26,307.95L264.17,307.95C271.99,307.95 277.69,309.77 281.28,313.4C284.87,317.04 286.66,322.62 286.66,330.17L286.66,334.03C286.66,339 285.85,343.05 284.24,346.17C282.63,349.3 280.17,351.55 276.86,352.93L276.86,353.21C284.4,355.79 288.18,362.5 288.18,373.36L288.18,381.64C288.18,389.09 286.22,394.77 282.31,398.68C278.4,402.59 272.67,404.55 265.13,404.55L241.26,404.55L241.26,307.95ZM262.38,347.28C265.42,347.28 267.69,346.5 269.21,344.93C270.73,343.37 271.49,340.74 271.49,337.06L271.49,331.68C271.49,328.18 270.87,325.66 269.63,324.09C268.39,322.53 266.43,321.74 263.76,321.74L256.45,321.74L256.45,347.27L262.38,347.27L262.38,347.28ZM265.14,390.75C267.81,390.75 269.78,390.04 271.07,388.61C272.36,387.18 273,384.72 273,381.23L273,372.81C273,368.39 272.24,365.34 270.72,363.63C269.2,361.93 266.69,361.08 263.2,361.08L256.44,361.08L256.44,390.75L265.14,390.75Z" style="fill-rule:nonzero;"/>
                    </g>
                </g>
                <g transform="matrix(1,0,0,1,550,200)">
                    <g>
                        <path d="M308.75,307.95L329.31,307.95L345.04,404.55L329.86,404.55L327.1,385.37L327.1,385.65L309.85,385.65L307.09,404.56L293.01,404.56L308.74,307.96L308.75,307.95ZM325.31,372.53L318.55,324.78L318.27,324.78L311.65,372.53L325.31,372.53Z" style="fill-rule:nonzero;"/>
                    </g>
                </g>
                <g transform="matrix(1,0,0,1,550,200)">
                    <g>
                        <rect x="352.35" y="307.95" width="15.18" height="96.6"/>
                    </g>
                </g>
                <g transform="matrix(1,0,0,1,550,200)">
                    <g>
                        <path d="M392.23,355.14L375.53,307.94L391.54,307.94L401.75,339.13L402.03,339.13L412.52,307.94L426.87,307.94L410.17,355.14L427.7,404.54L411.69,404.54L400.65,370.87L400.37,370.87L389.05,404.54L374.7,404.54L392.23,355.14Z" style="fill-rule:nonzero;"/>
                    </g>
                </g>
                <g transform="matrix(1,0,0,1,550,200)">
                    <g>
                        <path d="M446.88,307.95L467.44,307.95L483.17,404.55L467.99,404.55L465.23,385.37L465.23,385.65L447.98,385.65L445.22,404.56L431.14,404.56L446.87,307.96L446.88,307.95ZM463.44,372.53L456.68,324.78L456.4,324.78L449.78,372.53L463.44,372.53Z" style="fill-rule:nonzero;"/>
                    </g>
                </g>
                <g transform="matrix(1,0,0,1,550,200)">
                    <g>
                        <path d="M490.48,307.95L513.66,307.95C521.2,307.95 526.86,309.97 530.63,314.02C534.4,318.07 536.29,324 536.29,331.82L536.29,380.67C536.29,388.49 534.4,394.42 530.63,398.47C526.86,402.52 521.2,404.54 513.66,404.54L490.48,404.54L490.48,307.94L490.48,307.95ZM513.39,390.75C515.87,390.75 517.78,390.01 519.12,388.54C520.45,387.07 521.12,384.68 521.12,381.36L521.12,331.13C521.12,327.82 520.45,325.43 519.12,323.95C517.79,322.48 515.88,321.74 513.39,321.74L505.66,321.74L505.66,390.74L513.39,390.74L513.39,390.75Z" style="fill-rule:nonzero;"/>
                    </g>
                </g>
                <g transform="matrix(1,0,0,1,550,200)">
                    <g>
                        <path d="M551.34,399.58C547.38,395.35 545.41,389.37 545.41,381.64L545.41,330.86C545.41,323.13 547.39,317.15 551.34,312.92C555.29,308.69 561,306.57 568.45,306.57C575.9,306.57 581.61,308.69 585.56,312.92C589.51,317.15 591.49,323.13 591.49,330.86L591.49,381.64C591.49,389.37 589.51,395.35 585.56,399.58C581.6,403.81 575.9,405.93 568.45,405.93C561,405.93 555.29,403.81 551.34,399.58ZM576.32,382.6L576.32,329.88C576.32,323.53 573.7,320.36 568.45,320.36C563.2,320.36 560.58,323.53 560.58,329.88L560.58,382.6C560.58,388.95 563.2,392.12 568.45,392.12C573.7,392.12 576.32,388.95 576.32,382.6Z" style="fill-rule:nonzero;"/>
                    </g>
                </g>
                <g transform="matrix(1,0,0,1,550,200)">
                    <g>
                        <path d="M601.71,307.95L624.2,307.95C632.02,307.95 637.72,309.77 641.31,313.4C644.9,317.04 646.69,322.62 646.69,330.17L646.69,336.1C646.69,346.13 643.38,352.48 636.75,355.14L636.75,355.42C640.43,356.52 643.03,358.78 644.55,362.18C646.07,365.58 646.83,370.14 646.83,375.84L646.83,392.81C646.83,395.57 646.92,397.8 647.11,399.5C647.29,401.2 647.75,402.88 648.49,404.54L633.03,404.54C632.48,402.98 632.11,401.5 631.93,400.12C631.74,398.74 631.65,396.26 631.65,392.67L631.65,375.01C631.65,370.59 630.94,367.51 629.51,365.76C628.08,364.01 625.62,363.14 622.13,363.14L616.89,363.14L616.89,404.54L601.71,404.54L601.71,307.94L601.71,307.95ZM622.41,349.35C625.45,349.35 627.72,348.57 629.24,347C630.76,345.44 631.52,342.81 631.52,339.13L631.52,331.68C631.52,328.18 630.9,325.66 629.66,324.09C628.42,322.53 626.46,321.74 623.79,321.74L616.89,321.74L616.89,349.34L622.41,349.34L622.41,349.35Z" style="fill-rule:nonzero;"/>
                    </g>
                </g>
                <g transform="matrix(1,0,0,1,550,200)">
                    <g>
                        <path d="M657.32,307.95L698.72,307.95L698.72,321.75L672.5,321.75L672.5,347.28L693.34,347.28L693.34,361.08L672.5,361.08L672.5,390.75L698.72,390.75L698.72,404.55L657.32,404.55L657.32,307.95Z" style="fill-rule:nonzero;"/>
                    </g>
                </g>
                <g transform="matrix(1,0,0,1,550,200)">
                    <g>
                        <path d="M710.73,399.65C706.96,395.46 705.07,389.46 705.07,381.64L705.07,376.12L719.42,376.12L719.42,382.74C719.42,389 722.04,392.12 727.29,392.12C729.86,392.12 731.82,391.36 733.16,389.84C734.49,388.32 735.16,385.86 735.16,382.46C735.16,378.41 734.24,374.85 732.4,371.77C730.56,368.69 727.16,364.99 722.19,360.66C715.93,355.14 711.56,350.15 709.08,345.69C706.6,341.23 705.35,336.19 705.35,330.58C705.35,322.94 707.28,317.03 711.15,312.85C715.01,308.66 720.62,306.57 727.99,306.57C735.36,306.57 740.76,308.66 744.48,312.85C748.21,317.04 750.07,323.04 750.07,330.86L750.07,334.86L735.72,334.86L735.72,329.89C735.72,326.58 735.08,324.16 733.79,322.65C732.5,321.13 730.62,320.37 728.13,320.37C723.07,320.37 720.54,323.45 720.54,329.62C720.54,333.12 721.48,336.38 723.37,339.42C725.25,342.46 728.68,346.14 733.65,350.46C740,355.98 744.37,361 746.76,365.5C749.15,370.01 750.35,375.3 750.35,381.37C750.35,389.28 748.39,395.36 744.49,399.59C740.58,403.82 734.9,405.94 727.45,405.94C720,405.94 714.52,403.85 710.75,399.66L710.73,399.65Z" style="fill-rule:nonzero;"/>
                    </g>
                </g>
                <g transform="matrix(1,0,0,1,550,200)">
                    <rect x="768.03" y="307.95" width="130.98" height="97.3" style="fill:rgb(27,53,86);"/>
                </g>
                <g transform="matrix(1,0,0,1,550,200)">
                    <g>
                        <rect x="803.83" y="312.64" width="14.08" height="89.6" style="fill:rgb(69,183,229);"/>
                    </g>
                </g>
                <g transform="matrix(1,0,0,1,550,200)">
                    <g>
                        <path d="M839.29,312.64L858.36,312.64L872.95,402.24L858.87,402.24L856.31,384.45L856.31,384.71L840.31,384.71L837.75,402.25L824.69,402.25L839.28,312.65L839.29,312.64ZM854.65,372.55L848.38,328.26L848.12,328.26L841.98,372.55L854.65,372.55Z" style="fill:rgb(69,183,229);fill-rule:nonzero;"/>
                    </g>
                </g>
            </g>
            <g transform="matrix(0.743541,0,0,0.743541,1339.4,501.96)">
                <g transform="matrix(29.317,0,0,29.317,-7.03475,174)">
                    <path d="M0.411,-0.591C0.411,-0.588 0.41,-0.585 0.408,-0.583C0.405,-0.58 0.402,-0.579 0.399,-0.579L0.19,-0.579C0.187,-0.579 0.185,-0.577 0.185,-0.574L0.185,-0.416C0.185,-0.413 0.187,-0.411 0.19,-0.411L0.31,-0.411C0.313,-0.411 0.316,-0.41 0.319,-0.408C0.321,-0.405 0.322,-0.402 0.322,-0.399L0.322,-0.302C0.322,-0.299 0.321,-0.296 0.319,-0.294C0.316,-0.291 0.313,-0.29 0.31,-0.29L0.19,-0.29C0.187,-0.29 0.185,-0.288 0.185,-0.285L0.185,-0.126C0.185,-0.123 0.187,-0.121 0.19,-0.121L0.399,-0.121C0.402,-0.121 0.405,-0.12 0.408,-0.118C0.41,-0.115 0.411,-0.112 0.411,-0.109L0.411,-0.012C0.411,-0.009 0.41,-0.006 0.408,-0.004C0.405,-0.001 0.402,-0 0.399,-0L0.056,-0C0.053,-0 0.05,-0.001 0.048,-0.004C0.045,-0.006 0.044,-0.009 0.044,-0.012L0.044,-0.688C0.044,-0.691 0.045,-0.694 0.048,-0.697C0.05,-0.699 0.053,-0.7 0.056,-0.7L0.399,-0.7C0.402,-0.7 0.405,-0.699 0.408,-0.697C0.41,-0.694 0.411,-0.691 0.411,-0.688L0.411,-0.591Z" style="fill-rule:nonzero;"/>
                </g>
                <g transform="matrix(29.317,0,0,29.317,5.80609,174)">
                    <path d="M0.224,0.008C0.185,0.008 0.151,0 0.122,-0.015C0.093,-0.03 0.07,-0.052 0.054,-0.08C0.038,-0.107 0.03,-0.139 0.03,-0.175L0.03,-0.204C0.03,-0.207 0.031,-0.21 0.034,-0.213C0.036,-0.215 0.039,-0.216 0.042,-0.216L0.157,-0.216C0.16,-0.216 0.163,-0.215 0.166,-0.213C0.168,-0.21 0.169,-0.207 0.169,-0.204L0.169,-0.182C0.169,-0.161 0.174,-0.145 0.185,-0.132C0.196,-0.119 0.209,-0.113 0.225,-0.113C0.241,-0.113 0.254,-0.119 0.265,-0.131C0.276,-0.143 0.281,-0.159 0.281,-0.178C0.281,-0.198 0.274,-0.215 0.261,-0.23C0.248,-0.244 0.222,-0.265 0.183,-0.293C0.15,-0.317 0.123,-0.338 0.102,-0.357C0.081,-0.376 0.064,-0.399 0.049,-0.426C0.034,-0.453 0.027,-0.485 0.027,-0.521C0.027,-0.578 0.045,-0.623 0.08,-0.657C0.115,-0.691 0.162,-0.708 0.22,-0.708C0.279,-0.708 0.326,-0.69 0.362,-0.655C0.397,-0.62 0.415,-0.573 0.415,-0.516L0.415,-0.492C0.415,-0.489 0.414,-0.486 0.412,-0.484C0.409,-0.481 0.406,-0.48 0.403,-0.48L0.288,-0.48C0.285,-0.48 0.282,-0.481 0.28,-0.484C0.277,-0.486 0.276,-0.489 0.276,-0.492L0.276,-0.519C0.276,-0.54 0.271,-0.556 0.261,-0.569C0.25,-0.581 0.237,-0.587 0.22,-0.587C0.204,-0.587 0.191,-0.581 0.181,-0.57C0.171,-0.558 0.166,-0.542 0.166,-0.521C0.166,-0.501 0.172,-0.483 0.185,-0.468C0.198,-0.453 0.223,-0.431 0.26,-0.404C0.301,-0.373 0.333,-0.349 0.354,-0.33C0.375,-0.311 0.391,-0.29 0.403,-0.267C0.414,-0.244 0.42,-0.216 0.42,-0.184C0.42,-0.125 0.402,-0.079 0.366,-0.044C0.33,-0.009 0.283,0.008 0.224,0.008Z" style="fill-rule:nonzero;"/>
                </g>
                <g transform="matrix(29.317,0,0,29.317,18.6469,174)">
                    <path d="M0.432,-0.7C0.435,-0.7 0.438,-0.699 0.441,-0.697C0.443,-0.694 0.444,-0.691 0.444,-0.688L0.444,-0.591C0.444,-0.588 0.443,-0.585 0.441,-0.583C0.438,-0.58 0.435,-0.579 0.432,-0.579L0.307,-0.579C0.304,-0.579 0.302,-0.577 0.302,-0.574L0.302,-0.012C0.302,-0.009 0.301,-0.006 0.299,-0.004C0.296,-0.001 0.293,-0 0.29,-0L0.173,-0C0.17,-0 0.167,-0.001 0.165,-0.004C0.162,-0.006 0.161,-0.009 0.161,-0.012L0.161,-0.574C0.161,-0.577 0.159,-0.579 0.156,-0.579L0.036,-0.579C0.033,-0.579 0.03,-0.58 0.028,-0.583C0.025,-0.585 0.024,-0.588 0.024,-0.591L0.024,-0.688C0.024,-0.691 0.025,-0.694 0.028,-0.697C0.03,-0.699 0.033,-0.7 0.036,-0.7L0.432,-0.7Z" style="fill-rule:nonzero;"/>
                </g>
                <g transform="matrix(29.317,0,0,29.317,32.3673,174)">
                    <path d="M0.24,0.008C0.18,0.008 0.132,-0.011 0.096,-0.049C0.059,-0.086 0.041,-0.136 0.041,-0.199L0.041,-0.688C0.041,-0.691 0.042,-0.694 0.045,-0.697C0.047,-0.699 0.05,-0.7 0.053,-0.7L0.17,-0.7C0.173,-0.7 0.176,-0.699 0.179,-0.697C0.181,-0.694 0.182,-0.691 0.182,-0.688L0.182,-0.185C0.182,-0.164 0.187,-0.146 0.198,-0.133C0.209,-0.12 0.223,-0.113 0.24,-0.113C0.257,-0.113 0.271,-0.12 0.282,-0.133C0.292,-0.146 0.297,-0.164 0.297,-0.185L0.297,-0.688C0.297,-0.691 0.298,-0.694 0.301,-0.697C0.303,-0.699 0.306,-0.7 0.309,-0.7L0.426,-0.7C0.429,-0.7 0.432,-0.699 0.435,-0.697C0.437,-0.694 0.438,-0.691 0.438,-0.688L0.438,-0.199C0.438,-0.136 0.42,-0.086 0.384,-0.049C0.347,-0.011 0.299,0.008 0.24,0.008Z" style="fill-rule:nonzero;"/>
                </g>
                <g transform="matrix(29.317,0,0,29.317,46.2342,174)">
                    <path d="M0.056,-0C0.053,-0 0.05,-0.001 0.048,-0.004C0.045,-0.006 0.044,-0.009 0.044,-0.012L0.044,-0.688C0.044,-0.691 0.045,-0.694 0.048,-0.697C0.05,-0.699 0.053,-0.7 0.056,-0.7L0.237,-0.7C0.298,-0.7 0.346,-0.682 0.383,-0.647C0.42,-0.612 0.438,-0.565 0.438,-0.506L0.438,-0.194C0.438,-0.135 0.42,-0.088 0.383,-0.053C0.346,-0.018 0.298,-0 0.237,-0L0.056,-0ZM0.185,-0.126C0.185,-0.123 0.187,-0.121 0.19,-0.121L0.235,-0.122C0.253,-0.123 0.268,-0.13 0.279,-0.145C0.29,-0.16 0.296,-0.179 0.297,-0.203L0.297,-0.497C0.297,-0.522 0.291,-0.542 0.28,-0.557C0.269,-0.572 0.253,-0.579 0.234,-0.579L0.19,-0.579C0.187,-0.579 0.185,-0.577 0.185,-0.574L0.185,-0.126Z" style="fill-rule:nonzero;"/>
                </g>
                <g transform="matrix(29.317,0,0,29.317,59.6027,174)">
                    <path d="M0.338,-0C0.33,-0 0.326,-0.004 0.325,-0.011L0.309,-0.107C0.309,-0.11 0.307,-0.112 0.303,-0.112L0.176,-0.112C0.172,-0.112 0.17,-0.11 0.17,-0.107L0.154,-0.011C0.153,-0.004 0.149,-0 0.141,-0L0.024,-0C0.015,-0 0.012,-0.004 0.014,-0.013L0.161,-0.689C0.162,-0.696 0.167,-0.7 0.174,-0.7L0.309,-0.7C0.316,-0.7 0.321,-0.696 0.322,-0.689L0.468,-0.013L0.469,-0.009C0.469,-0.003 0.465,-0 0.458,-0L0.338,-0ZM0.19,-0.226C0.19,-0.223 0.191,-0.221 0.194,-0.221L0.284,-0.221C0.287,-0.221 0.289,-0.223 0.288,-0.226L0.241,-0.499C0.24,-0.501 0.239,-0.502 0.238,-0.502C0.237,-0.502 0.236,-0.501 0.235,-0.499L0.19,-0.226Z" style="fill-rule:nonzero;"/>
                </g>
                <g transform="matrix(29.317,0,0,29.317,73.7335,174)">
                    <path d="M0.33,-0.688C0.33,-0.691 0.331,-0.694 0.334,-0.697C0.336,-0.699 0.339,-0.7 0.342,-0.7L0.458,-0.7C0.461,-0.7 0.464,-0.699 0.467,-0.697C0.469,-0.694 0.47,-0.691 0.47,-0.688L0.47,-0.012C0.47,-0.009 0.469,-0.006 0.467,-0.004C0.464,-0.001 0.461,-0 0.458,-0L0.326,-0C0.319,-0 0.315,-0.003 0.313,-0.01L0.189,-0.397C0.188,-0.399 0.187,-0.4 0.186,-0.4C0.184,-0.399 0.183,-0.398 0.183,-0.396L0.184,-0.012C0.184,-0.009 0.183,-0.006 0.181,-0.004C0.178,-0.001 0.175,-0 0.172,-0L0.056,-0C0.053,-0 0.05,-0.001 0.048,-0.004C0.045,-0.006 0.044,-0.009 0.044,-0.012L0.044,-0.688C0.044,-0.691 0.045,-0.694 0.048,-0.697C0.05,-0.699 0.053,-0.7 0.056,-0.7L0.187,-0.7C0.194,-0.7 0.198,-0.697 0.2,-0.69L0.325,-0.303C0.326,-0.301 0.327,-0.3 0.329,-0.301C0.33,-0.301 0.331,-0.302 0.331,-0.304L0.33,-0.688Z" style="fill-rule:nonzero;"/>
                </g>
                <g transform="matrix(29.317,0,0,29.317,88.8024,174)">
                    <path d="M0.432,-0.7C0.435,-0.7 0.438,-0.699 0.441,-0.697C0.443,-0.694 0.444,-0.691 0.444,-0.688L0.444,-0.591C0.444,-0.588 0.443,-0.585 0.441,-0.583C0.438,-0.58 0.435,-0.579 0.432,-0.579L0.307,-0.579C0.304,-0.579 0.302,-0.577 0.302,-0.574L0.302,-0.012C0.302,-0.009 0.301,-0.006 0.299,-0.004C0.296,-0.001 0.293,-0 0.29,-0L0.173,-0C0.17,-0 0.167,-0.001 0.165,-0.004C0.162,-0.006 0.161,-0.009 0.161,-0.012L0.161,-0.574C0.161,-0.577 0.159,-0.579 0.156,-0.579L0.036,-0.579C0.033,-0.579 0.03,-0.58 0.028,-0.583C0.025,-0.585 0.024,-0.588 0.024,-0.591L0.024,-0.688C0.024,-0.691 0.025,-0.694 0.028,-0.697C0.03,-0.699 0.033,-0.7 0.036,-0.7L0.432,-0.7Z" style="fill-rule:nonzero;"/>
                </g>
                <g transform="matrix(29.317,0,0,29.317,102.523,174)">
                    <path d="M0.411,-0.591C0.411,-0.588 0.41,-0.585 0.408,-0.583C0.405,-0.58 0.402,-0.579 0.399,-0.579L0.19,-0.579C0.187,-0.579 0.185,-0.577 0.185,-0.574L0.185,-0.416C0.185,-0.413 0.187,-0.411 0.19,-0.411L0.31,-0.411C0.313,-0.411 0.316,-0.41 0.319,-0.408C0.321,-0.405 0.322,-0.402 0.322,-0.399L0.322,-0.302C0.322,-0.299 0.321,-0.296 0.319,-0.294C0.316,-0.291 0.313,-0.29 0.31,-0.29L0.19,-0.29C0.187,-0.29 0.185,-0.288 0.185,-0.285L0.185,-0.126C0.185,-0.123 0.187,-0.121 0.19,-0.121L0.399,-0.121C0.402,-0.121 0.405,-0.12 0.408,-0.118C0.41,-0.115 0.411,-0.112 0.411,-0.109L0.411,-0.012C0.411,-0.009 0.41,-0.006 0.408,-0.004C0.405,-0.001 0.402,-0 0.399,-0L0.056,-0C0.053,-0 0.05,-0.001 0.048,-0.004C0.045,-0.006 0.044,-0.009 0.044,-0.012L0.044,-0.688C0.044,-0.691 0.045,-0.694 0.048,-0.697C0.05,-0.699 0.053,-0.7 0.056,-0.7L0.399,-0.7C0.402,-0.7 0.405,-0.699 0.408,-0.697C0.41,-0.694 0.411,-0.691 0.411,-0.688L0.411,-0.591Z" style="fill-rule:nonzero;"/>
                </g>
                <g transform="matrix(29.317,0,0,29.317,115.364,174)">
                    <path d="M0.224,0.008C0.185,0.008 0.151,0 0.122,-0.015C0.093,-0.03 0.07,-0.052 0.054,-0.08C0.038,-0.107 0.03,-0.139 0.03,-0.175L0.03,-0.204C0.03,-0.207 0.031,-0.21 0.034,-0.213C0.036,-0.215 0.039,-0.216 0.042,-0.216L0.157,-0.216C0.16,-0.216 0.163,-0.215 0.166,-0.213C0.168,-0.21 0.169,-0.207 0.169,-0.204L0.169,-0.182C0.169,-0.161 0.174,-0.145 0.185,-0.132C0.196,-0.119 0.209,-0.113 0.225,-0.113C0.241,-0.113 0.254,-0.119 0.265,-0.131C0.276,-0.143 0.281,-0.159 0.281,-0.178C0.281,-0.198 0.274,-0.215 0.261,-0.23C0.248,-0.244 0.222,-0.265 0.183,-0.293C0.15,-0.317 0.123,-0.338 0.102,-0.357C0.081,-0.376 0.064,-0.399 0.049,-0.426C0.034,-0.453 0.027,-0.485 0.027,-0.521C0.027,-0.578 0.045,-0.623 0.08,-0.657C0.115,-0.691 0.162,-0.708 0.22,-0.708C0.279,-0.708 0.326,-0.69 0.362,-0.655C0.397,-0.62 0.415,-0.573 0.415,-0.516L0.415,-0.492C0.415,-0.489 0.414,-0.486 0.412,-0.484C0.409,-0.481 0.406,-0.48 0.403,-0.48L0.288,-0.48C0.285,-0.48 0.282,-0.481 0.28,-0.484C0.277,-0.486 0.276,-0.489 0.276,-0.492L0.276,-0.519C0.276,-0.54 0.271,-0.556 0.261,-0.569C0.25,-0.581 0.237,-0.587 0.22,-0.587C0.204,-0.587 0.191,-0.581 0.181,-0.57C0.171,-0.558 0.166,-0.542 0.166,-0.521C0.166,-0.501 0.172,-0.483 0.185,-0.468C0.198,-0.453 0.223,-0.431 0.26,-0.404C0.301,-0.373 0.333,-0.349 0.354,-0.33C0.375,-0.311 0.391,-0.29 0.403,-0.267C0.414,-0.244 0.42,-0.216 0.42,-0.184C0.42,-0.125 0.402,-0.079 0.366,-0.044C0.33,-0.009 0.283,0.008 0.224,0.008Z" style="fill-rule:nonzero;"/>
                </g>
            </g>
        </g>
    </g>
</svg>
