<?xml version="1.0" encoding="UTF-8" standalone="no"?>
<!DOCTYPE svg PUBLIC "-//W3C//DTD SVG 1.1//EN" "http://www.w3.org/Graphics/SVG/1.1/DTD/svg11.dtd">
<svg width="100%" height="100%" viewBox="0 0 783 182" version="1.1" xmlns="http://www.w3.org/2000/svg" xmlns:xlink="http://www.w3.org/1999/xlink" xml:space="preserve" xmlns:serif="http://www.serif.com/" style="fill-rule:evenodd;clip-rule:evenodd;stroke-linejoin:round;stroke-miterlimit:2;">
    <g id="Artboard1" transform="matrix(1,0,0,1,0,39)">
        <rect x="0" y="-39" width="783" height="182" style="fill:none;"/>
        <g transform="matrix(0.854122,0,0,0.854122,-207.736,-567.302)">
            <g>
                <rect x="964.94" y="670.34" width="154.8" height="114.99" style="fill:rgb(27,53,86);"/>
                <g>
                    <rect x="1007.26" y="675.89" width="16.64" height="105.9" style="fill:rgb(69,183,229);"/>
                    <path d="M1049.16,675.89L1071.7,675.89L1088.95,781.79L1072.31,781.79L1069.28,760.76L1069.28,761.06L1050.37,761.06L1047.34,781.79L1031.91,781.79L1049.16,675.89ZM1067.32,746.69L1059.91,694.35L1059.61,694.35L1052.35,746.69L1067.33,746.69L1067.32,746.69Z" style="fill:rgb(69,183,229);fill-rule:nonzero;"/>
                </g>
                <g transform="matrix(1,0,0,1,277.71,785.47)">
                    <g transform="matrix(168,0,0,168,0,0)">
                        <path d="M0.196,0.01C0.302,0.01 0.358,-0.054 0.358,-0.162L0.358,-0.261L0.254,-0.261L0.254,-0.154C0.254,-0.108 0.232,-0.09 0.199,-0.09C0.166,-0.09 0.144,-0.108 0.144,-0.154L0.144,-0.545C0.144,-0.591 0.166,-0.61 0.199,-0.61C0.232,-0.61 0.254,-0.591 0.254,-0.545L0.254,-0.464L0.358,-0.464L0.358,-0.538C0.358,-0.646 0.302,-0.71 0.196,-0.71C0.09,-0.71 0.034,-0.646 0.034,-0.538L0.034,-0.162C0.034,-0.054 0.09,0.01 0.196,0.01Z" style="fill-rule:nonzero;"/>
                    </g>
                    <g transform="matrix(168,0,0,168,64.344,0)">
                        <path d="M0.012,-0L0.114,-0L0.134,-0.137L0.259,-0.137L0.259,-0.139L0.279,-0L0.389,-0L0.275,-0.7L0.126,-0.7L0.012,-0ZM0.147,-0.232L0.195,-0.578L0.197,-0.578L0.246,-0.232L0.147,-0.232Z" style="fill-rule:nonzero;"/>
                    </g>
                    <g transform="matrix(168,0,0,168,131.712,0)">
                        <path d="M0.041,-0L0.151,-0L0.151,-0.285L0.203,-0.285C0.313,-0.285 0.367,-0.346 0.367,-0.458L0.367,-0.527C0.367,-0.639 0.313,-0.7 0.203,-0.7L0.041,-0.7L0.041,-0ZM0.151,-0.385L0.151,-0.6L0.203,-0.6C0.238,-0.6 0.257,-0.584 0.257,-0.534L0.257,-0.451C0.257,-0.401 0.238,-0.385 0.203,-0.385L0.151,-0.385Z" style="fill-rule:nonzero;"/>
                    </g>
                    <g transform="matrix(168,0,0,168,190.68,0)">
                        <path d="M0.012,-0L0.114,-0L0.134,-0.137L0.259,-0.137L0.259,-0.139L0.279,-0L0.389,-0L0.275,-0.7L0.126,-0.7L0.012,-0ZM0.147,-0.232L0.195,-0.578L0.197,-0.578L0.246,-0.232L0.147,-0.232Z" style="fill-rule:nonzero;"/>
                    </g>
                    <g transform="matrix(168,0,0,168,257.712,0)">
                        <path d="M0.196,0.01C0.302,0.01 0.358,-0.054 0.358,-0.162L0.358,-0.261L0.254,-0.261L0.254,-0.154C0.254,-0.108 0.232,-0.09 0.199,-0.09C0.166,-0.09 0.144,-0.108 0.144,-0.154L0.144,-0.545C0.144,-0.591 0.166,-0.61 0.199,-0.61C0.232,-0.61 0.254,-0.591 0.254,-0.545L0.254,-0.464L0.358,-0.464L0.358,-0.538C0.358,-0.646 0.302,-0.71 0.196,-0.71C0.09,-0.71 0.034,-0.646 0.034,-0.538L0.034,-0.162C0.034,-0.054 0.09,0.01 0.196,0.01Z" style="fill-rule:nonzero;"/>
                    </g>
                    <g transform="matrix(168,0,0,168,322.056,0)">
                        <rect x="0.041" y="-0.7" width="0.11" height="0.7"/>
                    </g>
                    <g transform="matrix(168,0,0,168,354.312,0)">
                        <path d="M0.127,-0L0.237,-0L0.237,-0.6L0.352,-0.6L0.352,-0.7L0.012,-0.7L0.012,-0.6L0.127,-0.6L0.127,-0Z" style="fill-rule:nonzero;"/>
                    </g>
                    <g transform="matrix(168,0,0,168,407.736,0)">
                        <path d="M0.012,-0L0.114,-0L0.134,-0.137L0.259,-0.137L0.259,-0.139L0.279,-0L0.389,-0L0.275,-0.7L0.126,-0.7L0.012,-0ZM0.147,-0.232L0.195,-0.578L0.197,-0.578L0.246,-0.232L0.147,-0.232Z" style="fill-rule:nonzero;"/>
                    </g>
                    <g transform="matrix(168,0,0,168,474.768,0)">
                        <path d="M0.358,-0.464L0.358,-0.538C0.358,-0.646 0.302,-0.71 0.196,-0.71C0.09,-0.71 0.034,-0.646 0.034,-0.538L0.034,-0.162C0.034,-0.062 0.082,-0 0.173,0.009L0.173,0.057L0.178,0.057C0.203,0.057 0.215,0.064 0.215,0.083C0.215,0.1 0.207,0.107 0.189,0.107C0.178,0.107 0.167,0.102 0.167,0.087L0.167,0.079L0.093,0.079L0.093,0.089C0.093,0.135 0.134,0.147 0.189,0.147C0.249,0.147 0.291,0.14 0.291,0.086C0.291,0.051 0.266,0.039 0.222,0.039L0.222,0.009C0.311,-0.001 0.358,-0.063 0.358,-0.162L0.358,-0.261L0.254,-0.261L0.254,-0.154C0.254,-0.108 0.232,-0.09 0.199,-0.09C0.166,-0.09 0.144,-0.108 0.144,-0.154L0.144,-0.545C0.144,-0.591 0.166,-0.61 0.199,-0.61C0.232,-0.61 0.254,-0.591 0.254,-0.545L0.254,-0.464L0.358,-0.464Z" style="fill-rule:nonzero;"/>
                    </g>
                    <g transform="matrix(168,0,0,168,539.112,0)">
                        <path d="M0.115,-0.743C0.128,-0.771 0.139,-0.782 0.155,-0.782C0.167,-0.782 0.177,-0.776 0.189,-0.769C0.204,-0.76 0.222,-0.75 0.249,-0.75C0.287,-0.75 0.315,-0.778 0.34,-0.834L0.287,-0.866C0.274,-0.838 0.263,-0.827 0.247,-0.827C0.235,-0.827 0.225,-0.833 0.213,-0.84C0.198,-0.849 0.18,-0.859 0.153,-0.859C0.115,-0.859 0.087,-0.831 0.062,-0.775L0.115,-0.743ZM0.012,-0L0.114,-0L0.134,-0.137L0.259,-0.137L0.259,-0.139L0.279,-0L0.389,-0L0.275,-0.7L0.126,-0.7L0.012,-0ZM0.147,-0.232L0.195,-0.578L0.197,-0.578L0.246,-0.232L0.147,-0.232Z" style="fill-rule:nonzero;"/>
                    </g>
                    <g transform="matrix(168,0,0,168,606.144,0)">
                        <path d="M0.2,0.01C0.308,0.01 0.367,-0.054 0.367,-0.166L0.367,-0.534C0.367,-0.646 0.308,-0.71 0.2,-0.71C0.092,-0.71 0.033,-0.646 0.033,-0.534L0.033,-0.166C0.033,-0.054 0.092,0.01 0.2,0.01ZM0.2,-0.09C0.165,-0.09 0.143,-0.109 0.143,-0.159L0.143,-0.541C0.143,-0.591 0.165,-0.61 0.2,-0.61C0.235,-0.61 0.257,-0.591 0.257,-0.541L0.257,-0.159C0.257,-0.109 0.235,-0.09 0.2,-0.09Z" style="fill-rule:nonzero;"/>
                    </g>
                </g>
            </g>
        </g>
        <g transform="matrix(0.743541,0,0,0.743541,637.23,-4.61008)">
            <g transform="matrix(29.317,0,0,29.317,-12.3558,174)">
                <path d="M0.257,-0.701C0.294,-0.701 0.326,-0.692 0.355,-0.674C0.384,-0.656 0.406,-0.631 0.422,-0.599C0.437,-0.566 0.445,-0.529 0.445,-0.488C0.445,-0.426 0.428,-0.376 0.395,-0.339C0.362,-0.302 0.318,-0.283 0.264,-0.283L0.189,-0.283C0.186,-0.283 0.184,-0.281 0.184,-0.278L0.184,-0.012C0.184,-0.009 0.183,-0.006 0.181,-0.004C0.178,-0.001 0.175,-0 0.172,-0L0.055,-0C0.052,-0 0.049,-0.001 0.047,-0.004C0.044,-0.006 0.043,-0.009 0.043,-0.012L0.043,-0.689C0.043,-0.692 0.044,-0.695 0.047,-0.698C0.049,-0.7 0.052,-0.701 0.055,-0.701L0.257,-0.701ZM0.233,-0.393C0.254,-0.393 0.272,-0.401 0.285,-0.418C0.298,-0.434 0.304,-0.456 0.304,-0.485C0.304,-0.514 0.298,-0.537 0.285,-0.554C0.272,-0.571 0.254,-0.579 0.233,-0.579L0.189,-0.579C0.186,-0.579 0.184,-0.577 0.184,-0.574L0.184,-0.398C0.184,-0.395 0.186,-0.393 0.189,-0.393L0.233,-0.393Z" style="fill-rule:nonzero;"/>
            </g>
            <g transform="matrix(29.317,0,0,29.317,1.27661,174)">
                <path d="M0.32,-0C0.313,-0 0.308,-0.003 0.306,-0.01L0.229,-0.286C0.228,-0.289 0.226,-0.29 0.224,-0.29L0.19,-0.29C0.187,-0.29 0.185,-0.288 0.185,-0.285L0.185,-0.012C0.185,-0.009 0.184,-0.006 0.182,-0.004C0.179,-0.001 0.176,-0 0.173,-0L0.056,-0C0.053,-0 0.05,-0.001 0.048,-0.004C0.045,-0.006 0.044,-0.009 0.044,-0.012L0.044,-0.688C0.044,-0.691 0.045,-0.694 0.048,-0.697C0.05,-0.699 0.053,-0.7 0.056,-0.7L0.258,-0.7C0.295,-0.7 0.327,-0.691 0.356,-0.674C0.385,-0.656 0.407,-0.631 0.423,-0.599C0.438,-0.567 0.446,-0.53 0.446,-0.489C0.446,-0.45 0.439,-0.415 0.424,-0.385C0.409,-0.355 0.388,-0.332 0.361,-0.315C0.36,-0.314 0.359,-0.314 0.358,-0.313C0.357,-0.312 0.357,-0.31 0.358,-0.309L0.45,-0.014L0.451,-0.01C0.451,-0.003 0.447,-0 0.44,-0L0.32,-0ZM0.19,-0.579C0.187,-0.579 0.185,-0.577 0.185,-0.574L0.185,-0.403C0.185,-0.4 0.187,-0.398 0.19,-0.398L0.235,-0.398C0.256,-0.398 0.273,-0.406 0.286,-0.423C0.299,-0.439 0.305,-0.461 0.305,-0.488C0.305,-0.516 0.299,-0.538 0.286,-0.555C0.273,-0.571 0.256,-0.579 0.235,-0.579L0.19,-0.579Z" style="fill-rule:nonzero;"/>
            </g>
            <g transform="matrix(29.317,0,0,29.317,15.0849,174)">
                <path d="M0.236,0.008C0.175,0.008 0.126,-0.01 0.089,-0.046C0.052,-0.082 0.034,-0.13 0.034,-0.19L0.034,-0.51C0.034,-0.57 0.052,-0.618 0.089,-0.654C0.126,-0.69 0.175,-0.708 0.236,-0.708C0.297,-0.708 0.347,-0.69 0.384,-0.654C0.421,-0.618 0.439,-0.57 0.439,-0.51L0.439,-0.19C0.439,-0.13 0.421,-0.082 0.384,-0.046C0.347,-0.01 0.297,0.008 0.236,0.008ZM0.236,-0.113C0.255,-0.113 0.27,-0.12 0.281,-0.133C0.292,-0.146 0.298,-0.163 0.298,-0.184L0.298,-0.516C0.298,-0.537 0.292,-0.555 0.281,-0.568C0.27,-0.58 0.255,-0.587 0.236,-0.587C0.217,-0.587 0.203,-0.58 0.192,-0.568C0.181,-0.555 0.175,-0.537 0.175,-0.516L0.175,-0.184C0.175,-0.163 0.181,-0.146 0.192,-0.133C0.203,-0.12 0.217,-0.113 0.236,-0.113Z" style="fill-rule:nonzero;"/>
            </g>
            <g transform="matrix(29.317,0,0,29.317,28.9518,174)">
                <path d="M0.41,-0.591C0.41,-0.588 0.409,-0.585 0.407,-0.583C0.404,-0.58 0.401,-0.579 0.398,-0.579L0.19,-0.579C0.187,-0.579 0.185,-0.577 0.185,-0.574L0.185,-0.416C0.185,-0.413 0.187,-0.411 0.19,-0.411L0.309,-0.411C0.312,-0.411 0.315,-0.41 0.318,-0.408C0.32,-0.405 0.321,-0.402 0.321,-0.399L0.321,-0.302C0.321,-0.299 0.32,-0.296 0.318,-0.294C0.315,-0.291 0.312,-0.29 0.309,-0.29L0.19,-0.29C0.187,-0.29 0.185,-0.288 0.185,-0.285L0.185,-0.012C0.185,-0.009 0.184,-0.006 0.182,-0.004C0.179,-0.001 0.176,-0 0.173,-0L0.056,-0C0.053,-0 0.05,-0.001 0.048,-0.004C0.045,-0.006 0.044,-0.009 0.044,-0.012L0.044,-0.688C0.044,-0.691 0.045,-0.694 0.048,-0.697C0.05,-0.699 0.053,-0.7 0.056,-0.7L0.398,-0.7C0.401,-0.7 0.404,-0.699 0.407,-0.697C0.409,-0.694 0.41,-0.691 0.41,-0.688L0.41,-0.591Z" style="fill-rule:nonzero;"/>
            </g>
            <g transform="matrix(29.317,0,0,29.317,41.2943,174)">
                <path d="M0.411,-0.591C0.411,-0.588 0.41,-0.585 0.408,-0.583C0.405,-0.58 0.402,-0.579 0.399,-0.579L0.19,-0.579C0.187,-0.579 0.185,-0.577 0.185,-0.574L0.185,-0.416C0.185,-0.413 0.187,-0.411 0.19,-0.411L0.31,-0.411C0.313,-0.411 0.316,-0.41 0.319,-0.408C0.321,-0.405 0.322,-0.402 0.322,-0.399L0.322,-0.302C0.322,-0.299 0.321,-0.296 0.319,-0.294C0.316,-0.291 0.313,-0.29 0.31,-0.29L0.19,-0.29C0.187,-0.29 0.185,-0.288 0.185,-0.285L0.185,-0.126C0.185,-0.123 0.187,-0.121 0.19,-0.121L0.399,-0.121C0.402,-0.121 0.405,-0.12 0.408,-0.118C0.41,-0.115 0.411,-0.112 0.411,-0.109L0.411,-0.012C0.411,-0.009 0.41,-0.006 0.408,-0.004C0.405,-0.001 0.402,-0 0.399,-0L0.056,-0C0.053,-0 0.05,-0.001 0.048,-0.004C0.045,-0.006 0.044,-0.009 0.044,-0.012L0.044,-0.688C0.044,-0.691 0.045,-0.694 0.048,-0.697C0.05,-0.699 0.053,-0.7 0.056,-0.7L0.399,-0.7C0.402,-0.7 0.405,-0.699 0.408,-0.697C0.41,-0.694 0.411,-0.691 0.411,-0.688L0.411,-0.591Z" style="fill-rule:nonzero;"/>
            </g>
            <g transform="matrix(29.317,0,0,29.317,54.1351,174)">
                <path d="M0.224,0.008C0.185,0.008 0.151,0 0.122,-0.015C0.093,-0.03 0.07,-0.052 0.054,-0.08C0.038,-0.107 0.03,-0.139 0.03,-0.175L0.03,-0.204C0.03,-0.207 0.031,-0.21 0.034,-0.213C0.036,-0.215 0.039,-0.216 0.042,-0.216L0.157,-0.216C0.16,-0.216 0.163,-0.215 0.166,-0.213C0.168,-0.21 0.169,-0.207 0.169,-0.204L0.169,-0.182C0.169,-0.161 0.174,-0.145 0.185,-0.132C0.196,-0.119 0.209,-0.113 0.225,-0.113C0.241,-0.113 0.254,-0.119 0.265,-0.131C0.276,-0.143 0.281,-0.159 0.281,-0.178C0.281,-0.198 0.274,-0.215 0.261,-0.23C0.248,-0.244 0.222,-0.265 0.183,-0.293C0.15,-0.317 0.123,-0.338 0.102,-0.357C0.081,-0.376 0.064,-0.399 0.049,-0.426C0.034,-0.453 0.027,-0.485 0.027,-0.521C0.027,-0.578 0.045,-0.623 0.08,-0.657C0.115,-0.691 0.162,-0.708 0.22,-0.708C0.279,-0.708 0.326,-0.69 0.362,-0.655C0.397,-0.62 0.415,-0.573 0.415,-0.516L0.415,-0.492C0.415,-0.489 0.414,-0.486 0.412,-0.484C0.409,-0.481 0.406,-0.48 0.403,-0.48L0.288,-0.48C0.285,-0.48 0.282,-0.481 0.28,-0.484C0.277,-0.486 0.276,-0.489 0.276,-0.492L0.276,-0.519C0.276,-0.54 0.271,-0.556 0.261,-0.569C0.25,-0.581 0.237,-0.587 0.22,-0.587C0.204,-0.587 0.191,-0.581 0.181,-0.57C0.171,-0.558 0.166,-0.542 0.166,-0.521C0.166,-0.501 0.172,-0.483 0.185,-0.468C0.198,-0.453 0.223,-0.431 0.26,-0.404C0.301,-0.373 0.333,-0.349 0.354,-0.33C0.375,-0.311 0.391,-0.29 0.403,-0.267C0.414,-0.244 0.42,-0.216 0.42,-0.184C0.42,-0.125 0.402,-0.079 0.366,-0.044C0.33,-0.009 0.283,0.008 0.224,0.008Z" style="fill-rule:nonzero;"/>
            </g>
            <g transform="matrix(29.317,0,0,29.317,67.1519,174)">
                <path d="M0.224,0.008C0.185,0.008 0.151,0 0.122,-0.015C0.093,-0.03 0.07,-0.052 0.054,-0.08C0.038,-0.107 0.03,-0.139 0.03,-0.175L0.03,-0.204C0.03,-0.207 0.031,-0.21 0.034,-0.213C0.036,-0.215 0.039,-0.216 0.042,-0.216L0.157,-0.216C0.16,-0.216 0.163,-0.215 0.166,-0.213C0.168,-0.21 0.169,-0.207 0.169,-0.204L0.169,-0.182C0.169,-0.161 0.174,-0.145 0.185,-0.132C0.196,-0.119 0.209,-0.113 0.225,-0.113C0.241,-0.113 0.254,-0.119 0.265,-0.131C0.276,-0.143 0.281,-0.159 0.281,-0.178C0.281,-0.198 0.274,-0.215 0.261,-0.23C0.248,-0.244 0.222,-0.265 0.183,-0.293C0.15,-0.317 0.123,-0.338 0.102,-0.357C0.081,-0.376 0.064,-0.399 0.049,-0.426C0.034,-0.453 0.027,-0.485 0.027,-0.521C0.027,-0.578 0.045,-0.623 0.08,-0.657C0.115,-0.691 0.162,-0.708 0.22,-0.708C0.279,-0.708 0.326,-0.69 0.362,-0.655C0.397,-0.62 0.415,-0.573 0.415,-0.516L0.415,-0.492C0.415,-0.489 0.414,-0.486 0.412,-0.484C0.409,-0.481 0.406,-0.48 0.403,-0.48L0.288,-0.48C0.285,-0.48 0.282,-0.481 0.28,-0.484C0.277,-0.486 0.276,-0.489 0.276,-0.492L0.276,-0.519C0.276,-0.54 0.271,-0.556 0.261,-0.569C0.25,-0.581 0.237,-0.587 0.22,-0.587C0.204,-0.587 0.191,-0.581 0.181,-0.57C0.171,-0.558 0.166,-0.542 0.166,-0.521C0.166,-0.501 0.172,-0.483 0.185,-0.468C0.198,-0.453 0.223,-0.431 0.26,-0.404C0.301,-0.373 0.333,-0.349 0.354,-0.33C0.375,-0.311 0.391,-0.29 0.403,-0.267C0.414,-0.244 0.42,-0.216 0.42,-0.184C0.42,-0.125 0.402,-0.079 0.366,-0.044C0.33,-0.009 0.283,0.008 0.224,0.008Z" style="fill-rule:nonzero;"/>
            </g>
            <g transform="matrix(29.317,0,0,29.317,80.1686,174)">
                <path d="M0.236,0.008C0.175,0.008 0.126,-0.01 0.089,-0.046C0.052,-0.082 0.034,-0.13 0.034,-0.19L0.034,-0.51C0.034,-0.57 0.052,-0.618 0.089,-0.654C0.126,-0.69 0.175,-0.708 0.236,-0.708C0.297,-0.708 0.347,-0.69 0.384,-0.654C0.421,-0.618 0.439,-0.57 0.439,-0.51L0.439,-0.19C0.439,-0.13 0.421,-0.082 0.384,-0.046C0.347,-0.01 0.297,0.008 0.236,0.008ZM0.236,-0.113C0.255,-0.113 0.27,-0.12 0.281,-0.133C0.292,-0.146 0.298,-0.163 0.298,-0.184L0.298,-0.516C0.298,-0.537 0.292,-0.555 0.281,-0.568C0.27,-0.58 0.255,-0.587 0.236,-0.587C0.217,-0.587 0.203,-0.58 0.192,-0.568C0.181,-0.555 0.175,-0.537 0.175,-0.516L0.175,-0.184C0.175,-0.163 0.181,-0.146 0.192,-0.133C0.203,-0.12 0.217,-0.113 0.236,-0.113Z" style="fill-rule:nonzero;"/>
            </g>
            <g transform="matrix(29.317,0,0,29.317,94.0355,174)">
                <path d="M0.32,-0C0.313,-0 0.308,-0.003 0.306,-0.01L0.229,-0.286C0.228,-0.289 0.226,-0.29 0.224,-0.29L0.19,-0.29C0.187,-0.29 0.185,-0.288 0.185,-0.285L0.185,-0.012C0.185,-0.009 0.184,-0.006 0.182,-0.004C0.179,-0.001 0.176,-0 0.173,-0L0.056,-0C0.053,-0 0.05,-0.001 0.048,-0.004C0.045,-0.006 0.044,-0.009 0.044,-0.012L0.044,-0.688C0.044,-0.691 0.045,-0.694 0.048,-0.697C0.05,-0.699 0.053,-0.7 0.056,-0.7L0.258,-0.7C0.295,-0.7 0.327,-0.691 0.356,-0.674C0.385,-0.656 0.407,-0.631 0.423,-0.599C0.438,-0.567 0.446,-0.53 0.446,-0.489C0.446,-0.45 0.439,-0.415 0.424,-0.385C0.409,-0.355 0.388,-0.332 0.361,-0.315C0.36,-0.314 0.359,-0.314 0.358,-0.313C0.357,-0.312 0.357,-0.31 0.358,-0.309L0.45,-0.014L0.451,-0.01C0.451,-0.003 0.447,-0 0.44,-0L0.32,-0ZM0.19,-0.579C0.187,-0.579 0.185,-0.577 0.185,-0.574L0.185,-0.403C0.185,-0.4 0.187,-0.398 0.19,-0.398L0.235,-0.398C0.256,-0.398 0.273,-0.406 0.286,-0.423C0.299,-0.439 0.305,-0.461 0.305,-0.488C0.305,-0.516 0.299,-0.538 0.286,-0.555C0.273,-0.571 0.256,-0.579 0.235,-0.579L0.19,-0.579Z" style="fill-rule:nonzero;"/>
            </g>
            <g transform="matrix(29.317,0,0,29.317,107.844,174)">
                <path d="M0.411,-0.591C0.411,-0.588 0.41,-0.585 0.408,-0.583C0.405,-0.58 0.402,-0.579 0.399,-0.579L0.19,-0.579C0.187,-0.579 0.185,-0.577 0.185,-0.574L0.185,-0.416C0.185,-0.413 0.187,-0.411 0.19,-0.411L0.31,-0.411C0.313,-0.411 0.316,-0.41 0.319,-0.408C0.321,-0.405 0.322,-0.402 0.322,-0.399L0.322,-0.302C0.322,-0.299 0.321,-0.296 0.319,-0.294C0.316,-0.291 0.313,-0.29 0.31,-0.29L0.19,-0.29C0.187,-0.29 0.185,-0.288 0.185,-0.285L0.185,-0.126C0.185,-0.123 0.187,-0.121 0.19,-0.121L0.399,-0.121C0.402,-0.121 0.405,-0.12 0.408,-0.118C0.41,-0.115 0.411,-0.112 0.411,-0.109L0.411,-0.012C0.411,-0.009 0.41,-0.006 0.408,-0.004C0.405,-0.001 0.402,-0 0.399,-0L0.056,-0C0.053,-0 0.05,-0.001 0.048,-0.004C0.045,-0.006 0.044,-0.009 0.044,-0.012L0.044,-0.688C0.044,-0.691 0.045,-0.694 0.048,-0.697C0.05,-0.699 0.053,-0.7 0.056,-0.7L0.399,-0.7C0.402,-0.7 0.405,-0.699 0.408,-0.697C0.41,-0.694 0.411,-0.691 0.411,-0.688L0.411,-0.591Z" style="fill-rule:nonzero;"/>
            </g>
            <g transform="matrix(29.317,0,0,29.317,120.685,174)">
                <path d="M0.224,0.008C0.185,0.008 0.151,0 0.122,-0.015C0.093,-0.03 0.07,-0.052 0.054,-0.08C0.038,-0.107 0.03,-0.139 0.03,-0.175L0.03,-0.204C0.03,-0.207 0.031,-0.21 0.034,-0.213C0.036,-0.215 0.039,-0.216 0.042,-0.216L0.157,-0.216C0.16,-0.216 0.163,-0.215 0.166,-0.213C0.168,-0.21 0.169,-0.207 0.169,-0.204L0.169,-0.182C0.169,-0.161 0.174,-0.145 0.185,-0.132C0.196,-0.119 0.209,-0.113 0.225,-0.113C0.241,-0.113 0.254,-0.119 0.265,-0.131C0.276,-0.143 0.281,-0.159 0.281,-0.178C0.281,-0.198 0.274,-0.215 0.261,-0.23C0.248,-0.244 0.222,-0.265 0.183,-0.293C0.15,-0.317 0.123,-0.338 0.102,-0.357C0.081,-0.376 0.064,-0.399 0.049,-0.426C0.034,-0.453 0.027,-0.485 0.027,-0.521C0.027,-0.578 0.045,-0.623 0.08,-0.657C0.115,-0.691 0.162,-0.708 0.22,-0.708C0.279,-0.708 0.326,-0.69 0.362,-0.655C0.397,-0.62 0.415,-0.573 0.415,-0.516L0.415,-0.492C0.415,-0.489 0.414,-0.486 0.412,-0.484C0.409,-0.481 0.406,-0.48 0.403,-0.48L0.288,-0.48C0.285,-0.48 0.282,-0.481 0.28,-0.484C0.277,-0.486 0.276,-0.489 0.276,-0.492L0.276,-0.519C0.276,-0.54 0.271,-0.556 0.261,-0.569C0.25,-0.581 0.237,-0.587 0.22,-0.587C0.204,-0.587 0.191,-0.581 0.181,-0.57C0.171,-0.558 0.166,-0.542 0.166,-0.521C0.166,-0.501 0.172,-0.483 0.185,-0.468C0.198,-0.453 0.223,-0.431 0.26,-0.404C0.301,-0.373 0.333,-0.349 0.354,-0.33C0.375,-0.311 0.391,-0.29 0.403,-0.267C0.414,-0.244 0.42,-0.216 0.42,-0.184C0.42,-0.125 0.402,-0.079 0.366,-0.044C0.33,-0.009 0.283,0.008 0.224,0.008Z" style="fill-rule:nonzero;"/>
            </g>
        </g>
    </g>
</svg>
