<?xml version="1.0" encoding="UTF-8" standalone="no"?>
<!DOCTYPE svg PUBLIC "-//W3C//DTD SVG 1.1//EN" "http://www.w3.org/Graphics/SVG/1.1/DTD/svg11.dtd">
<svg width="100%" height="100%" viewBox="0 0 525 525" version="1.1" xmlns="http://www.w3.org/2000/svg" xmlns:xlink="http://www.w3.org/1999/xlink" xml:space="preserve" xmlns:serif="http://www.serif.com/" style="fill-rule:evenodd;clip-rule:evenodd;stroke-linecap:round;stroke-linejoin:bevel;stroke-miterlimit:1.5;">
    <g transform="matrix(1,0,0,1,-3105,-2702.09)">
        <g transform="matrix(1,0,0,1,1177,1518)">
            <g transform="matrix(1.40374,0,0,1.40374,-805.088,-2495.12)">
                <circle cx="2134" cy="2808" r="187" style="fill:rgb(199,223,255);fill-opacity:0;"/>
            </g>
        </g>
        <g transform="matrix(1,0,0,1,1177,1518)">
            <g transform="matrix(1,0,0,1,1702.82,629.806)">
                <path d="M318.597,706.615L603.403,653.615L664.764,961.961L346.597,954.777L318.597,706.615Z" style="fill:none;stroke:url(#_Linear1);stroke-width:5.57px;"/>
            </g>
        </g>
        <g transform="matrix(1,0,0,1,1177,1518)">
            <g transform="matrix(0.86956,0,0,0.86956,295.294,196.52)">
                <g transform="matrix(2.78011,0,0,2.78011,2040.49,1298.59)">
                    <path d="M96.703,57.875C96.562,57.594 81.844,29.687 50,29.687C18.156,29.687 3.438,57.593 3.297,57.875C3.063,58.328 3.063,58.859 3.297,59.313C3.438,59.594 18.156,87.501 50,87.501C81.844,87.501 96.562,59.595 96.703,59.313C96.937,58.859 96.937,58.328 96.703,57.875ZM50,84.375C22.906,84.375 8.953,62.828 6.484,58.594C8.968,54.36 22.922,32.813 50,32.813C77.078,32.813 91.047,54.36 93.516,58.594C91.032,62.828 77.078,84.375 50,84.375Z" style="fill:rgb(27,53,86);fill-rule:nonzero;"/>
                </g>
                <g transform="matrix(2.78011,0,0,2.78011,2040.49,1298.59)">
                    <path d="M50,26.562C50.859,26.562 51.563,25.859 51.563,25L51.563,14.062C51.563,13.202 50.859,12.499 50,12.499C49.141,12.499 48.438,13.202 48.438,14.062L48.438,25C48.438,25.859 49.141,26.562 50,26.562Z" style="fill:rgb(27,53,86);fill-rule:nonzero;"/>
                </g>
                <g transform="matrix(2.78011,0,0,2.78011,2040.49,1298.59)">
                    <path d="M20.781,32.359C21.078,32.656 21.484,32.812 21.875,32.812C22.265,32.812 22.687,32.656 22.984,32.343C23.594,31.734 23.578,30.734 22.969,30.14L15.156,22.484C14.547,21.875 13.547,21.89 12.953,22.5C12.344,23.109 12.359,24.109 12.969,24.703L20.781,32.359Z" style="fill:rgb(27,53,86);fill-rule:nonzero;"/>
                </g>
                <g transform="matrix(2.78011,0,0,2.78011,2040.49,1298.59)">
                    <path d="M78.125,32.812C78.516,32.812 78.906,32.656 79.219,32.359L87.031,24.703C87.641,24.093 87.656,23.109 87.047,22.5C86.438,21.875 85.453,21.875 84.844,22.484L77.031,30.14C76.422,30.75 76.406,31.734 77.016,32.343C77.328,32.656 77.719,32.812 78.125,32.812L78.125,32.812Z" style="fill:rgb(27,53,86);fill-rule:nonzero;"/>
                </g>
                <g transform="matrix(2.78011,0,0,2.78011,2040.49,1298.59)">
                    <path d="M50,36.719C37.938,36.719 28.125,46.532 28.125,58.594C28.125,70.656 37.938,80.469 50,80.469C62.063,80.469 71.875,70.656 71.875,58.594C71.875,46.531 62.063,36.719 50,36.719ZM50,77.344C39.656,77.344 31.25,68.938 31.25,58.594C31.25,48.25 39.656,39.844 50,39.844C60.344,39.844 68.75,48.25 68.75,58.594C68.75,68.938 60.344,77.344 50,77.344Z" style="fill:rgb(27,53,86);fill-rule:nonzero;"/>
                </g>
                <g transform="matrix(2.78011,0,0,2.78011,2040.49,1298.59)">
                    <path d="M50,45.312C48.391,45.312 46.828,45.593 45.344,46.171C44.813,46.375 44.438,46.843 44.359,47.406C44.281,47.968 44.5,48.531 44.953,48.875C45.906,49.609 46.453,50.718 46.453,51.937C46.453,54.093 44.703,55.843 42.547,55.843C41.484,55.843 40.5,55.421 39.766,54.671C39.375,54.265 38.797,54.093 38.235,54.234C37.688,54.375 37.25,54.812 37.11,55.359C36.844,56.406 36.703,57.499 36.703,58.609C36.703,65.937 42.656,71.89 49.984,71.89C57.312,71.89 63.265,65.937 63.265,58.609C63.265,51.281 57.312,45.328 49.984,45.328L50,45.312Z" style="fill:rgb(27,53,86);fill-rule:nonzero;"/>
                </g>
            </g>
        </g>
    </g>
    <defs>
        <linearGradient id="_Linear1" x1="0" y1="0" x2="1" y2="0" gradientUnits="userSpaceOnUse" gradientTransform="matrix(410.325,0,0,326.347,300.155,816.788)"><stop offset="0" style="stop-color:rgb(57,190,182);stop-opacity:1"/><stop offset="1" style="stop-color:rgb(49,183,228);stop-opacity:1"/></linearGradient>
    </defs>
</svg>
