<?xml version="1.0" encoding="UTF-8" standalone="no"?>
<!DOCTYPE svg PUBLIC "-//W3C//DTD SVG 1.1//EN" "http://www.w3.org/Graphics/SVG/1.1/DTD/svg11.dtd">
<svg width="100%" height="100%" viewBox="0 0 525 525" version="1.1" xmlns="http://www.w3.org/2000/svg" xmlns:xlink="http://www.w3.org/1999/xlink" xml:space="preserve" xmlns:serif="http://www.serif.com/" style="fill-rule:evenodd;clip-rule:evenodd;stroke-linecap:round;stroke-linejoin:bevel;stroke-miterlimit:1.5;">
    <g transform="matrix(1,0,0,1,-1921,-2702.09)">
        <g transform="matrix(1,0,0,1,1177,1518)">
            <g transform="matrix(1.40374,0,0,1.40374,-1989.09,-2495.12)">
                <circle cx="2134" cy="2808" r="187" style="fill:rgb(199,223,255);fill-opacity:0;"/>
            </g>
        </g>
        <g transform="matrix(1,0,0,1,1177,1518)">
            <g transform="matrix(1,0,0,1,521.683,629.806)">
                <path d="M318.155,671.615L669.48,695.411L633.764,990.961L343,949L318.155,671.615Z" style="fill:none;stroke:url(#_Linear1);stroke-width:5.57px;"/>
            </g>
        </g>
        <g transform="matrix(1,0,0,1,1177,1518)">
            <g transform="matrix(0.543104,0,0,0.543104,484.168,1032.21)">
                <g>
                    <g transform="matrix(4.16667,0,0,4.16667,761.752,563)">
                        <path d="M58.261,60.732C58.313,60.783 58.304,60.767 58.261,60.73L58.258,60.729L58.243,60.714L58.217,60.69L48.646,51.118L3.223,51.207L3.219,51.207C2.763,51.207 2.326,51.026 2.003,50.704C1.679,50.382 1.497,49.943 1.497,49.485L1.497,4.003C1.497,3.051 2.268,2.28 3.22,2.28L79.865,2.28C80.817,2.28 81.588,3.051 81.588,4.003L81.588,24.564C84.683,25.337 86.984,28.14 86.984,31.471C86.984,35.396 83.79,38.59 79.865,38.59C75.94,38.59 72.746,35.396 72.746,31.471C72.746,28.139 75.047,25.336 78.142,24.564L78.142,5.726L4.943,5.726L4.943,47.759L46.564,47.677C46.537,47.476 46.524,47.271 46.524,47.064C46.524,46.419 46.653,45.796 46.9,45.222L27.885,26.208C27.213,25.535 27.213,24.444 27.885,23.771C28.559,23.099 29.649,23.099 30.322,23.771L49.34,42.792C51.039,42.063 53.086,42.387 54.471,43.772L60.504,49.806L64.776,42.407C65.396,41.333 66.401,40.563 67.605,40.24C68.809,39.918 70.064,40.082 71.138,40.702L71.896,41.14C72.163,40.97 72.479,40.872 72.818,40.872L89.845,40.872C92.413,40.872 94.502,42.961 94.503,45.529L94.503,64.602C94.503,67.17 92.414,69.259 89.846,69.259C89.427,69.259 89.021,69.204 88.634,69.099L88.634,91.995C88.634,92.947 87.863,93.718 86.911,93.718L72.818,93.718C71.866,93.718 71.095,92.947 71.095,91.995L71.095,50.088L65.686,59.456C65.461,59.914 65.164,60.327 64.804,60.689C63.9,61.593 62.705,62.046 61.51,62.046C60.336,62.046 59.161,61.609 58.261,60.732ZM60.669,58.268C61.141,58.725 61.903,58.72 62.368,58.254C62.465,58.157 62.545,58.044 62.603,57.92C62.624,57.877 62.645,57.834 62.669,57.794L70.464,44.292L69.415,43.686C69.138,43.526 68.812,43.484 68.497,43.569C68.183,43.653 67.92,43.852 67.76,44.13L62.366,53.473C62.099,53.937 61.63,54.249 61.1,54.32L61.099,54.32C60.567,54.389 60.035,54.208 59.656,53.83L52.035,46.209C51.563,45.736 50.794,45.736 50.322,46.209C50.095,46.436 49.97,46.74 49.97,47.065C49.97,47.39 50.095,47.694 50.322,47.921L60.649,58.248L60.669,58.268ZM83.538,31.471C83.538,29.445 81.89,27.797 79.864,27.797C77.838,27.797 76.19,29.445 76.19,31.471C76.19,33.497 77.838,35.145 79.864,35.145C81.89,35.145 83.538,33.497 83.538,31.471ZM85.187,90.274L85.187,44.317L74.539,44.317L74.539,90.274L78.141,90.274L78.141,71.089C78.141,70.137 78.912,69.366 79.864,69.366C80.816,69.366 81.587,70.137 81.587,71.089L81.587,90.274L85.187,90.274ZM91.057,64.602L91.057,45.529C91.057,44.86 90.514,44.317 89.845,44.317L88.633,44.317L88.633,64.602C88.633,65.271 89.176,65.814 89.845,65.814C90.514,65.814 91.057,65.271 91.057,64.602Z" style="fill:rgb(27,53,86);fill-rule:nonzero;"/>
                    </g>
                    <g transform="matrix(4.16667,0,0,4.16667,495.76,706.532)">
                        <path d="M86.814,31.428C86.814,31.443 86.814,31.457 86.814,31.471C86.814,35.243 83.745,38.312 79.973,38.312L79.919,38.312L79.865,38.312C76.093,38.312 73.024,35.243 73.024,31.471C73.024,31.457 73.024,31.443 73.024,31.428C73.024,31.414 73.024,31.4 73.024,31.386C73.024,27.614 76.093,24.545 79.865,24.545L79.919,24.545L79.973,24.545C83.745,24.545 86.814,27.614 86.814,31.386C86.814,31.4 86.814,31.414 86.814,31.428ZM94.225,54.935C94.225,56.011 93.797,57.043 93.037,57.804C92.276,58.565 91.243,58.993 90.167,58.992C84.724,58.992 75.114,58.992 69.671,58.992C68.595,58.993 67.562,58.565 66.801,57.804C66.041,57.043 65.613,56.011 65.613,54.935C65.613,50.971 65.613,45.529 65.613,45.529C65.614,43.114 67.578,41.15 69.993,41.15L89.845,41.15C92.26,41.15 94.224,43.114 94.225,45.529L94.225,54.935Z" style="fill:rgb(27,53,86);"/>
                    </g>
                </g>
            </g>
        </g>
    </g>
    <defs>
        <linearGradient id="_Linear1" x1="0" y1="0" x2="1" y2="0" gradientUnits="userSpaceOnUse" gradientTransform="matrix(410.325,0,0,326.347,300.155,816.788)"><stop offset="0" style="stop-color:rgb(57,190,182);stop-opacity:1"/><stop offset="1" style="stop-color:rgb(49,183,228);stop-opacity:1"/></linearGradient>
    </defs>
</svg>
