<?xml version="1.0" encoding="UTF-8" standalone="no"?>
<!DOCTYPE svg PUBLIC "-//W3C//DTD SVG 1.1//EN" "http://www.w3.org/Graphics/SVG/1.1/DTD/svg11.dtd">
<svg width="100%" height="100%" viewBox="0 0 58 58" version="1.1" xmlns="http://www.w3.org/2000/svg" xmlns:xlink="http://www.w3.org/1999/xlink" xml:space="preserve" xmlns:serif="http://www.serif.com/" style="fill-rule:evenodd;clip-rule:evenodd;stroke-linecap:round;stroke-linejoin:round;stroke-miterlimit:1.5;">
    <g transform="matrix(1,0,0,1,-42.3313,-146.331)">
        <g transform="matrix(1.71951,0,0,1.80368,0,0)">
            <g transform="matrix(0.58156,0,0,0.554422,6.39716,3.32653)">
                <circle cx="60" cy="169" r="28" style="fill:white;stroke:rgb(42,196,243);stroke-width:1.34px;"/>
            </g>
        </g>
        <g transform="matrix(1.71951,0,0,1.80368,0,0)">
            <g transform="matrix(0.248286,0,0,0.2367,28.8765,85.1889)">
                <path d="M47.891,29.688C49.575,29.688 51.102,29.004 52.204,27.903C53.309,26.797 53.989,25.274 53.989,23.59C53.989,21.907 53.305,20.379 52.204,19.278C51.098,18.172 49.575,17.493 47.891,17.493C46.207,17.493 44.68,18.176 43.579,19.278C42.473,20.383 41.793,21.907 41.793,23.59C41.793,25.274 42.477,26.801 43.579,27.903C44.68,29.008 46.207,29.688 47.891,29.688ZM83.227,14.297C83.887,14.957 83.883,16.028 83.219,16.688C82.559,17.348 81.489,17.344 80.829,16.68C80.661,16.508 80.457,16.371 80.227,16.277C80.016,16.188 79.774,16.141 79.52,16.141C78.582,16.141 77.825,15.383 77.825,14.445C77.825,13.512 78.583,12.75 79.52,12.75C80.227,12.75 80.903,12.895 81.524,13.152C82.168,13.418 82.747,13.809 83.227,14.297L83.227,14.297ZM43.477,34.16C52.985,36.152 62.993,39.086 72.461,41.867L73.234,42.094C75.414,42.734 76.707,44.476 77.055,46.328C77.195,47.078 77.18,47.844 77.008,48.558C76.992,48.617 76.977,48.676 76.957,48.734C76.766,49.43 76.434,50.078 75.957,50.625C74.813,51.941 72.906,52.687 70.258,52.098L50.012,47.582L47.535,58.605L61.144,63.777C61.722,63.996 62.113,64.499 62.215,65.066L66.652,83.632C67.039,85.249 66.73,86.874 65.926,88.187C65.148,89.456 63.902,90.441 62.367,90.859C62.25,90.902 62.133,90.929 62.011,90.944C60.453,91.269 58.898,90.956 57.633,90.179C56.316,89.37 55.301,88.058 54.914,86.437L51.574,72.453L39.566,67.89L36.937,78.574C36.828,79.016 36.554,79.371 36.199,79.598L20.453,90.453C19.086,91.398 17.457,91.695 15.933,91.413C14.414,91.132 12.996,90.277 12.054,88.91L12.05,88.902C11.109,87.535 10.812,85.91 11.093,84.39C11.375,82.871 12.23,81.453 13.597,80.511L26.031,71.941L28.945,60.097C28.957,60.05 28.969,60.003 28.984,59.96L32.945,41.05C33.449,38.648 34.883,36.675 36.789,35.429C38.695,34.183 41.078,33.66 43.477,34.16L43.477,34.16ZM71.508,45.109C62.098,42.347 52.156,39.433 42.789,37.472C41.309,37.164 39.828,37.488 38.645,38.261C37.457,39.039 36.566,40.257 36.258,41.738L32.273,60.773C32.266,60.82 32.258,60.867 32.246,60.914C32.23,60.98 32.207,61.046 32.184,61.113L29.168,73.371C29.074,73.758 28.84,74.113 28.488,74.359L15.511,83.293C14.91,83.707 14.535,84.332 14.41,85C14.292,85.64 14.406,86.32 14.773,86.902C14.816,86.957 14.855,87.015 14.894,87.078C15.308,87.629 15.902,87.976 16.539,88.093C17.21,88.218 17.929,88.086 18.527,87.675L33.8,77.148C34.776,73.176 35.761,69.207 36.733,65.234C36.749,65.168 36.769,65.105 36.792,65.043C37.12,64.168 38.097,63.727 38.972,64.055L53.597,69.609L53.597,69.613C54.105,69.805 54.511,70.234 54.644,70.801L58.194,85.66C58.362,86.367 58.808,86.941 59.39,87.297C59.976,87.656 60.694,87.797 61.401,87.629L61.405,87.629C62.112,87.461 62.687,87.015 63.042,86.433C63.401,85.847 63.542,85.129 63.374,84.422L59.12,66.629L44.968,61.25C44.191,60.957 43.73,60.132 43.913,59.297L47.078,45.199C47.281,44.292 48.179,43.722 49.089,43.921L70.976,48.804C72.218,49.081 73.004,48.855 73.394,48.406C73.531,48.249 73.625,48.07 73.687,47.878C73.695,47.847 73.699,47.812 73.707,47.781C73.773,47.507 73.777,47.218 73.726,46.941C73.597,46.242 73.105,45.581 72.277,45.339L71.508,45.109ZM79.524,24.074C81.207,24.074 82.735,23.39 83.836,22.289C84.942,21.187 85.621,19.66 85.621,17.976C85.621,16.293 84.938,14.765 83.836,13.664C82.735,12.562 81.207,11.879 79.524,11.879C77.84,11.879 76.313,12.562 75.211,13.664C74.11,14.769 73.426,16.293 73.426,17.976C73.426,19.66 74.109,21.187 75.211,22.289C76.313,23.394 77.836,24.074 79.524,24.074ZM86.231,24.683C87.945,22.965 89.008,20.594 89.008,17.972C89.008,15.351 87.945,12.98 86.231,11.262C84.512,9.543 82.141,8.484 79.52,8.484C76.899,8.484 74.528,9.547 72.809,11.262C71.09,12.98 70.032,15.351 70.032,17.972C70.032,20.594 71.094,22.965 72.809,24.683C74.524,26.398 76.899,27.461 79.52,27.461C82.145,27.465 84.516,26.402 86.231,24.683ZM54.602,30.301C52.883,32.015 50.512,33.078 47.891,33.078C45.27,33.078 42.899,32.015 41.18,30.301C39.461,28.582 38.403,26.211 38.403,23.59C38.403,20.969 39.465,18.597 41.18,16.879C42.899,15.16 45.27,14.101 47.891,14.101C50.512,14.101 52.883,15.164 54.602,16.879C56.32,18.598 57.379,20.969 57.379,23.59C57.379,26.207 56.32,28.582 54.602,30.301Z" style="fill:rgb(3,60,130);"/>
            </g>
        </g>
    </g>
</svg>
