<?xml version="1.0" encoding="UTF-8" standalone="no"?>
<!DOCTYPE svg PUBLIC "-//W3C//DTD SVG 1.1//EN" "http://www.w3.org/Graphics/SVG/1.1/DTD/svg11.dtd">
<svg width="100%" height="100%" viewBox="0 0 58 58" version="1.1" xmlns="http://www.w3.org/2000/svg" xmlns:xlink="http://www.w3.org/1999/xlink" xml:space="preserve" xmlns:serif="http://www.serif.com/" style="fill-rule:evenodd;clip-rule:evenodd;stroke-linecap:round;stroke-linejoin:round;stroke-miterlimit:1.5;">
    <g transform="matrix(1,0,0,1,-119.331,-146.331)">
        <g transform="matrix(1.71951,0,0,1.80368,0,0)">
            <g transform="matrix(0.58156,0,0,0.554422,51.1773,3.32653)">
                <circle cx="60" cy="169" r="28" style="fill:white;stroke:rgb(42,196,243);stroke-width:1.34px;"/>
            </g>
        </g>
        <g transform="matrix(1.71951,0,0,1.80368,0,0)">
            <g transform="matrix(0.248286,0,0,0.2367,73.6566,85.1888)">
                <path d="M49.121,29.609C50.812,29.449 52.273,28.617 53.273,27.406C54.277,26.191 54.816,24.593 54.656,22.898C54.496,21.207 53.664,19.746 52.453,18.746C51.238,17.742 49.641,17.203 47.945,17.363C46.254,17.523 44.793,18.355 43.793,19.566C42.789,20.781 42.25,22.379 42.41,24.074C42.57,25.765 43.402,27.226 44.613,28.226C45.828,29.23 47.43,29.773 49.121,29.609ZM65.871,27.664C65.84,27.652 65.805,27.636 65.773,27.625C64.91,27.293 64.082,26.843 63.301,26.293C60.863,24.574 58.918,21.847 58.043,18.515C58.035,18.484 58.027,18.453 58.019,18.422C57.176,15.125 57.531,11.832 58.801,9.164C60.133,6.359 62.453,4.234 65.453,3.445C68.453,2.656 71.519,3.367 74.055,5.152C76.492,6.871 78.437,9.601 79.312,12.937C80.187,16.265 79.832,19.593 78.555,22.281C78.426,22.554 78.285,22.82 78.14,23.078C77.531,24.777 77.195,26.406 77.082,27.972C76.973,29.515 77.074,30.996 77.351,32.429L80.941,41.5C81.816,42.16 82.484,43.097 82.785,44.226L82.785,44.23C83.144,45.57 82.918,46.941 82.273,48.062L82.269,48.066L82.273,48.07C81.625,49.195 80.547,50.074 79.199,50.433L64.5,54.371C63.793,54.562 63.07,54.586 62.383,54.472C61.789,54.375 61.219,54.172 60.699,53.875C60.652,53.851 60.602,53.824 60.555,53.793L59.535,53.152L58.711,59.695L73.094,63.64C73.731,63.812 74.2,64.289 74.399,64.867L74.403,64.867L80.828,83.64C81.395,85.3 81.231,87.046 80.508,88.519C79.785,89.995 78.5,91.199 76.832,91.769L76.836,91.769C75.176,92.335 73.43,92.171 71.957,91.449C70.481,90.726 69.278,89.441 68.707,87.773L63.918,73.789L51.379,70.347L49.75,81.421C49.676,81.925 49.414,82.351 49.043,82.644L33.895,95.378C32.544,96.511 30.856,96.991 29.227,96.851C27.649,96.714 26.118,95.991 24.989,94.714L24.985,94.718C24.915,94.648 24.848,94.569 24.79,94.491C23.716,93.159 23.263,91.515 23.399,89.921C23.536,88.331 24.266,86.784 25.559,85.655C25.618,85.601 25.68,85.546 25.743,85.499L37.563,75.57L39.387,63.156C39.395,63.101 39.407,63.05 39.418,62.995L41.633,43.163C41.918,40.609 43.227,38.398 45.102,36.898C46.977,35.398 49.418,34.609 51.973,34.894L52.118,34.909C52.723,34.976 53.286,35.105 53.836,35.308C54.387,35.507 54.903,35.773 55.407,36.109L60.532,39.519L71.618,36.738C72.641,36.484 73.68,37.105 73.934,38.128C74.192,39.152 73.567,40.191 72.544,40.445L64.829,42.378L66.34,43.382L76.5,40.66L73.747,33.706C73.715,33.632 73.692,33.554 73.672,33.48L73.665,33.472C72.739,32.245 71.657,31.132 70.379,30.16C69.09,29.179 67.602,28.335 65.872,27.663L65.871,27.664ZM73.227,27.547L73.277,27.589L73.281,27.523L73.227,27.547ZM78.559,44.481C78.508,44.457 78.457,44.43 78.41,44.402C78.156,44.285 77.859,44.25 77.566,44.328L66.488,47.297C65.91,47.449 65.32,47.324 64.871,46.996L59.172,43.203C59.129,43.18 59.09,43.152 59.051,43.121L53.289,39.289C53.027,39.113 52.777,38.984 52.527,38.895C52.273,38.805 52,38.742 51.691,38.707L51.547,38.692C50.027,38.524 48.578,38.988 47.473,39.871C46.367,40.758 45.594,42.067 45.422,43.582L43.191,63.551C43.188,63.606 43.184,63.66 43.172,63.715C43.16,63.789 43.145,63.86 43.129,63.93L41.231,76.836C41.164,77.285 40.941,77.711 40.566,78.024L28.105,88.492C27.566,88.946 27.262,89.582 27.203,90.246C27.145,90.91 27.336,91.594 27.793,92.137L27.789,92.141C28.242,92.676 28.879,92.981 29.547,93.039C30.211,93.098 30.895,92.907 31.437,92.45L46.066,80.157L47.902,67.669L47.906,67.669C47.918,67.594 47.934,67.52 47.953,67.442C48.23,66.426 49.277,65.829 50.293,66.106L65.77,70.352C66.414,70.485 66.973,70.942 67.2,71.61L72.313,86.551C72.543,87.223 73.024,87.738 73.618,88.028C74.184,88.305 74.856,88.379 75.504,88.18C75.563,88.156 75.622,88.137 75.684,88.117C76.313,87.875 76.797,87.41 77.075,86.844C77.352,86.278 77.426,85.606 77.227,84.957C77.2,84.891 77.176,84.824 77.161,84.754L71.102,67.051L56.153,62.95C55.227,62.719 54.602,61.828 54.723,60.86L55.977,50.922L49.54,46.883C48.649,46.321 48.379,45.145 48.942,44.254C49.505,43.364 50.68,43.094 51.575,43.657L62.591,50.571L62.603,50.579C62.724,50.645 62.86,50.688 63.001,50.711C63.165,50.739 63.341,50.731 63.52,50.684L78.114,46.774C78.169,46.754 78.224,46.739 78.279,46.727C78.579,46.629 78.822,46.422 78.97,46.16L78.974,46.164C79.122,45.907 79.177,45.594 79.111,45.282C79.099,45.239 79.087,45.196 79.075,45.153C78.986,44.875 78.806,44.649 78.579,44.496L78.56,44.485L78.559,44.481ZM74.723,21.364C74.746,21.321 74.769,21.278 74.797,21.239C74.906,21.051 75.008,20.856 75.105,20.653C76.019,18.735 76.262,16.328 75.625,13.895L75.625,13.891C74.988,11.465 73.598,9.496 71.863,8.274C70.227,7.117 68.285,6.649 66.43,7.133C64.574,7.621 63.117,8.981 62.258,10.789C61.363,12.672 61.109,15.016 61.703,17.403C61.73,17.485 61.754,17.571 61.773,17.66C62.426,20.035 63.801,21.965 65.504,23.164C67.109,24.297 69.008,24.77 70.824,24.332C70.894,24.309 70.973,24.289 71.047,24.274C72.594,23.836 73.863,22.778 74.723,21.363L74.723,21.364ZM23.762,72.934C23.891,72.934 24.016,72.922 24.137,72.898C25.785,72.691 27.215,71.855 28.203,70.656C29.191,69.457 29.742,67.894 29.629,66.23C29.629,66.101 29.617,65.976 29.594,65.855C29.387,64.207 28.551,62.777 27.351,61.789C26.109,60.766 24.476,60.211 22.746,60.379C21.015,60.543 19.512,61.398 18.484,62.644C17.461,63.887 16.906,65.519 17.074,67.25C17.238,68.98 18.094,70.484 19.336,71.512C20.535,72.5 22.097,73.047 23.762,72.933L23.762,72.934ZM23.582,69.125C24.266,69.059 24.855,68.726 25.258,68.238C25.664,67.746 25.883,67.098 25.816,66.414C25.75,65.73 25.418,65.141 24.93,64.738C24.437,64.332 23.789,64.113 23.105,64.18C22.422,64.246 21.832,64.578 21.43,65.066C21.023,65.559 20.805,66.207 20.871,66.891C20.937,67.574 21.269,68.164 21.758,68.566C22.25,68.973 22.898,69.191 23.582,69.125ZM56.219,29.828C54.594,31.797 52.219,33.144 49.477,33.406C46.738,33.668 44.156,32.793 42.192,31.172C40.223,29.547 38.875,27.172 38.613,24.429C38.352,21.691 39.223,19.109 40.848,17.144C42.473,15.175 44.848,13.828 47.59,13.566C50.328,13.304 52.91,14.175 54.875,15.801C56.844,17.426 58.192,19.801 58.453,22.543C58.715,25.277 57.84,27.863 56.219,29.828Z" style="fill:rgb(3,60,130);"/>
            </g>
        </g>
    </g>
</svg>
