<?xml version="1.0" encoding="UTF-8" standalone="no"?>
<!DOCTYPE svg PUBLIC "-//W3C//DTD SVG 1.1//EN" "http://www.w3.org/Graphics/SVG/1.1/DTD/svg11.dtd">
<svg width="100%" height="100%" viewBox="0 0 58 58" version="1.1" xmlns="http://www.w3.org/2000/svg" xmlns:xlink="http://www.w3.org/1999/xlink" xml:space="preserve" xmlns:serif="http://www.serif.com/" style="fill-rule:evenodd;clip-rule:evenodd;stroke-linecap:round;stroke-linejoin:round;stroke-miterlimit:1.5;">
    <g transform="matrix(1,0,0,1,-197.831,-146.331)">
        <g transform="matrix(1.71951,0,0,1.80368,0,0)">
            <g transform="matrix(0.58156,0,0,0.554422,96.8298,3.32653)">
                <circle cx="60" cy="169" r="28" style="fill:white;stroke:rgb(42,196,243);stroke-width:1.34px;"/>
            </g>
        </g>
        <g transform="matrix(1.71951,0,0,1.80368,0,0)">
            <g transform="matrix(0.248286,0,0,0.2367,119.309,85.1888)">
                <path d="M55.387,20.223C57.219,20.223 58.879,19.481 60.078,18.278C61.278,17.078 62.024,15.418 62.024,13.586C62.024,11.754 61.282,10.094 60.078,8.895C58.879,7.696 57.219,6.954 55.387,6.954C53.555,6.954 51.895,7.696 50.696,8.895C49.496,10.094 48.75,11.754 48.75,13.586C48.75,15.418 49.492,17.078 50.696,18.278C51.895,19.481 53.555,20.223 55.387,20.223ZM49.641,93.047C51.473,93.047 53.133,92.305 54.332,91.102C55.532,89.902 56.278,88.242 56.278,86.41C56.278,84.578 55.535,82.918 54.332,81.719C53.133,80.52 51.473,79.774 49.641,79.774C47.809,79.774 46.149,80.516 44.95,81.719C43.75,82.918 43.004,84.578 43.004,86.41C43.004,88.242 43.746,89.902 44.95,91.102C46.149,92.305 47.809,93.047 49.641,93.047ZM57.039,93.809C55.145,95.703 52.532,96.875 49.641,96.875C46.754,96.875 44.137,95.703 42.243,93.809C40.348,91.914 39.176,89.301 39.176,86.41C39.176,83.524 40.348,80.906 42.243,79.012C44.137,77.117 46.75,75.946 49.641,75.946C52.528,75.946 55.145,77.117 57.039,79.012C58.934,80.906 60.106,83.52 60.106,86.41C60.102,89.301 58.934,91.918 57.039,93.809ZM60.817,36.379L58.422,53.391C58.34,53.996 58.547,54.574 58.942,54.981L67.563,65.215C67.821,65.519 68.004,65.996 68.196,66.504C68.27,66.695 68.344,66.886 68.524,67.308L77.625,88.292C77.664,88.382 77.696,88.492 77.723,88.609C77.836,89.132 77.672,89.699 77.344,90.206C76.946,90.816 76.336,91.328 75.641,91.632C75.438,91.718 75.215,91.792 74.977,91.843C74.215,92.007 73.532,91.839 72.946,91.46C72.121,90.925 71.434,89.996 70.93,88.91L62.371,70.469C62.25,70.203 62.157,69.969 62.071,69.742C61.774,68.976 61.493,68.25 60.848,67.48L52.555,57.586C51.879,56.777 50.672,56.672 49.864,57.348C49.719,57.469 49.598,57.605 49.5,57.754L37.523,74.703C36.992,75.457 36.281,75.992 35.488,76.269C34.726,76.535 33.875,76.554 33.023,76.285L17.359,71.343C16.516,71.047 15.867,70.433 15.5,69.683C15.129,68.921 15.043,68.023 15.34,67.168C15.633,66.312 16.25,65.656 17.008,65.285C17.769,64.914 18.668,64.828 19.523,65.121L31.668,69.293C32.551,69.597 33.504,69.214 33.95,68.429L42.532,55.644C42.867,55.148 43.129,54.644 43.336,54.113C43.547,53.57 43.688,53.019 43.774,52.437L46.067,36.835C46.219,35.792 45.496,34.82 44.453,34.667C44.004,34.601 43.571,34.699 43.211,34.91L39.094,37.078C38.34,37.476 37.68,37.949 37.102,38.511C36.524,39.078 36.035,39.726 35.617,40.476L30.969,48.824C30.891,48.964 30.785,49.101 30.657,49.23C30.383,49.503 30.055,49.71 29.731,49.8C29.539,49.851 29.379,49.863 29.285,49.812C29.274,49.804 29.262,49.796 29.246,49.781C29.117,49.652 28.973,49.542 28.821,49.46C28.438,49.253 28.18,48.91 28.067,48.523C27.953,48.128 27.985,47.695 28.196,47.312L34.539,35.687C34.797,35.214 35.09,34.812 35.43,34.492C35.754,34.183 36.141,33.921 36.606,33.714L36.606,33.718L46.676,29.277C47.031,29.121 47.359,29.015 47.676,28.957C48.004,28.898 48.348,28.878 48.727,28.898L59.997,29.48C60.458,29.503 60.876,29.582 61.266,29.718L61.266,29.722C61.665,29.863 62.043,30.062 62.411,30.332L70.586,36.234C70.844,36.417 71.129,36.531 71.422,36.574L71.422,36.578L83.649,38.39C84.032,38.449 84.356,38.656 84.571,38.945C84.786,39.234 84.892,39.609 84.833,39.996C84.778,40.378 84.567,40.703 84.278,40.917C83.989,41.132 83.614,41.238 83.227,41.179L68.989,39.07L63.946,34.91C63.134,34.242 61.931,34.359 61.263,35.171C61.001,35.492 60.861,35.87 60.833,36.253L60.825,36.249L60.817,36.379ZM64.156,40.027L62.321,53.082L70.477,62.766C71.172,63.594 71.461,64.348 71.77,65.145C71.879,65.43 71.992,65.723 72.024,65.797L81.125,86.781C81.278,87.136 81.391,87.48 81.461,87.816C81.797,89.394 81.403,90.961 80.543,92.285C79.75,93.508 78.535,94.531 77.149,95.129C76.692,95.328 76.227,95.48 75.766,95.578C73.922,95.973 72.274,95.566 70.867,94.656C69.403,93.707 68.246,92.199 67.461,90.508L58.903,72.067C58.762,71.762 58.633,71.434 58.512,71.117C58.336,70.664 58.168,70.231 57.918,69.934L51.219,61.942L40.645,76.895C39.645,78.313 38.278,79.328 36.743,79.863C35.208,80.399 33.524,80.446 31.872,79.926L16.184,74.977C16.16,74.969 16.137,74.961 16.113,74.953C14.274,74.313 12.859,72.981 12.063,71.352C11.262,69.715 11.086,67.774 11.723,65.922C12.359,64.07 13.695,62.645 15.336,61.844C16.973,61.043 18.914,60.867 20.766,61.504L31.528,65.199L39.364,53.523C39.539,53.262 39.676,53.004 39.778,52.742C39.875,52.492 39.942,52.211 39.993,51.887L41.739,40.004L40.871,40.461C40.442,40.687 40.075,40.949 39.762,41.254C39.453,41.558 39.184,41.914 38.95,42.336L34.301,50.683C34.047,51.137 33.727,51.554 33.364,51.926C32.641,52.656 31.703,53.215 30.731,53.48C29.625,53.785 28.461,53.722 27.43,53.148C27.2,53.019 26.981,52.867 26.774,52.691C25.586,51.969 24.77,50.844 24.403,49.59C24.016,48.269 24.133,46.797 24.844,45.492L31.188,33.867C31.625,33.062 32.153,32.355 32.793,31.746C33.446,31.125 34.192,30.617 35.051,30.23L35.059,30.226L35.059,30.222L45.129,25.781C45.735,25.511 46.344,25.324 46.981,25.207C47.61,25.09 48.246,25.054 48.914,25.086L60.184,25.664C61.012,25.707 61.782,25.855 62.52,26.113L62.528,26.117L62.528,26.113C63.258,26.371 63.954,26.742 64.63,27.23L72.419,32.859L84.192,34.601C85.617,34.812 86.824,35.586 87.625,36.664C88.403,37.715 88.793,39.047 88.621,40.426C88.614,40.508 88.602,40.59 88.586,40.668C88.348,42.035 87.59,43.195 86.543,43.972C85.465,44.773 84.086,45.164 82.668,44.953L67.91,42.765C67.504,42.707 67.145,42.523 66.867,42.258L64.156,40.027ZM62.785,20.984C60.891,22.879 58.278,24.051 55.387,24.051C52.5,24.051 49.883,22.879 47.989,20.984C46.094,19.09 44.922,16.476 44.922,13.586C44.922,10.699 46.094,8.082 47.989,6.187C49.883,4.297 52.496,3.125 55.387,3.125C58.274,3.125 60.891,4.297 62.785,6.191C64.68,8.086 65.852,10.699 65.852,13.59C65.848,16.476 64.68,19.09 62.785,20.984Z" style="fill:rgb(3,60,130);"/>
            </g>
        </g>
    </g>
</svg>
