<?xml version="1.0" encoding="UTF-8" standalone="no"?>
<!DOCTYPE svg PUBLIC "-//W3C//DTD SVG 1.1//EN" "http://www.w3.org/Graphics/SVG/1.1/DTD/svg11.dtd">
<svg width="100%" height="100%" viewBox="0 0 1080 524" version="1.1" xmlns="http://www.w3.org/2000/svg" xmlns:xlink="http://www.w3.org/1999/xlink" xml:space="preserve" xmlns:serif="http://www.serif.com/" style="fill-rule:evenodd;clip-rule:evenodd;stroke-linejoin:round;stroke-miterlimit:2;">
    <g>
        <path d="M178.72,114.02L131.22,114.02L131.22,137.62L172.47,137.62L172.47,153.38L131.22,153.38L131.22,173.86C131.22,175.59 132.57,176.99 134.29,176.99L178.72,176.99L178.72,208.88L121.84,208.88C116.87,208.88 112.1,206.9 108.58,203.39L94.66,189.47C91.14,185.95 89.17,181.18 89.17,176.21L89.17,82.12L178.71,82.12L178.71,114.02L178.72,114.02Z" style="fill:rgb(42,196,243);fill-rule:nonzero;"/>
        <path d="M253.49,153.58L253.49,146.61C253.49,144.88 252.03,143.48 250.31,143.48L238.68,143.48C236.95,143.48 235.55,144.89 235.55,146.61L235.55,150.38C235.55,151.85 236.57,153.11 238,153.43L281.54,163.09C289.65,164.89 296.36,169.75 294.86,181.66C294.83,181.86 294.81,182.04 294.78,182.18C291.65,198.44 278.81,208.89 260.85,208.89L228.18,208.89C207.44,208.89 193.49,194.95 193.49,174.2L193.49,172.33L235.54,172.33L235.54,179.3C235.54,181.02 237,182.43 238.73,182.43L250.35,182.43C252.07,182.43 253.48,181.02 253.48,179.3L253.48,175.53C253.48,174.06 252.47,172.8 251.03,172.48L207.49,162.82C199.38,161.02 192.66,156.15 194.17,144.25C194.2,144.05 194.22,143.87 194.25,143.73C197.38,127.47 210.22,117.03 228.17,117.03L260.84,117.03C281.59,117.03 295.53,130.97 295.53,151.72L295.53,153.6L253.48,153.6L253.49,153.58Z" style="fill:rgb(42,196,243);fill-rule:nonzero;"/>
        <path d="M407.83,151.69L407.83,157.25L365.78,157.25L365.78,146.6C365.78,144.87 364.32,143.47 362.6,143.47L351.03,143.47C349.3,143.47 347.85,144.88 347.85,146.6L347.85,179.29C347.85,181.01 349.31,182.42 351.03,182.42L362.6,182.42C364.33,182.42 365.78,181.01 365.78,179.29L365.78,168.64L407.83,168.64L407.83,174.19C407.83,194.94 393.89,208.88 373.14,208.88L340.47,208.88C319.72,208.88 305.78,194.94 305.78,174.19L305.78,151.69C305.78,130.94 319.72,117 340.47,117L373.14,117C393.89,117 407.83,130.94 407.83,151.69Z" style="fill:rgb(42,196,243);fill-rule:nonzero;"/>
        <path d="M522.29,151.7L522.29,174.2C522.29,194.95 508.35,208.89 487.6,208.89L454.93,208.89C434.18,208.89 420.24,194.95 420.24,174.2L420.24,151.7C420.24,130.95 434.18,117.01 454.93,117.01L487.6,117.01C508.35,117.01 522.29,130.95 522.29,151.7ZM480.24,179.3L480.24,146.61C480.24,144.88 478.78,143.48 477.05,143.48L465.48,143.48C463.75,143.48 462.3,144.89 462.3,146.61L462.3,179.3C462.3,181.03 463.76,182.43 465.48,182.43L477.05,182.43C478.78,182.43 480.24,181.02 480.24,179.3Z" style="fill:rgb(42,196,243);fill-rule:nonzero;"/>
        <rect x="535.79" y="82.12" width="42.05" height="126.77" style="fill:rgb(42,196,243);fill-rule:nonzero;"/>
        <path d="M649.76,117.02L649.76,208.89L607.71,208.89L607.71,143.47L591.38,143.47L591.38,117.01L649.75,117.01L649.76,117.02ZM607.96,85.48C607.96,74.01 617.26,64.7 628.74,64.7C640.22,64.7 649.52,74 649.52,85.48C649.52,96.96 640.22,106.26 628.74,106.26C617.26,106.26 607.96,96.95 607.96,85.48Z" style="fill:rgb(42,196,243);fill-rule:nonzero;"/>
        <path d="M771.48,151.7L771.48,208.89L729.43,208.89L729.43,146.61C729.43,144.88 727.97,143.48 726.25,143.48L714.67,143.48C712.94,143.48 711.49,144.89 711.49,146.61L711.49,208.89L669.44,208.89L669.44,117.02L705.24,117.02L711,127.64C717.11,120.92 726.13,117.02 737.08,117.02C757.83,117.02 771.48,130.96 771.48,151.71L771.48,151.7Z" style="fill:rgb(42,196,243);fill-rule:nonzero;"/>
        <path d="M890.11,149.68L890.11,208.89L848.06,208.89L848.06,146.6C848.06,144.87 846.71,143.47 844.99,143.47L830.11,143.47L830.11,208.88L788.06,208.88L788.06,82.11L830.11,82.11L830.11,117.01L857.44,117.01C862.41,117.01 867.18,118.99 870.7,122.5L884.62,136.42C888.14,139.94 890.11,144.71 890.11,149.68Z" style="fill:rgb(42,196,243);fill-rule:nonzero;"/>
        <path d="M1005.84,151.7L1005.84,208.89L970.04,208.89L964.27,198.26C958.16,204.98 949.14,208.89 938.19,208.89L928.64,208.89C911.54,208.89 903.76,201.06 903.79,183.92C903.79,179 905.8,174.27 909.28,170.79L923.2,156.87C926.72,153.35 931.49,151.38 936.46,151.38L963.78,151.38L963.78,146.62C963.78,144.89 962.32,143.49 960.59,143.49L903.78,143.49L903.78,117.03L971.14,117.03C991.89,117.03 1005.83,130.97 1005.83,151.72L1005.84,151.7ZM963.79,167.14L948.96,167.14C947.23,167.14 945.83,168.54 945.83,170.26L945.83,179.3C945.83,181.03 947.23,182.43 948.96,182.43L960.6,182.43C962.33,182.43 963.79,181.02 963.79,179.3L963.79,167.14Z" style="fill:rgb(42,196,243);fill-rule:nonzero;"/>
    </g>
    <path d="M466.48,437.19L489.27,358.31L584.98,358.31C588.92,358.25 592.28,355.62 593.39,352.03L604.36,315.77L504.57,315.92C504.57,315.92 502.64,315.68 501.79,317.22C501.52,317.71 500.22,320.05 500.22,320.05C500.22,320.05 511.11,282.54 526.79,282.54L607.72,282.54C611.67,282.54 615.01,279.95 616.16,276.39L629.69,230.56L530.89,230.41C498.85,232.74 475.46,259.34 460.72,310.21L421.47,443.68L457.95,443.68C462.01,443.68 465.45,440.93 466.5,437.2L466.48,437.19Z" style="fill:rgb(4,68,136);fill-rule:nonzero;"/>
    <path d="M763.79,438.51L714.08,230.55C712.47,230.57 687.81,230.55 684.67,230.55C678.44,230.55 676.23,233.5 674.89,236.18L583.65,443.66L619.42,443.66C626.51,443.66 627.73,440.55 628.82,438.14L649.69,391L706.03,390.76C712.75,390.76 714.61,395.42 714.61,395.42L726.01,443.67L756.1,443.67C756.1,443.67 765.02,443.67 763.78,438.51L763.79,438.51ZM701.03,361.03L666.8,361.03C666.8,361.03 665.3,361.09 664.91,361.09C663.39,361.09 661.68,363.84 661.68,363.84L691.27,296.19L705.72,357.21C705.75,357.37 706.47,361.03 701.03,361.03Z" style="fill:rgb(4,68,136);fill-rule:nonzero;"/>
    <path d="M969.03,230.55C960.04,230.55 955.29,230.55 950.81,240.45L892.91,367.84C892.91,367.84 892.14,369.45 891.93,369.97C890.79,372.74 891.29,376.54 891.29,376.54L854.66,230.55L819.97,230.55C810.6,230.55 803.75,230.55 802.9,241.6L782.17,443.67C786.64,443.51 805.77,443.67 805.77,443.67C816.55,443.67 822.29,440.037 822.99,432.77L835.19,312.83L867.17,440.78C880.38,440.81 868.37,440.81 880.38,440.81L886.98,440.81C895.593,440.79 901.237,437.92 903.91,432.2L957.56,313.7L944.24,443.68L969.04,443.68C978.86,443.68 984.217,439.997 985.11,432.63L1005.86,230.56L969.04,230.56L969.03,230.55Z" style="fill:rgb(4,68,136);fill-rule:nonzero;"/>
</svg>
