<?xml version="1.0" encoding="UTF-8" standalone="no"?>
<!DOCTYPE svg PUBLIC "-//W3C//DTD SVG 1.1//EN" "http://www.w3.org/Graphics/SVG/1.1/DTD/svg11.dtd">
<svg width="100%" height="100%" viewBox="0 0 1841 591" version="1.1" xmlns="http://www.w3.org/2000/svg" xmlns:xlink="http://www.w3.org/1999/xlink" xml:space="preserve" xmlns:serif="http://www.serif.com/" style="fill-rule:evenodd;clip-rule:evenodd;stroke-linejoin:round;stroke-miterlimit:2;">
    <g transform="matrix(1,0,0,1,-607.316,-2581.06)">
        <g transform="matrix(1,0,0,1,-1073.86,0)">
            <g transform="matrix(0.635359,0,0,0.635359,1397.16,2384.66)">
                <path d="M472.042,1224C455.36,1224 447.018,1218.33 447.018,1206.98C447.018,1204.31 448.353,1198.98 451.022,1190.97L678.241,540.341C682.245,528.996 686.916,521.489 692.255,517.819C697.593,514.149 705.935,512.314 717.279,512.314L781.341,512.314C792.685,512.314 801.193,514.149 806.865,517.819C812.537,521.489 817.375,528.663 821.379,539.34L1047.6,1190.97C1049.6,1196.97 1050.6,1202.31 1050.6,1206.98C1050.6,1218.33 1042.26,1224 1025.58,1224L965.518,1224C947.501,1224 934.655,1222 926.981,1217.99C919.307,1213.99 914.135,1205.98 911.466,1193.97L871.428,1066.85L622.187,1066.85L582.149,1193.97C578.812,1205.98 573.474,1213.99 566.133,1217.99C558.793,1222 546.448,1224 529.097,1224L472.042,1224ZM837.395,960.746L774.334,751.544C760.988,704.165 752.98,665.461 750.311,635.432L744.305,635.432C739.634,672.802 731.96,711.506 721.283,751.544L657.221,960.746L837.395,960.746ZM689.252,461.264C686.583,461.932 682.746,463.1 677.741,464.768C672.736,466.436 668.899,467.27 666.23,467.27C660.224,467.27 655.219,464.601 651.215,459.263L637.202,441.245C630.529,432.57 627.192,426.231 627.192,422.227C627.192,417.556 631.196,412.884 639.204,408.213L779.339,320.128C791.35,312.788 801.694,309.118 810.369,309.118C820.378,309.118 828.72,313.455 835.393,322.13L861.418,353.16C868.758,361.835 872.429,368.508 872.429,373.18C872.429,379.185 867.424,384.19 857.414,388.194L689.252,461.264Z" style="fill:white;fill-rule:nonzero;"/>
                <path d="M1161.71,1224C1152.37,1224 1145.69,1221.66 1141.69,1216.99C1137.68,1212.32 1135.68,1204.31 1135.68,1192.97L1135.68,788.58C1135.68,771.897 1137.85,759.552 1142.19,751.544C1146.53,743.537 1155.37,736.864 1168.71,731.525C1210.09,714.175 1266.14,705.5 1336.88,705.5L1383.92,705.5C1393.93,705.5 1400.94,707.502 1404.94,711.506C1408.95,715.51 1410.95,722.516 1410.95,732.526L1410.95,780.572C1410.95,791.917 1408.95,799.758 1404.94,804.095C1400.94,808.433 1393.93,810.601 1383.92,810.601L1330.87,810.601C1302.84,810.601 1279.15,814.272 1259.8,821.612C1254.46,824.949 1251.79,829.953 1251.79,836.626L1251.79,1192.97C1251.79,1204.31 1249.79,1212.32 1245.79,1216.99C1241.79,1221.66 1234.78,1224 1224.77,1224L1161.71,1224Z" style="fill:white;fill-rule:nonzero;"/>
                <path d="M1670.2,1239.01C1600.13,1239.01 1547.91,1219.66 1513.55,1180.96C1479.18,1142.26 1462,1090.2 1462,1024.81L1462,906.694C1462,837.294 1480.01,783.909 1516.05,746.54C1552.08,709.17 1603.8,690.486 1671.2,690.486C1739.26,690.486 1790.81,709.838 1825.85,748.542C1860.88,787.245 1878.4,836.96 1878.4,897.685L1878.4,958.744C1878.4,972.758 1875.23,983.435 1868.89,990.775C1862.55,998.116 1851.71,1001.79 1836.36,1001.79L1577.11,1001.79L1577.11,1038.82C1577.11,1071.52 1585.12,1096.38 1601.13,1113.39C1617.15,1130.41 1640.5,1138.92 1671.2,1138.92C1695.89,1138.92 1715.58,1134.41 1730.26,1125.4C1744.94,1116.4 1756.95,1103.22 1766.29,1085.87C1772.96,1072.52 1780.64,1065.85 1789.31,1065.85C1795.32,1065.85 1801.99,1068.18 1809.33,1072.85L1846.37,1092.87C1859.71,1100.88 1866.39,1110.22 1866.39,1120.9C1866.39,1128.24 1864.05,1135.58 1859.38,1142.92C1842.7,1173.62 1818.67,1197.31 1787.31,1213.99C1755.95,1230.67 1716.91,1239.01 1670.2,1239.01ZM1764.29,912.7L1764.29,890.679C1764.29,822.613 1733.26,788.58 1671.2,788.58C1639.84,788.58 1616.31,797.422 1600.63,815.106C1584.95,832.789 1577.11,857.98 1577.11,890.679L1577.11,912.7L1764.29,912.7Z" style="fill:white;fill-rule:nonzero;"/>
                <path d="M2160.67,1239.01C2089.94,1239.01 2038.55,1226 2006.52,1199.98C1974.49,1173.95 1958.48,1132.58 1958.48,1075.86C1958.48,1019.8 1974.32,979.431 2006.02,954.74C2037.72,930.05 2089.94,917.705 2162.67,917.705C2177.35,917.705 2192.03,918.205 2206.72,919.206C2221.4,920.207 2233.07,921.375 2241.75,922.709L2241.75,882.671C2241.75,849.305 2235.74,825.949 2223.73,812.603C2211.72,799.257 2190.7,792.584 2160.67,792.584C2118.63,792.584 2089.27,809.267 2072.59,842.632C2065.91,855.311 2057.91,861.651 2048.56,861.651C2043.89,861.651 2038.22,859.982 2031.55,856.646L1995.51,839.629C1981.5,833.624 1974.49,825.616 1974.49,815.606C1974.49,809.6 1976.16,803.261 1979.5,796.588C2013.53,725.853 2073.92,690.486 2160.67,690.486C2231.41,690.486 2281.79,707.168 2311.82,740.534C2341.85,773.899 2356.86,822.947 2356.86,887.676L2356.86,1155.93C2356.86,1173.28 2354.69,1185.63 2350.35,1192.97C2346.02,1200.31 2337.51,1206.98 2324.83,1212.99C2288.13,1230.34 2233.41,1239.01 2160.67,1239.01ZM2153.66,1142.92C2188.36,1142.92 2215.06,1140.25 2233.74,1134.91C2237.08,1133.58 2239.25,1132.08 2240.25,1130.41C2241.25,1128.74 2241.75,1125.57 2241.75,1120.9L2241.75,1012.8C2236.41,1012.8 2224.23,1012.13 2205.21,1010.79C2186.2,1009.46 2169.68,1008.79 2155.67,1008.79C2127.64,1008.79 2106.95,1014.3 2093.61,1025.31C2080.26,1036.32 2073.59,1053.17 2073.59,1075.86C2073.59,1099.21 2080.09,1116.23 2093.11,1126.91C2106.12,1137.58 2126.3,1142.92 2153.66,1142.92Z" style="fill:white;fill-rule:nonzero;"/>
                <path d="M2656.15,1239.01C2602.76,1239.01 2559.72,1229.34 2527.02,1209.99C2494.33,1190.63 2470.64,1160.27 2455.96,1118.9C2453.29,1110.89 2451.95,1105.22 2451.95,1101.88C2451.95,1089.87 2458.96,1081.86 2472.97,1077.86L2528.03,1061.84C2534.03,1059.84 2539.37,1058.84 2544.04,1058.84C2548.71,1058.84 2552.72,1060.51 2556.05,1063.85C2559.39,1067.18 2562.72,1072.85 2566.06,1080.86C2572.74,1100.21 2583.58,1114.23 2598.59,1122.9C2613.61,1131.58 2632.79,1135.91 2656.15,1135.91C2713.54,1135.91 2742.23,1116.23 2742.23,1076.86C2742.23,1054.84 2735.06,1039.32 2720.71,1030.31C2706.36,1021.31 2680.84,1014.8 2644.14,1010.79C2606.77,1006.79 2574.9,1000.12 2548.55,990.775C2522.19,981.433 2500.83,965.417 2484.48,942.729C2468.13,920.04 2459.96,889.01 2459.96,849.639C2459.96,801.593 2477.14,763.222 2511.51,734.528C2545.88,705.834 2593.42,691.486 2654.15,691.486C2704.86,691.486 2745.24,700.495 2775.26,718.513C2805.29,736.53 2827.98,762.889 2843.33,797.589C2846.67,806.264 2848.33,813.271 2848.33,818.609C2848.33,829.953 2841.66,837.961 2828.32,842.632L2783.27,859.649C2775.93,862.318 2769.93,863.653 2765.25,863.653C2760.58,863.653 2756.75,862.318 2753.74,859.649C2750.74,856.979 2747.57,851.975 2744.23,844.634C2736.89,828.619 2726.05,816.107 2711.7,807.098C2697.36,798.089 2678.17,793.585 2654.15,793.585C2628.12,793.585 2608.44,798.59 2595.09,808.599C2581.74,818.609 2575.07,832.289 2575.07,849.639C2575.07,872.328 2582.08,887.676 2596.09,895.683C2610.1,903.691 2635.13,909.697 2671.16,913.701C2731.22,919.707 2777.26,934.721 2809.3,958.744C2841.33,982.767 2857.34,1021.47 2857.34,1074.86C2857.34,1124.9 2839.99,1164.78 2805.29,1194.47C2770.59,1224.17 2720.88,1239.01 2656.15,1239.01Z" style="fill:white;fill-rule:nonzero;"/>
            </g>
            <g transform="matrix(0.175939,0,0,0.175939,2000.25,2544.25)">
                <path d="M1218.26,1042.83L1218.26,1040.82C1218.26,989.44 1200.25,948.568 1164.21,918.205C1128.17,887.842 1069.45,864.32 988.04,847.637C946.667,838.962 912.634,829.62 885.942,819.61C859.249,809.6 838.396,798.423 823.381,786.078C808.367,773.732 798.023,760.053 792.351,745.038C786.679,730.024 783.843,713.174 783.843,694.489L783.843,692.487C783.843,674.47 787.847,657.454 795.855,641.438C803.862,625.423 815.374,611.409 830.388,599.398C845.403,587.386 863.42,577.877 884.44,570.87C905.46,563.863 928.983,560.36 955.008,560.36C993.712,560.36 1029.91,566.366 1063.61,578.377C1097.31,590.389 1130.84,610.742 1164.21,639.436L1197.24,598.397C1161.87,569.702 1125.67,548.348 1088.64,534.335C1051.6,520.321 1007.73,513.315 957.01,513.315C924.312,513.315 894.283,517.986 866.923,527.328C839.564,536.671 815.874,549.683 795.855,566.366C775.835,583.049 760.154,602.567 748.809,624.922C737.465,647.277 731.793,671.467 731.793,697.492L731.793,699.494C731.793,726.187 736.13,749.876 744.805,770.563C753.481,791.249 767.327,809.434 786.346,825.115C805.364,840.797 829.888,854.477 859.916,866.155C889.945,877.833 925.98,888.009 968.021,896.684C1008.06,904.692 1040.76,913.534 1066.12,923.21C1091.47,932.886 1111.66,943.73 1126.67,955.741C1141.69,967.753 1152.03,981.099 1157.7,995.78C1163.38,1010.46 1166.21,1027.14 1166.21,1045.83L1166.21,1047.83C1166.21,1067.85 1161.87,1086.37 1153.2,1103.38C1144.52,1120.4 1132.51,1135.08 1117.16,1147.43C1101.82,1159.77 1083.13,1169.45 1061.11,1176.45C1039.09,1183.46 1015.07,1186.96 989.041,1186.96C963.016,1186.96 938.993,1184.8 916.972,1180.46C894.95,1176.12 873.93,1169.78 853.911,1161.44C833.891,1153.1 814.373,1142.42 795.354,1129.41C776.336,1116.4 757.151,1100.88 737.799,1082.86L703.766,1121.9C745.806,1159.27 789.348,1187.3 834.392,1205.98C879.435,1224.67 929.984,1234.01 986.038,1234.01C1020.07,1234.01 1051.27,1229.34 1079.63,1220C1107.99,1210.65 1132.35,1197.64 1152.7,1180.96C1173.05,1164.28 1189.07,1144.09 1200.75,1120.4C1212.42,1096.71 1218.26,1070.85 1218.26,1042.83Z" style="fill:white;fill-rule:nonzero;"/>
                <path d="M1892.91,1224L1892.91,1176.95L1441.48,1176.95L1441.48,894.682L1842.86,894.682L1842.86,847.637L1441.48,847.637L1441.48,570.37L1887.91,570.37L1887.91,523.324L1389.43,523.324L1389.43,1224L1892.91,1224Z" style="fill:white;fill-rule:nonzero;"/>
                <path d="M2720.71,1224L2720.71,523.324L2671.66,523.324L2390.39,937.724L2109.12,523.324L2060.07,523.324L2060.07,1224L2110.12,1224L2110.12,615.413L2387.39,1018.8L2391.39,1018.8L2668.66,615.413L2668.66,1224L2720.71,1224Z" style="fill:white;fill-rule:nonzero;"/>
                <path d="M3571.53,1224L3245.22,518.32L3195.17,518.32L2868.85,1224L2922.91,1224L3011.99,1027.81L3425.39,1027.81L3514.48,1224L3571.53,1224ZM3403.37,980.765L3034.01,980.765L3219.19,575.375L3403.37,980.765Z" style="fill:white;fill-rule:nonzero;"/>
                <path d="M4302.24,1224L4302.24,523.324L4252.19,523.324L4252.19,1132.91L3768.72,523.324L3719.67,523.324L3719.67,1224L3769.72,1224L3769.72,601.4L4263.2,1224L4302.24,1224Z" style="fill:white;fill-rule:nonzero;"/>
                <path d="M5153.06,1224L4826.74,518.32L4776.69,518.32L4450.38,1224L4504.43,1224L4593.52,1027.81L5006.91,1027.81L5096,1224L5153.06,1224ZM4984.89,980.765L4615.54,980.765L4800.72,575.375L4984.89,980.765Z" style="fill:white;fill-rule:nonzero;"/>
                <path d="M6207.07,873.662L6207.07,871.66C6207.07,822.279 6198.06,776.402 6180.05,734.028C6162.03,691.653 6136.51,654.784 6103.47,623.421C6070.44,592.057 6031.07,567.534 5985.36,549.85C5939.65,532.166 5889.43,523.324 5834.71,523.324L5601.49,523.324L5601.49,1224L5834.71,1224C5889.43,1224 5939.65,1214.99 5985.36,1196.97C6031.07,1178.96 6070.44,1154.27 6103.47,1122.9C6136.51,1091.54 6162.03,1054.5 6180.05,1011.8C6198.06,969.088 6207.07,923.043 6207.07,873.662ZM6153.02,875.664C6153.02,917.851 6145.51,957.188 6130.5,993.676C6115.48,1030.16 6094.3,1061.97 6066.94,1089.08C6039.58,1116.2 6006.21,1137.62 5966.84,1153.35C5927.47,1169.09 5883.43,1176.95 5834.71,1176.95L5653.54,1176.95L5653.54,570.37L5834.71,570.37C5883.43,570.37 5927.47,578.403 5966.84,594.471C6006.21,610.539 6039.58,632.299 6066.94,659.753C6094.3,687.206 6115.48,719.344 6130.5,756.166C6145.51,792.988 6153.02,832.153 6153.02,873.662L6153.02,875.664Z" style="fill:white;fill-rule:nonzero;"/>
                <path d="M6887.73,1224L6887.73,1176.95L6436.29,1176.95L6436.29,894.682L6837.68,894.682L6837.68,847.637L6436.29,847.637L6436.29,570.37L6882.72,570.37L6882.72,523.324L6384.24,523.324L6384.24,1224L6887.73,1224Z" style="fill:white;fill-rule:nonzero;"/>
            </g>
        </g>
        <g transform="matrix(5.50213,0,0,5.50213,1953.26,2625.02)">
            <path d="M50.002,93.478L50.002,97.5L53.473,97.5C56.017,97.5 58.17,95.801 58.856,93.478L50.002,93.478Z" style="fill:white;fill-rule:nonzero;"/>
            <path d="M61.907,85.541L50.002,85.541L50,90.312L61.907,90.312C63.216,90.312 64.292,89.235 64.292,87.926C64.292,86.607 63.216,85.541 61.907,85.541Z" style="fill:white;fill-rule:nonzero;"/>
            <path d="M61.907,77.603L50,77.603L50.002,82.374L61.907,82.374C63.216,82.374 64.292,81.297 64.292,79.988C64.292,78.669 63.216,77.603 61.907,77.603Z" style="fill:white;fill-rule:nonzero;"/>
            <g transform="matrix(1.13064,0,0,1.13064,-6.53187,-6.5491)">
                <path d="M53.979,50.127C53.979,47.931 52.196,46.147 50,46.147C47.804,46.147 46.021,47.931 46.021,50.127C46.021,52.333 47.804,54.117 50,54.117C52.196,54.117 53.979,52.333 53.979,50.127Z" style="fill:white;fill-rule:nonzero;"/>
            </g>
            <path d="M50,57.733C54.188,57.733 57.591,54.33 57.591,50.122C57.591,45.934 54.188,42.531 50,42.531L50.002,16.099C50.586,16.1 51.173,16.12 51.763,16.159C64.524,16.993 74.985,27.221 76.093,39.951C76.716,47.234 74.415,54.243 69.591,59.669C65.738,64.007 63.015,69.084 61.653,74.436L50,74.436L50,57.733Z" style="fill:white;fill-rule:nonzero;"/>
            <path d="M50,8.055C50.874,8.055 51.583,7.346 51.583,6.472L51.583,4.083C51.583,3.209 50.874,2.5 50,2.5C49.126,2.5 48.417,3.209 48.417,4.083L48.417,6.472C48.417,7.346 49.126,8.055 50,8.055Z" style="fill:white;fill-rule:nonzero;"/>
            <path d="M67.126,12.643C67.375,12.788 67.648,12.856 67.917,12.856C68.463,12.856 68.995,12.572 69.289,12.064L70.483,9.996C70.92,9.239 70.662,8.271 69.904,7.833C69.147,7.395 68.179,7.654 67.741,8.413L66.547,10.481C66.11,11.237 66.368,12.206 67.126,12.643Z" style="fill:white;fill-rule:nonzero;"/>
            <path d="M81.036,25.973C81.305,25.973 81.577,25.905 81.826,25.76L83.894,24.567C84.652,24.13 84.911,23.162 84.474,22.404C84.037,21.645 83.067,21.388 82.311,21.825L80.243,23.018C79.485,23.455 79.227,24.423 79.664,25.181C79.957,25.689 80.489,25.973 81.036,25.973Z" style="fill:white;fill-rule:nonzero;"/>
            <path d="M88.224,40.724L85.835,40.724C84.961,40.724 84.252,41.433 84.252,42.307C84.252,43.181 84.961,43.89 85.835,43.89L88.224,43.89C89.098,43.89 89.807,43.181 89.807,42.307C89.807,41.433 89.098,40.724 88.224,40.724Z" style="fill:white;fill-rule:nonzero;"/>
            <path d="M83.894,60.048L81.826,58.854C81.071,58.416 80.103,58.674 79.664,59.433C79.227,60.19 79.485,61.159 80.243,61.596L82.311,62.79C82.56,62.935 82.833,63.003 83.102,63.003C83.648,63.003 84.18,62.719 84.474,62.211C84.911,61.454 84.652,60.485 83.894,60.048Z" style="fill:white;fill-rule:nonzero;"/>
        </g>
    </g>
</svg>
