<?xml version="1.0" encoding="UTF-8" standalone="no"?>
<!DOCTYPE svg PUBLIC "-//W3C//DTD SVG 1.1//EN" "http://www.w3.org/Graphics/SVG/1.1/DTD/svg11.dtd">
<svg width="100%" height="100%" viewBox="0 0 2268 1009" version="1.1" xmlns="http://www.w3.org/2000/svg" xmlns:xlink="http://www.w3.org/1999/xlink" xml:space="preserve" xmlns:serif="http://www.serif.com/" style="fill-rule:evenodd;clip-rule:evenodd;stroke-linejoin:round;stroke-miterlimit:2;">
    <g transform="matrix(1,0,0,1,-172.329,-161.948)">
        <g>
            <g>
                <path d="M732.17,393.55L732.17,236.05L715.06,236.05L715.06,203.81L764.41,203.81L764.41,393.55L732.17,393.55Z" style="fill:white;fill-rule:nonzero;"/>
                <path d="M790.45,319.14L790.45,294.58L853.44,294.58L853.44,319.14L790.45,319.14ZM850.71,221.42L850.71,268.05C850.71,278.96 841.78,287.89 830.87,287.89L812.77,287.89C801.61,287.89 792.93,278.96 792.93,268.05L792.93,221.42C792.93,210.26 801.61,201.58 812.77,201.58L830.87,201.58C841.78,201.58 850.71,210.26 850.71,221.42ZM817.73,225.63L817.73,263.58C817.73,265.07 818.23,265.56 819.71,265.56L824.17,265.56C825.41,265.56 825.91,265.06 825.91,263.58L825.91,225.63C825.91,224.39 825.41,223.89 824.42,223.89L819.71,223.89C818.22,223.89 817.73,224.39 817.73,225.63Z" style="fill:white;fill-rule:nonzero;"/>
                <path d="M1005.45,227.37L961.31,227.37L961.31,275.49L998.76,275.49L998.76,307.73L961.31,307.73L961.31,361.3L1005.45,361.3L1005.45,393.54L929.07,393.54L929.07,195.11L1005.45,195.11L1005.45,227.37Z" style="fill:white;fill-rule:nonzero;"/>
                <path d="M1104.15,361.31L1104.65,361.31L1104.65,195.13L1136.89,195.13L1136.89,393.56L1081.59,393.56L1060.51,227.38L1060.01,227.38L1060.01,393.56L1027.77,393.56L1027.77,195.13L1083.57,195.13L1104.15,361.31Z" style="fill:white;fill-rule:nonzero;"/>
                <path d="M1198.63,193.64L1218.47,193.64C1238.31,193.64 1254.18,209.51 1254.18,229.36L1254.18,260.61L1221.94,260.61L1221.94,229.36C1221.94,226.88 1220.95,225.89 1218.47,225.89L1198.63,225.89C1196.15,225.89 1195.16,226.88 1195.16,229.36L1195.16,360.32C1195.16,362.8 1196.15,363.79 1198.63,363.79L1219.21,363.79C1221.19,363.79 1221.94,362.8 1221.94,360.32L1221.94,321.13L1254.18,321.13L1254.18,360.32C1254.18,380.16 1238.31,396.04 1218.47,396.04L1198.63,396.04C1178.79,396.04 1162.92,380.17 1162.92,360.32L1162.92,229.36C1162.92,209.52 1178.79,193.64 1198.63,193.64Z" style="fill:white;fill-rule:nonzero;"/>
                <path d="M1311.22,193.64L1331.06,193.64C1350.9,193.64 1366.77,209.51 1366.77,229.36L1366.77,360.32C1366.77,380.16 1350.9,396.04 1331.06,396.04L1311.22,396.04C1291.38,396.04 1275.51,380.17 1275.51,360.32L1275.51,229.36C1275.51,209.52 1291.38,193.64 1311.22,193.64ZM1311.22,363.79L1331.06,363.79C1333.79,363.79 1334.53,363.05 1334.53,360.32L1334.53,229.36C1334.53,226.63 1333.79,225.89 1331.06,225.89L1311.22,225.89C1308.49,225.89 1307.75,226.63 1307.75,229.36L1307.75,360.32C1307.75,363.05 1308.49,363.79 1311.22,363.79Z" style="fill:white;fill-rule:nonzero;"/>
                <path d="M1469.18,361.31L1469.68,361.31L1469.68,195.13L1501.92,195.13L1501.92,393.56L1446.62,393.56L1425.54,227.38L1425.04,227.38L1425.04,393.56L1392.8,393.56L1392.8,195.13L1448.6,195.13L1469.18,361.31Z" style="fill:white;fill-rule:nonzero;"/>
                <path d="M1516.78,195.13L1613.5,195.13L1613.5,227.37L1581.26,227.37L1581.26,393.55L1549.02,393.55L1549.02,227.37L1516.78,227.37L1516.78,195.13Z" style="fill:white;fill-rule:nonzero;"/>
                <path d="M1718.66,224.89L1718.66,260.61C1718.66,273.51 1710.72,284.92 1699.57,289.88C1711.72,294.34 1720.4,306 1720.4,319.64L1720.4,393.55L1688.16,393.55L1688.16,319.64C1688.16,311.21 1686.42,308.23 1682.46,306L1660.64,306L1660.64,393.56L1628.4,393.56L1628.4,195.13L1688.91,195.13C1705.28,195.13 1718.67,208.52 1718.67,224.89L1718.66,224.89ZM1686.17,261.1L1686.17,229.35C1686.17,227.61 1685.67,226.87 1684.43,226.87L1660.62,226.87L1660.62,273.75L1680.21,273.75C1684.67,272.26 1686.16,268.54 1686.16,261.1L1686.17,261.1Z" style="fill:white;fill-rule:nonzero;"/>
                <path d="M1777.43,193.64L1797.27,193.64C1817.11,193.64 1832.98,209.51 1832.98,229.36L1832.98,360.32C1832.98,380.16 1817.11,396.04 1797.27,396.04L1777.43,396.04C1757.59,396.04 1741.72,380.17 1741.72,360.32L1741.72,229.36C1741.72,209.52 1757.59,193.64 1777.43,193.64ZM1777.43,363.79L1797.27,363.79C1800,363.79 1800.74,363.05 1800.74,360.32L1800.74,229.36C1800.74,226.63 1800,225.89 1797.27,225.89L1777.43,225.89C1774.7,225.89 1773.96,226.63 1773.96,229.36L1773.96,360.32C1773.96,363.05 1774.7,363.79 1777.43,363.79Z" style="fill:white;fill-rule:nonzero;"/>
                <path d="M1934.9,323.61L1934.9,360.32C1934.9,363.05 1935.64,363.79 1938.37,363.79L1957.22,363.79C1959.95,363.79 1960.69,363.05 1960.69,360.32L1960.69,341.22C1960.69,312.7 1948.54,305.01 1928.7,293.1C1911.09,282.68 1902.66,264.08 1902.66,243L1902.66,229.36C1902.66,209.52 1918.53,193.64 1938.37,193.64L1957.22,193.64C1977.06,193.64 1992.93,212.49 1992.93,236.8L1960.69,236.8C1960.69,231.59 1960.44,225.89 1956.23,225.89L1938.38,225.89C1935.65,225.89 1934.91,226.63 1934.91,229.36L1934.91,243C1934.91,260.36 1946.07,265.82 1963.68,276.24C1982.53,287.65 1992.94,308.98 1992.94,341.22L1992.94,360.32C1992.94,380.16 1977.07,396.04 1957.23,396.04L1938.38,396.04C1918.54,396.04 1902.67,380.17 1902.67,360.32L1902.67,323.61L1934.91,323.61L1934.9,323.61Z" style="fill:white;fill-rule:nonzero;"/>
                <path d="M2048.72,193.64L2068.56,193.64C2088.4,193.64 2104.27,209.51 2104.27,229.36L2104.27,360.32C2104.27,380.16 2088.4,396.04 2068.56,396.04L2048.72,396.04C2028.88,396.04 2013.01,380.17 2013.01,360.32L2013.01,229.36C2013.01,209.52 2028.88,193.64 2048.72,193.64ZM2048.72,363.79L2068.56,363.79C2071.29,363.79 2072.03,363.05 2072.03,360.32L2072.03,229.36C2072.03,226.63 2071.29,225.89 2068.56,225.89L2048.72,225.89C2045.99,225.89 2045.25,226.63 2045.25,229.36L2045.25,360.32C2045.25,363.05 2045.99,363.79 2048.72,363.79Z" style="fill:white;fill-rule:nonzero;"/>
                <path d="M2219.83,234.81L2219.83,260.61C2219.83,279.71 2211.89,288.14 2200.73,289.88C2211.64,292.36 2221.56,298.81 2221.56,319.64L2221.56,350.64C2221.56,381.4 2209.41,393.55 2178.91,393.55L2130.3,393.55L2130.3,195.12L2176.67,195.12C2207.42,195.12 2219.82,206.53 2219.82,234.81L2219.83,234.81ZM2187.59,261.1L2187.59,235.06C2187.59,229.11 2184.61,226.87 2177.42,226.87L2162.54,226.87L2162.54,273.75L2177.92,273.75C2184.86,273.75 2187.59,270.03 2187.59,261.1ZM2189.32,350.39L2189.32,319.63C2189.32,309.96 2186.34,305.99 2178.9,305.99L2162.53,305.99L2162.53,361.3L2178.9,361.3C2186.34,361.3 2189.32,358.08 2189.32,350.39Z" style="fill:white;fill-rule:nonzero;"/>
                <path d="M2336.88,224.89L2336.88,260.61C2336.88,273.51 2328.94,284.92 2317.78,289.88C2329.93,294.34 2338.61,306 2338.61,319.64L2338.61,393.55L2306.37,393.55L2306.37,319.64C2306.37,311.21 2304.63,308.23 2300.67,306L2278.85,306L2278.85,393.56L2246.61,393.56L2246.61,195.13L2307.12,195.13C2323.49,195.13 2336.88,208.52 2336.88,224.89ZM2304.39,261.1L2304.39,229.35C2304.39,227.61 2303.89,226.87 2302.65,226.87L2278.84,226.87L2278.84,273.75L2298.43,273.75C2302.89,272.26 2304.38,268.54 2304.38,261.1L2304.39,261.1Z" style="fill:white;fill-rule:nonzero;"/>
                <path d="M2440.04,227.37L2395.9,227.37L2395.9,275.49L2433.35,275.49L2433.35,307.73L2395.9,307.73L2395.9,361.3L2440.04,361.3L2440.04,393.54L2363.66,393.54L2363.66,195.11L2440.04,195.11L2440.04,227.37Z" style="fill:white;fill-rule:nonzero;"/>
            </g>
            <g>
                <path d="M817.78,930.03L763.3,930.03L763.3,989.42L809.52,989.42L809.52,1029.22L763.3,1029.22L763.3,1095.35L817.78,1095.35L817.78,1135.15L723.5,1135.15L723.5,890.23L817.78,890.23L817.78,930.03Z" style="fill:white;fill-rule:nonzero;"/>
                <path d="M939.91,1039.02L950.32,890.23L1027.76,890.23L1036.94,1135.15L997.15,1135.15L988.27,930.03L985.21,930.03L959.8,1132.09L920.01,1132.09L894.91,930.03L891.85,930.03L882.67,1135.15L842.88,1135.15L852.37,890.23L930.42,890.23L939.91,1039.02Z" style="fill:white;fill-rule:nonzero;"/>
                <path d="M1164.58,1081.88L1156.93,1135.15L1117.14,1135.15L1155.1,900.64C1156.02,895.74 1161.83,890.23 1168.26,890.23L1208.05,890.23C1214.48,890.23 1220.29,895.44 1221.21,900.64L1259.17,1135.15L1219.38,1135.15L1211.73,1081.88L1164.58,1081.88ZM1190.29,931.86C1189.98,930.64 1189.68,930.02 1189.07,930.02L1187.23,930.02C1186.62,930.02 1186.31,930.63 1186.01,931.86L1170.09,1042.07L1206.21,1042.07L1190.29,931.86Z" style="fill:white;fill-rule:nonzero;"/>
                <path d="M1375.16,1039.02L1385.57,890.23L1463.01,890.23L1472.19,1135.15L1432.4,1135.15L1423.52,930.03L1420.46,930.03L1395.05,1132.09L1355.26,1132.09L1330.16,930.03L1327.1,930.03L1317.92,1135.15L1278.13,1135.15L1287.62,890.23L1365.67,890.23L1375.16,1039.02Z" style="fill:white;fill-rule:nonzero;"/>
                <path d="M1600.75,930.03L1546.27,930.03L1546.27,989.42L1592.49,989.42L1592.49,1029.22L1546.27,1029.22L1546.27,1095.35L1600.75,1095.35L1600.75,1135.15L1506.47,1135.15L1506.47,890.23L1600.75,890.23L1600.75,930.03Z" style="fill:white;fill-rule:nonzero;"/>
                <path d="M1739.71,926.97L1739.71,971.06C1739.71,986.98 1729.92,1001.06 1716.14,1007.19C1731.14,1012.7 1741.85,1027.09 1741.85,1043.93L1741.85,1135.16L1702.06,1135.16L1702.06,1043.93C1702.06,1033.52 1699.92,1029.85 1695.02,1027.09L1668.08,1027.09L1668.08,1135.16L1628.29,1135.16L1628.29,890.24L1702.98,890.24C1723.18,890.24 1739.71,906.77 1739.71,926.98L1739.71,926.97ZM1699.62,971.66L1699.62,932.47C1699.62,930.33 1699.01,929.41 1697.48,929.41L1668.1,929.41L1668.1,987.27L1692.28,987.27C1697.79,985.43 1699.63,980.84 1699.63,971.66L1699.62,971.66Z" style="fill:white;fill-rule:nonzero;"/>
                <rect x="1773.99" y="890.23" width="39.79" height="244.92" style="fill:white;fill-rule:nonzero;"/>
                <path d="M1891.22,888.39L1915.71,888.39C1940.2,888.39 1959.79,907.98 1959.79,932.48L1959.79,971.06L1920,971.06L1920,932.48C1920,929.42 1918.78,928.19 1915.71,928.19L1891.22,928.19C1888.16,928.19 1886.93,929.41 1886.93,932.48L1886.93,1094.13C1886.93,1097.19 1888.15,1098.42 1891.22,1098.42L1916.63,1098.42C1919.08,1098.42 1920,1097.2 1920,1094.13L1920,1045.76L1959.79,1045.76L1959.79,1094.13C1959.79,1118.62 1940.2,1138.22 1915.71,1138.22L1891.22,1138.22C1866.73,1138.22 1847.14,1118.63 1847.14,1094.13L1847.14,932.48C1847.14,907.99 1866.73,888.39 1891.22,888.39Z" style="fill:white;fill-rule:nonzero;"/>
                <path d="M2022.84,1081.88L2015.19,1135.15L1975.4,1135.15L2013.36,900.64C2014.28,895.74 2020.09,890.23 2026.52,890.23L2066.31,890.23C2072.74,890.23 2078.55,895.44 2079.47,900.64L2117.43,1135.15L2077.64,1135.15L2069.99,1081.88L2022.84,1081.88ZM2048.55,931.86C2048.24,930.64 2047.94,930.02 2047.33,930.02L2045.49,930.02C2044.88,930.02 2044.57,930.63 2044.27,931.86L2028.35,1042.07L2064.47,1042.07L2048.55,931.86Z" style="fill:white;fill-rule:nonzero;"/>
                <path d="M2233.12,1095.35L2233.73,1095.35L2233.73,890.23L2273.52,890.23L2273.52,1135.15L2205.26,1135.15L2179.24,930.03L2178.63,930.03L2178.63,1135.15L2138.84,1135.15L2138.84,890.23L2207.71,890.23L2233.12,1095.35Z" style="fill:white;fill-rule:nonzero;"/>
                <path d="M2342.4,1081.88L2334.75,1135.15L2294.96,1135.15L2332.92,900.64C2333.84,895.74 2339.65,890.23 2346.08,890.23L2385.87,890.23C2392.3,890.23 2398.11,895.44 2399.03,900.64L2436.99,1135.15L2397.2,1135.15L2389.55,1081.88L2342.4,1081.88ZM2368.11,931.86C2367.8,930.64 2367.5,930.02 2366.89,930.02L2365.05,930.02C2364.44,930.02 2364.13,930.63 2363.83,931.86L2347.91,1042.07L2384.03,1042.07L2368.11,931.86Z" style="fill:white;fill-rule:nonzero;"/>
            </g>
            <g>
                <path d="M886.95,532.47L886.95,612.6C886.95,645.81 860.38,672.38 827.18,672.38L788.16,672.38L788.16,807.31L721.75,807.31L721.75,475.18L827.18,475.18C860.39,475.18 886.95,499.26 886.95,532.47ZM820.53,607.62L820.53,541.6C820.53,536.2 818.87,534.13 814.3,534.13L788.15,534.13L788.15,613.43L814.72,613.43C818.87,613.43 820.53,611.77 820.53,607.62Z" style="fill:rgb(3,60,130);fill-rule:nonzero;"/>
                <path d="M959.17,741.29L951.28,807.3L884.87,807.3L934.68,489.29C935.93,482.65 943.81,475.17 952.53,475.17L1025.58,475.17C1034.3,475.17 1042.18,482.23 1043.43,489.29L1093.66,807.3L1027.25,807.3L1019.36,741.29L959.17,741.29ZM996.12,548.66C995.7,543.26 994.87,541.6 992.8,541.6L985.74,541.6C984.08,541.6 982.83,543.26 982.42,548.66L967.06,674.87L1011.47,674.87L996.11,548.66L996.12,548.66Z" style="fill:rgb(3,60,130);fill-rule:nonzero;"/>
                <path d="M1281.27,524.99L1281.27,584.77C1281.27,606.36 1267.99,625.46 1249.31,633.76C1269.65,641.23 1284.18,660.75 1284.18,683.58L1284.18,807.3L1217.77,807.3L1217.77,687.32C1217.77,675.7 1214.03,669.88 1210.71,666.98L1181.65,666.98L1181.65,807.3L1115.24,807.3L1115.24,475.17L1231.46,475.17C1258.86,475.17 1281.27,497.59 1281.27,524.99ZM1214.45,585.61L1214.45,538.7C1214.45,534.55 1213.62,532.89 1211.13,532.89L1181.66,532.89L1181.66,600.56L1207.81,600.56C1212.38,599.31 1214.45,595.16 1214.45,585.61Z" style="fill:rgb(3,60,130);fill-rule:nonzero;"/>
                <path d="M1378.4,591L1390.85,591L1431.53,475.17L1501.68,475.17L1438.59,622.14L1438.59,625.88L1501.68,807.31L1431.53,807.31L1390.85,657.02L1378.4,657.02L1378.4,807.31L1312.82,807.31L1312.82,475.18L1378.4,475.18L1378.4,591.01L1378.4,591Z" style="fill:rgb(3,60,130);fill-rule:nonzero;"/>
                <rect x="1522.03" y="475.17" width="66.41" height="332.13" style="fill:rgb(3,60,130);fill-rule:nonzero;"/>
                <path d="M1757.77,740.88L1762.76,740.88L1758.19,475.18L1824.6,475.18L1824.6,807.31L1715.43,807.31L1689.69,541.61L1685.12,541.61L1689.27,807.31L1622.86,807.31L1622.86,475.18L1732.86,475.18L1757.77,740.88Z" style="fill:rgb(3,60,130);fill-rule:nonzero;"/>
                <path d="M1918.42,746.69C1918.42,750.84 1920.08,752.5 1924.23,752.5L1943.74,752.5C1947.89,752.5 1949.55,750.84 1949.55,746.69L1949.55,719.7C1949.55,674.86 1929.63,661.99 1896.42,642.48C1865.7,625.04 1852.42,591.83 1852.42,555.3L1852.42,532.47C1852.42,499.26 1878.99,472.69 1912.19,472.69L1957.02,472.69C1990.23,472.69 2016.79,507.98 2016.79,554.06L1950.38,554.06C1950.38,537.87 1947.89,531.64 1941.66,531.64L1925.06,531.64C1920.91,531.64 1918.83,533.3 1918.83,537.45L1918.83,555.3C1918.83,581.46 1937.92,589.76 1967.81,606.78C1999.77,625.88 2015.96,664.9 2015.96,719.7L2015.96,751.67C2015.96,784.88 1989.39,811.45 1956.19,811.45L1911.78,811.45C1878.57,811.45 1852.01,784.88 1852.01,751.67L1852.01,690.23L1918.42,690.23L1918.42,746.69Z" style="fill:rgb(3,60,130);fill-rule:nonzero;"/>
                <path d="M2100.64,472.68L2147.55,472.68C2180.76,472.68 2207.32,499.25 2207.32,532.46L2207.32,751.67C2207.32,784.88 2180.75,811.45 2147.55,811.45L2100.64,811.45C2067.43,811.45 2040.87,784.88 2040.87,751.67L2040.87,532.46C2040.87,499.25 2067.43,472.68 2100.64,472.68ZM2113.09,752.5L2135.09,752.5C2139.24,752.5 2140.9,750.84 2140.9,746.69L2140.9,537.45C2140.9,533.3 2139.24,531.64 2135.09,531.64L2113.09,531.64C2108.94,531.64 2107.28,533.3 2107.28,537.45L2107.28,746.69C2107.28,750.84 2108.94,752.5 2113.09,752.5Z" style="fill:rgb(3,60,130);fill-rule:nonzero;"/>
                <path d="M2372.1,740.88L2377.09,740.88L2372.52,475.18L2438.93,475.18L2438.93,807.31L2329.76,807.31L2304.02,541.61L2299.45,541.61L2303.6,807.31L2237.19,807.31L2237.19,475.18L2347.19,475.18L2372.1,740.88Z" style="fill:rgb(3,60,130);fill-rule:nonzero;"/>
            </g>
        </g>
        <g id="ELEMENT">
            <path d="M209.57,590.61C156.19,568.46 157.91,462 229.61,448.73C191.85,351.1 277.31,285.04 338.94,287.89C339.69,289.51 340.81,290.92 342.21,292.03C350.07,298.55 358.33,304.57 366.94,310.05C375.78,315.58 385.33,319.89 395.32,322.85C414.59,328.28 434.77,327.03 456.48,315.18C460.99,312.84 465.31,310.18 469.43,307.21C471.2,305.84 472.87,304.34 474.42,302.73C476.58,300.59 478.41,298.15 479.88,295.49C480.83,293.7 481.55,291.81 482.03,289.85C482.35,289.05 481.97,288.15 481.17,287.83C480.37,287.51 479.47,287.89 479.15,288.69C478.24,290.2 477.22,291.64 476.1,293C474.48,295.05 472.65,296.93 470.64,298.6C469.08,299.85 467.46,301.01 465.78,302.09C461.77,304.72 457.62,307.12 453.35,309.29C437.57,317.52 422.86,319.59 408.71,317.73C397.4,316.27 386.56,312.17 375.64,306.79C364.93,301.44 354.58,295.41 344.63,288.74C344.46,288.62 344.3,288.49 344.16,288.35C346.1,288.52 347.9,288.82 349.75,289.16C329.71,239.01 393.1,194.5 439.81,218.15C499.9,119.09 658.34,156.06 658.34,289.16L658.34,656.13C655.07,651.29 650.8,647.21 645.82,644.15C638.03,639.28 628.36,636.78 616.7,635.19C603.67,633.42 590.42,634.21 577.69,637.52C544.92,646.52 523.63,672.64 515.68,700.64C507.98,727.96 512.84,757.39 532.07,774.71C543.38,784.84 559.72,790.7 581.06,789.48C581.83,789.44 582.44,788.79 582.44,788.02C582.41,787.24 581.76,786.62 580.98,786.64C561.15,786.3 546.62,779.79 536.55,769.92C519.78,753.59 515.73,727.35 522.96,702.71C530.4,677.16 549.88,653.59 579.82,645.06C591.56,641.76 603.83,640.75 615.95,642.09C626.7,643.08 635.61,645.11 643.05,649.03C648.77,652.14 653.73,656.5 657.54,661.78C657.8,662.12 658.1,662.51 658.35,662.9L658.35,724.38C657.7,723.91 657.06,723.52 656.41,723.08C646.88,717.28 636.71,712.59 626.12,709.09C622.5,707.95 618.79,707.14 615.02,706.68C611.14,706.23 607.21,706.45 603.41,707.33C602.08,707.67 598.98,708.49 598.25,709.57C597.97,709.77 597.8,710.09 597.78,710.43C598.04,711.16 597.39,710.95 598.08,711.24C598.34,711.33 598.04,711.41 598.29,711.5C598.59,711.59 598.38,711.63 598.72,711.76C599.1,712.08 599.54,712.31 600.01,712.45C600.13,712.51 600.28,712.47 600.35,712.36C600.4,712.25 600.35,712.12 600.24,712.07L600.22,712.07C600.13,711.79 599.98,711.52 599.79,711.29C599.82,711.22 599.89,711.17 599.96,711.16C599.66,711.55 600.82,711.12 600.43,711.37C600.26,711.5 600.69,712.45 600.6,712.06C600.39,711.11 603.22,711.72 604.04,711.67C607.39,711.6 610.73,711.99 613.97,712.83C617.32,713.59 620.61,714.59 623.82,715.8C633.58,719.78 642.89,724.78 651.6,730.71C654.07,732.25 656.32,734.1 658.31,736.23L658.31,1065.06C658.31,1214.41 461.5,1194.1 451.74,1068.29C456.3,1055.19 463.41,1043.11 472.64,1032.75C482.7,1021.45 495.13,1012.8 508.9,1008.71C518.2,1006.02 528,1005.48 537.54,1007.15C538.91,1007.36 540.25,1007.62 541.67,1007.72C543.3,1007.75 544.55,1007.41 546.19,1007.36C546.87,1007.66 547.67,1007.35 547.97,1006.66C547.97,1006.64 547.99,1006.62 548,1006.6C548.25,1005.9 547.91,1005.12 547.23,1004.83C546.14,1003.63 544.93,1002.54 543.62,1001.6C542.28,1000.84 540.85,1000.24 539.36,999.83C528.61,996.47 517.11,996.35 506.29,999.49C490.76,1003.61 476.74,1013.71 465.65,1026.63C462.1,1030.74 458.89,1035.13 456.06,1039.76C450.98,1048.05 447.08,1056.99 444.45,1066.35C352.11,1081.43 300.93,998.62 349.74,939.5C296.58,969.49 251.2,901.68 296.11,862.37C296.54,862.37 296.92,862.33 297.36,862.33C317.06,861.47 337.75,854.83 356.58,844.4C368.74,837.66 379.98,829.36 390,819.71C423.46,787.44 440.02,742.28 413.78,700.66C408.19,691.83 399.67,684.67 390,679.29C387.59,677.95 385.14,676.75 382.64,675.63C382.25,674.9 381.87,674.17 381.52,673.39C377.53,664.97 375.79,655.66 376.49,646.38C376.89,640.21 378.12,634.12 380.15,628.28C386.34,609.97 399.55,592.82 413.92,581.1C417.1,578.13 420.43,575.33 423.9,572.7C425.65,571.36 427.73,570.53 429.92,570.29C435.68,570.16 439.51,571.84 442.1,574.9C448.12,581.88 448.77,594.33 451.6,605.88C454.74,618.68 460.07,630.39 473.75,635.61C480.34,637.96 487.41,638.58 494.31,637.42C500.96,636.38 507.38,634.24 513.32,631.09C524.5,625.27 532.93,615.36 539.34,603.69C548.29,587.23 553.06,567.28 555.68,551.17C564.07,499.08 527.98,462.63 484.58,448.88C482.77,448.32 480.97,447.76 479.12,447.33C478.38,441.79 478.13,436.19 478.39,430.61C478.56,424.66 479.04,418.16 479.59,411.65C481.27,391.7 484.11,371.72 485.48,368.56C489.7,358.93 495.85,350.27 503.54,343.1C511.32,335.94 520.21,330.09 529.86,325.78C537.5,322.12 545.63,319.57 553.99,318.2C559.18,317.35 564.48,317.61 569.56,318.98C614.38,332.25 624.44,364.57 617.95,391.93C614.55,406.11 606.9,418.99 597.26,427.09C590.03,433.16 581.65,436.57 573.26,435.36C565.43,434.2 557.78,429.03 550.98,418.9C546.53,412.65 544.23,405.12 544.44,397.44C544.5,395.91 544.64,394.39 544.87,392.87C545.75,386.5 547.48,380.27 549.99,374.34C550.35,373.68 550.1,372.85 549.44,372.49C549.41,372.47 549.37,372.45 549.34,372.44C548.67,372.08 547.84,372.32 547.47,372.99C547.47,373.01 547.45,373.02 547.44,373.04C543.64,378.81 540.77,385.13 538.92,391.78C538.55,393.53 538.31,395.3 538.19,397.08C537.59,405.36 539.61,413.71 545.29,422.59C553.2,435.04 562.66,441.12 572.09,442.76C594.98,446.64 619.36,423.37 626.75,394.11C634.7,362.79 623.74,325.13 572.34,309.53C565.9,307.81 559.17,307.48 552.6,308.58C543.34,310.19 534.36,313.12 525.93,317.28C515.46,322.18 505.85,328.76 497.5,336.76C489.09,344.85 482.44,354.59 477.97,365.37C476.6,368.78 473.33,389.97 472.42,411.17C472.12,417.89 472.16,424.57 472.38,430.65C472.53,435.79 473.03,440.92 473.88,445.99C445.11,439.53 414.7,442.85 393.2,457.88C388.65,461 384.54,464.73 380.99,468.95C375.8,475.31 371.89,482.61 369.46,490.45C369.11,491.39 369.6,492.43 370.53,492.77C371.47,493.12 372.51,492.63 372.85,491.7C375.91,484.74 380.18,478.39 385.45,472.91C388.89,469.29 392.71,466.06 396.85,463.26C418.28,448.87 448.51,446.46 476.5,454C476.88,454.7 477.36,455.33 477.92,455.9C478.78,456.71 479.64,457.75 480.59,457.45C481.71,457.11 480.93,457.41 481.58,456.46C481.7,456.49 481.81,456.41 481.84,456.29C481.87,456.17 481.82,456.05 481.71,455.99C481.66,455.84 481.64,455.68 481.67,455.52C481.88,455.61 482.14,455.65 482.36,455.74C522.27,468.62 555.86,501.97 547.91,549.93C545.37,565.23 540.81,584.23 532.21,599.82C526.62,609.99 519.26,618.74 509.5,623.82C504.36,626.51 498.81,628.33 493.07,629.21C487.57,630.15 481.93,629.66 476.67,627.79C465.92,623.65 462.26,613.96 459.77,603.88C456.67,590.91 455.3,577.17 448.59,569.33C444.5,564.55 438.7,561.49 429.66,561.7C426.7,561.84 423.82,562.69 421.27,564.2C416.41,566.87 411.89,571.48 408.33,574.45C390.01,590.05 373.41,614.18 370.31,638.48C368.81,650.37 370.23,662.52 376.46,673.16C371.19,671.22 365.77,669.73 360.25,668.72C316.98,660.84 294.1,688.15 289.29,715.51C286.24,732.7 290.36,749.94 300.99,758.51C308.13,764.33 318.28,766.48 330.88,761.78C336.63,759.47 342.04,756.38 346.96,752.6C347.47,752.3 347.65,751.64 347.35,751.13C347.05,750.62 346.39,750.44 345.88,750.74C345.85,750.76 345.82,750.77 345.8,750.79C340.73,753.85 335.3,756.27 329.63,757.98C318.66,761.17 310.36,759.4 304.47,754.32C295.44,746.57 292.21,731.53 294.97,716.53C299.49,692.02 320.29,667.71 359.09,675.12C368.76,676.99 378.06,680.4 386.66,685.2C395.26,690.07 402.92,696.49 407.82,704.42C431.86,742.98 415.61,784.39 384.64,814.12C375.02,823.24 364.35,831.18 352.86,837.77C335.05,848.02 315.61,854.83 296.9,856.9C295.05,857.11 293.2,857.24 291.4,857.37C209.55,846.08 189.94,731.17 241.29,695.62C174.56,698.58 162.9,612.79 209.56,590.61L209.57,590.61ZM492.74,811.98C491.74,811.42 490.7,810.91 489.64,810.47C485.31,808.74 480.71,807.78 476.05,807.63C462.63,807.11 449.6,812.76 438.33,822.02C424.27,833.52 413.01,851.06 406.33,869.85C392.39,909.19 399.06,954.43 442.28,968.56C450.02,970.76 458.67,973.21 467.18,973.77C470.07,974.03 472.98,973.99 475.87,973.64C478.75,973.21 481.55,972.39 484.21,971.23C484.73,971.05 485.01,970.48 484.83,969.96C484.65,969.44 484.08,969.16 483.56,969.34C480.95,969.89 478.28,970.13 475.61,970.07C472.95,970.07 470.29,969.89 467.66,969.51C459.57,968.26 451.53,965.2 444.26,962.49C428.73,957.28 418.67,947.58 412.86,935.6C404.04,917.33 405.25,893.76 412.77,872.13C417.8,857.58 425.73,844.19 436.08,832.79C440.48,827.98 445.45,823.71 450.88,820.08C463.17,811.96 478.23,809.19 492.6,812.41C492.72,812.45 492.85,812.4 492.9,812.28C492.93,812.15 492.85,812.02 492.72,811.98L492.74,811.98ZM486.33,929.09C485.87,929.46 485.8,930.13 486.16,930.6C486.54,931.07 487.23,931.15 487.7,930.78C496.92,924.07 507.22,918.97 518.15,915.71C545.68,907.39 572.21,914.03 591.14,930.45C605.17,942.68 614.36,959.52 617.07,977.93C619.61,994.51 617.16,1012.99 607.91,1031.88C602.41,1043.16 593.07,1051.21 582.23,1056.91C573.25,1061.37 563.68,1064.52 553.8,1066.26C551.26,1066.76 548.77,1067.28 546.32,1067.67C542.93,1068.45 539.5,1069.02 536.04,1069.39C533.83,1069.74 531.58,1069.28 529.67,1068.11C529.6,1068.03 529.48,1068.01 529.4,1068.08C529.39,1068.08 529.38,1068.1 529.37,1068.11C529.29,1068.18 529.28,1068.31 529.36,1068.39L529.37,1068.4C530.5,1069.97 532.14,1071.1 534.01,1071.6C538.05,1072.85 543.34,1072.41 546.61,1072.54C549.28,1072.54 551.94,1072.54 554.65,1072.28C565.4,1071.25 575.87,1068.31 585.57,1063.58C598.25,1057.71 608.63,1047.82 615.12,1035.45C625.31,1014.9 628.11,994.74 625.31,976.63C622.14,956.33 611.72,937.87 595.98,924.67C575.12,907.26 545.7,899.72 516.41,910.55C505.32,914.83 495.11,921.12 486.31,929.11L486.33,929.09ZM288.45,551.31C303.89,579.66 337.74,593.06 382.94,560.96C393.43,553.51 404.27,543.34 415.8,530.45C416.35,529.91 416.35,529.02 415.8,528.47C415.78,528.45 415.77,528.44 415.75,528.42C415.18,527.86 414.27,527.87 413.71,528.44C413.71,528.44 413.69,528.46 413.69,528.47C403.2,538.67 391.75,547.83 379.5,555.83C337.82,582.85 308.58,573.28 294.86,547.86C289.44,537.34 286.47,525.74 286.17,513.91C285.7,501.95 287.32,489.99 290.95,478.58C294.63,467.08 300.22,456.27 307.46,446.61C314.73,436.78 323.63,428.27 333.78,421.45C333.87,421.38 333.9,421.26 333.87,421.15C333.78,421.02 333.65,420.98 333.57,421.06C310.94,432.7 293.66,452.6 285.31,476.64C280.94,488.64 278.84,501.35 279.12,514.12C279.26,527.08 282.46,539.82 288.45,551.3L288.45,551.31Z" style="fill:rgb(3,60,130);"/>
            <path d="M209.57,590.61C156.19,568.46 157.91,462 229.61,448.73C191.85,351.1 277.31,285.04 338.94,287.89C339.69,289.51 340.81,290.92 342.21,292.03C350.07,298.55 358.33,304.57 366.94,310.05C375.78,315.58 385.33,319.89 395.32,322.85C414.59,328.28 434.77,327.03 456.48,315.18C460.99,312.84 465.31,310.18 469.43,307.21C471.2,305.84 472.87,304.34 474.42,302.73C476.58,300.59 478.41,298.15 479.88,295.49C480.83,293.7 481.55,291.81 482.03,289.85C482.35,289.05 481.97,288.15 481.17,287.83C480.37,287.51 479.47,287.89 479.15,288.69C478.24,290.2 477.22,291.64 476.1,293C474.48,295.05 472.65,296.93 470.64,298.6C469.08,299.85 467.46,301.01 465.78,302.09C461.77,304.72 457.62,307.12 453.35,309.29C437.57,317.52 422.86,319.59 408.71,317.73C397.4,316.27 386.56,312.17 375.64,306.79C364.93,301.44 354.58,295.41 344.63,288.74C344.46,288.62 344.3,288.49 344.16,288.35C346.1,288.52 347.9,288.82 349.75,289.16C329.71,239.01 393.1,194.5 439.81,218.15C499.9,119.09 658.34,156.06 658.34,289.16L658.34,656.13C655.07,651.29 650.8,647.21 645.82,644.15C638.03,639.28 628.36,636.78 616.7,635.19C603.67,633.42 590.42,634.21 577.69,637.52C544.92,646.52 523.63,672.64 515.68,700.64C507.98,727.96 512.84,757.39 532.07,774.71C543.38,784.84 559.72,790.7 581.06,789.48C581.83,789.44 582.44,788.79 582.44,788.02C582.41,787.24 581.76,786.62 580.98,786.64C561.15,786.3 546.62,779.79 536.55,769.92C519.78,753.59 515.73,727.35 522.96,702.71C530.4,677.16 549.88,653.59 579.82,645.06C591.56,641.76 603.83,640.75 615.95,642.09C626.7,643.08 635.61,645.11 643.05,649.03C648.77,652.14 653.73,656.5 657.54,661.78C657.8,662.12 658.1,662.51 658.35,662.9L658.35,724.38C657.7,723.91 657.06,723.52 656.41,723.08C646.88,717.28 636.71,712.59 626.12,709.09C622.5,707.95 618.79,707.14 615.02,706.68C611.14,706.23 607.21,706.45 603.41,707.33C602.08,707.67 598.98,708.49 598.25,709.57C597.97,709.77 597.8,710.09 597.78,710.43C598.04,711.16 597.39,710.95 598.08,711.24C598.34,711.33 598.04,711.41 598.29,711.5C598.59,711.59 598.38,711.63 598.72,711.76C599.1,712.08 599.54,712.31 600.01,712.45C600.13,712.51 600.28,712.47 600.35,712.36C600.4,712.25 600.35,712.12 600.24,712.07L600.22,712.07C600.13,711.79 599.98,711.52 599.79,711.29C599.82,711.22 599.89,711.17 599.96,711.16C599.66,711.55 600.82,711.12 600.43,711.37C600.26,711.5 600.69,712.45 600.6,712.06C600.39,711.11 603.22,711.72 604.04,711.67C607.39,711.6 610.73,711.99 613.97,712.83C617.32,713.59 620.61,714.59 623.82,715.8C633.58,719.78 642.89,724.78 651.6,730.71C654.07,732.25 656.32,734.1 658.31,736.23L658.31,1065.06C658.31,1214.41 461.5,1194.1 451.74,1068.29C456.3,1055.19 463.41,1043.11 472.64,1032.75C482.7,1021.45 495.13,1012.8 508.9,1008.71C518.2,1006.02 528,1005.48 537.54,1007.15C538.91,1007.36 540.25,1007.62 541.67,1007.72C543.3,1007.75 544.55,1007.41 546.19,1007.36C546.87,1007.66 547.67,1007.35 547.97,1006.66C547.97,1006.64 547.99,1006.62 548,1006.6C548.25,1005.9 547.91,1005.12 547.23,1004.83C546.14,1003.63 544.93,1002.54 543.62,1001.6C542.28,1000.84 540.85,1000.24 539.36,999.83C528.61,996.47 517.11,996.35 506.29,999.49C490.76,1003.61 476.74,1013.71 465.65,1026.63C462.1,1030.74 458.89,1035.13 456.06,1039.76C450.98,1048.05 447.08,1056.99 444.45,1066.35C352.11,1081.43 300.93,998.62 349.74,939.5C296.58,969.49 251.2,901.68 296.11,862.37C296.54,862.37 296.92,862.33 297.36,862.33C317.06,861.47 337.75,854.83 356.58,844.4C368.74,837.66 379.98,829.36 390,819.71C423.46,787.44 440.02,742.28 413.78,700.66C408.19,691.83 399.67,684.67 390,679.29C387.59,677.95 385.14,676.75 382.64,675.63C382.25,674.9 381.87,674.17 381.52,673.39C377.53,664.97 375.79,655.66 376.49,646.38C376.89,640.21 378.12,634.12 380.15,628.28C386.34,609.97 399.55,592.82 413.92,581.1C417.1,578.13 420.43,575.33 423.9,572.7C425.65,571.36 427.73,570.53 429.92,570.29C435.68,570.16 439.51,571.84 442.1,574.9C448.12,581.88 448.77,594.33 451.6,605.88C454.74,618.68 460.07,630.39 473.75,635.61C480.34,637.96 487.41,638.58 494.31,637.42C500.96,636.38 507.38,634.24 513.32,631.09C524.5,625.27 532.93,615.36 539.34,603.69C548.29,587.23 553.06,567.28 555.68,551.17C564.07,499.08 527.98,462.63 484.58,448.88C482.77,448.32 480.97,447.76 479.12,447.33C478.38,441.79 478.13,436.19 478.39,430.61C478.56,424.66 479.04,418.16 479.59,411.65C481.27,391.7 484.11,371.72 485.48,368.56C489.7,358.93 495.85,350.27 503.54,343.1C511.32,335.94 520.21,330.09 529.86,325.78C537.5,322.12 545.63,319.57 553.99,318.2C559.18,317.35 564.48,317.61 569.56,318.98C614.38,332.25 624.44,364.57 617.95,391.93C614.55,406.11 606.9,418.99 597.26,427.09C590.03,433.16 581.65,436.57 573.26,435.36C565.43,434.2 557.78,429.03 550.98,418.9C546.53,412.65 544.23,405.12 544.44,397.44C544.5,395.91 544.64,394.39 544.87,392.87C545.75,386.5 547.48,380.27 549.99,374.34C550.35,373.68 550.1,372.85 549.44,372.49C549.41,372.47 549.37,372.45 549.34,372.44C548.67,372.08 547.84,372.32 547.47,372.99C547.47,373.01 547.45,373.02 547.44,373.04C543.64,378.81 540.77,385.13 538.92,391.78C538.55,393.53 538.31,395.3 538.19,397.08C537.59,405.36 539.61,413.71 545.29,422.59C553.2,435.04 562.66,441.12 572.09,442.76C594.98,446.64 619.36,423.37 626.75,394.11C634.7,362.79 623.74,325.13 572.34,309.53C565.9,307.81 559.17,307.48 552.6,308.58C543.34,310.19 534.36,313.12 525.93,317.28C515.46,322.18 505.85,328.76 497.5,336.76C489.09,344.85 482.44,354.59 477.97,365.37C476.6,368.78 473.33,389.97 472.42,411.17C472.12,417.89 472.16,424.57 472.38,430.65C472.53,435.79 473.03,440.92 473.88,445.99C445.11,439.53 414.7,442.85 393.2,457.88C388.65,461 384.54,464.73 380.99,468.95C375.8,475.31 371.89,482.61 369.46,490.45C369.11,491.39 369.6,492.43 370.53,492.77C371.47,493.12 372.51,492.63 372.85,491.7C375.91,484.74 380.18,478.39 385.45,472.91C388.89,469.29 392.71,466.06 396.85,463.26C418.28,448.87 448.51,446.46 476.5,454C476.88,454.7 477.36,455.33 477.92,455.9C478.78,456.71 479.64,457.75 480.59,457.45C481.71,457.11 480.93,457.41 481.58,456.46C481.7,456.49 481.81,456.41 481.84,456.29C481.87,456.17 481.82,456.05 481.71,455.99C481.66,455.84 481.64,455.68 481.67,455.52C481.88,455.61 482.14,455.65 482.36,455.74C522.27,468.62 555.86,501.97 547.91,549.93C545.37,565.23 540.81,584.23 532.21,599.82C526.62,609.99 519.26,618.74 509.5,623.82C504.36,626.51 498.81,628.33 493.07,629.21C487.57,630.15 481.93,629.66 476.67,627.79C465.92,623.65 462.26,613.96 459.77,603.88C456.67,590.91 455.3,577.17 448.59,569.33C444.5,564.55 438.7,561.49 429.66,561.7C426.7,561.84 423.82,562.69 421.27,564.2C416.41,566.87 411.89,571.48 408.33,574.45C390.01,590.05 373.41,614.18 370.31,638.48C368.81,650.37 370.23,662.52 376.46,673.16C371.19,671.22 365.77,669.73 360.25,668.72C316.98,660.84 294.1,688.15 289.29,715.51C286.24,732.7 290.36,749.94 300.99,758.51C308.13,764.33 318.28,766.48 330.88,761.78C336.63,759.47 342.04,756.38 346.96,752.6C347.47,752.3 347.65,751.64 347.35,751.13C347.05,750.62 346.39,750.44 345.88,750.74C345.85,750.76 345.82,750.77 345.8,750.79C340.73,753.85 335.3,756.27 329.63,757.98C318.66,761.17 310.36,759.4 304.47,754.32C295.44,746.57 292.21,731.53 294.97,716.53C299.49,692.02 320.29,667.71 359.09,675.12C368.76,676.99 378.06,680.4 386.66,685.2C395.26,690.07 402.92,696.49 407.82,704.42C431.86,742.98 415.61,784.39 384.64,814.12C375.02,823.24 364.35,831.18 352.86,837.77C335.05,848.02 315.61,854.83 296.9,856.9C295.05,857.11 293.2,857.24 291.4,857.37C209.55,846.08 189.94,731.17 241.29,695.62C174.56,698.58 162.9,612.79 209.56,590.61L209.57,590.61ZM492.74,811.98C491.74,811.42 490.7,810.91 489.64,810.47C485.31,808.74 480.71,807.78 476.05,807.63C462.63,807.11 449.6,812.76 438.33,822.02C424.27,833.52 413.01,851.06 406.33,869.85C392.39,909.19 399.06,954.43 442.28,968.56C450.02,970.76 458.67,973.21 467.18,973.77C470.07,974.03 472.98,973.99 475.87,973.64C478.75,973.21 481.55,972.39 484.21,971.23C484.73,971.05 485.01,970.48 484.83,969.96C484.65,969.44 484.08,969.16 483.56,969.34C480.95,969.89 478.28,970.13 475.61,970.07C472.95,970.07 470.29,969.89 467.66,969.51C459.57,968.26 451.53,965.2 444.26,962.49C428.73,957.28 418.67,947.58 412.86,935.6C404.04,917.33 405.25,893.76 412.77,872.13C417.8,857.58 425.73,844.19 436.08,832.79C440.48,827.98 445.45,823.71 450.88,820.08C463.17,811.96 478.23,809.19 492.6,812.41C492.72,812.45 492.85,812.4 492.9,812.28C492.93,812.15 492.85,812.02 492.72,811.98L492.74,811.98ZM486.33,929.09C485.87,929.46 485.8,930.13 486.16,930.6C486.54,931.07 487.23,931.15 487.7,930.78C496.92,924.07 507.22,918.97 518.15,915.71C545.68,907.39 572.21,914.03 591.14,930.45C605.17,942.68 614.36,959.52 617.07,977.93C619.61,994.51 617.16,1012.99 607.91,1031.88C602.41,1043.16 593.07,1051.21 582.23,1056.91C573.25,1061.37 563.68,1064.52 553.8,1066.26C551.26,1066.76 548.77,1067.28 546.32,1067.67C542.93,1068.45 539.5,1069.02 536.04,1069.39C533.83,1069.74 531.58,1069.28 529.67,1068.11C529.6,1068.03 529.48,1068.01 529.4,1068.08C529.39,1068.08 529.38,1068.1 529.37,1068.11C529.29,1068.18 529.28,1068.31 529.36,1068.39L529.37,1068.4C530.5,1069.97 532.14,1071.1 534.01,1071.6C538.05,1072.85 543.34,1072.41 546.61,1072.54C549.28,1072.54 551.94,1072.54 554.65,1072.28C565.4,1071.25 575.87,1068.31 585.57,1063.58C598.25,1057.71 608.63,1047.82 615.12,1035.45C625.31,1014.9 628.11,994.74 625.31,976.63C622.14,956.33 611.72,937.87 595.98,924.67C575.12,907.26 545.7,899.72 516.41,910.55C505.32,914.83 495.11,921.12 486.31,929.11L486.33,929.09ZM288.45,551.31C303.89,579.66 337.74,593.06 382.94,560.96C393.43,553.51 404.27,543.34 415.8,530.45C416.35,529.91 416.35,529.02 415.8,528.47C415.78,528.45 415.77,528.44 415.75,528.42C415.18,527.86 414.27,527.87 413.71,528.44C413.71,528.44 413.69,528.46 413.69,528.47C403.2,538.67 391.75,547.83 379.5,555.83C337.82,582.85 308.58,573.28 294.86,547.86C289.44,537.34 286.47,525.74 286.17,513.91C285.7,501.95 287.32,489.99 290.95,478.58C294.63,467.08 300.22,456.27 307.46,446.61C314.73,436.78 323.63,428.27 333.78,421.45C333.87,421.38 333.9,421.26 333.87,421.15C333.78,421.02 333.65,420.98 333.57,421.06C310.94,432.7 293.66,452.6 285.31,476.64C280.94,488.64 278.84,501.35 279.12,514.12C279.26,527.08 282.46,539.82 288.45,551.3L288.45,551.31Z" style="fill:rgb(3,60,130);"/>
        </g>
    </g>
</svg>
