<?xml version="1.0" encoding="UTF-8" standalone="no"?>
<!DOCTYPE svg PUBLIC "-//W3C//DTD SVG 1.1//EN" "http://www.w3.org/Graphics/SVG/1.1/DTD/svg11.dtd">
<svg width="100%" height="100%" viewBox="0 0 72 72" version="1.1" xmlns="http://www.w3.org/2000/svg" xmlns:xlink="http://www.w3.org/1999/xlink" xml:space="preserve" xmlns:serif="http://www.serif.com/" style="fill-rule:evenodd;clip-rule:evenodd;stroke-linejoin:round;stroke-miterlimit:2;">
    <g transform="matrix(1,0,0,1,-225.67,-45.9968)">
        <g transform="matrix(1,0,0,1,23.8786,13.4474)">
            <g transform="matrix(1,0,0,1,182.587,-8.65194)">
                <path d="M54.708,41.201C74.303,41.201 90.211,57.11 90.211,76.705C90.211,96.299 74.303,112.208 54.708,112.208C35.113,112.208 19.205,96.299 19.205,76.705C19.205,57.11 35.113,41.201 54.708,41.201ZM49.053,73.473L47.578,71.971C45.624,71.993 39.307,71.331 37.273,70.979L37.273,82.284C47.417,83.285 52.734,83.541 58.676,83.351L58.774,83.351L49.053,73.473ZM59.417,83.963C59.417,83.963 53.365,84.38 48.225,83.911C48.32,90.168 49.085,93.373 49.21,94.061L60.45,94.061C59.91,90.773 59.489,85.465 59.417,83.963ZM40.343,70.979C41.098,71.041 47.726,71.616 48.168,71.616C48.168,71.589 58.658,82.284 58.658,82.284L72.143,82.284L72.143,70.979L40.343,70.979ZM49.128,70.316L60.45,70.316L60.45,59.348L49.128,59.348L49.128,70.316ZM59.362,82.869C59.362,82.869 59.954,83.498 60.119,83.68C60.058,85.39 60.572,90.741 60.745,91.66L60.745,82.869L59.362,82.869Z" style="fill:rgb(3,60,130);"/>
            </g>
        </g>
    </g>
</svg>
