<?xml version="1.0" encoding="UTF-8" standalone="no"?>
<!DOCTYPE svg PUBLIC "-//W3C//DTD SVG 1.1//EN" "http://www.w3.org/Graphics/SVG/1.1/DTD/svg11.dtd">
<svg width="100%" height="100%" viewBox="0 0 38 56" version="1.1" xmlns="http://www.w3.org/2000/svg" xmlns:xlink="http://www.w3.org/1999/xlink" xml:space="preserve" xmlns:serif="http://www.serif.com/" style="fill-rule:evenodd;clip-rule:evenodd;stroke-linejoin:round;stroke-miterlimit:2;">
    <g transform="matrix(1,0,0,1,-4612.68,-456.252)">
        <g transform="matrix(1,0,0,1,0,208.333)">
            <g transform="matrix(0.0685727,0,0,0.0685727,4590.34,210.094)">
                <path d="M325.891,1120.02C325.891,1083.96 335.246,1052.83 353.955,1026.64C372.664,1000.45 395.286,978.675 421.819,961.327C448.352,943.978 482.029,925.439 522.849,905.709C524.89,904.348 526.591,903.498 527.952,903.158C529.313,902.818 531.013,901.967 533.054,900.606C564.35,884.959 588.672,872.202 606.021,862.337C623.37,852.472 637.827,841.077 649.393,828.15C660.958,815.224 666.741,800.597 666.741,784.268C666.741,763.178 658.407,748.38 641.739,739.876C625.07,731.372 605.17,727.12 582.039,727.12L365.691,727.12L365.691,551.592L658.577,551.592C698.037,551.592 733.755,561.967 765.731,582.718C797.707,603.468 822.879,631.532 841.248,666.91C859.618,702.287 868.802,741.067 868.802,783.248C868.802,830.191 858.937,869.141 839.207,900.096C819.478,931.052 795.325,955.544 766.751,973.573C738.177,991.602 702.799,1009.46 660.618,1027.15C647.011,1033.27 633.064,1039.4 618.777,1045.52C598.367,1055.72 581.359,1066.1 567.752,1076.64C554.145,1087.19 543.259,1099.61 535.095,1113.89C526.931,1128.18 522.849,1145.19 522.849,1164.92L522.849,1193.49L857.577,1193.49L857.577,1368L325.891,1368L325.891,1120.02Z" style="fill:rgb(229,56,136);fill-rule:nonzero;"/>
            </g>
        </g>
    </g>
</svg>
