<?xml version="1.0" encoding="UTF-8" standalone="no"?>
<!DOCTYPE svg PUBLIC "-//W3C//DTD SVG 1.1//EN" "http://www.w3.org/Graphics/SVG/1.1/DTD/svg11.dtd">
<svg width="100%" height="100%" viewBox="0 0 143 143" version="1.1" xmlns="http://www.w3.org/2000/svg" xmlns:xlink="http://www.w3.org/1999/xlink" xml:space="preserve" xmlns:serif="http://www.serif.com/" style="fill-rule:evenodd;clip-rule:evenodd;stroke-linejoin:round;stroke-miterlimit:2;">
    <g transform="matrix(1,0,0,1,-153.61,-8899.29)">
        <g transform="matrix(1,0,0,1,0,8072)">
            <g transform="matrix(0.484669,0,0,0.484669,-587.414,545.698)">
                <path d="M1675.43,581C1756.3,581 1821.94,646.648 1821.94,727.508C1821.94,808.368 1756.3,874.016 1675.43,874.016C1594.58,874.016 1528.93,808.368 1528.93,727.508C1528.93,646.648 1594.58,581 1675.43,581ZM1659.08,712.132C1659.05,712.122 1659.02,712.119 1659,712.108C1658.99,712.103 1658.97,712.089 1658.96,712.084C1658.7,711.982 1633.22,701.614 1627.01,683.803C1625.6,679.761 1625.35,675.665 1626.18,671.449C1628.87,673.563 1632.25,674.835 1635.93,674.835C1644.64,674.835 1651.73,667.748 1651.73,659.034C1651.73,650.32 1644.64,643.233 1635.93,643.233C1627.69,643.233 1620.91,649.574 1620.2,657.63C1614.8,667.688 1613.71,677.656 1617.06,687.27C1623.37,705.346 1643.62,716.532 1651.7,720.377C1650.96,764.377 1635.75,764.377 1630.66,764.377C1615.92,764.377 1614.91,755.542 1614.86,753.843C1614.86,750.935 1612.5,748.576 1609.6,748.576C1606.68,748.576 1604.33,750.935 1604.33,753.843C1604.33,761.13 1609.83,774.911 1630.66,774.911C1639.36,774.911 1646.2,771.683 1651.28,765.267C1653.93,772.488 1654.41,779.138 1652.64,785.093C1649.3,796.34 1638.92,801.76 1638.84,801.803C1636.24,803.104 1635.18,806.267 1636.49,808.871C1637.41,810.717 1639.27,811.783 1641.2,811.783C1641.99,811.783 1642.8,811.604 1643.55,811.227C1644.14,810.934 1657.97,803.866 1662.69,788.262C1665.89,777.684 1664.1,765.988 1657.49,753.485C1660.06,746.058 1661.59,736.683 1662.07,725.314C1668.94,729.151 1673.02,733.178 1673.48,736.772C1674.01,740.917 1669.65,744.354 1669.64,744.365C1667.31,746.111 1666.84,749.413 1668.59,751.739C1669.62,753.119 1671.2,753.845 1672.8,753.845C1673.9,753.845 1675.01,753.503 1675.96,752.792C1679.38,750.222 1684.92,743.704 1683.94,735.566C1682.87,726.631 1674.5,718.746 1659.08,712.132ZM1741.27,674.835L1704.4,674.835C1701.5,674.835 1699.14,677.194 1699.14,680.102C1699.14,683.009 1701.5,685.369 1704.4,685.369L1705.21,685.369L1709.75,712.571C1710.16,715.109 1712.36,716.971 1714.94,716.971L1730.74,716.971C1733.31,716.971 1735.51,715.109 1735.94,712.571L1740.47,685.369L1741.28,685.369C1744.18,685.369 1746.54,683.009 1746.54,680.102C1746.54,677.194 1744.18,674.835 1741.27,674.835ZM1726.28,706.437L1719.4,706.437L1715.89,685.369L1729.79,685.369L1726.28,706.437ZM1667.54,706.437C1676.25,706.437 1683.34,699.35 1683.34,690.636C1683.34,681.922 1676.25,674.835 1667.54,674.835C1658.82,674.835 1651.73,681.922 1651.73,690.636C1651.73,699.35 1658.82,706.437 1667.54,706.437Z" style="fill:white;"/>
            </g>
        </g>
    </g>
</svg>
