<?xml version="1.0" encoding="UTF-8" standalone="no"?>
<!DOCTYPE svg PUBLIC "-//W3C//DTD SVG 1.1//EN" "http://www.w3.org/Graphics/SVG/1.1/DTD/svg11.dtd">
<svg width="100%" height="100%" viewBox="0 0 143 143" version="1.1" xmlns="http://www.w3.org/2000/svg" xmlns:xlink="http://www.w3.org/1999/xlink" xml:space="preserve" xmlns:serif="http://www.serif.com/" style="fill-rule:evenodd;clip-rule:evenodd;stroke-linejoin:round;stroke-miterlimit:2;">
    <g transform="matrix(1,0,0,1,-16173.9,-5319.02)">
        <g transform="matrix(0.484669,0,0,0.484669,15432.9,5037.42)">
            <path d="M1675.43,581C1756.3,581 1821.94,646.648 1821.94,727.508C1821.94,808.368 1756.3,874.016 1675.43,874.016C1594.58,874.016 1528.93,808.368 1528.93,727.508C1528.93,646.648 1594.58,581 1675.43,581ZM1724.41,799.968C1726.29,799.205 1727.51,797.381 1727.51,795.356C1727.72,795.171 1727.72,794.983 1727.72,794.793C1727.72,792.386 1726.47,790.152 1724.41,788.902C1722.35,787.652 1719.79,787.566 1717.65,788.676C1714.38,790.434 1712,792.81 1710.03,794.784C1706.82,797.986 1705.25,799.404 1701.58,799.404C1697.9,799.404 1696.33,797.986 1693.13,794.784C1689.56,791.215 1684.68,786.332 1675.43,786.332C1666.19,786.332 1661.31,791.215 1657.74,794.784C1654.53,797.986 1652.96,799.404 1649.29,799.404C1645.62,799.404 1644.04,797.986 1640.84,794.784C1638.82,792.765 1636.38,790.325 1632.97,788.586C1630.87,787.534 1628.38,787.642 1626.39,788.873C1624.39,790.104 1623.17,792.281 1623.17,794.626C1623.14,794.88 1623.14,795.13 1623.14,795.374C1623.15,797.475 1624.42,799.365 1626.37,800.154C1628.15,800.644 1629.53,801.966 1631.6,804.025C1635.16,807.594 1640.05,812.477 1649.29,812.477C1658.53,812.477 1663.42,807.594 1666.98,804.025C1670.18,800.823 1671.76,799.405 1675.43,799.405C1679.11,799.405 1680.68,800.823 1683.88,804.025C1687.45,807.594 1692.34,812.477 1701.58,812.477C1710.82,812.477 1715.71,807.594 1719.27,804.025C1721.33,801.97 1722.71,800.65 1724.41,799.968ZM1695.04,701.363C1695.04,712.177 1703.84,720.971 1714.65,720.971C1725.47,720.971 1734.26,712.177 1734.26,701.363C1734.26,690.55 1725.47,681.755 1714.65,681.755C1703.84,681.755 1695.04,690.55 1695.04,701.363ZM1649.29,753.652C1650.96,753.652 1652.63,753.014 1653.91,751.736C1671.15,734.494 1687.85,734.053 1688.51,734.043C1691.15,734.043 1693.53,732.452 1694.55,730.008C1695.56,727.567 1695,724.756 1693.13,722.887C1678.93,708.69 1672.92,695.662 1675.26,684.153C1679.07,665.427 1703.77,655.241 1704.01,655.146C1707.36,653.807 1708.99,650.002 1707.65,646.649C1706.31,643.3 1702.51,641.666 1699.15,643.009C1697.87,643.523 1667.73,655.849 1662.47,681.478C1659.72,694.835 1664.22,708.848 1675.85,723.242C1667.49,725.774 1656.02,731.14 1644.67,742.497C1642.12,745.048 1642.12,749.186 1644.67,751.739C1645.95,753.016 1647.62,753.652 1649.29,753.652ZM1574.58,767.489C1576.2,768.264 1577.64,769.695 1579.3,771.355C1582.87,774.918 1587.77,779.794 1597,779.794C1606.25,779.794 1611.13,774.911 1614.7,771.342C1617.9,768.14 1619.47,766.722 1623.15,766.722C1626.82,766.722 1628.39,768.14 1631.6,771.342C1635.16,774.911 1640.05,779.794 1649.29,779.794C1658.53,779.794 1663.42,774.911 1666.98,771.342C1670.19,768.14 1671.76,766.722 1675.43,766.722C1679.11,766.722 1680.68,768.14 1683.89,771.342C1687.45,774.911 1692.34,779.794 1701.58,779.794C1710.82,779.794 1715.71,774.911 1719.27,771.342C1722.48,768.14 1724.05,766.722 1727.72,766.722C1731.4,766.722 1732.97,768.14 1736.17,771.342C1739.74,774.911 1744.62,779.794 1753.87,779.794C1763.11,779.794 1768,774.918 1771.57,771.355C1773.23,769.695 1774.67,768.267 1776.29,767.489C1779.55,765.934 1780.93,762.034 1779.37,758.776C1777.82,755.514 1773.91,754.135 1770.66,755.695C1767.02,757.43 1764.53,759.911 1762.34,762.1C1759.12,765.303 1757.55,766.721 1753.87,766.721C1750.19,766.721 1748.62,765.303 1745.42,762.101C1741.85,758.532 1736.97,753.649 1727.72,753.649C1718.48,753.649 1713.6,758.532 1710.03,762.101C1706.82,765.303 1705.25,766.721 1701.58,766.721C1697.91,766.721 1696.33,765.303 1693.13,762.101C1689.56,758.532 1684.68,753.649 1675.43,753.649C1666.19,753.649 1661.31,758.532 1657.74,762.101C1654.54,765.303 1652.97,766.721 1649.29,766.721C1645.62,766.721 1644.04,765.303 1640.84,762.101C1637.28,758.532 1632.39,753.649 1623.15,753.649C1613.9,753.649 1609.02,758.532 1605.45,762.101C1602.25,765.303 1600.68,766.721 1597,766.721C1593.32,766.721 1591.75,765.303 1588.53,762.101C1586.34,759.911 1583.85,757.431 1580.21,755.696C1576.95,754.141 1573.06,755.52 1571.5,758.778C1569.94,762.036 1571.32,765.937 1574.58,767.489Z" style="fill:white;"/>
        </g>
    </g>
</svg>
