<?xml version="1.0" encoding="UTF-8" standalone="no"?>
<!DOCTYPE svg PUBLIC "-//W3C//DTD SVG 1.1//EN" "http://www.w3.org/Graphics/SVG/1.1/DTD/svg11.dtd">
<svg width="100%" height="100%" viewBox="0 0 143 143" version="1.1" xmlns="http://www.w3.org/2000/svg" xmlns:xlink="http://www.w3.org/1999/xlink" xml:space="preserve" xmlns:serif="http://www.serif.com/" style="fill-rule:evenodd;clip-rule:evenodd;stroke-linejoin:round;stroke-miterlimit:2;">
    <g transform="matrix(1,0,0,1,-11403.6,-6726.69)">
        <g transform="matrix(1,0,0,1,10481.9,6221)">
            <g transform="matrix(0.484669,0,0,0.484669,180.681,224.1)">
                <path d="M1675.43,581C1756.3,581 1821.94,646.648 1821.94,727.508C1821.94,808.368 1756.3,874.016 1675.43,874.016C1594.58,874.016 1528.93,808.368 1528.93,727.508C1528.93,646.648 1594.58,581 1675.43,581ZM1745.87,739.525C1747.59,739.525 1749.25,738.845 1750.48,737.611C1751.68,736.411 1752.36,734.722 1752.36,733.032C1752.36,731.343 1751.68,729.654 1750.48,728.453C1748.04,726.02 1743.7,726.02 1741.26,728.453C1740.06,729.654 1739.38,731.311 1739.38,733.032C1739.38,734.722 1740.06,736.411 1741.26,737.611C1742.5,738.845 1744.15,739.525 1745.87,739.525ZM1660.09,688.449C1660.02,688.401 1659.95,688.36 1659.87,688.328C1657.99,687.577 1647.2,683.454 1635.68,682.985C1627.86,682.666 1619.72,684.042 1613.71,689.153C1605.74,695.924 1603.37,707.426 1606.92,723.391C1607.59,726.418 1610.27,728.476 1613.25,728.476C1613.72,728.476 1614.19,728.424 1614.66,728.32C1618.16,727.544 1620.37,724.073 1619.59,720.573C1618.59,716.072 1617.86,710.71 1618.6,706.164C1619.06,703.298 1620.11,700.76 1622.11,699.05C1624.13,697.333 1626.93,696.475 1630.05,696.144C1634.36,695.686 1639.26,696.245 1643.69,697.139C1634.76,705.854 1623.34,721.428 1623.34,744.085C1623.34,753.352 1623.38,763.985 1616.99,774.198C1612.73,781.007 1605.61,787.615 1593.77,793.533C1590.57,795.137 1589.27,799.037 1590.87,802.246C1592.01,804.518 1594.3,805.833 1596.68,805.833C1597.66,805.833 1598.65,805.613 1599.58,805.148C1630.2,789.839 1635.29,769.435 1636.15,753.21C1641.13,755.321 1646.93,758.387 1651.37,762.308C1654.49,765.061 1656.94,768.231 1657.89,771.806C1659.64,778.414 1656,786.092 1647.34,794.749C1644.81,797.284 1644.81,801.394 1647.34,803.93C1648.61,805.199 1650.27,805.833 1651.93,805.833C1653.6,805.833 1655.26,805.199 1656.53,803.929C1668.81,791.649 1673.42,779.692 1670.44,768.468C1668.63,761.674 1664.18,756.114 1658.87,751.693C1651.36,745.438 1642.13,741.469 1636.55,739.447C1637.71,726.476 1643.57,716.708 1649.25,710.128C1649.61,719.089 1652.83,725.494 1657.59,730.606C1664.42,737.953 1673.3,738.789 1680.74,737.548C1688.11,736.32 1694.03,733.043 1695.07,732.214C1695.07,732.211 1695.1,732.192 1695.1,732.192L1695.14,732.154C1695.16,732.136 1695.18,732.118 1695.2,732.099L1701.67,725.631C1704.95,727.432 1708.71,728.475 1712.72,728.475C1725.44,728.475 1735.79,718.126 1735.79,705.406C1735.79,692.685 1725.44,682.336 1712.72,682.336C1700,682.336 1689.65,692.685 1689.65,705.406C1689.65,709.408 1690.69,713.166 1692.49,716.449C1692.49,716.449 1687.09,721.849 1687.09,721.849C1684.19,722.757 1679.17,723.867 1674.42,723.62C1671.31,723.459 1668.31,722.726 1666.18,720.876C1663.99,718.978 1662.89,716.055 1662.43,712.711C1661.71,707.423 1662.61,701.097 1663.79,695.766C1664.36,693.232 1663.36,690.609 1661.25,689.089C1660.89,688.823 1660.49,688.621 1660.09,688.449ZM1762.45,748.642L1690.62,748.642C1687.03,748.642 1684.12,751.55 1684.12,755.134C1684.12,758.719 1687.03,761.627 1690.62,761.627L1762.45,761.627C1766.03,761.627 1768.94,758.719 1768.94,755.134C1768.94,751.55 1766.03,748.642 1762.45,748.642ZM1674.04,684.27C1683.71,684.27 1691.58,676.401 1691.58,666.726C1691.58,657.051 1683.71,649.182 1674.04,649.182C1664.36,649.182 1656.5,657.051 1656.5,666.726C1656.5,676.401 1664.36,684.27 1674.04,684.27Z" style="fill:white;"/>
            </g>
        </g>
    </g>
</svg>
