<?xml version="1.0" encoding="UTF-8" standalone="no"?><!DOCTYPE svg PUBLIC "-//W3C//DTD SVG 1.1//EN" "http://www.w3.org/Graphics/SVG/1.1/DTD/svg11.dtd"><svg width="100%" height="100%" viewBox="0 0 3050 888" version="1.1" xmlns="http://www.w3.org/2000/svg" xmlns:xlink="http://www.w3.org/1999/xlink" xml:space="preserve" xmlns:serif="http://www.serif.com/" style="fill-rule:evenodd;clip-rule:evenodd;stroke-linejoin:round;stroke-miterlimit:2;"><rect id="Artboard1" x="0" y="-0" width="3050" height="887.5" style="fill:none;"/><g><g id="Titulo"><g id="LUDIFAM_xA0_Imagem"><g><path d="M499.787,717.167c-1.5,30.958 -19.583,35.666 -44.125,43.875c-56.791,18.958 -117.291,32.75 -173.916,48.333c-53.709,14.792 -84.042,-16.167 -97.709,-67.333c-46.458,-174.084 -75.625,-358.875 -97.666,-537.25c-1.084,-8.917 -8.209,-42.5 46.833,-53.542c76.875,-15.417 83.167,47.458 83.167,47.458c28.375,145.375 57,290.709 87.541,435.625c55.125,-18.083 110.667,-34.875 166.459,-50.875c30,24.959 31.166,97.542 29.375,133.709l0.041,-0Z" style="fill:#56c0ff;fill-rule:nonzero;"/><path d="M614.329,389.875c9.625,56.208 44.083,175.125 124.167,160.083c71.166,-13.333 82.708,-122.25 77.041,-176.666c-7.208,-69.334 -31.75,-143.875 -60.291,-207.292c-15.875,-35.208 7,-60.833 37.583,-74.5c38.167,-17.083 80.042,-1.208 97.667,37.625c68.416,141.417 91.166,328.375 5.583,468.208c-29.792,51.375 -76.917,95.042 -135.958,107.125c-133.959,27.417 -232.75,-125.041 -259.292,-235.875c-24.792,-103.666 -31.792,-210.75 -19.458,-318.041c3,-20.792 13.25,-43.459 51.041,-43.917c39.459,-0.5 80.75,10.958 78.459,53.583c-4.125,76.209 -9.584,154.084 3.416,229.75l0.042,-0.083Z" style="fill:#56c0ff;fill-rule:nonzero;"/><path d="M1203.87,92.167c240.458,96.541 206.791,548.75 -71.667,558.666c-35.208,18.084 -95.083,21.584 -110.708,-20.25c-29.25,-78.416 -27.792,-182.333 -34.625,-270.041c-5.709,-73.625 -10.084,-149.584 -15.417,-222.167c-0.583,-7.667 -10.375,-54.083 45.292,-62.125c16.583,-2.375 30.041,-1.333 41.041,0.833c56.292,-4.708 92.084,-1.166 146.084,15.084Zm-93.459,108.875c-23.208,23.416 25.084,220.291 24.959,330.75c152,-45.209 5.333,-361.292 -24.959,-330.75Z" style="fill:#56c0ff;fill-rule:nonzero;"/><path d="M1555.25,574c1.458,48.375 -116.917,60.667 -132.334,14.875c-42.583,-126.167 -28.083,-318.083 -6.458,-463.375c1.375,-5 0.75,-22.458 22.667,-33.875c15.916,-7.333 46.708,-9.625 71.375,-3.417c34.75,8.709 36.5,24.375 34.666,49.709c-10.625,141.791 6.375,312.75 10.084,436.125l-0,-0.042Z" style="fill:#56c0ff;fill-rule:nonzero;"/><path d="M1902.7,236.208c-33.583,14.292 -96.833,-2.375 -141.792,-7.791c-14.791,-1.792 -28.666,-3 -41.458,-5.042c0.5,32.083 1.708,71.042 3.625,110.625c55.25,-1.958 110.708,-3.542 165.958,-2.583c17.25,-3.625 19.459,85.25 -3.75,92.75c-46.166,14.833 -106.958,5.916 -159.333,3.916c1.75,51.292 -0.542,107.5 4.375,153.792c1.667,15.583 -27.75,30.25 -59.5,32.375c-31.75,2.125 -66.375,-7.833 -73.083,-33.458c-32.834,-139.459 -15.834,-299.834 -4.375,-441.334c0.666,-7.666 -0.542,-50.583 55.625,-47.458c15.208,0.833 28.458,3.375 38.416,7.5c76.875,-1.667 153.709,9.917 230.209,15.792c31.458,24.083 10.125,110.333 -14.875,120.958l-0.042,-0.042Z" style="fill:#56c0ff;fill-rule:nonzero;"/><path d="M2294.16,618.458c-32.208,0.75 -64.375,-2.875 -70,-46.458c-0.5,-2.458 -2.833,-25.792 -3.333,-28.875c-53.208,-2.083 -105.875,-5.292 -158.917,-9.833c-2.708,8.75 -8.583,35.125 -12.125,45.791c-22.666,36.417 -93.25,35.792 -107.125,0.875c-38.041,-95.708 56.167,-343.416 155.042,-412.291c25.583,-17.084 55.792,-25.792 90.583,-20.459c94.625,14.542 144.875,109.5 156.292,196.459c10.25,77.916 14.667,161.333 8.292,237.833c-2.292,27.542 -27.25,36.208 -58.709,36.958Zm-80.583,-189.166c-2.583,-41.042 -7.292,-87.042 -23.542,-125.209c-11.625,-24.875 -25.5,-22.208 -39.5,-5.583c-28.958,38.083 -45.791,85.083 -63.791,128.792c42.208,-0.917 84.666,0.291 126.833,2Z" style="fill:#56c0ff;fill-rule:nonzero;"/><path d="M2900.29,647.792c-0.75,21.541 -10.25,30.333 -63.208,28.833c-33.333,-0.958 -69.083,-10.125 -73.208,-31.292c-10.584,-54.416 8.958,-123.083 19.041,-180.125c-6,8.084 -69.375,53.25 -88.625,61.792c-27.25,11.75 -65.791,4.375 -84.333,-11.792c-28.375,-24.708 -52.5,-61.458 -71.667,-94.125c-6.583,65 -17.083,129.459 -25.583,194.25c-27.333,37.584 -124.125,13.625 -133.125,-19.958c-25.208,-93.75 27,-251.208 46.583,-359.875c0.959,-5.375 -0.583,-40.958 55.084,-35.583c40.416,3.875 54.916,13.375 65.416,27.541c41.75,57.584 81.042,116.959 121.75,175.292c55.042,-38.125 110.334,-76.625 168.625,-109.667c34.375,-11.458 136.542,4.209 126.667,47.959c-20.125,89.166 -55,200 -63.458,306.708l0.041,0.042Z" style="fill:#56c0ff;fill-rule:nonzero;"/></g></g></g></g></svg>