<?xml version="1.0" encoding="UTF-8" standalone="no"?>
<!DOCTYPE svg PUBLIC "-//W3C//DTD SVG 1.1//EN" "http://www.w3.org/Graphics/SVG/1.1/DTD/svg11.dtd">
<svg width="100%" height="100%" viewBox="0 0 51 51" version="1.1" xmlns="http://www.w3.org/2000/svg" xmlns:xlink="http://www.w3.org/1999/xlink" xml:space="preserve" xmlns:serif="http://www.serif.com/" style="fill-rule:evenodd;clip-rule:evenodd;stroke-linejoin:round;stroke-miterlimit:2;">
    <g transform="matrix(1,0,0,1,-20.0001,-74)">
        <g transform="matrix(1.06383,0,0,1.06383,22.617,-76.745)">
            <g transform="matrix(1,0,0,1,-55.4599,51.7003)">
                <path d="M72.643,136.685C71.137,136.436 69.679,136.045 68.285,135.524L61.578,111.216C61.506,110.954 61.548,110.684 61.673,110.463C61.798,110.242 62.009,110.068 62.271,109.996L66.783,108.751L66.94,109.318C67.03,109.645 67.368,109.836 67.693,109.746L82.247,105.731C82.574,105.641 82.764,105.303 82.675,104.977L82.518,104.41L87.031,103.165C87.293,103.093 87.563,103.134 87.784,103.26C88.004,103.385 88.178,103.596 88.251,103.857L94.933,128.079C90.628,133.513 83.971,137 76.5,137C76.373,137 76.246,136.999 76.119,136.997L86.286,134.192C86.611,134.102 86.804,133.766 86.713,133.439C86.624,133.114 86.287,132.921 85.96,133.011L72.643,136.685ZM80.102,112.4L86.415,110.658C86.74,110.569 86.933,110.232 86.843,109.905C86.753,109.58 86.416,109.387 86.089,109.477L79.776,111.219C79.451,111.309 79.259,111.645 79.349,111.972C79.438,112.297 79.775,112.49 80.102,112.4ZM71.689,113.372C69.992,113.84 68.645,114.952 67.84,116.371C67.035,117.789 66.77,119.516 67.238,121.213C67.706,122.909 68.819,124.256 70.238,125.062C71.656,125.867 73.383,126.131 75.08,125.663C76.776,125.195 78.123,124.083 78.928,122.664C79.733,121.245 79.998,119.519 79.53,117.822C79.062,116.125 77.949,114.778 76.531,113.973C75.112,113.168 73.385,112.904 71.689,113.372ZM75.928,115.036C77.074,115.687 77.972,116.776 78.351,118.147C78.691,119.38 78.552,120.634 78.047,121.707C77.58,121.235 77.014,120.874 76.395,120.645C75.941,120.478 75.457,120.384 74.961,120.372C75.084,120.239 75.19,120.091 75.278,119.937C75.584,119.397 75.685,118.74 75.507,118.096C75.329,117.451 74.906,116.939 74.366,116.632C73.826,116.326 73.169,116.225 72.525,116.403C71.881,116.581 71.368,117.004 71.062,117.544C70.755,118.084 70.655,118.741 70.833,119.385C71.01,120.03 71.433,120.542 71.973,120.849C72.13,120.936 72.297,121.008 72.468,121.06C72.051,121.324 71.682,121.653 71.378,122.029C70.96,122.542 70.661,123.144 70.503,123.788C69.519,123.126 68.758,122.121 68.418,120.888C68.039,119.516 68.252,118.12 68.903,116.974C69.553,115.828 70.643,114.929 72.014,114.551C73.385,114.173 74.782,114.386 75.928,115.036ZM73.761,117.695C74.028,117.845 74.237,118.1 74.325,118.419C74.413,118.739 74.364,119.063 74.212,119.33C74.062,119.597 73.807,119.806 73.488,119.894C73.169,119.982 72.845,119.933 72.577,119.781C72.31,119.631 72.101,119.376 72.013,119.057C71.925,118.738 71.974,118.414 72.126,118.146C72.276,117.879 72.531,117.67 72.85,117.582C73.17,117.494 73.494,117.543 73.761,117.695ZM71.632,124.362C71.72,123.787 71.962,123.246 72.323,122.799C72.735,122.29 73.306,121.899 73.989,121.71C74.672,121.522 75.363,121.565 75.978,121.791C76.519,121.989 77.002,122.328 77.372,122.779C76.721,123.577 75.824,124.189 74.754,124.484C73.685,124.779 72.601,124.714 71.632,124.362ZM82.156,119.846L88.469,118.104C88.794,118.015 88.987,117.678 88.897,117.351C88.807,117.026 88.47,116.833 88.144,116.923L81.831,118.665C81.505,118.755 81.313,119.091 81.403,119.418C81.493,119.744 81.829,119.936 82.156,119.846ZM83.183,123.568L89.496,121.827C89.821,121.737 90.014,121.4 89.924,121.073C89.834,120.748 89.497,120.555 89.17,120.645L82.857,122.387C82.532,122.477 82.34,122.814 82.43,123.141C82.519,123.466 82.856,123.658 83.183,123.568ZM79.15,128.688L90.524,125.55C90.849,125.461 91.042,125.124 90.952,124.797C90.862,124.472 90.525,124.279 90.198,124.369L78.824,127.507C78.499,127.597 78.306,127.934 78.396,128.261C78.486,128.586 78.823,128.778 79.15,128.688ZM81.13,116.124L87.442,114.382C87.768,114.293 87.96,113.956 87.87,113.629C87.78,113.304 87.444,113.111 87.117,113.201L80.804,114.943C80.479,115.033 80.286,115.369 80.376,115.696C80.466,116.021 80.803,116.214 81.13,116.124ZM71.709,134.477L91.479,129.023C91.804,128.933 91.997,128.597 91.907,128.27C91.817,127.945 91.481,127.752 91.154,127.842L71.383,133.296C71.058,133.386 70.866,133.723 70.956,134.05C71.046,134.375 71.382,134.567 71.709,134.477ZM70.751,131.005L75.51,129.692C75.835,129.603 76.028,129.266 75.938,128.939C75.848,128.614 75.512,128.421 75.185,128.511L70.426,129.824C70.101,129.914 69.908,130.251 69.998,130.578C70.088,130.903 70.424,131.095 70.751,131.005ZM63.528,133.098C57.183,128.89 53,121.684 53,113.5C53,100.521 63.521,90 76.5,90C89.479,90 100,100.521 100,113.5C100,117.085 99.197,120.482 97.762,123.522L92.047,102.808C91.686,101.5 90.824,100.458 89.724,99.834C88.625,99.21 87.288,99.004 85.98,99.364L81.47,100.609L81.31,100.03C81.22,99.703 80.882,99.513 80.557,99.602L77.046,100.571C76.667,100.088 76.099,99.735 75.427,99.54C74.63,99.31 73.676,99.3 72.716,99.565C71.756,99.83 70.941,100.328 70.375,100.933C69.897,101.444 69.594,102.039 69.513,102.649L66.003,103.617C65.676,103.707 65.486,104.046 65.575,104.371L65.736,104.952L61.223,106.197C59.915,106.557 58.874,107.42 58.25,108.52C57.626,109.619 57.419,110.955 57.78,112.263L63.528,133.098ZM96.933,125.116C96.6,125.702 96.242,126.271 95.861,126.823L89.43,103.532C89.268,102.943 88.88,102.477 88.386,102.195C87.893,101.915 87.292,101.822 86.703,101.984L82.191,103.229L81.794,101.79L86.306,100.545C87.289,100.274 88.295,100.43 89.122,100.899C89.949,101.368 90.598,102.152 90.869,103.135L96.933,125.116ZM66.852,134.934C66.238,134.658 65.638,134.355 65.053,134.029L58.959,111.938C58.688,110.955 58.843,109.95 59.313,109.123C59.782,108.296 60.565,107.647 61.548,107.376L66.061,106.131L66.458,107.569L61.945,108.814C61.357,108.977 60.89,109.364 60.608,109.858C60.328,110.351 60.236,110.952 60.398,111.541L66.852,134.934ZM81.47,100.609L81.47,100.611L81.468,100.609L81.47,100.609ZM70.268,103.71L70.271,103.709C70.573,103.623 70.76,103.324 70.709,103.021C70.688,102.606 70.894,102.162 71.262,101.769C71.68,101.32 72.298,100.949 73.039,100.745C73.781,100.54 74.5,100.542 75.09,100.713C75.625,100.868 76.04,101.155 76.225,101.542C76.356,101.813 76.659,101.944 76.938,101.867L76.938,101.869L80.291,100.944L81.331,104.713L67.958,108.402L66.919,104.633L70.268,103.71Z" style="fill:rgb(228,224,35);"/>
            </g>
        </g>
    </g>
</svg>
