<?xml version="1.0" encoding="UTF-8" standalone="no"?>
<!DOCTYPE svg PUBLIC "-//W3C//DTD SVG 1.1//EN" "http://www.w3.org/Graphics/SVG/1.1/DTD/svg11.dtd">
<svg width="100%" height="100%" viewBox="0 0 1907 489" version="1.1" xmlns="http://www.w3.org/2000/svg" xmlns:xlink="http://www.w3.org/1999/xlink" xml:space="preserve" xmlns:serif="http://www.serif.com/" style="fill-rule:evenodd;clip-rule:evenodd;stroke-linejoin:round;stroke-miterlimit:2;">
    <g transform="matrix(1,0,0,1,-442.417,-917)">
        <g transform="matrix(0.412977,0,0,0.412977,646.999,504.474)">
            <path d="M722.643,1020.27C723.498,1021.69 724.352,1023.62 725.207,1026.04C726.061,1028.46 726.488,1031.09 726.488,1033.94C726.488,1038.78 725.349,1042.62 723.071,1045.47C720.792,1048.32 717.517,1049.74 713.245,1049.74L597.05,1049.74L597.05,1138.6L707.692,1138.6C708.546,1140.02 709.401,1141.95 710.255,1144.37C711.109,1146.79 711.536,1149.42 711.536,1152.27C711.536,1157.11 710.397,1160.96 708.119,1163.8C705.841,1166.65 702.565,1168.08 698.294,1168.08L597.05,1168.08L597.05,1279.57C595.626,1280.14 593.418,1280.71 590.428,1281.28C587.438,1281.85 584.376,1282.14 581.243,1282.14C568.428,1282.14 562.02,1277.01 562.02,1266.76L562.02,1039.07C562.02,1033.37 563.729,1028.81 567.146,1025.39C570.564,1021.98 575.12,1020.27 580.816,1020.27L722.643,1020.27Z" style="fill-rule:nonzero;"/>
            <path d="M788.431,1201.4C796.12,1238.7 820.612,1257.36 861.907,1257.36C873.869,1257.36 884.691,1255.37 894.374,1251.38C904.057,1247.39 911.746,1243.12 917.442,1238.56C924.277,1242.55 927.695,1247.96 927.695,1254.8C927.695,1258.78 925.915,1262.63 922.355,1266.33C918.795,1270.03 913.953,1273.31 907.83,1276.15C901.707,1279 894.587,1281.28 886.471,1282.99C878.354,1284.7 869.597,1285.55 860.199,1285.55C827.163,1285.55 801.033,1276.58 781.809,1258.64C762.586,1240.7 752.974,1214.5 752.974,1180.04C752.974,1163.8 755.323,1149.35 760.023,1136.68C764.722,1124 771.272,1113.25 779.673,1104.42C788.075,1095.6 798.114,1088.83 809.79,1084.13C821.467,1079.43 834.14,1077.09 847.81,1077.09C860.626,1077.09 872.445,1079.22 883.267,1083.49C894.089,1087.76 903.416,1093.82 911.248,1101.65C919.08,1109.48 925.203,1118.74 929.617,1129.41C934.031,1140.1 936.239,1151.84 936.239,1164.66C936.239,1170.92 934.815,1175.41 931.967,1178.12C929.119,1180.82 925.132,1182.46 920.005,1183.03L788.431,1201.4ZM847.383,1104.85C830.011,1104.85 815.629,1110.9 804.237,1123.01C792.845,1135.11 786.864,1152.41 786.295,1174.91L903.772,1158.68C902.348,1143.01 896.866,1130.13 887.325,1120.02C877.785,1109.91 864.471,1104.85 847.383,1104.85Z" style="fill-rule:nonzero;"/>
            <path d="M1022.1,1279.15C1020.68,1279.71 1018.54,1280.36 1015.7,1281.07C1012.85,1281.78 1009.72,1282.14 1006.3,1282.14C994.052,1282.14 987.929,1277.01 987.929,1266.76L987.929,1083.49C989.353,1082.92 991.56,1082.28 994.55,1081.57C997.54,1080.86 1000.74,1080.5 1004.16,1080.5C1016.12,1080.5 1022.1,1085.77 1022.1,1096.31L1022.1,1279.15ZM982.802,1020.27C982.802,1014.29 984.867,1009.23 988.997,1005.1C993.126,1000.97 998.466,998.909 1005.02,998.909C1011.57,998.909 1016.84,1000.97 1020.82,1005.1C1024.81,1009.23 1026.8,1014.29 1026.8,1020.27C1026.8,1026.25 1024.81,1031.3 1020.82,1035.43C1016.84,1039.56 1011.57,1041.63 1005.02,1041.63C998.466,1041.63 993.126,1039.56 988.997,1035.43C984.867,1031.3 982.802,1026.25 982.802,1020.27Z" style="fill-rule:nonzero;"/>
            <path d="M1122.92,1279.15C1121.5,1279.71 1119.36,1280.36 1116.51,1281.07C1113.66,1281.78 1110.53,1282.14 1107.12,1282.14C1094.87,1282.14 1088.75,1277.01 1088.75,1266.76L1088.75,1121.94C1088.75,1115.39 1089.96,1110.19 1092.38,1106.35C1094.8,1102.5 1098.86,1098.73 1104.55,1095.03C1111.96,1090.18 1122,1085.98 1134.67,1082.42C1147.34,1078.87 1161.65,1077.09 1177.6,1077.09C1200.38,1077.09 1211.78,1082.78 1211.78,1094.17C1211.78,1097.02 1211.35,1099.65 1210.5,1102.08C1209.64,1104.5 1208.5,1106.56 1207.08,1108.27C1204.23,1107.7 1200.53,1107.13 1195.97,1106.56C1191.41,1105.99 1186.86,1105.71 1182.3,1105.71C1169.2,1105.71 1157.66,1107.06 1147.7,1109.77C1137.73,1112.47 1129.47,1115.67 1122.92,1119.38L1122.92,1279.15Z" style="fill-rule:nonzero;"/>
            <path d="M1320.28,1257.79C1332.24,1257.79 1342.14,1256.58 1349.97,1254.15C1357.8,1251.73 1363.43,1249.38 1366.85,1247.11L1366.85,1185.16L1313.88,1190.72C1299.07,1192.14 1288.1,1195.49 1280.98,1200.76C1273.86,1206.03 1270.3,1213.79 1270.3,1224.04C1270.3,1234.86 1274.43,1243.19 1282.69,1249.03C1290.95,1254.87 1303.48,1257.79 1320.28,1257.79ZM1319.86,1077.09C1344.63,1077.09 1364.28,1082.64 1378.81,1093.75C1393.33,1104.85 1400.59,1122.37 1400.59,1146.29L1400.59,1247.53C1400.59,1253.8 1399.38,1258.57 1396.96,1261.84C1394.54,1265.12 1390.91,1268.18 1386.07,1271.03C1379.24,1275.02 1370.19,1278.51 1358.94,1281.5C1347.69,1284.49 1334.81,1285.98 1320.28,1285.98C1293.51,1285.98 1272.79,1280.71 1258.13,1270.17C1243.46,1259.64 1236.13,1244.4 1236.13,1224.46C1236.13,1205.67 1242.25,1191.5 1254.5,1181.96C1266.74,1172.42 1283.97,1166.51 1306.18,1164.23L1366.85,1158.25L1366.85,1146.29C1366.85,1132.05 1362.57,1121.65 1354.03,1115.11C1345.49,1108.55 1333.95,1105.28 1319.43,1105.28C1307.47,1105.28 1296.22,1106.99 1285.68,1110.4C1275.14,1113.82 1265.75,1117.67 1257.49,1121.94C1255.21,1119.95 1253.14,1117.67 1251.29,1115.11C1249.44,1112.54 1248.52,1109.69 1248.52,1106.56C1248.52,1102.57 1249.51,1099.3 1251.51,1096.74C1253.5,1094.17 1256.63,1091.75 1260.9,1089.47C1268.59,1085.49 1277.42,1082.42 1287.39,1080.29C1297.36,1078.15 1308.18,1077.09 1319.86,1077.09Z" style="fill-rule:nonzero;"/>
            <path d="M1717.14,1247.53C1717.14,1253.23 1715.93,1257.64 1713.51,1260.78C1711.09,1263.91 1707.32,1267.04 1702.19,1270.17C1696.5,1273.88 1688.38,1277.37 1677.84,1280.64C1667.3,1283.92 1655.2,1285.55 1641.53,1285.55C1626.15,1285.55 1612.05,1283.56 1599.24,1279.57C1586.42,1275.59 1575.39,1269.39 1566.13,1260.99C1556.88,1252.59 1549.76,1241.91 1544.77,1228.95C1539.79,1215.99 1537.3,1200.4 1537.3,1182.17C1537.3,1163.66 1539.86,1147.79 1544.99,1134.54C1550.11,1121.3 1557.02,1110.4 1565.7,1101.86C1574.39,1093.32 1584.64,1087.05 1596.46,1083.07C1608.28,1079.08 1620.88,1077.09 1634.27,1077.09C1643.38,1077.09 1652.21,1078.22 1660.75,1080.5C1669.3,1082.78 1676.7,1085.63 1682.97,1089.05L1682.97,1003.18C1684.39,1002.61 1686.6,1001.97 1689.59,1001.26C1692.58,1000.55 1695.64,1000.19 1698.77,1000.19C1711.02,1000.19 1717.14,1005.32 1717.14,1015.57L1717.14,1247.53ZM1682.97,1119.8C1677.27,1115.82 1670.72,1112.4 1663.32,1109.55C1655.91,1106.7 1647.37,1105.28 1637.68,1105.28C1628.86,1105.28 1620.53,1106.63 1612.69,1109.34C1604.86,1112.04 1597.96,1116.46 1591.98,1122.58C1586,1128.7 1581.23,1136.75 1577.66,1146.72C1574.11,1156.68 1572.33,1168.79 1572.33,1183.03C1572.33,1209.23 1578.59,1228.17 1591.12,1239.84C1603.65,1251.52 1620.31,1257.36 1641.1,1257.36C1651.07,1257.36 1659.26,1256.29 1665.67,1254.15C1672.07,1252.02 1677.84,1249.38 1682.97,1246.25L1682.97,1119.8Z" style="fill-rule:nonzero;"/>
            <path d="M1965.34,1181.32C1965.34,1197.27 1963.06,1211.65 1958.51,1224.46C1953.95,1237.28 1947.47,1248.25 1939.07,1257.36C1930.67,1266.47 1920.49,1273.45 1908.52,1278.29C1896.56,1283.13 1883.18,1285.55 1868.37,1285.55C1853.56,1285.55 1840.17,1283.13 1828.21,1278.29C1816.25,1273.45 1806,1266.47 1797.45,1257.36C1788.91,1248.25 1782.36,1237.28 1777.8,1224.46C1773.25,1211.65 1770.97,1197.27 1770.97,1181.32C1770.97,1165.37 1773.32,1150.99 1778.02,1138.17C1782.72,1125.36 1789.34,1114.39 1797.88,1105.28C1806.42,1096.17 1816.68,1089.19 1828.64,1084.35C1840.6,1079.51 1853.84,1077.09 1868.37,1077.09C1882.89,1077.09 1896.13,1079.51 1908.1,1084.35C1920.06,1089.19 1930.24,1096.17 1938.64,1105.28C1947.04,1114.39 1953.59,1125.36 1958.29,1138.17C1962.99,1150.99 1965.34,1165.37 1965.34,1181.32ZM1868.37,1105.28C1849,1105.28 1833.77,1111.97 1822.66,1125.36C1811.55,1138.74 1806,1157.4 1806,1181.32C1806,1205.53 1811.48,1224.25 1822.44,1237.5C1833.41,1250.74 1848.72,1257.36 1868.37,1257.36C1888.02,1257.36 1903.26,1250.67 1914.08,1237.28C1924.9,1223.9 1930.31,1205.24 1930.31,1181.32C1930.31,1157.4 1924.83,1138.74 1913.86,1125.36C1902.9,1111.97 1887.73,1105.28 1868.37,1105.28Z" style="fill-rule:nonzero;"/>
        </g>
        <g transform="matrix(0.274037,-0.274037,0.333386,0.333386,1404.54,1363.43)">
            <rect x="1616" y="1025.03" width="59.5" height="254.975" style="fill-rule:nonzero;"/>
        </g>
        <g transform="matrix(0.694205,-0.694205,0.333386,0.333386,759.049,2100.92)">
            <path d="M1675.5,1243.8C1675.5,1263.79 1667.72,1280 1658.12,1280C1650.33,1280 1641.17,1280 1633.38,1280C1623.78,1280 1616,1263.79 1616,1243.8C1616,1173.43 1616,1025.03 1616,1025.03L1675.5,1025.03L1675.5,1243.8Z" style="fill:rgb(62,178,136);fill-rule:nonzero;"/>
        </g>
        <g transform="matrix(0.918435,0,0,0.918435,388.82,123.312)">
            <path d="M556.572,1254.45C556.572,1272.29 564.266,1279.98 582.104,1279.98L699.698,1279.98C717.534,1279.98 725.228,1272.29 725.228,1254.45L725.228,1206.15L669.272,1206.15L669.272,1219.82C669.272,1224.72 666.469,1227.52 661.565,1227.52L626.885,1227.52C621.981,1227.52 619.178,1224.72 619.178,1219.82L619.178,1180.23L690.605,1180.23L690.605,1127.77L619.178,1127.77L619.178,1082.23L653.164,1082.23C658.069,1082.23 660.872,1085.03 660.872,1089.94L660.872,1103.6L716.828,1103.6L716.828,1055.3C716.828,1037.47 709.134,1029.77 691.298,1029.77L533.822,1029.77L533.822,1082.23L556.572,1082.23L556.572,1254.45Z" style="fill-rule:nonzero;"/>
            <path d="M741.722,1242.91C741.722,1242.91 774.252,1284.18 833.049,1284.18C889.401,1284.18 921.928,1248.51 921.928,1206.87C921.928,1124.59 808.528,1128.79 808.528,1098.33C808.528,1086.78 821.489,1081.53 834.1,1081.53C845.66,1081.53 858.622,1087.13 858.622,1096.23L858.622,1107.09L914.578,1107.09L914.578,1079.78C914.578,1041.66 868.065,1025.57 834.801,1025.57C785.094,1025.57 745.572,1055.65 745.572,1100.78C745.572,1179.21 858.972,1182.36 858.972,1210.02C858.972,1224.02 846.361,1228.57 833.75,1228.57C802.232,1228.57 776.35,1199.16 776.35,1199.16L741.722,1242.91Z" style="fill-rule:nonzero;"/>
            <path d="M1019.97,1279.98L1082.58,1279.98L1082.58,1082.23L1102.91,1082.23C1107.82,1082.23 1110.62,1085.03 1110.62,1089.93L1110.62,1103.58L1164.83,1103.58L1164.83,1053.9C1164.83,1036.07 1158.53,1029.77 1140.7,1029.77L961.852,1029.77C944.017,1029.77 937.722,1036.07 937.722,1053.9L937.722,1103.58L991.928,1103.58L991.928,1089.93C991.928,1085.03 994.732,1082.23 999.64,1082.23L1019.97,1082.23L1019.97,1279.98Z" style="fill-rule:nonzero;"/>
            <path d="M1143.87,1279.98L1184.12,1279.98C1201.61,1279.98 1208.61,1274.73 1213.51,1259.69L1224.36,1227.48L1297.14,1227.48L1307.99,1259.69C1312.89,1274.73 1319.89,1279.98 1337.39,1279.98L1377.63,1279.98L1377.63,1227.52L1370.98,1227.52C1365.38,1227.52 1363.63,1225.77 1361.53,1219.82L1293.3,1029.77L1228.21,1029.77L1159.97,1219.82C1157.87,1225.77 1156.12,1227.52 1150.52,1227.52L1143.87,1227.52L1143.87,1279.98ZM1237.65,1176.77L1250.25,1135.12C1255.15,1119.37 1260.4,1093.82 1260.4,1093.82L1261.1,1093.82C1261.1,1093.82 1266.35,1119.37 1271.25,1135.12L1283.85,1176.77L1237.65,1176.77ZM1238.72,1013.63L1280.7,1013.63L1321.98,961.172L1267.06,961.172L1238.72,1013.63Z" style="fill-rule:nonzero;"/>
            <path d="M1385.02,1152.61C1385.02,1238.01 1443.08,1284.18 1506.1,1284.18C1548.81,1284.18 1573.67,1262.5 1573.67,1262.5L1574.37,1262.5C1574.37,1262.48 1574.02,1267.73 1574.02,1272.98L1574.02,1279.98L1626.48,1279.98L1626.48,1164.15C1626.48,1146.32 1618.78,1138.62 1600.95,1138.62L1548.11,1138.62L1548.11,1191.08L1563.17,1191.08C1568.07,1191.08 1570.87,1193.88 1570.87,1198.78L1570.87,1208.25C1570.87,1208.25 1551.96,1226.47 1519.05,1226.47C1483.34,1226.47 1450.08,1201.59 1450.08,1152.26C1450.08,1108.5 1482.64,1082.58 1515.9,1082.58C1548.81,1082.58 1573.67,1102.54 1573.67,1102.54L1608.64,1058.1C1608.64,1058.1 1578.57,1025.57 1514.5,1025.57C1439.93,1025.57 1385.02,1080.83 1385.02,1152.61Z" style="fill-rule:nonzero;"/>
            <path d="M1650.67,1279.98L1762.28,1279.98L1762.28,1227.52L1736.03,1227.52L1736.03,1082.23L1762.28,1082.23L1762.28,1029.77L1650.67,1029.77L1650.67,1082.23L1676.92,1082.23L1676.92,1227.52L1650.67,1227.52L1650.67,1279.98Z" style="fill-rule:nonzero;"/>
            <path d="M1781.57,1153.3C1781.57,1226.82 1836.84,1284.18 1912.45,1284.18C1988.07,1284.18 2043.33,1226.82 2043.33,1153.3C2043.33,1081.53 1988.07,1025.57 1912.45,1025.57C1836.84,1025.57 1781.57,1081.53 1781.57,1153.3ZM1846.63,1153.3C1846.63,1113.39 1876.04,1083.28 1912.45,1083.28C1948.86,1083.28 1978.27,1113.39 1978.27,1153.3C1978.27,1194.96 1948.86,1226.47 1912.45,1226.47C1876.04,1226.47 1846.63,1194.96 1846.63,1153.3Z" style="fill:rgb(62,178,136);fill-rule:nonzero;"/>
        </g>
        <g transform="matrix(0.744958,0,0,0.744958,111.345,210.64)">
            <path d="M457.502,1108.64L560.81,1108.64L560.81,1056.99L624.861,1056.99C638.636,1056.99 655.854,1054.92 655.854,1054.92L655.854,1056.3C655.854,1056.3 643.457,1066.63 632.437,1079.71L546.347,1189.22L571.83,1244.32C580.094,1243.63 588.359,1242.94 595.935,1242.94C646.9,1242.94 673.76,1265.67 673.76,1298.73C673.76,1329.72 648.278,1354.51 603.511,1354.51C546.347,1354.51 500.203,1310.43 500.203,1310.43L444.416,1396.53C444.416,1396.53 502.269,1461.27 612.464,1461.27C739.189,1461.27 798.419,1377.24 798.419,1293.22C798.419,1225.72 755.718,1174.07 690.29,1158.92L782.578,1045.97L782.578,960.565L457.502,960.565L457.502,1108.64Z" style="fill:rgb(62,178,136);fill-rule:nonzero;"/>
        </g>
        <g transform="matrix(0.294525,0,0,0.294525,603.112,605.175)">
            <path d="M436.841,1351.76C436.841,1423.38 491.249,1461.27 553.234,1461.27C628.994,1461.27 657.92,1402.72 657.92,1402.72L659.297,1402.72C659.297,1402.72 657.92,1407.54 657.92,1413.74L657.92,1415.81C657.92,1433.03 671.005,1453 705.441,1453L808.061,1453L808.061,1366.91L781.889,1366.91C772.247,1366.91 766.738,1361.4 766.738,1351.76L766.738,1234.68C766.738,1141.7 711.64,1090.04 608.332,1090.04C518.798,1090.04 458.191,1136.19 458.191,1136.19L499.514,1216.77C499.514,1216.77 549.102,1183.02 597.312,1183.02C624.172,1183.02 647.589,1193.35 647.589,1222.28L647.589,1232.61L626.239,1232.61C571.141,1232.61 436.841,1247.76 436.841,1351.76ZM556.678,1343.49C556.678,1311.81 598.69,1299.41 637.947,1299.41L648.966,1299.41L648.966,1307.68C648.966,1338.67 618.663,1375.17 588.359,1375.17C569.075,1375.17 556.678,1362.09 556.678,1343.49Z" style="fill:rgb(62,178,136);fill-rule:nonzero;"/>
        </g>
        <g transform="matrix(0.979597,0,0,1,-48.8175,-189.322)">
            <rect x="963" y="1522" width="1136" height="22" style="fill:url(#_Linear1);"/>
        </g>
        <g transform="matrix(1,0,0,0.533333,-115,497.287)">
            <rect x="854" y="1033" width="102.106" height="15" style="fill:rgb(62,178,136);"/>
        </g>
    </g>
    <defs>
        <linearGradient id="_Linear1" x1="0" y1="0" x2="1" y2="0" gradientUnits="userSpaceOnUse" gradientTransform="matrix(1136,0,0,22,963,1533)"><stop offset="0" style="stop-color:rgb(228,224,35);stop-opacity:1"/><stop offset="1" style="stop-color:rgb(62,178,136);stop-opacity:1"/></linearGradient>
    </defs>
</svg>
