<?xml version="1.0" encoding="UTF-8" standalone="no"?>
<!DOCTYPE svg PUBLIC "-//W3C//DTD SVG 1.1//EN" "http://www.w3.org/Graphics/SVG/1.1/DTD/svg11.dtd">
<svg width="100%" height="100%" viewBox="0 0 50 50" version="1.1" xmlns="http://www.w3.org/2000/svg" xmlns:xlink="http://www.w3.org/1999/xlink" xml:space="preserve" xmlns:serif="http://www.serif.com/" style="fill-rule:evenodd;clip-rule:evenodd;stroke-linejoin:round;stroke-miterlimit:2;">
    <g transform="matrix(1,0,0,1,-220.5,-296.5)">
        <g transform="matrix(1.06383,0,0,1.06383,164.117,200.755)">
            <g>
                <path d="M76.5,90C89.479,90 100,100.521 100,113.5C100,126.479 89.479,137 76.5,137C63.521,137 53,126.479 53,113.5C53,100.521 63.521,90 76.5,90Z" style="fill:rgb(62,178,136);"/>
            </g>
        </g>
        <g transform="matrix(0.305994,0,0,0.305994,230.185,305.928)">
            <g>
                <path d="M84.3,19.951C92.119,19.951 98.441,26.268 98.549,34.087L98.549,79.8C98.549,87.625 92.225,93.949 84.4,93.949L15.7,93.949C7.875,93.949 1.551,87.625 1.551,79.8L1.551,34.1C1.551,26.275 7.875,19.951 15.7,19.951L31.651,19.951L31.651,13.8C31.651,9.576 35.076,6.151 39.3,6.151L60.7,6.151C64.924,6.151 68.349,9.576 68.349,13.8L68.349,19.951L84.3,19.951ZM15.7,26.949C11.736,26.949 8.56,30.115 8.648,34.079C8.649,34.086 8.649,34.093 8.649,34.1C8.649,34.1 8.649,43.592 8.65,43.593C17.46,46.178 27.669,47.87 38.351,48.588L38.351,47.4C38.351,43.981 41.181,41.151 44.6,41.151L55.6,41.151C59.019,41.151 61.849,43.981 61.849,47.4L61.849,48.588C72.531,47.87 82.74,46.178 91.551,43.592L91.551,34.1C91.551,30.127 88.285,26.949 84.4,26.949L15.7,26.949ZM38.649,13.8L38.649,19.951L61.351,19.951L61.351,13.8C61.351,13.434 61.066,13.149 60.7,13.149L39.3,13.149C38.934,13.149 38.649,13.434 38.649,13.8ZM54.751,56.338L54.751,48.323L45.529,48.074L45.367,56.169C45.367,56.169 52.408,56.296 54.751,56.338ZM84.3,86.851C88.27,86.851 91.451,83.682 91.451,79.8L91.451,50.852C82.517,53.305 72.305,54.886 61.549,55.59L61.549,57.1C61.549,60.519 58.719,63.349 55.3,63.349L44.5,63.349C41.081,63.349 38.251,60.519 38.251,57.1L38.251,55.59C27.591,54.885 17.474,53.304 8.549,50.852L8.549,79.7C8.549,83.673 11.815,86.851 15.7,86.851L84.3,86.851Z" style="fill:white;"/>
            </g>
        </g>
    </g>
</svg>
