<?xml version="1.0" encoding="UTF-8" standalone="no"?>
<!DOCTYPE svg PUBLIC "-//W3C//DTD SVG 1.1//EN" "http://www.w3.org/Graphics/SVG/1.1/DTD/svg11.dtd">
<svg width="100%" height="100%" viewBox="0 0 51 51" version="1.1" xmlns="http://www.w3.org/2000/svg" xmlns:xlink="http://www.w3.org/1999/xlink" xml:space="preserve" xmlns:serif="http://www.serif.com/" style="fill-rule:evenodd;clip-rule:evenodd;stroke-linejoin:round;stroke-miterlimit:2;">
    <g transform="matrix(1,0,0,1,-79,-74)">
        <g transform="matrix(1.06383,0,0,1.06383,22.617,-76.745)">
            <g transform="matrix(1,0,0,1,7.10543e-15,51.7003)">
                <path d="M76.5,90C89.479,90 100,100.521 100,113.5C100,126.479 89.479,137 76.5,137C63.521,137 53,126.479 53,113.5C53,100.521 63.521,90 76.5,90ZM82.356,115.424C83.025,114.629 84.028,114.125 85.156,114.125L87.645,114.125C89.67,114.125 91.296,115.75 91.296,117.77L91.296,121.003C91.296,121.522 91.716,121.942 92.235,121.942C92.753,121.942 93.173,121.522 93.173,121.003L93.173,117.77C93.173,114.711 90.705,112.248 87.645,112.248L85.156,112.248C83.453,112.248 81.932,113.012 80.919,114.216C80.586,114.613 80.637,115.205 81.034,115.539C81.431,115.872 82.023,115.821 82.356,115.424ZM71.605,121.065C71.605,119.046 73.231,117.421 75.256,117.421L77.744,117.421C79.769,117.421 81.395,119.046 81.395,121.065L81.395,124.298C81.395,124.817 81.816,125.237 82.334,125.237C82.852,125.237 83.273,124.817 83.273,124.298L83.273,121.065C83.273,118.006 80.805,115.543 77.744,115.543L75.256,115.543C72.195,115.543 69.727,118.006 69.727,121.065L69.727,124.298C69.727,124.817 70.148,125.237 70.666,125.237C71.184,125.237 71.605,124.817 71.605,124.298L71.605,121.065ZM71.455,106.613C71.455,103.933 69.28,101.763 66.599,101.763C63.919,101.763 61.744,103.933 61.744,106.613C61.744,109.292 63.919,111.463 66.599,111.463C69.28,111.463 71.455,109.292 71.455,106.613ZM66.599,103.64C68.245,103.64 69.578,104.972 69.578,106.613C69.578,108.254 68.245,109.585 66.599,109.585C64.953,109.585 63.621,108.254 63.621,106.613C63.621,104.972 64.953,103.64 66.599,103.64ZM65.355,112.248C62.295,112.248 59.827,114.711 59.827,117.77L59.827,121.003C59.827,121.522 60.247,121.942 60.765,121.942C61.284,121.942 61.704,121.522 61.704,121.003L61.704,117.77C61.704,115.75 63.33,114.125 65.355,114.125L67.844,114.125C68.972,114.125 69.975,114.629 70.644,115.424C70.977,115.821 71.569,115.872 71.966,115.539C72.363,115.205 72.414,114.613 72.081,114.216C71.068,113.012 69.547,112.248 67.844,112.248L65.355,112.248ZM71.644,109.908C71.644,112.587 73.819,114.758 76.5,114.758C79.181,114.758 81.356,112.587 81.356,109.908C81.356,107.228 79.181,105.058 76.5,105.058C73.819,105.058 71.644,107.228 71.644,109.908ZM76.5,106.935C78.146,106.935 79.479,108.267 79.479,109.908C79.479,111.549 78.146,112.88 76.5,112.88C74.854,112.88 73.521,111.549 73.521,109.908C73.521,108.267 74.854,106.935 76.5,106.935ZM86.401,101.763C83.72,101.763 81.545,103.933 81.545,106.613C81.545,109.292 83.72,111.463 86.401,111.463C89.081,111.463 91.257,109.292 91.257,106.613C91.257,103.933 89.081,101.763 86.401,101.763ZM83.422,106.613C83.422,104.972 84.755,103.64 86.401,103.64C88.047,103.64 89.379,104.972 89.379,106.613C89.379,108.254 88.047,109.585 86.401,109.585C84.755,109.585 83.422,108.254 83.422,106.613Z" style="fill:rgb(62,178,136);"/>
            </g>
        </g>
    </g>
</svg>
