<?xml version="1.0" encoding="UTF-8" standalone="no"?>
<!DOCTYPE svg PUBLIC "-//W3C//DTD SVG 1.1//EN" "http://www.w3.org/Graphics/SVG/1.1/DTD/svg11.dtd">
<svg width="100%" height="100%" viewBox="0 0 36 56" version="1.1" xmlns="http://www.w3.org/2000/svg" xmlns:xlink="http://www.w3.org/1999/xlink" xml:space="preserve" xmlns:serif="http://www.serif.com/" style="fill-rule:evenodd;clip-rule:evenodd;stroke-linejoin:round;stroke-miterlimit:2;">
    <g transform="matrix(1,0,0,1,-4575.45,-531.252)">
        <g transform="matrix(1,0,0,1,0,208.333)">
            <g transform="matrix(0.0685727,0,0,0.0685727,4553.11,285.094)">
                <path d="M325.891,1192.47L579.998,1192.47C597.006,1192.47 611.634,1189.07 623.88,1182.27C636.126,1175.46 645.31,1165.94 651.434,1153.69C657.557,1141.45 660.618,1127.5 660.618,1111.85C660.618,1086.68 653.304,1066.61 638.677,1051.64C624.05,1036.67 603.47,1029.19 576.936,1029.19L433.044,1029.19L433.044,855.704L568.772,855.704C580.338,855.704 590.543,851.962 599.388,844.478C608.232,836.995 615.205,827.81 620.308,816.925C625.411,806.039 627.962,795.494 627.962,785.289C627.962,776.444 625.581,767.43 620.818,758.245C616.056,749.061 609.593,741.407 601.429,735.284C593.264,729.161 584.42,726.099 574.895,726.099L325.891,726.099L325.891,551.592L622.859,551.592C661.639,551.592 695.826,560.777 725.421,579.146C755.015,597.515 777.637,622.347 793.284,653.643C808.932,684.939 816.756,719.976 816.756,758.756C816.756,790.732 808.082,824.919 790.733,861.317C773.384,897.715 752.464,922.377 727.972,935.304L727.972,892.442C771.514,922.377 802.809,954.013 821.859,987.35C840.908,1020.69 850.433,1060.83 850.433,1107.77C850.433,1151.31 843.289,1192.98 829.002,1232.78C814.715,1272.58 792.264,1305.07 761.649,1330.24C731.033,1355.41 692.934,1368 647.352,1368L325.891,1368L325.891,1192.47Z" style="fill:rgb(93,55,141);fill-rule:nonzero;"/>
            </g>
        </g>
    </g>
</svg>
