<?xml version="1.0" encoding="UTF-8" standalone="no"?>
<!DOCTYPE svg PUBLIC "-//W3C//DTD SVG 1.1//EN" "http://www.w3.org/Graphics/SVG/1.1/DTD/svg11.dtd">
<svg width="100%" height="100%" viewBox="0 0 340 57" version="1.1" xmlns="http://www.w3.org/2000/svg" xmlns:xlink="http://www.w3.org/1999/xlink" xml:space="preserve" xmlns:serif="http://www.serif.com/" style="fill-rule:evenodd;clip-rule:evenodd;stroke-linejoin:round;stroke-miterlimit:2;">
    <g transform="matrix(1,0,0,1,-5858.43,-359.695)">
        <g transform="matrix(0.121276,0,0,0.121276,5822.02,249.506)">
            <path d="M614.135,1367.96L677.65,1367.96L521.017,932.582L456.883,932.582L300.248,1367.96L363.149,1367.96L406.316,1242.75L570.351,1242.75L614.135,1367.96ZM489.567,992.334C489.567,992.334 498.817,1031.82 506.217,1054.04L554.317,1192.25L422.35,1192.25L471.067,1054.04C478.467,1031.82 488.333,992.334 488.333,992.334L489.567,992.334Z" style="fill:white;fill-rule:nonzero;"/>
        </g>
        <g transform="matrix(0.121276,0,0,0.121276,5822.02,249.506)">
            <path d="M740.64,1253.91C740.64,1358.11 820.129,1370.43 860.221,1370.43C872.557,1370.43 881.192,1369.2 881.192,1369.2L881.192,1316.23C881.192,1316.23 875.641,1317.46 867.006,1317.46C844.184,1317.46 800.392,1309.44 800.392,1247.12L800.392,1108.29L875.641,1108.29L875.641,1060.26L800.392,1060.26L800.392,970.206L742.488,970.206L742.488,1060.26L699.931,1060.26L699.931,1108.29L740.64,1108.29L740.64,1253.91Z" style="fill:white;fill-rule:nonzero;"/>
        </g>
        <g transform="matrix(0.121276,0,0,0.121276,5822.02,249.506)">
            <path d="M947.883,993.567L1008.25,993.567L1008.25,932.582L947.883,932.582L947.883,993.567ZM948.499,1367.96L1008.25,1367.96L1008.25,1055.94L948.499,1055.94L948.499,1367.96Z" style="fill:white;fill-rule:nonzero;"/>
        </g>
        <g transform="matrix(0.121276,0,0,0.121276,5822.02,249.506)">
            <path d="M1176.07,1367.96L1245.13,1367.96L1360.44,1055.94L1297.54,1055.94L1221.7,1266.88C1215.53,1284.15 1211.21,1309.44 1210.6,1309.44L1209.37,1309.44C1208.75,1309.44 1205.05,1284.15 1198.88,1266.88L1123.04,1055.94L1059.52,1055.94L1176.07,1367.96Z" style="fill:white;fill-rule:nonzero;"/>
        </g>
        <g transform="matrix(0.121276,0,0,0.121276,5822.02,249.506)">
            <path d="M1386.42,1280.42C1386.42,1342.73 1438.78,1375.36 1492.46,1375.36C1567.13,1375.36 1592.43,1313.75 1592.43,1313.75L1593.66,1313.75C1593.66,1313.68 1592.43,1324.17 1592.43,1338.36L1592.43,1367.96L1647.87,1367.96L1647.87,1170.66C1647.87,1091.65 1603.52,1048.54 1524.55,1048.54C1452.96,1048.54 1407.98,1085.49 1407.98,1085.49L1432.62,1129.29C1432.62,1129.29 1471.48,1099.04 1519.61,1099.04C1559.11,1099.04 1588.11,1116.33 1588.11,1167.58L1588.11,1173.13L1574.54,1173.13C1522.08,1173.13 1386.42,1177.44 1386.42,1280.42ZM1446.79,1277.34C1446.79,1221.17 1528.25,1218.08 1573.3,1218.08L1588.73,1218.08L1588.73,1227.96C1588.73,1274.25 1556.02,1327.33 1505.42,1327.33C1466.54,1327.33 1446.79,1302.64 1446.79,1277.34Z" style="fill:white;fill-rule:nonzero;"/>
        </g>
        <g transform="matrix(0.698952,0,0,0.717864,5858.38,63.6567)">
            <g transform="matrix(0.641122,0,0,0.624232,35.759,340.239)">
                <path d="M379.642,236.752L392.995,190.529L449.075,190.524C451.381,190.496 453.35,188.95 454.002,186.848L460.428,165.602L401.957,165.689C401.957,165.689 400.827,165.551 400.327,166.45C400.17,166.738 399.405,168.108 399.405,168.108C399.405,168.108 405.788,146.13 414.975,146.13L462.395,146.13C464.709,146.13 466.666,144.611 467.342,142.524L475.268,115.67L417.375,115.581C398.602,116.944 384.897,132.533 376.257,162.34L353.257,240.547L374.63,240.547C377.009,240.547 379.025,238.935 379.642,236.752" style="fill:white;fill-rule:nonzero;"/>
            </g>
        </g>
        <g transform="matrix(0.698952,0,0,0.717864,5858.38,63.6567)">
            <g transform="matrix(0.641122,0,0,0.624232,35.759,340.294)">
                <path d="M517.084,192.037L497.028,192.037C497.028,192.037 496.148,192.072 495.919,192.072C495.028,192.072 494.028,193.682 494.028,193.682L511.364,154.04L519.832,189.797C519.852,189.891 520.271,192.037 517.084,192.037M553.857,237.436L524.731,115.581C523.787,115.591 509.336,115.581 507.498,115.581C503.85,115.581 502.551,117.31 501.766,118.881L448.304,240.458L469.263,240.458C473.419,240.458 474.135,238.635 474.772,237.225L487.002,209.6L520.017,209.457C523.955,209.457 525.047,212.186 525.047,212.186L531.726,240.458L549.357,240.458C549.357,240.458 554.585,240.458 553.857,237.436" style="fill:white;fill-rule:nonzero;"/>
            </g>
        </g>
        <g transform="matrix(0.698952,0,0,0.717864,5858.38,63.6567)">
            <g transform="matrix(0.641122,0,0,0.624232,35.759,340.294)">
                <path d="M679.579,115.581C674.313,115.581 671.528,115.581 668.395,121.381L627.939,196.025C627.939,196.025 627.407,196.97 627.256,197.274C626.447,198.894 626.544,201.124 626.544,201.124L612.563,115.581L592.235,115.581C586.743,115.581 582.733,115.581 581.665,122.054L559.16,240.458C561.79,240.366 572.987,240.458 572.987,240.458C582.461,240.458 582.461,240.458 583.634,234.07L596.93,163.792L609.109,238.763C616.85,238.777 609.812,238.777 616.85,238.777L620.717,238.777C628.29,238.763 628.29,238.763 631.078,233.732L668.592,164.296L654.123,240.458L668.653,240.458C677.286,240.458 677.286,240.458 678.636,233.985L701.153,115.581L679.579,115.581Z" style="fill:white;fill-rule:nonzero;"/>
            </g>
        </g>
    </g>
</svg>
