<?xml version="1.0" encoding="UTF-8" standalone="no"?>
<!DOCTYPE svg PUBLIC "-//W3C//DTD SVG 1.1//EN" "http://www.w3.org/Graphics/SVG/1.1/DTD/svg11.dtd">
<svg width="100%" height="100%" viewBox="0 0 414 101" version="1.1" xmlns="http://www.w3.org/2000/svg" xmlns:xlink="http://www.w3.org/1999/xlink" xml:space="preserve" xmlns:serif="http://www.serif.com/" style="fill-rule:evenodd;clip-rule:evenodd;stroke-linejoin:round;stroke-miterlimit:2;">
    <g transform="matrix(1,0,0,1,-5873.74,-148.536)">
        <g transform="matrix(0.621359,0,0,0.128205,2100.7,108.103)">
            <g transform="matrix(0.110359,0,0,0.534865,6037.4,-179.464)">
                <path d="M324.92,1147.8C324.92,1275.51 416.746,1375.36 547.506,1375.36C656.679,1375.36 716.508,1306.36 716.508,1306.36L683.818,1262.55C683.818,1262.55 631.39,1319.31 549.356,1319.31C452.52,1319.31 387.756,1240.34 387.756,1147.19C387.756,1054.65 451.286,980.615 548.74,980.615C623.988,980.615 674.566,1028.12 674.566,1028.12L704.789,982.465C704.789,982.465 651.127,925.18 546.272,925.18C419.83,925.18 324.92,1021.33 324.92,1147.8Z" style="fill:white;fill-rule:nonzero;"/>
                <path d="M783.815,1282.92C783.815,1361.19 833.712,1370.43 867.622,1370.43C878.108,1370.43 887.36,1369.2 887.36,1369.2L887.36,1316.23C887.36,1316.23 882.425,1316.85 876.874,1316.85C858.37,1316.85 843.567,1310.06 843.567,1272.43L843.567,932.582L783.815,932.582L783.815,1282.92Z" style="fill:white;fill-rule:nonzero;"/>
                <path d="M946.649,1255.78C946.649,1338.41 982.993,1375.36 1053.3,1375.36C1114.39,1375.36 1155.12,1334.71 1168.08,1303.89L1169.31,1303.89C1169.31,1303.83 1168.08,1313.7 1168.08,1326.65L1168.08,1367.96L1225.98,1367.96L1225.98,1055.94L1166.23,1055.94L1166.23,1202.08C1166.23,1263.8 1128.59,1319.93 1065.03,1319.93C1015.04,1319.93 1006.4,1285.39 1006.4,1242.21L1006.4,1055.94L946.649,1055.94L946.649,1255.78Z" style="fill:white;fill-rule:nonzero;"/>
                <path d="M1319.81,1367.96L1376.48,1367.96L1376.48,1345.19C1376.48,1331.64 1375.25,1321.78 1375.25,1321.78L1376.48,1321.78C1376.48,1321.78 1404.86,1375.36 1474.59,1375.36C1556.66,1375.36 1616.41,1311.29 1616.41,1211.95C1616.41,1115.08 1563.43,1048.54 1479.53,1048.54C1406.1,1048.54 1379.56,1101.51 1379.56,1101.51L1378.33,1101.51C1378.33,1101.51 1379.56,1090.42 1379.56,1075.02L1379.56,932.582L1319.81,932.582L1319.81,1367.96ZM1377.71,1213.18C1377.71,1133.59 1420.9,1100.89 1467.8,1100.89C1519.64,1100.89 1556.04,1144.7 1556.04,1212.57C1556.04,1283.52 1515.32,1324.25 1465.95,1324.25C1406.71,1324.25 1377.71,1268.71 1377.71,1213.18Z" style="fill:white;fill-rule:nonzero;"/>
                <path d="M1668.3,1211.93C1668.3,1304.49 1735.45,1375.36 1833.57,1375.36C1908.22,1375.36 1954.42,1331.02 1954.42,1331.02L1929.78,1287.21C1929.78,1287.21 1890.96,1323.63 1837.27,1323.63C1781.74,1323.63 1732.99,1289.06 1729.9,1220.55L1957.5,1220.55C1957.5,1220.55 1959.35,1202.69 1959.35,1194.69C1959.35,1113.86 1912.53,1048.54 1824.31,1048.54C1735.45,1048.54 1668.3,1112.62 1668.3,1211.93ZM1731.75,1175.6C1740.39,1124.36 1777.42,1095.95 1823.08,1095.95C1863.19,1095.95 1896.51,1121.88 1898.36,1175.6L1731.75,1175.6Z" style="fill:white;fill-rule:nonzero;"/>
                <path d="M2170.37,1211.95C2170.37,1308.82 2223.35,1375.36 2307.87,1375.36C2385.01,1375.36 2410.3,1317.46 2410.3,1317.46L2411.53,1317.46C2411.53,1317.38 2410.91,1326.02 2410.91,1338.36L2410.91,1367.96L2467.59,1367.96L2467.59,932.582L2407.84,932.582L2407.84,1076.87C2407.84,1088.57 2409.07,1097.81 2409.07,1097.81L2407.84,1097.81C2407.84,1097.81 2383.77,1048.54 2311.57,1048.54C2228.89,1048.54 2170.37,1112.61 2170.37,1211.95ZM2231.36,1211.95C2231.36,1140.99 2272.08,1100.27 2321.45,1100.27C2380.68,1100.27 2409.68,1155.8 2409.68,1211.33C2409.68,1290.93 2365.88,1323.63 2319.6,1323.63C2267.76,1323.63 2231.36,1279.82 2231.36,1211.95Z" style="fill:white;fill-rule:nonzero;"/>
                <path d="M2539.83,1211.93C2539.83,1304.49 2606.99,1375.36 2705.1,1375.36C2779.75,1375.36 2825.95,1331.02 2825.95,1331.02L2801.31,1287.21C2801.31,1287.21 2762.49,1323.63 2708.8,1323.63C2653.27,1323.63 2604.52,1289.06 2601.43,1220.55L2829.03,1220.55C2829.03,1220.55 2830.88,1202.69 2830.88,1194.69C2830.88,1113.86 2784.06,1048.54 2695.84,1048.54C2606.99,1048.54 2539.83,1112.62 2539.83,1211.93ZM2603.28,1175.6C2611.92,1124.36 2648.95,1095.95 2694.61,1095.95C2734.72,1095.95 2768.04,1121.88 2769.89,1175.6L2603.28,1175.6Z" style="fill:white;fill-rule:nonzero;"/>
                <path d="M315.686,1579.58L505.501,1579.58L630.003,2144.95L609.593,2144.95L733.074,1579.58L922.889,1579.58L719.808,2395.99L509.583,2395.99L315.686,1579.58Z" style="fill:white;fill-rule:nonzero;"/>
                <path d="M953.504,1911.25C953.504,1804.43 977.146,1720.24 1024.43,1658.67C1071.71,1597.1 1147.06,1566.32 1250.47,1566.32C1350.48,1566.32 1424.64,1596.08 1472.94,1655.61C1521.25,1715.14 1545.4,1800.35 1545.4,1911.25L1545.4,2395.99L1355.59,2395.99L1355.59,2155.15L1142.3,2155.15L1142.3,2395.99L953.504,2395.99L953.504,1911.25ZM1355.59,1976.56L1355.59,1877.57C1355.59,1853.76 1351.5,1831.82 1343.34,1811.75C1335.17,1791.68 1323.27,1775.52 1307.62,1763.28C1291.97,1751.03 1272.92,1744.9 1250.47,1744.9C1214.41,1744.9 1187.37,1758 1169.34,1784.19C1151.31,1810.39 1142.3,1842.87 1142.3,1881.65L1142.3,1976.56L1355.59,1976.56Z" style="fill:white;fill-rule:nonzero;"/>
                <path d="M1647.45,1580.6L1837.27,1580.6L2112.8,2085.76L2089.33,2091.88L2089.33,1580.6L2280.17,1580.6L2280.17,2395.99L2089.33,2395.99L1813.79,1891.86L1837.27,1885.74L1837.27,2395.99L1647.45,2395.99L1647.45,1580.6Z" style="fill:white;fill-rule:nonzero;"/>
                <path d="M2553.66,1755.11L2361.81,1755.11L2361.81,1579.58L2940.44,1579.58L2940.44,1755.11L2742.46,1755.11L2742.46,2395.99L2553.66,2395.99L2553.66,1755.11Z" style="fill:white;fill-rule:nonzero;"/>
                <path d="M3022.08,1911.25C3022.08,1804.43 3045.72,1720.24 3093,1658.67C3140.29,1597.1 3215.64,1566.32 3319.05,1566.32C3419.06,1566.32 3493.21,1596.08 3541.52,1655.61C3589.82,1715.14 3613.97,1800.35 3613.97,1911.25L3613.97,2395.99L3424.16,2395.99L3424.16,2155.15L3210.87,2155.15L3210.87,2395.99L3022.08,2395.99L3022.08,1911.25ZM3424.16,1976.56L3424.16,1877.57C3424.16,1853.76 3420.08,1831.82 3411.91,1811.75C3403.75,1791.68 3391.84,1775.52 3376.2,1763.28C3360.55,1751.03 3341.5,1744.9 3319.05,1744.9C3282.99,1744.9 3255.95,1758 3237.92,1784.19C3219.89,1810.39 3210.87,1842.87 3210.87,1881.65L3210.87,1976.56L3424.16,1976.56Z" style="fill:white;fill-rule:nonzero;"/>
                <path d="M4133.41,2397.01C4050.41,2397.01 3975.74,2381.19 3909.41,2349.56C3843.08,2317.92 3790.86,2272 3752.76,2211.79C3714.66,2151.58 3695.62,2080.31 3695.62,1997.99C3695.62,1905.47 3716.53,1827.74 3758.38,1764.81C3800.22,1701.87 3856.35,1655.1 3926.76,1624.49C3997.18,1593.87 4075.58,1578.56 4161.99,1578.56L4319.15,1578.56L4319.15,1761.23L4153.82,1761.23C4106.88,1761.23 4064.02,1770.08 4025.24,1787.77C3986.46,1805.46 3955.85,1831.65 3933.39,1866.35C3910.94,1901.04 3899.72,1942.2 3899.72,1989.83C3899.72,2030.65 3908.73,2068.24 3926.76,2102.59C3944.79,2136.95 3969.96,2164.34 4002.28,2184.74C4034.59,2205.16 4071.5,2215.36 4113,2215.36L4176.27,2215.36L4176.27,2058.2L4050.75,2058.2L4050.75,1879.61L4372.21,1879.61L4372.21,2397.01L4133.41,2397.01Z" style="fill:white;fill-rule:nonzero;"/>
                <path d="M4474.26,1579.58L5003.91,1579.58L5003.91,1755.11L4662.04,1755.11L4662.04,1882.67L4934.51,1882.67L4934.51,2058.2L4662.04,2058.2L4662.04,2220.46L5003.91,2220.46L5003.91,2395.99L4474.26,2395.99L4474.26,1579.58Z" style="fill:white;fill-rule:nonzero;"/>
                <path d="M5105.96,1580.6L5295.77,1580.6L5571.31,2085.76L5547.84,2091.88L5547.84,1580.6L5738.68,1580.6L5738.68,2395.99L5547.84,2395.99L5272.3,1891.86L5295.77,1885.74L5295.77,2395.99L5105.96,2395.99L5105.96,1580.6Z" style="fill:white;fill-rule:nonzero;"/>
                <path d="M5839.71,2220.46L6059.11,2220.46C6079.53,2220.46 6097.39,2214.17 6112.69,2201.58C6128,2189 6135.65,2172.5 6135.65,2152.09C6135.65,2133.72 6129.02,2118.41 6115.75,2106.17C6102.49,2093.92 6081.91,2080.99 6054.01,2067.39C6045.85,2063.3 6037.69,2059.56 6029.52,2056.16C5988.7,2037.79 5953.66,2018.74 5924.41,1999.01C5895.15,1979.28 5870.49,1954.28 5850.42,1924.01C5830.35,1893.73 5820.32,1857.5 5820.32,1815.32C5820.32,1773.14 5830.35,1734.02 5850.42,1697.96C5870.49,1661.9 5896.68,1633.16 5929,1611.73C5961.32,1590.3 5995.16,1579.58 6030.54,1579.58L6304.04,1579.58L6304.04,1755.11L6106.06,1755.11C6080.21,1755.11 6059.8,1759.02 6044.83,1766.85C6029.86,1774.67 6022.38,1790.49 6022.38,1814.3C6022.38,1829.27 6025.61,1842.02 6032.07,1852.57C6038.53,1863.12 6047.72,1872.47 6059.63,1880.63C6071.53,1888.8 6087.35,1897.98 6107.08,1908.19L6121.37,1915.33C6164.91,1937.1 6201.65,1958.02 6231.58,1978.09C6261.52,1998.16 6286.86,2024.02 6307.61,2055.65C6328.36,2087.29 6338.74,2125.22 6338.74,2169.44C6338.74,2208.9 6330.23,2245.98 6313.22,2280.67C6296.21,2315.37 6271.89,2343.26 6240.26,2364.36C6208.62,2385.45 6171.71,2395.99 6129.53,2395.99L5839.71,2395.99L5839.71,2220.46Z" style="fill:white;fill-rule:nonzero;"/>
            </g>
        </g>
    </g>
</svg>
