<?xml version="1.0" encoding="UTF-8" standalone="no"?>
<!DOCTYPE svg PUBLIC "-//W3C//DTD SVG 1.1//EN" "http://www.w3.org/Graphics/SVG/1.1/DTD/svg11.dtd">
<svg width="100%" height="100%" viewBox="0 0 50 50" version="1.1" xmlns="http://www.w3.org/2000/svg" xmlns:xlink="http://www.w3.org/1999/xlink" xml:space="preserve" xmlns:serif="http://www.serif.com/" style="fill-rule:evenodd;clip-rule:evenodd;stroke-linejoin:round;stroke-miterlimit:2;">
    <g transform="matrix(0.52687,0,0,0.52687,-1.36986,-1.36986)">
        <path d="M47.3,38.6C47.3,33.8 43.4,29.9 38.6,29.9C33.8,29.9 29.9,33.8 29.9,38.6C29.9,43.4 33.8,47.3 38.6,47.3C43.4,47.3 47.3,43.4 47.3,38.6ZM35.3,38.6C35.3,36.8 36.8,35.3 38.6,35.3C40.4,35.3 41.9,36.8 41.9,38.6C41.9,40.4 40.4,41.9 38.6,41.9C36.8,41.8 35.3,40.4 35.3,38.6Z" style="fill:rgb(229,56,136);fill-rule:nonzero;"/>
    </g>
    <g transform="matrix(0.52687,0,0,0.52687,-1.36986,-1.36986)">
        <path d="M61.4,52.7C56.6,52.7 52.7,56.6 52.7,61.4C52.7,66.2 56.6,70.1 61.4,70.1C66.2,70.1 70.1,66.2 70.1,61.4C70.1,56.6 66.2,52.7 61.4,52.7ZM61.4,64.7C59.6,64.7 58.1,63.2 58.1,61.4C58.1,59.6 59.6,58.1 61.4,58.1C63.2,58.1 64.7,59.6 64.7,61.4C64.7,63.2 63.2,64.7 61.4,64.7Z" style="fill:rgb(229,56,136);fill-rule:nonzero;"/>
    </g>
    <g transform="matrix(0.52687,0,0,0.52687,-1.36986,-1.36986)">
        <path d="M66.8,33.2C65.7,32.1 64,32.1 63,33.2L33.2,62.9C32.1,64 32.1,65.7 33.2,66.7C33.7,67.2 34.4,67.5 35.1,67.5C35.8,67.5 36.5,67.2 37,66.7L66.7,37C67.8,36 67.8,34.3 66.8,33.2Z" style="fill:rgb(229,56,136);fill-rule:nonzero;"/>
    </g>
    <g transform="matrix(0.52687,0,0,0.52687,-1.36986,-1.36986)">
        <path d="M93.9,41.4L89.2,36.7C87.9,35.4 87.2,33.7 87.2,31.9L87.2,25.2C87.2,18.4 81.7,12.9 74.9,12.9L68.3,12.9C66.5,12.9 64.7,12.2 63.5,10.9L58.8,6.2C54,1.4 46.2,1.4 41.4,6.2L36.7,10.9C35.4,12.2 33.7,12.9 31.9,12.9L25.2,12.9C18.4,12.9 12.9,18.4 12.9,25.2L12.9,31.8C12.9,33.6 12.2,35.4 10.9,36.6L6.2,41.3C3.9,43.6 2.6,46.7 2.6,50C2.6,53.3 3.9,56.4 6.2,58.7L10.9,63.4C12.2,64.7 12.9,66.4 12.9,68.2L12.9,74.9C12.9,81.7 18.4,87.2 25.2,87.2L31.8,87.2C33.6,87.2 35.4,87.9 36.6,89.2L41.3,93.9C43.6,96.2 46.7,97.5 50,97.5C53.3,97.5 56.4,96.2 58.7,93.9L63.4,89.2C64.7,87.9 66.4,87.2 68.2,87.2L74.9,87.2C81.7,87.2 87.2,81.7 87.2,74.9L87.2,68.3C87.2,66.5 87.9,64.8 89.2,63.5L93.9,58.8C98.7,53.9 98.7,46.2 93.9,41.4ZM90.1,54.9L85.4,59.6C83,62 81.7,65 81.7,68.3L81.7,74.9C81.7,78.7 78.6,81.8 74.8,81.8L68.1,81.8C64.8,81.8 61.7,83.1 59.4,85.4L54.7,90.1C52.1,92.7 47.6,92.7 45,90.1L40.3,85.4C38,83 35,81.7 31.7,81.7L25.1,81.7C21.3,81.7 18.2,78.6 18.2,74.8L18.2,68.1C18.2,64.9 16.9,61.7 14.6,59.4L9.9,54.7C8.6,53.4 7.9,51.7 7.9,49.9C7.9,48.1 8.6,46.3 9.9,45.1L14.6,40.4C16.9,38.1 18.2,34.9 18.2,31.7L18.2,25.1C18.2,21.3 21.3,18.2 25.1,18.2L31.8,18.2C35.1,18.2 38.2,16.9 40.5,14.6L45.2,9.9C47.9,7.2 52.2,7.2 54.9,9.9L59.6,14.6C61.9,16.9 65,18.2 68.3,18.2L74.9,18.2C78.7,18.2 81.8,21.3 81.8,25.1L81.8,31.8C81.8,35 83.1,38.2 85.4,40.5L90.1,45.2C92.7,47.9 92.7,52.2 90.1,54.9Z" style="fill:rgb(93,55,141);fill-rule:nonzero;"/>
    </g>
</svg>
