<?xml version="1.0" encoding="UTF-8" standalone="no"?>
<!DOCTYPE svg PUBLIC "-//W3C//DTD SVG 1.1//EN" "http://www.w3.org/Graphics/SVG/1.1/DTD/svg11.dtd">
<svg width="100%" height="100%" viewBox="0 0 209 209" version="1.1" xmlns="http://www.w3.org/2000/svg" xmlns:xlink="http://www.w3.org/1999/xlink" xml:space="preserve" xmlns:serif="http://www.serif.com/" style="fill-rule:evenodd;clip-rule:evenodd;stroke-linejoin:round;stroke-miterlimit:2;">
    <g transform="matrix(1,0,0,1,-5823,6.8325e-15)">
        <g id="Artboard1" transform="matrix(4.16667,0,0,4.16667,5823,-2.27374e-13)">
            <rect x="0" y="0" width="50" height="50" style="fill:none;"/>
            <g transform="matrix(2.05767,0,0,2.05767,0.307911,0.248674)">
                <path d="M7.772,9.74L7.772,21.291C7.772,21.705 7.436,22.041 7.022,22.041L2.5,22.041C2.168,22.041 1.851,21.909 1.616,21.675C1.382,21.441 1.25,21.123 1.25,20.791L1.25,10.24C1.25,9.908 1.382,9.591 1.616,9.356C1.851,9.122 2.168,8.99 2.5,8.99L7.022,8.99C7.436,8.99 7.772,9.326 7.772,9.74ZM2.75,10.49L2.75,20.541L6.272,20.541L6.272,10.49L2.75,10.49Z" style="fill:rgb(229,56,136);"/>
            </g>
            <g transform="matrix(2.05767,0,0,2.05767,0.307911,0.248674)">
                <path d="M6.272,21.291L6.272,9.74C6.272,9.58 6.323,9.425 6.418,9.296L10.975,3.082C11.494,2.376 12.317,1.959 13.193,1.959L13.343,1.959C14.156,1.959 14.927,2.318 15.449,2.941C15.972,3.563 16.192,4.385 16.051,5.185L15.433,8.697C15.421,8.769 15.441,8.844 15.488,8.901C15.536,8.957 15.606,8.99 15.68,8.99L19.991,8.99C20.846,8.99 21.652,9.386 22.174,10.062C22.697,10.738 22.876,11.618 22.661,12.445L20.695,19.979C20.378,21.194 19.281,22.041 18.026,22.041L7.022,22.041C6.608,22.041 6.272,21.705 6.272,21.291ZM7.772,20.541L18.026,20.541C18.599,20.541 19.099,20.154 19.244,19.6L21.209,12.067C21.308,11.689 21.226,11.288 20.987,10.979C20.749,10.671 20.381,10.49 19.991,10.49L15.68,10.49C15.162,10.49 14.672,10.261 14.339,9.865C14.007,9.469 13.866,8.946 13.956,8.437L14.574,4.925C14.638,4.562 14.538,4.188 14.3,3.905C14.063,3.622 13.712,3.459 13.343,3.459L13.193,3.459C12.795,3.459 12.42,3.648 12.185,3.97L7.772,9.986L7.772,20.541Z" style="fill:rgb(229,56,136);"/>
            </g>
        </g>
    </g>
</svg>
