<?xml version="1.0" encoding="UTF-8" standalone="no"?>
<!DOCTYPE svg PUBLIC "-//W3C//DTD SVG 1.1//EN" "http://www.w3.org/Graphics/SVG/1.1/DTD/svg11.dtd">
<svg width="100%" height="100%" viewBox="0 0 1516 446" version="1.1" xmlns="http://www.w3.org/2000/svg" xmlns:xlink="http://www.w3.org/1999/xlink" xml:space="preserve" xmlns:serif="http://www.serif.com/" style="fill-rule:evenodd;clip-rule:evenodd;stroke-linejoin:round;stroke-miterlimit:2;">
    <g transform="matrix(1,0,0,1,-359,-1240.16)">
        <g transform="matrix(0.273982,0,0,0.273982,629.988,1412.7)">
            <g transform="matrix(822.271,0,0,822.271,188,987)">
                <path d="M0.063,-0.426C0.076,-0.435 0.092,-0.444 0.111,-0.454C0.131,-0.464 0.152,-0.473 0.176,-0.482C0.2,-0.49 0.226,-0.497 0.253,-0.503C0.281,-0.509 0.31,-0.512 0.339,-0.512C0.375,-0.512 0.406,-0.507 0.43,-0.497C0.455,-0.486 0.475,-0.473 0.49,-0.455C0.505,-0.438 0.515,-0.418 0.522,-0.395C0.528,-0.372 0.532,-0.348 0.532,-0.323L0.532,-0L0.39,-0L0.39,-0.311C0.39,-0.321 0.389,-0.331 0.387,-0.341C0.385,-0.351 0.381,-0.359 0.376,-0.367C0.37,-0.375 0.363,-0.382 0.354,-0.387C0.345,-0.392 0.333,-0.395 0.319,-0.395C0.309,-0.395 0.299,-0.394 0.288,-0.391C0.277,-0.389 0.267,-0.386 0.257,-0.382C0.246,-0.379 0.237,-0.375 0.228,-0.371C0.219,-0.367 0.212,-0.363 0.206,-0.359L0.206,-0L0.063,-0L0.063,-0.426Z" style="fill:white;fill-rule:nonzero;"/>
            </g>
            <g transform="matrix(822.271,0,0,822.271,673.815,987)">
                <path d="M0.03,-0.242C0.03,-0.287 0.036,-0.327 0.049,-0.361C0.062,-0.395 0.08,-0.423 0.103,-0.445C0.127,-0.467 0.155,-0.484 0.189,-0.495C0.222,-0.506 0.259,-0.512 0.301,-0.512C0.321,-0.512 0.34,-0.51 0.36,-0.508C0.379,-0.505 0.398,-0.501 0.415,-0.496C0.433,-0.492 0.45,-0.486 0.466,-0.48C0.482,-0.474 0.496,-0.468 0.509,-0.462L0.509,-0L0.384,-0L0.368,-0.051C0.36,-0.045 0.352,-0.038 0.342,-0.031C0.333,-0.023 0.322,-0.017 0.31,-0.01C0.298,-0.004 0.285,0 0.271,0.004C0.257,0.008 0.241,0.01 0.223,0.01C0.194,0.01 0.167,0.005 0.143,-0.006C0.119,-0.017 0.099,-0.034 0.082,-0.055C0.066,-0.077 0.053,-0.103 0.043,-0.134C0.034,-0.166 0.03,-0.201 0.03,-0.242ZM0.168,-0.249C0.168,-0.223 0.171,-0.201 0.177,-0.183C0.182,-0.164 0.189,-0.149 0.198,-0.138C0.208,-0.126 0.219,-0.117 0.231,-0.112C0.244,-0.107 0.258,-0.104 0.272,-0.104C0.291,-0.104 0.309,-0.107 0.325,-0.114C0.342,-0.121 0.356,-0.129 0.367,-0.138L0.367,-0.384C0.362,-0.386 0.352,-0.389 0.338,-0.392C0.324,-0.396 0.308,-0.397 0.289,-0.397C0.271,-0.397 0.254,-0.394 0.24,-0.388C0.225,-0.382 0.212,-0.373 0.202,-0.361C0.191,-0.348 0.183,-0.333 0.177,-0.314C0.171,-0.296 0.168,-0.274 0.168,-0.249Z" style="fill:white;fill-rule:nonzero;"/>
            </g>
            <g transform="matrix(822.271,0,0,822.271,1143.97,987)">
                <path d="M0.064,-0.141C0.092,-0.127 0.118,-0.117 0.144,-0.111C0.169,-0.105 0.193,-0.102 0.217,-0.102C0.228,-0.102 0.238,-0.103 0.247,-0.105C0.256,-0.108 0.264,-0.112 0.271,-0.116C0.277,-0.12 0.283,-0.125 0.287,-0.131C0.291,-0.137 0.292,-0.143 0.292,-0.149C0.292,-0.155 0.291,-0.161 0.287,-0.165C0.283,-0.17 0.277,-0.175 0.268,-0.179C0.26,-0.184 0.249,-0.188 0.235,-0.193C0.222,-0.198 0.206,-0.204 0.187,-0.21C0.167,-0.217 0.147,-0.225 0.13,-0.232C0.112,-0.24 0.096,-0.25 0.083,-0.261C0.07,-0.273 0.059,-0.287 0.052,-0.303C0.044,-0.319 0.04,-0.34 0.04,-0.363C0.04,-0.389 0.045,-0.412 0.056,-0.43C0.067,-0.449 0.082,-0.465 0.1,-0.477C0.118,-0.489 0.139,-0.497 0.162,-0.503C0.186,-0.509 0.211,-0.512 0.236,-0.512C0.276,-0.512 0.31,-0.508 0.34,-0.5C0.37,-0.492 0.396,-0.481 0.42,-0.469L0.383,-0.372C0.36,-0.381 0.338,-0.387 0.319,-0.391C0.3,-0.395 0.282,-0.397 0.265,-0.397C0.252,-0.397 0.24,-0.397 0.23,-0.395C0.22,-0.393 0.211,-0.391 0.203,-0.387C0.196,-0.384 0.19,-0.38 0.186,-0.374C0.181,-0.369 0.179,-0.362 0.179,-0.355C0.179,-0.347 0.182,-0.341 0.188,-0.336C0.195,-0.331 0.203,-0.327 0.213,-0.323C0.223,-0.32 0.234,-0.316 0.246,-0.313C0.258,-0.31 0.271,-0.307 0.283,-0.303C0.309,-0.294 0.332,-0.285 0.35,-0.275C0.369,-0.265 0.384,-0.253 0.396,-0.24C0.408,-0.227 0.416,-0.212 0.422,-0.197C0.427,-0.181 0.43,-0.163 0.43,-0.143C0.43,-0.118 0.425,-0.096 0.414,-0.077C0.404,-0.058 0.389,-0.042 0.372,-0.029C0.354,-0.016 0.333,-0.006 0.309,0C0.285,0.007 0.26,0.01 0.234,0.01C0.208,0.01 0.185,0.009 0.163,0.005C0.142,0.002 0.122,-0.002 0.104,-0.007C0.087,-0.012 0.072,-0.017 0.059,-0.023C0.046,-0.029 0.035,-0.034 0.026,-0.039L0.064,-0.141Z" style="fill:white;fill-rule:nonzero;"/>
            </g>
            <g transform="matrix(822.271,0,0,822.271,1757.46,987)">
                <path d="M0.079,-0L0.079,-0.681L0.518,-0.681L0.517,-0.56L0.227,-0.56L0.227,-0.402L0.474,-0.402L0.474,-0.288L0.227,-0.288L0.227,-0.121L0.527,-0.121L0.527,-0L0.079,-0Z" style="fill:white;fill-rule:nonzero;"/>
            </g>
            <g transform="matrix(822.271,0,0,822.271,2225.61,987)">
                <path d="M0.064,-0.141C0.092,-0.127 0.118,-0.117 0.144,-0.111C0.169,-0.105 0.193,-0.102 0.217,-0.102C0.228,-0.102 0.238,-0.103 0.247,-0.105C0.256,-0.108 0.264,-0.112 0.271,-0.116C0.277,-0.12 0.283,-0.125 0.287,-0.131C0.291,-0.137 0.292,-0.143 0.292,-0.149C0.292,-0.155 0.291,-0.161 0.287,-0.165C0.283,-0.17 0.277,-0.175 0.268,-0.179C0.26,-0.184 0.249,-0.188 0.235,-0.193C0.222,-0.198 0.206,-0.204 0.187,-0.21C0.167,-0.217 0.147,-0.225 0.13,-0.232C0.112,-0.24 0.096,-0.25 0.083,-0.261C0.07,-0.273 0.059,-0.287 0.052,-0.303C0.044,-0.319 0.04,-0.34 0.04,-0.363C0.04,-0.389 0.045,-0.412 0.056,-0.43C0.067,-0.449 0.082,-0.465 0.1,-0.477C0.118,-0.489 0.139,-0.497 0.162,-0.503C0.186,-0.509 0.211,-0.512 0.236,-0.512C0.276,-0.512 0.31,-0.508 0.34,-0.5C0.37,-0.492 0.396,-0.481 0.42,-0.469L0.383,-0.372C0.36,-0.381 0.338,-0.387 0.319,-0.391C0.3,-0.395 0.282,-0.397 0.265,-0.397C0.252,-0.397 0.24,-0.397 0.23,-0.395C0.22,-0.393 0.211,-0.391 0.203,-0.387C0.196,-0.384 0.19,-0.38 0.186,-0.374C0.181,-0.369 0.179,-0.362 0.179,-0.355C0.179,-0.347 0.182,-0.341 0.188,-0.336C0.195,-0.331 0.203,-0.327 0.213,-0.323C0.223,-0.32 0.234,-0.316 0.246,-0.313C0.258,-0.31 0.271,-0.307 0.283,-0.303C0.309,-0.294 0.332,-0.285 0.35,-0.275C0.369,-0.265 0.384,-0.253 0.396,-0.24C0.408,-0.227 0.416,-0.212 0.422,-0.197C0.427,-0.181 0.43,-0.163 0.43,-0.143C0.43,-0.118 0.425,-0.096 0.414,-0.077C0.404,-0.058 0.389,-0.042 0.372,-0.029C0.354,-0.016 0.333,-0.006 0.309,0C0.285,0.007 0.26,0.01 0.234,0.01C0.208,0.01 0.185,0.009 0.163,0.005C0.142,0.002 0.122,-0.002 0.104,-0.007C0.087,-0.012 0.072,-0.017 0.059,-0.023C0.046,-0.029 0.035,-0.034 0.026,-0.039L0.064,-0.141Z" style="fill:white;fill-rule:nonzero;"/>
            </g>
            <g transform="matrix(822.271,0,0,822.271,2609.04,987)">
                <path d="M0.041,-0.254C0.041,-0.296 0.047,-0.332 0.058,-0.365C0.069,-0.397 0.085,-0.424 0.105,-0.445C0.126,-0.467 0.151,-0.484 0.18,-0.495C0.209,-0.506 0.242,-0.512 0.278,-0.512C0.308,-0.512 0.337,-0.508 0.367,-0.501C0.396,-0.493 0.425,-0.481 0.455,-0.465L0.416,-0.372C0.398,-0.38 0.381,-0.386 0.364,-0.391C0.347,-0.395 0.329,-0.397 0.308,-0.397C0.265,-0.397 0.233,-0.385 0.212,-0.36C0.191,-0.335 0.18,-0.299 0.18,-0.25C0.18,-0.225 0.183,-0.203 0.189,-0.185C0.195,-0.167 0.204,-0.152 0.215,-0.14C0.226,-0.128 0.24,-0.119 0.255,-0.113C0.271,-0.107 0.288,-0.104 0.308,-0.104C0.328,-0.104 0.347,-0.106 0.365,-0.111C0.383,-0.116 0.4,-0.122 0.416,-0.129L0.455,-0.037C0.442,-0.03 0.429,-0.023 0.416,-0.018C0.402,-0.012 0.388,-0.007 0.374,-0.003C0.359,0.001 0.343,0.005 0.327,0.007C0.311,0.009 0.293,0.01 0.275,0.01C0.232,0.01 0.196,0.003 0.166,-0.011C0.136,-0.025 0.112,-0.044 0.094,-0.069C0.075,-0.093 0.062,-0.121 0.053,-0.153C0.045,-0.185 0.041,-0.219 0.041,-0.254Z" style="fill:white;fill-rule:nonzero;"/>
            </g>
            <g transform="matrix(822.271,0,0,822.271,3012.55,987)">
                <path d="M0.041,-0.252C0.041,-0.292 0.047,-0.328 0.058,-0.36C0.069,-0.392 0.086,-0.419 0.108,-0.441C0.13,-0.464 0.156,-0.481 0.188,-0.493C0.219,-0.506 0.254,-0.512 0.294,-0.512C0.329,-0.512 0.363,-0.507 0.394,-0.496C0.424,-0.486 0.451,-0.47 0.474,-0.448C0.497,-0.427 0.515,-0.4 0.528,-0.367C0.541,-0.335 0.547,-0.296 0.547,-0.252C0.547,-0.21 0.542,-0.173 0.53,-0.141C0.518,-0.108 0.502,-0.081 0.48,-0.058C0.458,-0.036 0.432,-0.019 0.4,-0.007C0.369,0.004 0.334,0.01 0.294,0.01C0.255,0.01 0.22,0.005 0.188,-0.007C0.157,-0.018 0.131,-0.035 0.109,-0.057C0.087,-0.08 0.07,-0.107 0.059,-0.14C0.047,-0.172 0.041,-0.21 0.041,-0.252ZM0.18,-0.252C0.18,-0.225 0.183,-0.202 0.189,-0.183C0.194,-0.164 0.202,-0.149 0.212,-0.137C0.222,-0.125 0.235,-0.117 0.249,-0.112C0.263,-0.107 0.278,-0.104 0.295,-0.104C0.312,-0.104 0.327,-0.107 0.341,-0.112C0.355,-0.117 0.367,-0.126 0.377,-0.138C0.388,-0.15 0.395,-0.166 0.401,-0.184C0.406,-0.203 0.409,-0.226 0.409,-0.253C0.409,-0.278 0.406,-0.3 0.4,-0.318C0.394,-0.337 0.387,-0.352 0.376,-0.363C0.366,-0.375 0.354,-0.384 0.341,-0.389C0.327,-0.395 0.312,-0.397 0.295,-0.397C0.278,-0.397 0.262,-0.395 0.248,-0.389C0.234,-0.383 0.222,-0.374 0.212,-0.363C0.202,-0.351 0.194,-0.336 0.188,-0.317C0.183,-0.299 0.18,-0.278 0.18,-0.252Z" style="fill:white;fill-rule:nonzero;"/>
            </g>
            <g transform="matrix(822.271,0,0,822.271,3496.36,987)">
                <rect x="0.063" y="-0.708" width="0.142" height="0.708" style="fill:white;fill-rule:nonzero;"/>
            </g>
            <g transform="matrix(822.271,0,0,822.271,3718.39,987)">
                <path d="M0.03,-0.242C0.03,-0.287 0.036,-0.327 0.049,-0.361C0.062,-0.395 0.08,-0.423 0.103,-0.445C0.127,-0.467 0.155,-0.484 0.189,-0.495C0.222,-0.506 0.259,-0.512 0.301,-0.512C0.321,-0.512 0.34,-0.51 0.36,-0.508C0.379,-0.505 0.398,-0.501 0.415,-0.496C0.433,-0.492 0.45,-0.486 0.466,-0.48C0.482,-0.474 0.496,-0.468 0.509,-0.462L0.509,-0L0.384,-0L0.368,-0.051C0.36,-0.045 0.352,-0.038 0.342,-0.031C0.333,-0.023 0.322,-0.017 0.31,-0.01C0.298,-0.004 0.285,0 0.271,0.004C0.257,0.008 0.241,0.01 0.223,0.01C0.194,0.01 0.167,0.005 0.143,-0.006C0.119,-0.017 0.099,-0.034 0.082,-0.055C0.066,-0.077 0.053,-0.103 0.043,-0.134C0.034,-0.166 0.03,-0.201 0.03,-0.242ZM0.168,-0.249C0.168,-0.223 0.171,-0.201 0.177,-0.183C0.182,-0.164 0.189,-0.149 0.198,-0.138C0.208,-0.126 0.219,-0.117 0.231,-0.112C0.244,-0.107 0.258,-0.104 0.272,-0.104C0.291,-0.104 0.309,-0.107 0.325,-0.114C0.342,-0.121 0.356,-0.129 0.367,-0.138L0.367,-0.384C0.362,-0.386 0.352,-0.389 0.338,-0.392C0.324,-0.396 0.308,-0.397 0.289,-0.397C0.271,-0.397 0.254,-0.394 0.24,-0.388C0.225,-0.382 0.212,-0.373 0.202,-0.361C0.191,-0.348 0.183,-0.333 0.177,-0.314C0.171,-0.296 0.168,-0.274 0.168,-0.249Z" style="fill:white;fill-rule:nonzero;"/>
            </g>
            <g transform="matrix(822.271,0,0,822.271,4188.54,987)">
                <path d="M0.064,-0.141C0.092,-0.127 0.118,-0.117 0.144,-0.111C0.169,-0.105 0.193,-0.102 0.217,-0.102C0.228,-0.102 0.238,-0.103 0.247,-0.105C0.256,-0.108 0.264,-0.112 0.271,-0.116C0.277,-0.12 0.283,-0.125 0.287,-0.131C0.291,-0.137 0.292,-0.143 0.292,-0.149C0.292,-0.155 0.291,-0.161 0.287,-0.165C0.283,-0.17 0.277,-0.175 0.268,-0.179C0.26,-0.184 0.249,-0.188 0.235,-0.193C0.222,-0.198 0.206,-0.204 0.187,-0.21C0.167,-0.217 0.147,-0.225 0.13,-0.232C0.112,-0.24 0.096,-0.25 0.083,-0.261C0.07,-0.273 0.059,-0.287 0.052,-0.303C0.044,-0.319 0.04,-0.34 0.04,-0.363C0.04,-0.389 0.045,-0.412 0.056,-0.43C0.067,-0.449 0.082,-0.465 0.1,-0.477C0.118,-0.489 0.139,-0.497 0.162,-0.503C0.186,-0.509 0.211,-0.512 0.236,-0.512C0.276,-0.512 0.31,-0.508 0.34,-0.5C0.37,-0.492 0.396,-0.481 0.42,-0.469L0.383,-0.372C0.36,-0.381 0.338,-0.387 0.319,-0.391C0.3,-0.395 0.282,-0.397 0.265,-0.397C0.252,-0.397 0.24,-0.397 0.23,-0.395C0.22,-0.393 0.211,-0.391 0.203,-0.387C0.196,-0.384 0.19,-0.38 0.186,-0.374C0.181,-0.369 0.179,-0.362 0.179,-0.355C0.179,-0.347 0.182,-0.341 0.188,-0.336C0.195,-0.331 0.203,-0.327 0.213,-0.323C0.223,-0.32 0.234,-0.316 0.246,-0.313C0.258,-0.31 0.271,-0.307 0.283,-0.303C0.309,-0.294 0.332,-0.285 0.35,-0.275C0.369,-0.265 0.384,-0.253 0.396,-0.24C0.408,-0.227 0.416,-0.212 0.422,-0.197C0.427,-0.181 0.43,-0.163 0.43,-0.143C0.43,-0.118 0.425,-0.096 0.414,-0.077C0.404,-0.058 0.389,-0.042 0.372,-0.029C0.354,-0.016 0.333,-0.006 0.309,0C0.285,0.007 0.26,0.01 0.234,0.01C0.208,0.01 0.185,0.009 0.163,0.005C0.142,0.002 0.122,-0.002 0.104,-0.007C0.087,-0.012 0.072,-0.017 0.059,-0.023C0.046,-0.029 0.035,-0.034 0.026,-0.039L0.064,-0.141Z" style="fill:white;fill-rule:nonzero;"/>
            </g>
        </g>
        <g transform="matrix(4.84397,0,0,4.84397,-99.1543,-1029.06)">
            <g transform="matrix(1,0,0,1,106.022,470.106)">
                <path d="M0,50.892L5.789,30.851L30.105,30.849C31.105,30.836 31.958,30.166 32.241,29.255L35.027,20.043L9.676,20.08C9.676,20.08 9.185,20.021 8.968,20.411C8.901,20.535 8.569,21.13 8.569,21.13C8.569,21.13 11.336,11.6 15.32,11.6L35.88,11.6C36.883,11.6 37.732,10.942 38.025,10.037L41.461,-1.607L16.36,-1.645C8.221,-1.054 2.278,5.705 -1.468,18.628L-11.44,52.537L-2.173,52.537C-1.142,52.537 -0.268,51.838 0,50.892" style="fill:rgb(249,226,15);fill-rule:nonzero;"/>
            </g>
            <g transform="matrix(1,0,0,1,165.614,489.493)">
                <path d="M0,12.156L-8.696,12.156C-8.696,12.156 -9.077,12.171 -9.177,12.171C-9.563,12.171 -9.996,12.869 -9.996,12.869L-2.48,-4.319L1.192,11.185C1.2,11.225 1.382,12.156 0,12.156M15.944,31.84L3.316,-20.994C2.906,-20.99 -3.359,-20.994 -4.156,-20.994C-5.738,-20.994 -6.301,-20.244 -6.642,-19.563L-29.822,33.15L-20.734,33.15C-18.932,33.15 -18.622,32.36 -18.345,31.748L-13.043,19.771L1.272,19.709C2.979,19.709 3.453,20.892 3.453,20.892L6.348,33.15L13.993,33.15C13.993,33.15 16.26,33.15 15.944,31.84" style="fill:rgb(249,226,15);fill-rule:nonzero;"/>
            </g>
            <g transform="matrix(1,0,0,1,236.069,522.644)">
                <path d="M0,-54.144C-2.283,-54.144 -3.491,-54.144 -4.849,-51.629L-22.39,-19.265C-22.39,-19.265 -22.621,-18.856 -22.686,-18.723C-23.037,-18.021 -22.995,-17.054 -22.995,-17.054L-29.057,-54.144L-37.87,-54.144C-40.252,-54.144 -41.99,-54.144 -42.454,-51.338L-52.211,0C-51.071,-0.04 -46.216,0 -46.216,0C-42.108,0 -42.108,0 -41.6,-2.769L-35.835,-33.241L-30.554,-0.735C-27.198,-0.729 -30.249,-0.729 -27.198,-0.729L-25.521,-0.729C-22.238,-0.735 -22.238,-0.735 -21.029,-2.916L-4.764,-33.022L-11.037,0L-4.737,0C-0.994,0 -0.994,0 -0.409,-2.806L9.354,-54.144L0,-54.144Z" style="fill:rgb(249,226,15);fill-rule:nonzero;"/>
            </g>
        </g>
    </g>
</svg>
