<?xml version="1.0" encoding="UTF-8" standalone="no"?>
<!DOCTYPE svg PUBLIC "-//W3C//DTD SVG 1.1//EN" "http://www.w3.org/Graphics/SVG/1.1/DTD/svg11.dtd">
<svg width="100%" height="100%" viewBox="0 0 875 874" version="1.1" xmlns="http://www.w3.org/2000/svg" xmlns:xlink="http://www.w3.org/1999/xlink" xml:space="preserve" xmlns:serif="http://www.serif.com/" style="fill-rule:evenodd;clip-rule:evenodd;stroke-linejoin:round;stroke-miterlimit:2;">
    <g transform="matrix(1,0,0,1,-3123.12,-1625.9)">
        <g transform="matrix(1,0,0,1,2922,1424)">
            <g transform="matrix(0.251752,-0.249039,0.249039,0.251752,254.544,595.099)">
                <g>
                    <g transform="matrix(25.3842,12.7159,-11.2397,22.4372,30.6234,-874.13)">
                        <path d="M82.659,74.63C82.62,74.344 82.559,74.062 82.476,73.788C82.411,73.571 82.34,73.332 82.312,73.239C82.304,73.213 82.295,73.187 82.286,73.162C82.201,72.936 81.769,71.783 81.707,71.619C81.702,71.606 81.697,71.594 81.692,71.581C81.647,71.467 81.408,70.87 81.327,70.668C81.309,70.623 81.288,70.579 81.265,70.537C81.136,70.301 80.672,69.458 80.401,68.966C80.267,68.722 80.115,68.493 79.946,68.279C79.669,67.927 79.226,67.366 78.95,67.016C78.783,66.806 78.602,66.612 78.407,66.436C77.884,65.966 76.836,65.023 76.712,64.911C76.704,64.904 76.696,64.896 76.688,64.889C76.522,64.738 74.692,63.067 74.431,62.828C74.41,62.809 74.39,62.79 74.369,62.771C74.168,62.58 73.028,61.5 72.634,61.127C72.545,61.042 72.458,60.954 72.375,60.862C72.052,60.502 71.186,59.54 70.843,59.159C70.748,59.053 70.657,58.942 70.571,58.827C70.27,58.426 69.529,57.439 69.282,57.109C69.227,57.036 69.175,56.962 69.124,56.886C68.897,56.546 68.224,55.536 67.934,55.102C67.845,54.967 67.761,54.828 67.684,54.684C67.384,54.123 66.586,52.634 66.36,52.213C66.32,52.138 66.282,52.061 66.245,51.984C66.08,51.637 65.595,50.611 65.445,50.294C65.415,50.232 65.384,50.169 65.352,50.108C65.179,49.777 64.588,48.65 64.376,48.246C64.326,48.149 64.272,48.053 64.215,47.96C63.98,47.574 63.321,46.492 63.035,46.022C62.945,45.874 62.848,45.732 62.744,45.595C62.451,45.21 61.816,44.378 61.495,43.956C61.365,43.786 61.225,43.625 61.076,43.476C60.797,43.197 60.343,42.743 60.227,42.627C60.209,42.609 60.19,42.591 60.171,42.574C60.025,42.441 59.356,41.833 59.156,41.651C59.119,41.617 59.08,41.585 59.039,41.555C58.862,41.426 58.337,41.04 57.972,40.773C57.725,40.591 57.462,40.439 57.187,40.317C56.795,40.142 56.227,39.89 55.956,39.769C55.852,39.723 55.747,39.681 55.64,39.644C55.28,39.519 54.4,39.213 53.887,39.035C53.63,38.945 53.365,38.882 53.098,38.848C52.623,38.786 51.848,38.685 51.451,38.633C51.284,38.611 51.116,38.6 50.947,38.6L49.053,38.6C48.884,38.6 48.716,38.611 48.549,38.633C48.16,38.684 47.407,38.782 46.931,38.844C46.644,38.881 46.362,38.95 46.087,39.05C45.48,39.271 44.346,39.683 43.695,39.92C43.366,40.04 43.051,40.203 42.756,40.406C42.107,40.851 40.916,41.67 40.335,42.069C40.112,42.223 39.902,42.398 39.706,42.594C39.325,42.975 38.66,43.64 38.253,44.047C38.018,44.282 37.807,44.544 37.621,44.829C37.324,45.286 36.872,45.982 36.685,46.269C36.628,46.356 36.574,46.446 36.523,46.537C36.292,46.945 35.611,48.149 35.379,48.56C35.326,48.653 35.276,48.748 35.23,48.845C34.936,49.449 33.818,51.751 33.628,52.143C33.609,52.181 33.59,52.219 33.571,52.256C33.406,52.576 32.578,54.18 32.195,54.922C32.065,55.174 31.916,55.412 31.75,55.633C31.307,56.224 30.415,57.414 30.233,57.656C30.211,57.685 30.189,57.714 30.166,57.743C29.95,58.018 28.749,59.547 28.234,60.202C28.078,60.4 27.909,60.584 27.727,60.752C26.638,61.757 22.624,65.462 21.693,66.321C21.565,66.44 21.433,66.556 21.299,66.668C21.194,66.755 21.07,66.858 20.988,66.926C20.93,66.975 20.877,67.032 20.831,67.097C20.62,67.392 19.976,68.293 19.629,68.78C19.476,68.993 19.34,69.22 19.221,69.458C19.025,69.85 18.709,70.483 18.48,70.94C18.294,71.312 18.151,71.709 18.055,72.122C17.898,72.793 17.657,73.828 17.552,74.278C17.517,74.426 17.489,74.575 17.466,74.726C17.395,75.207 17.228,76.333 17.147,76.884C17.116,77.095 17.096,77.307 17.089,77.52C17.072,78.038 17.038,79.065 17.017,79.686C17.006,80.028 17.025,80.37 17.076,80.707C17.125,81.03 17.187,81.445 17.233,81.755C17.278,82.051 17.346,82.342 17.436,82.624C17.61,83.164 17.907,84.088 18.075,84.61C18.158,84.87 18.26,85.121 18.38,85.361C18.614,85.828 19.021,86.643 19.275,87.15C19.425,87.449 19.601,87.73 19.802,87.988C20.081,88.346 20.485,88.867 20.717,89.165C20.839,89.322 20.969,89.469 21.107,89.607C21.42,89.92 22.016,90.516 22.383,90.883C22.594,91.094 22.822,91.281 23.064,91.443C23.549,91.766 24.395,92.33 24.828,92.619C25.009,92.739 25.198,92.845 25.392,92.936C25.904,93.173 26.964,93.666 27.528,93.927C27.776,94.042 28.032,94.131 28.293,94.194C28.67,94.283 29.236,94.418 29.612,94.508C29.87,94.569 30.133,94.604 30.397,94.612C30.98,94.631 32.068,94.665 32.704,94.684C33.033,94.695 33.363,94.663 33.687,94.59C34.286,94.455 35.295,94.227 35.868,94.098C36.155,94.033 36.436,93.935 36.707,93.807C37.035,93.652 37.493,93.435 37.815,93.282C38.071,93.161 38.316,93.013 38.548,92.839C38.701,92.724 38.864,92.602 38.947,92.54C38.982,92.513 39.019,92.489 39.058,92.468C39.333,92.315 40.508,91.662 40.755,91.525C40.785,91.508 40.815,91.491 40.845,91.474C41.097,91.325 42.33,90.6 42.484,90.509C42.495,90.503 42.505,90.497 42.516,90.49C42.634,90.42 43.382,89.971 43.769,89.739C43.923,89.646 44.081,89.564 44.244,89.493C44.637,89.321 45.386,88.993 45.562,88.916C45.587,88.905 45.612,88.894 45.637,88.883C45.809,88.803 46.528,88.472 46.797,88.347C46.866,88.316 46.936,88.29 47.008,88.271C47.276,88.2 47.972,88.014 48.266,87.936C48.355,87.912 48.446,87.897 48.538,87.891C48.765,87.877 49.228,87.848 49.572,87.827C49.857,87.809 50.142,87.822 50.424,87.867C50.868,87.937 51.537,88.043 51.794,88.083C51.865,88.094 51.935,88.107 52.005,88.122C52.247,88.174 52.845,88.303 53.136,88.365C53.245,88.388 53.352,88.425 53.454,88.474C53.925,88.699 55.334,89.373 55.567,89.484C55.589,89.495 55.611,89.505 55.633,89.516C55.888,89.644 57.579,90.49 58.185,90.792C58.328,90.864 58.468,90.944 58.604,91.033C59.078,91.342 60.239,92.099 60.595,92.331C60.665,92.377 60.736,92.421 60.809,92.462C61.142,92.652 62.153,93.23 62.592,93.481C62.731,93.56 62.873,93.631 63.018,93.693C63.371,93.845 64.074,94.146 64.514,94.334C64.771,94.445 65.036,94.527 65.307,94.581C65.703,94.661 66.293,94.779 66.633,94.847C66.811,94.882 66.99,94.905 67.171,94.916C67.494,94.935 68.031,94.967 68.347,94.985C68.515,94.995 68.684,94.994 68.853,94.982C69.155,94.96 69.648,94.925 69.877,94.909C69.959,94.903 70.04,94.889 70.12,94.867C70.449,94.777 71.374,94.525 71.872,94.389C72.09,94.33 72.304,94.252 72.512,94.155C73.043,93.909 74.117,93.41 74.664,93.156C74.888,93.052 75.103,92.928 75.309,92.784C75.682,92.523 76.305,92.087 76.681,91.823C76.893,91.675 77.094,91.506 77.281,91.319C77.698,90.902 78.473,90.127 78.863,89.737C79.021,89.579 79.168,89.409 79.305,89.227C79.564,88.882 80.012,88.284 80.307,87.89C80.502,87.631 80.673,87.349 80.817,87.05C81.072,86.519 81.492,85.647 81.727,85.159C81.842,84.92 81.94,84.671 82.019,84.414C82.166,83.936 82.415,83.126 82.568,82.629C82.656,82.344 82.72,82.05 82.761,81.751C82.816,81.346 82.897,80.758 82.949,80.378C82.983,80.126 83,79.872 83,79.618L83,77.916C83,77.772 82.994,77.628 82.983,77.484C82.959,77.172 82.916,76.614 82.904,76.448C82.901,76.416 82.898,76.384 82.894,76.353C82.863,76.132 82.735,75.192 82.659,74.63Z" style="fill:rgb(223,245,255);fill-rule:nonzero;"/>
                    </g>
                    <g transform="matrix(13.8483,-20.9761,24.0622,15.0064,50.4908,1425.75)">
                        <ellipse cx="63.9" cy="20.4" rx="15.4" ry="10.8" style="fill:rgb(223,245,255);"/>
                    </g>
                    <g transform="matrix(26.427,10.2856,-8.50743,23.6515,-59.5341,-813.983)">
                        <ellipse cx="36.1" cy="20.3" rx="10.8" ry="15.4" style="fill:rgb(223,245,255);"/>
                    </g>
                    <g transform="matrix(16.4896,-19.1365,22.334,17.2899,-704.369,2022.7)">
                        <ellipse cx="83.9" cy="44.2" rx="15.3" ry="10.8" style="fill:rgb(223,245,255);"/>
                    </g>
                    <g transform="matrix(27.221,7.53417,-5.45251,24.6654,-251.786,-892.25)">
                        <ellipse cx="16.1" cy="44.2" rx="10.8" ry="15.3" style="fill:rgb(223,245,255);"/>
                    </g>
                </g>
            </g>
        </g>
    </g>
</svg>
